<svg xmlns="http://www.w3.org/2000/svg" width="136.198" height="26.351" viewBox="0 0 136.198 26.351">
  <g id="_711Logo" data-name="711Logo" transform="translate(-67.867 -38.635)">
    <g id="组_1983" data-name="组 1983" transform="translate(69.367 40.516)">
      <g id="组_1981" data-name="组 1981" transform="translate(0 0.065)">
        <path id="路径_2246" data-name="路径 2246" d="M90.867,54.08v9.549h6.209V54.08s.165-1.834.212-2.117A17.189,17.189,0,0,1,97.8,50.27,12.334,12.334,0,0,1,99.1,48.435a9.887,9.887,0,0,1,1.388-.988c.306-.165,1.411-.57,1.411-.57V40.745s-1.047.275-1.293.376a19.239,19.239,0,0,0-2.823,1.418,16.708,16.708,0,0,0-4.655,4.485,13.832,13.832,0,0,0-1.67,3.481A15.778,15.778,0,0,0,90.867,54.08Z" transform="translate(-84.799 -40.745)" fill="#e60012" stroke="#fff" stroke-width="3"/>
        <path id="路径_2247" data-name="路径 2247" d="M69.367,45.66h8.155a12.757,12.757,0,0,1,1.429-1.629,18.438,18.438,0,0,1,2.064-1.676c.388-.282,1.693-1.023,1.693-1.023l1.164-.588h-14.5Z" transform="translate(-69.367 -40.745)" fill="#f08300" stroke="#fff" stroke-width="3"/>
      </g>
      <path id="路径_2248" data-name="路径 2248" d="M131.992,74.429l7.994.007V70.143l-7.994.005Z" transform="translate(-114.318 -61.782)" fill="#094" stroke="#fff" stroke-width="3"/>
      <path id="路径_2249" data-name="路径 2249" d="M172.325,63.628h13.211V58.736h-5.75V54.08h5.75V49.894h-5.75V45.66h5.75V40.745H172.325Z" transform="translate(-143.269 -40.68)" fill="#094" stroke="#fff" stroke-width="3"/>
      <path id="路径_2250" data-name="路径 2250" d="M278.8,63.464h12.982l-.035-4.845-5.549-.013.022-4.643,5.55-.023V49.753l-5.648-.012,0-4.222,5.736.005.008-5.009-13.082.018Z" transform="translate(-219.682 -40.516)" fill="#094" stroke="#fff" stroke-width="3"/>
      <path id="路径_2251" data-name="路径 2251" d="M227.9,63.628h12.476V58.736h-5.045V40.745h-7.467Z" transform="translate(-183.135 -40.68)" fill="#094" stroke="#fff" stroke-width="3"/>
      <path id="路径_2252" data-name="路径 2252" d="M452.575,63.628h6.7v-14.6a3.48,3.48,0,0,1,.318-1.729,1.82,1.82,0,0,1,1.024-.717,4.169,4.169,0,0,1,2.159.152,1.432,1.432,0,0,1,.762.965,8.273,8.273,0,0,1,.051,1.5c0,.774-.009,14.434-.009,14.434h6.491v-16.4a22.383,22.383,0,0,0-.081-3.186,4.2,4.2,0,0,0-2.706-2.987,7.855,7.855,0,0,0-4.992.229c-.717.294-1.341,1.041-2.046,1.217a3.007,3.007,0,0,1-.97-.018V40.744h-6.7Z" transform="translate(-344.427 -40.68)" fill="#094" stroke="#fff" stroke-width="3"/>
      <path id="路径_2253" data-name="路径 2253" d="M395.888,63.628h13.023V58.736h-5.785V54.08h5.785V49.894h-5.785V45.66h5.785V40.745H395.888Z" transform="translate(-303.738 -40.68)" fill="#094" stroke="#fff" stroke-width="3"/>
      <path id="路径_2254" data-name="路径 2254" d="M329.45,40.745l3.381,22.883h9.725l4.415-22.836-6.275-.005-2.819,15.951-2.413-15.976Z" transform="translate(-256.05 -40.68)" fill="#094" stroke="#fff" stroke-width="3"/>
      <g id="组_1982" data-name="组 1982" transform="translate(127.477 17.25)">
        <path id="路径_2255" data-name="路径 2255" d="M523.925,107.359a2.86,2.86,0,1,0-2.861-2.86A2.86,2.86,0,0,0,523.925,107.359Z" transform="translate(-521.064 -101.638)" fill="#fff" stroke="#fff" stroke-linecap="round" stroke-linejoin="round" stroke-width="3"/>
        <path id="路径_2256" data-name="路径 2256" d="M529.6,108.8a1.271,1.271,0,0,1-.031-.273l-.016-.431a.708.708,0,0,0-.109-.4.67.67,0,0,0-.289-.2.878.878,0,0,0,.34-.295.842.842,0,0,0,.122-.472.757.757,0,0,0-.462-.759,1.551,1.551,0,0,0-.619-.107h-1.518v3.211h.444v-1.377h1.011a1,1,0,0,1,.4.059.449.449,0,0,1,.239.422l.027.535a2.1,2.1,0,0,0,.022.254.407.407,0,0,0,.036.107h.545V109A.27.27,0,0,1,529.6,108.8Zm-.615-1.594a.875.875,0,0,1-.495.122h-1.027v-1.1h1.085a.849.849,0,0,1,.364.065.472.472,0,0,1,.255.468A.493.493,0,0,1,528.981,107.207Z" transform="translate(-525.336 -104.667)" fill="#094"/>
      </g>
    </g>
    <g id="组_1986" data-name="组 1986" transform="translate(69.367 40.516)">
      <g id="组_1984" data-name="组 1984" transform="translate(0 0.065)">
        <path id="路径_2257" data-name="路径 2257" d="M90.867,54.08v9.549h6.209V54.08s.165-1.834.212-2.117A17.189,17.189,0,0,1,97.8,50.27,12.334,12.334,0,0,1,99.1,48.435a9.887,9.887,0,0,1,1.388-.988c.306-.165,1.411-.57,1.411-.57V40.745s-1.047.275-1.293.376a19.239,19.239,0,0,0-2.823,1.418,16.708,16.708,0,0,0-4.655,4.485,13.832,13.832,0,0,0-1.67,3.481A15.778,15.778,0,0,0,90.867,54.08Z" transform="translate(-84.799 -40.745)" fill="#ed2525"/>
        <path id="路径_2258" data-name="路径 2258" d="M69.367,45.66h8.155a12.757,12.757,0,0,1,1.429-1.629,18.438,18.438,0,0,1,2.064-1.676c.388-.282,1.693-1.023,1.693-1.023l1.164-.588h-14.5Z" transform="translate(-69.367 -40.745)" fill="#f37721"/>
      </g>
      <path id="路径_2259" data-name="路径 2259" d="M131.992,74.429l7.994.007V70.143l-7.994.005Z" transform="translate(-114.318 -61.782)" fill="#008062"/>
      <path id="路径_2260" data-name="路径 2260" d="M172.325,63.628h13.211V58.736h-5.75V54.08h5.75V49.894h-5.75V45.66h5.75V40.745H172.325Z" transform="translate(-143.269 -40.68)" fill="#008062"/>
      <path id="路径_2261" data-name="路径 2261" d="M278.8,63.464h12.982l-.035-4.845-5.549-.013.022-4.643,5.55-.023V49.753l-5.648-.012,0-4.222,5.736.005.008-5.009-13.082.018Z" transform="translate(-219.682 -40.516)" fill="#008062"/>
      <path id="路径_2262" data-name="路径 2262" d="M227.9,63.628h12.476V58.736h-5.045V40.745h-7.467Z" transform="translate(-183.135 -40.68)" fill="#008062"/>
      <path id="路径_2263" data-name="路径 2263" d="M452.575,63.628h6.7v-14.6a3.48,3.48,0,0,1,.318-1.729,1.82,1.82,0,0,1,1.024-.717,4.169,4.169,0,0,1,2.159.152,1.432,1.432,0,0,1,.762.965,8.273,8.273,0,0,1,.051,1.5c0,.774-.009,14.434-.009,14.434h6.491v-16.4a22.383,22.383,0,0,0-.081-3.186,4.2,4.2,0,0,0-2.706-2.987,7.855,7.855,0,0,0-4.992.229c-.717.294-1.341,1.041-2.046,1.217a3.007,3.007,0,0,1-.97-.018V40.744h-6.7Z" transform="translate(-344.427 -40.68)" fill="#008062"/>
      <path id="路径_2264" data-name="路径 2264" d="M395.888,63.628h13.023V58.736h-5.785V54.08h5.785V49.894h-5.785V45.66h5.785V40.745H395.888Z" transform="translate(-303.738 -40.68)" fill="#008062"/>
      <path id="路径_2265" data-name="路径 2265" d="M329.45,40.745l3.381,22.883h9.725l4.415-22.836-6.275-.005-2.819,15.951-2.413-15.976Z" transform="translate(-256.05 -40.68)" fill="#008062"/>
      <g id="组_1985" data-name="组 1985" transform="translate(127.477 17.25)">
        <path id="路径_2266" data-name="路径 2266" d="M523.925,107.359a2.86,2.86,0,1,0-2.861-2.86A2.86,2.86,0,0,0,523.925,107.359Z" transform="translate(-521.064 -101.638)" fill="none" stroke="#008062" stroke-width="1"/>
        <path id="路径_2267" data-name="路径 2267" d="M529.6,108.8a1.271,1.271,0,0,1-.031-.273l-.016-.431a.708.708,0,0,0-.109-.4.67.67,0,0,0-.289-.2.878.878,0,0,0,.34-.295.842.842,0,0,0,.122-.472.757.757,0,0,0-.462-.759,1.551,1.551,0,0,0-.619-.107h-1.518v3.211h.444v-1.377h1.011a1,1,0,0,1,.4.059.449.449,0,0,1,.239.422l.027.535a2.1,2.1,0,0,0,.022.254.407.407,0,0,0,.036.107h.545V109A.27.27,0,0,1,529.6,108.8Zm-.615-1.594a.875.875,0,0,1-.495.122h-1.027v-1.1h1.085a.849.849,0,0,1,.364.065.472.472,0,0,1,.255.468A.493.493,0,0,1,528.981,107.207Z" transform="translate(-525.336 -104.667)" fill="#008062"/>
      </g>
    </g>
  </g>
</svg>
