<svg xmlns="http://www.w3.org/2000/svg" width="326.891" height="272.179" viewBox="0 0 326.891 272.179">
  <g id="bg_L_03" data-name="bg L 03" transform="translate(-20.58 -11.724)">
    <g id="组_2016" data-name="组 2016" transform="matrix(-0.899, -0.438, 0.438, -0.899, 324.215, 94.92)">
      <g id="组_2008" data-name="组 2008" transform="matrix(1, 0.017, -0.017, 1, 0.166, 43.523)">
        <path id="路径_2160" data-name="路径 2160" d="M8.067,6.063C8.92,3.537,7.865.9,5.714.185S1.141.931.294,3.46.5,8.621,2.647,9.348,7.226,8.6,8.067,6.063Z" transform="translate(0 0)" fill="#333"/>
      </g>
      <g id="组_2009" data-name="组 2009" transform="matrix(1, 0.017, -0.017, 1, 7.708, 53.854)">
        <path id="路径_2161" data-name="路径 2161" d="M8.065,6.065C8.92,3.535,7.863.9,5.712.18S1.14.936.294,3.465.5,8.628,2.648,9.35,7.216,8.605,8.065,6.065Z" transform="translate(0 0)" fill="#333"/>
      </g>
      <g id="组_2010" data-name="组 2010" transform="matrix(1, 0.017, -0.017, 1, 18.987, 60.656)">
        <path id="路径_2162" data-name="路径 2162" d="M8.071,6.065C8.922,3.536,7.862.9,5.716.184S1.141.933.294,3.462.5,8.629,2.644,9.349,7.224,8.6,8.071,6.065Z" transform="translate(0 0)" fill="#333"/>
      </g>
      <g id="组_2011" data-name="组 2011" transform="matrix(1, 0.017, -0.017, 1, 34.168, 61.699)">
        <path id="路径_2163" data-name="路径 2163" d="M8.074,6.065C8.918,3.537,7.865.9,5.713.184S1.138.929.293,3.459s.2,5.164,2.352,5.886S7.223,8.6,8.074,6.065Z" transform="translate(0 0)" fill="#333"/>
      </g>
      <g id="组_2012" data-name="组 2012" transform="matrix(1, 0.017, -0.017, 1, 46.23, 56.347)">
        <path id="路径_2164" data-name="路径 2164" d="M8.069,6.065C8.918,3.537,7.863.9,5.712.182S1.137.931.293,3.46.5,8.623,2.645,9.348,7.222,8.6,8.069,6.065Z" transform="translate(0 0)" fill="#333"/>
      </g>
      <g id="组_2013" data-name="组 2013" transform="matrix(1, 0.017, -0.017, 1, 57.323, 27.195)">
        <path id="路径_2165" data-name="路径 2165" d="M12.279,4.7C10.787,1.024,6.954-.9,3.733.415S-.9,5.768.6,9.447s5.317,5.6,8.548,4.294S13.774,8.387,12.279,4.7Z" transform="translate(0 0)" fill="#333"/>
      </g>
      <g id="组_2014" data-name="组 2014" transform="matrix(1, 0.017, -0.017, 1, 12.753, 24.808)">
        <path id="路径_2166" data-name="路径 2166" d="M39.109,16.325c1.284-4.711-4.656-11.389-9.363-11.271-5.387.131-5.585,4.378-11.275.989C15.262,4.133,14.727.379,10.347.031,6.553-.27,1.259,1.629.165,5.649c-1.282,4.706,4.982,16.015,15.728,18.963S37.814,21.026,39.109,16.325Z" transform="translate(0 0)" fill="#333"/>
      </g>
      <g id="组_2015" data-name="组 2015" transform="matrix(1, 0.017, -0.017, 1, 31.527, 0)">
        <path id="路径_2167" data-name="路径 2167" d="M22.057,10.762A10.761,10.761,0,0,0,9.421.154,11.275,11.275,0,0,0,.76,6.334c-2.816,6,2.7,9.688,8.161,11.185C18.093,20.036,22.041,15.733,22.057,10.762Z" transform="translate(0 0)" fill="#333"/>
      </g>
    </g>
    <g id="组_2018" data-name="组 2018" transform="matrix(-0.899, -0.438, 0.438, -0.899, 177.646, 279.488)">
      <g id="组_2008-2" data-name="组 2008" transform="matrix(1, 0.017, -0.017, 1, 0.166, 43.523)">
        <path id="路径_2160-2" data-name="路径 2160" d="M8.067,6.063C8.92,3.537,7.865.9,5.714.185S1.141.931.294,3.46.5,8.621,2.647,9.348,7.226,8.6,8.067,6.063Z" transform="translate(0 0)" fill="#333"/>
      </g>
      <g id="组_2009-2" data-name="组 2009" transform="matrix(1, 0.017, -0.017, 1, 7.708, 53.854)">
        <path id="路径_2161-2" data-name="路径 2161" d="M8.065,6.065C8.92,3.535,7.863.9,5.712.18S1.14.936.294,3.465.5,8.628,2.648,9.35,7.216,8.605,8.065,6.065Z" transform="translate(0 0)" fill="#333"/>
      </g>
      <g id="组_2010-2" data-name="组 2010" transform="matrix(1, 0.017, -0.017, 1, 18.987, 60.656)">
        <path id="路径_2162-2" data-name="路径 2162" d="M8.071,6.065C8.922,3.536,7.862.9,5.716.184S1.141.933.294,3.462.5,8.629,2.644,9.349,7.224,8.6,8.071,6.065Z" transform="translate(0 0)" fill="#333"/>
      </g>
      <g id="组_2011-2" data-name="组 2011" transform="matrix(1, 0.017, -0.017, 1, 34.168, 61.699)">
        <path id="路径_2163-2" data-name="路径 2163" d="M8.074,6.065C8.918,3.537,7.865.9,5.713.184S1.138.929.293,3.459s.2,5.164,2.352,5.886S7.223,8.6,8.074,6.065Z" transform="translate(0 0)" fill="#333"/>
      </g>
      <g id="组_2012-2" data-name="组 2012" transform="matrix(1, 0.017, -0.017, 1, 46.23, 56.347)">
        <path id="路径_2164-2" data-name="路径 2164" d="M8.069,6.065C8.918,3.537,7.863.9,5.712.182S1.137.931.293,3.46.5,8.623,2.645,9.348,7.222,8.6,8.069,6.065Z" transform="translate(0 0)" fill="#333"/>
      </g>
      <g id="组_2014-2" data-name="组 2014" transform="matrix(1, 0.017, -0.017, 1, 12.753, 24.808)">
        <path id="路径_2166-2" data-name="路径 2166" d="M39.109,16.325c1.284-4.711-4.656-11.389-9.363-11.271-5.387.131-5.585,4.378-11.275.989C15.262,4.133,14.727.379,10.347.031,6.553-.27,1.259,1.629.165,5.649c-1.282,4.706,4.982,16.015,15.728,18.963S37.814,21.026,39.109,16.325Z" transform="translate(0 0)" fill="#333"/>
      </g>
    </g>
    <g id="组_2017" data-name="组 2017" transform="translate(161.298 27.069) rotate(25)">
      <g id="组_2008-3" data-name="组 2008" transform="matrix(1, -0.017, 0.017, 1, 0, 18.319)">
        <path id="路径_2160-3" data-name="路径 2160" d="M8.067,3.466c.852,2.526-.2,5.163-2.354,5.879S1.141,8.6.294,6.069.5.909,2.647.182,7.226.933,8.067,3.466Z" transform="translate(0 0)" fill="#333"/>
      </g>
      <g id="组_2009-3" data-name="组 2009" transform="matrix(1, -0.017, 0.017, 1, 7.542, 7.986)">
        <path id="路径_2161-3" data-name="路径 2161" d="M8.065,3.466C8.92,6,7.863,8.627,5.712,9.352S1.14,8.6.294,6.067.5.9,2.648.182,7.216.926,8.065,3.466Z" transform="translate(0 0)" fill="#333"/>
      </g>
      <g id="组_2010-3" data-name="组 2010" transform="matrix(1, -0.017, 0.017, 1, 18.821, 1.184)">
        <path id="路径_2162-3" data-name="路径 2162" d="M8.071,3.468C8.922,6,7.862,8.629,5.716,9.349S1.141,8.6.294,6.071.5.9,2.644.183,7.224.93,8.071,3.468Z" transform="translate(0 0)" fill="#333"/>
      </g>
      <g id="组_2011-3" data-name="组 2011" transform="matrix(1, -0.017, 0.017, 1, 34.002, 0.146)">
        <path id="路径_2163-3" data-name="路径 2163" d="M8.074,3.462c.844,2.528-.209,5.168-2.361,5.881S1.138,8.6.293,6.067.495.9,2.645.181,7.223.928,8.074,3.462Z" transform="translate(0 0)" fill="#333"/>
      </g>
      <g id="组_2012-3" data-name="组 2012" transform="matrix(1, -0.017, 0.017, 1, 46.064, 5.496)">
        <path id="路径_2164-3" data-name="路径 2164" d="M8.069,3.464c.849,2.529-.206,5.168-2.356,5.883S1.137,8.6.293,6.069.5.906,2.645.181,7.222.931,8.069,3.464Z" transform="translate(0 0)" fill="#333"/>
      </g>
      <g id="组_2013-2" data-name="组 2013" transform="matrix(1, -0.017, 0.017, 1, 57.076, 30.028)">
        <path id="路径_2165-2" data-name="路径 2165" d="M12.279,9.448c-1.492,3.678-5.324,5.6-8.546,4.287S-.9,8.382.6,4.7,5.918-.9,9.148.409,13.775,5.763,12.279,9.448Z" transform="translate(0 0)" fill="#333"/>
      </g>
      <g id="组_2014-3" data-name="组 2014" transform="matrix(1, -0.017, 0.017, 1, 12.31, 21.214)">
        <path id="路径_2166-3" data-name="路径 2166" d="M39.109,9.027c1.284,4.711-4.656,11.389-9.363,11.271-5.387-.132-5.585-4.378-11.275-.989-3.21,1.91-3.745,5.664-8.125,6.012-3.794.3-9.088-1.6-10.182-5.618C-1.116,15,5.148,3.687,15.893.739S37.814,4.325,39.109,9.027Z" transform="translate(0 0)" fill="#333"/>
      </g>
      <g id="组_2015-2" data-name="组 2015" transform="matrix(1, -0.017, 0.017, 1, 31.209, 53.113)">
        <path id="路径_2167-2" data-name="路径 2167" d="M22.057,7.5A10.761,10.761,0,0,1,9.421,18.106,11.276,11.276,0,0,1,.76,11.926c-2.816-6,2.7-9.688,8.161-11.184C18.093-1.776,22.041,2.527,22.057,7.5Z" transform="translate(0 0)" fill="#333"/>
      </g>
    </g>
    <g id="组_2019" data-name="组 2019" transform="matrix(0.883, 0.469, -0.469, 0.883, 33.506, 218.968)">
      <g id="组_2008-4" data-name="组 2008" transform="matrix(1, -0.017, 0.017, 1, 0, 18.319)">
        <path id="路径_2160-4" data-name="路径 2160" d="M8.067,3.466c.852,2.526-.2,5.163-2.354,5.879S1.141,8.6.294,6.069.5.909,2.647.182,7.226.933,8.067,3.466Z" transform="translate(0 0)" fill="#333"/>
      </g>
      <g id="组_2009-4" data-name="组 2009" transform="matrix(1, -0.017, 0.017, 1, 7.542, 7.986)">
        <path id="路径_2161-4" data-name="路径 2161" d="M8.065,3.466C8.92,6,7.863,8.627,5.712,9.352S1.14,8.6.294,6.067.5.9,2.648.182,7.216.926,8.065,3.466Z" transform="translate(0 0)" fill="#333"/>
      </g>
      <g id="组_2010-4" data-name="组 2010" transform="matrix(1, -0.017, 0.017, 1, 18.821, 1.184)">
        <path id="路径_2162-4" data-name="路径 2162" d="M8.071,3.468C8.922,6,7.862,8.629,5.716,9.349S1.141,8.6.294,6.071.5.9,2.644.183,7.224.93,8.071,3.468Z" transform="translate(0 0)" fill="#333"/>
      </g>
      <g id="组_2011-4" data-name="组 2011" transform="matrix(1, -0.017, 0.017, 1, 34.002, 0.146)">
        <path id="路径_2163-4" data-name="路径 2163" d="M8.074,3.462c.844,2.528-.209,5.168-2.361,5.881S1.138,8.6.293,6.067.495.9,2.645.181,7.223.928,8.074,3.462Z" transform="translate(0 0)" fill="#333"/>
      </g>
      <g id="组_2012-4" data-name="组 2012" transform="matrix(1, -0.017, 0.017, 1, 46.064, 5.496)">
        <path id="路径_2164-4" data-name="路径 2164" d="M8.069,3.464c.849,2.529-.206,5.168-2.356,5.883S1.137,8.6.293,6.069.5.906,2.645.181,7.222.931,8.069,3.464Z" transform="translate(0 0)" fill="#333"/>
      </g>
      <g id="组_2014-4" data-name="组 2014" transform="matrix(1, -0.017, 0.017, 1, 12.31, 21.214)">
        <path id="路径_2166-4" data-name="路径 2166" d="M39.109,9.027c1.284,4.711-4.656,11.389-9.363,11.271-5.387-.132-5.585-4.378-11.275-.989-3.21,1.91-3.745,5.664-8.125,6.012-3.794.3-9.088-1.6-10.182-5.618C-1.116,15,5.148,3.687,15.893.739S37.814,4.325,39.109,9.027Z" transform="translate(0 0)" fill="#333"/>
      </g>
    </g>
  </g>
</svg>
