<svg id="bg_L_05" data-name="bg L 05" xmlns="http://www.w3.org/2000/svg" width="347.047" height="474.853" viewBox="0 0 347.047 474.853">
  <path id="路径_2295" data-name="路径 2295" d="M1752.1-203.613c-2.795-18.333-11.064-34.989-19.438-51.435a10.4,10.4,0,0,0-1.4-2.954c-1.615-2.439-2.4-5.309-4.223-7.459-6.975-14.141-14.675-28.1-24.333-40.616-17.757-25.121-40-47.235-52.513-75.9-5.956-20.493-16.96-37.341-30.535-53.395-2.671-9.4,2.556-19.254,1.99-29.008h0c.444-5.027,4.208-8.257,7.539-11.607h0q.382-.43.764-.862c4.386-9.5,12.744,6.971,14.685-8.306a3.705,3.705,0,0,0,.841-3.047h0c1.48-11.926-7.614-21.931-6.047-34.248h0a13.744,13.744,0,0,0-.526-4.689l-.065.155c-1.548-6.76-6.788-12.434-12.768-15.836-14.984-10.146-34.326-8.2-49.867-.41-8.113,3.524-12.941,11.952-16.817,19.512a72.774,72.774,0,0,0-4.336,9.971h0c-5.056,12.6-7.377,25.838-10.382,39.005-1.49,6.652-2.9,13.324-4.363,19.98-.182,1.28-.565,2.562-.847,3.842h0a23.313,23.313,0,0,0-.522,2.362c-.035-.024-.07-.048-.1-.073v0l0-.019c-15.329,18.486-28.239,38.891-41.177,58.984-7.72,16.508-12.939,34.2-25.543,47.929h0l.038-.013c-11.687,15.961-26.584,32.3-36.395,50.317h0l0,0c-.979,1.431-2.429,3.256-2.513,4.874-7.627,12.308-13.542,27.1-18.348,41.054h0c.009-.005.014-.011.024-.016-3.3,9.979-8.439,19.838-9.058,30.426h0c-.172,1.979-.629,3.9.017,5.869v0c-1.534,9.258,5.206,21.023,15.215,14.09v0a22.473,22.473,0,0,0,4.309-2.638c.555-.069.95-1.207,1.657-.247,3.7,7.214,8.965-7.326,11.724-10.23,2.755-3.552,4.651-7.937,7.37-11.659,1.579-2.877,3.408-5.637,4.9-8.527q.565-.938,1.131-1.876c10.551-16.843,17.942-35.367,28.765-51.912.367-.46.784-.93,1.17-1.4a44.493,44.493,0,0,1,2.992-3.484h0c27.649-29.709,16.087-19.008,17.369,12.847h0c-3.842,31.072.312,62.413,9.931,92.24h0c2.114,14.484,7.367,28.979,10.219,42.336-.045-.136-.088-.271-.12-.412A215.486,215.486,0,0,1,1516.8-110.7h0c-5.435,9.808-20.142,11.49-30.006,14.7h0c-4.535-.536-22.244,14.506-12.833,13.188,2.842-1.776,6.321-.82,9.521-1.011,6.693,1.9,16.435-2.065,21.617,2.232,4.215,5.786,12.427,1.424,18.024.9h0a138.322,138.322,0,0,0,14.111-1.293h0c7.386-2.469,20.537,7.521,22.216-3.467,2.541,3.435,4.395.85,3.229-2.208-1.64-5.927-7.3-9.519-10.271-14.768,1.57-.186,3.461.044,4.651-1.375h0c8.581,8.307-.7-10.529-3.767-13.918-5.277-5.823-3.292-13.871-3.092-20.991,4.219,2.9,4.937.08,2.206-3.2-7.4-9.228,17.759,6.872,12.063.5-1.165-.817-2.852-2.262-1.693-3.85,7.708,3.144,10.5,5.059,2.167-1.8h0c-3.914-4.357-8.072-8.939-10.786-13.769,3.5-.855,6.823-.291,10.333.25l2.162,0c4.02-.746.077,3.2,2.53,4.765,1.64-5.136,6.936-5.468,8.17.152,5.094,1.145,11.652-7.088,13.956,1.108.236.926.888,1.015,1.722.739a.34.34,0,0,1-.219-.154c1.8,1.744,4.534,5.5,7.282,3.83-4.2-6.505-3.242-8.654,3.8-4.231a7.944,7.944,0,0,0,3.043,1.259c7.109,3.937,2.008-.822,6.684-1.135-.332-1.122-5.04-.9-3.2-3.268,4.2-.611,10-1.3,13.423.491-2.661,4.086-11.292,5.9-11.608,10.342,2.607.983,6.62-1.662,9.188-2.891h0c5.881-2.582-2.614,9.372-5.627,10.576,2.2.211.286.739.375,2.129,5.891-3.855,7.669-4.879,5.762,2.961.547,10.8-5.316,18.489-10.869,26.731-1.5.561-3.071,6.633-1.194,3.459,2.023-3.02,2.615-.883,5.3-.98.349.2.594.478.232.829a40.837,40.837,0,0,1-17.211,8.342c-1.2.007-2.714.237-3.432,1.26-4.941-.468-15.992,13.471-6.011,10.946,12.072-2.4,20.909,4.632,31.189,8.2,2.011.8,3.923-.9,5.247-2.115,3.4.77,5.895-.87,8.179-3.072a135.166,135.166,0,0,1,13.862,1.55h0c2.2-.929,3.7.49,5.6,1.073,3.086.761,6.147.3,9.147,1.733h0c3.944.514,1.478-11.329,1.737-14.319-2.374-5.3-8.061-8.814-11.635-13.472-4.312-9.7-.708-22.12-3.165-32.453,2.152-11.714,4.042-23.718,6.98-35.586,3.1-10.97,7.9-20.967,9.912-32.152.548-4.464,1.276-8.358,1.9-12.709a166.835,166.835,0,0,0-3.851-66.062h0c.712-1.985-.083-3.8-.648-5.636.42-2.429-4.77-14.421-.26-9.593,4.73,7.217,12.761,12.037,17.272,19.083h0a50.772,50.772,0,0,1,5.216,7.765c5.519,9.413,11.293,18.59,16.432,28.235h0c.958,2.8,2.682,5.435,3.949,8.2h0c2.094,3.482,3.685,7.113,5.987,10.431,9.32,12.8,16.464,31.883,31.589,36.03h0a5.469,5.469,0,0,0,4.125,0h0c1.983.052,2.734-.864,3.281-2.645A20.855,20.855,0,0,0,1752.1-203.613Z" transform="translate(-1405.546 549.757)" fill="#333"/>
</svg>
