<svg xmlns="http://www.w3.org/2000/svg" width="445.429" height="293.529" viewBox="0 0 445.429 293.529">
  <path id="bg_R_06" data-name="bg R 06" d="M2629.967,1473.44c-1.074,1.6-11.561,19.94-11.659,20.81,0,0,.417,2.451,4.25,4.141-.095.078,5.068,9.339,8.281,5.011-.217-1.781,7.045,1.443,8.715-3.7,11.249-13.617,5.2-5.587,22.88-6.1-.665,1.144,9.377-4.742,14.272-3.162,6.513,6.055,25.657-12.526,37.371-6.1,0,0,7.935,6.049,14.708,8.5,6.153.307,4.671,16.851,5.011,21.028a123.714,123.714,0,0,0-13.073,21.462c-9.2,12.316-13.6,31.068-28.435,52.842-7.555,9.494-12.092,11.956-21.574,26.364.711-1.141-9.2,20.113-2.615,17.433l5.122-2.07c-1.8,5.078,2.719,4.3,7.082,2.614,0,0,4.01,2.779,9.914-1.306,1.763-.331,12.765.03,13.619-10.352l13.51-20.155c17.888-21.816,50.812-47.341,76.7-64.933l7.734-6.321,23.1,8.716s5.426,13.672,8.935,24.3c3.694,8.062.706,13.464,11.547,29.961,0,0,4.774,13.456,2.507,27.455-.448,9.361-6.676,8.709-11.768,19.284-5.187,5.071,15.133-2.881,16.235-3.267-.238,9.28,8.447,23.707,19.284.653,0,0,2.168,5.615,7.19,2.941,8.361-4.161,1.956-22.316.982-38.35-6.573-94.325-12.006-47.993,76.591-65.369,6.287,13.461,10.024,24.7,14.709,43.578-1.316,1.934,1.942,30.656-11.548,38.242,0,0-14.284,5.125-13.947,10.241,1.176,3.28,42.636.922,46.521-7.407,2.819-11.334,11.957-35.33,16.67-46.2,3.608-7.481,8.657-20.439-2.833-33.23,8.563.746,19.9,13.338,25.6,23.208,0,0-1.1,26.369,3.051,41.073.478,4.226,24.445,54.687,17.758,17.432,13.7,42.828,5.792-47.628,8.716-70.816,0,0,7.87-19.874-3.486-29.417,0,0-11.308-3.531-16.124-10.459,19.31-41.921,43.265-66.331-37.7-121.154-60.776-47.563-162.316,12.36-246.882-2.829,0,0,.2-18.3-10.894-18.088,0,0-9.168-1.95-17,13.509-30.574-3.972-12.661,1.132-38.132-21.138-1.133-1.389-11.179-14.17-8.282-.977,1.045,24.771,13.988,29.817-18.849,51.531C2657.113,1424.467,2639.832,1445.567,2629.967,1473.44Z" transform="translate(-2618.308 -1355.413)" fill="#333" fill-rule="evenodd"/>
</svg>
