<svg xmlns="http://www.w3.org/2000/svg" width="120.436" height="100.279" viewBox="0 0 120.436 100.279">
  <g id="bg_R_04" data-name="bg R 04" transform="translate(-1424.572 -3287.584)">
    <g id="组_2016" data-name="组 2016" transform="matrix(0.899, -0.438, 0.438, 0.899, -1258.309, 882.702)">
      <g id="组_2008" data-name="组 2008" transform="matrix(1, -0.017, 0.017, 1, 1351.391, 3349.353)">
        <path id="路径_2160" data-name="路径 2160" d="M3048.094,663.754a1.531,1.531,0,1,1-2-1.21A1.657,1.657,0,0,1,3048.094,663.754Z" transform="translate(-3045.122 -662.477)" fill="#fff"/>
      </g>
      <g id="组_2009" data-name="组 2009" transform="matrix(1, -0.017, 0.017, 1, 1354.169, 3345.546)">
        <path id="路径_2161" data-name="路径 2161" d="M3051.5,659.248a1.53,1.53,0,1,1-2-1.21A1.66,1.66,0,0,1,3051.5,659.248Z" transform="translate(-3048.532 -657.971)" fill="#fff"/>
      </g>
      <g id="组_2010" data-name="组 2010" transform="matrix(1, -0.017, 0.017, 1, 1358.325, 3343.04)">
        <path id="路径_2162" data-name="路径 2162" d="M3056.541,656.331a1.531,1.531,0,1,1-2-1.21A1.661,1.661,0,0,1,3056.541,656.331Z" transform="translate(-3053.567 -655.053)" fill="#fff"/>
      </g>
      <g id="组_2011" data-name="组 2011" transform="matrix(1, -0.017, 0.017, 1, 1363.918, 3342.657)">
        <path id="路径_2163" data-name="路径 2163" d="M3063.255,655.987a1.532,1.532,0,1,1-2-1.208A1.661,1.661,0,0,1,3063.255,655.987Z" transform="translate(-3060.28 -654.712)" fill="#fff"/>
      </g>
      <g id="组_2012" data-name="组 2012" transform="matrix(1, -0.017, 0.017, 1, 1368.362, 3344.628)">
        <path id="路径_2164" data-name="路径 2164" d="M3068.54,658.444a1.531,1.531,0,1,1-2-1.209A1.661,1.661,0,0,1,3068.54,658.444Z" transform="translate(-3065.567 -657.168)" fill="#fff"/>
      </g>
      <g id="组_2013" data-name="组 2013" transform="matrix(1, -0.017, 0.017, 1, 1372.419, 3353.667)">
        <path id="路径_2165" data-name="路径 2165" d="M3074.766,671.569a2.343,2.343,0,1,1-1.154-3.33A2.5,2.5,0,0,1,3074.766,671.569Z" transform="translate(-3070.242 -668.088)" fill="#fff"/>
      </g>
      <g id="组_2014" data-name="组 2014" transform="matrix(1, -0.017, 0.017, 1, 1355.926, 3350.419)">
        <path id="路径_2166" data-name="路径 2166" d="M3064.946,667.176c.473,1.736-1.716,4.2-3.449,4.152-1.985-.048-2.058-1.613-4.154-.364-1.183.7-1.38,2.087-2.993,2.215-1.4.111-3.348-.589-3.751-2.07-.472-1.734,1.836-5.9,5.795-6.986S3064.469,665.444,3064.946,667.176Z" transform="translate(-3050.537 -663.85)" fill="#fff"/>
      </g>
      <g id="组_2015" data-name="组 2015" transform="matrix(1, -0.017, 0.017, 1, 1362.889, 3362.172)">
        <path id="路径_2167" data-name="路径 2167" d="M3066.765,680.848a3.965,3.965,0,0,1-4.655,3.908,4.154,4.154,0,0,1-3.191-2.277c-1.038-2.209,1-3.57,3.007-4.121C3065.3,677.431,3066.759,679.017,3066.765,680.848Z" transform="translate(-3058.638 -678.086)" fill="#fff"/>
      </g>
    </g>
    <g id="组_2018" data-name="组 2018" transform="matrix(0.899, -0.438, 0.438, 0.899, -1204.309, 950.702)">
      <g id="组_2008-2" data-name="组 2008" transform="matrix(1, -0.017, 0.017, 1, 1351.391, 3349.353)">
        <path id="路径_2160-2" data-name="路径 2160" d="M3048.094,663.754a1.531,1.531,0,1,1-2-1.21A1.657,1.657,0,0,1,3048.094,663.754Z" transform="translate(-3045.122 -662.477)" fill="#fff"/>
      </g>
      <g id="组_2009-2" data-name="组 2009" transform="matrix(1, -0.017, 0.017, 1, 1354.169, 3345.546)">
        <path id="路径_2161-2" data-name="路径 2161" d="M3051.5,659.248a1.53,1.53,0,1,1-2-1.21A1.66,1.66,0,0,1,3051.5,659.248Z" transform="translate(-3048.532 -657.971)" fill="#fff"/>
      </g>
      <g id="组_2010-2" data-name="组 2010" transform="matrix(1, -0.017, 0.017, 1, 1358.325, 3343.04)">
        <path id="路径_2162-2" data-name="路径 2162" d="M3056.541,656.331a1.531,1.531,0,1,1-2-1.21A1.661,1.661,0,0,1,3056.541,656.331Z" transform="translate(-3053.567 -655.053)" fill="#fff"/>
      </g>
      <g id="组_2011-2" data-name="组 2011" transform="matrix(1, -0.017, 0.017, 1, 1363.918, 3342.657)">
        <path id="路径_2163-2" data-name="路径 2163" d="M3063.255,655.987a1.532,1.532,0,1,1-2-1.208A1.661,1.661,0,0,1,3063.255,655.987Z" transform="translate(-3060.28 -654.712)" fill="#fff"/>
      </g>
      <g id="组_2012-2" data-name="组 2012" transform="matrix(1, -0.017, 0.017, 1, 1368.362, 3344.628)">
        <path id="路径_2164-2" data-name="路径 2164" d="M3068.54,658.444a1.531,1.531,0,1,1-2-1.209A1.661,1.661,0,0,1,3068.54,658.444Z" transform="translate(-3065.567 -657.168)" fill="#fff"/>
      </g>
      <g id="组_2014-2" data-name="组 2014" transform="matrix(1, -0.017, 0.017, 1, 1355.926, 3350.419)">
        <path id="路径_2166-2" data-name="路径 2166" d="M3064.946,667.176c.473,1.736-1.716,4.2-3.449,4.152-1.985-.048-2.058-1.613-4.154-.364-1.183.7-1.38,2.087-2.993,2.215-1.4.111-3.348-.589-3.751-2.07-.472-1.734,1.836-5.9,5.795-6.986S3064.469,665.444,3064.946,667.176Z" transform="translate(-3050.537 -663.85)" fill="#fff"/>
      </g>
    </g>
    <g id="组_2017" data-name="组 2017" transform="translate(1504.277 3317.07) rotate(155)">
      <g id="组_2008-3" data-name="组 2008" transform="matrix(1, 0.017, -0.017, 1, 0.061, 16.035)">
        <path id="路径_2160-3" data-name="路径 2160" d="M2.972,2.234A1.657,1.657,0,0,0,2.1.068a1.659,1.659,0,0,0-2,1.207A1.663,1.663,0,0,0,.975,3.444,1.661,1.661,0,0,0,2.972,2.234Z" fill="#fff"/>
      </g>
      <g id="组_2009-3" data-name="组 2009" transform="matrix(1, 0.017, -0.017, 1, 2.84, 19.841)">
        <path id="路径_2161-3" data-name="路径 2161" d="M2.971,2.235A1.66,1.66,0,0,0,2.1.066a1.664,1.664,0,0,0-2,1.21A1.662,1.662,0,0,0,.976,3.445,1.661,1.661,0,0,0,2.971,2.235Z" fill="#fff"/>
      </g>
      <g id="组_2010-3" data-name="组 2010" transform="matrix(1, 0.017, -0.017, 1, 6.995, 22.347)">
        <path id="路径_2162-3" data-name="路径 2162" d="M2.974,2.234A1.661,1.661,0,0,0,2.106.068a1.661,1.661,0,0,0-2,1.208A1.663,1.663,0,0,0,.974,3.445,1.662,1.662,0,0,0,2.974,2.234Z" fill="#fff"/>
      </g>
      <g id="组_2011-3" data-name="组 2011" transform="matrix(1, 0.017, -0.017, 1, 12.588, 22.732)">
        <path id="路径_2163-3" data-name="路径 2163" d="M2.975,2.234A1.661,1.661,0,0,0,2.1.068a1.659,1.659,0,0,0-2,1.207A1.663,1.663,0,0,0,.975,3.443,1.664,1.664,0,0,0,2.975,2.234Z" fill="#fff"/>
      </g>
      <g id="组_2012-3" data-name="组 2012" transform="matrix(1, 0.017, -0.017, 1, 17.032, 20.76)">
        <path id="路径_2164-3" data-name="路径 2164" d="M2.973,2.235A1.661,1.661,0,0,0,2.1.067a1.661,1.661,0,0,0-2,1.208A1.664,1.664,0,0,0,.974,3.444,1.663,1.663,0,0,0,2.973,2.235Z" fill="#fff"/>
      </g>
      <g id="组_2013-2" data-name="组 2013" transform="matrix(1, 0.017, -0.017, 1, 21.119, 10.019)">
        <path id="路径_2165-2" data-name="路径 2165" d="M4.524,1.732A2.5,2.5,0,0,0,1.375.153,2.5,2.5,0,0,0,.221,3.48,2.506,2.506,0,0,0,3.371,5.063,2.5,2.5,0,0,0,4.524,1.732Z" fill="#fff"/>
      </g>
      <g id="组_2014-3" data-name="组 2014" transform="matrix(1, 0.017, -0.017, 1, 4.698, 9.14)">
        <path id="路径_2166-3" data-name="路径 2166" d="M14.409,6.015c.473-1.736-1.716-4.2-3.449-4.152-1.985.048-2.058,1.613-4.154.365C5.623,1.523,5.426.14,3.812.011,2.414-.1.464.6.061,2.081-.411,3.815,1.9,7.982,5.855,9.068S13.932,7.747,14.409,6.015Z" fill="#fff"/>
      </g>
      <g id="组_2015-2" data-name="组 2015" transform="matrix(1, 0.017, -0.017, 1, 11.616, 0)">
        <path id="路径_2167-2" data-name="路径 2167" d="M8.126,3.965A3.965,3.965,0,0,0,3.471.057,4.154,4.154,0,0,0,.28,2.334c-1.038,2.209,1,3.569,3.007,4.121C6.666,7.382,8.12,5.8,8.126,3.965Z" fill="#fff"/>
      </g>
    </g>
    <g id="组_2019" data-name="组 2019" transform="matrix(-0.883, 0.469, -0.469, -0.883, 1552.591, 3387.156)">
      <g id="组_2008-4" data-name="组 2008" transform="matrix(1, 0.017, -0.017, 1, 0.061, 16.035)">
        <path id="路径_2160-4" data-name="路径 2160" d="M2.972,2.234A1.657,1.657,0,0,0,2.1.068a1.659,1.659,0,0,0-2,1.207A1.663,1.663,0,0,0,.975,3.444,1.661,1.661,0,0,0,2.972,2.234Z" fill="#fff"/>
      </g>
      <g id="组_2009-4" data-name="组 2009" transform="matrix(1, 0.017, -0.017, 1, 2.84, 19.841)">
        <path id="路径_2161-4" data-name="路径 2161" d="M2.971,2.235A1.66,1.66,0,0,0,2.1.066a1.664,1.664,0,0,0-2,1.21A1.662,1.662,0,0,0,.976,3.445,1.661,1.661,0,0,0,2.971,2.235Z" fill="#fff"/>
      </g>
      <g id="组_2010-4" data-name="组 2010" transform="matrix(1, 0.017, -0.017, 1, 6.995, 22.347)">
        <path id="路径_2162-4" data-name="路径 2162" d="M2.974,2.234A1.661,1.661,0,0,0,2.106.068a1.661,1.661,0,0,0-2,1.208A1.663,1.663,0,0,0,.974,3.445,1.662,1.662,0,0,0,2.974,2.234Z" fill="#fff"/>
      </g>
      <g id="组_2011-4" data-name="组 2011" transform="matrix(1, 0.017, -0.017, 1, 12.588, 22.732)">
        <path id="路径_2163-4" data-name="路径 2163" d="M2.975,2.234A1.661,1.661,0,0,0,2.1.068a1.659,1.659,0,0,0-2,1.207A1.663,1.663,0,0,0,.975,3.443,1.664,1.664,0,0,0,2.975,2.234Z" fill="#fff"/>
      </g>
      <g id="组_2012-4" data-name="组 2012" transform="matrix(1, 0.017, -0.017, 1, 17.032, 20.76)">
        <path id="路径_2164-4" data-name="路径 2164" d="M2.973,2.235A1.661,1.661,0,0,0,2.1.067a1.661,1.661,0,0,0-2,1.208A1.664,1.664,0,0,0,.974,3.444,1.663,1.663,0,0,0,2.973,2.235Z" fill="#fff"/>
      </g>
      <g id="组_2014-4" data-name="组 2014" transform="matrix(1, 0.017, -0.017, 1, 4.698, 9.14)">
        <path id="路径_2166-4" data-name="路径 2166" d="M14.409,6.015c.473-1.736-1.716-4.2-3.449-4.152-1.985.048-2.058,1.613-4.154.365C5.623,1.523,5.426.14,3.812.011,2.414-.1.464.6.061,2.081-.411,3.815,1.9,7.982,5.855,9.068S13.932,7.747,14.409,6.015Z" fill="#fff"/>
      </g>
    </g>
  </g>
</svg>
