<svg xmlns="http://www.w3.org/2000/svg" width="363.377" height="211.709" viewBox="0 0 363.377 211.709">
  <path id="bg_L_01" data-name="bg L 01" d="M551.88,309.911c-12.691-30.308-52.042-51.539-61.735-54.222-.346-.474-54.213-21.979-78.329-14.137-6.509,2.116-44.125.549-45.319.592-49.468-9.216-93.656,23.156-94.465,24.978-1.97.505-3.924,1.076-5.872,1.678-3.837-1.957-9.044-2.873-15.694-1.78-6.735,1.106-10.5,9.059-10.031,15.192-4.9,3.887-9.318,7.874-10.386,9.514a12.169,12.169,0,0,0-7.362-5.3c-7.9-1.974-17.965,2.306-22.423,8.95-4.375,6.52-4.252,16.042,1.749,21.529a39.788,39.788,0,0,0,8.655,6.119,11.16,11.16,0,0,0-1.441,4.382,56.7,56.7,0,0,0,3.092,17.325c1.87,5.6,4.454,10.913,5.57,16.668-.828,4.506-3.1,6.869-3.83,10.507a25.36,25.36,0,0,0-.467,3.659c-.236,4.648,1.73,7.988,5.233,10.9,2.289,1.9,4.786,4.2,7.529,5.383,2.285.984,4.37.453,6.631.078a4.1,4.1,0,0,0,.983,1.678c1.2,1.235,3.983,1.568,5.538,1.86a14.944,14.944,0,0,0,9.7-1.441c7-3.521,12.209-9.816,18.7-14.1a17.5,17.5,0,0,1,5.186-2.463c.7.105,1.41.2,2.121.279.508,8.333-1.566,16.632-4.022,24.737-1.483,4.893-1.879,11.4-5.123,15.482-2.511,3.157-6.383,5.368-9.529,7.849-3.827,3.017-9.522,8.008-5.548,13.129,5.621,7.243,15.579,3.287,23.12,4.792.231.046,14.289-2.478,19.495-3.632a8.388,8.388,0,0,0,7.068-8.041c1.774-2.088,12.067-27.167,13.035-29.114a70.661,70.661,0,0,1,9.144-14.512c4.515-5.4,23.374-6.357,28.3,1.557a118.174,118.174,0,0,1,7.223,14.368c2.3,5.131,4.651,10.263,5.463,15.879.778,5.387,1.493,11.42-4.823,13.425-3.48,1.105-6.047,1.954-7.647,5.52-1.59,3.541-1.137,7.145,2.24,9.353,3.976,2.6,9.513,2.864,14.115,2.984a109.752,109.752,0,0,0,14.67-.625c6.352-.687,13.385-.536,19.323-3.309,6.718-3.138,7.589-10.1,7.545-16.847a91.714,91.714,0,0,0-1.067-14.769c-1.139-6.6-3.7-12.868-4.682-19.508-.487-3.3-.831-6.655-1.212-10a31.293,31.293,0,0,0,6.618,3.4c5.062,1.657,10.6,1.189,15.855,1.325,2.925.075,6.5.292,10.175.228.451,1.265.965,2.513,1.4,3.74.935,2.625,1.834,5.479,1.077,8.269-1.069,3.944-4.791,5.171-8.184,6.47-5.773,2.21-16.064,11.486-6.73,16.259,3.98,2.035,9.034,2.07,13.388,1.982a71.548,71.548,0,0,0,14.254-1.625c7.909-1.785,14.071-5.28,17.9-12.563,3.287-6.244,5.8-12.9,8.937-19.229.839-1.689,1.711-3.365,2.6-5.037q.546,1.032,1.1,2.071a43.355,43.355,0,0,1,5.006,15.388,120.063,120.063,0,0,1,1.107,13.309,15.733,15.733,0,0,1-.951,6.5c-1.635,3.634-4.912,3.217-8.145,3.841-4.746.916-8.891,6.288-6.289,10.994,2.538,4.593,9.237,6.534,14.068,7.2,9.082,1.254,22.933-1.1,30.755-.579,4.542.3,4.765-5.508,6.553-10.21,1.45-3.812,1.156-8.182,1.634-12.175a135.079,135.079,0,0,1,3.5-17.744c2.854-11.011,3.014-23.425,9.489-32.777,13.247-19.13,12.264-35.024,15.332-32.124,5.737,5.423,7.411,2.825,7.823-5.008C560.994,330.319,555.022,317.416,551.88,309.911Z" transform="translate(-197.216 -239.833)" fill="#333"/>
</svg>
