<svg xmlns="http://www.w3.org/2000/svg" width="294.761" height="325.852" viewBox="0 0 294.761 325.852">
  <g id="bg_R_02" data-name="bg R 02" transform="translate(-54.594 -320.29)">
    <path id="路径_2304" data-name="路径 2304" d="M289.31,573.987c-.3-3.931-2.943-9.184-8.031-10.5-3.439-.887-9.8-5.311-14.037-2.974-2.844,1.567-7.709.926-10.115,1.837-5.446,2.058-7.8,6.386-9.972,11.423.339.176-1.116,4.224-2.567,5.985-3.764-3.491-8.341-8.984-16.168-8.211a97.211,97.211,0,0,0-5.427-33.857c13.717-13.87,4.97-2.114,30.048-11.264,28-10.218,11.855-45.794-3.412-49.653-13.508-3.414-25.276,7.2-41.69,4.129-2.871-11.952-15.631-25.578-21.225-34.144.647-1.04,1.3-2.164,1.943-3.4,11.625-2.015,23.842-5.7,22.9-11.623,2.381-2.329,3.081-4.739,2.78-6.824,2-2.168,7.234-7.7,7.593-9.35.564-2.59-2.032-8.159-5.684-9.352-2.749-6.14-13.895-9.333-14.415-16.158-.281-3.706-1.635-4.162-3.91-6.339-2.375-2.269-2.189-6.02-4.133-10.307-2.18-4.8-6.756-10.761-12.508-16.156.182.339.31.707.484,1.05a34.813,34.813,0,0,0-12.1-7.153c-.244-.176-.442-.322-.676-.492.079-.041.159-.081.238-.124-.1-.023-.2-.05-.3-.072-.269-.519-.552-1-.833-1.486,7.513-9.257-.763-29-26.979-26.03-5.039.573-8.947,4.144-11.324,8.577-5.171-8.918-18.441-15.321-37.97-8.133-11.7,4.307-14.391,21.823-9.046,30.546C69,371.3,68.942,395.459,74.249,417.943h0c-5.944,8.709-1.66,22.631-2.24,24.41-1.271,3.9-12.942,20.63-10.821,42.033-6.591,24.166-.411,39-.411,39-.273,1.414,1.565.19-3.906,27.5-4.956,24.73-8.321,90.659,63.769,94.683,51.447,2.873,78.407-6.012,81.282-5.247,10.706,2.844,37.523,1.432,59.584,1.633,18.34.167,18.758-2.042,22.577-47.249.362-4.288,4.477-11.507,4.065-11.652A23.814,23.814,0,0,0,289.31,573.987Z" transform="translate(0 0)" fill="#333"/>
    <path id="路径_2305" data-name="路径 2305" d="M190.27,429.356c.641-1.589,1.24-3.3,1.844-5.132h0c1.027-.519,8.959-10.809,15.354-14.167,4.4,4.834,20.609-7.023,27.487-9.424,13.475-4.71,17.224,3.633,30.065-9.9.349-.37-35.6-2.447-50.261,11.45-.12.031-6.231,3.95-7.019,4.673A2.414,2.414,0,0,0,207,409.2c-2.784,1.627-6.62,4.778-14.041,12.446.027-.074.054-.151.083-.225a.336.336,0,0,0,.006-.064,140.14,140.14,0,0,1,7.723-20.206,30.858,30.858,0,0,1,6.471-5.369c4.222,6.909,20.421-12.252,32.805-16.567a98.7,98.7,0,0,1,9.908-2.7c.527-.126-.064-.92-.467-.887-16.668,1.366-25.437,1.286-36.959,10.088-8.412,6.427-5.212,8.806-5.845,9.195a27.845,27.845,0,0,0-4.311,3.117,104.953,104.953,0,0,1,17.183-23.275c3.391-3.526,2.011-.3,5.834-2.251,2.261-1.155,17.245-10.664,19.425-19.7,1-4.16,1.4-16.28,1.445-20.868.006-.577-1.068-.62-1.161-.064-1.04,6.169-2.139,12.659-5.725,17.939-4.288,6.316-23.654,21-19.039,22.66a116,116,0,0,0-14.988,18.315,29.359,29.359,0,0,0,.014-3.8c-.039-.758,3.89.066,3.745-10.844-.2-14.944-5.874-21.639-15.414-35.409-.231-.333-1.257-.24-1.021.254a95.1,95.1,0,0,1,4.133,9.49c4.4,12.508-.833,38.2,7.488,36.682a17.354,17.354,0,0,1-.684,6.378v.008c-6.572,10.83-9.4,20.229-11.733,27.74-1.18,3.185-2.218,6.148-3.154,8.955-.128.287-.258.575-.393.854a.409.409,0,0,0-.01.36c-.684,2.083-1.31,4.076-1.893,6a44.174,44.174,0,0,0-3.148-8.465.415.415,0,0,0-.118-.256v0c-.316-.682-.665-1.412-1.035-2.174-.792-3.7,1.91-8.5,2-9.672,7.6-15.974,14.221-16.947,8.354-43.779-2.375-10.848-9.381-9.282-7-8.362,6.458,2.495.248,20.853-.438,27.155-.415,3.828-.366,3.993-1.982,23.827a33.087,33.087,0,0,0-1.986,7.674c-.51-1.916-1.089-4.214-1.228-4.444-1.356-6.8.854-36.279-28.2-43.207-4.191-1-15.736-.556-16.226-.7-.7-.2,5.02,1.653,5.566,1.728,22.017,6.163,22.023,15.858,37.168,41.343a59.34,59.34,0,0,0,2.972,8.546,5.324,5.324,0,0,0,.38,1.254,27.931,27.931,0,0,0-2.356-1.81c-.634-2.794-10.685-10.575-15.465-12.34-3.4-1.254-5.322-1.784-7.019-1.8-3.158-.843-7.469-.668-15.484,1.432-4.714,1.236-6.3,2.04-6.68,2.488-.145.033-.279.062-.43.1-.469.112-.634.914-.025.771,14.13-3.313,18.751,2.993,40.793,9.726,2.118.647,3.348.752,3.929.488a48.2,48.2,0,0,1,3.927,2.976c1.833,3.586,3.156,7,2.738,10.834v0c-2.784,9.59-4.632,17.666-7.51,27.167a30.5,30.5,0,0,0-.947-4.741c1.591-3.108-1.722-18.249-4.813-23.635-2.2-3.832-3.584-5.832-5.156-7.174-2.294-3.259-6.465-6.465-15.6-10.77-5.376-2.532-7.484-3.015-8.195-2.9-.159-.083-.31-.159-.477-.244-.525-.265-1.308.358-.626.7,15.806,7.953,15.2,17.464,30.546,41,1.474,2.261,2.544,3.321,3.294,3.528a50.739,50.739,0,0,1,1.376,6.18q-.6,1.916-1.261,3.923a1.071,1.071,0,0,0-.13.393c-2.275,6.833-5.192,14.575-9.352,24.119-2.04,4.679-2.482,4.815-14.105,18.718-.428.508.637.893.98.484,9.993-11.952,11.342-13.275,12.952-16.23,3.828-7.023,7.194-16.362,10.391-26.611a.238.238,0,0,0,.116-.085c1.81-3.158,3.795-3.98,7.1-5.731a43.707,43.707,0,0,1,4.5-.149c.277.517,1.23,1.1,3.125,1.757,19.737,6.8,26.574,4.477,35.021,14.674.364.438.686-.267.407-.6-.091-.109-.174-.2-.258-.308-.033-.554-.74-2.025-3.487-5.526-4.669-5.95-7.707-8.424-10.468-9.49-1.24-.907-2.931-1.544-6.095-2.426-4.448-1.242-16.044-.736-18.045,1.058a25.233,25.233,0,0,0-2.712.107,5.107,5.107,0,0,0,.967-.752,56.578,56.578,0,0,0,6.872-4.929C218.9,451,224.249,443.581,243.654,450.8c.436.238,5.619,1.916,5,1.693-.436-.155-8.585-6.752-12.183-8.261-24.945-10.451-39.59,13.306-44.323,17.774-.229.1-1.916,1.544-3.344,2.734a32.536,32.536,0,0,0,2.788-6.95c9.757-16.052,9.885-16.151,11.694-19.307,2.976-5.192,8.581-22.608,14.651-21.014,2.24.587-1.992-4.408-9.7,2.6-19.057,17.352-14.779,21.686-18.061,38.03-.577.947-1.257,6.082-3.875,8.486-.69.384-1.345.754-1.951,1.1h0a.392.392,0,0,0-.225.132,50.166,50.166,0,0,0-6.374,4.208,7.067,7.067,0,0,0,.2-1.114C182.078,457.283,185.969,442.395,190.27,429.356Z" transform="translate(84.331 11.929)" fill="#333"/>
  </g>
</svg>
