<svg id="calendar3" xmlns="http://www.w3.org/2000/svg" width="23.008" height="23.008" viewBox="0 0 23.008 23.008">
  <path id="路径_586" data-name="路径 586" d="M20.132,0H2.876A2.875,2.875,0,0,0,0,2.876V20.132a2.875,2.875,0,0,0,2.876,2.876H20.132a2.875,2.875,0,0,0,2.876-2.876V2.876A2.875,2.875,0,0,0,20.132,0ZM1.438,5.546A1.348,1.348,0,0,1,2.876,4.314H20.132A1.348,1.348,0,0,1,21.57,5.546V20.338a1.348,1.348,0,0,1-1.438,1.232H2.876a1.348,1.348,0,0,1-1.438-1.232Z"/>
  <path id="路径_587" data-name="路径 587" d="M8.252,7.876A1.438,1.438,0,1,0,6.814,6.438,1.439,1.439,0,0,0,8.252,7.876Zm4.314,0a1.438,1.438,0,1,0-1.438-1.438A1.439,1.439,0,0,0,12.566,7.876Zm4.314,0a1.438,1.438,0,1,0-1.438-1.438A1.439,1.439,0,0,0,16.88,7.876ZM3.938,12.19A1.438,1.438,0,1,0,2.5,10.752,1.439,1.439,0,0,0,3.938,12.19Zm4.314,0a1.438,1.438,0,1,0-1.438-1.438A1.439,1.439,0,0,0,8.252,12.19Zm4.314,0a1.438,1.438,0,1,0-1.438-1.438A1.439,1.439,0,0,0,12.566,12.19Zm4.314,0a1.438,1.438,0,1,0-1.438-1.438A1.439,1.439,0,0,0,16.88,12.19ZM3.938,16.5A1.438,1.438,0,1,0,2.5,15.066,1.439,1.439,0,0,0,3.938,16.5Zm4.314,0a1.438,1.438,0,1,0-1.438-1.438A1.439,1.439,0,0,0,8.252,16.5Zm4.314,0a1.438,1.438,0,1,0-1.438-1.438A1.439,1.439,0,0,0,12.566,16.5Z" transform="translate(1.095 2.19)"/>
</svg>
