<svg xmlns="http://www.w3.org/2000/svg" width="1932.994" height="331.715" viewBox="0 0 1932.994 331.715">
  <g id="coming-bg" transform="translate(-1914.514 -941.727)">
    <g id="Group_2129" data-name="Group 2129" transform="translate(-228.828 0.856)" opacity="0.5">
      <path id="Path_2341" data-name="Path 2341" d="M3788.131,1098.948c.243-.384.49-.773.749-1.15.426-.627.855-1.239,1.286-1.853.669-.916,1.333-1.807,2-2.7l.934-1.254a47.971,47.971,0,0,1,3.15-3.89c1.138-1.243,2.265-2.5,3.393-3.756l1.144-1.3c.7-.778,1.387-1.557,2.09-2.326l.529-.577c.916-1,1.829-2,2.761-2.984l.268-.281c.179-.185.352-.363.511-.543l.266-.294.771.736-.7-.821c.148-.164.3-.325.431-.5l.837.643-.744-.759c.339-.442.647-.828.932-1.245a11.472,11.472,0,0,0,1.3-2.54,13.109,13.109,0,0,0,.776-3.347,8.755,8.755,0,0,0-.021-1.339l-.014-.185c-.028-.463-.08-.941-.149-1.417a7.425,7.425,0,0,0-.746-2.293,6.674,6.674,0,0,0-.733-1.041,6.16,6.16,0,0,0-.979-.964,5.23,5.23,0,0,0-1.513-.726c-.347-.123-.684-.238-1.021-.324a9.494,9.494,0,0,0-2.063-.315h-.141a17.907,17.907,0,0,0-1.98.145,11.463,11.463,0,0,0-1.962.44c-.632.2-1.308.448-2.13.763a23.557,23.557,0,0,0-2.2.995,12.592,12.592,0,0,0-1.712,1.134c-.788.587-1.5,1.2-2.025,1.669-.21.18-.4.36-.591.538l-.277.26c-.144.132-.3.268-.452.4-.116.1-.239.216-.359.327-.594.56-1.193,1.113-1.8,1.665-.537.494-1.054,1.047-1.578,1.622-.6.648-1.182,1.306-1.764,1.98-.3.348-.588.709-.873,1.078l-.076.1c-.138.18-.29.375-.442.566-.327.411-.659.822-.991,1.235l-.321.4c-.61.748-1.21,1.492-1.8,2.249-.52.669-1.035,1.352-1.547,2.035l-.069.086c-.318.43-.637.878-.949,1.329l-.2.281c-.118.17-.235.337-.359.5l-1.513,2.054c-.689.92-1.346,1.8-1.986,2.693-.917,1.295-1.89,2.685-2.793,4.1-.484.765-.963,1.53-1.427,2.314-.349.595-.7,1.243-1.077,1.981-.814,1.6-1.43,2.915-1.938,4.143a1.089,1.089,0,0,1-.147.262h-1.5a1.267,1.267,0,0,1-.2-1.094l.141-.524c.092-.369.188-.754.29-1.132a41.307,41.307,0,0,1,1.378-4.081l.293-.771c.595-1.616,1.193-3.234,1.808-4.835q1.217-3.192,2.462-6.37c.64-1.53,1.3-3.03,1.948-4.483l.161-.358c.714-1.6,1.4-3.211,2.092-4.825l.564-1.3c.14-.324.282-.649.417-.974l.456-1.086c.161-.381.322-.769.487-1.151.773-1.779,1.486-3.326,2.179-4.728.786-1.6,1.586-3.192,2.387-4.785.762-1.519,1.525-3.039,2.279-4.573.7-1.425,1.415-2.912,2.174-4.544.405-.855.8-1.706,1.224-2.545.29-.572.584-1.14.876-1.7l.207-.4c1.889-3.63,3.44-6.51,4.884-9.069.471-.832.943-1.65,1.432-2.465l.733-1.216c.178-.295.355-.587.532-.886.843-1.415,1.733-2.815,2.593-4.171l.151-.235c.64-1,1.3-1.982,1.961-2.959l1.155-1.725q1.046-1.572,2.109-3.148c1.441-2.134,2.962-4.3,4.307-6.211l1.064-1.523c.917-1.271,1.887-2.627,2.856-4.039l.192-.273c.783-1.135,1.669-2.427,2.493-3.709.5-.772.989-1.549,1.473-2.329.391-.622.752-1.3,1.108-1.958l.123-.238c.656-1.227,1.315-2.593,2.076-4.3l.218-.49c.267-.591.533-1.188.779-1.79.353-.874.7-1.754,1.031-2.645.248-.679.455-1.429.64-2.087l.1-.35c.161-.579.3-1.216.421-1.836l.118-.571c.023-.113.042-.239.059-.364l.075-.464c.028-.176.058-.337.076-.5l.045-.4c.037-.274.068-.532.082-.784l.015-.3c.016-.319.033-.614.032-.914,0-.464-.009-.929-.022-1.392a15.8,15.8,0,0,0-.4-3.517,9.808,9.808,0,0,0-.483-1.278,5.758,5.758,0,0,0-.422-.776l-.131-.216a13.832,13.832,0,0,0-1.686-2.274,8.514,8.514,0,0,0-2.029-1.616,12.275,12.275,0,0,0-2.8-1.172,11.225,11.225,0,0,0-2.548-.387l-.353-.008c-.192-.007-.363-.017-.537-.017l-.327.012a18.056,18.056,0,0,0-2.233.2l-.344.056c-.248.034-.476.067-.7.119l-.4.088c-.284.057-.492.1-.692.16l-1.157.358c-.215.069-.425.147-.636.227l-.424-1.048.315,1.09-.363.136c-.243.094-.476.2-.711.3l-.351.157c-.277.121-.55.253-.822.383l-.427.206a17.552,17.552,0,0,0-1.786.991c-1.2.748-2.446,1.6-4.039,2.777a22.371,22.371,0,0,0-1.776,1.426l-.973.878c-.226.207-.441.425-.653.635l-.3.306c-1.025,1-2.056,2.129-2.881,3.035l-.5.547c-.661.717-1.327,1.423-2,2.131l-1.257,1.337c-2.228,2.381-4.445,4.861-6.779,7.571-.959,1.124-1.873,2.329-2.879,3.676q-.812,1.089-1.617,2.186c-.517.711-1.016,1.436-1.519,2.163l-.209.3c-1.734,2.513-3.692,5.353-5.494,8.206l-.272.427c-.311.489-.619.977-.91,1.474-.407.7-.784,1.383-1.22,2.2-.458.851-.91,1.7-1.35,2.563-.3.572-.582,1.157-.862,1.74l-.229.471q-2,4.135-3.961,8.29l-.519,1.092c-1.523,3.209-2.855,6.56-4.065,9.7-.188.484-.36.979-.531,1.473l-.279.8c-.258.723-.49,1.452-.715,2.18l-.046.136c-.511,1.614-1.049,3.326-1.525,5.015q-1.089,3.846-2.211,7.678l-.828,2.84c-.308,1.073-.657,2.152-1,3.2l-.481,1.533c-.516,1.649-1.015,3.305-1.509,4.967q-1.545,5.253-3.071,10.509c-.164.572-.328,1.138-.5,1.7l-.046.169c-.286.973-.57,1.948-.844,2.93-.257.906-.5,1.822-.741,2.74l-.087.32c-.157.612-.322,1.224-.459,1.843-.372,1.633-.771,3.4-1.084,5.139-.178.949-.337,1.884-.484,2.836-.13.815-.241,1.635-.354,2.46l-.037.3c-.073.537-.135,1.073-.2,1.6a1.03,1.03,0,0,1-1.033.993,1.076,1.076,0,0,1-.955-1.086l-.012-.253c-.06-.444-.126-.887-.194-1.329-.086-.564-.168-1.13-.239-1.693-.134-1.057-.251-2.134-.346-3.191l-.082-.96c-.114-1.324-.224-2.619-.288-3.9q-.142-2.647-.261-5.3l-.051-1.089c-.027-.573-.05-1.1-.081-1.618l-.034-.612c-.039-.632-.079-1.239-.1-1.843-.081-2.031-.114-3.829-.1-5.493l0-.3c0-.8.013-1.6.035-2.408.019-.7.052-1.394.081-2.1l.031-.625q.039-.9.091-1.8l.04-.845c.052-.979.1-1.887.133-2.8.078-2.184.136-4.372.192-6.562l.023-.883q.042-1.612.086-3.228l.191-6.667q.207-7.287.392-14.581c.04-1.616.078-3.24.088-4.857l.008-1.525c.006-1.365.013-2.731.043-4.094.083-3.915.213-7.4.4-10.668.06-1.079.126-2.159.194-3.234l.142-2.251q.143-2.493.274-5c.032-.713.074-1.427.118-2.142l.024-.459c.061-1.037.121-2.071.174-3.106.077-1.4.166-2.794.261-4.194l.234-3.444c.064-.912.129-1.827.181-2.741.1-1.736.139-3.509.18-5.223l.016-.583c.073-3.3.149-6.7,0-10.014-.054-1.2-.15-2.486-.293-3.926a39.344,39.344,0,0,0-.573-4.043c-1.155-5.567-3.7-12.2-9.275-12.2-3.783,0-8.376,3.066-12.941,8.626-.3.374-.591.74-.874,1.126-.34.471-.679.937-1.01,1.423s-.574.849-.813,1.26l-.1.178c-.248.425-.454.782-.643,1.155l-.142.283c-.189.369-.363.719-.519,1.089l-.207.483c-.143.335-.317.737-.455,1.133l-.071.208c-4.437,12.877-7.5,35.509-7.8,49.089-.031,1.108-.124,4.45-.111,7.757.007,2.637.072,5.353.191,8.09.049,1.218.131,2.457.21,3.513.043.593.089,1.18.134,1.771.061.775.117,1.509.168,2.236l.129,1.989c.128,1.987.257,3.976.417,5.965q.126,1.732.251,3.463.159,2.3.342,4.594l.253,3.308c.086,1.1.183,2.209.282,3.315a1.184,1.184,0,0,1,.052.285c.08,1.224.193,2.543.351,4.153.087.941.207,1.877.323,2.808l.125,1.019c.276,2.253.631,4.594.943,6.66l.156,1.006c.437,2.9.771,5.374,1.055,7.779.192,1.622.4,3.242.614,4.856l.386,2.968c.213,1.626.377,3.227.553,5l.03.3c.088.859.176,1.712.272,2.561.1.885.2,1.761.313,2.639l.062.5a1.188,1.188,0,0,1-.586,1.2h-.806a1.076,1.076,0,0,1-.513-.591l-1.347-3.519c-.424-1.088-.864-2.174-1.3-3.255l-2.179-5.378q-.4-.99-.8-1.972c-.934-2.245-1.95-4.63-3.042-6.923-.633-1.338-1.151-2.386-1.685-3.4-.589-1.119-1.182-2.232-1.788-3.345-.579-1.067-1.17-2.119-1.763-3.171l-.258-.464c-.645-1.148-1.244-2.217-1.833-3.286-.575-1.048-1.2-2.136-1.92-3.333-.618-1.033-1.3-2.072-1.952-3.037-1.365-2.047-2.85-4.2-4.42-6.394-1.269-1.79-2.689-3.7-4.458-6.038-.867-1.143-1.548-2-2.21-2.8s-1.385-1.612-2.349-2.665c-1.459-1.6-3.193-3.474-5.035-5.288q-.6-.589-1.211-1.179v-2.964q1.3,1.2,2.514,2.408c1.875,1.853,3.634,3.75,5.11,5.366.986,1.077,1.732,1.922,2.414,2.739s1.385,1.708,2.273,2.878c1.783,2.347,3.215,4.284,4.5,6.088,1.582,2.218,3.08,4.389,4.457,6.45.664.995,1.37,2.062,2.013,3.135.734,1.22,1.376,2.339,1.961,3.412s1.186,2.122,1.786,3.2l.3.532c.6,1.065,1.191,2.125,1.777,3.2.609,1.119,1.206,2.242,1.8,3.374.549,1.046,1.078,2.121,1.728,3.488,1.113,2.339,2.141,4.763,3.084,7.029.279.66.547,1.329.82,2l2.1,5.187c-.118-1.156-.239-2.248-.38-3.347l-.384-2.913c-.219-1.683-.429-3.309-.624-4.94-.28-2.379-.614-4.825-1.044-7.7l-.15-.983c-.321-2.1-.678-4.464-.959-6.751l-.124-1.018c-.119-.956-.239-1.922-.33-2.884-.144-1.467-.249-2.7-.33-3.84a1.045,1.045,0,0,1-.04-.22c-.111-1.241-.22-2.49-.321-3.735l-.249-3.3c-.127-1.536-.238-3.083-.347-4.622q-.125-1.719-.251-3.445c-.161-1.994-.288-3.991-.417-6l-.128-1.985c-.049-.717-.106-1.438-.165-2.167-.049-.635-.1-1.23-.136-1.828-.079-1.071-.165-2.335-.216-3.588-.121-2.764-.187-5.523-.192-8.189-.012-3.349.08-6.723.113-7.83.3-13.77,3.418-36.756,7.934-49.875l.074-.2c.156-.463.358-.922.517-1.3l.2-.474c.17-.415.373-.817.586-1.237l.141-.285c.206-.406.432-.8.7-1.255l.111-.2c.261-.457.539-.87.879-1.369.366-.541.717-1.031,1.075-1.519.31-.424.625-.822.957-1.224,5.006-6.116,9.987-9.348,14.39-9.348,3.8,0,8.825,2.421,11.217,13.959a40.227,40.227,0,0,1,.612,4.313c.15,1.482.251,2.815.308,4.068.15,3.4.072,6.844,0,10.17l-.018.6c-.039,1.748-.083,3.542-.185,5.321-.051.927-.113,1.847-.177,2.771l-.236,3.446c-.093,1.383-.184,2.763-.259,4.152-.052,1.04-.113,2.079-.172,3.117l-.028.463c-.042.708-.084,1.417-.118,2.127q-.132,2.51-.274,5.022l-.139,2.222c-.069,1.1-.135,2.173-.192,3.249-.185,3.234-.312,6.692-.394,10.576-.032,1.35-.039,2.7-.042,4.053l-.009,1.528c-.011,1.637-.048,3.272-.088,4.907q-.176,7.293-.394,14.589l-.19,6.67c-.032,1.077-.059,2.148-.085,3.219l-.024.885c-.059,2.2-.116,4.393-.194,6.589-.035.925-.083,1.849-.127,2.767l-.051.918c-.027.6-.061,1.192-.087,1.783l-.028.623c-.032.689-.059,1.371-.079,2.058-.024.79-.031,1.572-.035,2.356l0,.3c-.017,1.62.016,3.372.1,5.361.027.583.059,1.176.1,1.792l.036.616c.032.531.056,1.067.078,1.6l.056,1.14q.117,2.644.258,5.286c.063,1.242.171,2.511.275,3.737l.008.086c.323-1.776.738-3.614,1.077-5.1.164-.727.331-1.372.5-2.014l.085-.32c.241-.927.489-1.855.749-2.778.278-.993.563-1.972.852-2.959l.539-1.855c1.01-3.513,2.044-7.017,3.079-10.524.493-1.679,1-3.345,1.516-5.011l.491-1.549c.332-1.023.666-2.083.972-3.131l.8-2.748.029-.092c.741-2.549,1.484-5.1,2.205-7.661.486-1.723,1.032-3.46,1.552-5.089l.042-.138c.232-.748.477-1.507.738-2.249l.277-.8c.182-.52.364-1.041.562-1.551,1.225-3.185,2.576-6.589,4.136-9.869l.518-1.092c1.317-2.773,2.636-5.548,3.971-8.3l.223-.464c.291-.61.585-1.219.9-1.813.448-.865.9-1.731,1.367-2.59s.841-1.559,1.26-2.278c.306-.522.631-1.034.956-1.547l.266-.422c1.829-2.9,3.8-5.755,5.543-8.278l.215-.309c.513-.744,1.023-1.486,1.556-2.213.542-.742,1.083-1.477,1.629-2.209,1.031-1.377,1.966-2.616,2.971-3.789,2.357-2.736,4.595-5.234,6.844-7.642l1.262-1.34c.66-.7,1.32-1.4,1.974-2.11l.479-.526c.862-.945,1.915-2.1,2.969-3.129l.277-.279c.258-.258.5-.5.746-.721l.979-.883a23.693,23.693,0,0,1,1.935-1.559c1.638-1.2,2.919-2.083,4.16-2.857a18.134,18.134,0,0,1,1.972-1.1l.43-.21c.292-.136.584-.276.874-.4l.338-.153c.261-.115.534-.237.812-.342l.362-.136.11-.042c.241-.1.487-.188.739-.264l1.165-.358c.253-.078.516-.139.78-.193l.431-.092c.272-.063.555-.105.836-.145l.319-.052a21.642,21.642,0,0,1,2.386-.22l.109-.005c.011,0,.082,0,.095,0l.259-.006c.2,0,.405.008.6.019l.336,0a13.792,13.792,0,0,1,2.953.448,14.286,14.286,0,0,1,3.227,1.348,10.405,10.405,0,0,1,2.517,2.01,16.156,16.156,0,0,1,1.967,2.643l.121.2a8.617,8.617,0,0,1,.573,1.065,12.1,12.1,0,0,1,.589,1.585,17.736,17.736,0,0,1,.493,4.127c.019.488.023.978.026,1.469,0,.356-.016.71-.034,1.077l-.017.3c-.017.325-.059.647-.095.962l-.043.377c-.022.207-.06.425-.1.631l-.069.423c-.022.158-.048.336-.082.5l-.1.5c-.153.742-.292,1.427-.483,2.1l-.1.344c-.194.7-.415,1.5-.7,2.272-.344.918-.7,1.823-1.065,2.722-.255.631-.529,1.25-.807,1.868l-.219.488c-.785,1.761-1.468,3.176-2.152,4.452l-.123.239c-.372.7-.753,1.409-1.181,2.1-.5.792-.99,1.576-1.5,2.358-.839,1.312-1.74,2.618-2.534,3.772l-.191.273c-.974,1.423-1.958,2.8-2.873,4.062l-1.058,1.515c-1.338,1.9-2.852,4.054-4.281,6.175-.705,1.046-1.4,2.092-2.106,3.139l-1.156,1.724c-.653.972-1.3,1.938-1.931,2.919l-.127.195c-.875,1.377-1.755,2.763-2.578,4.146-.179.3-.358.6-.541.9l-.735,1.212c-.474.794-.937,1.6-1.4,2.414-1.429,2.53-2.969,5.393-4.845,8.994l-.207.4c-.288.559-.574,1.113-.858,1.672-.411.822-.8,1.658-1.2,2.492-.767,1.644-1.482,3.144-2.194,4.584-.756,1.539-1.523,3.069-2.289,4.592q-1.2,2.38-2.38,4.767c-.674,1.368-1.369,2.883-2.127,4.625-.161.373-.32.746-.476,1.122l-.454,1.079c-.142.337-.288.673-.432,1.012l-.561,1.283c-.693,1.622-1.386,3.244-2.1,4.863l-.158.35c-.637,1.439-1.295,2.919-1.917,4.4-.767,1.981-1.549,3.989-2.316,6,.559-.826,1.124-1.627,1.671-2.4.651-.914,1.319-1.8,1.987-2.7l1.521-2.058c.124-.169.237-.327.347-.488l.2-.273c.323-.469.656-.934.994-1.389l.07-.09c.52-.688,1.041-1.379,1.568-2.059.6-.769,1.213-1.526,1.822-2.284l.268-.327.055-.073c.325-.4.653-.812.975-1.222.152-.185.295-.369.438-.556l.082-.1c.3-.386.611-.782.935-1.155.6-.69,1.2-1.363,1.8-2.029.562-.608,1.11-1.195,1.706-1.746s1.192-1.1,1.79-1.658c.137-.128.271-.247.4-.365s.273-.239.4-.358l.277-.258c.207-.195.422-.394.641-.585.55-.49,1.3-1.136,2.151-1.769a13.886,13.886,0,0,1,1.987-1.307,25.2,25.2,0,0,1,2.368-1.069c.855-.329,1.561-.583,2.231-.8a13.147,13.147,0,0,1,2.288-.511,19.319,19.319,0,0,1,2.192-.16h.154a10.98,10.98,0,0,1,2.466.369c.39.1.78.229,1.181.367a6.976,6.976,0,0,1,2.06,1.031,8.133,8.133,0,0,1,1.308,1.283,8.537,8.537,0,0,1,1,1.444,10.029,10.029,0,0,1,1,3.075c.079.553.137,1.1.174,1.637l.009.176a10.853,10.853,0,0,1,.016,1.771,15.7,15.7,0,0,1-.931,4.016,13.97,13.97,0,0,1-1.576,3.047c-.3.436-.629.855-1,1.333,0,.008-.1.128-.107.136-.16.206-.336.4-.511.6,0,0-.082.088-.083.094l-.256.281c-.17.2-.368.4-.564.6l-.263.277c-.92.964-1.825,1.956-2.73,2.945l-.53.578c-.7.763-1.378,1.533-2.065,2.308l-1.15,1.293q-1.7,1.911-3.416,3.785a47.052,47.052,0,0,0-3.007,3.715l-.914,1.226c-.675.917-1.337,1.811-1.991,2.7-.357.509-.719,1.025-1.078,1.549Zm-120.4-26.469.445.542c.43.518.861,1.017,1.3,1.514l.157.184c.266.308.532.616.793.924.917,1.082,1.841,2.153,2.765,3.226l2.654,3.079c.628.734,1.252,1.467,1.859,2.224.243.3.479.614.716.928.164.224.285.388.407.545.336.442.671.882,1,1.327,1.308,1.744,2.71,3.572,4.546,5.927.988,1.27,1.97,2.6,2.9,3.876h-2.6c-.587-.793-1.183-1.581-1.78-2.348-1.844-2.366-3.255-4.206-4.574-5.967-.324-.438-.656-.872-.988-1.3-.131-.174-.26-.347-.388-.524-.251-.333-.471-.63-.7-.909-.6-.742-1.209-1.453-1.821-2.169l-2.643-3.075c-.936-1.08-1.865-2.157-2.786-3.245-.254-.3-.515-.6-.776-.909l-.154-.179-.325-.373v-3.3Z" fill="#fff"/>
      <g id="Group_2049" data-name="Group 2049">
        <path id="Path_2342" data-name="Path 2342" d="M3798.843,1080.869q-.449-1.623-.876-3.251a1.3,1.3,0,0,1,.084-.9,1.037,1.037,0,0,1,.623-.547.909.909,0,0,0,.282-.135c.03-.023.057-.043.082-.066a1.047,1.047,0,0,1,.215-.154l.308-.169c.121-.065.236-.136.346-.2a8.3,8.3,0,0,0,1.2-.915,23.431,23.431,0,0,0,2.4-2.429,14.416,14.416,0,0,0,.919-1.226c2.085-3.085,2.383-6.019,1.776-7.442a1.212,1.212,0,0,0-1.151-.868c-.564,0-2.132.363-4.473,3.745-.615.893-1.191,1.88-1.751,2.83l-.22.377c-.22.379-.445.757-.661,1.142a.954.954,0,0,1-.994.514,1.059,1.059,0,0,1-.811-.837c-.207-.905-.415-1.815-.62-2.724q-.29-1.3-.595-2.607a1.251,1.251,0,0,1,.363-1.21.774.774,0,0,0,.1-.1,1.2,1.2,0,0,1,.163-.171,3.567,3.567,0,0,0,.626-.746,18.785,18.785,0,0,0,.99-1.621,19.888,19.888,0,0,0,1.307-2.9,28.584,28.584,0,0,0,1.059-3.394c.13-.526.236-1.062.336-1.593.245-1.289.215-2.986-.687-3.542a1.591,1.591,0,0,0-1.84.275,7.631,7.631,0,0,0-.645.662c-.074.09-.14.185-.2.279-.083.13-.164.262-.239.394l-.149.243a26.611,26.611,0,0,0-1.4,2.569c-.205.43-.393.868-.572,1.313a1,1,0,0,1-.953.662,1.015,1.015,0,0,1-.893-.761c-.3-.952-.6-1.9-.923-2.846q-.409-1.188-.832-2.362a1.251,1.251,0,0,1,.319-1.35,3.014,3.014,0,0,0,.578-.633,8.745,8.745,0,0,0,.732-1.394c.48-1.161.883-2.36,1.313-3.7l.092-.285a17.14,17.14,0,0,0,.888-3.5,6.263,6.263,0,0,0-.019-1.924,1.591,1.591,0,0,0-.935-1.247c-.4-.107-.775.042-1.282.507a.867.867,0,0,1-.187.13,1.242,1.242,0,0,0-.324.264,4.1,4.1,0,0,0-.3.39c-.079.111-.158.232-.239.352-.192.295-.375.6-.553.9a19.38,19.38,0,0,0-.9,1.849l-.079.174c-.171.39-.332.788-.487,1.188a1.012,1.012,0,0,1-.905.677h0a1,1,0,0,1-.907-.662c-.427-1.052-.917-2.272-1.363-3.488q-.724-2-1.416-4a1.3,1.3,0,0,1,.047-.966,1,1,0,0,1,.676-.579c.031-.01.06-.017.088-.025a1.721,1.721,0,0,0,.571-.361.683.683,0,0,1,.144-.11,1.527,1.527,0,0,0,.4-.359,6.724,6.724,0,0,0,.391-.606l.147-.247c.259-.423.492-.864.722-1.306l.049-.094q.824-1.56,1.6-3.15a18.15,18.15,0,0,0,1.381-4.012,12.183,12.183,0,0,0,.23-1.979,3.323,3.323,0,0,0-.307-1.611,1.411,1.411,0,0,0-.849-.79,1.571,1.571,0,0,0-.7,0,2.075,2.075,0,0,0-.6.346,7.934,7.934,0,0,0-1.137,1.414c-.333.512-.644,1.069-.936,1.6-.629,1.132-1.1,2.069-1.485,2.952-.4.922-.761,1.85-1.059,2.638a1.006,1.006,0,0,1-.915.688h-.012a1.008,1.008,0,0,1-.914-.717c-.339-.954-.652-1.78-.966-2.526a1.023,1.023,0,0,0-.143-.238,1.243,1.243,0,0,1-.243-.979.89.89,0,0,0-.01-.334c-.178-.777-.281-1.559-.378-2.312q-.057-.423-.115-.842a14.507,14.507,0,0,0-.939-3.278c-1.8-4.483-3.689-6.076-4.759-6.076a1.046,1.046,0,0,0-.938.671c-.6,1.129-.709,3.73.943,7.342a26.833,26.833,0,0,0,1.851,3.307,19.5,19.5,0,0,0,1.709,2.383,9.532,9.532,0,0,0,.7.681l.094.088a1.121,1.121,0,0,1,.322.537c.022.069.046.146.073.23.083.239.17.493.251.744l.684,2.132a1.271,1.271,0,0,1-.234,1.2.9.9,0,0,1-1.052.264c-.186-.08-.378-.151-.572-.224s-.372-.145-.554-.219l-.5-.209a13.433,13.433,0,0,0-1.823-.673,4.21,4.21,0,0,0-2.205-.163,2.808,2.808,0,0,0-1.244.79,3.968,3.968,0,0,0-.346.446,1.362,1.362,0,0,0-.162.3l-.109.625a2.485,2.485,0,0,0,.1.679c.118.249.239.48.366.7a5.538,5.538,0,0,0,.6.672,6.637,6.637,0,0,0,1.449,1.015,22.957,22.957,0,0,0,2.359,1.146,29.3,29.3,0,0,0,4.488,1.32,6.344,6.344,0,0,1,1.02.336.834.834,0,0,0,.306.059,1.04,1.04,0,0,1,.953.721c.185.528.369,1.052.558,1.578.5,1.383,1.063,2.773,1.607,4.121.218.538.435,1.079.651,1.618a1.276,1.276,0,0,1-.2,1.28.909.909,0,0,1-1.11.247,16.145,16.145,0,0,0-1.486-.664,7.049,7.049,0,0,0-2.513-.492c-2.409,0-4.032,1.435-4.034,2.777-.008,1.637,2.531,3.424,8.119,3.475l.468,0a17.316,17.316,0,0,1,2.179.109.753.753,0,0,1,.174.042,3.593,3.593,0,0,1,.5.211.377.377,0,0,0,.095.034,1.055,1.055,0,0,1,.736.708l.1.283c.509,1.514,1.029,3.119,1.636,5.054a1.262,1.262,0,0,1-.281,1.247.9.9,0,0,1-1.115.157c-.24-.138-.477-.271-.718-.4l-.187-.1a9.9,9.9,0,0,0-1.054-.531,15.806,15.806,0,0,0-3.2-.9,8.67,8.67,0,0,0-1.288-.129c-.1-.005-.212-.007-.318-.007a1.94,1.94,0,0,0-1.41.382,3.265,3.265,0,0,0-.316.391,1.072,1.072,0,0,0-.158.355,1.991,1.991,0,0,0,.089,1.3,3.635,3.635,0,0,0,1.13,1.277,7.494,7.494,0,0,0,1.384.788l.119.057c1,.481,2.06.874,2.975,1.207l.693.258c.679.251,1.385.513,2.068.714.574.162,1.159.306,1.744.438l.172.036a5,5,0,0,0,.759.14,1.038,1.038,0,0,1,.9.847c.164.715.328,1.432.487,2.15l.142.617q.224,1,.455,2.016a1.246,1.246,0,0,1-.332,1.18.906.906,0,0,1-1.077.138,14.821,14.821,0,0,0-2.471-1.169,19.053,19.053,0,0,0-3.141-.807c-.554-.092-1.015-.147-1.452-.182a3.634,3.634,0,0,0-1.8.272,1.4,1.4,0,0,0-.489.48.883.883,0,0,0-.061.1,2.055,2.055,0,0,0-.177.4c-.019.119-.045.262-.068.408,0,.162.014.323.024.485a2.453,2.453,0,0,0,.316.672,2.905,2.905,0,0,0,.344.436,7.208,7.208,0,0,0,1.5,1.226,12.263,12.263,0,0,0,2.867,1.31c.391.122.8.227,1.2.332l.189.052c1.015.262,2.04.465,3.273.69.3.056.6.1.908.146l.4.059c.177.033.337.067.5.1a.41.41,0,0,0,.107.01,1.543,1.543,0,0,1,.3.008,1.147,1.147,0,0,1,.911.81c.119.439.237.873.359,1.305l.641,2.281h-2.1l-.445-1.575c-.052-.2-.107-.395-.161-.593-.142-.027-.27-.056-.4-.079l-.365-.055c-.322-.046-.646-.1-.966-.157-1.269-.231-2.331-.442-3.4-.721l-.195-.052c-.422-.111-.849-.222-1.27-.354a14.227,14.227,0,0,1-3.3-1.5,9.442,9.442,0,0,1-1.908-1.562,5.031,5.031,0,0,1-.584-.75,4.261,4.261,0,0,1-.7-1.828c-.021-.232-.03-.482-.039-.735a1.316,1.316,0,0,1,.018-.294l.1-.555a4.047,4.047,0,0,1,.412-1.076c.044-.092.109-.2.178-.312a3.453,3.453,0,0,1,1.38-1.249,5.5,5.5,0,0,1,2.641-.415c.484.036,1,.1,1.6.2a21.381,21.381,0,0,1,3.438.887c.278.1.561.207.848.331l-.078-.356c-.1-.462-.209-.925-.315-1.39l-.293-.069-.165-.034c-.617-.14-1.237-.289-1.851-.467-.753-.22-1.482-.493-2.189-.755l-.684-.253a33.737,33.737,0,0,1-3.147-1.277l-.113-.057a9.109,9.109,0,0,1-1.744-1.01,5.535,5.535,0,0,1-1.792-2.158,4.538,4.538,0,0,1-.243-2.834,3.447,3.447,0,0,1,.507-1.2,5.074,5.074,0,0,1,.56-.7,3.635,3.635,0,0,1,2.763-.992c.133,0,.26.005.389.011a10.4,10.4,0,0,1,1.546.157,18.318,18.318,0,0,1,3.525.989c-.252-.775-.492-1.505-.728-2.213-.048-.021-.1-.038-.142-.059a17.025,17.025,0,0,0-1.865-.079l-.476,0c-7.458-.071-10.108-3.03-10.1-5.776.009-2.834,2.657-5.057,6.031-5.057a8.455,8.455,0,0,1,2.49.387c-.438-1.092-.878-2.207-1.284-3.332-.117-.321-.235-.65-.349-.975a2.937,2.937,0,0,1-.312-.107,4.633,4.633,0,0,0-.742-.245,31.244,31.244,0,0,1-4.75-1.408,24.376,24.376,0,0,1-2.552-1.235,8.61,8.61,0,0,1-1.871-1.331,7.425,7.425,0,0,1-.876-.991.782.782,0,0,1-.053-.082,8.363,8.363,0,0,1-.5-.951,4.6,4.6,0,0,1-.339-1.987,1.409,1.409,0,0,1,.018-.156l.13-.721a3.259,3.259,0,0,1,.516-1.2,5.911,5.911,0,0,1,.568-.734,4.729,4.729,0,0,1,2.1-1.341,5.969,5.969,0,0,1,3.171.142,12.755,12.755,0,0,1,1.684.6c-.058-.182-.123-.366-.182-.545l0-.012a9.971,9.971,0,0,1-.729-.728,21.251,21.251,0,0,1-1.915-2.659,29.419,29.419,0,0,1-2.006-3.59c-1.73-3.78-2.061-7.368-.886-9.6a3.022,3.022,0,0,1,2.649-1.773c2.288,0,4.684,2.7,6.571,7.409a16.888,16.888,0,0,1,1.094,3.854c.042.292.082.587.12.877.1.729.187,1.417.338,2.073a3.686,3.686,0,0,1,.087.785,2.9,2.9,0,0,1,.174.355l.117.276c.052-.129.109-.257.165-.387.416-.954.921-1.962,1.588-3.157.308-.561.644-1.161,1.021-1.739a10.072,10.072,0,0,1,1.466-1.805,3.78,3.78,0,0,1,1.192-.734,3.134,3.134,0,0,1,1.651-.119,3.326,3.326,0,0,1,2.275,1.857,5.815,5.815,0,0,1,.6,2.959,14.484,14.484,0,0,1-.288,2.4,20.38,20.38,0,0,1-1.578,4.565q-.789,1.621-1.626,3.215l-.051.092c-.253.484-.511.973-.793,1.438l-.139.224a8.455,8.455,0,0,1-.546.843,3.672,3.672,0,0,1-.875.807c-.109.092-.216.176-.322.254q.513,1.47,1.042,2.928c.151.41.3.813.457,1.217a14.271,14.271,0,0,1,.686-1.343c.194-.338.4-.671.614-1,.088-.136.179-.266.269-.4.139-.2.29-.384.439-.562a4.986,4.986,0,0,1,3.686-1.536,3.707,3.707,0,0,1,2.418,2.949,8.681,8.681,0,0,1,.058,2.72,19.39,19.39,0,0,1-1,4.037l-.09.273c-.452,1.391-.867,2.642-1.386,3.889a11.173,11.173,0,0,1-.931,1.778,4.214,4.214,0,0,1-.377.495c.2.549.383,1.1.571,1.647.056.163.11.327.164.494.377-.739.732-1.364,1.089-1.936l.136-.22c.09-.151.184-.3.279-.451a5.522,5.522,0,0,1,.348-.48,7.963,7.963,0,0,1,.766-.794l.066-.065a3.423,3.423,0,0,1,4.057-.522c1.876,1.159,2.1,3.88,1.688,6.041-.106.572-.221,1.148-.361,1.72a31.275,31.275,0,0,1-1.149,3.693,22.165,22.165,0,0,1-1.467,3.238c-.333.589-.7,1.214-1.1,1.795a7.1,7.1,0,0,1-.725.909c.148.642.3,1.289.441,1.937.017.077.036.159.057.245.472-.807.963-1.622,1.5-2.4,2.637-3.816,4.739-4.615,6.035-4.615a3.2,3.2,0,0,1,2.946,2.147c1.1,2.573.315,6.438-1.992,9.855a15.426,15.426,0,0,1-1.072,1.418,25.73,25.73,0,0,1-2.612,2.654,10.722,10.722,0,0,1-1.42,1.081c-.2.118-.333.2-.473.279l-.237.128c-.019.019-.041.034-.061.052q.317,1.192.643,2.377l.149-.232a10.77,10.77,0,0,1,3.007-3.167l.087-.059a7.03,7.03,0,0,1,1.7-.889,4.384,4.384,0,0,1,1.068-.2l.135-.008a3.049,3.049,0,0,1,1.351.381l.134.063a3.6,3.6,0,0,1,1.374,1.448,6.008,6.008,0,0,1,.364.858,6.071,6.071,0,0,1,.142,2.4h-2.034v-.013a3.684,3.684,0,0,0,.014-1.628,4.689,4.689,0,0,0-.215-.476,2.076,2.076,0,0,0-.42-.484l-.121-.055a1.555,1.555,0,0,0-.589-.2,2.792,2.792,0,0,0-.682.127,5.3,5.3,0,0,0-1.233.669l-.087.055a8.048,8.048,0,0,0-2.021,2.01Zm-8.549,0,.007,0a4.576,4.576,0,0,1,1.068-.114l.208.008a5.293,5.293,0,0,1,.934.11Zm48.9,0c1.137-1.22,1.535-2.272,1.368-2.9-.141-.543-.8-.878-1.71-.878a7.252,7.252,0,0,0-3.924,1.5c-.312.218-.616.453-.914.7a.894.894,0,0,1-1.138.017,1.206,1.206,0,0,1-.436-.842,1.37,1.37,0,0,1,.023-.449l.1-.425a.719.719,0,0,0,.024-.078l.088-.392.1.021a.7.7,0,0,1,.068-.084l-.145-.04c0-.016.02-.09.024-.106l.16-.669c0-.006.023-.09.023-.094l.152-.627c0-.006.025-.1.025-.107a.268.268,0,0,0,.01-.038c.432-1.746.925-3.485,1.4-5.174l.5-1.772a.991.991,0,0,1,1.1-.781,6.785,6.785,0,0,0,1.138.079l.837-.01c1.035-.015,2.075-.046,3.11-.08a24.77,24.77,0,0,0,3.693-.419,8.333,8.333,0,0,0,1.626-.505,7.769,7.769,0,0,0,1.835-1.012,5.141,5.141,0,0,0,.615-.579l.157-.233c.025-.037.05-.073.077-.106a1.248,1.248,0,0,0,.275-.562,1.255,1.255,0,0,1,.034-.13,2.285,2.285,0,0,0-.168-1.748,2.9,2.9,0,0,0-1.96-1.155,13.349,13.349,0,0,0-1.475-.268,17.311,17.311,0,0,0-3.32-.187,11.7,11.7,0,0,0-1.349.174l-.229.038a15.9,15.9,0,0,0-1.606.319,7,7,0,0,0-.71.243.914.914,0,0,1-1.033-.281,1.281,1.281,0,0,1-.233-1.184c.926-3.023,2.02-6.175,3.338-9.631a.991.991,0,0,1,1.079-.673c.136.027.273.057.408.086.339.077.673.157,1.006.237.608.146,1.213.291,1.827.4a15.436,15.436,0,0,0,2.753.214l.479,0c4.918-.091,7.191-2.52,7.18-4.134-.013-1.586-2.231-3.3-6.993-3.081a21.873,21.873,0,0,0-3.3.353.955.955,0,0,1-.969-.437,1.275,1.275,0,0,1-.1-1.186l2.19-5.284c.577-1.394,1.2-2.837,1.923-4.4a.953.953,0,0,1,1.178-.564,9.923,9.923,0,0,0,1.465.369c1.152.21,2.347.352,3.465.476.335.037.671.083,1.011.123.674.086,1.312.168,1.954.2a13.153,13.153,0,0,0,2.294-.045,10.378,10.378,0,0,0,1.859-.442,5.831,5.831,0,0,0,2.044-1.282,2.732,2.732,0,0,0,.8-1.279,2.261,2.261,0,0,0-.123-1.641,3.361,3.361,0,0,0-1.635-1.272,9.854,9.854,0,0,0-3.046-.906,19.3,19.3,0,0,0-6.455.245.952.952,0,0,1-1-.477,1.29,1.29,0,0,1-.029-1.248c.423-.8.856-1.6,1.286-2.393.88-1.629,1.777-3.354,2.661-5.125.251-.5.506-.983.759-1.471a.941.941,0,0,1,1.2-.48,2.135,2.135,0,0,0,.279.092c.153.04.292.065.429.09l.5.1c.386.075.773.155,1.157.258.833.224,1.825.476,2.858.651a20.988,20.988,0,0,0,3.449.3c5.694,0,8.391-2.708,8.424-4.538.026-1.663-2.1-3.542-6.835-3.748l-.282-.013c-.622-.024-1.246-.054-1.868-.054a11.435,11.435,0,0,0-2.666.266c-.187.044-.372.093-.553.143a.933.933,0,0,1-1.058-.459,1.284,1.284,0,0,1,0-1.3c.512-.853,1.01-1.712,1.509-2.573l.658-1.145c.236-.417.475-.834.715-1.245.178-.3.35-.606.521-.916l.314-.574c.1-.166.178-.323.254-.484a1.573,1.573,0,0,1,.131-.317,9.851,9.851,0,0,0,.492-.918,1.058,1.058,0,0,1,.487-.524c.156-.077.31-.165.465-.245.342-.193.68-.4,1.017-.627q1.106-.753,2.2-1.544a14.356,14.356,0,0,0,2.132-1.872,7.285,7.285,0,0,0,1.237-1.922,8.143,8.143,0,0,0,.687-2.236c.058-.39.107-.79.13-1.182a6.848,6.848,0,0,0-.119-1.52,4.334,4.334,0,0,0-.4-1.138,2.141,2.141,0,0,0-.994-.953,1.853,1.853,0,0,0-.654-.2,3.96,3.96,0,0,0-.877-.033,4.1,4.1,0,0,0-.85.2,8.926,8.926,0,0,0-1.337.591c-.063.034-.132.071-.2.113a6.554,6.554,0,0,0-1.994,2.113,16.368,16.368,0,0,0-1.368,2.609,35.942,35.942,0,0,0-1.343,3.9l-.1.32a14.686,14.686,0,0,0-.435,1.658l-.113.644c-.082.474-.165.945-.266,1.412a.873.873,0,0,0-.006.294,1.3,1.3,0,0,1-.15.828l-.209.375c-.12.212-.232.421-.352.616-.289.476-.574.958-.855,1.44l-.627,1.058c-.844,1.413-1.718,2.872-2.619,4.285a.939.939,0,0,1-1.137.417,1.138,1.138,0,0,1-.677-1.109l0-.136a24.527,24.527,0,0,0-.159-3.469,16.615,16.615,0,0,0-.837-3.681c-.411-1.136-.921-2.387-1.766-2.789a1.328,1.328,0,0,0-1.171-.007,1.415,1.415,0,0,0-.608.489,2.846,2.846,0,0,0-.345.6l-.066.134a4.473,4.473,0,0,0-.19.652l-.026.1c-.061.264-.108.518-.143.784a11.755,11.755,0,0,0-.021,2.475,21.116,21.116,0,0,0,.628,3.289c.14.578.342,1.159.515,1.657.208.589.469,1.163.745,1.771.186.409.372.816.541,1.233.133.327.257.649.383.972.1.265.206.531.315.795a1.531,1.531,0,0,1,.061.207,1.369,1.369,0,0,0,.22.545,1.283,1.283,0,0,1,.083,1.325q-.791,1.5-1.559,3.026c-.719,1.419-1.485,2.823-2.222,4.178-.365.67-.729,1.339-1.091,2.014l-.106.2a.958.958,0,0,1-.993.534,1.056,1.056,0,0,1-.821-.834c-.061-.256-.123-.516-.2-.77-.3-1.1-.616-2.2-.928-3.3l-.1-.341c-.136-.472-.284-.945-.437-1.411a8.178,8.178,0,0,0-.471-1.083l-.117-.241a2.9,2.9,0,0,0-1.131-1.1,2.19,2.19,0,0,0-1.054-.2c-.12,0-.238,0-.354.013a1.194,1.194,0,0,0-.547.182,1.661,1.661,0,0,0-.476.442,3.489,3.489,0,0,0-.531,1.719,15.077,15.077,0,0,0,.587,4.676,19.03,19.03,0,0,0,1.321,3.439,21.9,21.9,0,0,0,1.561,2.782c.272.4.558.779.844,1.155l.139.184a1.282,1.282,0,0,1,.125,1.285c-1.475,3.194-2.852,6.529-4.181,9.752l-.7,1.7a.928.928,0,0,1-.935.65,1.016,1.016,0,0,1-.9-.723c-.062-.178-.123-.357-.189-.533l-.268-.75c-.214-.593-.414-1.155-.645-1.7-.256-.6-.511-1.184-.8-1.716-.1-.183-.2-.344-.3-.508a3.281,3.281,0,0,0-1.11-1.1,1.536,1.536,0,0,0-1.508.071,1.411,1.411,0,0,0-.26.2,3.478,3.478,0,0,0-.744,1.13,4.7,4.7,0,0,0-.208,1.861,9.721,9.721,0,0,0,.242,1.625,12.678,12.678,0,0,0,.456,1.677,11.738,11.738,0,0,0,.965,2.02,18.077,18.077,0,0,0,1.527,2.188l.123.159a13.481,13.481,0,0,1,1.251,1.761,1.439,1.439,0,0,1,.181,1.253l-.044.109c-.826,2.17-1.634,4.467-2.47,7.007-.269.807-.525,1.618-.776,2.429a1.023,1.023,0,0,1-.924.763,1,1,0,0,1-.946-.727c-.081-.237-.167-.469-.257-.706a11.754,11.754,0,0,0-1.626-2.968,7.372,7.372,0,0,0-1.55-1.62,2.712,2.712,0,0,0-1.439-.615c-.243,0-.443.08-.619.487-.7,1.568-.076,5.506,1.8,8.425.375.594.771,1.166,1.165,1.742l1.205,1.778a8.365,8.365,0,0,0,.542.7,1.268,1.268,0,0,1,.222,1.134l-.173.622q-.426,1.529-.855,3.06c-.524,1.851-1,3.662-1.4,5.385a1.99,1.99,0,0,0-.055.224c-.093.41-.168.744-.243,1.087a1.053,1.053,0,0,1-.85.852.969.969,0,0,1-1-.6c-.221-.478-.451-.949-.682-1.419-2.013-4.074-3.985-5.527-5.165-5.527a1.2,1.2,0,0,0-1.147.86c-.5,1.234-.169,3.619,1.694,6.157a29.1,29.1,0,0,0,2.3,2.832c.066.071.132.141.2.21h-2.834c-.382-.472-.779-.988-1.2-1.57-2.59-3.534-2.719-6.758-1.971-8.593a3.2,3.2,0,0,1,2.954-2.183c2.106,0,4.4,2.065,6.4,5.712.324-1.321.7-2.718,1.1-4.137.284-1.009.568-2.025.852-3.037-.094-.118-.183-.244-.267-.371l-1.2-1.763c-.4-.595-.814-1.189-1.2-1.8-2.2-3.435-3.085-8.289-1.966-10.815.848-1.923,2.709-2.316,4.882-.79a9.329,9.329,0,0,1,2,2.054,12.939,12.939,0,0,1,1.187,1.855c.779-2.364,1.538-4.523,2.31-6.575-.251-.385-.546-.758-.852-1.144l-.13-.161a20.557,20.557,0,0,1-1.712-2.459,14.042,14.042,0,0,1-1.156-2.435,15.108,15.108,0,0,1-.538-1.983,11.6,11.6,0,0,1-.3-2.111,6.853,6.853,0,0,1,.421-2.963,5.845,5.845,0,0,1,1.209-1.807,3.444,3.444,0,0,1,.645-.505,3.331,3.331,0,0,1,3.423-.042,5.464,5.464,0,0,1,1.759,1.771c.125.2.247.409.364.624.339.617.618,1.258.9,1.916.106.25.2.5.3.748,1.163-2.815,2.362-5.7,3.642-8.515-.208-.281-.411-.56-.608-.851a24.494,24.494,0,0,1-1.732-3.083,21.391,21.391,0,0,1-1.486-3.9,17.338,17.338,0,0,1-.656-5.5,5.809,5.809,0,0,1,.979-2.994,3.759,3.759,0,0,1,1.084-1.007,3.024,3.024,0,0,1,1.382-.446c.144-.008.3-.011.45-.011a3.822,3.822,0,0,1,1.957.451,4.958,4.958,0,0,1,1.97,2.027l.113.226a10.233,10.233,0,0,1,.605,1.411c.161.5.315.991.46,1.492l.1.346c.165.585.33,1.165.5,1.752a1.03,1.03,0,0,0,.046-.094c.733-1.339,1.489-2.727,2.188-4.11q.624-1.239,1.267-2.469a4.571,4.571,0,0,1-.2-.617c-.095-.245-.189-.492-.287-.737-.12-.312-.238-.617-.365-.927-.158-.385-.331-.767-.5-1.148-.284-.629-.58-1.279-.825-1.972-.194-.552-.414-1.2-.587-1.887a22.792,22.792,0,0,1-.691-3.706,14.175,14.175,0,0,1,.033-3.043c.052-.364.112-.694.2-1.041l.023-.093a5.664,5.664,0,0,1,.38-1.174l.059-.125a5.209,5.209,0,0,1,.627-1.044,3.66,3.66,0,0,1,.95-.851,4.134,4.134,0,0,1,.384-.2,3.117,3.117,0,0,1,2.673.025c1.677.8,2.432,2.9,2.84,4.026a19.32,19.32,0,0,1,.972,4.247c.019.182.041.362.059.538.307-.505.608-1.01.906-1.509l.62-1.046c.288-.492.575-.983.87-1.469.1-.17.2-.35.3-.534l.04-.07a3.439,3.439,0,0,1,.073-.741c.093-.434.168-.876.247-1.312l.116-.665a16.649,16.649,0,0,1,.506-1.951l.1-.315a38.806,38.806,0,0,1,1.441-4.166,19.154,19.154,0,0,1,1.568-2.979,8.8,8.8,0,0,1,2.645-2.743c.1-.061.2-.12.312-.176a10.528,10.528,0,0,1,1.61-.7,5.476,5.476,0,0,1,1.233-.283,5.305,5.305,0,0,1,1.271.037,3.557,3.557,0,0,1,1.192.355,4.269,4.269,0,0,1,1.979,1.965,6.669,6.669,0,0,1,.621,1.835,9.9,9.9,0,0,1,.148,2.068c-.031.514-.1,1.023-.152,1.407a10.648,10.648,0,0,1-.891,2.934A9.739,9.739,0,0,1,3874,995.77a16.346,16.346,0,0,1-2.433,2.141c-.744.537-1.495,1.067-2.251,1.575-.415.283-.8.517-1.166.721-.07.04-.142.075-.213.113-.116.234-.241.457-.364.668-.01.025-.017.051-.026.078s-.023.056-.035.084c-.12.251-.238.492-.378.727l-.3.555c-.181.325-.36.652-.553.973-.234.4-.466.809-.7,1.215l-.667,1.158c-.079.14-.16.278-.239.417a28.686,28.686,0,0,1,3.291,0l.284.012c6.526.286,8.795,3.453,8.752,6.081-.056,3.372-3.652,6.784-10.418,6.784a22.7,22.7,0,0,1-3.737-.327c-1.1-.188-2.155-.455-3.036-.691-.34-.091-.684-.164-1.031-.231l-.486-.1c-.085-.017-.169-.034-.253-.049-.121.235-.242.466-.362.707-.891,1.783-1.8,3.531-2.7,5.185-.057.109-.113.218-.176.323a21.715,21.715,0,0,1,4.905.067,11.7,11.7,0,0,1,3.594,1.073,5.174,5.174,0,0,1,2.578,2.211,4.855,4.855,0,0,1,.295,3.553,5.119,5.119,0,0,1-1.438,2.328,7.717,7.717,0,0,1-2.722,1.684,11.592,11.592,0,0,1-2.188.522,14.859,14.859,0,0,1-2.616.058c-.708-.031-1.413-.124-2.1-.212-.325-.041-.646-.083-.976-.117-1.151-.128-2.382-.277-3.587-.5-.286-.056-.6-.115-.928-.2-.553,1.233-1.055,2.39-1.524,3.521l-1.408,3.4c.581-.054,1.156-.088,1.7-.115,6.7-.307,9.051,2.752,9.071,5.349.026,3.118-3.111,6.329-9.145,6.446h-.51a17.117,17.117,0,0,1-3.06-.24c-.644-.115-1.287-.27-1.928-.421-.191-.048-.382-.094-.572-.138-.88,2.337-1.652,4.535-2.339,6.652.268-.052.532-.1.791-.136l.22-.039a14.356,14.356,0,0,1,1.541-.195,18.816,18.816,0,0,1,3.643.2,15.142,15.142,0,0,1,1.668.3,4.671,4.671,0,0,1,3.265,2.234,4.876,4.876,0,0,1,.332,3.651,3.692,3.692,0,0,1-.72,1.49l-.174.26a.709.709,0,0,1-.106.136,7.527,7.527,0,0,1-.931.878,9.759,9.759,0,0,1-2.286,1.271,10.236,10.236,0,0,1-1.976.61,26.9,26.9,0,0,1-3.95.448q-1.572.051-3.146.076l-.29,0c-.356.006-.7.017-1.148-.005l-.253.9c-.462,1.637-.937,3.328-1.358,5.009a7.991,7.991,0,0,1,3.815-1.113,3.5,3.5,0,0,1,3.625,2.505,4.7,4.7,0,0,1-.656,3.557Z" fill="#fff"/>
      </g>
    </g>
    <g id="圖層_1" data-name="圖層 1" transform="translate(1 9)">
      <g id="Group_2048" data-name="Group 2048" opacity="0.5">
        <path id="Path_2339" data-name="Path 2339" d="M2035.29,1098.95c.245-.384.491-.773.749-1.15.427-.627.855-1.239,1.287-1.853.67-.916,1.334-1.807,2-2.7l.933-1.254a48.2,48.2,0,0,1,3.15-3.89c1.139-1.243,2.266-2.5,3.4-3.756l1.144-1.3c.694-.778,1.386-1.557,2.088-2.326l.53-.577c.916-1,1.829-2,2.759-2.984l.27-.281c.18-.185.352-.363.511-.543l.266-.294.77.736-.7-.821c.148-.164.3-.325.429-.5l.838.643-.743-.759c.34-.442.646-.828.931-1.245a11.42,11.42,0,0,0,1.3-2.54,13.053,13.053,0,0,0,.774-3.347,8.573,8.573,0,0,0-.019-1.339l-.014-.185c-.029-.463-.08-.941-.148-1.417a7.471,7.471,0,0,0-.746-2.293,6.711,6.711,0,0,0-.736-1.041,6.148,6.148,0,0,0-.979-.964,5.205,5.205,0,0,0-1.512-.726c-.349-.123-.684-.238-1.022-.324a9.476,9.476,0,0,0-2.061-.315h-.142a17.95,17.95,0,0,0-1.981.145,11.479,11.479,0,0,0-1.962.44c-.631.2-1.308.448-2.129.763a23.263,23.263,0,0,0-2.2.995,12.419,12.419,0,0,0-1.712,1.134c-.788.587-1.5,1.2-2.027,1.669-.209.18-.4.36-.589.538l-.278.26c-.143.132-.3.268-.451.4-.117.1-.239.216-.36.327-.594.56-1.195,1.113-1.8,1.665-.537.494-1.053,1.047-1.577,1.622-.6.648-1.184,1.306-1.765,1.98-.3.348-.587.709-.873,1.078l-.076.1c-.138.18-.29.375-.443.566-.326.411-.658.822-.989,1.235l-.322.4c-.61.748-1.21,1.492-1.8,2.249-.52.669-1.035,1.352-1.547,2.035l-.069.086c-.32.43-.637.878-.949,1.329l-.2.281q-.176.255-.358.5l-1.515,2.054c-.688.92-1.345,1.8-1.985,2.693-.916,1.3-1.889,2.685-2.792,4.1-.485.765-.964,1.53-1.428,2.314-.349.595-.7,1.243-1.077,1.981-.813,1.6-1.429,2.915-1.938,4.143a1.064,1.064,0,0,1-.147.262h-1.5a1.271,1.271,0,0,1-.2-1.094l.141-.524c.092-.369.188-.754.289-1.132a41.747,41.747,0,0,1,1.379-4.081l.293-.771c.595-1.616,1.193-3.234,1.809-4.835.809-2.128,1.635-4.251,2.461-6.37.641-1.53,1.3-3.03,1.949-4.483l.161-.358c.713-1.6,1.4-3.211,2.092-4.825l.562-1.3c.142-.324.283-.649.419-.974l.455-1.086c.161-.381.322-.769.488-1.151.772-1.779,1.486-3.326,2.178-4.728.786-1.6,1.586-3.192,2.387-4.785.762-1.519,1.524-3.039,2.279-4.573.7-1.425,1.416-2.912,2.173-4.544.406-.855.805-1.706,1.226-2.545q.433-.858.876-1.7l.206-.4c1.89-3.63,3.441-6.51,4.883-9.069.471-.832.944-1.65,1.433-2.465l.734-1.216c.178-.3.354-.587.53-.886.845-1.415,1.734-2.815,2.595-4.171l.151-.235c.639-1,1.3-1.982,1.96-2.959l1.155-1.725c.7-1.048,1.4-2.1,2.109-3.148,1.441-2.134,2.961-4.3,4.307-6.211l1.064-1.523c.918-1.271,1.887-2.627,2.855-4.039l.193-.273c.783-1.135,1.668-2.427,2.492-3.709q.753-1.158,1.473-2.329c.392-.622.753-1.3,1.107-1.958l.125-.238c.656-1.227,1.315-2.593,2.075-4.3l.22-.49c.265-.591.533-1.188.778-1.79.354-.874.7-1.754,1.031-2.645.248-.679.455-1.429.638-2.087l.1-.35c.16-.579.294-1.216.42-1.836l.118-.571c.023-.113.043-.239.058-.364l.076-.464c.028-.176.056-.337.076-.5l.045-.4c.037-.274.067-.532.083-.784l.013-.3c.017-.319.034-.614.032-.914,0-.464-.008-.929-.022-1.392a15.671,15.671,0,0,0-.4-3.516,9.957,9.957,0,0,0-.482-1.279,5.9,5.9,0,0,0-.423-.776l-.131-.216a13.741,13.741,0,0,0-1.687-2.274,8.5,8.5,0,0,0-2.028-1.616,12.268,12.268,0,0,0-2.8-1.172,11.2,11.2,0,0,0-2.546-.387l-.356-.008c-.189-.007-.361-.017-.535-.017l-.327.012a18.054,18.054,0,0,0-2.234.2l-.343.056c-.248.034-.477.067-.7.119l-.4.088c-.285.057-.491.1-.692.16l-1.157.358c-.216.069-.427.147-.635.227l-.426-1.048.317,1.09-.363.136c-.243.094-.478.2-.712.3l-.351.157c-.277.121-.551.253-.821.383l-.429.206a17.458,17.458,0,0,0-1.786.991c-1.2.748-2.445,1.6-4.037,2.777a22.371,22.371,0,0,0-1.778,1.426l-.972.878c-.226.207-.44.425-.652.635l-.305.306c-1.025,1-2.055,2.129-2.882,3.035l-.5.547c-.66.717-1.327,1.423-2,2.131l-1.256,1.337c-2.227,2.381-4.445,4.861-6.78,7.571-.959,1.124-1.873,2.329-2.879,3.676q-.81,1.089-1.616,2.186c-.516.711-1.016,1.436-1.519,2.163l-.21.3c-1.734,2.513-3.693,5.353-5.494,8.206l-.272.427c-.31.489-.617.977-.908,1.474-.407.7-.785,1.383-1.221,2.2-.458.851-.91,1.7-1.351,2.563-.3.572-.582,1.157-.861,1.74l-.229.471q-2,4.135-3.961,8.29l-.519,1.092c-1.524,3.209-2.855,6.56-4.065,9.7-.188.484-.36.979-.53,1.473l-.279.8c-.258.723-.49,1.452-.717,2.18l-.045.136c-.51,1.614-1.049,3.326-1.525,5.015q-1.09,3.846-2.212,7.678l-.828,2.84c-.308,1.073-.656,2.152-.994,3.2l-.482,1.533q-.774,2.474-1.509,4.967-1.547,5.253-3.071,10.509c-.163.572-.327,1.138-.5,1.7l-.047.169c-.285.973-.568,1.948-.841,2.93-.258.906-.505,1.822-.742,2.74l-.086.32c-.159.612-.323,1.224-.46,1.843-.372,1.633-.771,3.4-1.085,5.139-.178.949-.335,1.884-.483,2.836-.129.815-.24,1.635-.353,2.46l-.038.3c-.073.537-.136,1.073-.2,1.6a1.029,1.029,0,0,1-1.031.993,1.075,1.075,0,0,1-.956-1.086l-.012-.253c-.059-.444-.126-.887-.193-1.329-.086-.564-.169-1.13-.239-1.693-.134-1.057-.252-2.134-.347-3.191l-.082-.96c-.114-1.324-.225-2.619-.288-3.9q-.142-2.647-.261-5.3l-.051-1.089c-.027-.573-.05-1.1-.08-1.618l-.036-.612c-.039-.632-.077-1.239-.1-1.843-.08-2.031-.115-3.829-.1-5.493v-.3c.006-.8.014-1.6.037-2.408.019-.7.05-1.394.08-2.1l.031-.625c.025-.6.057-1.2.089-1.8l.043-.845c.051-.979.1-1.887.132-2.8.078-2.184.136-4.372.193-6.562l.023-.883q.039-1.612.086-3.228l.19-6.667q.209-7.287.392-14.581c.041-1.616.077-3.24.089-4.857l.007-1.525c.006-1.365.013-2.731.043-4.094.083-3.915.214-7.4.4-10.668.059-1.079.125-2.159.193-3.234l.141-2.251q.144-2.493.274-5c.034-.713.076-1.427.118-2.142l.025-.459c.059-1.037.121-2.071.174-3.106.077-1.4.167-2.794.26-4.194l.235-3.444c.064-.912.129-1.827.18-2.741.1-1.736.14-3.509.181-5.223l.016-.583c.073-3.3.148-6.7,0-10.014-.053-1.2-.15-2.486-.294-3.926a38.992,38.992,0,0,0-.572-4.043c-1.155-5.567-3.7-12.2-9.276-12.2-3.782,0-8.376,3.066-12.939,8.626-.3.374-.593.74-.876,1.126-.34.471-.679.937-1.009,1.423s-.574.849-.814,1.26l-.1.178c-.248.425-.455.782-.642,1.155l-.143.283c-.188.369-.363.719-.521,1.089l-.2.483c-.144.335-.32.737-.456,1.133l-.072.208c-4.437,12.877-7.5,35.509-7.8,49.089-.032,1.108-.125,4.45-.112,7.757.006,2.637.071,5.353.19,8.09.05,1.218.132,2.457.21,3.513.043.593.09,1.18.134,1.771.061.775.119,1.509.169,2.236l.129,1.989c.129,1.987.257,3.976.416,5.965q.129,1.732.252,3.463.158,2.3.341,4.594l.254,3.308c.086,1.1.184,2.209.282,3.315a1.314,1.314,0,0,1,.052.285c.079,1.224.192,2.543.351,4.153.088.941.206,1.877.323,2.808l.124,1.019c.276,2.253.631,4.594.945,6.66l.155,1.006c.437,2.9.771,5.374,1.054,7.779q.289,2.433.614,4.856l.388,2.968c.212,1.626.375,3.227.552,5l.031.3c.088.859.174,1.712.27,2.561.1.885.2,1.761.315,2.639l.061.5a1.187,1.187,0,0,1-.585,1.2h-.807a1.073,1.073,0,0,1-.514-.591l-1.347-3.519c-.423-1.088-.863-2.174-1.3-3.255l-2.18-5.378c-.266-.66-.532-1.317-.806-1.972-.935-2.245-1.948-4.63-3.04-6.923-.634-1.338-1.152-2.386-1.686-3.4q-.882-1.679-1.788-3.345c-.581-1.067-1.17-2.119-1.763-3.171l-.259-.464c-.643-1.148-1.243-2.217-1.833-3.286-.574-1.048-1.2-2.136-1.92-3.333-.618-1.033-1.3-2.072-1.951-3.037-1.365-2.047-2.851-4.2-4.419-6.394-1.27-1.79-2.689-3.7-4.458-6.038-.869-1.143-1.55-2-2.211-2.8s-1.385-1.612-2.35-2.665c-1.458-1.6-3.192-3.474-5.034-5.288q-.594-.589-1.211-1.179v-2.964q1.3,1.2,2.513,2.408c1.875,1.853,3.635,3.75,5.11,5.366.987,1.077,1.733,1.922,2.415,2.739s1.383,1.708,2.273,2.878c1.783,2.347,3.215,4.284,4.5,6.088,1.581,2.218,3.079,4.389,4.456,6.45.663.995,1.371,2.062,2.012,3.135.734,1.22,1.377,2.339,1.962,3.412s1.186,2.122,1.786,3.2l.3.532c.6,1.065,1.193,2.125,1.778,3.2q.912,1.678,1.8,3.374c.548,1.046,1.079,2.121,1.727,3.488,1.114,2.339,2.142,4.763,3.085,7.029.279.66.547,1.329.821,2l2.1,5.187c-.118-1.156-.24-2.248-.38-3.347l-.384-2.913c-.218-1.683-.431-3.309-.624-4.94-.279-2.379-.614-4.825-1.044-7.7l-.15-.983c-.321-2.1-.678-4.464-.959-6.751l-.124-1.018c-.119-.956-.24-1.922-.331-2.884-.142-1.467-.249-2.7-.33-3.84a1.211,1.211,0,0,1-.04-.22c-.111-1.241-.22-2.49-.321-3.735l-.249-3.3c-.127-1.536-.237-3.083-.346-4.622q-.123-1.719-.251-3.445c-.16-1.994-.288-3.991-.417-6l-.128-1.985c-.049-.717-.106-1.438-.164-2.167-.05-.635-.1-1.23-.137-1.828-.079-1.071-.165-2.335-.217-3.588-.12-2.764-.185-5.523-.191-8.189-.012-3.349.08-6.723.113-7.83.3-13.77,3.418-36.756,7.935-49.875l.073-.2c.156-.463.357-.922.517-1.3l.2-.474c.173-.415.373-.817.588-1.237l.141-.285c.206-.406.432-.8.7-1.255l.111-.2c.262-.457.539-.87.878-1.369.366-.541.719-1.031,1.076-1.519.309-.424.626-.822.957-1.224,5.007-6.116,9.987-9.348,14.389-9.348,3.8,0,8.825,2.421,11.219,13.959a40.748,40.748,0,0,1,.612,4.313c.149,1.482.25,2.815.307,4.068.15,3.4.072,6.844,0,10.17l-.017.6c-.04,1.748-.083,3.542-.186,5.321-.049.927-.113,1.847-.176,2.771l-.237,3.446c-.092,1.383-.183,2.763-.258,4.152q-.081,1.56-.172,3.117l-.029.463c-.04.708-.082,1.417-.117,2.127q-.13,2.51-.275,5.022l-.138,2.222c-.068,1.1-.135,2.173-.193,3.249-.183,3.234-.312,6.692-.394,10.576-.03,1.35-.038,2.7-.041,4.053l-.008,1.528c-.012,1.637-.048,3.272-.09,4.907-.115,4.862-.255,9.729-.393,14.589l-.191,6.67c-.032,1.077-.058,2.148-.085,3.219l-.024.885c-.057,2.2-.115,4.393-.193,6.589-.034.925-.082,1.849-.128,2.767l-.051.918c-.027.6-.06,1.192-.087,1.783l-.028.623c-.031.689-.06,1.371-.077,2.058-.027.79-.032,1.572-.036,2.356v.3c-.017,1.62.013,3.372.1,5.361.025.583.058,1.176.1,1.792l.036.616c.032.531.056,1.067.079,1.6l.053,1.14q.121,2.644.259,5.286c.064,1.242.172,2.511.277,3.737l.007.086c.323-1.776.739-3.614,1.076-5.1.165-.727.332-1.372.5-2.014l.084-.32c.241-.927.49-1.855.751-2.778.278-.993.562-1.972.852-2.959l.539-1.855c1.01-3.513,2.045-7.017,3.078-10.524.493-1.679,1-3.345,1.517-5.011l.491-1.549c.33-1.023.667-2.083.971-3.131l.8-2.748.026-.092c.742-2.549,1.485-5.1,2.207-7.661.486-1.723,1.033-3.46,1.551-5.089l.042-.138c.232-.748.476-1.507.738-2.249l.278-.8c.182-.52.364-1.041.562-1.551,1.226-3.185,2.576-6.589,4.137-9.869l.517-1.092c1.317-2.773,2.636-5.548,3.97-8.3l.223-.464c.293-.61.585-1.219.9-1.813.448-.865.9-1.731,1.367-2.59s.84-1.559,1.261-2.278c.3-.522.629-1.034.954-1.547l.268-.422c1.828-2.9,3.8-5.755,5.542-8.278l.214-.309c.515-.744,1.024-1.486,1.557-2.213q.812-1.113,1.63-2.209c1.03-1.377,1.965-2.616,2.97-3.789,2.356-2.736,4.594-5.234,6.843-7.642l1.262-1.34c.661-.7,1.321-1.4,1.974-2.11l.479-.526c.863-.945,1.915-2.1,2.97-3.129l.278-.279c.256-.258.5-.5.746-.721l.978-.883a23.339,23.339,0,0,1,1.935-1.559c1.636-1.2,2.919-2.083,4.161-2.857a17.84,17.84,0,0,1,1.972-1.1l.43-.21c.29-.136.583-.276.874-.4l.336-.153c.262-.115.534-.237.813-.342l.362-.136.111-.042a7.606,7.606,0,0,1,.738-.264l1.165-.358c.254-.078.516-.139.78-.193l.431-.092c.273-.063.555-.1.837-.145l.318-.052a21.65,21.65,0,0,1,2.386-.22l.109-.005h.094l.26-.006c.2,0,.4.008.6.019h.336a13.8,13.8,0,0,1,2.953.448,14.291,14.291,0,0,1,3.227,1.348,10.4,10.4,0,0,1,2.517,2.01,16.216,16.216,0,0,1,1.967,2.643l.121.2a8.807,8.807,0,0,1,.574,1.065,12.712,12.712,0,0,1,.589,1.585,17.67,17.67,0,0,1,.491,4.127c.02.488.023.978.027,1.469,0,.356-.015.71-.034,1.077l-.017.3c-.018.325-.058.647-.095.962l-.043.377c-.022.207-.059.425-.1.631l-.069.423c-.022.158-.047.336-.081.5l-.1.5c-.151.742-.291,1.427-.482,2.1l-.1.344c-.2.7-.415,1.5-.7,2.272-.343.918-.7,1.823-1.064,2.722-.256.631-.532,1.25-.809,1.868l-.218.488c-.785,1.761-1.469,3.176-2.151,4.452l-.125.239c-.371.7-.752,1.409-1.181,2.1-.494.792-.989,1.576-1.494,2.358-.84,1.312-1.742,2.618-2.535,3.772l-.191.273c-.974,1.423-1.958,2.8-2.872,4.062l-1.059,1.515c-1.338,1.9-2.852,4.054-4.283,6.175q-1.055,1.569-2.1,3.139l-1.155,1.724c-.653.972-1.305,1.938-1.931,2.919l-.127.195c-.874,1.377-1.754,2.763-2.578,4.146-.18.3-.358.6-.541.9l-.735,1.212c-.474.794-.937,1.6-1.4,2.414-1.428,2.53-2.969,5.393-4.845,8.994l-.207.4c-.289.559-.574,1.113-.857,1.672-.411.822-.806,1.658-1.2,2.492-.766,1.644-1.484,3.144-2.194,4.584-.756,1.539-1.523,3.069-2.289,4.592q-1.2,2.38-2.38,4.767c-.675,1.368-1.37,2.883-2.127,4.625-.163.373-.319.746-.476,1.122l-.454,1.079c-.143.337-.288.673-.433,1.012l-.559,1.283c-.694,1.622-1.386,3.244-2.106,4.863l-.158.35c-.637,1.439-1.3,2.919-1.917,4.4-.769,1.981-1.551,3.989-2.318,6,.561-.826,1.127-1.627,1.673-2.4.651-.914,1.319-1.8,1.988-2.7l1.519-2.058c.124-.169.236-.327.347-.488l.2-.273c.324-.469.655-.934.994-1.389l.07-.09c.52-.688,1.041-1.379,1.568-2.059.6-.769,1.213-1.526,1.823-2.284l.267-.327.055-.073c.326-.4.653-.812.976-1.222.15-.185.3-.369.436-.556l.082-.1c.3-.386.612-.782.936-1.155.6-.69,1.2-1.363,1.805-2.029.56-.608,1.109-1.195,1.706-1.746s1.19-1.1,1.79-1.658c.136-.128.27-.247.4-.365s.273-.239.4-.358l.277-.258c.207-.195.421-.394.641-.585.55-.49,1.3-1.136,2.151-1.769a13.821,13.821,0,0,1,1.988-1.307,25.16,25.16,0,0,1,2.365-1.069c.856-.329,1.563-.583,2.232-.8a13.223,13.223,0,0,1,2.288-.511,19.324,19.324,0,0,1,2.193-.16h.153a10.976,10.976,0,0,1,2.467.369c.39.1.779.229,1.18.367a6.973,6.973,0,0,1,2.062,1.031,8.165,8.165,0,0,1,1.307,1.283,8.451,8.451,0,0,1,1,1.444,10,10,0,0,1,1,3.075c.08.553.137,1.1.174,1.637l.009.176a10.8,10.8,0,0,1,.015,1.771,15.657,15.657,0,0,1-.931,4.016,13.83,13.83,0,0,1-1.576,3.047c-.3.436-.627.855-1,1.333,0,.008-.1.128-.106.136-.161.206-.338.4-.513.6,0,0-.08.088-.082.094l-.256.281c-.17.2-.368.4-.564.6l-.262.277c-.922.964-1.827,1.956-2.731,2.945l-.53.578c-.7.763-1.379,1.533-2.066,2.308l-1.149,1.293q-1.7,1.911-3.416,3.785a47.037,47.037,0,0,0-3.006,3.715l-.914,1.226c-.677.917-1.339,1.811-1.993,2.7-.356.509-.719,1.025-1.079,1.549Zm-115.259-7.9.445.541c.432.518.862,1.017,1.3,1.515l.158.183c.267.308.532.616.792.924.917,1.082,1.843,2.153,2.765,3.226l2.655,3.079c.627.735,1.251,1.467,1.859,2.224.243.3.479.614.715.928.165.224.287.388.408.545.336.442.671.882,1,1.327,1.308,1.744,2.709,3.573,4.544,5.927.988,1.27,1.971,2.6,2.9,3.876h-2.6c-.586-.793-1.182-1.581-1.778-2.348-1.845-2.366-3.255-4.2-4.573-5.967-.325-.438-.658-.872-.988-1.3-.133-.174-.261-.346-.389-.524-.251-.333-.471-.63-.7-.909-.6-.742-1.209-1.453-1.822-2.168l-2.642-3.076c-.935-1.08-1.864-2.157-2.785-3.245-.255-.3-.516-.6-.777-.909l-.154-.179-.325-.373v-3.3Z" fill="#fff"/>
        <g id="Group_2047" data-name="Group 2047" transform="translate(68.739 27)">
          <path id="Path_2340" data-name="Path 2340" d="M2046,1080.87q-.447-1.623-.876-3.251a1.292,1.292,0,0,1,.085-.9,1.026,1.026,0,0,1,.623-.547.931.931,0,0,0,.281-.135c.029-.023.058-.043.082-.066a1.021,1.021,0,0,1,.215-.154l.308-.169c.122-.065.236-.136.346-.2a8.492,8.492,0,0,0,1.2-.915,23.313,23.313,0,0,0,2.4-2.429,14.591,14.591,0,0,0,.92-1.226c2.084-3.085,2.383-6.019,1.775-7.442a1.211,1.211,0,0,0-1.15-.868c-.564,0-2.132.363-4.473,3.745-.614.893-1.192,1.88-1.752,2.83l-.219.377c-.221.379-.445.757-.662,1.142a.954.954,0,0,1-.993.514,1.061,1.061,0,0,1-.811-.837c-.207-.905-.415-1.815-.62-2.724-.194-.87-.394-1.738-.594-2.607a1.244,1.244,0,0,1,.363-1.21.739.739,0,0,0,.1-.1,1.206,1.206,0,0,1,.164-.171,3.541,3.541,0,0,0,.625-.746c.358-.51.687-1.078.991-1.621a19.761,19.761,0,0,0,1.308-2.9,29.133,29.133,0,0,0,1.058-3.394c.13-.526.236-1.062.336-1.593.245-1.289.215-2.986-.688-3.542a1.588,1.588,0,0,0-1.838.275,7.38,7.38,0,0,0-.646.662,2.823,2.823,0,0,0-.2.279c-.084.13-.166.262-.239.394l-.15.243a26.387,26.387,0,0,0-1.4,2.569c-.205.43-.392.868-.572,1.313a1,1,0,0,1-.953.662,1.019,1.019,0,0,1-.9-.761q-.444-1.428-.921-2.846-.408-1.188-.832-2.362a1.25,1.25,0,0,1,.319-1.35,3.043,3.043,0,0,0,.578-.633,8.674,8.674,0,0,0,.732-1.394c.48-1.161.882-2.36,1.313-3.7l.092-.285a17.277,17.277,0,0,0,.888-3.5,6.265,6.265,0,0,0-.019-1.924,1.592,1.592,0,0,0-.935-1.247c-.4-.107-.775.042-1.282.507a.843.843,0,0,1-.187.13,1.206,1.206,0,0,0-.323.264,4.085,4.085,0,0,0-.306.39c-.079.111-.158.232-.239.352-.192.3-.375.6-.553.9a19.166,19.166,0,0,0-.9,1.849l-.078.174c-.172.39-.333.788-.488,1.188a1.013,1.013,0,0,1-.905.677h-.005a1,1,0,0,1-.908-.662c-.427-1.052-.917-2.272-1.362-3.488q-.725-2-1.417-4a1.3,1.3,0,0,1,.047-.966,1.011,1.011,0,0,1,.675-.579l.09-.025a1.7,1.7,0,0,0,.57-.361.7.7,0,0,1,.146-.11,1.523,1.523,0,0,0,.4-.359,7.166,7.166,0,0,0,.391-.606l.148-.247c.258-.423.49-.864.721-1.306l.05-.094q.819-1.56,1.6-3.15a18.151,18.151,0,0,0,1.381-4.012,12.077,12.077,0,0,0,.23-1.979,3.343,3.343,0,0,0-.306-1.611,1.42,1.42,0,0,0-.85-.79,1.576,1.576,0,0,0-.7,0,2.1,2.1,0,0,0-.6.346,7.931,7.931,0,0,0-1.136,1.414c-.334.512-.644,1.069-.935,1.6-.629,1.132-1.1,2.069-1.486,2.952-.4.922-.761,1.85-1.06,2.638a1,1,0,0,1-.915.688h-.012a1.007,1.007,0,0,1-.913-.717c-.339-.954-.653-1.78-.965-2.526a1.158,1.158,0,0,0-.145-.238,1.247,1.247,0,0,1-.242-.979.892.892,0,0,0-.01-.334c-.179-.777-.28-1.559-.38-2.312q-.054-.423-.113-.842a14.558,14.558,0,0,0-.939-3.278c-1.8-4.483-3.69-6.076-4.76-6.076a1.045,1.045,0,0,0-.937.671c-.6,1.129-.709,3.73.943,7.342a26.8,26.8,0,0,0,1.85,3.307,19.616,19.616,0,0,0,1.709,2.383,9.527,9.527,0,0,0,.7.681l.1.088a1.113,1.113,0,0,1,.321.537c.023.069.046.146.075.23.082.239.17.493.25.744l.683,2.132a1.271,1.271,0,0,1-.233,1.2.9.9,0,0,1-1.052.264c-.185-.08-.379-.151-.572-.224s-.373-.145-.554-.219l-.5-.209a13.342,13.342,0,0,0-1.82-.673,4.209,4.209,0,0,0-2.2-.163,2.8,2.8,0,0,0-1.245.79,3.881,3.881,0,0,0-.346.446,1.349,1.349,0,0,0-.162.3l-.11.625a2.526,2.526,0,0,0,.1.679c.12.249.239.48.367.7a5.376,5.376,0,0,0,.6.672,6.626,6.626,0,0,0,1.448,1.015,22.859,22.859,0,0,0,2.36,1.146,29.316,29.316,0,0,0,4.486,1.32,6.4,6.4,0,0,1,1.022.336.821.821,0,0,0,.3.059,1.04,1.04,0,0,1,.953.721c.184.528.369,1.052.558,1.578.5,1.383,1.064,2.773,1.607,4.121.218.538.436,1.079.651,1.618a1.274,1.274,0,0,1-.2,1.28.91.91,0,0,1-1.111.247,15.576,15.576,0,0,0-1.486-.664,7.035,7.035,0,0,0-2.513-.492c-2.407,0-4.03,1.435-4.032,2.777-.007,1.637,2.531,3.424,8.119,3.475h.467a17.319,17.319,0,0,1,2.18.109.741.741,0,0,1,.174.042,3.634,3.634,0,0,1,.5.211.4.4,0,0,0,.1.034,1.055,1.055,0,0,1,.736.708l.1.283c.509,1.514,1.028,3.119,1.636,5.054a1.266,1.266,0,0,1-.281,1.247.9.9,0,0,1-1.115.157q-.36-.207-.718-.4l-.187-.1a9.908,9.908,0,0,0-1.054-.531,15.817,15.817,0,0,0-3.2-.9,8.689,8.689,0,0,0-1.287-.129c-.106,0-.213-.007-.319-.007a1.937,1.937,0,0,0-1.41.382,3.294,3.294,0,0,0-.316.391,1.122,1.122,0,0,0-.159.355,2,2,0,0,0,.09,1.3,3.631,3.631,0,0,0,1.129,1.277,7.53,7.53,0,0,0,1.385.788l.12.057a31.722,31.722,0,0,0,2.974,1.207l.694.258c.677.251,1.382.513,2.067.714.574.162,1.159.306,1.743.438l.172.036a4.987,4.987,0,0,0,.759.14,1.037,1.037,0,0,1,.9.847q.248,1.073.486,2.15l.143.617q.222,1.005.456,2.016a1.251,1.251,0,0,1-.333,1.18.906.906,0,0,1-1.077.138,14.747,14.747,0,0,0-2.472-1.169,18.991,18.991,0,0,0-3.141-.807c-.554-.092-1.015-.147-1.451-.182a3.625,3.625,0,0,0-1.8.272,1.372,1.372,0,0,0-.49.48.845.845,0,0,0-.061.1,1.8,1.8,0,0,0-.176.4c-.02.119-.046.262-.07.408.005.162.015.323.026.485a2.357,2.357,0,0,0,.316.672,2.95,2.95,0,0,0,.342.436,7.272,7.272,0,0,0,1.5,1.226,12.268,12.268,0,0,0,2.867,1.31c.392.122.8.227,1.2.332l.188.052c1.017.262,2.04.465,3.274.69.3.056.6.1.908.146l.4.059c.177.033.336.067.494.1a.421.421,0,0,0,.107.01,1.555,1.555,0,0,1,.305.008,1.152,1.152,0,0,1,.911.81c.118.439.238.873.358,1.305l.642,2.281h-2.1l-.446-1.575c-.051-.2-.106-.4-.16-.593-.143-.027-.271-.056-.4-.079l-.365-.055c-.323-.046-.647-.1-.966-.157-1.268-.231-2.331-.442-3.4-.721l-.193-.052c-.423-.111-.85-.222-1.27-.354a14.215,14.215,0,0,1-3.3-1.5,9.422,9.422,0,0,1-1.909-1.562,5.155,5.155,0,0,1-.583-.75,4.287,4.287,0,0,1-.7-1.828c-.02-.232-.031-.482-.039-.735a1.256,1.256,0,0,1,.019-.294l.1-.555a4.043,4.043,0,0,1,.413-1.076c.044-.092.109-.2.178-.312a3.446,3.446,0,0,1,1.38-1.249,5.5,5.5,0,0,1,2.639-.415c.485.036,1,.1,1.6.2a21.356,21.356,0,0,1,3.439.887c.278.1.562.207.849.331l-.078-.356q-.156-.693-.316-1.39c-.1-.025-.2-.046-.294-.069l-.163-.034c-.618-.14-1.237-.289-1.853-.467-.752-.22-1.482-.493-2.188-.755l-.685-.253a33.79,33.79,0,0,1-3.146-1.277l-.114-.057a9.168,9.168,0,0,1-1.743-1.01,5.547,5.547,0,0,1-1.793-2.158,4.546,4.546,0,0,1-.242-2.834,3.428,3.428,0,0,1,.507-1.2,5.133,5.133,0,0,1,.559-.7,3.639,3.639,0,0,1,2.764-.992c.133,0,.261.005.387.011a10.421,10.421,0,0,1,1.548.157,18.316,18.316,0,0,1,3.525.989c-.251-.775-.492-1.505-.728-2.213-.048-.021-.1-.038-.141-.059a17.115,17.115,0,0,0-1.867-.079h-.474c-7.461-.071-10.109-3.03-10.1-5.776.01-2.834,2.658-5.057,6.03-5.057a8.467,8.467,0,0,1,2.492.387c-.438-1.092-.88-2.207-1.285-3.332-.117-.321-.233-.65-.348-.975a2.979,2.979,0,0,1-.314-.107,4.622,4.622,0,0,0-.741-.245,31.309,31.309,0,0,1-4.749-1.408,24.364,24.364,0,0,1-2.552-1.235,8.586,8.586,0,0,1-1.871-1.331,7.337,7.337,0,0,1-.875-.991.723.723,0,0,1-.055-.082,8.538,8.538,0,0,1-.5-.951,4.615,4.615,0,0,1-.339-1.987,1.221,1.221,0,0,1,.018-.156l.13-.721a3.256,3.256,0,0,1,.516-1.2,5.806,5.806,0,0,1,.569-.734,4.718,4.718,0,0,1,2.094-1.341,5.97,5.97,0,0,1,3.171.142,12.864,12.864,0,0,1,1.684.6c-.059-.182-.124-.366-.183-.545l-.005-.012a9.764,9.764,0,0,1-.727-.728,21.09,21.09,0,0,1-1.916-2.659,29.258,29.258,0,0,1-2.005-3.59c-1.731-3.78-2.062-7.368-.887-9.6a3.019,3.019,0,0,1,2.648-1.773c2.289,0,4.686,2.7,6.572,7.409a16.884,16.884,0,0,1,1.094,3.854c.042.292.082.587.12.877.1.729.186,1.417.338,2.073a3.706,3.706,0,0,1,.087.785,2.782,2.782,0,0,1,.174.355c.038.09.078.184.118.276.052-.129.107-.257.165-.387.415-.954.92-1.962,1.587-3.157.308-.561.644-1.161,1.021-1.739a10.079,10.079,0,0,1,1.465-1.8,3.788,3.788,0,0,1,1.192-.734,3.136,3.136,0,0,1,1.652-.119,3.334,3.334,0,0,1,2.276,1.857,5.827,5.827,0,0,1,.6,2.959,14.694,14.694,0,0,1-.289,2.4,20.429,20.429,0,0,1-1.576,4.565q-.79,1.621-1.628,3.215l-.049.092c-.255.484-.512.973-.794,1.438l-.138.224a8.473,8.473,0,0,1-.549.843,3.605,3.605,0,0,1-.874.807c-.109.092-.216.176-.321.254q.51,1.47,1.042,2.928c.151.41.3.813.455,1.217a14.792,14.792,0,0,1,.689-1.343c.193-.338.4-.671.613-1,.089-.136.179-.266.269-.4a6.623,6.623,0,0,1,.44-.562,4.971,4.971,0,0,1,3.685-1.536,3.707,3.707,0,0,1,2.418,2.949,8.689,8.689,0,0,1,.058,2.72,19.391,19.391,0,0,1-1,4.037l-.091.273c-.451,1.391-.866,2.642-1.384,3.889a11.251,11.251,0,0,1-.932,1.778,4.29,4.29,0,0,1-.377.495c.2.549.383,1.1.57,1.647.058.163.111.327.165.494.377-.739.732-1.364,1.09-1.936l.134-.22c.092-.151.185-.3.281-.451a5.082,5.082,0,0,1,.348-.48,8.089,8.089,0,0,1,.765-.794l.066-.065a3.419,3.419,0,0,1,4.055-.522c1.877,1.159,2.1,3.88,1.691,6.041-.107.572-.224,1.148-.361,1.72a31.694,31.694,0,0,1-1.15,3.693,22.231,22.231,0,0,1-1.467,3.238c-.332.589-.7,1.214-1.1,1.8a7.268,7.268,0,0,1-.725.909q.221.963.44,1.937c.017.077.036.159.056.245.474-.807.965-1.622,1.505-2.4,2.637-3.816,4.739-4.615,6.035-4.615a3.2,3.2,0,0,1,2.945,2.147c1.1,2.573.316,6.438-1.992,9.855a15.5,15.5,0,0,1-1.071,1.418,25.639,25.639,0,0,1-2.613,2.654,10.649,10.649,0,0,1-1.42,1.081c-.2.118-.332.2-.472.279l-.236.128c-.019.019-.042.034-.064.052q.32,1.192.645,2.377c.05-.077.1-.155.148-.232a10.783,10.783,0,0,1,3.008-3.167l.088-.059a7.041,7.041,0,0,1,1.7-.889,4.39,4.39,0,0,1,1.069-.2l.136-.008a3.06,3.06,0,0,1,1.35.381l.134.063a3.607,3.607,0,0,1,1.374,1.448,5.924,5.924,0,0,1,.364.858,6.074,6.074,0,0,1,.142,2.4h-2.033v-.013a3.647,3.647,0,0,0,.011-1.628,4.817,4.817,0,0,0-.212-.476,2.087,2.087,0,0,0-.422-.484l-.12-.055a1.561,1.561,0,0,0-.588-.2,2.794,2.794,0,0,0-.683.127,5.276,5.276,0,0,0-1.234.669l-.087.055a8.106,8.106,0,0,0-2.02,2.01Zm-8.548,0h.005a4.59,4.59,0,0,1,1.069-.114l.209.008a5.293,5.293,0,0,1,.933.11Zm48.9,0c1.138-1.22,1.535-2.272,1.367-2.9-.14-.543-.795-.878-1.71-.878a7.247,7.247,0,0,0-3.922,1.5c-.314.218-.617.453-.914.7a.9.9,0,0,1-1.14.017,1.2,1.2,0,0,1-.436-.842,1.354,1.354,0,0,1,.025-.449l.1-.425c.009-.026.015-.051.023-.078l.088-.392.1.021a.607.607,0,0,1,.067-.084l-.144-.04a1.033,1.033,0,0,1,.024-.106l.159-.669c0-.006.024-.09.024-.094l.151-.627c0-.006.025-.1.027-.107a.294.294,0,0,0,.01-.038c.431-1.746.923-3.485,1.4-5.174l.5-1.772a.992.992,0,0,1,1.1-.781,6.762,6.762,0,0,0,1.136.079l.837-.01c1.036-.015,2.076-.046,3.11-.08a24.8,24.8,0,0,0,3.7-.419,8.355,8.355,0,0,0,1.625-.505,7.8,7.8,0,0,0,1.835-1.012,5.167,5.167,0,0,0,.615-.579l.157-.233c.025-.037.05-.073.077-.106a1.254,1.254,0,0,0,.275-.562.886.886,0,0,1,.035-.13,2.288,2.288,0,0,0-.169-1.748,2.909,2.909,0,0,0-1.96-1.155,13.428,13.428,0,0,0-1.476-.268,17.307,17.307,0,0,0-3.32-.187,11.678,11.678,0,0,0-1.347.174l-.229.038a15.866,15.866,0,0,0-1.607.319,7.008,7.008,0,0,0-.711.243.91.91,0,0,1-1.031-.281,1.275,1.275,0,0,1-.233-1.184c.924-3.023,2.019-6.175,3.337-9.631a.991.991,0,0,1,1.079-.673c.135.027.273.057.409.086.338.077.672.157,1,.237.607.146,1.212.291,1.825.4a15.475,15.475,0,0,0,2.755.214h.477c4.92-.091,7.193-2.52,7.181-4.134-.011-1.586-2.229-3.3-6.991-3.081a21.891,21.891,0,0,0-3.3.353.951.951,0,0,1-.968-.437,1.274,1.274,0,0,1-.1-1.186l2.191-5.284c.577-1.394,1.205-2.837,1.922-4.4a.954.954,0,0,1,1.178-.564,9.913,9.913,0,0,0,1.466.369c1.153.21,2.348.352,3.466.476.334.037.671.083,1.011.123.674.086,1.312.168,1.954.2a13.151,13.151,0,0,0,2.294-.045,10.354,10.354,0,0,0,1.859-.442,5.846,5.846,0,0,0,2.044-1.282,2.728,2.728,0,0,0,.8-1.279,2.262,2.262,0,0,0-.123-1.641,3.363,3.363,0,0,0-1.636-1.272,9.849,9.849,0,0,0-3.045-.906,19.3,19.3,0,0,0-6.455.245.952.952,0,0,1-1-.477,1.3,1.3,0,0,1-.03-1.248c.424-.8.856-1.6,1.287-2.393.881-1.629,1.778-3.354,2.661-5.125.251-.5.506-.983.76-1.471a.94.94,0,0,1,1.2-.48,2.076,2.076,0,0,0,.279.092c.151.04.291.065.428.09l.5.1c.386.075.772.155,1.157.258.833.224,1.826.476,2.858.651a20.983,20.983,0,0,0,3.449.3c5.693,0,8.392-2.708,8.422-4.538.027-1.663-2.1-3.542-6.833-3.748l-.283-.013c-.621-.024-1.245-.054-1.866-.054a11.464,11.464,0,0,0-2.668.266c-.186.044-.371.093-.551.143a.934.934,0,0,1-1.059-.459,1.277,1.277,0,0,1,0-1.3c.511-.853,1.009-1.712,1.508-2.573l.657-1.145c.236-.417.476-.834.716-1.245.179-.3.351-.606.521-.916l.313-.574c.1-.166.178-.323.255-.484a1.506,1.506,0,0,1,.132-.317,9.4,9.4,0,0,0,.49-.918,1.057,1.057,0,0,1,.489-.524c.155-.077.31-.165.463-.245.344-.193.681-.4,1.017-.627q1.106-.753,2.2-1.544a14.4,14.4,0,0,0,2.132-1.872,7.24,7.24,0,0,0,1.235-1.922,8.16,8.16,0,0,0,.689-2.236c.057-.39.107-.79.129-1.182a6.885,6.885,0,0,0-.12-1.52,4.28,4.28,0,0,0-.4-1.138,2.162,2.162,0,0,0-1-.953,1.85,1.85,0,0,0-.653-.2,3.966,3.966,0,0,0-.877-.033,4.142,4.142,0,0,0-.852.2,8.883,8.883,0,0,0-1.335.591c-.064.034-.133.071-.2.113a6.573,6.573,0,0,0-1.994,2.113,16.2,16.2,0,0,0-1.368,2.609,35.855,35.855,0,0,0-1.342,3.9l-.1.32a14.888,14.888,0,0,0-.437,1.658l-.111.644c-.082.474-.165.945-.265,1.412a.9.9,0,0,0-.008.294,1.29,1.29,0,0,1-.149.828l-.211.375c-.118.212-.231.421-.35.616-.288.476-.573.958-.854,1.44l-.628,1.058c-.845,1.413-1.718,2.872-2.62,4.285a.938.938,0,0,1-1.137.417,1.135,1.135,0,0,1-.676-1.109v-.136a24.362,24.362,0,0,0-.16-3.469,16.507,16.507,0,0,0-.836-3.681c-.411-1.136-.921-2.387-1.765-2.789a1.329,1.329,0,0,0-1.171-.007,1.474,1.474,0,0,0-.187.095,1.563,1.563,0,0,0-.423.394,2.93,2.93,0,0,0-.344.6l-.066.134a4.452,4.452,0,0,0-.19.652l-.025.1c-.063.264-.109.518-.146.784a11.862,11.862,0,0,0-.019,2.475,21.032,21.032,0,0,0,.627,3.289c.142.578.343,1.159.517,1.657.206.589.468,1.163.744,1.771.185.409.371.816.541,1.233.133.327.258.649.383.972.1.265.206.531.315.795a1.386,1.386,0,0,1,.06.207,1.416,1.416,0,0,0,.219.545,1.281,1.281,0,0,1,.085,1.325q-.792,1.5-1.559,3.026c-.719,1.419-1.484,2.823-2.222,4.178-.366.67-.729,1.339-1.091,2.014l-.107.2a.955.955,0,0,1-.992.534,1.056,1.056,0,0,1-.821-.834c-.061-.256-.123-.516-.2-.77-.3-1.1-.616-2.2-.927-3.3l-.1-.341c-.134-.472-.283-.945-.436-1.411a8.442,8.442,0,0,0-.47-1.083l-.117-.241a2.89,2.89,0,0,0-1.131-1.1,2.185,2.185,0,0,0-1.053-.2,3.167,3.167,0,0,0-.354.013,1.2,1.2,0,0,0-.549.182,1.653,1.653,0,0,0-.475.442,3.486,3.486,0,0,0-.531,1.719,15.069,15.069,0,0,0,.587,4.676,18.97,18.97,0,0,0,1.322,3.439,21.665,21.665,0,0,0,1.561,2.782c.269.4.556.779.843,1.155l.139.184a1.281,1.281,0,0,1,.125,1.285c-1.475,3.194-2.852,6.529-4.183,9.752l-.7,1.7a.926.926,0,0,1-.935.65,1.016,1.016,0,0,1-.9-.723c-.061-.178-.122-.357-.189-.533l-.268-.75c-.212-.593-.413-1.155-.644-1.7-.257-.6-.511-1.184-.8-1.716-.1-.183-.2-.344-.3-.508a3.291,3.291,0,0,0-1.111-1.1,1.536,1.536,0,0,0-1.508.071,1.333,1.333,0,0,0-.259.2,3.46,3.46,0,0,0-.746,1.13,4.721,4.721,0,0,0-.208,1.861,9.739,9.739,0,0,0,.243,1.625,12.887,12.887,0,0,0,.455,1.677,11.812,11.812,0,0,0,.965,2.02,18.1,18.1,0,0,0,1.528,2.188l.123.159a13.656,13.656,0,0,1,1.251,1.761,1.433,1.433,0,0,1,.18,1.253l-.043.109c-.826,2.17-1.635,4.467-2.471,7.007q-.4,1.211-.775,2.429a1.024,1.024,0,0,1-.925.763,1,1,0,0,1-.945-.727c-.081-.237-.166-.469-.258-.706a11.785,11.785,0,0,0-1.625-2.968,7.436,7.436,0,0,0-1.549-1.62,2.713,2.713,0,0,0-1.441-.615c-.242,0-.443.08-.618.487-.7,1.568-.076,5.506,1.8,8.425.376.594.771,1.166,1.166,1.742l1.205,1.778a8.413,8.413,0,0,0,.541.7,1.27,1.27,0,0,1,.224,1.134l-.174.622-.855,3.06c-.524,1.851-1,3.662-1.4,5.385a1.858,1.858,0,0,0-.053.224c-.094.41-.17.744-.244,1.087a1.053,1.053,0,0,1-.85.852.97.97,0,0,1-1-.6c-.219-.478-.449-.949-.682-1.419-2.012-4.074-3.986-5.527-5.164-5.527a1.2,1.2,0,0,0-1.147.86c-.5,1.234-.171,3.619,1.694,6.157a28.934,28.934,0,0,0,2.3,2.832l.2.21h-2.835c-.38-.472-.776-.988-1.2-1.57-2.589-3.534-2.717-6.758-1.97-8.593a3.2,3.2,0,0,1,2.955-2.183c2.106,0,4.405,2.065,6.4,5.712.325-1.321.7-2.718,1.1-4.137.285-1.009.57-2.025.853-3.037-.094-.118-.183-.244-.268-.371l-1.2-1.763c-.405-.595-.815-1.189-1.207-1.8-2.2-3.435-3.085-8.289-1.966-10.815.847-1.923,2.71-2.316,4.883-.79a9.37,9.37,0,0,1,2,2.054,12.941,12.941,0,0,1,1.187,1.855c.778-2.364,1.537-4.523,2.309-6.575-.25-.385-.546-.758-.853-1.144l-.129-.161a20.774,20.774,0,0,1-1.712-2.459,14.278,14.278,0,0,1-1.156-2.435,15,15,0,0,1-.537-1.983,11.449,11.449,0,0,1-.3-2.111,6.88,6.88,0,0,1,.42-2.963,5.823,5.823,0,0,1,1.209-1.807,3.4,3.4,0,0,1,.646-.505,3.333,3.333,0,0,1,3.424-.042,5.462,5.462,0,0,1,1.758,1.771c.126.2.248.409.365.624.336.617.615,1.258.9,1.916.107.25.2.5.3.748,1.163-2.815,2.362-5.7,3.643-8.515-.208-.281-.412-.56-.608-.851a24.433,24.433,0,0,1-1.733-3.083,21.278,21.278,0,0,1-1.486-3.9,17.413,17.413,0,0,1-.658-5.5,5.832,5.832,0,0,1,.98-2.994,3.762,3.762,0,0,1,1.086-1.007,3.017,3.017,0,0,1,1.381-.446c.145-.008.295-.011.451-.011a3.827,3.827,0,0,1,1.957.451,4.957,4.957,0,0,1,1.969,2.027l.113.226a10.238,10.238,0,0,1,.6,1.411c.162.5.315.991.46,1.492l.1.346c.164.585.331,1.165.5,1.752.015-.033.031-.059.046-.094.733-1.339,1.488-2.727,2.188-4.11q.625-1.239,1.268-2.469a4.245,4.245,0,0,1-.2-.617c-.1-.245-.191-.492-.288-.737-.119-.312-.238-.617-.364-.927-.159-.385-.332-.767-.5-1.148-.285-.629-.582-1.279-.826-1.972-.193-.552-.413-1.2-.586-1.887a22.666,22.666,0,0,1-.691-3.706,14.09,14.09,0,0,1,.034-3.043,10.461,10.461,0,0,1,.195-1.041l.023-.093a5.7,5.7,0,0,1,.379-1.174l.06-.125a5.124,5.124,0,0,1,.628-1.044,3.65,3.65,0,0,1,.948-.851,4.228,4.228,0,0,1,.385-.2,3.113,3.113,0,0,1,2.671.025c1.679.8,2.435,2.9,2.842,4.026a19.316,19.316,0,0,1,.972,4.247c.019.182.042.362.058.538.307-.505.608-1.01.908-1.509l.618-1.046c.288-.492.576-.983.871-1.469.1-.17.2-.35.3-.534l.039-.07a3.45,3.45,0,0,1,.074-.741c.092-.434.168-.876.247-1.312l.117-.665a16.233,16.233,0,0,1,.505-1.951l.095-.315a39.023,39.023,0,0,1,1.44-4.166,19.429,19.429,0,0,1,1.569-2.979,8.8,8.8,0,0,1,2.646-2.743c.1-.061.2-.12.312-.176a10.532,10.532,0,0,1,1.609-.7,5.5,5.5,0,0,1,1.235-.283,5.3,5.3,0,0,1,1.27.037,3.543,3.543,0,0,1,1.191.355,4.27,4.27,0,0,1,1.98,1.965,6.611,6.611,0,0,1,.62,1.835,9.85,9.85,0,0,1,.149,2.068c-.031.514-.1,1.023-.152,1.407a10.645,10.645,0,0,1-.891,2.934,9.713,9.713,0,0,1-1.643,2.528,16.2,16.2,0,0,1-2.434,2.141c-.743.537-1.494,1.067-2.25,1.575-.414.283-.8.517-1.167.721-.07.04-.14.075-.211.113-.118.234-.243.457-.365.668-.01.025-.017.051-.026.078l-.035.084c-.119.251-.24.492-.377.727l-.3.555c-.18.325-.36.652-.552.973-.234.4-.467.809-.7,1.215l-.668,1.158-.239.417a28.727,28.727,0,0,1,3.292,0l.283.012c6.527.286,8.795,3.453,8.752,6.081-.056,3.372-3.652,6.784-10.418,6.784a22.715,22.715,0,0,1-3.737-.327c-1.1-.188-2.155-.455-3.035-.691-.342-.091-.687-.164-1.032-.231l-.486-.1c-.086-.017-.17-.034-.253-.049-.122.235-.241.466-.362.707-.891,1.783-1.8,3.531-2.694,5.185-.058.109-.114.218-.178.323a21.723,21.723,0,0,1,4.906.067,11.675,11.675,0,0,1,3.594,1.073,5.178,5.178,0,0,1,2.579,2.211,4.859,4.859,0,0,1,.293,3.553,5.12,5.12,0,0,1-1.438,2.328,7.71,7.71,0,0,1-2.721,1.684,11.622,11.622,0,0,1-2.188.522,14.874,14.874,0,0,1-2.617.058c-.709-.031-1.414-.124-2.1-.212-.325-.041-.649-.083-.978-.117-1.151-.128-2.381-.277-3.587-.5-.285-.056-.6-.115-.927-.2-.553,1.233-1.055,2.39-1.523,3.521l-1.41,3.4c.582-.054,1.156-.088,1.7-.115,6.7-.307,9.052,2.752,9.071,5.349.025,3.118-3.111,6.329-9.145,6.446h-.51a17.1,17.1,0,0,1-3.059-.24c-.646-.115-1.287-.27-1.93-.421-.19-.048-.381-.094-.571-.138-.88,2.337-1.653,4.535-2.339,6.652.267-.052.531-.1.789-.136l.221-.039a14.387,14.387,0,0,1,1.543-.195,18.821,18.821,0,0,1,3.643.2,15.214,15.214,0,0,1,1.668.3,4.665,4.665,0,0,1,3.263,2.234,4.863,4.863,0,0,1,.332,3.651,3.681,3.681,0,0,1-.719,1.49l-.174.26a.866.866,0,0,1-.1.136,7.461,7.461,0,0,1-.933.878,9.753,9.753,0,0,1-2.286,1.271,10.265,10.265,0,0,1-1.975.61,26.877,26.877,0,0,1-3.951.448q-1.57.051-3.146.076h-.289c-.356.006-.7.017-1.149-.005l-.253.9c-.461,1.637-.936,3.328-1.356,5.009a7.974,7.974,0,0,1,3.813-1.113,3.493,3.493,0,0,1,3.624,2.5,4.691,4.691,0,0,1-.654,3.557Z" fill="#fff"/>
        </g>
      </g>
    </g>
    <path id="Path_2407" data-name="Path 2407" d="M-616.986,439.629h-1932V231.691a82.705,82.705,0,0,1,7.863,17.336,124.306,124.306,0,0,1,4.234,16.9,128.865,128.865,0,0,1,2.045,17.892,44.834,44.834,0,0,1,3.286-5.763,91.694,91.694,0,0,1-.291-19.586c.426-5.15,1.087-9.041,1.161-9.468.333-.016.685-.023,1.108-.023a41.605,41.605,0,0,1,14.216,2.685,62.17,62.17,0,0,1,11.836,5.906,70.684,70.684,0,0,1,11.1,8.591,126.433,126.433,0,0,1-1.966-19.93,109.68,109.68,0,0,1,.769-15.231,68.709,68.709,0,0,1,2.722-13.151c5.952.235,11.425,3.08,16.266,8.455,3.873,4.3,7.352,10.222,10.341,17.6a122.466,122.466,0,0,1,5.449,17.4c1.114,4.73,1.583,7.847,1.587,7.875,3.952-29.434,24.215-30.925,28.237-30.925.238,0,.458.005.655.016a92.353,92.353,0,0,1,2.622,10.859,57.339,57.339,0,0,1,11.176,7.38,65.955,65.955,0,0,1,12.123,13.525,114.4,114.4,0,0,1,2.731-18.944,87.252,87.252,0,0,1,4.226-13.3,47.211,47.211,0,0,1,5.585-10.422c9.279,8.618,13.609,24.324,15.608,35.982,7.345-9.786,15.87-16,25.336-18.455l.007.016a90.059,90.059,0,0,1,2.179,10.539,26.294,26.294,0,0,1,5.463-.592,17.05,17.05,0,0,1,3.662.336,72.929,72.929,0,0,1,1.2,13.9,92.633,92.633,0,0,1-1.011,12.778,59.506,59.506,0,0,1,13.979-3.353c-2.28-9.244-4.509-22.166-2.185-31.23h.008a33.2,33.2,0,0,1,6.609,5.515,42.636,42.636,0,0,1,5.567,7.314,44.792,44.792,0,0,1,4.668,10.72c-.887-8.8-.689-20.835,5.275-28.146h0a16.277,16.277,0,0,1,3.915,2.7,47.4,47.4,0,0,1,9.23,11.669,39.432,39.432,0,0,1,12-6.494v.022c.085.829.514,5.246.569,10.857.057,5.709-.265,13.928-2.118,20.665.284.94.575,1.98.808,2.815l.009.033.016.056.073.258v-.008a19.638,19.638,0,0,1,3.521-8.749,19.336,19.336,0,0,1,7.1-6.019,28.856,28.856,0,0,1,13.055-2.737,56.3,56.3,0,0,1,11.413,1.294v.008a49.822,49.822,0,0,1-1.257,6.374,47.692,47.692,0,0,1-5.435,13.028l7.172-.089a31.6,31.6,0,0,1,6.087-1.167,47.571,47.571,0,0,1-4.924-10.97,41.809,41.809,0,0,1-1.256-5.089,27.145,27.145,0,0,1,7.493-1.116,21.474,21.474,0,0,1,7.59,1.351,21.147,21.147,0,0,1,5.358,2.969,19.614,19.614,0,0,1,4.224,4.32,61.675,61.675,0,0,1,.976-11.906,51.349,51.349,0,0,1,2.366-8.664,32.493,32.493,0,0,1,3.509-7.081,34.8,34.8,0,0,1,6.764,10.413,60.847,60.847,0,0,1,3.621,11.39,76.4,76.4,0,0,1,1.726,12.939,24.777,24.777,0,0,1,1.835-3.213,60.483,60.483,0,0,1,.51-16.32c.232-.008.434-.012.619-.012a23.55,23.55,0,0,1,8.01,1.506,35.144,35.144,0,0,1,6.67,3.312,40.081,40.081,0,0,1,6.253,4.817,67.315,67.315,0,0,1-.676-19.82,38.29,38.29,0,0,1,1.533-7.419c3.406.136,6.53,1.785,9.288,4.9a24.6,24.6,0,0,1,13.422,4.064,116.218,116.218,0,0,1-1.683-16.745v-.01a46.411,46.411,0,0,1,16.139,12.7,22.227,22.227,0,0,1,6.5-4.807,36.521,36.521,0,0,1,4.819,14.124,28.737,28.737,0,0,1,2.594-1.525,41.621,41.621,0,0,1,6.114-6.831,31.474,31.474,0,0,1,5.415-3.889,18.812,18.812,0,0,1,5.349-2.152,77.155,77.155,0,0,1,.031,13.039,60.618,60.618,0,0,1-1.545,9.475,55.718,55.718,0,0,1,7.843,4.2c.162.018.3.036.448.058a65.456,65.456,0,0,1,.672-15.428,87.664,87.664,0,0,1,3.182-13.225,84.731,84.731,0,0,1,5.162-12.707v-.007c3.776,1.816,7.385,5.113,10.729,9.8a72.158,72.158,0,0,1,7.469,13.793,115.911,115.911,0,0,1,5.789,17.619c.428-1.04.891-2.033,1.373-2.951a86.946,86.946,0,0,1-7.655-17.419,103.47,103.47,0,0,1-4.549-25.085h.009a33.152,33.152,0,0,1,4.912-.322,39.007,39.007,0,0,1,18.588,4.52c8.227,4.507,13.981,12.129,17.1,22.653v-.028a136.67,136.67,0,0,1,1.754-19.7,63.428,63.428,0,0,1,4.11-14.8c2.147-4.853,4.828-7.995,7.968-9.338.125.122,3.052,3.055,5.784,10.239a72.777,72.777,0,0,1,3.736,14.793,127.6,127.6,0,0,1,1.2,23.019h0a29.688,29.688,0,0,1,5.542-3.373,72,72,0,0,1-2.69-10.136,47.851,47.851,0,0,1,13.17-1.954,37.851,37.851,0,0,1,13.533,2.441,37.531,37.531,0,0,1,9.555,5.37,34.652,34.652,0,0,1,7.534,7.811,109.527,109.527,0,0,1,1.733-21.131,91.464,91.464,0,0,1,4.2-15.373,58.509,58.509,0,0,1,6.229-12.565,61.831,61.831,0,0,1,12.006,18.48,107.907,107.907,0,0,1,6.425,20.21,137.735,137.735,0,0,1,3.06,22.964,44.41,44.41,0,0,1,3.287-5.763,91.633,91.633,0,0,1-.292-19.588c.454-5.5,1.155-9.437,1.162-9.473.352-.011.725-.017,1.108-.017a41.606,41.606,0,0,1,14.215,2.685,62.1,62.1,0,0,1,11.835,5.906,70.232,70.232,0,0,1,11.1,8.592,126.547,126.547,0,0,1-1.964-19.93,109.581,109.581,0,0,1,.77-15.232,68.659,68.659,0,0,1,2.722-13.15c5.953.235,11.425,3.079,16.266,8.454,3.873,4.3,7.352,10.219,10.341,17.6a122.393,122.393,0,0,1,5.449,17.4c1.075,4.564,1.566,7.741,1.586,7.874,3.95-29.431,24.212-30.922,28.233-30.922.24,0,.46.006.654.017a90.577,90.577,0,0,1,2.624,10.858,57.4,57.4,0,0,1,11.179,7.38,66,66,0,0,1,12.125,13.523,114.176,114.176,0,0,1,2.729-18.942,86.963,86.963,0,0,1,4.223-13.3,47.83,47.83,0,0,1,5.586-10.422c4.191,3.894,7.751,9.608,10.581,16.984a101.01,101.01,0,0,1,5.028,19c7.344-9.787,15.868-16,25.336-18.457l.007.016A91.21,91.21,0,0,1-1744.74,245a26.269,26.269,0,0,1,5.453-.591,17.3,17.3,0,0,1,3.669.339,72.723,72.723,0,0,1,1.208,13.9,92.584,92.584,0,0,1-1.01,12.776,59.916,59.916,0,0,1,13.978-3.352c-2.28-9.241-4.509-22.162-2.186-31.23h.008a33.2,33.2,0,0,1,6.609,5.515,42.715,42.715,0,0,1,5.566,7.314,44.814,44.814,0,0,1,4.667,10.723c-.886-8.808-.687-20.841,5.277-28.149a16.215,16.215,0,0,1,3.92,2.7,47.45,47.45,0,0,1,9.23,11.667,39.338,39.338,0,0,1,12-6.492.084.084,0,0,1,0,.026c.085.81.513,5.138.57,10.851s-.265,13.929-2.117,20.666c.264.87.521,1.785.77,2.671l.03.106.014.051.093.332v-.007a19.707,19.707,0,0,1,3.521-8.75,19.351,19.351,0,0,1,7.1-6.019,28.864,28.864,0,0,1,13.055-2.737,56.252,56.252,0,0,1,11.415,1.3v.012a49.145,49.145,0,0,1-1.259,6.369,47.72,47.72,0,0,1-5.438,13.027l7.175-.089a31.744,31.744,0,0,1,6.084-1.167,47.619,47.619,0,0,1-4.922-10.969,41.332,41.332,0,0,1-1.258-5.09,27.128,27.128,0,0,1,7.5-1.115,21.484,21.484,0,0,1,7.589,1.349,21.133,21.133,0,0,1,5.358,2.969,19.5,19.5,0,0,1,4.226,4.319,61.666,61.666,0,0,1,.975-11.906,51.485,51.485,0,0,1,2.365-8.662,32.882,32.882,0,0,1,3.508-7.081A34.8,34.8,0,0,1-1603.24,251a60.848,60.848,0,0,1,3.622,11.39,76.816,76.816,0,0,1,1.726,12.94,24.135,24.135,0,0,1,1.834-3.21c-1.04-7.462.493-16.238.509-16.323.207-.007.405-.01.624-.01a23.555,23.555,0,0,1,8.009,1.506,35.127,35.127,0,0,1,6.667,3.311,40.576,40.576,0,0,1,6.25,4.815,67.351,67.351,0,0,1-.673-19.818,38.346,38.346,0,0,1,1.532-7.418c3.406.136,6.53,1.784,9.288,4.9a24.632,24.632,0,0,1,13.422,4.064,117.189,117.189,0,0,1-1.683-16.754,46.374,46.374,0,0,1,16.14,12.7,21.976,21.976,0,0,1,6.5-4.807,36.331,36.331,0,0,1,4.33,11.18,30.212,30.212,0,0,1,.663,5.1,46.375,46.375,0,0,1,6.756-8.834,33.63,33.63,0,0,1,6.218-5,20.073,20.073,0,0,1,6.322-2.722,77.142,77.142,0,0,1,.037,12.973,60.932,60.932,0,0,1-1.527,9.452,35.308,35.308,0,0,1-2.73,7.742,11.366,11.366,0,0,1,8.64-3.578,22.5,22.5,0,0,1,8.771,2.037,22.07,22.07,0,0,1,2.533-.148,19.614,19.614,0,0,1,9.043,2.175,23.23,23.23,0,0,1,6.263,4.786,27.627,27.627,0,0,1,4.822,6.961,33.95,33.95,0,0,1,4.553-10.991,31.356,31.356,0,0,1,6.116-6.944A26.99,26.99,0,0,1-1451,257.8a27.512,27.512,0,0,1,1.881,7.345,43.772,43.772,0,0,1,13.664,4.328,52.56,52.56,0,0,1,5.991,3.431,65.2,65.2,0,0,1,.624-15.507,87.436,87.436,0,0,1,3.182-13.306,85.973,85.973,0,0,1,5.2-12.8c3.775,1.811,7.385,5.106,10.731,9.794a72.148,72.148,0,0,1,7.47,13.794,114.587,114.587,0,0,1,5.788,17.621c.416-1.012.878-2.005,1.373-2.952a86.921,86.921,0,0,1-7.654-17.419,103.452,103.452,0,0,1-4.549-25.085h.009a33.25,33.25,0,0,1,4.912-.322,39.021,39.021,0,0,1,18.588,4.518c8.226,4.508,13.98,12.13,17.1,22.654v-.027a136.739,136.739,0,0,1,1.754-19.7,63.517,63.517,0,0,1,4.109-14.8c2.147-4.853,4.828-7.994,7.968-9.337.125.122,3.056,3.065,5.783,10.238a72.837,72.837,0,0,1,3.736,14.793,127.543,127.543,0,0,1,1.194,23.019h0a29.226,29.226,0,0,1,5.546-3.371,73.275,73.275,0,0,1-2.688-10.136,47.777,47.777,0,0,1,13.167-1.956,37.843,37.843,0,0,1,13.534,2.441,37.544,37.544,0,0,1,9.555,5.369,34.763,34.763,0,0,1,7.535,7.811,109.546,109.546,0,0,1,1.732-21.13,91.144,91.144,0,0,1,4.2-15.371,57.668,57.668,0,0,1,6.229-12.565,61.8,61.8,0,0,1,12.006,18.479,107.89,107.89,0,0,1,6.426,20.21,136.526,136.526,0,0,1,3.059,22.962,45.156,45.156,0,0,1,3.284-5.761,91.594,91.594,0,0,1-.29-19.588c.46-5.578,1.156-9.437,1.163-9.473.359-.011.731-.017,1.107-.017a41.591,41.591,0,0,1,14.216,2.685,62.192,62.192,0,0,1,11.836,5.907,70.676,70.676,0,0,1,11.1,8.592,126.489,126.489,0,0,1-1.965-19.93,109.548,109.548,0,0,1,.77-15.231,70.381,70.381,0,0,1,2.722-13.151c5.954.235,11.425,3.08,16.265,8.455,3.873,4.3,7.352,10.22,10.342,17.6a122.511,122.511,0,0,1,5.448,17.4c1.106,4.694,1.582,7.842,1.586,7.873,3.952-29.433,24.215-30.923,28.237-30.923.333,0,.569.01.656.017a92.586,92.586,0,0,1,2.621,10.859,57.472,57.472,0,0,1,11.176,7.38,66.059,66.059,0,0,1,12.123,13.524,114.359,114.359,0,0,1,2.731-18.943,87.175,87.175,0,0,1,4.225-13.3,48.13,48.13,0,0,1,5.584-10.419c4.191,3.889,7.75,9.6,10.581,16.982a101,101,0,0,1,5.028,19c7.345-9.786,15.87-16,25.336-18.456l.005.016a89.335,89.335,0,0,1,2.179,10.539,26.275,26.275,0,0,1,5.457-.592,17.273,17.273,0,0,1,3.668.339,72.819,72.819,0,0,1,1.2,13.9,92.466,92.466,0,0,1-1.011,12.777,59.669,59.669,0,0,1,13.979-3.353c-2.28-9.241-4.509-22.162-2.185-31.229h.008a33.2,33.2,0,0,1,6.61,5.515,42.685,42.685,0,0,1,5.566,7.313,44.758,44.758,0,0,1,4.668,10.72c-.887-8.8-.691-20.835,5.274-28.145a16.224,16.224,0,0,1,3.92,2.7,47.371,47.371,0,0,1,9.23,11.669,39.422,39.422,0,0,1,12-6.5.017.017,0,0,1,0,.009v.017c.085.818.512,5.186.569,10.854.056,5.708-.265,13.927-2.118,20.665.258.856.513,1.762.759,2.639l.015.054.034.12.031.114.066.236v-.008a19.7,19.7,0,0,1,3.522-8.749,19.353,19.353,0,0,1,7.1-6.02,28.873,28.873,0,0,1,13.056-2.736,56.355,56.355,0,0,1,11.413,1.294v.012a49.074,49.074,0,0,1-1.258,6.37,47.8,47.8,0,0,1-5.437,13.027l7.173-.09a31.573,31.573,0,0,1,6.086-1.167,47.673,47.673,0,0,1-4.923-10.97,41.435,41.435,0,0,1-1.256-5.088,27.137,27.137,0,0,1,7.492-1.115,21.51,21.51,0,0,1,7.59,1.35,21.16,21.16,0,0,1,5.359,2.97,19.279,19.279,0,0,1,4.226,4.321,61.753,61.753,0,0,1,.975-11.907,51.443,51.443,0,0,1,2.366-8.663,32.508,32.508,0,0,1,3.508-7.082,34.828,34.828,0,0,1,6.764,10.413,60.84,60.84,0,0,1,3.62,11.39,76.822,76.822,0,0,1,1.726,12.94,25.2,25.2,0,0,1,1.835-3.212c-1.027-7.371.447-15.962.511-16.324.274-.007.464-.01.62-.01a23.544,23.544,0,0,1,8.009,1.506,35.169,35.169,0,0,1,6.669,3.312,40.679,40.679,0,0,1,6.252,4.816,67.307,67.307,0,0,1-.675-19.819,38.547,38.547,0,0,1,1.532-7.418c3.406.137,6.531,1.786,9.288,4.9a24.622,24.622,0,0,1,13.422,4.064,117.079,117.079,0,0,1-1.683-16.755,46.379,46.379,0,0,1,16.14,12.7,22.458,22.458,0,0,1,6.5-4.807A36.559,36.559,0,0,1-853.7,249.85a28.13,28.13,0,0,1,2.6-1.525,41.655,41.655,0,0,1,6.113-6.83,31.506,31.506,0,0,1,5.416-3.89,18.636,18.636,0,0,1,5.349-2.152,77.148,77.148,0,0,1,.031,13.039,60.8,60.8,0,0,1-1.545,9.475,56.074,56.074,0,0,1,7.844,4.2h.058c.1.012.25.029.39.05a65.453,65.453,0,0,1,.672-15.43,87.581,87.581,0,0,1,3.183-13.224,87.22,87.22,0,0,1,5.163-12.712c3.776,1.814,7.386,5.109,10.731,9.794a72.161,72.161,0,0,1,7.47,13.793,115.8,115.8,0,0,1,5.789,17.619c.431-1.046.894-2.039,1.373-2.951a86.889,86.889,0,0,1-7.655-17.418,103.513,103.513,0,0,1-4.55-25.085h.009a33.371,33.371,0,0,1,4.911-.322,39.028,39.028,0,0,1,18.589,4.519c8.226,4.508,13.98,12.13,17.1,22.654v-.027a136.923,136.923,0,0,1,1.755-19.7,63.478,63.478,0,0,1,4.109-14.8c2.146-4.851,4.828-7.993,7.97-9.337.124.12,3.034,3.008,5.784,10.238A72.817,72.817,0,0,1-741.3,224.62a127.61,127.61,0,0,1,1.193,23.019h0a29.529,29.529,0,0,1,5.538-3.369,71.37,71.37,0,0,1-2.691-10.136,47.87,47.87,0,0,1,13.17-1.954,37.857,37.857,0,0,1,13.534,2.441,37.558,37.558,0,0,1,9.555,5.37,35.3,35.3,0,0,1,7.535,7.812,109.576,109.576,0,0,1,1.733-21.131,91.267,91.267,0,0,1,4.2-15.373,57.541,57.541,0,0,1,6.229-12.565,61.807,61.807,0,0,1,12,18.479,107.865,107.865,0,0,1,6.426,20.212,135.815,135.815,0,0,1,3.06,22.963,44.488,44.488,0,0,1,3.287-5.764,91.525,91.525,0,0,1-.291-19.587c.419-5.082,1.039-8.77,1.16-9.457v-.016c.373-.012.746-.017,1.109-.017a41.615,41.615,0,0,1,14.215,2.684,62.212,62.212,0,0,1,11.834,5.907,71.884,71.884,0,0,1,11.1,8.59,126.585,126.585,0,0,1-1.963-19.929,109.945,109.945,0,0,1,.769-15.231,84.992,84.992,0,0,1,1.606-9.115V439.629ZM-2338.3,287.166h0c-.06.318-.121.6-.189.9-.091.413-.2.882-.294,1.5l2.173-.027a15.722,15.722,0,0,0-.954-1.355l-.013-.016-.006-.009-.01-.013c-.232-.3-.472-.619-.706-.977Zm602.035-10.436h0c-.056.3-.115.567-.173.829v.034l-.008.037v.016c-.084.382-.19.858-.3,1.481l2.175-.027a15.742,15.742,0,0,0-.975-1.383l-.01-.014c-.245-.32-.475-.623-.7-.973Zm670.965-2.564h0c-.059.312-.123.6-.188.9v.007c-.091.414-.195.882-.294,1.495l2.173-.026a15.841,15.841,0,0,0-.957-1.358l-.006-.009v-.005l-.027-.035c-.215-.282-.459-.6-.695-.964Z" transform="translate(4464 833.313)" fill="#595757" stroke="rgba(0,0,0,0)" stroke-width="1"/>
  </g>
</svg>
