<svg xmlns="http://www.w3.org/2000/svg" width="381.209" height="162.313" viewBox="0 0 381.209 162.313">
  <g id="main-title-coming" transform="matrix(0.999, -0.035, 0.035, 0.999, -204.008, -69.707)">
    <g id="Group_878" data-name="Group 878" transform="translate(197.035 86.265)">
      <g id="Group_860" data-name="Group 860" transform="translate(0 116.959)">
        <path id="Path_641" data-name="Path 641" d="M200.712,288.016a3.412,3.412,0,0,0,3.158-3.057c.032-1.709-1.749-3.219-3.848-3.2-2.322.019-2.782.92-2.979,3.231C196.9,286.635,198.708,288.038,200.712,288.016Z" transform="translate(-197.035 -281.757)" fill="#fff"/>
      </g>
      <g id="Group_877" data-name="Group 877" transform="translate(3.41)">
        <g id="Group_861" data-name="Group 861" transform="translate(32.684 49.576)">
          <path id="Path_642" data-name="Path 642" d="M563.575,220.829l-57.57-.329-237.07,20.044-11.571-42.631,285.252-28.784,19.006,14.625Z" transform="translate(-257.365 -169.129)" fill="#fff"/>
        </g>
        <g id="Group_862" data-name="Group 862" transform="translate(364.206 92.361)">
          <path id="Path_643" data-name="Path 643" d="M812.115,251.228c.669-.881,1.082-1.429,1.7-2.243.732.98,1.249,1.8,1.881,2.5,2.053,2.272,4.913,2.352,7.743.273a5.63,5.63,0,0,0,1.868-6.8c-1.473-4.232-8.672-5.941-11.2-2.413-1.318,1.838-1.847,4.366-2.593,6.639C811.364,249.648,811.842,250.355,812.115,251.228Zm6.946-6.5c1.368-.05,2.961.124,3.416,1.737.514,1.812-.9,2.5-2.329,3.149l-2.851-4.04C817.909,245.263,818.475,244.747,819.061,244.726Z" transform="translate(-811.487 -240.643)" fill="#fff"/>
        </g>
        <g id="Group_863" data-name="Group 863" transform="translate(238.605)">
          <path id="Path_644" data-name="Path 644" d="M624.648,120.222c-1.226,0-2.7-.807-4.655-2.124h0a44.486,44.486,0,0,0-4.926-2.735c-1.46-.732-2.969-1.487-4.393-2.378-2.221-1.387-4.356-3-5.915-4.178-.571-.432-1.076-.814-1.5-1.118a.722.722,0,0,1-.205-.229c-2.833-4.983-1.078-7.529.471-9.777l.281-.409c1.831-2.694,4.1-5,8.279-3.651,5.277,1.7,5.278,1.7,8.268-3.289l.059-.1a8.035,8.035,0,0,1,6.016-3.921,8.739,8.739,0,0,1,7.286,2.777c2.435,2.553,1.834,5.463,1.039,7.714q-1.142,3.232-2.292,6.464-1.286,3.62-2.567,7.243l-.331.929c-.4,1.113-.812,2.264-1.12,3.413-.777,2.9-1.5,4.682-2.924,5.213A2.47,2.47,0,0,1,624.648,120.222Zm-20.41-13.611c.4.293.869.647,1.392,1.042,1.537,1.162,3.643,2.753,5.809,4.106,1.367.854,2.845,1.6,4.275,2.312A45.584,45.584,0,0,1,620.8,116.9h0c1.684,1.133,3.36,2.138,4.212,1.816.883-.33,1.524-2.326,2.036-4.233.323-1.206.746-2.386,1.155-3.526l.328-.922q1.281-3.626,2.569-7.247,1.148-3.231,2.291-6.461c1-2.838.795-4.644-.72-6.233a7.292,7.292,0,0,0-6.08-2.339,6.6,6.6,0,0,0-4.936,3.227l-.059.1c-3.328,5.557-3.727,5.933-9.953,3.922-3.115-1.007-4.792.37-6.639,3.088l-.286.418C603.237,100.653,601.956,102.51,604.238,106.611Z" transform="translate(-601.551 -86.265)" fill="#fff"/>
        </g>
        <g id="Group_869" data-name="Group 869" transform="translate(0 24.024)">
          <g id="Group_864" data-name="Group 864" transform="translate(0 28.464)">
            <path id="Path_645" data-name="Path 645" d="M244.112,184.165l2.419-.256a6.176,6.176,0,0,1,5.656,2.526l.013.237q-19.282,6.1-25.793,6.8l-3.742.419q7.874,4,8.033,6.75,5.125-.558,5.072-1.5-.036-.652-4.333-5.3l-.011-.208,1.863-.579.383-.053q3.983-.432,8.33,5.221l.975-.086q3.777-5.49,3.755-5.9l-.865-1.139-.035-.621,1.864-.609,2.386-.253q1.088-.12,4,1.551l.064,1.124q.017.326-4.038,4.644l.8-.1q2.356-.252,8.509-.482l5.607-1a3.991,3.991,0,0,1,3.967,1.493l.041.711q-4.712,5.277-9.955,5.84l-.871-1.76a15.528,15.528,0,0,1,1.989-3.641q-2.419.258-7.183.377a46.3,46.3,0,0,0-9.629,2.236l-2.086-.209a3.754,3.754,0,0,0-.4,1.3l-2.5.261-.048-.828q-10.679,1.968-14.629,2.4l-2.175-.2.1,1.773q.428,7.565-3.462,7.964l-1.592.179q-3.887.426-3.97-1.021l2.347-8.286,5.887-1.815,4.948-.546q-.023-.413-6.333-5.543,2.712-3.442,16.816-7.77l7.739-2.068-.5-.921-.019-.324Q243.555,184.226,244.112,184.165Zm-12.684,33.061,1.18-.126q2.857-.309,3.124.744.087,1.5-3.651,7.231l.036.622,3.123-.327-.04-.708-.794.075-.014-.238c.032-.454.236-.7.606-.745l2.037-.234a100.2,100.2,0,0,1,11.988-2.9l2.418-.257,2.7.5q.213,4.288-7.311,14.881l13.58,8.452q5.234.74,5.33,2.485l.021.354a6.354,6.354,0,0,1-3.024,1.06q-10.123-.228-13-2.97-.039-.678-6.868-5.036l-.5.057q-11.326,8.914-18.045,9.619l-4.269.479-.029-.532a57.587,57.587,0,0,0,17.941-12.992q-6.981-8.112-7.042-9.176l-.62.064q-7.75,8.148-9.99,8.391-.679.068-.711-.522,1.706-4.9,9.88-17.665Zm-2.588-9.072c.706-.08,1.127,1.034,1.253,3.337q-2.568,7.44-5.869,7.833l-3.241.331-1.876-.16-.038-.65,9.034-10.62Zm4.81-.924,2.415-.285q1.12-.094,2.713,6.576,2.046,1.071,7.44.5l4.981-.52a3.7,3.7,0,0,1,1.006-2.162q6.7.54,6.779,1.959l.025.413q.027.472-1.06,1.185l-13.228,1.432q-11.142,1.2-11.337-2.293a12.576,12.576,0,0,1-.6-3.2l-.068-1.212Q232.852,207.305,233.651,207.23Zm2.486,17.735.038.679q.8-.075,6.567,5.5,3.372-6.951,3.307-8.073l-.561.062A46.216,46.216,0,0,1,236.137,224.965Zm3.5-20.832,3.125-.325q2,.777,4.265,6.222l-2.229.986q-5.863.628-6.219-5.7C238.565,205,238.916,204.608,239.641,204.133Zm15.4,1.2,1.621-.151q3.565-.378,10.08,2.1l.06,1.035a16.153,16.153,0,0,1-3.413,1.528l-2.417.255q-1.563.148-3.259-2.069a7.522,7.522,0,0,0-3.246-1.3l-.036-.65Q254.476,205.4,255.036,205.337Z" transform="translate(-206.704 -177.964)" fill="#fff"/>
            <path id="Path_646" data-name="Path 646" d="M216.076,252.189a5.912,5.912,0,0,1-5.9-5.59l-.029-.532a5.913,5.913,0,0,1,3.491-5.72,44.439,44.439,0,0,0,5.635-3.035,8.016,8.016,0,0,1-2.291.6,6.6,6.6,0,0,1-5.027-1.5,6.418,6.418,0,0,1-2.228-4.575,5.9,5.9,0,0,1,.32-2.269,54.253,54.253,0,0,1,3.982-8.229,5.914,5.914,0,0,1-4.789-5.461l-.038-.65c0-.024,0-.048,0-.072a7.915,7.915,0,0,1-4.046-1.749,6.76,6.76,0,0,1-2.4-4.825,5.907,5.907,0,0,1,.214-1.944l2.348-8.287a5.912,5.912,0,0,1,3.947-4.038l.693-.214a5.911,5.911,0,0,1,.907-5.7c1.908-2.42,5.744-5.473,19.726-9.762.069-.021.138-.041.208-.06l3.741-1a6.485,6.485,0,0,1,4.972-3.255l.023,0,2.419-.256a12.107,12.107,0,0,1,10.864,4.676,5.915,5.915,0,0,1,1.317,3.411l.013.238c.009.16.011.318.007.476a5.911,5.911,0,0,1,1.816,3.418l4.059-.724q.187-.033.375-.054a9.92,9.92,0,0,1,9.4,3.872,5.912,5.912,0,0,1,1.134,3.152l.042.712a5.914,5.914,0,0,1-1.493,4.283q-1.019,1.14-2.076,2.117a5.909,5.909,0,0,1,1.273,3.337l.06,1.035a5.912,5.912,0,0,1-3.148,5.571,19.4,19.4,0,0,1-4.914,2.078,7.858,7.858,0,0,1-3.454,4.216,5.883,5.883,0,0,1-1.151.585c0,.047.007.1.009.142.172,3.47-1.325,7.627-4.9,13.384l7.394,4.6c5.818,1.1,8.88,3.718,9.107,7.8l.02.336a5.915,5.915,0,0,1-2.6,5.252,12.233,12.233,0,0,1-5.787,2.043,6.138,6.138,0,0,1-.671.023c-8.583-.193-13.81-1.611-16.947-4.6a5.922,5.922,0,0,1-.655-.735c-.315-.247-.938-.71-2.113-1.5-7.1,5.176-13,7.956-17.951,8.476l-4.227.475A5.957,5.957,0,0,1,216.076,252.189Zm-4.482-47.642Z" transform="translate(-202.734 -173.995)" fill="#fff"/>
          </g>
          <g id="Group_865" data-name="Group 865" transform="translate(60.665 40.692)">
            <path id="Path_647" data-name="Path 647" d="M331.655,204.718l3.623-.383q2.094-.206,2.767,1.208l1.035,18.322,16.65-1.773q2.282-.012,2.328.787l.018.325a21.817,21.817,0,0,1-5.438,1.345L339.2,225.992l.032.533q.226,3.986,1.577,20.543l-.226,3.867,2.594-.295q21.185-2.267,21.291-.405.061,1.063-3.8,1.489-12.008.474-15.369.841l-13.7,1.457a70.431,70.431,0,0,0-13.635,2.67l-3.9-.342-.04-.71q-.088-1.565,11.446-3.108l8.193-.849-2.615-46.189C331.076,205.018,331.279,204.76,331.655,204.718Z" transform="translate(-308.104 -198.401)" fill="#fff"/>
            <path id="Path_648" data-name="Path 648" d="M313.991,258.638c-.172,0-.344-.008-.516-.023l-3.9-.342a5.911,5.911,0,0,1-5.387-5.559l-.04-.71c-.207-3.692,2.206-6.248,7.172-7.6a76.8,76.8,0,0,1,9.394-1.7l.175-.021,2.579-.267-2.3-40.556a6.03,6.03,0,0,1,0-.736,6.6,6.6,0,0,1,5.854-6.25l.034,0,3.624-.384c3.935-.384,7.185,1.311,8.726,4.545a5.905,5.905,0,0,1,.565,2.209l.685,12.118,10.471-1.115c.224-.023.449-.032.672-.034,7.617,0,8.149,5.723,8.185,6.378l.018.309a5.912,5.912,0,0,1-3.82,5.873,27.79,27.79,0,0,1-6.918,1.693l-7.754.833c.238,3.175.583,7.547,1.033,13.09,17.323-1.7,19.484-.713,21.621,1.1a6.25,6.25,0,0,1,2.229,4.448c.144,2.48-.84,6.793-9.054,7.7q-.206.022-.414.031c-7.846.309-12.879.582-14.959.81l-13.72,1.459a64.9,64.9,0,0,0-12.463,2.423A5.924,5.924,0,0,1,313.991,258.638Z" transform="translate(-304.133 -194.434)" fill="#fff"/>
          </g>
          <g id="Group_866" data-name="Group 866" transform="translate(115.637 9.265)">
            <path id="Path_649" data-name="Path 649" d="M412.088,156.142l.479-.071q9.374-.969,9.563,2.367l.084,1.492q19.145-2.667,28.34-3.675l10.335-1.07q.269-3.054,1.45-3.165l.612-.123q11.123-1.158,11.755,10,2.292,18.682,2.442,21.361l-1.065.633-1.707.184q-6.92.747-11.493-3.005L449.4,182.489l.571,10.1q18.07-3.754,21.048-4.1l5.265,1.2.025.439q.115,2.021-25.373,5.49l-.787.088.6,10.583q1.135.555,25.613-2.066l-.032-.572q7.135-.8,9.347,2.467l.051.923-.4.022q-15.411,1.666-31.167,2.734-29,3.712-42.988,6.4l-5.264-1.155q-.152-2.68,35.11-7.054l-.18-3.161-.99-7.39-14.581,1.576q-9.4.618-9.5-1.182l-.054-.966,4.551-.521q6.351-.669,19.365-2.683l-.569-10.057-13.4,1.42-3.231-.258.045.79q.165,7.656-1.756,7.9-7.141.756-10.071-1.237.727-29.2.373-35.441Zm7.56,62q2.693.817,2.973,1.9a37.032,37.032,0,0,1-3.178,17.01l-2.279.218q-8.8.188-8.912-1.787-.152-2.68,5.554-7.717Q416.89,218.472,419.648,218.14Zm2.668-56.41.338,5.973,3.195-.357q6.394-.67,6.7,4.731.614-.076,2.057,4.422.158,2.765-4.4,3.246-3.979-1.847-6.4-9.552l-1.008.1-.2,7.456.285,5.008,16.027-1.7-.047-.835-1.71-19.33L423.8,162.308Zm8.362,55.873,2.845-.292q5.735-.634,6.128,6.305.952,5.938,1.118,8.835l-1.022.631-.529.029q-8.172.331-8.263-1.249l-.58-10.232Zm20.151-2.77q5.779-.635,6.242,7.532,1.036,7.432,1.076,8.134l-1.006.144q-8.759.937-8.949-2.446a40.027,40.027,0,0,1-.976-7.125l-.034-.614Q446.886,215.232,450.829,214.833Zm-3.905-54.98.044.79q1.433,15.208,1.6,18.105l1.439.49,3.634-.382q3.111-.307,10.417-.456l-.115-2.021-1.036-7.386-1.007.1q.16,2.812-9.893,6.552c.022.381-.086.576-.321.591l-.7.084q1.395-1.8,3.778-13.43l-.056-1.01.394-.023q5.264-1.178,6.752-1.351l-.126-2.24Zm19.2,55.127,3.374-.323q8.23-.905,16.264,14.939l.094,1.625a4.274,4.274,0,0,1-1.547.7q-9.943,1.048-10.373-6.551Q466.236,216.958,466.125,214.98Z" transform="translate(-399.988 -145.876)" fill="#fff"/>
            <path id="Path_650" data-name="Path 650" d="M411.31,239.237c-5.037,0-12.558-.69-12.934-7.395-.2-3.59,1.71-7.053,6.354-11.4.3-.85.611-1.685.942-2.5l-5.008-1.1a5.912,5.912,0,0,1-4.635-5.441c-.366-6.461,6.969-7.934,13.44-9.235q2.615-.525,6.007-1.089c-3.593-.155-5.732-.866-7.325-2.276a6.636,6.636,0,0,1-2.238-4.34,12.465,12.465,0,0,1-2.561-1.331,5.912,5.912,0,0,1-2.586-5.036c.478-19.205.606-30.968.381-34.96a5.912,5.912,0,0,1,2.884-5.417l1.067-.633a5.9,5.9,0,0,1,2.148-.765l.48-.071c.087-.013.174-.024.262-.033,6.615-.685,10.585,0,13.276,2.3a8.131,8.131,0,0,1,.93.929c10.429-1.432,18.4-2.452,23.746-3.036l6.476-.671a6.826,6.826,0,0,1,4.944-3.516l.452-.091q.276-.056.556-.085c5.361-.558,9.717.552,12.946,3.3,3.187,2.712,4.973,6.761,5.312,12.037,2.056,16.766,2.386,20.341,2.454,21.571a5.912,5.912,0,0,1-1.441,4.208,5.912,5.912,0,0,1,.572,2.224l.025.439c.343,6.055-6.447,7.524-10.94,8.5-1.661.359-3.6.731-5.839,1.118,2.229-.22,4.812-.483,7.8-.8a5.886,5.886,0,0,1,2.432-.834c7.091-.793,12.1.9,14.9,5.028a5.908,5.908,0,0,1,1.008,2.986l.051.923a5.911,5.911,0,0,1-5.581,6.232l-.239.013q-2.128.23-4.269.448c4.878,4.391,8.06,10.668,9.5,13.513a5.9,5.9,0,0,1,.629,2.335l.094,1.626a5.912,5.912,0,0,1-2.72,5.321,9.639,9.639,0,0,1-3.946,1.582l-.163.02c-5.418.571-9.681-.429-12.672-2.973a11.929,11.929,0,0,1-3.931-6.844,80.264,80.264,0,0,1-5.387-6.509c.007.1.014.2.021.3,1.037,7.451,1.068,7.988,1.091,8.381a5.912,5.912,0,0,1-5.062,6.2l-1.006.144c-.07.01-.141.019-.211.027-5.4.578-9.066.1-11.656-1.548a5.906,5.906,0,0,1-2.238,2.506l-1.022.631a5.92,5.92,0,0,1-2.789.875l-.529.028a40.5,40.5,0,0,1-7.355-.2c-3.131-.473-4.892-1.778-5.88-3.134q-.631,1.871-1.435,3.726a5.913,5.913,0,0,1-4.863,3.534l-2.279.217c-.144.014-.289.023-.435.026C412.721,239.222,412.042,239.237,411.31,239.237ZM409.834,223.8h0Zm37.615-7.121.048.017L447,212.2h-.01Zm1.691-1.41Zm-36.278-38.856q-.027,1.294-.056,2.653.077-.253.178-.5Zm53.126-2.3q.35.073.738.122c-.361-3.2-.942-8.107-1.86-15.583-.016-.127-.027-.256-.035-.385-.108-1.906-.527-3.315-1.15-3.88l.1,1.825a5.9,5.9,0,0,1-1.325,4.073,5.9,5.9,0,0,1,2.329,3.925l1.036,7.385c.023.161.038.324.048.486l.115,2.021ZM462.9,151.08Z" transform="translate(-396.016 -141.906)" fill="#fff"/>
          </g>
          <g id="Group_867" data-name="Group 867" transform="translate(201.433 15.649)">
            <path id="Path_651" data-name="Path 651" d="M573.924,162.818l3.182-.358q2.281-.013,2.328.817l.465,8.216,6.6-.7q2.854-.308,3.125.742l.037.649-1.864.61q-6.385.274-7.8.413-.067,5.635.083,8.266l.032.561,3.917-.43q-.07-1.211,1.789-1.406l1.208-.129q2.284.022,2.328.817l.114,2.038a87.5,87.5,0,0,1-.337,16.029l.589-.063,2.442.158,3.774-.361.144-4.248-.465-8.244-2.564.292q-1.976.2-2.331-.846l-.013-.266,1.89-.611,2.92-.313-.337-5.939-2.151.24-2.706-.114-.052-.945,1.892-.612,2.918-.313-.43-7.565-4.977.549q-.651.068-.686-.553c.036-.457.237-.705.611-.747l3.27-.363a25.605,25.605,0,0,1,4.734-1.721l.8-.074q2.281-.011,2.329.818l1.371,24.232a29.279,29.279,0,0,0,.661,4.321,6.6,6.6,0,0,0-.239,3.095l2.976-.317q5.083-.258,5.149.9.041.71-2.62,1.394-29.056,1.467-38.753,2.489a37.326,37.326,0,0,0-6.8,1.958,37.2,37.2,0,0,1-5.622.2,35.343,35.343,0,0,1-5.222.947q-2.292-.136-2.328-.787-.052-1.419,8.351-2.786l-1.7-30.052-.569-2.7a6.629,6.629,0,0,1,2.639-1.039,5.981,5.981,0,0,1,3.253.882,37.485,37.485,0,0,0,4.8-2.169l1.593-.149q2.86-.311,3.124.712l.021.413q.087,1.507-9.077,4.1l.474,8.364,8.193-.879c.454.014.692.2.713.553l.037.679-2.685.715-6.162.644q.654,4.143.773,6.3l4.982-.519,1.879.19.054.975-1.865.58-4.952.517.489,8.63.536,2.133,17.593-1.885a2.886,2.886,0,0,1,1.451-2.662,125.241,125.241,0,0,0,.882-13.746l-3.449.373a4.67,4.67,0,0,1-2.671,1.515l-2.032.2a2.135,2.135,0,0,1-2.357-1.261,3.258,3.258,0,0,1,.351-1.176q-1.019-10.644-1.421-17.767l-.462-1.87ZM571.118,207l.413-.053q3.476-.375,3.627,2.286.321,5.644-12.9,13a4.955,4.955,0,0,0-.847-.308q2.77-2.944,6.408-11.449Q567.641,207.376,571.118,207Zm5.355-20.076q2.863-.312,3.127.711l.272,4.845q.335,5.912-1.933,6.158l-4.01.434c-.449.046-.687-.139-.711-.552a43.943,43.943,0,0,0,.46-6.549l-.138-2.422Q573.41,187.246,576.473,186.925Zm11.986,17.4,1.561-.176q5.263.266,12.825,7.13a6.009,6.009,0,0,1,1.792,3.368,4.735,4.735,0,0,1-1.721,3.684l-2.3.247a59.345,59.345,0,0,1-6.868-7.733,11.632,11.632,0,0,0-3.734-2.042q-.043-.768-2.6-2.967l-.018-.323C587.38,205.181,587.732,204.785,588.459,204.328Z" transform="translate(-543.392 -156.547)" fill="#fff"/>
            <path id="Path_652" data-name="Path 652" d="M558.286,224.179a5.912,5.912,0,0,1-2.243-.442c-.087-.036-.164-.068-.23-.093a5.914,5.914,0,0,1-2.68-9.737c.511-.543,1.8-2.193,3.9-6.642-1.233.077-2.411.1-3.529.08a41.084,41.084,0,0,1-5.237.891,5.927,5.927,0,0,1-.955.02c-7.005-.418-7.8-4.974-7.879-6.36,0-.037,0-.074,0-.111-.174-4.717,3.735-6.725,8.064-7.825l-1.383-24.448-.477-2.256a5.914,5.914,0,0,1,2.692-6.261,12.238,12.238,0,0,1,5.084-1.877,10.107,10.107,0,0,1,3.844.371c.554-.262,1.285-.615,2.246-1.087a5.93,5.93,0,0,1,2.058-.581l.886-.083a5.911,5.911,0,0,1,3.981-4.007l1.837-.549a5.883,5.883,0,0,1,1.033-.211l3.182-.358a6.533,6.533,0,0,1,.709-.037c7.6,0,8.146,5.736,8.183,6.392l.066,1.164a6.53,6.53,0,0,1,3.545-1.528l2.413-.267a21.421,21.421,0,0,1,5.544-1.811l.15-.015.8-.074c.2-.019.4-.024.592-.026,7.6,0,8.152,5.737,8.189,6.394l1.371,24.234a15.358,15.358,0,0,0,.18,1.531c5.333.324,8.144,2.492,8.367,6.466.147,2.53-.958,5.885-7.052,7.452a5.952,5.952,0,0,1-1.174.178l-1.707.087.2.18a5.822,5.822,0,0,1,.444.448,11.45,11.45,0,0,1,3.277,6.963,10.448,10.448,0,0,1-3.522,8.278,5.916,5.916,0,0,1-3.469,1.62l-2.3.248a5.918,5.918,0,0,1-4.447-1.361,58.986,58.986,0,0,1-7.2-7.966,5.06,5.06,0,0,0-1.329-.677,5.914,5.914,0,0,1-3.6-3.116c-.2-.205-.552-.535-1.114-1.02A5.916,5.916,0,0,1,578,204.164l-.972.065q.045.346.065.7c.475,8.37-8.864,14.567-15.928,18.5A5.916,5.916,0,0,1,558.286,224.179Zm22.669-16.538h0ZM565.3,205.347Zm14.843-.172Z" transform="translate(-539.421 -152.577)" fill="#fff"/>
          </g>
          <g id="Group_868" data-name="Group 868" transform="translate(271.453)">
            <path id="Path_653" data-name="Path 653" d="M698.936,136.391l.786-.088a14.044,14.044,0,0,1,7.5,6.36l.142,2.5q-11.888,14.9-17.363,15.476l.078,1.362,2.98-.3q29.073-4.686,29-6.091-.067-1.186,2.442-2.782,11.466-.56,11.62,2.162l3.44,60.777-.582,4.483-6.175.657a5.031,5.031,0,0,1-5.458-3.039q-6.412-1.179-6.619-4.823l-40.24,4.3.154,2.723-5.213.559a30.8,30.8,0,0,1-8.024-.866q-1.586-44.4-.806-62.557l7.005-.749q5.208-.559,5.568,5.765l2.191-.212a162.96,162.96,0,0,1,13.5-19.841l-.25-4.435Zm22.652,49.2-40.857,4.34q-.172,12.521.163,18.45l.207,3.645q.422,2,2.13,1.818l24.434-2.617a114.665,114.665,0,0,0,17.323-3.712l-1.316-23.231Zm-37.417-19.733-4.775.491,1.154,20.375,40.025-4.247,3.09,1.675-1.32-23.32Q698.008,164.332,684.171,165.862Z" transform="translate(-660.422 -130.39)" fill="#fff"/>
            <path id="Path_654" data-name="Path 654" d="M728.076,222.891a10.6,10.6,0,0,1-8.323-3.78,13.719,13.719,0,0,1-6.414-3.722l-31.384,3.356a5.908,5.908,0,0,1-4.66,3.237l-5.213.559c-2.16.248-5.194-.041-9.793-.944a5.914,5.914,0,0,1-4.77-5.591c-1.058-29.632-1.329-50.835-.8-63.022a5.912,5.912,0,0,1,5.278-5.624l7.005-.75a10.717,10.717,0,0,1,7.391,1.675q3.613-5.558,8.474-11.943l-.127-2.242a5.912,5.912,0,0,1,4.147-5.98l4.33-1.346a5.926,5.926,0,0,1,1.1-.23l.787-.088a5.915,5.915,0,0,1,2.681.321,19.869,19.869,0,0,1,10.581,8.938,5.913,5.913,0,0,1,.8,2.643l.142,2.5a5.915,5.915,0,0,1-1.281,4.022q-1.8,2.258-3.46,4.2c5.033-.939,7.7-1.547,9.109-1.922a13.375,13.375,0,0,1,3.686-3.291,5.915,5.915,0,0,1,2.885-.917c5.623-.275,17.321-.845,17.811,7.73l3.44,60.781a5.926,5.926,0,0,1-.04,1.095l-.582,4.483a5.913,5.913,0,0,1-5.238,5.118l-6.176.658A13.5,13.5,0,0,1,728.076,222.891Zm.692-11.436h0Zm-4.033-3.307a5.911,5.911,0,0,1,3.8,2.877l1.077-.115-3.178-56.163c-.658-.043-1.5-.072-2.564-.068a5.908,5.908,0,0,1,.41,1.854l1.32,23.32c0,.021,0,.041,0,.062s0,.045,0,.068l1.316,23.23A5.914,5.914,0,0,1,724.736,208.148Zm-55.568,2.575a8.616,8.616,0,0,0,1.609.065l.442-.047a5.8,5.8,0,0,1,.349-.605q-.126-.416-.22-.857a5.878,5.878,0,0,1-.118-.884l-.207-3.645c-.234-4.135-.29-10.305-.172-18.866a5.932,5.932,0,0,1,.14-1.2,5.905,5.905,0,0,1-.311-1.587l-1.155-20.375a5.911,5.911,0,0,1,.255-2.089,5.909,5.909,0,0,1-.488-2.042l-.007-.114-.915.1C668.118,170.137,668.385,187.625,669.168,210.723ZM678.634,204h0Zm3.99-12.71c-.028,5.24.032,9.351.178,12.264l20.267-2.171a89.011,89.011,0,0,0,11.777-2.313l-.631-11.135Zm-.974-23.608.484,8.544,31.229-3.314-.526-9.282C700.036,165.43,689.57,166.791,681.65,167.68Zm42.338-16.342h0Zm0-.027c0,.008,0,.017,0,.026C723.987,151.328,723.986,151.319,723.986,151.311Zm-27.371-11.636a5.852,5.852,0,0,1-.268.8c.16-.19.32-.383.484-.58Q696.724,139.782,696.615,139.675Z" transform="translate(-656.455 -126.42)" fill="#fff"/>
          </g>
        </g>
        <g id="Group_875" data-name="Group 875" transform="translate(5.913 29.937)">
          <g id="Group_870" data-name="Group 870" transform="translate(0 28.461)">
            <path id="Path_655" data-name="Path 655" d="M244.112,184.165l2.419-.256a6.176,6.176,0,0,1,5.656,2.526l.013.237q-19.282,6.1-25.793,6.8l-3.742.419q7.874,4,8.033,6.75,5.125-.558,5.072-1.5-.036-.652-4.333-5.3l-.011-.208,1.863-.579.383-.053q3.983-.432,8.33,5.221l.975-.086q3.777-5.49,3.755-5.9l-.865-1.139-.035-.621,1.864-.609,2.386-.253q1.088-.12,4,1.551l.064,1.124q.017.326-4.038,4.644l.8-.1q2.356-.252,8.509-.482l5.607-1a3.991,3.991,0,0,1,3.967,1.493l.041.711q-4.712,5.277-9.955,5.84l-.871-1.76a15.528,15.528,0,0,1,1.989-3.641q-2.419.258-7.183.377a46.3,46.3,0,0,0-9.629,2.236l-2.086-.209a3.754,3.754,0,0,0-.4,1.3l-2.5.261-.048-.828q-10.679,1.968-14.629,2.4l-2.175-.2.1,1.773q.428,7.565-3.462,7.964l-1.592.179q-3.887.426-3.97-1.021l2.347-8.286,5.887-1.815,4.948-.546q-.023-.413-6.333-5.543,2.712-3.442,16.816-7.77l7.739-2.068-.5-.921-.019-.324Q243.555,184.226,244.112,184.165Zm-12.684,33.061,1.18-.126q2.857-.309,3.124.744.087,1.5-3.651,7.231l.036.622,3.123-.327-.04-.708-.794.075-.014-.238c.032-.454.236-.7.606-.745l2.037-.234a100.2,100.2,0,0,1,11.988-2.9l2.418-.257,2.7.5q.213,4.288-7.311,14.881l13.58,8.452q5.234.74,5.33,2.485l.021.354a6.354,6.354,0,0,1-3.024,1.06q-10.123-.228-13-2.97-.039-.678-6.868-5.036l-.5.057q-11.326,8.914-18.045,9.619l-4.269.479-.029-.532a57.587,57.587,0,0,0,17.941-12.992q-6.981-8.112-7.042-9.176l-.62.064q-7.75,8.148-9.99,8.391-.679.068-.711-.522,1.706-4.9,9.88-17.665Zm-2.588-9.072c.706-.08,1.127,1.034,1.253,3.337q-2.568,7.44-5.869,7.833l-3.241.331-1.876-.16-.038-.65,9.034-10.62Zm4.81-.924,2.415-.285q1.12-.094,2.713,6.576,2.046,1.071,7.44.5l4.981-.52a3.7,3.7,0,0,1,1.006-2.162q6.7.54,6.779,1.959l.025.413q.027.472-1.06,1.185l-13.228,1.432q-11.142,1.2-11.337-2.293a12.576,12.576,0,0,1-.6-3.2l-.068-1.212Q232.852,207.305,233.651,207.23Zm2.486,17.735.038.679q.8-.075,6.567,5.5,3.372-6.951,3.307-8.073l-.561.062A46.216,46.216,0,0,1,236.137,224.965Zm3.5-20.832,3.125-.325q2,.777,4.265,6.222l-2.229.986q-5.863.628-6.219-5.7C238.565,205,238.916,204.608,239.641,204.133Zm15.4,1.2,1.621-.151q3.565-.378,10.08,2.1l.06,1.035a16.153,16.153,0,0,1-3.413,1.528l-2.417.255q-1.563.148-3.259-2.069a7.522,7.522,0,0,0-3.246-1.3l-.036-.65Q254.476,205.4,255.036,205.337Z" transform="translate(-212.617 -183.874)"/>
          </g>
          <g id="Group_871" data-name="Group 871" transform="translate(60.667 40.686)">
            <path id="Path_656" data-name="Path 656" d="M331.655,204.718l3.623-.383q2.094-.206,2.767,1.208l1.035,18.322,16.65-1.773q2.282-.012,2.328.787l.018.325a21.817,21.817,0,0,1-5.438,1.345L339.2,225.992l.032.533q.226,3.986,1.577,20.543l-.226,3.867,2.594-.295q21.185-2.267,21.291-.405.061,1.063-3.8,1.489-12.008.474-15.369.841l-13.7,1.457a70.431,70.431,0,0,0-13.635,2.67l-3.9-.342-.04-.71q-.088-1.565,11.446-3.108l8.193-.849-2.615-46.189C331.076,205.018,331.279,204.76,331.655,204.718Z" transform="translate(-314.019 -204.308)"/>
          </g>
          <g id="Group_872" data-name="Group 872" transform="translate(115.64 9.264)">
            <path id="Path_657" data-name="Path 657" d="M412.088,156.142l.479-.071q9.374-.969,9.563,2.367l.084,1.492q19.145-2.667,28.34-3.675l10.335-1.07q.269-3.054,1.45-3.165l.612-.123q11.123-1.158,11.755,10,2.292,18.682,2.442,21.361l-1.065.633-1.707.184q-6.92.747-11.493-3.005L449.4,182.489l.571,10.1q18.07-3.754,21.048-4.1l5.265,1.2.025.439q.115,2.021-25.373,5.49l-.787.088.6,10.583q1.135.555,25.613-2.066l-.032-.572q7.135-.8,9.347,2.467l.051.923-.4.022q-15.411,1.666-31.167,2.734-29,3.712-42.988,6.4l-5.264-1.155q-.152-2.68,35.11-7.054l-.18-3.161-.99-7.39-14.581,1.576q-9.4.618-9.5-1.182l-.054-.966,4.551-.521q6.351-.669,19.365-2.683l-.569-10.057-13.4,1.42-3.231-.258.045.79q.165,7.656-1.756,7.9-7.141.756-10.071-1.237.727-29.2.373-35.441Zm7.56,62q2.693.817,2.973,1.9a37.032,37.032,0,0,1-3.178,17.01l-2.279.218q-8.8.188-8.912-1.787-.152-2.68,5.554-7.717Q416.89,218.472,419.648,218.14Zm2.668-56.41.338,5.973,3.195-.357q6.394-.67,6.7,4.731.614-.076,2.057,4.422.158,2.765-4.4,3.246-3.979-1.847-6.4-9.552l-1.008.1-.2,7.456.285,5.008,16.027-1.7-.047-.835-1.71-19.33L423.8,162.308Zm8.362,55.873,2.845-.292q5.735-.634,6.128,6.305.952,5.938,1.118,8.835l-1.022.631-.529.029q-8.172.331-8.263-1.249l-.58-10.232Zm20.151-2.77q5.779-.635,6.242,7.532,1.036,7.432,1.076,8.134l-1.006.144q-8.759.937-8.949-2.446a40.027,40.027,0,0,1-.976-7.125l-.034-.614Q446.886,215.232,450.829,214.833Zm-3.905-54.98.044.79q1.433,15.208,1.6,18.105l1.439.49,3.634-.382q3.111-.307,10.417-.456l-.115-2.021-1.036-7.386-1.007.1q.16,2.812-9.893,6.552c.022.381-.086.576-.321.591l-.7.084q1.395-1.8,3.778-13.43l-.056-1.01.394-.023q5.264-1.178,6.752-1.351l-.126-2.24Zm19.2,55.127,3.374-.323q8.23-.905,16.264,14.939l.094,1.625a4.274,4.274,0,0,1-1.547.7q-9.943,1.048-10.373-6.551Q466.236,216.958,466.125,214.98Z" transform="translate(-405.904 -151.788)"/>
          </g>
          <g id="Group_873" data-name="Group 873" transform="translate(201.435 15.649)">
            <path id="Path_658" data-name="Path 658" d="M573.924,162.818l3.182-.358q2.281-.013,2.328.817l.465,8.216,6.6-.7q2.854-.308,3.125.742l.037.649-1.864.61q-6.385.274-7.8.413-.067,5.635.083,8.266l.032.561,3.917-.43q-.07-1.211,1.789-1.406l1.208-.129q2.284.022,2.328.817l.114,2.038a87.5,87.5,0,0,1-.337,16.029l.589-.063,2.442.158,3.774-.361.144-4.248-.465-8.244-2.564.292q-1.976.2-2.331-.846l-.013-.266,1.89-.611,2.92-.313-.337-5.939-2.151.24-2.706-.114-.052-.945,1.892-.612,2.918-.313-.43-7.565-4.977.549q-.651.068-.686-.553c.036-.457.237-.705.611-.747l3.27-.363a25.605,25.605,0,0,1,4.734-1.721l.8-.074q2.281-.011,2.329.818l1.371,24.232a29.279,29.279,0,0,0,.661,4.321,6.6,6.6,0,0,0-.239,3.095l2.976-.317q5.083-.258,5.149.9.041.71-2.62,1.394-29.056,1.467-38.753,2.489a37.326,37.326,0,0,0-6.8,1.958,37.2,37.2,0,0,1-5.622.2,35.343,35.343,0,0,1-5.222.947q-2.292-.136-2.328-.787-.052-1.419,8.351-2.786l-1.7-30.052-.569-2.7a6.629,6.629,0,0,1,2.639-1.039,5.981,5.981,0,0,1,3.253.882,37.485,37.485,0,0,0,4.8-2.169l1.593-.149q2.86-.311,3.124.712l.021.413q.087,1.507-9.077,4.1l.474,8.364,8.193-.879c.454.014.692.2.713.553l.037.679-2.685.715-6.162.644q.654,4.143.773,6.3l4.982-.519,1.879.19.054.975-1.865.58-4.952.517.489,8.63.536,2.133,17.593-1.885a2.886,2.886,0,0,1,1.451-2.662,125.241,125.241,0,0,0,.882-13.746l-3.449.373a4.67,4.67,0,0,1-2.671,1.515l-2.032.2a2.135,2.135,0,0,1-2.357-1.261,3.258,3.258,0,0,1,.351-1.176q-1.019-10.644-1.421-17.767l-.462-1.87ZM571.118,207l.413-.053q3.476-.375,3.627,2.286.321,5.644-12.9,13a4.955,4.955,0,0,0-.847-.308q2.77-2.944,6.408-11.449Q567.641,207.376,571.118,207Zm5.355-20.076q2.863-.312,3.127.711l.272,4.845q.335,5.912-1.933,6.158l-4.01.434c-.449.046-.687-.139-.711-.552a43.943,43.943,0,0,0,.46-6.549l-.138-2.422Q573.41,187.246,576.473,186.925Zm11.986,17.4,1.561-.176q5.263.266,12.825,7.13a6.009,6.009,0,0,1,1.792,3.368,4.735,4.735,0,0,1-1.721,3.684l-2.3.247a59.345,59.345,0,0,1-6.868-7.733,11.632,11.632,0,0,0-3.734-2.042q-.043-.768-2.6-2.967l-.018-.323C587.38,205.181,587.732,204.785,588.459,204.328Z" transform="translate(-549.305 -162.46)"/>
          </g>
          <g id="Group_874" data-name="Group 874" transform="translate(271.45)">
            <path id="Path_659" data-name="Path 659" d="M698.936,136.391l.786-.088a14.044,14.044,0,0,1,7.5,6.36l.142,2.5q-11.888,14.9-17.363,15.476l.078,1.362,2.98-.3q29.073-4.686,29-6.091-.067-1.186,2.442-2.782,11.466-.56,11.62,2.162l3.44,60.777-.582,4.483-6.175.657a5.031,5.031,0,0,1-5.458-3.039q-6.412-1.179-6.619-4.823l-40.24,4.3.154,2.723-5.213.559a30.8,30.8,0,0,1-8.024-.866q-1.586-44.4-.806-62.557l7.005-.749q5.208-.559,5.568,5.765l2.191-.212a162.96,162.96,0,0,1,13.5-19.841l-.25-4.435Zm22.652,49.2-40.857,4.34q-.172,12.521.163,18.45l.207,3.645q.422,2,2.13,1.818l24.434-2.617a114.665,114.665,0,0,0,17.323-3.712l-1.316-23.231Zm-37.417-19.733-4.775.491,1.154,20.375,40.025-4.247,3.09,1.675-1.32-23.32Q698.008,164.332,684.171,165.862Z" transform="translate(-666.332 -136.303)"/>
          </g>
        </g>
        <g id="Group_876" data-name="Group 876" transform="translate(263.531 9.396)">
          <path id="Path_660" data-name="Path 660" d="M648.971,119.21c1.534,3.37,2.279,3.579,5.067.94.735-.7,1.54-1.311,2.324-1.948q3.7-2.993,7.4-5.978c1.3-1.049,2.306-2.285,1.9-4.188a4.931,4.931,0,0,0-7.125-3.6c-3.708,1.929-3.761,1.985-6.382-1.076-1.647-1.927-3.374-1.55-5.312-.677-1.707.769-3.506,1.338-3.63,5.005.493,1.187,1.278,3.4,2.3,5.463C646.556,115.239,648.005,117.091,648.971,119.21Z" transform="translate(-643.214 -101.97)" fill="#e61f19"/>
        </g>
      </g>
    </g>
    <g id="Group_2122" data-name="Group 2122" transform="translate(133.224 -33.41) rotate(2)">
      <g id="Group_2121" data-name="Group 2121" transform="translate(258.633 201.379)">
        <g id="Group_2091" data-name="Group 2091" transform="translate(46.131)">
          <g id="Path_2380" data-name="Path 2380" transform="translate(-309.05 -201.379)" fill="#1a1311">
            <path d="M 327.7074279785156 216.5080718994141 C 323.4245300292969 216.5083618164062 318.3447265625 214.2156372070312 317.4951477050781 213.8175506591797 L 312.9026489257812 214.0242309570312 L 312.7011108398438 214.0333099365234 L 312.5497131347656 213.8999938964844 C 312.4899597167969 213.8473510742188 311.0727233886719 212.5901031494141 309.938232421875 210.7837524414062 C 308.3828430175781 208.3071899414062 308.1319885253906 206.001220703125 309.2128295898438 204.1151275634766 C 310.3048400878906 202.2095489501953 314.5724792480469 200.878662109375 319.5909423828125 200.878662109375 C 323.2152709960938 200.878662109375 326.5693054199219 201.5950775146484 329.0351867675781 202.8959503173828 C 332.0885314941406 204.5067291259766 333.766845703125 206.9910125732422 333.8886413574219 210.0801849365234 C 333.970703125 212.1662750244141 333.48193359375 213.7756805419922 332.4358825683594 214.8637390136719 C 331.3870849609375 215.9546966552734 329.7962036132812 216.5079193115234 327.7074279785156 216.5080718994141 Z" stroke="none"/>
            <path d="M 327.7073974609375 216.0080718994141 C 330.8995361328125 216.0078582763672 333.5687255859375 214.66796875 333.3890380859375 210.0998840332031 C 332.9535217285156 199.0548858642578 312.053955078125 200.1629638671875 309.6466369628906 204.3637237548828 C 307.2420043945312 208.5599517822266 312.8801574707031 213.5247497558594 312.8801574707031 213.5247497558594 L 317.5969848632812 213.3124694824219 C 317.5969848632812 213.3124694824219 323.1788330078125 216.0083770751953 327.7073974609375 216.0080718994141 M 327.7074584960938 217.0080718994141 L 327.7073974609375 216.0080718994141 L 327.7074584960938 217.0080718994141 C 323.4840698242188 217.0083465576172 318.533203125 214.8464508056641 317.3955993652344 214.3225402832031 L 312.5220642089844 214.5418701171875 L 312.2192993164062 214.2752380371094 C 312.1572875976562 214.2206573486328 310.6874389648438 212.916748046875 309.5148315429688 211.0496826171875 C 307.8550109863281 208.4068603515625 307.6005554199219 205.9229583740234 308.7789916992188 203.8665313720703 C 309.5645141601562 202.4957580566406 311.4916687011719 201.6871185302734 312.9700012207031 201.2501373291016 C 314.8711853027344 200.6881561279297 317.2225341796875 200.378662109375 319.5909423828125 200.378662109375 C 323.2951049804688 200.378662109375 326.7319641113281 201.1156005859375 329.2684631347656 202.4537200927734 C 332.4886169433594 204.1524810791016 334.259033203125 206.7828674316406 334.3882446289062 210.0604858398438 C 334.4758911132812 212.2877655029297 333.9402770996094 214.0203704833984 332.7963256835938 215.2102813720703 C 331.6496276855469 216.4030609130859 329.9375 217.0079193115234 327.7074584960938 217.0080718994141 Z" stroke="none" fill="#fff"/>
          </g>
        </g>
        <g id="Group_2092" data-name="Group 2092" transform="translate(12.612 30.738)">
          <path id="Path_2381" data-name="Path 2381" d="M285.1,239.315s-4.534-5.991-8.9-3.9-7.006,22.854,3.978,24.1S284.538,244,284.538,244Z" transform="translate(-272.417 -234.972)" fill="#8e8e8f" stroke="#fff" stroke-miterlimit="10" stroke-width="1.948"/>
        </g>
        <g id="Group_2093" data-name="Group 2093" transform="translate(12.612 30.738)">
          <path id="Path_2382" data-name="Path 2382" d="M285.1,239.315s-4.534-5.991-8.9-3.9-7.006,22.854,3.978,24.1S284.538,244,284.538,244Z" transform="translate(-272.417 -234.972)" fill="#1a1311"/>
        </g>
        <g id="Group_2094" data-name="Group 2094" transform="translate(21.255 9.632)">
          <path id="Path_2383" data-name="Path 2383" d="M286.466,267.476c-2.838-8.008-8.16-28.174,4.164-41.591,17.022-18.524,34.4-13.751,45.6-6.9,10.758,6.577,21.453,11.455,17.538,41.243" transform="translate(-281.947 -211.99)" fill="#fff"/>
          <path id="Path_2384" data-name="Path 2384" d="M286.476,268.3a.908.908,0,0,1-.951-.6c-2.907-8.2-8.3-28.742,4.353-42.51,7.8-8.489,16.416-12.95,25.621-13.263,6.906-.233,14.013,1.854,21.12,6.2.5.309,1.008.615,1.51.917a64.065,64.065,0,0,1,7.444,4.989,24.524,24.524,0,0,1,6.121,7.18,30.208,30.208,0,0,1,3.4,11.422,72.947,72.947,0,0,1-.511,17.632.909.909,0,0,1-1.8-.237c1.675-12.746.824-21.624-2.676-27.934-3.075-5.55-7.856-8.437-12.916-11.5-.505-.3-1.01-.61-1.52-.92-11.174-6.832-27.958-11.21-44.454,6.744-11.978,13.041-6.771,32.789-3.976,40.675a.909.909,0,0,1-.555,1.158A.923.923,0,0,1,286.476,268.3Z" transform="translate(-281.862 -211.906)" fill="#070203"/>
        </g>
        <g id="Group_2096" data-name="Group 2096" transform="translate(51.942 21.515)">
          <g id="Group_2095" data-name="Group 2095">
            <path id="Path_2385" data-name="Path 2385" d="M319.112,235.365a13.318,13.318,0,0,1,8.155,3.91c2.417,2.55,9.317.833,9.467-2.539s-3.9-10.163-8.168-11.217c-4.323-1.066-7.7-1.113-11.74,2.622C313.083,231.6,317.737,235.051,319.112,235.365Z" transform="translate(-315.4 -224.893)" fill="#1a1311"/>
          </g>
        </g>
        <g id="Group_2098" data-name="Group 2098" transform="translate(32.977 37.962)">
          <g id="Group_2097" data-name="Group 2097">
            <path id="Path_2386" data-name="Path 2386" d="M305.792,247.116a13.3,13.3,0,0,0,2.882,8.571c2.234,2.709-.318,9.348-3.679,9.086s-9.61-5.11-10.134-9.479c-.53-4.422-.162-7.779,4.037-11.332C302.79,240.673,305.646,245.713,305.792,247.116Z" transform="translate(-294.673 -242.867)" fill="#1a1311"/>
          </g>
        </g>
        <g id="Group_2100" data-name="Group 2100" transform="translate(55.976 26.003)">
          <g id="Group_2099" data-name="Group 2099">
            <path id="Path_2387" data-name="Path 2387" d="M324.436,230.69a2.645,2.645,0,1,1-3.733-.229A2.644,2.644,0,0,1,324.436,230.69Z" transform="translate(-319.809 -229.798)" fill="#070304"/>
          </g>
        </g>
        <g id="Group_2102" data-name="Group 2102" transform="translate(57.293 26.14)">
          <g id="Group_2101" data-name="Group 2101">
            <path id="Path_2388" data-name="Path 2388" d="M323.21,230.326a1.123,1.123,0,1,1-1.582-.1A1.121,1.121,0,0,1,323.21,230.326Z" transform="translate(-321.248 -229.947)" fill="#fff"/>
          </g>
        </g>
        <g id="Group_2104" data-name="Group 2104" transform="translate(37.772 42.101)">
          <g id="Group_2103" data-name="Group 2103">
            <path id="Path_2389" data-name="Path 2389" d="M304.539,248.281a2.645,2.645,0,1,1-3.732-.226A2.648,2.648,0,0,1,304.539,248.281Z" transform="translate(-299.914 -247.391)" fill="#070304"/>
          </g>
        </g>
        <g id="Group_2106" data-name="Group 2106" transform="translate(38.998 42.149)">
          <g id="Group_2105" data-name="Group 2105">
            <path id="Path_2390" data-name="Path 2390" d="M303.377,247.853a1.213,1.213,0,1,1-1.711-.1A1.214,1.214,0,0,1,303.377,247.853Z" transform="translate(-301.254 -247.443)" fill="#fff"/>
          </g>
        </g>
        <g id="Group_2107" data-name="Group 2107" transform="translate(76.63 23.729)">
          <path id="Path_2391" data-name="Path 2391" d="M349.7,262.467c1.125-1.585-1.434-10.181-2.307-11.87s-8.171-14.495-.65-16.348a7.113,7.113,0,0,1,8.2-4.41,6.516,6.516,0,0,1,8.066-.266s8.761-4.444,10.316,13.989c0,0,2.432,13.557,4.151,16.155" transform="translate(-342.466 -227.397)" fill="#1a1311"/>
          <path id="Path_2392" data-name="Path 2392" d="M377.488,260.539a.916.916,0,0,1-.858-.4c-1.775-2.677-4.038-15.093-4.29-16.5,0-.027-.01-.059-.012-.086-.748-8.859-3.15-11.987-5.033-13.053a4.467,4.467,0,0,0-3.962-.193.9.9,0,0,1-.906-.049,5.6,5.6,0,0,0-6.945.167.909.909,0,0,1-.768.234,6.313,6.313,0,0,0-5.708,1.576,6.539,6.539,0,0,0-1.479,2.222.9.9,0,0,1-.648.6,3.13,3.13,0,0,0-2.3,1.767c-.733,1.639-.748,5.207,3.345,12.9l.2.376a36.443,36.443,0,0,1,1.978,6.184,27.341,27.341,0,0,1,.663,3.74,4.419,4.419,0,0,1-.4,2.9.914.914,0,0,1-1.493-1.054c.171-.285.273-1.74-.565-5.235a34.217,34.217,0,0,0-1.808-5.691c-.044-.087-.108-.207-.187-.357a45.69,45.69,0,0,1-2.832-6.266c-1.236-3.547-1.427-6.315-.569-8.237a4.814,4.814,0,0,1,3.078-2.668,8.464,8.464,0,0,1,1.74-2.474,7.986,7.986,0,0,1,6.864-2.136,7.578,7.578,0,0,1,2.3-1.167,7.481,7.481,0,0,1,6.117.841,6.279,6.279,0,0,1,5.149.418c3.311,1.846,5.327,6.712,5.988,14.469.673,3.752,2.686,13.777,4.006,15.773a.914.914,0,0,1-.255,1.268A.938.938,0,0,1,377.488,260.539Z" transform="translate(-342.381 -227.312)" fill="#070203"/>
        </g>
        <g id="Group_2108" data-name="Group 2108" transform="translate(82.003 34.33)">
          <path id="Path_2393" data-name="Path 2393" d="M351.033,240.092a1.431,1.431,0,1,1-1.867-1.132A1.551,1.551,0,0,1,351.033,240.092Z" transform="translate(-348.254 -238.898)" fill="#fff"/>
        </g>
        <g id="Group_2109" data-name="Group 2109" transform="translate(84.662 30.816)">
          <path id="Path_2394" data-name="Path 2394" d="M353.938,236.252a1.431,1.431,0,1,1-1.867-1.132A1.553,1.553,0,0,1,353.938,236.252Z" transform="translate(-351.16 -235.058)" fill="#fff"/>
        </g>
        <g id="Group_2110" data-name="Group 2110" transform="translate(88.587 28.542)">
          <path id="Path_2395" data-name="Path 2395" d="M358.231,233.766a1.432,1.432,0,1,1-1.869-1.131A1.553,1.553,0,0,1,358.231,233.766Z" transform="translate(-355.45 -232.572)" fill="#fff"/>
        </g>
        <g id="Group_2111" data-name="Group 2111" transform="translate(93.823 28.276)">
          <path id="Path_2396" data-name="Path 2396" d="M363.953,233.473a1.432,1.432,0,1,1-1.87-1.129A1.553,1.553,0,0,1,363.953,233.473Z" transform="translate(-361.172 -232.281)" fill="#fff"/>
        </g>
        <g id="Group_2112" data-name="Group 2112" transform="translate(97.944 30.191)">
          <path id="Path_2397" data-name="Path 2397" d="M368.456,235.567a1.432,1.432,0,1,1-1.868-1.131A1.552,1.552,0,0,1,368.456,235.567Z" transform="translate(-365.676 -234.374)" fill="#fff"/>
        </g>
        <g id="Group_2113" data-name="Group 2113" transform="translate(83.879 44.745)">
          <path id="Path_2398" data-name="Path 2398" d="M351.2,254.21a2.19,2.19,0,1,0-.4-3.272A2.337,2.337,0,0,0,351.2,254.21Z" transform="translate(-350.304 -250.281)" fill="#fff"/>
        </g>
        <g id="Group_2114" data-name="Group 2114" transform="translate(87.056 35.192)">
          <path id="Path_2399" data-name="Path 2399" d="M367.248,242.95c.443,1.622-1.6,3.923-3.224,3.882-1.856-.046-1.924-1.508-3.884-.341-1.105.658-1.289,1.951-2.8,2.071-1.308.1-3.131-.55-3.507-1.934-.442-1.621,1.716-5.517,5.418-6.533S366.8,241.33,367.248,242.95Z" transform="translate(-353.777 -239.84)" fill="#fff"/>
        </g>
        <g id="Group_2115" data-name="Group 2115" transform="translate(92.383 46.894)">
          <path id="Path_2400" data-name="Path 2400" d="M367.2,255.212a3.706,3.706,0,0,1-4.352,3.655,3.885,3.885,0,0,1-2.984-2.129c-.97-2.065.931-3.337,2.811-3.853C365.83,252.018,367.19,253.5,367.2,255.212Z" transform="translate(-359.598 -252.629)" fill="#fff"/>
        </g>
        <g id="Group_2116" data-name="Group 2116" transform="translate(49.711 38.244)">
          <path id="Path_2401" data-name="Path 2401" d="M324.408,243.788c1.365,1.509.482,5.464-2.544,8.2s-7.047,3.215-8.413,1.707.26-4.013,3.148-6.892C319.746,243.664,323.044,242.278,324.408,243.788Z" transform="translate(-312.962 -243.176)" fill="#1a1311"/>
        </g>
        <g id="Group_2117" data-name="Group 2117" transform="translate(50.29 41.171)">
          <path id="Path_2402" data-name="Path 2402" d="M313.6,262.432a6.836,6.836,0,0,0,.887.39,7.883,7.883,0,0,0,.912.268,6.254,6.254,0,0,0,.918.134,4.753,4.753,0,0,0,.9-.018,4.5,4.5,0,0,0,1.653-.507,4.935,4.935,0,0,0,.718-.469,6.47,6.47,0,0,0,.643-.582,7.469,7.469,0,0,0,.572-.672c.18-.235.35-.483.511-.736s.31-.516.452-.785c.074-.133.142-.269.211-.406s.132-.279.2-.415c.127-.282.252-.562.367-.85s.228-.576.33-.871c.054-.145.1-.293.155-.442s.1-.295.148-.443c.1-.3.185-.6.278-.9a.928.928,0,0,1,.7-.639h0l.216-.041.225-.049c.15-.03.3-.067.451-.1.3-.067.6-.145.9-.221.6-.152,1.2-.333,1.785-.521q.442-.139.877-.3c.29-.106.577-.212.863-.327s.562-.241.838-.368.548-.264.813-.407.522-.3.771-.461a7.577,7.577,0,0,0,.713-.525,5.549,5.549,0,0,0,.625-.6,4.137,4.137,0,0,0,.5-.7,3.266,3.266,0,0,0,.321-.793,3.34,3.34,0,0,0,.106-.873,4.836,4.836,0,0,0-.11-.916,7.7,7.7,0,0,0-.281-.917,5.129,5.129,0,0,1,.536.821,4.324,4.324,0,0,1,.355.945,3.615,3.615,0,0,1,.1,1.039,3.883,3.883,0,0,1-.208,1.049,4.818,4.818,0,0,1-.468.96,6.239,6.239,0,0,1-.643.836,7.476,7.476,0,0,1-.749.717,9.672,9.672,0,0,1-.813.623c-.281.191-.566.371-.855.542s-.587.324-.889.475-.6.294-.906.424-.612.254-.922.373-.62.228-.935.329-.628.2-.942.295-.637.177-.957.256c-.161.039-.321.077-.485.113l-.245.053-.255.052.707-.638c-.1.317-.195.64-.3.955-.051.159-.107.317-.165.476s-.112.314-.177.472c-.121.314-.253.623-.39.934s-.282.615-.443.919c-.081.147-.156.3-.245.447s-.168.3-.26.446c-.176.3-.375.579-.58.859a9.7,9.7,0,0,1-.666.813,7.976,7.976,0,0,1-.767.735,6.448,6.448,0,0,1-.875.628,5.569,5.569,0,0,1-.978.471,5.4,5.4,0,0,1-1.051.268,5.3,5.3,0,0,1-1.069.037,5.454,5.454,0,0,1-1.035-.175,5.8,5.8,0,0,1-.963-.357,6.2,6.2,0,0,1-.87-.5A5.019,5.019,0,0,1,313.6,262.432Z" transform="translate(-313.595 -246.374)" fill="#1a1311"/>
        </g>
        <g id="Group_2118" data-name="Group 2118" transform="translate(56.421 44.277)">
          <path id="Path_2403" data-name="Path 2403" d="M324.475,256.309a.905.905,0,0,1-.782-.31,22.368,22.368,0,0,1-3.34-5.006.909.909,0,0,1,1.706-.63,20.3,20.3,0,0,0,3.007,4.446.911.911,0,0,1-.591,1.5Z" transform="translate(-320.296 -249.769)" fill="#1a1311"/>
        </g>
        <g id="Group_2120" data-name="Group 2120" transform="translate(0 53.745)">
          <g id="Group_2119" data-name="Group 2119">
            <path id="Path_2404" data-name="Path 2404" d="M383.505,261.93,259.638,275.046a.909.909,0,0,1-.191-1.808l123.868-13.116a.909.909,0,0,1,.19,1.809Z" transform="translate(-258.633 -260.117)" fill="#070203"/>
          </g>
        </g>
      </g>
      <path id="Path_2405" data-name="Path 2405" d="M313.895,251.543s-2.173,2.673,2.283,3.4C316.178,254.94,313.17,254.383,313.895,251.543Z" transform="translate(-4.652 -4.264)" fill="#fff"/>
      <path id="Path_2406" data-name="Path 2406" d="M323.469,261.848s7.951.186,8.391-7.241l-6.616,1.9Z" transform="translate(-5.511 -4.524)" fill="#1a1311"/>
    </g>
  </g>
</svg>
