<svg xmlns="http://www.w3.org/2000/svg" width="1933" height="323.572" viewBox="0 0 1933 323.572">
  <g id="coming-bg" transform="translate(-1914.514 -949.871)">
    <g id="圖層_1" data-name="圖層 1" transform="translate(1 9)">
      <g id="Group_2048" data-name="Group 2048" opacity="0.5">
        <path id="Path_2339" data-name="Path 2339" d="M2035.289,1098.948c.245-.384.491-.773.749-1.15.427-.627.855-1.239,1.287-1.853.67-.916,1.334-1.807,2-2.7l.933-1.254a48.205,48.205,0,0,1,3.15-3.89c1.139-1.243,2.266-2.5,3.4-3.756l1.144-1.3c.694-.778,1.386-1.557,2.088-2.326l.53-.577c.916-1,1.829-2,2.759-2.984l.27-.281c.18-.185.352-.363.511-.543l.266-.294.77.736-.7-.821c.148-.164.3-.325.429-.5l.838.643-.743-.759c.34-.442.646-.828.931-1.245a11.42,11.42,0,0,0,1.3-2.54,13.038,13.038,0,0,0,.774-3.347,8.533,8.533,0,0,0-.019-1.339l-.014-.185c-.029-.463-.08-.941-.148-1.417a7.477,7.477,0,0,0-.746-2.293,6.7,6.7,0,0,0-.735-1.041,6.149,6.149,0,0,0-.979-.964,5.209,5.209,0,0,0-1.512-.726c-.349-.123-.684-.238-1.022-.324a9.475,9.475,0,0,0-2.061-.315h-.142a17.943,17.943,0,0,0-1.981.145,11.488,11.488,0,0,0-1.962.44c-.631.2-1.308.448-2.129.763a23.3,23.3,0,0,0-2.2.995,12.4,12.4,0,0,0-1.712,1.134c-.788.587-1.5,1.2-2.027,1.669-.209.18-.4.36-.589.538l-.278.26c-.143.132-.3.268-.451.4-.117.1-.239.216-.36.327-.594.56-1.195,1.113-1.8,1.665-.537.494-1.053,1.047-1.577,1.622-.6.648-1.184,1.306-1.765,1.98-.3.348-.587.709-.873,1.078l-.076.1c-.138.18-.29.375-.443.566-.326.411-.658.822-.989,1.235l-.322.4c-.61.748-1.21,1.492-1.8,2.249-.52.669-1.035,1.352-1.547,2.035l-.069.086c-.32.43-.637.878-.949,1.329l-.2.281q-.176.255-.358.5l-1.515,2.054c-.688.92-1.345,1.8-1.985,2.693-.916,1.295-1.889,2.685-2.792,4.1-.485.765-.964,1.53-1.428,2.314-.349.595-.705,1.243-1.077,1.981-.813,1.6-1.429,2.915-1.938,4.143a1.057,1.057,0,0,1-.147.262h-1.5a1.271,1.271,0,0,1-.2-1.094l.141-.524c.092-.369.188-.754.289-1.132a41.792,41.792,0,0,1,1.379-4.081l.293-.771c.595-1.616,1.193-3.234,1.809-4.835.809-2.128,1.635-4.251,2.461-6.37.641-1.53,1.3-3.03,1.949-4.483l.161-.358c.713-1.6,1.4-3.211,2.092-4.825l.562-1.3c.142-.324.283-.649.419-.974l.455-1.086c.161-.381.322-.769.488-1.151.772-1.779,1.486-3.326,2.178-4.728.786-1.6,1.586-3.192,2.387-4.785.762-1.519,1.524-3.039,2.279-4.573.7-1.425,1.416-2.912,2.173-4.544.406-.855.805-1.706,1.226-2.545q.433-.858.876-1.7l.206-.4c1.89-3.63,3.441-6.51,4.883-9.069.471-.832.944-1.65,1.433-2.465l.734-1.216c.178-.295.354-.587.53-.886.845-1.415,1.734-2.815,2.595-4.171l.151-.235c.639-1,1.3-1.982,1.96-2.959l1.155-1.725c.7-1.048,1.4-2.1,2.109-3.148,1.441-2.134,2.961-4.3,4.307-6.211l1.064-1.523c.918-1.271,1.887-2.627,2.855-4.039l.193-.273c.783-1.135,1.668-2.427,2.492-3.709q.753-1.158,1.473-2.329c.392-.622.753-1.3,1.107-1.958l.125-.238c.656-1.227,1.315-2.593,2.075-4.3l.22-.49c.265-.591.533-1.188.778-1.79.354-.874.7-1.754,1.031-2.645.248-.679.455-1.429.638-2.087l.1-.35c.16-.579.294-1.216.42-1.836l.118-.571c.023-.113.043-.239.058-.364l.076-.464c.028-.176.056-.337.076-.5l.045-.4c.037-.274.067-.532.083-.784l.013-.3c.017-.319.034-.614.032-.914,0-.464-.008-.929-.022-1.392a15.674,15.674,0,0,0-.4-3.517,9.947,9.947,0,0,0-.482-1.278,5.9,5.9,0,0,0-.423-.776l-.131-.216a13.725,13.725,0,0,0-1.687-2.274,8.51,8.51,0,0,0-2.028-1.616,12.264,12.264,0,0,0-2.8-1.172,11.207,11.207,0,0,0-2.546-.387l-.356-.008c-.189-.007-.361-.017-.535-.017l-.327.012a18.054,18.054,0,0,0-2.234.2l-.343.056c-.248.034-.477.067-.7.119l-.4.088c-.285.057-.491.1-.692.16l-1.157.358c-.216.069-.427.147-.635.227l-.426-1.048.317,1.09-.363.136c-.243.094-.478.2-.712.3l-.351.157c-.277.121-.551.253-.821.383l-.429.206a17.448,17.448,0,0,0-1.786.991c-1.2.748-2.445,1.6-4.037,2.777a22.357,22.357,0,0,0-1.778,1.426l-.972.878c-.226.207-.44.425-.652.635l-.305.306c-1.025,1-2.055,2.129-2.882,3.035l-.5.547c-.66.717-1.327,1.423-2,2.131l-1.256,1.337c-2.227,2.381-4.445,4.861-6.78,7.571-.959,1.124-1.873,2.329-2.879,3.676q-.81,1.089-1.616,2.186c-.516.711-1.016,1.436-1.519,2.163l-.21.3c-1.734,2.513-3.693,5.353-5.494,8.206l-.272.427c-.31.489-.617.977-.908,1.474-.407.7-.785,1.383-1.221,2.2-.458.851-.91,1.7-1.351,2.563-.3.572-.582,1.157-.861,1.74l-.229.471q-2,4.135-3.961,8.29l-.519,1.092c-1.524,3.209-2.855,6.56-4.065,9.7-.188.484-.36.979-.53,1.473l-.279.8c-.258.723-.49,1.452-.717,2.18l-.045.136c-.51,1.614-1.049,3.326-1.525,5.015q-1.09,3.846-2.212,7.678l-.828,2.84c-.308,1.073-.656,2.152-.994,3.2l-.482,1.533q-.774,2.474-1.509,4.967-1.547,5.253-3.071,10.509c-.163.572-.327,1.138-.5,1.7l-.047.169c-.285.973-.568,1.948-.841,2.93-.258.906-.505,1.822-.742,2.74l-.086.32c-.159.612-.323,1.224-.46,1.843-.372,1.633-.771,3.4-1.085,5.139-.178.949-.335,1.884-.483,2.836-.129.815-.24,1.635-.353,2.46l-.038.3c-.073.537-.136,1.073-.2,1.6a1.029,1.029,0,0,1-1.031.993,1.075,1.075,0,0,1-.956-1.086l-.012-.253c-.059-.444-.126-.887-.193-1.329-.086-.564-.169-1.13-.239-1.693-.134-1.057-.252-2.134-.347-3.191l-.082-.96c-.114-1.324-.225-2.619-.288-3.9q-.142-2.647-.261-5.3l-.051-1.089c-.027-.573-.05-1.1-.08-1.618l-.036-.612c-.039-.632-.077-1.239-.1-1.843-.08-2.031-.115-3.829-.1-5.493l0-.3c.006-.8.014-1.6.037-2.408.019-.7.05-1.394.08-2.1l.031-.625c.025-.6.057-1.2.089-1.8l.043-.845c.051-.979.1-1.887.132-2.8.078-2.184.136-4.372.193-6.562l.023-.883q.039-1.612.086-3.228l.19-6.667q.209-7.287.392-14.581c.041-1.616.077-3.24.089-4.857l.007-1.525c.006-1.365.013-2.731.043-4.094.083-3.915.214-7.4.4-10.668.059-1.079.125-2.159.193-3.234l.141-2.251q.144-2.493.274-5c.034-.713.076-1.427.118-2.142l.025-.459c.059-1.037.121-2.071.174-3.106.077-1.4.167-2.794.26-4.194l.235-3.444c.064-.912.129-1.827.18-2.741.1-1.736.14-3.509.181-5.223l.016-.583c.073-3.3.148-6.7,0-10.014-.053-1.2-.15-2.486-.294-3.926a39,39,0,0,0-.572-4.043c-1.155-5.567-3.7-12.2-9.276-12.2-3.782,0-8.376,3.066-12.939,8.626-.3.374-.593.74-.876,1.126-.34.471-.679.937-1.009,1.423s-.574.849-.814,1.26l-.1.178c-.248.425-.455.782-.642,1.155l-.143.283c-.188.369-.363.719-.521,1.089l-.2.483c-.144.335-.32.737-.456,1.133l-.072.208c-4.437,12.877-7.5,35.509-7.8,49.089-.032,1.108-.125,4.45-.112,7.757.006,2.637.071,5.353.19,8.09.05,1.218.132,2.457.21,3.513.043.593.09,1.18.134,1.771.061.775.119,1.509.169,2.236l.129,1.989c.129,1.987.257,3.976.416,5.965q.129,1.732.252,3.463.158,2.3.341,4.594l.254,3.308c.086,1.1.184,2.209.282,3.315a1.31,1.31,0,0,1,.052.285c.079,1.224.192,2.543.351,4.153.088.941.206,1.877.323,2.808l.124,1.019c.276,2.253.631,4.594.945,6.66l.155,1.006c.437,2.9.771,5.374,1.054,7.779.193,1.622.4,3.242.614,4.856l.388,2.968c.212,1.626.375,3.227.552,5l.031.3c.088.859.174,1.712.27,2.561.1.885.2,1.761.315,2.639l.061.5a1.187,1.187,0,0,1-.585,1.2h-.807a1.074,1.074,0,0,1-.514-.591l-1.347-3.519c-.423-1.088-.863-2.174-1.3-3.255l-2.18-5.378c-.266-.66-.532-1.317-.806-1.972-.935-2.245-1.948-4.63-3.04-6.923-.634-1.338-1.152-2.386-1.686-3.4q-.882-1.679-1.788-3.345c-.581-1.067-1.17-2.119-1.763-3.171l-.259-.464c-.643-1.148-1.243-2.217-1.833-3.286-.574-1.048-1.2-2.136-1.92-3.333-.618-1.033-1.3-2.072-1.951-3.037-1.365-2.047-2.851-4.2-4.419-6.394-1.27-1.79-2.689-3.7-4.458-6.038-.869-1.143-1.55-2-2.211-2.8s-1.385-1.612-2.35-2.665c-1.458-1.6-3.192-3.474-5.034-5.288q-.594-.589-1.211-1.179v-2.964q1.3,1.2,2.513,2.408c1.875,1.853,3.635,3.75,5.11,5.366.987,1.077,1.733,1.922,2.415,2.739s1.383,1.708,2.273,2.878c1.783,2.347,3.215,4.284,4.5,6.088,1.581,2.218,3.079,4.389,4.456,6.45.663.995,1.371,2.062,2.012,3.135.734,1.22,1.377,2.339,1.962,3.412s1.186,2.122,1.786,3.2l.3.532c.6,1.065,1.193,2.125,1.778,3.2q.912,1.678,1.8,3.374c.548,1.046,1.079,2.121,1.727,3.488,1.114,2.339,2.142,4.763,3.085,7.029.279.66.547,1.329.821,2l2.1,5.187c-.118-1.156-.24-2.248-.38-3.347l-.384-2.913c-.218-1.683-.431-3.309-.624-4.94-.279-2.379-.614-4.825-1.044-7.7l-.15-.983c-.321-2.1-.678-4.464-.959-6.751l-.124-1.018c-.119-.956-.24-1.922-.331-2.884-.142-1.467-.249-2.7-.33-3.84a1.2,1.2,0,0,1-.04-.22c-.111-1.241-.22-2.49-.321-3.735l-.249-3.3c-.127-1.536-.237-3.083-.346-4.622q-.123-1.719-.251-3.445c-.16-1.994-.288-3.991-.417-6l-.128-1.985c-.049-.717-.106-1.438-.164-2.167-.05-.635-.1-1.23-.137-1.828-.079-1.071-.165-2.335-.217-3.588-.12-2.764-.185-5.523-.191-8.189-.012-3.349.08-6.723.113-7.83.3-13.77,3.418-36.756,7.935-49.875l.073-.2c.156-.463.357-.922.517-1.3l.2-.474c.173-.415.373-.817.588-1.237l.141-.285c.206-.406.432-.8.7-1.255l.111-.2c.262-.457.539-.87.878-1.369.366-.541.719-1.031,1.076-1.519.309-.424.626-.822.957-1.224,5.007-6.116,9.987-9.348,14.389-9.348,3.8,0,8.825,2.421,11.219,13.959a40.727,40.727,0,0,1,.612,4.313c.149,1.482.25,2.815.307,4.068.15,3.4.072,6.844,0,10.17l-.017.6c-.04,1.748-.083,3.542-.186,5.321-.049.927-.113,1.847-.176,2.771l-.237,3.446c-.092,1.383-.183,2.763-.258,4.152q-.081,1.56-.172,3.117l-.029.463c-.04.708-.082,1.417-.117,2.127q-.13,2.51-.275,5.022l-.138,2.222c-.068,1.1-.135,2.173-.193,3.249-.183,3.234-.312,6.692-.394,10.576-.03,1.35-.038,2.7-.041,4.053l-.008,1.528c-.012,1.637-.048,3.272-.09,4.907-.115,4.862-.255,9.729-.393,14.589l-.191,6.67c-.032,1.077-.058,2.148-.085,3.219l-.024.885c-.057,2.2-.115,4.393-.193,6.589-.034.925-.082,1.849-.128,2.767l-.051.918c-.027.6-.06,1.192-.087,1.783l-.028.623c-.031.689-.06,1.371-.077,2.058-.027.79-.032,1.572-.036,2.356l0,.3c-.017,1.62.013,3.372.1,5.361.025.583.058,1.176.1,1.792l.036.616c.032.531.056,1.067.079,1.6l.053,1.14q.121,2.644.259,5.286c.064,1.242.172,2.511.277,3.737l.007.086c.323-1.776.739-3.614,1.076-5.1.165-.727.332-1.372.5-2.014l.084-.32c.241-.927.49-1.855.751-2.778.278-.993.562-1.972.852-2.959l.539-1.855c1.01-3.513,2.045-7.017,3.078-10.524.493-1.679,1-3.345,1.517-5.011l.491-1.549c.33-1.023.667-2.083.971-3.131l.8-2.748.026-.092c.742-2.549,1.485-5.1,2.207-7.661.486-1.723,1.033-3.46,1.551-5.089l.042-.138c.232-.748.476-1.507.738-2.249l.278-.8c.182-.52.364-1.041.562-1.551,1.226-3.185,2.576-6.589,4.137-9.869l.517-1.092c1.317-2.773,2.636-5.548,3.97-8.3l.223-.464c.293-.61.585-1.219.9-1.813.448-.865.9-1.731,1.367-2.59s.84-1.559,1.261-2.278c.3-.522.629-1.034.954-1.547l.268-.422c1.828-2.9,3.8-5.755,5.542-8.278l.214-.309c.515-.744,1.024-1.486,1.557-2.213q.812-1.113,1.63-2.209c1.03-1.377,1.965-2.616,2.97-3.789,2.356-2.736,4.594-5.234,6.843-7.642l1.262-1.34c.661-.7,1.321-1.4,1.974-2.11l.479-.526c.863-.945,1.915-2.1,2.97-3.129l.278-.279c.256-.258.5-.5.746-.721l.978-.883a23.384,23.384,0,0,1,1.935-1.559c1.636-1.2,2.919-2.083,4.161-2.857a17.842,17.842,0,0,1,1.972-1.1l.43-.21c.29-.136.583-.276.874-.4l.336-.153c.262-.115.534-.237.813-.342l.362-.136.111-.042c.24-.1.485-.188.738-.264l1.165-.358c.254-.078.516-.139.78-.193l.431-.092c.273-.063.555-.105.837-.145l.318-.052a21.646,21.646,0,0,1,2.386-.22l.109-.005c.012,0,.082,0,.094,0l.26-.006c.2,0,.4.008.6.019l.336,0a13.8,13.8,0,0,1,2.953.448,14.289,14.289,0,0,1,3.227,1.348,10.405,10.405,0,0,1,2.517,2.01,16.2,16.2,0,0,1,1.967,2.643l.121.2a8.809,8.809,0,0,1,.574,1.065,12.727,12.727,0,0,1,.589,1.585,17.652,17.652,0,0,1,.491,4.127c.02.488.023.978.027,1.469,0,.356-.015.71-.034,1.077l-.017.3c-.018.325-.058.647-.095.962l-.043.377c-.022.207-.059.425-.1.631l-.069.423c-.022.158-.047.336-.081.5l-.1.5c-.151.742-.291,1.427-.482,2.1l-.1.344c-.195.7-.415,1.5-.7,2.272-.343.918-.7,1.823-1.064,2.722-.256.631-.532,1.25-.809,1.868l-.218.488c-.785,1.761-1.469,3.176-2.151,4.452l-.125.239c-.371.7-.752,1.409-1.181,2.1-.494.792-.989,1.576-1.494,2.358-.84,1.312-1.742,2.618-2.535,3.772l-.191.273c-.974,1.423-1.958,2.8-2.872,4.062l-1.059,1.515c-1.338,1.9-2.852,4.054-4.283,6.175q-1.055,1.569-2.1,3.139l-1.155,1.724c-.653.972-1.305,1.938-1.931,2.919l-.127.195c-.874,1.377-1.754,2.763-2.578,4.146-.18.3-.358.6-.541.9l-.735,1.212c-.474.794-.937,1.6-1.4,2.414-1.428,2.53-2.969,5.393-4.845,8.994l-.207.4c-.289.559-.574,1.113-.857,1.672-.411.822-.806,1.658-1.2,2.492-.766,1.644-1.484,3.144-2.194,4.584-.756,1.539-1.523,3.069-2.289,4.592q-1.2,2.38-2.38,4.767c-.675,1.368-1.37,2.883-2.127,4.625-.163.373-.319.746-.476,1.122l-.454,1.079c-.143.337-.288.673-.433,1.012l-.559,1.283c-.694,1.622-1.386,3.244-2.106,4.863l-.158.35c-.637,1.439-1.3,2.919-1.917,4.4-.769,1.981-1.551,3.989-2.318,6,.561-.826,1.127-1.627,1.673-2.4.651-.914,1.319-1.8,1.988-2.7l1.519-2.058c.124-.169.236-.327.347-.488l.2-.273c.324-.469.655-.934.994-1.389l.07-.09c.52-.688,1.041-1.379,1.568-2.059.6-.769,1.213-1.526,1.823-2.284l.267-.327.055-.073c.326-.4.653-.812.976-1.222.15-.185.3-.369.436-.556l.082-.1c.3-.386.612-.782.936-1.155.6-.69,1.2-1.363,1.805-2.029.56-.608,1.109-1.195,1.706-1.746s1.19-1.1,1.79-1.658c.136-.128.27-.247.4-.365s.273-.239.4-.358l.277-.258c.207-.195.421-.394.641-.585.55-.49,1.3-1.136,2.151-1.769a13.849,13.849,0,0,1,1.988-1.307,25.148,25.148,0,0,1,2.365-1.069c.856-.329,1.563-.583,2.232-.8a13.209,13.209,0,0,1,2.288-.511,19.341,19.341,0,0,1,2.193-.16h.153a10.982,10.982,0,0,1,2.467.369c.39.1.779.229,1.18.367a6.97,6.97,0,0,1,2.062,1.031,8.167,8.167,0,0,1,1.307,1.283,8.466,8.466,0,0,1,1,1.444,10,10,0,0,1,1,3.075c.08.553.137,1.1.174,1.637l.009.176a10.78,10.78,0,0,1,.015,1.771,15.654,15.654,0,0,1-.931,4.016,13.832,13.832,0,0,1-1.576,3.047c-.3.436-.627.855-1,1.333-.005.008-.1.128-.106.136-.161.206-.338.4-.513.6,0,0-.08.088-.082.094l-.256.281c-.17.2-.368.4-.564.6l-.262.277c-.922.964-1.827,1.956-2.731,2.945l-.53.578c-.7.763-1.379,1.533-2.066,2.308l-1.149,1.293q-1.7,1.911-3.416,3.785a47.018,47.018,0,0,0-3.006,3.715l-.914,1.226c-.677.917-1.339,1.811-1.993,2.7-.356.509-.719,1.025-1.079,1.549Zm-115.259-7.9.445.541c.432.518.862,1.017,1.3,1.515l.158.183c.267.308.532.616.792.924.917,1.082,1.843,2.153,2.765,3.226l2.655,3.079c.627.735,1.251,1.467,1.859,2.224.243.3.479.614.715.928.165.224.287.388.408.545.336.442.671.882,1,1.327,1.308,1.744,2.709,3.573,4.544,5.927.988,1.27,1.971,2.6,2.895,3.876h-2.6c-.586-.793-1.182-1.581-1.778-2.348-1.845-2.366-3.255-4.205-4.573-5.967-.325-.438-.658-.872-.988-1.3-.133-.174-.261-.346-.389-.524-.251-.333-.471-.63-.7-.909-.6-.742-1.209-1.453-1.822-2.168l-2.642-3.076c-.935-1.08-1.864-2.157-2.785-3.245-.255-.3-.516-.6-.777-.909l-.154-.179-.325-.373v-3.295Z" fill="#fff"/>
        <g id="Group_2047" data-name="Group 2047" transform="translate(68.739 27)">
          <path id="Path_2340" data-name="Path 2340" d="M2046,1080.869q-.447-1.623-.876-3.251a1.292,1.292,0,0,1,.085-.9,1.026,1.026,0,0,1,.623-.547.925.925,0,0,0,.281-.135c.029-.023.058-.043.082-.066a1.022,1.022,0,0,1,.215-.154l.308-.169c.122-.065.236-.136.346-.2a8.486,8.486,0,0,0,1.2-.915,23.315,23.315,0,0,0,2.4-2.429,14.619,14.619,0,0,0,.92-1.226c2.084-3.085,2.383-6.019,1.775-7.442a1.211,1.211,0,0,0-1.15-.868c-.564,0-2.132.363-4.473,3.745-.614.893-1.192,1.88-1.752,2.83l-.219.377c-.221.379-.445.757-.662,1.142a.954.954,0,0,1-.993.514,1.061,1.061,0,0,1-.811-.837c-.207-.905-.415-1.815-.62-2.724-.194-.87-.394-1.738-.594-2.607a1.244,1.244,0,0,1,.363-1.21.756.756,0,0,0,.1-.1,1.2,1.2,0,0,1,.164-.171,3.541,3.541,0,0,0,.625-.746c.358-.51.687-1.078.991-1.621a19.764,19.764,0,0,0,1.308-2.9,29.128,29.128,0,0,0,1.058-3.394c.13-.526.236-1.062.336-1.593.245-1.289.215-2.986-.688-3.542a1.588,1.588,0,0,0-1.838.275,7.364,7.364,0,0,0-.646.662c-.074.09-.14.185-.2.279-.084.13-.166.262-.239.394l-.15.243a26.347,26.347,0,0,0-1.4,2.569c-.205.43-.392.868-.572,1.313a1,1,0,0,1-.953.662,1.019,1.019,0,0,1-.9-.761q-.444-1.428-.921-2.846-.408-1.188-.832-2.362a1.25,1.25,0,0,1,.319-1.35,3.04,3.04,0,0,0,.578-.633,8.666,8.666,0,0,0,.732-1.394c.48-1.161.882-2.36,1.313-3.7l.092-.285a17.268,17.268,0,0,0,.888-3.5,6.263,6.263,0,0,0-.019-1.924,1.592,1.592,0,0,0-.935-1.247c-.4-.107-.775.042-1.282.507a.849.849,0,0,1-.187.13,1.205,1.205,0,0,0-.323.264,4.088,4.088,0,0,0-.306.39c-.079.111-.158.232-.239.352-.192.295-.375.6-.553.9a19.178,19.178,0,0,0-.9,1.849l-.078.174c-.172.39-.333.788-.488,1.188a1.013,1.013,0,0,1-.905.677h-.005a1,1,0,0,1-.908-.662c-.427-1.052-.917-2.272-1.362-3.488q-.725-2-1.417-4a1.3,1.3,0,0,1,.047-.966,1.011,1.011,0,0,1,.675-.579l.09-.025a1.7,1.7,0,0,0,.57-.361.7.7,0,0,1,.146-.11,1.524,1.524,0,0,0,.4-.359,7.181,7.181,0,0,0,.391-.606l.148-.247c.258-.423.49-.864.721-1.306l.05-.094q.819-1.56,1.6-3.15a18.151,18.151,0,0,0,1.381-4.012,12.05,12.05,0,0,0,.23-1.979,3.344,3.344,0,0,0-.306-1.611,1.42,1.42,0,0,0-.85-.79,1.576,1.576,0,0,0-.705,0,2.1,2.1,0,0,0-.6.346,7.927,7.927,0,0,0-1.136,1.414c-.334.512-.644,1.069-.935,1.6-.629,1.132-1.1,2.069-1.486,2.952-.4.922-.761,1.85-1.06,2.638a1,1,0,0,1-.915.688h-.012a1.007,1.007,0,0,1-.913-.717c-.339-.954-.653-1.78-.965-2.526a1.155,1.155,0,0,0-.145-.238,1.247,1.247,0,0,1-.242-.979.887.887,0,0,0-.01-.334c-.179-.777-.28-1.559-.38-2.312q-.054-.423-.113-.842a14.557,14.557,0,0,0-.939-3.278c-1.8-4.483-3.69-6.076-4.76-6.076a1.045,1.045,0,0,0-.937.671c-.6,1.129-.709,3.73.943,7.342a26.812,26.812,0,0,0,1.85,3.307,19.608,19.608,0,0,0,1.709,2.383,9.505,9.505,0,0,0,.695.681l.1.088a1.112,1.112,0,0,1,.321.537c.023.069.046.146.075.23.082.239.17.493.25.744l.683,2.132a1.271,1.271,0,0,1-.233,1.2.9.9,0,0,1-1.052.264c-.185-.08-.379-.151-.572-.224s-.373-.145-.554-.219l-.5-.209a13.347,13.347,0,0,0-1.82-.673,4.21,4.21,0,0,0-2.2-.163,2.8,2.8,0,0,0-1.245.79,3.856,3.856,0,0,0-.346.446,1.36,1.36,0,0,0-.162.3l-.11.625a2.524,2.524,0,0,0,.1.679c.12.249.239.48.367.7a5.373,5.373,0,0,0,.6.672,6.632,6.632,0,0,0,1.448,1.015,22.868,22.868,0,0,0,2.36,1.146,29.312,29.312,0,0,0,4.486,1.32,6.4,6.4,0,0,1,1.022.336.821.821,0,0,0,.305.059,1.04,1.04,0,0,1,.953.721c.184.528.369,1.052.558,1.578.5,1.383,1.064,2.773,1.607,4.121.218.538.436,1.079.651,1.618a1.274,1.274,0,0,1-.2,1.28.91.91,0,0,1-1.111.247,15.579,15.579,0,0,0-1.486-.664,7.033,7.033,0,0,0-2.513-.492c-2.407,0-4.03,1.435-4.032,2.777-.007,1.637,2.531,3.424,8.119,3.475l.467,0a17.333,17.333,0,0,1,2.18.109.74.74,0,0,1,.174.042,3.638,3.638,0,0,1,.5.211.4.4,0,0,0,.1.034,1.055,1.055,0,0,1,.736.708l.1.283c.509,1.514,1.028,3.119,1.636,5.054a1.265,1.265,0,0,1-.281,1.247.9.9,0,0,1-1.115.157c-.24-.138-.479-.271-.718-.4l-.187-.1a9.885,9.885,0,0,0-1.054-.531,15.826,15.826,0,0,0-3.2-.9,8.684,8.684,0,0,0-1.287-.129c-.106-.005-.213-.007-.319-.007a1.938,1.938,0,0,0-1.41.382,3.29,3.29,0,0,0-.316.391,1.121,1.121,0,0,0-.159.355,2,2,0,0,0,.09,1.3,3.633,3.633,0,0,0,1.129,1.277,7.531,7.531,0,0,0,1.385.788l.12.057a31.749,31.749,0,0,0,2.974,1.207l.694.258c.677.251,1.382.513,2.067.714.574.162,1.159.306,1.743.438l.172.036a4.98,4.98,0,0,0,.759.14,1.037,1.037,0,0,1,.9.847q.248,1.073.486,2.15l.143.617c.148.67.3,1.343.456,2.016a1.251,1.251,0,0,1-.333,1.18.906.906,0,0,1-1.077.138,14.754,14.754,0,0,0-2.472-1.169,18.98,18.98,0,0,0-3.141-.807c-.554-.092-1.015-.147-1.451-.182a3.624,3.624,0,0,0-1.8.272,1.37,1.37,0,0,0-.49.48.849.849,0,0,0-.061.1,1.8,1.8,0,0,0-.176.4c-.02.119-.046.262-.07.408.005.162.015.323.026.485a2.361,2.361,0,0,0,.316.672,2.956,2.956,0,0,0,.342.436,7.265,7.265,0,0,0,1.5,1.226,12.261,12.261,0,0,0,2.867,1.31c.392.122.8.227,1.2.332l.188.052c1.017.262,2.04.465,3.274.69.3.056.6.1.908.146l.4.059c.177.033.336.067.494.1a.415.415,0,0,0,.107.01,1.555,1.555,0,0,1,.305.008,1.152,1.152,0,0,1,.911.81c.118.439.238.873.358,1.305l.642,2.281h-2.1l-.446-1.575c-.051-.2-.106-.395-.16-.593-.143-.027-.271-.056-.4-.079l-.365-.055c-.323-.046-.647-.1-.966-.157-1.268-.231-2.331-.442-3.4-.721l-.193-.052c-.423-.111-.85-.222-1.27-.354a14.218,14.218,0,0,1-3.3-1.5,9.421,9.421,0,0,1-1.909-1.562,5.174,5.174,0,0,1-.583-.75,4.287,4.287,0,0,1-.7-1.828c-.02-.232-.031-.482-.039-.735a1.255,1.255,0,0,1,.019-.294l.1-.555a4.046,4.046,0,0,1,.413-1.076c.044-.092.109-.2.178-.312a3.446,3.446,0,0,1,1.38-1.249,5.5,5.5,0,0,1,2.639-.415c.485.036,1,.1,1.6.2a21.372,21.372,0,0,1,3.439.887c.278.1.562.207.849.331l-.078-.356q-.156-.693-.316-1.39c-.1-.025-.2-.046-.294-.069l-.163-.034c-.618-.14-1.237-.289-1.853-.467-.752-.22-1.482-.493-2.188-.755l-.685-.253a33.806,33.806,0,0,1-3.146-1.277l-.114-.057a9.163,9.163,0,0,1-1.743-1.01,5.546,5.546,0,0,1-1.793-2.158,4.546,4.546,0,0,1-.242-2.834,3.429,3.429,0,0,1,.507-1.2,5.135,5.135,0,0,1,.559-.7,3.639,3.639,0,0,1,2.764-.992c.133,0,.261.005.387.011a10.415,10.415,0,0,1,1.548.157,18.32,18.32,0,0,1,3.525.989c-.251-.775-.492-1.505-.728-2.213-.048-.021-.1-.038-.141-.059a17.075,17.075,0,0,0-1.867-.079l-.474,0c-7.461-.071-10.109-3.03-10.1-5.776.01-2.834,2.658-5.057,6.03-5.057a8.464,8.464,0,0,1,2.492.387c-.438-1.092-.88-2.207-1.285-3.332-.117-.321-.233-.65-.348-.975a2.968,2.968,0,0,1-.314-.107,4.628,4.628,0,0,0-.741-.245,31.3,31.3,0,0,1-4.749-1.408,24.376,24.376,0,0,1-2.552-1.235,8.584,8.584,0,0,1-1.871-1.331,7.336,7.336,0,0,1-.875-.991.745.745,0,0,1-.055-.082,8.514,8.514,0,0,1-.5-.951,4.615,4.615,0,0,1-.339-1.987,1.23,1.23,0,0,1,.018-.156l.13-.721a3.261,3.261,0,0,1,.516-1.2,5.8,5.8,0,0,1,.569-.734,4.719,4.719,0,0,1,2.094-1.341,5.97,5.97,0,0,1,3.171.142,12.854,12.854,0,0,1,1.684.6c-.059-.182-.124-.366-.183-.545l-.005-.012a9.788,9.788,0,0,1-.727-.728,21.076,21.076,0,0,1-1.916-2.659,29.252,29.252,0,0,1-2.005-3.59c-1.731-3.78-2.062-7.368-.887-9.6a3.019,3.019,0,0,1,2.648-1.773c2.289,0,4.686,2.7,6.572,7.409a16.888,16.888,0,0,1,1.094,3.854c.042.292.082.587.12.877.1.729.186,1.417.338,2.073a3.694,3.694,0,0,1,.087.785,2.766,2.766,0,0,1,.174.355c.038.09.078.184.118.276.052-.129.107-.257.165-.387.415-.954.92-1.962,1.587-3.157.308-.561.644-1.161,1.021-1.739a10.075,10.075,0,0,1,1.465-1.805,3.792,3.792,0,0,1,1.192-.734,3.135,3.135,0,0,1,1.652-.119,3.334,3.334,0,0,1,2.276,1.857,5.826,5.826,0,0,1,.6,2.959,14.7,14.7,0,0,1-.289,2.4,20.426,20.426,0,0,1-1.576,4.565q-.79,1.621-1.628,3.215l-.049.092c-.255.484-.512.973-.794,1.438l-.138.224a8.484,8.484,0,0,1-.549.843,3.612,3.612,0,0,1-.874.807c-.109.092-.216.176-.321.254q.51,1.47,1.042,2.928c.151.41.3.813.455,1.217a14.814,14.814,0,0,1,.689-1.343c.193-.338.4-.671.613-1,.089-.136.179-.266.269-.4a6.609,6.609,0,0,1,.44-.562,4.971,4.971,0,0,1,3.685-1.536,3.707,3.707,0,0,1,2.418,2.949,8.685,8.685,0,0,1,.058,2.72,19.39,19.39,0,0,1-1,4.037l-.091.273c-.451,1.391-.866,2.642-1.384,3.889a11.256,11.256,0,0,1-.932,1.778,4.31,4.31,0,0,1-.377.495c.2.549.383,1.1.57,1.647.058.163.111.327.165.494.377-.739.732-1.364,1.09-1.936l.134-.22c.092-.151.185-.3.281-.451a5.118,5.118,0,0,1,.348-.48,8.1,8.1,0,0,1,.765-.794l.066-.065a3.419,3.419,0,0,1,4.055-.522c1.877,1.159,2.1,3.88,1.691,6.041-.107.572-.224,1.148-.361,1.72a31.653,31.653,0,0,1-1.15,3.693,22.243,22.243,0,0,1-1.467,3.238c-.332.589-.7,1.214-1.1,1.795a7.264,7.264,0,0,1-.725.909q.221.963.44,1.937c.017.077.036.159.056.245.474-.807.965-1.622,1.505-2.4,2.637-3.816,4.739-4.615,6.035-4.615a3.2,3.2,0,0,1,2.945,2.147c1.1,2.573.316,6.438-1.992,9.855a15.474,15.474,0,0,1-1.071,1.418,25.615,25.615,0,0,1-2.613,2.654,10.656,10.656,0,0,1-1.42,1.081c-.2.118-.332.2-.472.279l-.236.128c-.019.019-.042.034-.064.052q.32,1.192.645,2.377c.05-.077.1-.155.148-.232a10.785,10.785,0,0,1,3.008-3.167l.088-.059a7.039,7.039,0,0,1,1.7-.889,4.393,4.393,0,0,1,1.069-.2l.136-.008a3.06,3.06,0,0,1,1.35.381l.134.063a3.609,3.609,0,0,1,1.374,1.448,5.953,5.953,0,0,1,.364.858,6.076,6.076,0,0,1,.142,2.4h-2.033v-.013a3.648,3.648,0,0,0,.011-1.628,4.793,4.793,0,0,0-.212-.476,2.086,2.086,0,0,0-.422-.484l-.12-.055a1.563,1.563,0,0,0-.588-.2,2.791,2.791,0,0,0-.683.127,5.28,5.28,0,0,0-1.234.669l-.087.055a8.1,8.1,0,0,0-2.02,2.01Zm-8.548,0,.005,0a4.586,4.586,0,0,1,1.069-.114l.209.008a5.3,5.3,0,0,1,.933.11Zm48.9,0c1.138-1.22,1.535-2.272,1.367-2.9-.14-.543-.795-.878-1.71-.878a7.247,7.247,0,0,0-3.922,1.5c-.314.218-.617.453-.914.7a.9.9,0,0,1-1.14.017,1.2,1.2,0,0,1-.436-.842,1.347,1.347,0,0,1,.025-.449l.1-.425c.009-.026.015-.051.023-.078l.088-.392.1.021a.594.594,0,0,1,.067-.084l-.144-.04c0-.016.02-.09.024-.106l.159-.669c0-.006.024-.09.024-.094l.151-.627c0-.006.025-.1.027-.107s.008-.025.01-.038c.431-1.746.923-3.485,1.4-5.174l.5-1.772a.992.992,0,0,1,1.1-.781,6.767,6.767,0,0,0,1.136.079l.837-.01c1.036-.015,2.076-.046,3.11-.08a24.791,24.791,0,0,0,3.695-.419,8.347,8.347,0,0,0,1.625-.505,7.788,7.788,0,0,0,1.835-1.012,5.16,5.16,0,0,0,.615-.579l.157-.233c.025-.037.05-.073.077-.106a1.255,1.255,0,0,0,.275-.562.872.872,0,0,1,.035-.13,2.287,2.287,0,0,0-.169-1.748,2.909,2.909,0,0,0-1.96-1.155,13.407,13.407,0,0,0-1.476-.268,17.307,17.307,0,0,0-3.32-.187,11.661,11.661,0,0,0-1.347.174l-.229.038a15.855,15.855,0,0,0-1.607.319,7.019,7.019,0,0,0-.711.243.911.911,0,0,1-1.031-.281,1.275,1.275,0,0,1-.233-1.184c.924-3.023,2.019-6.175,3.337-9.631a.991.991,0,0,1,1.079-.673c.135.027.273.057.409.086.338.077.672.157,1,.237.607.146,1.212.291,1.825.4a15.467,15.467,0,0,0,2.755.214l.477,0c4.92-.091,7.193-2.52,7.181-4.134-.011-1.586-2.229-3.3-6.991-3.081a21.889,21.889,0,0,0-3.3.353.951.951,0,0,1-.968-.437,1.274,1.274,0,0,1-.1-1.186l2.191-5.284c.577-1.394,1.205-2.837,1.922-4.4a.954.954,0,0,1,1.178-.564,9.913,9.913,0,0,0,1.465.369c1.153.21,2.348.352,3.466.476.334.037.671.083,1.011.123.674.086,1.312.168,1.954.2a13.151,13.151,0,0,0,2.294-.045,10.353,10.353,0,0,0,1.859-.442,5.848,5.848,0,0,0,2.044-1.282,2.73,2.73,0,0,0,.8-1.279,2.26,2.26,0,0,0-.123-1.641,3.362,3.362,0,0,0-1.636-1.272,9.849,9.849,0,0,0-3.045-.906,19.3,19.3,0,0,0-6.455.245.952.952,0,0,1-1-.477,1.3,1.3,0,0,1-.03-1.248c.424-.8.856-1.6,1.287-2.393.881-1.629,1.778-3.354,2.661-5.125.251-.5.506-.983.76-1.471a.94.94,0,0,1,1.2-.48,2.073,2.073,0,0,0,.279.092c.151.04.291.065.428.09l.5.1c.386.075.772.155,1.157.258.833.224,1.826.476,2.858.651a20.981,20.981,0,0,0,3.449.3c5.693,0,8.392-2.708,8.422-4.538.027-1.663-2.1-3.542-6.833-3.748l-.283-.013c-.621-.024-1.245-.054-1.866-.054a11.46,11.46,0,0,0-2.668.266c-.186.044-.371.093-.551.143a.934.934,0,0,1-1.059-.459,1.278,1.278,0,0,1,0-1.3c.511-.853,1.009-1.712,1.508-2.573l.657-1.145c.236-.417.476-.834.716-1.245.179-.3.351-.606.521-.916l.313-.574c.1-.166.178-.323.255-.484a1.507,1.507,0,0,1,.132-.317,9.392,9.392,0,0,0,.49-.918,1.057,1.057,0,0,1,.489-.524c.155-.077.31-.165.463-.245.344-.193.681-.4,1.017-.627q1.106-.753,2.2-1.544a14.393,14.393,0,0,0,2.132-1.872,7.245,7.245,0,0,0,1.235-1.922,8.162,8.162,0,0,0,.689-2.236c.057-.39.107-.79.129-1.182a6.9,6.9,0,0,0-.12-1.52,4.273,4.273,0,0,0-.4-1.138,2.16,2.16,0,0,0-1-.953,1.851,1.851,0,0,0-.653-.2,3.963,3.963,0,0,0-.877-.033,4.139,4.139,0,0,0-.852.2,8.887,8.887,0,0,0-1.335.591c-.064.034-.133.071-.2.113a6.574,6.574,0,0,0-1.994,2.113,16.191,16.191,0,0,0-1.368,2.609,35.887,35.887,0,0,0-1.342,3.9l-.1.32a14.867,14.867,0,0,0-.437,1.658l-.111.644c-.082.474-.165.945-.265,1.412a.9.9,0,0,0-.008.294,1.29,1.29,0,0,1-.149.828l-.211.375c-.118.212-.231.421-.35.616-.288.476-.573.958-.854,1.44l-.628,1.058c-.845,1.413-1.718,2.872-2.62,4.285a.938.938,0,0,1-1.137.417,1.135,1.135,0,0,1-.676-1.109l0-.136a24.346,24.346,0,0,0-.16-3.469,16.506,16.506,0,0,0-.836-3.681c-.411-1.136-.921-2.387-1.765-2.789a1.328,1.328,0,0,0-1.171-.007,1.486,1.486,0,0,0-.187.095,1.564,1.564,0,0,0-.423.394,2.935,2.935,0,0,0-.344.6l-.066.134a4.472,4.472,0,0,0-.19.652l-.025.1c-.063.264-.109.518-.146.784a11.858,11.858,0,0,0-.019,2.475,21.026,21.026,0,0,0,.627,3.289c.142.578.343,1.159.517,1.657.206.589.468,1.163.744,1.771.185.409.371.816.541,1.233.133.327.258.649.383.972.1.265.206.531.315.795a1.369,1.369,0,0,1,.06.207,1.417,1.417,0,0,0,.219.545,1.281,1.281,0,0,1,.085,1.325q-.792,1.5-1.559,3.026c-.719,1.419-1.484,2.823-2.222,4.178-.366.67-.729,1.339-1.091,2.014l-.107.2a.955.955,0,0,1-.992.534,1.056,1.056,0,0,1-.821-.834c-.061-.256-.123-.516-.2-.77-.3-1.1-.616-2.2-.927-3.3l-.1-.341c-.134-.472-.283-.945-.436-1.411a8.432,8.432,0,0,0-.47-1.083l-.117-.241a2.886,2.886,0,0,0-1.131-1.1,2.185,2.185,0,0,0-1.053-.2c-.121,0-.239,0-.354.013a1.2,1.2,0,0,0-.549.182,1.654,1.654,0,0,0-.475.442,3.484,3.484,0,0,0-.531,1.719,15.07,15.07,0,0,0,.587,4.676,18.959,18.959,0,0,0,1.322,3.439,21.658,21.658,0,0,0,1.561,2.782c.269.4.556.779.843,1.155l.139.184a1.282,1.282,0,0,1,.125,1.285c-1.475,3.194-2.852,6.529-4.183,9.752l-.7,1.7a.926.926,0,0,1-.935.65,1.016,1.016,0,0,1-.9-.723c-.061-.178-.122-.357-.189-.533l-.268-.75c-.212-.593-.413-1.155-.644-1.7-.257-.6-.511-1.184-.8-1.716-.1-.183-.2-.344-.3-.508a3.293,3.293,0,0,0-1.111-1.1,1.536,1.536,0,0,0-1.508.071,1.326,1.326,0,0,0-.259.2,3.463,3.463,0,0,0-.746,1.13,4.721,4.721,0,0,0-.208,1.861,9.751,9.751,0,0,0,.243,1.625,12.836,12.836,0,0,0,.455,1.677,11.83,11.83,0,0,0,.965,2.02,18.108,18.108,0,0,0,1.528,2.188l.123.159a13.668,13.668,0,0,1,1.251,1.761,1.433,1.433,0,0,1,.18,1.253l-.043.109c-.826,2.17-1.635,4.467-2.471,7.007q-.4,1.211-.775,2.429a1.024,1.024,0,0,1-.925.763,1,1,0,0,1-.945-.727c-.081-.237-.166-.469-.258-.706a11.791,11.791,0,0,0-1.625-2.968,7.438,7.438,0,0,0-1.549-1.62,2.714,2.714,0,0,0-1.441-.615c-.242,0-.443.08-.618.487-.7,1.568-.076,5.506,1.8,8.425.376.594.771,1.166,1.166,1.742l1.205,1.778a8.355,8.355,0,0,0,.541.7,1.27,1.27,0,0,1,.224,1.134l-.174.622q-.427,1.529-.855,3.06c-.524,1.851-1,3.662-1.4,5.385a1.855,1.855,0,0,0-.053.224c-.094.41-.17.744-.244,1.087a1.053,1.053,0,0,1-.85.852.97.97,0,0,1-1-.6c-.219-.478-.449-.949-.682-1.419-2.012-4.074-3.986-5.527-5.164-5.527a1.2,1.2,0,0,0-1.147.86c-.5,1.234-.171,3.619,1.694,6.157a28.893,28.893,0,0,0,2.3,2.832q.1.106.2.21h-2.835c-.38-.472-.776-.988-1.2-1.57-2.589-3.534-2.717-6.758-1.97-8.593a3.2,3.2,0,0,1,2.955-2.183c2.106,0,4.405,2.065,6.4,5.712.325-1.321.7-2.718,1.1-4.137.285-1.009.57-2.025.853-3.037-.094-.118-.183-.244-.268-.371l-1.195-1.763c-.405-.595-.815-1.189-1.207-1.8-2.2-3.435-3.085-8.289-1.966-10.815.847-1.923,2.71-2.316,4.883-.79a9.373,9.373,0,0,1,2,2.054,12.939,12.939,0,0,1,1.187,1.855c.778-2.364,1.537-4.523,2.309-6.575-.25-.385-.546-.758-.853-1.144l-.129-.161a20.785,20.785,0,0,1-1.712-2.459,14.28,14.28,0,0,1-1.156-2.435,15,15,0,0,1-.537-1.983,11.428,11.428,0,0,1-.3-2.111,6.881,6.881,0,0,1,.42-2.963,5.828,5.828,0,0,1,1.209-1.807,3.4,3.4,0,0,1,.646-.505,3.333,3.333,0,0,1,3.424-.042,5.462,5.462,0,0,1,1.758,1.771c.126.2.248.409.365.624.336.617.615,1.258.9,1.916.107.25.2.5.3.748,1.163-2.815,2.362-5.7,3.643-8.515-.208-.281-.412-.56-.608-.851a24.465,24.465,0,0,1-1.733-3.083,21.3,21.3,0,0,1-1.486-3.9,17.42,17.42,0,0,1-.658-5.5,5.836,5.836,0,0,1,.98-2.994,3.766,3.766,0,0,1,1.086-1.007,3.017,3.017,0,0,1,1.381-.446c.145-.008.295-.011.451-.011a3.828,3.828,0,0,1,1.957.451,4.957,4.957,0,0,1,1.969,2.027l.113.226a10.263,10.263,0,0,1,.6,1.411c.162.5.315.991.46,1.492l.1.346c.164.585.331,1.165.495,1.752.015-.033.031-.059.046-.094.733-1.339,1.488-2.727,2.188-4.11q.625-1.239,1.268-2.469a4.249,4.249,0,0,1-.2-.617c-.1-.245-.191-.492-.288-.737-.119-.312-.238-.617-.364-.927-.159-.385-.332-.767-.505-1.148-.285-.629-.582-1.279-.826-1.972-.193-.552-.413-1.2-.586-1.887a22.662,22.662,0,0,1-.691-3.706,14.087,14.087,0,0,1,.034-3.043,10.53,10.53,0,0,1,.195-1.041l.023-.093a5.7,5.7,0,0,1,.379-1.174l.06-.125a5.113,5.113,0,0,1,.628-1.044,3.653,3.653,0,0,1,.948-.851c.121-.071.245-.136.385-.2a3.112,3.112,0,0,1,2.671.025c1.679.8,2.435,2.9,2.842,4.026a19.319,19.319,0,0,1,.972,4.247c.019.182.042.362.058.538.307-.505.608-1.01.908-1.509l.618-1.046c.288-.492.576-.983.871-1.469.1-.17.2-.35.3-.534l.039-.07a3.441,3.441,0,0,1,.074-.741c.092-.434.168-.876.247-1.312l.117-.665a16.226,16.226,0,0,1,.505-1.951l.095-.315a39.068,39.068,0,0,1,1.44-4.166,19.422,19.422,0,0,1,1.569-2.979,8.8,8.8,0,0,1,2.646-2.743c.1-.061.2-.12.312-.176a10.511,10.511,0,0,1,1.609-.7,5.5,5.5,0,0,1,1.235-.283,5.3,5.3,0,0,1,1.27.037,3.539,3.539,0,0,1,1.191.355,4.271,4.271,0,0,1,1.98,1.965,6.608,6.608,0,0,1,.62,1.835,9.843,9.843,0,0,1,.149,2.068c-.031.514-.1,1.023-.152,1.407a10.647,10.647,0,0,1-.891,2.934,9.714,9.714,0,0,1-1.643,2.528,16.2,16.2,0,0,1-2.434,2.141c-.743.537-1.494,1.067-2.25,1.575-.414.283-.8.517-1.167.721-.07.04-.14.075-.211.113-.118.234-.243.457-.365.668-.01.025-.017.051-.026.078l-.035.084c-.119.251-.24.492-.377.727l-.3.555c-.18.325-.36.652-.552.973-.234.4-.467.809-.7,1.215l-.668,1.158c-.08.14-.16.278-.239.417a28.707,28.707,0,0,1,3.292,0l.283.012c6.527.286,8.795,3.453,8.752,6.081-.056,3.372-3.652,6.784-10.418,6.784a22.71,22.71,0,0,1-3.737-.327c-1.1-.188-2.155-.455-3.035-.691-.342-.091-.687-.164-1.032-.231l-.486-.1c-.086-.017-.17-.034-.253-.049-.122.235-.241.466-.362.707-.891,1.783-1.8,3.531-2.694,5.185-.058.109-.114.218-.178.323a21.723,21.723,0,0,1,4.906.067,11.675,11.675,0,0,1,3.594,1.073,5.179,5.179,0,0,1,2.579,2.211,4.859,4.859,0,0,1,.294,3.553,5.117,5.117,0,0,1-1.438,2.328,7.711,7.711,0,0,1-2.721,1.684,11.624,11.624,0,0,1-2.188.522,14.873,14.873,0,0,1-2.617.058c-.709-.031-1.414-.124-2.1-.212-.325-.041-.649-.083-.978-.117-1.151-.128-2.381-.277-3.587-.5-.285-.056-.6-.115-.927-.2-.553,1.233-1.055,2.39-1.523,3.521l-1.41,3.4c.582-.054,1.156-.088,1.7-.115,6.7-.307,9.052,2.752,9.071,5.349.025,3.118-3.111,6.329-9.145,6.446h-.51a17.1,17.1,0,0,1-3.059-.24c-.646-.115-1.287-.27-1.93-.421-.19-.048-.381-.094-.571-.138-.88,2.337-1.653,4.535-2.339,6.652.267-.052.531-.1.789-.136l.221-.039a14.37,14.37,0,0,1,1.543-.195,18.827,18.827,0,0,1,3.643.2,15.206,15.206,0,0,1,1.668.3,4.665,4.665,0,0,1,3.263,2.234,4.863,4.863,0,0,1,.332,3.651,3.678,3.678,0,0,1-.719,1.49l-.174.26a.842.842,0,0,1-.1.136,7.48,7.48,0,0,1-.933.878,9.746,9.746,0,0,1-2.286,1.271,10.249,10.249,0,0,1-1.975.61,26.893,26.893,0,0,1-3.951.448q-1.57.051-3.146.076l-.289,0c-.356.006-.7.017-1.149-.005l-.253.9c-.461,1.637-.936,3.328-1.356,5.009a7.976,7.976,0,0,1,3.813-1.113,3.493,3.493,0,0,1,3.624,2.505,4.691,4.691,0,0,1-.654,3.557Z" fill="#fff"/>
        </g>
      </g>
    </g>
    <path id="Path_2407" data-name="Path 2407" d="M-616.986,439.629h-1932V231.691a82.706,82.706,0,0,1,7.863,17.336,124.319,124.319,0,0,1,4.234,16.9,128.875,128.875,0,0,1,2.045,17.892,44.86,44.86,0,0,1,3.286-5.763,91.687,91.687,0,0,1-.291-19.586c.426-5.15,1.087-9.041,1.161-9.468.333-.016.685-.023,1.108-.023a41.606,41.606,0,0,1,14.216,2.685,62.167,62.167,0,0,1,11.836,5.906,70.673,70.673,0,0,1,11.1,8.591,126.417,126.417,0,0,1-1.966-19.93,109.7,109.7,0,0,1,.769-15.231,68.716,68.716,0,0,1,2.722-13.151c5.952.235,11.425,3.08,16.266,8.455,3.873,4.3,7.352,10.222,10.341,17.6a122.485,122.485,0,0,1,5.449,17.4c1.114,4.73,1.583,7.847,1.587,7.875,3.952-29.434,24.215-30.925,28.237-30.925.238,0,.458.005.655.016a92.349,92.349,0,0,1,2.622,10.859,57.338,57.338,0,0,1,11.176,7.38,65.965,65.965,0,0,1,12.123,13.525,114.4,114.4,0,0,1,2.731-18.944,87.246,87.246,0,0,1,4.226-13.3,47.221,47.221,0,0,1,5.585-10.422c9.279,8.618,13.609,24.324,15.608,35.982,7.345-9.786,15.87-16,25.336-18.455l.007.016a90.048,90.048,0,0,1,2.179,10.539,26.291,26.291,0,0,1,5.463-.592,17.049,17.049,0,0,1,3.662.336,72.917,72.917,0,0,1,1.2,13.9,92.655,92.655,0,0,1-1.011,12.778,59.51,59.51,0,0,1,13.979-3.353c-2.28-9.244-4.509-22.166-2.185-31.23l.008,0a33.2,33.2,0,0,1,6.609,5.515,42.627,42.627,0,0,1,5.567,7.314,44.8,44.8,0,0,1,4.668,10.72c-.887-8.8-.689-20.835,5.275-28.146h0l0,0a16.274,16.274,0,0,1,3.915,2.7,47.393,47.393,0,0,1,9.23,11.669,39.438,39.438,0,0,1,12-6.494l0,.016v.006c.085.829.514,5.246.569,10.857.057,5.709-.265,13.928-2.118,20.665.284.94.575,1.98.808,2.815l.009.033.016.056.073.258,0-.008a19.642,19.642,0,0,1,3.521-8.749,19.335,19.335,0,0,1,7.1-6.019,28.857,28.857,0,0,1,13.055-2.737,56.3,56.3,0,0,1,11.413,1.294v.008a49.8,49.8,0,0,1-1.257,6.374,47.689,47.689,0,0,1-5.435,13.028l7.172-.089a31.609,31.609,0,0,1,6.087-1.167,47.567,47.567,0,0,1-4.924-10.97,41.843,41.843,0,0,1-1.256-5.089,27.144,27.144,0,0,1,7.493-1.116,21.474,21.474,0,0,1,7.59,1.351,21.143,21.143,0,0,1,5.358,2.969,19.615,19.615,0,0,1,4.224,4.32,61.683,61.683,0,0,1,.976-11.906,51.361,51.361,0,0,1,2.366-8.664,32.484,32.484,0,0,1,3.509-7.081,34.806,34.806,0,0,1,6.764,10.413,60.855,60.855,0,0,1,3.621,11.39,76.382,76.382,0,0,1,1.726,12.939,24.758,24.758,0,0,1,1.835-3.213,60.486,60.486,0,0,1,.51-16.32c.232-.008.434-.012.619-.012a23.55,23.55,0,0,1,8.01,1.506,35.146,35.146,0,0,1,6.67,3.312,40.089,40.089,0,0,1,6.253,4.817,67.312,67.312,0,0,1-.676-19.82,38.273,38.273,0,0,1,1.533-7.419c3.406.136,6.53,1.785,9.288,4.9a24.6,24.6,0,0,1,13.422,4.064,116.184,116.184,0,0,1-1.683-16.745v-.01a46.409,46.409,0,0,1,16.139,12.7,22.226,22.226,0,0,1,6.5-4.807,36.523,36.523,0,0,1,4.819,14.124,28.712,28.712,0,0,1,2.594-1.525,41.634,41.634,0,0,1,6.114-6.831,31.48,31.48,0,0,1,5.415-3.889,18.813,18.813,0,0,1,5.349-2.152,77.154,77.154,0,0,1,.031,13.039,60.614,60.614,0,0,1-1.545,9.475,55.717,55.717,0,0,1,7.843,4.195c.162.018.3.036.448.058a65.453,65.453,0,0,1,.672-15.428,87.694,87.694,0,0,1,3.182-13.225,84.739,84.739,0,0,1,5.162-12.707l0-.007c3.776,1.816,7.385,5.113,10.729,9.8a72.159,72.159,0,0,1,7.469,13.793,115.874,115.874,0,0,1,5.789,17.619c.428-1.04.891-2.033,1.373-2.951a86.941,86.941,0,0,1-7.655-17.419,103.465,103.465,0,0,1-4.549-25.085l.009,0a33.152,33.152,0,0,1,4.912-.322,39.007,39.007,0,0,1,18.588,4.52c8.227,4.507,13.981,12.129,17.1,22.653v-.028a136.67,136.67,0,0,1,1.754-19.695,63.431,63.431,0,0,1,4.11-14.8c2.147-4.853,4.828-7.995,7.968-9.338.125.122,3.052,3.055,5.784,10.239a72.772,72.772,0,0,1,3.736,14.793,127.617,127.617,0,0,1,1.195,23.019s0,0,0,0a29.684,29.684,0,0,1,5.542-3.373,72,72,0,0,1-2.69-10.136,47.849,47.849,0,0,1,13.17-1.954,37.85,37.85,0,0,1,13.533,2.441,37.531,37.531,0,0,1,9.555,5.37,34.652,34.652,0,0,1,7.534,7.811,109.555,109.555,0,0,1,1.733-21.131,91.436,91.436,0,0,1,4.2-15.373,58.517,58.517,0,0,1,6.229-12.565,61.827,61.827,0,0,1,12.006,18.48,107.912,107.912,0,0,1,6.425,20.21,137.738,137.738,0,0,1,3.06,22.964,44.394,44.394,0,0,1,3.287-5.763,91.615,91.615,0,0,1-.292-19.588c.454-5.5,1.155-9.437,1.162-9.473.352-.011.725-.017,1.108-.017a41.607,41.607,0,0,1,14.215,2.685,62.1,62.1,0,0,1,11.835,5.906,70.228,70.228,0,0,1,11.1,8.592,126.545,126.545,0,0,1-1.964-19.93,109.567,109.567,0,0,1,.77-15.232,68.663,68.663,0,0,1,2.722-13.15c5.953.235,11.425,3.079,16.266,8.454,3.873,4.3,7.352,10.219,10.341,17.6a122.364,122.364,0,0,1,5.449,17.4c1.075,4.564,1.566,7.741,1.586,7.874,3.95-29.431,24.212-30.922,28.233-30.922.24,0,.46.006.654.017a90.542,90.542,0,0,1,2.624,10.858,57.39,57.39,0,0,1,11.179,7.38,66,66,0,0,1,12.125,13.523,114.186,114.186,0,0,1,2.729-18.942,86.941,86.941,0,0,1,4.223-13.3,47.836,47.836,0,0,1,5.586-10.422c4.191,3.894,7.751,9.608,10.581,16.984a101,101,0,0,1,5.028,19c7.344-9.787,15.868-16,25.336-18.457l.007.016A91.214,91.214,0,0,1-1744.744,245a26.269,26.269,0,0,1,5.453-.591,17.3,17.3,0,0,1,3.669.339,72.725,72.725,0,0,1,1.208,13.9,92.572,92.572,0,0,1-1.01,12.776,59.919,59.919,0,0,1,13.978-3.352c-2.28-9.241-4.509-22.162-2.186-31.23l.008,0a33.2,33.2,0,0,1,6.609,5.515,42.719,42.719,0,0,1,5.566,7.314,44.817,44.817,0,0,1,4.667,10.723c-.886-8.808-.687-20.841,5.277-28.149a16.214,16.214,0,0,1,3.92,2.7,47.452,47.452,0,0,1,9.23,11.667,39.339,39.339,0,0,1,12-6.492.083.083,0,0,1,0,.026c.085.81.513,5.138.57,10.851s-.265,13.929-2.117,20.666c.264.87.521,1.785.77,2.671l.03.106.014.051.093.332v-.007a19.706,19.706,0,0,1,3.521-8.75,19.351,19.351,0,0,1,7.1-6.019,28.864,28.864,0,0,1,13.055-2.737,56.253,56.253,0,0,1,11.415,1.3v.012a49.151,49.151,0,0,1-1.259,6.369,47.719,47.719,0,0,1-5.438,13.027l7.175-.089a31.738,31.738,0,0,1,6.084-1.167,47.624,47.624,0,0,1-4.922-10.969,41.372,41.372,0,0,1-1.258-5.09,27.126,27.126,0,0,1,7.495-1.115,21.484,21.484,0,0,1,7.589,1.349,21.132,21.132,0,0,1,5.358,2.969,19.5,19.5,0,0,1,4.226,4.319,61.673,61.673,0,0,1,.975-11.906,51.488,51.488,0,0,1,2.365-8.662,32.887,32.887,0,0,1,3.508-7.081A34.8,34.8,0,0,1-1603.241,251a60.85,60.85,0,0,1,3.622,11.39,76.811,76.811,0,0,1,1.726,12.94,24.159,24.159,0,0,1,1.834-3.21c-1.04-7.462.493-16.238.509-16.323.207-.007.405-.01.624-.01a23.555,23.555,0,0,1,8.009,1.506,35.134,35.134,0,0,1,6.667,3.311,40.586,40.586,0,0,1,6.25,4.815,67.348,67.348,0,0,1-.673-19.818,38.345,38.345,0,0,1,1.532-7.418c3.406.136,6.53,1.784,9.288,4.9a24.632,24.632,0,0,1,13.422,4.064,117.18,117.18,0,0,1-1.683-16.754,46.375,46.375,0,0,1,16.14,12.7,21.977,21.977,0,0,1,6.5-4.807,36.328,36.328,0,0,1,4.33,11.18,30.224,30.224,0,0,1,.663,5.1,46.376,46.376,0,0,1,6.756-8.834,33.629,33.629,0,0,1,6.218-5,20.076,20.076,0,0,1,6.322-2.722,77.142,77.142,0,0,1,.037,12.973,60.956,60.956,0,0,1-1.527,9.452,35.305,35.305,0,0,1-2.73,7.742,11.366,11.366,0,0,1,8.64-3.578,22.5,22.5,0,0,1,8.771,2.037,22.064,22.064,0,0,1,2.533-.148,19.615,19.615,0,0,1,9.043,2.175,23.231,23.231,0,0,1,6.263,4.786,27.625,27.625,0,0,1,4.822,6.961,33.95,33.95,0,0,1,4.553-10.991,31.35,31.35,0,0,1,6.116-6.944A26.992,26.992,0,0,1-1451,257.8a27.516,27.516,0,0,1,1.881,7.345,43.772,43.772,0,0,1,13.664,4.328,52.566,52.566,0,0,1,5.991,3.431,65.2,65.2,0,0,1,.624-15.507,87.446,87.446,0,0,1,3.182-13.306,85.979,85.979,0,0,1,5.2-12.8c3.775,1.811,7.385,5.106,10.731,9.794a72.148,72.148,0,0,1,7.47,13.794,114.585,114.585,0,0,1,5.788,17.621c.416-1.012.878-2.005,1.373-2.952a86.921,86.921,0,0,1-7.654-17.419,103.462,103.462,0,0,1-4.549-25.085l.009,0a33.25,33.25,0,0,1,4.912-.322,39.021,39.021,0,0,1,18.588,4.518c8.226,4.508,13.98,12.13,17.1,22.654v-.027a136.758,136.758,0,0,1,1.754-19.7,63.527,63.527,0,0,1,4.109-14.8c2.147-4.853,4.828-7.994,7.968-9.337.125.122,3.056,3.065,5.783,10.238a72.845,72.845,0,0,1,3.736,14.793,127.556,127.556,0,0,1,1.194,23.019s0,0,0,0a29.227,29.227,0,0,1,5.546-3.371,73.278,73.278,0,0,1-2.688-10.136,47.776,47.776,0,0,1,13.167-1.956,37.843,37.843,0,0,1,13.534,2.441,37.543,37.543,0,0,1,9.555,5.369,34.763,34.763,0,0,1,7.535,7.811,109.545,109.545,0,0,1,1.732-21.13,91.144,91.144,0,0,1,4.2-15.371,57.665,57.665,0,0,1,6.229-12.565,61.8,61.8,0,0,1,12.006,18.479,107.9,107.9,0,0,1,6.426,20.21,136.516,136.516,0,0,1,3.059,22.962,45.147,45.147,0,0,1,3.284-5.761,91.6,91.6,0,0,1-.29-19.588c.46-5.578,1.156-9.437,1.163-9.473.359-.011.731-.017,1.107-.017a41.591,41.591,0,0,1,14.216,2.685,62.188,62.188,0,0,1,11.836,5.907,70.68,70.68,0,0,1,11.1,8.592,126.479,126.479,0,0,1-1.965-19.93,109.531,109.531,0,0,1,.77-15.231,70.38,70.38,0,0,1,2.722-13.151c5.954.235,11.425,3.08,16.265,8.455,3.873,4.3,7.352,10.22,10.342,17.6a122.49,122.49,0,0,1,5.448,17.4c1.106,4.694,1.582,7.842,1.586,7.873,3.952-29.433,24.215-30.923,28.237-30.923.333,0,.569.01.656.017a92.616,92.616,0,0,1,2.621,10.859,57.472,57.472,0,0,1,11.176,7.38,66.064,66.064,0,0,1,12.123,13.524,114.355,114.355,0,0,1,2.731-18.943,87.17,87.17,0,0,1,4.225-13.3,48.13,48.13,0,0,1,5.584-10.419c4.191,3.889,7.75,9.6,10.581,16.982a101,101,0,0,1,5.028,19c7.345-9.786,15.87-16,25.336-18.456l.005.016a89.322,89.322,0,0,1,2.179,10.539,26.272,26.272,0,0,1,5.457-.592,17.272,17.272,0,0,1,3.668.339,72.829,72.829,0,0,1,1.2,13.9,92.481,92.481,0,0,1-1.011,12.777,59.667,59.667,0,0,1,13.979-3.353c-2.28-9.241-4.509-22.162-2.185-31.229l.008,0a33.194,33.194,0,0,1,6.61,5.515,42.683,42.683,0,0,1,5.566,7.313,44.761,44.761,0,0,1,4.668,10.72c-.887-8.8-.691-20.835,5.274-28.145a16.224,16.224,0,0,1,3.92,2.7,47.371,47.371,0,0,1,9.23,11.669,39.422,39.422,0,0,1,12-6.5.017.017,0,0,1,0,.009l0,.011v.006c.085.818.512,5.186.569,10.854.056,5.708-.265,13.927-2.118,20.665.258.856.513,1.762.759,2.639l.015.054.034.12.031.114.066.236v-.008a19.7,19.7,0,0,1,3.522-8.749,19.352,19.352,0,0,1,7.1-6.02,28.873,28.873,0,0,1,13.056-2.736,56.353,56.353,0,0,1,11.413,1.294v.012a49.086,49.086,0,0,1-1.258,6.37,47.8,47.8,0,0,1-5.437,13.027l7.173-.09a31.571,31.571,0,0,1,6.086-1.167,47.674,47.674,0,0,1-4.923-10.97,41.434,41.434,0,0,1-1.256-5.088,27.137,27.137,0,0,1,7.492-1.115,21.51,21.51,0,0,1,7.59,1.35,21.159,21.159,0,0,1,5.359,2.97,19.279,19.279,0,0,1,4.226,4.321,61.751,61.751,0,0,1,.975-11.907,51.451,51.451,0,0,1,2.366-8.663,32.51,32.51,0,0,1,3.508-7.082,34.83,34.83,0,0,1,6.764,10.413,60.835,60.835,0,0,1,3.62,11.39,76.815,76.815,0,0,1,1.726,12.94,25.2,25.2,0,0,1,1.835-3.212c-1.027-7.371.447-15.962.511-16.324.274-.007.464-.01.62-.01a23.545,23.545,0,0,1,8.009,1.506,35.17,35.17,0,0,1,6.669,3.312,40.679,40.679,0,0,1,6.252,4.816,67.311,67.311,0,0,1-.675-19.819,38.549,38.549,0,0,1,1.532-7.418c3.406.137,6.531,1.786,9.288,4.9a24.622,24.622,0,0,1,13.422,4.064,117.083,117.083,0,0,1-1.683-16.755,46.378,46.378,0,0,1,16.14,12.7,22.457,22.457,0,0,1,6.5-4.807,36.559,36.559,0,0,1,4.817,14.123,28.121,28.121,0,0,1,2.595-1.525,41.657,41.657,0,0,1,6.113-6.83,31.509,31.509,0,0,1,5.416-3.89,18.637,18.637,0,0,1,5.349-2.152,77.141,77.141,0,0,1,.031,13.039,60.8,60.8,0,0,1-1.545,9.475,56.077,56.077,0,0,1,7.844,4.2h.01l.033,0,.015,0c.105.012.25.029.39.05a65.45,65.45,0,0,1,.672-15.43,87.581,87.581,0,0,1,3.183-13.224,87.23,87.23,0,0,1,5.163-12.712c3.776,1.814,7.386,5.109,10.731,9.794a72.165,72.165,0,0,1,7.47,13.793,115.79,115.79,0,0,1,5.789,17.619c.431-1.046.894-2.039,1.373-2.951a86.89,86.89,0,0,1-7.655-17.418,103.514,103.514,0,0,1-4.55-25.085l.009,0a33.371,33.371,0,0,1,4.911-.322,39.028,39.028,0,0,1,18.589,4.519c8.226,4.508,13.98,12.13,17.1,22.654l0-.027a136.926,136.926,0,0,1,1.755-19.7,63.478,63.478,0,0,1,4.109-14.8c2.146-4.851,4.828-7.993,7.97-9.337.124.12,3.034,3.008,5.784,10.238A72.826,72.826,0,0,1-741.3,224.62a127.61,127.61,0,0,1,1.193,23.019l0,0,0,0a29.53,29.53,0,0,1,5.538-3.369,71.375,71.375,0,0,1-2.691-10.136,47.869,47.869,0,0,1,13.17-1.954,37.857,37.857,0,0,1,13.534,2.441,37.559,37.559,0,0,1,9.555,5.37,35.3,35.3,0,0,1,7.535,7.812,109.577,109.577,0,0,1,1.733-21.131,91.271,91.271,0,0,1,4.2-15.373,57.538,57.538,0,0,1,6.229-12.565,61.808,61.808,0,0,1,12,18.479,107.866,107.866,0,0,1,6.426,20.212,135.818,135.818,0,0,1,3.06,22.963,44.5,44.5,0,0,1,3.287-5.764,91.531,91.531,0,0,1-.291-19.587c.419-5.082,1.039-8.77,1.16-9.457l0-.016c.373-.012.746-.017,1.109-.017a41.615,41.615,0,0,1,14.215,2.684,62.213,62.213,0,0,1,11.834,5.907,71.886,71.886,0,0,1,11.1,8.59,126.587,126.587,0,0,1-1.963-19.929,109.942,109.942,0,0,1,.769-15.231,85,85,0,0,1,1.606-9.115V439.629ZM-2338.3,287.166h0c-.06.318-.121.6-.189.9-.091.413-.195.882-.294,1.5l2.173-.027a15.7,15.7,0,0,0-.954-1.355l-.013-.016-.006-.009-.01-.013c-.232-.3-.472-.619-.706-.977Zm602.035-10.436h0c-.056.295-.115.567-.173.829l0,.016,0,.018-.008.037,0,.016c-.084.382-.19.858-.295,1.481l2.175-.027a15.712,15.712,0,0,0-.975-1.383l-.01-.014c-.245-.32-.475-.623-.7-.973Zm670.965-2.564h0c-.059.312-.123.6-.188.9v.007c-.091.414-.195.882-.294,1.495l2.173-.026a15.811,15.811,0,0,0-.957-1.358l-.006-.009,0-.005-.027-.035c-.215-.282-.459-.6-.695-.964Z" transform="translate(4464 833.313)" fill="#595757" stroke="rgba(0,0,0,0)" stroke-width="1"/>
  </g>
</svg>
