<svg xmlns="http://www.w3.org/2000/svg" width="147.359" height="22.972" viewBox="0 0 147.359 22.972">
  <g id="familyMart_logo" data-name="familyMart logo" transform="translate(-106.134 -249.873)">
    <g id="组_1324" data-name="组 1324" transform="translate(109.134 252.282)">
      <rect id="矩形_27" data-name="矩形 27" width="147.359" height="22.972" transform="translate(-3 -2.409)" fill="#fff"/>
      <g id="组_1322" data-name="组 1322" transform="translate(0)">
        <rect id="矩形_28" data-name="矩形 28" width="24.501" height="8.166" fill="#00902f"/>
        <rect id="矩形_29" data-name="矩形 29" width="24.501" height="8.166" transform="translate(0 9.982)" fill="#007ccf"/>
      </g>
      <g id="组_1323" data-name="组 1323" transform="translate(33.575 0.38)">
        <path id="路径_2068" data-name="路径 2068" d="M257.255,255.1v16.873h3.434v-7.378h7.142v-3.26H260.69v-2.98h7.262V255.1Z" transform="translate(-257.255 -254.838)" fill="#007ccf"/>
        <path id="路径_2069" data-name="路径 2069" d="M315.116,286.117v-5.488c0-1.813-.936-4.108-4.9-4.108a9.968,9.968,0,0,0-3.686.693v2.992a6.036,6.036,0,0,1,3.248-.938c1.069,0,2.136.365,2.136,1.623v.079a5.832,5.832,0,0,0-1.89-.311c-2.7,0-4.691,1.415-4.691,4.189a3.734,3.734,0,0,0,4.022,3.762,4.355,4.355,0,0,0,2.7-.861,2.1,2.1,0,0,0,.261.787h3.529C315.422,288.2,315.116,287.51,315.116,286.117Zm-6.565-1.624c0-.935.8-1.562,1.947-1.562a2.949,2.949,0,0,1,1.414.325v2.015a2.5,2.5,0,0,1-1.7.634C309.152,285.906,308.552,285.305,308.552,284.493Z" transform="translate(-294.435 -271.407)" fill="#007ccf"/>
        <path id="路径_2070" data-name="路径 2070" d="M622.473,286.117v-5.488c0-1.813-.931-4.108-4.9-4.108a10.006,10.006,0,0,0-3.69.693v2.992a6.084,6.084,0,0,1,3.256-.938c1.065,0,2.131.365,2.131,1.623v.079a5.852,5.852,0,0,0-1.886-.311c-2.7,0-4.689,1.415-4.689,4.189a3.732,3.732,0,0,0,4.018,3.762,4.347,4.347,0,0,0,2.7-.861,2.384,2.384,0,0,0,.258.787H623.2C622.779,288.2,622.473,287.51,622.473,286.117Zm-6.561-1.624c0-.935.8-1.562,1.941-1.562a2.942,2.942,0,0,1,1.415.325v2.015a2.5,2.5,0,0,1-1.7.634C616.512,285.906,615.912,285.305,615.912,284.493Z" transform="translate(-532.125 -271.407)" fill="#007ccf"/>
        <path id="路径_2071" data-name="路径 2071" d="M369.3,277.049a4.173,4.173,0,0,0-3.369,1.353,3.75,3.75,0,0,0-3.02-1.353,4.266,4.266,0,0,0-2.932,1.089v-.974h-3v11.781H360.2v-7.939a2.147,2.147,0,0,1,1.7-.886c.971,0,1.521.663,1.521,1.866v6.959h3.287v-8.023a2.04,2.04,0,0,1,1.674-.8c1.05,0,1.523.742,1.523,1.866v6.959h3.286v-8.162A3.549,3.549,0,0,0,369.3,277.049Z" transform="translate(-334.375 -271.815)" fill="#007ccf"/>
        <rect id="矩形_30" data-name="矩形 30" width="3.219" height="16.873" transform="translate(46.386 0.258)" fill="#007ccf"/>
        <path id="路径_2072" data-name="路径 2072" d="M545.478,260.336l-4.265-5.241h-3.527v16.873h3.527V260.336l4.265,5.646,4.26-5.646v11.633h3.529V255.1h-3.529Z" transform="translate(-474.12 -254.838)" fill="#007ccf"/>
        <rect id="矩形_31" data-name="矩形 31" width="3.224" height="11.781" transform="translate(40.946 5.35)" fill="#007ccf"/>
        <path id="路径_2073" data-name="路径 2073" d="M437.859,253.958a2.091,2.091,0,1,0,2.092,2.092A2.09,2.09,0,0,0,437.859,253.958Z" transform="translate(-395.302 -253.958)" fill="#007ccf"/>
        <path id="路径_2074" data-name="路径 2074" d="M666.783,278.3v-1.237H663.7v11.781h3.227v-7.4a2.858,2.858,0,0,1,2.314-1.138,3.032,3.032,0,0,1,1.811.589v-3.547a2.9,2.9,0,0,0-1.565-.429A3.288,3.288,0,0,0,666.783,278.3Z" transform="translate(-571.568 -271.713)" fill="#007ccf"/>
        <path id="路径_2075" data-name="路径 2075" d="M705.085,271.159c-1.023,0-1.41-.791-1.41-1.663v-4.022h2.747v-3.086h-2.747V257.94l-3.178,1.351v3.1h-1.738v3.086H700.5v4.492c0,2.446.976,4.335,3.853,4.335a6.02,6.02,0,0,0,2.115-.332V270.71A1.779,1.779,0,0,1,705.085,271.159Z" transform="translate(-598.682 -257.037)" fill="#007ccf"/>
        <path id="路径_2076" data-name="路径 2076" d="M483.622,292.392h3.623l5.436-14.833h-3.532l-2.238,6.363-2.432-6.363H480.8l4.438,10.683Z" transform="translate(-430.128 -272.209)" fill="#007ccf"/>
      </g>
    </g>
  </g>
</svg>
