<svg id="FB" xmlns="http://www.w3.org/2000/svg" width="45.677" height="45.678" viewBox="0 0 45.677 45.678">
  <path id="路径_567" data-name="路径 567" d="M129.848,230.785a22.839,22.839,0,1,0-26.407,22.561V237.387h-5.8v-6.6h5.8v-5.032c0-5.724,3.41-8.886,8.627-8.886a35.134,35.134,0,0,1,5.113.446v5.621H114.3c-2.837,0-3.722,1.76-3.722,3.567v4.284h6.334l-1.013,6.6h-5.322v15.959A22.845,22.845,0,0,0,129.848,230.785Z" transform="translate(-84.17 -207.946)" fill="#4676ed"/>
  <path id="路径_568" data-name="路径 568" d="M142.242,254.832l1.013-6.6H136.92v-4.284c0-1.806.885-3.567,3.722-3.567h2.88v-5.621a35.132,35.132,0,0,0-5.113-.446c-5.217,0-8.627,3.162-8.627,8.886v5.032h-5.8v6.6h5.8v15.959a23.092,23.092,0,0,0,7.137,0V254.832Z" transform="translate(-110.513 -225.392)" fill="#fff"/>
</svg>
