<svg xmlns="http://www.w3.org/2000/svg" width="226.025" height="280.975" viewBox="0 0 226.025 280.975">
  <g id="grassR1" transform="translate(-1437.45 -1271.544)">
    <g id="组_968" data-name="组 968" transform="translate(1437.004 1438.178) rotate(-38)">
      <path id="路径_777" data-name="路径 777" d="M4.028,65.773c-1.634-4.6-3.69-10.081-4.012-15-.3-4.6,3.808-6.314,7.36-7.869,1.757-.77,5.87-3.029,6.654-4.981.853-2.127-2.116-2.758-3.919-2.453-1.03.175-7.766,1.691-7.833,2.927A86.4,86.4,0,0,1,11.7,3.811c2.2-4.3,5.023-4.339,9.1-3.125a54.882,54.882,0,0,1,13.561,5.7,118.3,118.3,0,0,1,15.5,11.481C52.765,20.426,76.1,44.717,71.4,47.354a4.332,4.332,0,0,1-2.977.073,44.225,44.225,0,0,0-6.624-.835,4.9,4.9,0,0,0-2.2.242,1.812,1.812,0,0,0-1.178,1.717,2.307,2.307,0,0,0,.983,1.456c3.674,2.938,9.54,2.244,12.727,5.7a11.507,11.507,0,0,1,2.22,4.239c1.909,5.7,2.559,11.731,3.2,17.708q.512,4.776,1.021,9.554a3.388,3.388,0,0,1-.008,1.148,2.321,2.321,0,0,1-2.524,1.5,6.77,6.77,0,0,1-2.907-1.272l-7.576-4.865a5.714,5.714,0,0,0-2.538-1.094,1.961,1.961,0,0,0-2.136,1.384,2.524,2.524,0,0,0,.457,1.653c4.016,6.823,13.14,9.961,13.281,18.868.06,3.73-1.433,7.3-3.126,10.627-1.382,2.716-2.915,5.352-4.55,7.923-1.083,1.7-2.692,5.472-4.737,6.215-2.016.732-4.461-1.533-6.006-2.532-8.287-5.36-16.452-10.837-23.44-17.9a2.682,2.682,0,0,1-.885-1.385,2.73,2.73,0,0,1,.531-1.707c1.923-3.308,3.618-6.938,6.19-9.751.9-.984,1.782-1.687,1.759-3.215-.03-2.006-1.3-2.381-2.653-.93-2.783,2.979-5.207,7.14-8.5,9.524a2.267,2.267,0,0,1-1.479.55,2.6,2.6,0,0,1-1.63-1.2,126.592,126.592,0,0,1-8.426-12.148,3.789,3.789,0,0,1-.772-2.272,4.163,4.163,0,0,1,1.8-2.45,36.308,36.308,0,0,0,9.072-11.142A4.618,4.618,0,0,0,28.36,69.4a1.764,1.764,0,0,0-.707-.978,2.412,2.412,0,0,0-2.272.189c-3.518,1.719-5.776,5.181-8.418,8.07a4.013,4.013,0,0,1-2.176,1.465c-1.92.3-4.453-2.391-5.606-3.725A27.6,27.6,0,0,1,4.028,65.773Z" transform="translate(0 13.909)" stroke="#d8d8d8" stroke-width="2"/>
      <path id="路径_778" data-name="路径 778" d="M47.127,120.527c1.755-4.332,3.648-8.6,5.63-12.836,1.673,7.305,3.138,14.657,4.443,22.038.188,1.064,1.8.579,1.61-.474q-2.03-11.481-4.64-22.857c2.057.874,3.824,2.571,5.535,3.914l7.071,5.545c.843.661,2-.554,1.151-1.222l-7.625-5.98c-2.023-1.588-4.063-3.475-6.585-4.193-1.968-8.306-4.225-16.541-6.847-24.665A123.809,123.809,0,0,1,62.295,90.715c.826.687,1.983-.529,1.151-1.221A126.6,126.6,0,0,0,46.2,77.424a.692.692,0,0,0-.118-.032c-.231-.7-.448-1.4-.684-2.089q-2.574-7.53-5.616-14.9c.082-.175.163-.35.247-.525l15.961,6.963c.983.428,1.779-1.05.785-1.484L40.005,58.042a.858.858,0,0,0-1.088.292q-3.821-9-8.411-17.649c.5.181,1.088.451,1.263.51q1.74.587,3.471,1.208,4.1,1.469,8.126,3.127,7.527,3.095,14.779,6.805a.84.84,0,0,0,.786-1.484A199.234,199.234,0,0,0,33.637,40.068c-1.074-.372-2.148-.755-3.235-1.089a3.108,3.108,0,0,0-.91-.169q-3.2-5.848-6.781-11.475c.042,0,.08-.005.124,0a14.909,14.909,0,0,1,2.121.375l4.24.751,9.012,1.6c1.059.187,1.446-1.447.377-1.636l-10.337-1.83c-1.678-.3-3.353-.631-5.036-.892a4.252,4.252,0,0,0-1.571-.007c-.19-.292-.375-.586-.567-.875A170.28,170.28,0,0,0,1.4.248C.643-.528-.507.7.245,1.469a168.9,168.9,0,0,1,20,25.159,19.109,19.109,0,0,0-1.912,3.491q-1.025,2.064-1.911,4.193a72.871,72.871,0,0,0-3.04,8.926c-.283,1.043,1.353,1.421,1.636.377a68.573,68.573,0,0,1,6.031-15.078c.069-.125.137-.238.207-.346q3.643,5.693,6.881,11.635a8.719,8.719,0,0,0-.369,1.216q-.484,1.816-.951,3.636-1.769,6.891-3.282,13.844-1.714,7.87-3.1,15.807c-.185,1.059,1.449,1.446,1.636.377q2.87-16.4,7.123-32.509c.022-.078.041-.181.062-.293q1.41,2.654,2.748,5.344,3.193,6.455,5.948,13.1A113.991,113.991,0,0,0,31.04,79.825a.84.84,0,0,0,1.636.377,111.766,111.766,0,0,1,6.143-17.693q3.252,8.024,5.963,16.255a96.994,96.994,0,0,0-3.245,20.573c-.052,1.08,1.625,1.023,1.678-.05a94.7,94.7,0,0,1,2.528-17.5q2.743,8.666,4.987,17.477c.489,1.921.946,3.851,1.4,5.78q-3.465,7.253-6.488,14.7C45.243,120.731,46.721,121.529,47.127,120.527Z" transform="translate(0.566 0)" fill="#d8d8d8"/>
    </g>
    <g id="组_969" data-name="组 969" transform="translate(1576.542 1482.171) rotate(-150)">
      <path id="路径_780" data-name="路径 780" d="M114.8,84.342c12.776-3.661,6.021-30.12,5.186-39.273a183.821,183.821,0,0,0-3.606-23.2c-.371-1.7-5.042-18.022-6.083-21.29A3.3,3.3,0,0,0,110.1,0c-.334.165-.668.33-1.016.487-18.625,9.18-37.744,17.2-56.5,25.838-3.96,1.826-9.087,4.036-11.375,7.98-2.4,4.144-2.94,9.689,2.866,10.582,3.514.539,7.1-.2,10.6-.928-1.02,1.857-7.308,3.9-9.251,4.938-3.525,1.889-7.262,3.595-10.657,5.694C29.286,58,23.27,60.628,17.778,64.169,12.719,67.425,1.493,76.879,5.713,84.013c2.563,4.33,10.009,3.027,14.188,2.732,6.958-.509,13.657-2.8,20.212-5.039-7.611,4.168-15.265,8.381-22.1,13.727-6.852,5.349-12.905,11.939-16.472,19.858-1.7,3.761-2.569,8.763.475,11.548,2.6,2.386,6.684,1.826,10.065.831a61.659,61.659,0,0,0,25.777-15.235C25.342,126.047,12.413,140.372,7.475,158.2a16.548,16.548,0,0,0-.75,6.684,6.819,6.819,0,0,0,3.655,5.347c3.335,1.467,7.073-.845,9.793-3.265,13-11.484,19.858-26.816,28.8-41.227a103.071,103.071,0,0,0-3.014,24.328c-.036,6.937.889,14.436,5.648,19.484a3.828,3.828,0,0,0,2.117,1.338c1.3.172,2.433-.821,3.3-1.791,5.826-6.523,8.475-15.241,10.381-23.778a190.877,190.877,0,0,0,4.267-29.778c-.313,5.636-.462,10.911,1.388,16.884,1.476,4.723,4.414,13.085,10.818,11.367a8.014,8.014,0,0,0,4.284-3.143c3.618-4.848,4.935-13.673,5.942-18.2,2.065-9.143,2.925-18.5,3.633-27.832.364-4.843.674-9.682,1.072-14.524.313-3.863,1.93-9.183,1.347-12.965.662,4.242,1.366,8.628,3.724,12.219C106.213,82.947,110.686,85.542,114.8,84.342Z" transform="translate(0 0)" stroke="#d8d8d8" stroke-width="2"/>
      <path id="路径_781" data-name="路径 781" d="M71.569,53.7a.646.646,0,0,0-.11-.339c6.435-11.144,13-22.62,18.993-34.266A411.125,411.125,0,0,0,99.5,71.28.572.572,0,1,0,100.607,71,408.526,408.526,0,0,1,91.4,17.248Q95.625,8.979,99.716.581a3.292,3.292,0,0,0-.2-.581c-.334.165-.668.33-1.016.487-2.557,5.256-5.188,10.49-7.831,15.682a.389.389,0,0,0-.235.08A123.419,123.419,0,0,1,41.59,36.434a.566.566,0,0,0-.469.664.579.579,0,0,0,.665.469A124.6,124.6,0,0,0,89.651,18.15c-6.285,12.236-13.205,24.3-19.961,35.995C62.8,60.572,53.439,63.88,43.638,66.968c-10.573,3.323-20.945,6.375-31.687,7.345a.571.571,0,1,0,.107,1.137c10.851-.98,21.293-4.064,31.921-7.391,8.825-2.771,17.3-5.752,24.016-10.986-3.079,5.353-6.209,10.8-9.3,16.3a256.334,256.334,0,0,1-58.4,42.59.564.564,0,0,0-.227.762.562.562,0,0,0,.768.248A257.759,257.759,0,0,0,56.81,76.74q-2.463,4.439-4.858,8.88C40.665,106.71,26.7,131.25,8.653,153.374a.58.58,0,0,0,.079.808.593.593,0,0,0,.808-.079c18.111-22.21,32.1-46.8,43.421-67.946,1.2-2.245,2.423-4.476,3.657-6.721-4.607,14.374-15.462,51.84-11.721,75.617a.574.574,0,0,0,.643.475.566.566,0,0,0,.483-.656c-4.54-28.877,12.742-78.4,13.591-80.8,3.393-6.05,6.845-12.05,10.251-17.936.169-.307.352-.607.527-.928-.536,22.037-.943,44.753,5.511,66.315a.562.562,0,0,0,.708.389A.575.575,0,0,0,77,121.2C70.45,99.31,71.011,76.123,71.569,53.7Z" transform="translate(10.585 0)" fill="#fff"/>
    </g>
  </g>
</svg>
