<svg xmlns="http://www.w3.org/2000/svg" width="167.81" height="221.565" viewBox="0 0 167.81 221.565">
  <g id="grassR1" transform="translate(-0.38 1.359)">
    <g id="组_968" data-name="组 968" transform="translate(0 122.732) rotate(-38)">
      <path id="路径_777" data-name="路径 777" d="M3.426,55.951C2.037,52.036.288,47.376.013,43.191-.243,39.277,3.253,37.82,6.274,36.5c1.495-.655,4.994-2.577,5.66-4.237.725-1.809-1.8-2.346-3.334-2.086-.876.149-6.606,1.439-6.663,2.49A73.5,73.5,0,0,1,9.949,3.242C11.821-.418,14.222-.449,17.687.584A46.687,46.687,0,0,1,29.223,5.437,100.633,100.633,0,0,1,42.41,15.2c2.476,2.172,22.323,22.837,18.33,25.079a3.685,3.685,0,0,1-2.532.062,37.621,37.621,0,0,0-5.635-.711,4.168,4.168,0,0,0-1.868.206,1.541,1.541,0,0,0-1,1.461,1.962,1.962,0,0,0,.836,1.239c3.126,2.5,8.116,1.909,10.826,4.852A9.789,9.789,0,0,1,63.254,51c1.624,4.848,2.177,9.979,2.721,15.064q.435,4.063.869,8.127a2.882,2.882,0,0,1-.007.976,1.974,1.974,0,0,1-2.147,1.28,5.759,5.759,0,0,1-2.473-1.082l-6.444-4.139a4.861,4.861,0,0,0-2.159-.931A1.668,1.668,0,0,0,51.8,71.47a2.147,2.147,0,0,0,.389,1.406c3.417,5.8,11.177,8.473,11.3,16.05.051,3.173-1.219,6.213-2.659,9.04-1.176,2.31-2.48,4.553-3.87,6.74-.921,1.448-2.29,4.655-4.029,5.287-1.715.622-3.8-1.3-5.109-2.154-7.049-4.56-14-9.219-19.94-15.225a2.282,2.282,0,0,1-.753-1.178,2.322,2.322,0,0,1,.452-1.452c1.636-2.814,3.078-5.9,5.265-8.295.765-.837,1.516-1.435,1.5-2.735-.025-1.706-1.1-2.025-2.257-.791-2.368,2.534-4.43,6.074-7.234,8.1a1.928,1.928,0,0,1-1.258.468A2.215,2.215,0,0,1,22.2,85.716a107.688,107.688,0,0,1-7.168-10.334,3.224,3.224,0,0,1-.656-1.933,3.542,3.542,0,0,1,1.533-2.084,30.887,30.887,0,0,0,7.717-9.478,3.928,3.928,0,0,0,.5-2.852,1.5,1.5,0,0,0-.6-.832,2.052,2.052,0,0,0-1.933.161c-2.993,1.462-4.913,4.407-7.161,6.865a3.414,3.414,0,0,1-1.851,1.246c-1.634.256-3.788-2.034-4.769-3.168A23.477,23.477,0,0,1,3.426,55.951Z" transform="translate(0 11.832)" stroke="#acacac" stroke-width="2"/>
      <path id="路径_778" data-name="路径 778" d="M40.09,102.529c1.493-3.685,3.1-7.319,4.789-10.92,1.423,6.215,2.669,12.468,3.779,18.747.16.906,1.528.493,1.37-.4Q48.3,100.187,46.08,90.51a22.461,22.461,0,0,1,4.709,3.329L56.8,98.556c.717.562,1.7-.471.979-1.039L51.3,92.43c-1.721-1.35-3.456-2.956-5.6-3.567C44.021,81.8,42.1,74.792,39.87,67.881a105.321,105.321,0,0,1,13.122,9.288c.7.585,1.687-.45.979-1.038A107.7,107.7,0,0,0,39.3,65.863a.589.589,0,0,0-.1-.027c-.2-.592-.381-1.187-.582-1.777q-2.19-6.406-4.778-12.676c.07-.149.139-.3.21-.447L47.628,56.86c.836.364,1.513-.893.668-1.262L34.032,49.375a.73.73,0,0,0-.926.248q-3.25-7.659-7.155-15.014c.425.154.926.384,1.074.434q1.48.5,2.953,1.028,3.486,1.249,6.913,2.66,6.4,2.633,12.572,5.789a.715.715,0,0,0,.669-1.262,169.484,169.484,0,0,0-21.518-9.172c-.913-.316-1.828-.642-2.752-.926a2.644,2.644,0,0,0-.774-.144q-2.719-4.974-5.769-9.762c.036,0,.068,0,.106,0a12.683,12.683,0,0,1,1.8.319l3.607.639L32.5,25.564c.9.159,1.23-1.231.321-1.392l-8.793-1.557c-1.427-.253-2.852-.537-4.284-.759a3.617,3.617,0,0,0-1.336-.006c-.162-.248-.319-.5-.482-.745A144.853,144.853,0,0,0,1.187.211C.547-.449-.431.592.208,1.25a143.679,143.679,0,0,1,17.014,21.4,16.256,16.256,0,0,0-1.627,2.97q-.872,1.756-1.626,3.567a61.99,61.99,0,0,0-2.586,7.593c-.24.887,1.151,1.209,1.392.321a58.333,58.333,0,0,1,5.131-12.827c.059-.107.116-.2.176-.295q3.1,4.843,5.854,9.9a7.417,7.417,0,0,0-.314,1.034q-.412,1.544-.809,3.093-1.505,5.862-2.792,11.777-1.458,6.694-2.634,13.447c-.157.9,1.232,1.23,1.392.321Q21.218,49.6,24.836,35.9c.018-.066.035-.154.052-.249q1.2,2.258,2.337,4.546,2.717,5.491,5.06,11.148A96.969,96.969,0,0,0,26.4,67.9a.714.714,0,0,0,1.392.321,95.076,95.076,0,0,1,5.226-15.051Q35.788,60,38.094,67a82.51,82.51,0,0,0-2.76,17.5c-.045.919,1.383.871,1.427-.043a80.563,80.563,0,0,1,2.15-14.89q2.334,7.372,4.243,14.867c.416,1.634.805,3.276,1.193,4.917q-2.947,6.17-5.519,12.508C38.487,102.7,39.744,103.382,40.09,102.529Z" transform="translate(0.482 0)" fill="#acacac"/>
    </g>
    <g id="组_969" data-name="组 969" transform="translate(94.032 178.02) rotate(-150)">
      <path id="路径_780" data-name="路径 780" d="M97.661,71.748c10.868-3.115,5.122-25.622,4.412-33.409A156.37,156.37,0,0,0,99,18.6C98.689,17.158,94.716,3.274,93.83.494A2.8,2.8,0,0,0,93.658,0c-.284.14-.568.28-.864.414C76.951,8.224,60.687,15.048,44.728,22.394c-3.369,1.554-7.73,3.433-9.676,6.789-2.04,3.525-2.5,8.243,2.438,9,2.99.458,6.042-.173,9.016-.789-.868,1.58-6.217,3.318-7.87,4.2-3,1.607-6.178,3.058-9.066,4.844-4.657,2.9-9.775,5.136-14.447,8.148C10.82,57.357,1.27,65.4,4.86,71.467c2.18,3.683,8.514,2.575,12.07,2.324,5.919-.433,11.617-2.378,17.194-4.287-6.474,3.545-12.985,7.13-18.8,11.677C9.5,85.732,4.348,91.338,1.314,98.075c-1.447,3.2-2.185,7.454.4,9.824,2.214,2.03,5.686,1.554,8.562.707a52.452,52.452,0,0,0,21.927-12.96c-10.65,11.58-21.648,23.765-25.849,38.931a14.077,14.077,0,0,0-.638,5.686,5.8,5.8,0,0,0,3.11,4.548c2.837,1.248,6.017-.719,8.331-2.777,11.062-9.77,16.893-22.812,24.5-35.071A87.68,87.68,0,0,0,39.1,127.657c-.03,5.9.757,12.281,4.8,16.575a3.256,3.256,0,0,0,1.8,1.138c1.1.147,2.07-.7,2.8-1.523,4.956-5.549,7.209-12.965,8.831-20.227a162.374,162.374,0,0,0,3.63-25.331c-.266,4.794-.393,9.282,1.181,14.363,1.255,4.018,3.755,11.131,9.2,9.67a6.817,6.817,0,0,0,3.644-2.674c3.078-4.124,4.2-11.631,5.055-15.481A163.246,163.246,0,0,0,83.14,80.491c.309-4.12.573-8.236.912-12.355.267-3.286,1.642-7.812,1.146-11.029.563,3.609,1.162,7.34,3.168,10.395C90.353,70.561,94.157,72.768,97.661,71.748Z" transform="translate(0 0)" stroke="#acacac" stroke-width="2"/>
      <path id="路径_781" data-name="路径 781" d="M60.882,45.68a.549.549,0,0,0-.093-.288c5.474-9.48,11.057-19.242,16.157-29.15A349.735,349.735,0,0,0,84.64,60.636a.486.486,0,1,0,.943-.236A347.523,347.523,0,0,1,77.75,14.673q3.6-7.034,7.076-14.179A2.8,2.8,0,0,0,84.654,0c-.284.14-.568.28-.864.414-2.175,4.471-4.413,8.923-6.661,13.34a.331.331,0,0,0-.2.068,104.989,104.989,0,0,1-41.55,17.171.481.481,0,0,0-.4.565.493.493,0,0,0,.566.4A105.994,105.994,0,0,0,76.264,15.439c-5.346,10.409-11.233,20.668-16.98,30.62-5.858,5.468-13.824,8.282-22.161,10.909-8.994,2.827-17.818,5.423-26.956,6.248a.486.486,0,1,0,.091.967c9.23-.834,18.113-3.457,27.154-6.287,7.507-2.357,14.716-4.893,20.43-9.345-2.62,4.553-5.282,9.187-7.912,13.867A218.057,218.057,0,0,1,.25,98.648a.48.48,0,0,0-.193.648.478.478,0,0,0,.653.211A219.269,219.269,0,0,0,48.326,65.281q-2.1,3.776-4.133,7.554c-9.6,17.94-21.48,38.816-36.833,57.636a.494.494,0,0,0,.067.687.5.5,0,0,0,.687-.067c15.406-18.894,27.311-39.815,36.937-57.8,1.019-1.91,2.061-3.808,3.111-5.718-3.919,12.227-13.153,44.1-9.97,64.325a.489.489,0,0,0,.547.4.482.482,0,0,0,.41-.558C35.288,107.18,49.99,65.055,50.712,63.011c2.886-5.147,5.823-10.251,8.72-15.257.144-.261.3-.517.448-.789-.456,18.746-.8,38.07,4.688,56.412a.478.478,0,0,0,.6.331.489.489,0,0,0,.331-.6C59.93,84.481,60.407,64.756,60.882,45.68Z" transform="translate(9.005 0)" fill="#acacac"/>
    </g>
  </g>
</svg>
