<svg xmlns="http://www.w3.org/2000/svg" width="172.308" height="245.12" viewBox="0 0 172.308 245.12">
  <g id="grassL" transform="translate(1.477)">
    <path id="路径_776" data-name="路径 776" d="M94.362,42.372h0s0-.007,0,0l-.023.03a48.005,48.005,0,0,0-3.143,5.126,35.6,35.6,0,0,1-4.718,7.073c-3.917,4.225-8.89,5.759-13.7,7.241a52.908,52.908,0,0,0-7.363,2.679c-.312.149-.766.331-1.281.538a17.516,17.516,0,0,0-3.219,1.541q-.924,1.251-1.846,2.512l-.017.059a.816.816,0,0,1-.383.489c-2.822,3.861-5.633,7.8-8.385,11.825A30.947,30.947,0,0,1,62.1,77.152c2.212-.392,4.481-.662,6.674-.922,4.458-.532,9.067-1.08,13.268-2.684a.826.826,0,0,1,1.092.99c-1.32,4.8-5.7,7.714-10.075,10.286-6.583,3.874-13.08,7.3-20.2,6.7-1.971-.168-3.94-.493-5.843-.81q-1.282-.213-2.565-.4c-3.85,6.051-7.483,12.272-10.723,18.66a26.186,26.186,0,0,1,4.977-5.278A35.828,35.828,0,0,1,50.2,98c7.929-2.348,16.455-2.389,23.824-2.24h0a.827.827,0,0,1,.189,1.628,26.666,26.666,0,0,0-2.458,2.752c-.63.766-1,1.21-1.223,1.421a44.4,44.4,0,0,1-4.7,3.827,45.656,45.656,0,0,1-11.048,5.714,45,45,0,0,1-12.176,2.52c-.972.062-1.9.091-2.789.119-3.107.1-5.791.181-8.879,1.682a.827.827,0,0,1-.35.074q-2.321,5.1-4.244,10.337a36.25,36.25,0,0,1,13.114,1.651,28.161,28.161,0,0,1,11.758,6.956c2.075,2.068,5.415,6.257,4.481,11.066a.858.858,0,0,1-.445.59,3.4,3.4,0,0,1-1.563-.221c-3.331-.908-10.623-3.91-10.708-3.95a68.585,68.585,0,0,1-11.069-6.517,32.889,32.889,0,0,1-6.608-6.609c-5,14.77-7.282,30.322-4.987,46.625a.826.826,0,1,1-1.637.23C15.643,154.075,20.453,133.841,28.993,115a22.89,22.89,0,0,1-5.587,4.734,19.75,19.75,0,0,1-7.756,2.105,82.077,82.077,0,0,1-14.894-.36,1.187,1.187,0,0,1-.146-.026.827.827,0,0,1-.364-1.387A61.691,61.691,0,0,1,15.43,109.078a16.01,16.01,0,0,1,7.662-2.2A28.314,28.314,0,0,1,16.969,94c-1.118-6.206-.327-13.207,2.419-21.408A.826.826,0,0,1,20.51,72.1c2.973,1.33,4.6,4.309,6.015,7.244a66.888,66.888,0,0,1,5.57,14.718c1.144,5.28.32,10.507-.548,15.573A223.03,223.03,0,0,1,43.78,88.284a5.306,5.306,0,0,1-1.735-.969,27.73,27.73,0,0,1-5.24-5.746A34.979,34.979,0,0,1,31.288,71.3a36.817,36.817,0,0,1-1.219-10.077,140.771,140.771,0,0,1,.512-14.586.828.828,0,0,1,1.534-.351l7.254,12.172a67.065,67.065,0,0,1,4.978,9.481,34.118,34.118,0,0,1,2.206,15.792l-.035.374c3.529-5.3,7.186-10.46,10.859-15.483-.337-3.281-1.685-5.921-3.119-8.7-.44-.853-.888-1.721-1.319-2.627a29.686,29.686,0,0,1-2.954-13.326c.15-6.408,2.684-12.6,4.919-18.058a.827.827,0,0,1,1.586.217,43.518,43.518,0,0,0,2.7,9.623,62.885,62.885,0,0,1,2.276,7.117,40.2,40.2,0,0,1,.613,13.592,46.927,46.927,0,0,1-1.52,7.377c1.33-2.069,2.747-4.095,4.228-6.063,1.394-2.564,2.529-5.111,3.689-7.74.538-1.22,1.095-2.468,1.683-3.742.207-1.475.45-2.929.711-4.342a47.01,47.01,0,0,0,1.077-9.023,49.411,49.411,0,0,0-.37-4.99,42.424,42.424,0,0,1-.364-6.317A19.98,19.98,0,0,1,72.4,15.478,44.631,44.631,0,0,1,76.535,7.21c.752-1.2,1.6-2.465,2.588-3.849.155-.215.435-.531.755-.883A8.552,8.552,0,0,0,81.212.754.814.814,0,0,1,82.093,0a.843.843,0,0,1,.765.9v0a60.705,60.705,0,0,0,.346,9.6c.2,2.243.4,4.56.429,6.864.1,9.5-1.942,16.789-6.429,22.927-.549.75-1.129,1.485-1.709,2.219a24.6,24.6,0,0,0-4.015,6.252.819.819,0,0,1-.856.512c-.211.474-.432.959-.638,1.426s-.4.911-.606,1.365A32.753,32.753,0,0,1,72.428,49h0a20.727,20.727,0,0,1,6.008-3.71,27.625,27.625,0,0,1,6.524-1.478c.9-.127,1.8-.253,2.72-.424,1.533-.28,4.892-1.421,5.325-1.966a.826.826,0,0,1,1.355.946Zm-55.377,86.7a35.268,35.268,0,0,0-11.39-1.635c5.8,1.468,10.847,4.887,15.729,8.22,2.553,1.742,5.194,3.547,7.9,5.038a.62.62,0,0,1-.461,1.141.553.553,0,0,1-.136-.056c-2.76-1.518-5.425-3.339-8-5.1-4.792-3.271-9.751-6.627-15.335-8.044a29.874,29.874,0,0,0,5.593,5.437,67.2,67.2,0,0,0,10.8,6.361c.98.458,8.119,3.161,10.5,3.918.265-3.878-2.753-7.358-4.137-8.736A26.474,26.474,0,0,0,38.984,129.071ZM73.6,32.913a46.864,46.864,0,0,1-1.019,8.871A57.31,57.31,0,0,0,76.83,28.562a27.96,27.96,0,0,0,.2-5.976c-.121-3.178-.249-6.466,1.311-9.631a.62.62,0,0,1,1.113.548c-1.423,2.885-1.307,5.872-1.186,9.036a28.905,28.905,0,0,1-.214,6.242,57.946,57.946,0,0,1-4.141,13.081c.1-.123.191-.254.288-.377.568-.719,1.135-1.436,1.671-2.17,4.267-5.836,6.207-12.805,6.11-21.933-.025-2.238-.228-4.524-.424-6.734-.207-2.321-.418-4.7-.431-7.084l-.02.02c-.267.3-.508.558-.636.739-.97,1.355-1.8,2.585-2.53,3.762a43.06,43.06,0,0,0-3.985,7.96,18.44,18.44,0,0,0-1.092,5.642,41.194,41.194,0,0,0,.356,6.07A50.562,50.562,0,0,1,73.6,32.913ZM55.728,59.162c.581,1.126,1.142,2.234,1.644,3.37a47.185,47.185,0,0,0-1.595-12.5c-1.165-4.284-2.18-8.814-.74-12.957a.631.631,0,0,1,.789-.383.621.621,0,0,1,.382.789c-1.326,3.813-.395,7.958.765,12.224a50.146,50.146,0,0,1,1.611,15.043,51.5,51.5,0,0,0,1.849-8.467,38.63,38.63,0,0,0-.58-13.038,61.986,61.986,0,0,0-2.219-6.929,62.159,62.159,0,0,1-2.274-7.125c-1.848,4.641-3.6,9.706-3.72,14.818a27.99,27.99,0,0,0,2.795,12.577C54.856,57.472,55.3,58.325,55.728,59.162ZM43.057,86.008a6.56,6.56,0,0,0,.549.383c-.5-1.446-.953-2.9-1.368-4.325a49.935,49.935,0,0,0-2.6-7.4l-.72-1.5c-1.637-3.379-3.33-6.872-3.495-10.761a.62.62,0,1,1,1.239-.053c.153,3.632,1.79,7.008,3.372,10.273l.723,1.505a50.836,50.836,0,0,1,2.666,7.59c.385,1.317.8,2.662,1.255,3.994.077-.5.129-1.079.166-1.515l.059-.628a32.5,32.5,0,0,0-2.1-15.023,65.651,65.651,0,0,0-4.864-9.242l-5.921-9.938c-.27,3.933-.373,7.9-.305,11.829a35.357,35.357,0,0,0,1.151,9.633,33.441,33.441,0,0,0,5.268,9.766A26.319,26.319,0,0,0,43.057,86.008ZM28.537,110.54A148.017,148.017,0,0,1,23.183,87.6a.62.62,0,1,1,1.226-.181,146.448,146.448,0,0,0,5.35,22.866c.019-.116.039-.233.059-.348.915-5.327,1.78-10.36.661-15.531A65.449,65.449,0,0,0,25.035,80.06c-1.134-2.354-2.4-4.73-4.387-6.011C18.243,81.575,17.57,88.014,18.6,93.7,19.872,100.79,23.926,105.706,28.537,110.54Zm-.163,2.7a35.771,35.771,0,0,0-16.151,3.473.62.62,0,0,1-.535-1.119A37.028,37.028,0,0,1,27.641,112c-.885-.923-1.75-1.846-2.585-2.786a.829.829,0,0,1-.733-.476,1,1,0,0,0-.429-.129c-2.653-.415-5.385.748-7.707,1.939A59.979,59.979,0,0,0,2.719,119.99a71.914,71.914,0,0,0,12.77.208,18.208,18.208,0,0,0,7.121-1.907A23.522,23.522,0,0,0,28.374,113.239Zm5.785-2.072a67.523,67.523,0,0,1,23.1-8.444.62.62,0,1,1,.2,1.223,66.205,66.205,0,0,0-23.282,8.665,32.22,32.22,0,0,1,5.59-.519c.875-.027,1.78-.056,2.733-.116a43.351,43.351,0,0,0,11.729-2.429,43.959,43.959,0,0,0,10.648-5.508,42.227,42.227,0,0,0,4.526-3.684c.158-.147.625-.716,1.077-1.265.578-.7,1.048-1.265,1.437-1.709-6.742-.085-14.273.14-21.251,2.205A34.156,34.156,0,0,0,39.7,105.011,28.242,28.242,0,0,0,34.159,111.167ZM49.532,84.078a14.141,14.141,0,0,0-2.165,2.334,20.037,20.037,0,0,1,3.989-1.076c1.644-.292,3.313-.534,4.981-.775,5.49-.794,11.167-1.614,15.937-4.381a.62.62,0,1,1,.622,1.073c-4.977,2.886-10.774,3.723-16.381,4.534-1.656.24-3.311.48-4.942.769a12.364,12.364,0,0,0-5.889,2.266q.8.128,1.6.262c1.871.309,3.807.629,5.713.791,6.63.561,12.873-2.743,19.216-6.475,3.547-2.086,7.094-4.4,8.72-7.723a65,65,0,0,1-11.971,2.193c-2.17.259-4.414.525-6.582.909h0C56.864,79.758,52.661,81.491,49.532,84.078Zm41.726-40a28.566,28.566,0,0,1-3.278.937c-.941.173-1.87.3-2.789.434a26.032,26.032,0,0,0-6.147,1.378,19.109,19.109,0,0,0-5.534,3.423,48.2,48.2,0,0,0-6.109,6.81c-.432.549-.843,1.121-1.265,1.68-.47.857-.962,1.716-1.5,2.584a45.248,45.248,0,0,1,4.088-2.516l.607-.347a120.1,120.1,0,0,0,14.248-9.552.62.62,0,1,1,.762.977,121.248,121.248,0,0,1-14.4,9.653l-.609.346a33.033,33.033,0,0,0-5.143,3.368c.192-.078.364-.152.5-.218a53.8,53.8,0,0,1,7.593-2.769c4.813-1.484,9.361-2.886,12.974-6.787a33.845,33.845,0,0,0,4.488-6.751C90.236,45.854,90.734,44.963,91.259,44.082Z" transform="translate(21.494 0) rotate(7)" fill="#acacac"/>
    <g id="组_943" data-name="组 943" transform="translate(79.516 243.545) rotate(-141)">
      <path id="路径_780" data-name="路径 780" d="M95.876,70.437c10.67-3.058,5.028-25.154,4.331-32.8A153.512,153.512,0,0,0,97.2,18.265c-.31-1.42-4.211-15.051-5.08-17.78A2.75,2.75,0,0,0,91.947,0c-.279.138-.558.275-.848.407C75.545,8.073,59.578,14.773,43.911,21.984c-3.307,1.525-7.589,3.37-9.5,6.665-2,3.461-2.455,8.092,2.393,8.837,2.935.45,5.932-.17,8.851-.775-.852,1.551-6.1,3.257-7.726,4.124-2.944,1.577-6.065,3-8.9,4.755-4.572,2.849-9.6,5.042-14.183,8C10.622,56.309,1.247,64.2,4.771,70.162c2.14,3.616,8.359,2.528,11.849,2.281,5.81-.425,11.405-2.335,16.879-4.208-6.356,3.481-12.748,7-18.453,11.463C9.324,84.166,4.269,89.669,1.29,96.283c-1.421,3.141-2.145,7.318.4,9.644,2.174,1.993,5.582,1.525,8.406.694A51.494,51.494,0,0,0,31.619,93.9c-10.455,11.368-21.253,23.331-25.377,38.219a13.82,13.82,0,0,0-.626,5.582,5.7,5.7,0,0,0,3.053,4.465c2.785,1.225,5.907-.706,8.179-2.727,10.86-9.591,16.584-22.395,24.051-34.43a86.079,86.079,0,0,0-2.517,20.317c-.03,5.793.743,12.056,4.717,16.272a3.2,3.2,0,0,0,1.768,1.117,3.423,3.423,0,0,0,2.753-1.5c4.866-5.447,7.078-12.728,8.67-19.858a159.407,159.407,0,0,0,3.564-24.868c-.262,4.707-.386,9.112,1.159,14.1,1.233,3.944,3.686,10.928,9.034,9.493a6.692,6.692,0,0,0,3.577-2.625c3.022-4.048,4.122-11.419,4.962-15.2A160.262,160.262,0,0,0,81.621,79.02c.3-4.045.563-8.086.9-12.129.262-3.226,1.612-7.669,1.125-10.827.553,3.543,1.141,7.205,3.11,10.2C88.7,69.271,92.437,71.439,95.876,70.437Z" transform="translate(0)" stroke="#acacac" stroke-width="2"/>
      <path id="路径_781" data-name="路径 781" d="M59.77,44.845a.539.539,0,0,0-.092-.283c5.374-9.307,10.855-18.891,15.861-28.617a343.345,343.345,0,0,0,7.554,43.582.477.477,0,1,0,.926-.232A341.173,341.173,0,0,1,76.329,14.4Q79.86,7.5,83.276.485A2.751,2.751,0,0,0,83.107,0c-.279.138-.558.275-.848.407-2.135,4.389-4.332,8.76-6.54,13.1a.325.325,0,0,0-.2.067A103.071,103.071,0,0,1,34.733,30.427a.473.473,0,0,0-.392.554.484.484,0,0,0,.555.392A104.057,104.057,0,0,0,74.87,15.157C69.621,25.376,63.842,35.448,58.2,45.217c-5.751,5.368-13.571,8.13-21.756,10.709-8.83,2.775-17.492,5.324-26.463,6.134a.477.477,0,1,0,.089.95c9.062-.818,17.782-3.394,26.658-6.172,7.37-2.314,14.447-4.8,20.056-9.174-2.572,4.47-5.186,9.019-7.767,13.613A214.072,214.072,0,0,1,.246,96.845a.471.471,0,0,0-.19.636.469.469,0,0,0,.641.207,215.262,215.262,0,0,0,46.746-33.6Q45.386,67.8,43.386,71.5C33.96,89.117,22.3,109.611,7.227,128.087a.485.485,0,0,0,.066.674.5.5,0,0,0,.675-.066c15.125-18.548,26.812-39.087,36.262-56.744,1-1.875,2.024-3.738,3.054-5.613-3.848,12-12.913,43.293-9.788,63.15a.48.48,0,0,0,.537.4.473.473,0,0,0,.4-.548C34.643,105.221,49.076,63.866,49.786,61.86,52.619,56.807,55.5,51.8,58.346,46.881c.141-.257.294-.507.44-.775-.448,18.4-.787,37.375,4.6,55.381a.469.469,0,0,0,.591.325.48.48,0,0,0,.325-.591C58.835,82.937,59.3,63.572,59.77,44.845Z" transform="translate(8.84 0)" fill="#acacac"/>
    </g>
  </g>
</svg>
