<svg xmlns="http://www.w3.org/2000/svg" width="167.809" height="221.565" viewBox="0 0 167.809 221.565">
  <g id="grassR1" transform="translate(1.464 1.359)">
    <g id="组_968" data-name="组 968" transform="matrix(-0.788, -0.616, 0.616, -0.788, 91.647, 218.828)">
      <path id="路径_777" data-name="路径 777" d="M3.427,54.165C2.037,58.08.288,62.74.013,66.925c-.256,3.914,3.239,5.371,6.261,6.694,1.495.655,4.994,2.577,5.66,4.237.725,1.809-1.8,2.346-3.334,2.086-.876-.149-6.606-1.439-6.663-2.49a73.5,73.5,0,0,0,8.011,29.422c1.872,3.66,4.273,3.691,7.738,2.658a46.686,46.686,0,0,0,11.536-4.853A100.633,100.633,0,0,0,42.41,94.913c2.476-2.172,22.323-22.837,18.33-25.079a3.685,3.685,0,0,0-2.532-.062,37.621,37.621,0,0,1-5.635.711,4.168,4.168,0,0,1-1.868-.206,1.541,1.541,0,0,1-1-1.461,1.962,1.962,0,0,1,.836-1.239c3.126-2.5,8.116-1.909,10.826-4.852a9.789,9.789,0,0,0,1.889-3.606c1.624-4.848,2.177-9.979,2.721-15.064q.435-4.063.869-8.127a2.882,2.882,0,0,0-.007-.976,1.974,1.974,0,0,0-2.147-1.28,5.759,5.759,0,0,0-2.473,1.082l-6.444,4.139a4.861,4.861,0,0,1-2.159.931A1.668,1.668,0,0,1,51.8,38.646a2.147,2.147,0,0,1,.389-1.406c3.417-5.8,11.177-8.473,11.3-16.05.051-3.173-1.219-6.213-2.659-9.04-1.176-2.31-2.48-4.553-3.87-6.74C56.034,3.961,54.665.754,52.925.122c-1.715-.622-3.8,1.3-5.109,2.154-7.049,4.56-14,9.219-19.94,15.225a2.282,2.282,0,0,0-.753,1.178,2.322,2.322,0,0,0,.452,1.452c1.636,2.814,3.078,5.9,5.265,8.295.765.837,1.516,1.435,1.5,2.735-.025,1.706-1.1,2.025-2.257.791-2.368-2.534-4.43-6.074-7.234-8.1a1.928,1.928,0,0,0-1.258-.468A2.215,2.215,0,0,0,22.2,24.4a107.687,107.687,0,0,0-7.168,10.334,3.224,3.224,0,0,0-.656,1.933,3.542,3.542,0,0,0,1.533,2.084,30.887,30.887,0,0,1,7.717,9.478,3.928,3.928,0,0,1,.5,2.852,1.5,1.5,0,0,1-.6.832,2.052,2.052,0,0,1-1.933-.161c-2.993-1.462-4.913-4.407-7.161-6.865a3.414,3.414,0,0,0-1.851-1.246c-1.634-.256-3.788,2.034-4.769,3.168A23.477,23.477,0,0,0,3.427,54.165Z" transform="translate(0 0)" stroke="#acacac" stroke-width="2"/>
      <path id="路径_778" data-name="路径 778" d="M40.09,8.335c1.493,3.685,3.1,7.319,4.789,10.92C46.3,13.04,47.548,6.786,48.658.508c.16-.906,1.528-.493,1.37.4Q48.3,10.677,46.08,20.354a22.462,22.462,0,0,0,4.709-3.329L56.8,12.307c.717-.562,1.7.471.979,1.039L51.3,18.434c-1.721,1.35-3.456,2.956-5.6,3.567C44.021,29.067,42.1,36.071,39.87,42.983a105.32,105.32,0,0,0,13.122-9.288c.7-.585,1.687.45.979,1.038A107.7,107.7,0,0,1,39.3,45a.589.589,0,0,1-.1.027c-.2.592-.381,1.187-.582,1.777q-2.19,6.406-4.778,12.676c.07.149.139.3.21.447L47.628,54c.836-.364,1.513.893.668,1.262L34.032,61.489a.73.73,0,0,1-.926-.248q-3.25,7.659-7.155,15.014c.425-.154.926-.384,1.074-.434q1.48-.5,2.953-1.028,3.486-1.249,6.913-2.66,6.4-2.633,12.572-5.789a.715.715,0,0,1,.669,1.262,169.482,169.482,0,0,1-21.518,9.172c-.913.316-1.828.642-2.752.926a2.645,2.645,0,0,1-.774.144q-2.719,4.974-5.769,9.762c.036,0,.068,0,.106,0a12.683,12.683,0,0,0,1.8-.319l3.607-.639L32.5,85.3c.9-.159,1.23,1.231.321,1.392l-8.793,1.557c-1.427.253-2.852.537-4.284.759a3.617,3.617,0,0,1-1.336.006c-.162.248-.319.5-.482.745a144.852,144.852,0,0,1-16.741,20.9c-.64.661-1.618-.38-.979-1.038a143.679,143.679,0,0,0,17.014-21.4,16.256,16.256,0,0,1-1.627-2.97q-.872-1.756-1.626-3.567a61.989,61.989,0,0,1-2.586-7.593c-.24-.887,1.151-1.209,1.392-.321a58.333,58.333,0,0,0,5.131,12.827c.059.107.116.2.176.295q3.1-4.843,5.854-9.9a7.417,7.417,0,0,1-.314-1.034q-.412-1.544-.809-3.093Q21.306,67,20.019,61.08q-1.458-6.694-2.634-13.447c-.157-.9,1.232-1.23,1.392-.321q2.441,13.949,6.059,27.654c.018.066.035.154.052.249q1.2-2.258,2.337-4.546,2.717-5.491,5.06-11.148A96.969,96.969,0,0,1,26.4,42.959a.714.714,0,0,1,1.392-.321,95.076,95.076,0,0,0,5.226,15.051q2.766-6.826,5.072-13.828a82.51,82.51,0,0,1-2.76-17.5c-.045-.919,1.383-.871,1.427.043a80.563,80.563,0,0,0,2.15,14.89q2.334-7.372,4.243-14.867c.416-1.634.805-3.276,1.193-4.917Q41.4,15.34,38.828,9C38.487,8.161,39.744,7.482,40.09,8.335Z" transform="translate(0.482 11.084)" fill="#acacac"/>
    </g>
    <g id="组_969" data-name="组 969" transform="translate(0 52.111) rotate(-30)">
      <path id="路径_780" data-name="路径 780" d="M97.661,73.639c10.868,3.115,5.122,25.622,4.412,33.409A156.373,156.373,0,0,1,99,126.782c-.316,1.446-4.289,15.331-5.175,18.111a2.8,2.8,0,0,1-.172.494c-.284-.14-.568-.28-.864-.414-15.844-7.809-32.108-14.634-48.066-21.979C41.36,121.44,37,119.56,35.052,116.2c-2.04-3.525-2.5-8.243,2.438-9,2.99-.458,6.042.173,9.016.789-.868-1.58-6.217-3.318-7.87-4.2-3-1.607-6.178-3.058-9.066-4.844-4.657-2.9-9.775-5.135-14.447-8.148C10.82,88.03,1.27,79.988,4.86,73.919c2.18-3.683,8.514-2.575,12.07-2.324,5.919.433,11.617,2.378,17.194,4.287-6.474-3.545-12.985-7.13-18.8-11.677C9.5,59.655,4.348,54.049,1.314,47.312c-1.447-3.2-2.185-7.454.4-9.824,2.214-2.03,5.686-1.554,8.562-.707a52.452,52.452,0,0,1,21.927,12.96C21.558,38.162,10.56,25.976,6.359,10.811a14.077,14.077,0,0,1-.638-5.686A5.8,5.8,0,0,1,8.831.576c2.837-1.248,6.017.719,8.331,2.777,11.062,9.77,16.893,22.812,24.5,35.071A87.68,87.68,0,0,1,39.1,17.729c-.03-5.9.757-12.281,4.8-16.575A3.256,3.256,0,0,1,45.7.017c1.1-.147,2.07.7,2.8,1.523,4.956,5.549,7.209,12.965,8.831,20.227A162.374,162.374,0,0,1,60.967,47.1c-.266-4.794-.393-9.282,1.181-14.363,1.255-4.018,3.755-11.131,9.2-9.67a6.817,6.817,0,0,1,3.644,2.674c3.078,4.124,4.2,11.631,5.055,15.481A163.244,163.244,0,0,1,83.14,64.9c.309,4.12.573,8.236.912,12.355.267,3.286,1.642,7.812,1.146,11.029.563-3.609,1.162-7.34,3.168-10.395C90.353,74.826,94.157,72.618,97.661,73.639Z" transform="translate(0 0)" stroke="#acacac" stroke-width="2"/>
      <path id="路径_781" data-name="路径 781" d="M60.882,86.627a.549.549,0,0,1-.093.288c5.474,9.48,11.057,19.242,16.157,29.15A349.733,349.733,0,0,1,84.64,71.672a.486.486,0,1,1,.943.236,347.524,347.524,0,0,0-7.833,45.727q3.6,7.034,7.076,14.179a2.8,2.8,0,0,1-.172.494c-.284-.14-.568-.28-.864-.414-2.175-4.471-4.413-8.923-6.661-13.34a.331.331,0,0,1-.2-.068,104.989,104.989,0,0,0-41.55-17.171.481.481,0,0,1-.4-.565.493.493,0,0,1,.566-.4,105.994,105.994,0,0,1,40.718,16.518C70.917,106.459,65.03,96.2,59.283,86.248c-5.858-5.468-13.824-8.282-22.161-10.909-8.994-2.827-17.818-5.423-26.956-6.248a.486.486,0,1,1,.091-.967c9.23.834,18.113,3.457,27.154,6.287,7.507,2.357,14.716,4.893,20.43,9.345-2.62-4.553-5.282-9.187-7.912-13.867A218.056,218.056,0,0,0,.25,33.66a.48.48,0,0,1-.193-.648A.478.478,0,0,1,.71,32.8,219.268,219.268,0,0,1,48.326,67.026q-2.1-3.776-4.133-7.554c-9.6-17.94-21.48-38.816-36.833-57.636a.494.494,0,0,1,.067-.687.5.5,0,0,1,.687.067c15.406,18.894,27.311,39.815,36.937,57.8,1.019,1.91,2.061,3.808,3.111,5.718C44.244,52.506,35.01,20.635,38.193.409A.489.489,0,0,1,38.74,0a.482.482,0,0,1,.41.558C35.288,25.128,49.99,67.252,50.712,69.3c2.886,5.147,5.823,10.251,8.72,15.257.144.261.3.517.448.789-.456-18.746-.8-38.07,4.688-56.412a.478.478,0,0,1,.6-.331.489.489,0,0,1,.331.6C59.93,47.827,60.407,67.552,60.882,86.627Z" transform="translate(9.005 13.079)" fill="#acacac"/>
    </g>
  </g>
</svg>
