<svg xmlns="http://www.w3.org/2000/svg" width="118.465" height="155.258" viewBox="0 0 118.465 155.258">
  <g id="grassC1" transform="translate(98.602 162.354) rotate(-166)">
    <path id="路径_786" data-name="路径 786" d="M0,10.12A55.274,55.274,0,0,1,8.073,0C8.74,3.142,9.589,6.248,10.03,9.429a21.692,21.692,0,0,1-.518,9.539" transform="translate(28.064 108.174)" fill="none" stroke="#fff" stroke-linecap="round" stroke-linejoin="round" stroke-width="0.5"/>
    <g id="组_966" data-name="组 966" transform="translate(0 0)">
      <path id="路径_787" data-name="路径 787" d="M10.915,26.416C3.6,35.155-1.553,46.956.426,58.217c1.309,7.447,2.826,14.832,3.842,22.439q.882,6.61,1.765,13.218c.29,2.167,2.408,8.975,1.444,10.815,9.1-17.389,28.38-26.4,38.3-43.511C55.433,44.526,53.4,18.915,53.823,0c-13.8,5.757-27.928,11.724-38.776,22.012A52.755,52.755,0,0,0,10.915,26.416Z" transform="translate(17.794 44.058)" stroke="#acacac" stroke-width="2"/>
      <path id="路径_788" data-name="路径 788" d="M.043,130.193A142.6,142.6,0,0,0,4.91,114.226c1.3-5.256,2.154-10.651,3.61-15.862A58.953,58.953,0,0,1,14.394,85c1.685-2.94,3.5-5.8,5.255-8.7.876-1.449,1.774-2.886,2.752-4.267,10.7-15.128,23.934-28.279,34.524-43.5A100.508,100.508,0,0,0,71.086.443c.221-.733,1.4-.49,1.172.251C66.8,18.763,55.15,33.765,43.2,48.028c-6.046,7.217-12.214,14.346-17.818,21.918C23.5,72.5,21.759,75.156,20.1,77.863c-3.478,5.684-7.167,11.413-9.45,17.749a66.961,66.961,0,0,0-2.259,8.71c-.637,2.965-1.289,5.927-2,8.876a148.732,148.732,0,0,1-5.287,17.548c-.271.72-1.334.163-1.064-.553Z" transform="translate(29.334 0)" fill="#acacac"/>
      <path id="路径_789" data-name="路径 789" d="M.373,9.725,21.786.041a.6.6,0,0,1,.775.695A158.341,158.341,0,0,0,16.418,32.5c-.068.766-1.24.51-1.172-.251A158.2,158.2,0,0,1,21.389.485q.386.348.773.695L.749,10.864c-.7.318-1.073-.824-.376-1.138Z" transform="translate(46.594 52.245)" fill="#acacac"/>
      <path id="路径_790" data-name="路径 790" d="M.228,11.881A65.232,65.232,0,0,1,21.059.029a.6.6,0,0,1,.775.695A103.78,103.78,0,0,0,18.1,34.107a.6.6,0,0,1-1.2.07A104.831,104.831,0,0,1,20.662.474l.775.693A64.368,64.368,0,0,0,.881,12.886c-.588.5-1.235-.513-.653-1.005Z" transform="translate(33.54 69.456)" fill="#acacac"/>
      <path id="路径_791" data-name="路径 791" d="M.024,15.726A23.3,23.3,0,0,1,6.13,5.238c2.738-2.667,6.5-3.872,10-5.2a.578.578,0,0,1,.786.544,138.253,138.253,0,0,0,2.557,27c.147.748-.99,1.132-1.138.376A139.832,139.832,0,0,1,15.713.643l.787.534C13.216,2.426,9.593,3.537,7.017,6.045A22.1,22.1,0,0,0,1.2,15.975c-.2.741-1.379.5-1.173-.249Z" transform="translate(24.848 91.935)" fill="#acacac"/>
      <path id="路径_792" data-name="路径 792" d="M0,18.682C12.368,6.952,32.5-2.024,49.874.4c6.044.844,11.765,3.069,17.412,5.289,5.161,2.03,10.295,4.42,15.719,5.419-.915-.169-3.026,3.439-3.5,4.081-1.272,1.721-2.477,3.506-3.806,5.194A48.011,48.011,0,0,1,66.7,29.348c-6.242,4.622-16.879,5.2-24.422,4.684C27.2,32.993,13.231,26,0,18.682Z" transform="translate(0 16.281)" stroke="#acacac" stroke-width="2"/>
      <path id="路径_793" data-name="路径 793" d="M70.672,1.085A125.486,125.486,0,0,1,45.336,11.809,105.476,105.476,0,0,1,31.424,14.83a85.92,85.92,0,0,1-14.239.644C11.661,15.353,6.143,15,.616,15.046c-.771.006-.844-1.191-.071-1.2,9.561-.075,19.16,1.078,28.7.05a92.973,92.973,0,0,0,13.695-2.671A106.485,106.485,0,0,0,56.055,6.793,139.742,139.742,0,0,0,70.019.08c.674-.369,1.331.636.653,1.005Z" transform="translate(20.23 23.031)" fill="#acacac"/>
      <path id="路径_794" data-name="路径 794" d="M3.728,14.5A89.38,89.38,0,0,0,18.09,10.086c-.029.367-.059.735-.088,1.1A99.9,99.9,0,0,1,.225,1.009C-.4.561.412-.323,1.034.122a98.363,98.363,0,0,0,17.522,10,.607.607,0,0,1-.089,1.1A89.124,89.124,0,0,1,4.1,15.635c-.747.163-1.13-.975-.376-1.138Z" transform="translate(20.155 27.561)" fill="#acacac"/>
      <path id="路径_795" data-name="路径 795" d="M.991.169a46.567,46.567,0,0,0,17.364,10.82.608.608,0,0,1,.318.99,37.225,37.225,0,0,1-12.4,8.933c-.706.315-1.076-.827-.376-1.138a35.815,35.815,0,0,0,11.894-8.6q.158.5.318.99A47.894,47.894,0,0,1,.184,1.057C-.365.516.439-.374.991.169Z" transform="translate(35.997 25.341)" fill="#acacac"/>
      <path id="路径_796" data-name="路径 796" d="M1.009.152a33.954,33.954,0,0,0,12.45,6.815c4.121,1.272,8.5,2.6,12.856,1.894.567-.092.762.634.479,1a84.6,84.6,0,0,1-9.026,9.958A26.6,26.6,0,0,1,7.924,25.7a.6.6,0,0,1-.4-1.131c3.142-1.157,6.218-2.485,8.616-4.82a100.933,100.933,0,0,0,9.763-10.69q.241.5.479,1c-4.556.74-9.168-.674-13.478-2.013A34.92,34.92,0,0,1,.2,1.038C-.38.532.426-.356,1.009.152Z" transform="translate(46.737 21.291)" fill="#acacac"/>
      <g id="组_965" data-name="组 965" transform="translate(66.474 22.493)">
        <g id="组_964" data-name="组 964">
          <g id="组_960" data-name="组 960" transform="translate(6.289 28.625)">
            <path id="路径_797" data-name="路径 797" d="M13.288,8.118a6.717,6.717,0,1,0-7.969,5.17A6.716,6.716,0,0,0,13.288,8.118Z" fill="#acacac"/>
          </g>
          <g id="组_961" data-name="组 961" transform="translate(0 9.496)">
            <path id="路径_798" data-name="路径 798" d="M13.289,8.118a6.718,6.718,0,1,0-7.969,5.17A6.717,6.717,0,0,0,13.289,8.118Z" fill="#acacac"/>
          </g>
          <g id="组_962" data-name="组 962" transform="translate(25.274 21.747)">
            <path id="路径_799" data-name="路径 799" d="M13.289,8.118A6.718,6.718,0,1,0,5.32,13.289,6.718,6.718,0,0,0,13.289,8.118Z" fill="#acacac"/>
          </g>
          <g id="组_963" data-name="组 963" transform="translate(19.254 0)">
            <path id="路径_800" data-name="路径 800" d="M13.288,8.118a6.717,6.717,0,1,0-7.969,5.171A6.717,6.717,0,0,0,13.288,8.118Z" fill="#acacac"/>
          </g>
        </g>
      </g>
    </g>
  </g>
</svg>
