<svg xmlns="http://www.w3.org/2000/svg" width="118.465" height="155.258" viewBox="0 0 118.465 155.258">
  <g id="grassC1" transform="translate(-345.038 -301.813) rotate(-14)">
    <path id="路径_787" data-name="路径 787" d="M266.878,468.183c-7.311-8.739-12.469-20.539-10.489-31.8,1.309-7.447,2.826-14.832,3.842-22.439q.882-6.61,1.765-13.218c.29-2.167,2.408-8.975,1.444-10.815,9.1,17.389,28.38,26.4,38.3,43.511,9.654,16.652,7.623,42.263,8.045,61.178-13.8-5.757-27.928-11.724-38.776-22.012A52.755,52.755,0,0,1,266.878,468.183Z" transform="translate(3.6 0)" stroke="#acacac" stroke-width="2"/>
    <path id="路径_788" data-name="路径 788" d="M265.212,404.89a142.6,142.6,0,0,1,4.867,15.967c1.3,5.256,2.154,10.651,3.61,15.862a58.954,58.954,0,0,0,5.873,13.36c1.685,2.94,3.5,5.8,5.255,8.7.876,1.449,1.774,2.886,2.752,4.267,10.7,15.128,23.934,28.279,34.524,43.5a100.508,100.508,0,0,1,14.162,28.1c.221.733,1.4.49,1.172-.251-5.461-18.07-17.108-33.072-29.057-47.334-6.046-7.217-12.214-14.346-17.818-21.918-1.888-2.552-3.625-5.21-5.283-7.917-3.478-5.684-7.167-11.413-9.45-17.749a66.961,66.961,0,0,1-2.259-8.71c-.637-2.965-1.289-5.927-2-8.876a148.732,148.732,0,0,0-5.287-17.548c-.271-.72-1.334-.163-1.064.553Z" transform="translate(5.935 3.574)" fill="#acacac"/>
    <path id="路径_789" data-name="路径 789" d="M279.309,463.831l21.413,9.684a.6.6,0,0,0,.775-.695,158.341,158.341,0,0,1-6.143-31.764c-.068-.766-1.24-.51-1.172.251a158.2,158.2,0,0,0,6.143,31.764q.386-.348.773-.695l-21.413-9.684c-.7-.318-1.073.824-.376,1.138Z" transform="translate(9.427 12.855)" fill="#acacac"/>
    <path id="路径_790" data-name="路径 790" d="M268.751,448.3a65.232,65.232,0,0,0,20.832,11.852.6.6,0,0,0,.775-.695,103.78,103.78,0,0,1-3.732-33.383.6.6,0,0,0-1.2-.07,104.831,104.831,0,0,0,3.758,33.7l.775-.693A64.368,64.368,0,0,1,269.4,447.3c-.588-.5-1.235.513-.653,1.005Z" transform="translate(6.786 9.017)" fill="#acacac"/>
    <path id="路径_791" data-name="路径 791" d="M261.614,425.242a23.3,23.3,0,0,0,6.106,10.488c2.738,2.667,6.5,3.872,10,5.2a.578.578,0,0,0,.786-.544,138.253,138.253,0,0,1,2.557-27c.147-.748-.99-1.132-1.138-.376a139.832,139.832,0,0,0-2.618,27.318l.787-.534c-3.285-1.249-6.908-2.359-9.484-4.868a22.1,22.1,0,0,1-5.819-9.93c-.2-.741-1.379-.5-1.173.249Z" transform="translate(5.027 5.754)" fill="#acacac"/>
    <path id="路径_792" data-name="路径 792" d="M241.769,483.811c12.368,11.73,32.5,20.706,49.874,18.285,6.044-.844,11.765-3.069,17.412-5.289,5.161-2.03,10.295-4.42,15.719-5.419-.915.169-3.026-3.439-3.5-4.081-1.272-1.721-2.477-3.506-3.806-5.194a48.011,48.011,0,0,0-8.994-8.968c-6.242-4.622-16.879-5.2-24.422-4.684C268.968,469.5,255,476.494,241.769,483.811Z" transform="translate(0 19.883)" stroke="#acacac" stroke-width="2"/>
    <path id="路径_793" data-name="路径 793" d="M328.578,492.245a125.485,125.485,0,0,0-25.336-10.724,105.476,105.476,0,0,0-13.913-3.021,85.92,85.92,0,0,0-14.239-.644c-5.523.122-11.042.473-16.569.429-.771-.006-.844,1.191-.071,1.2,9.561.075,19.16-1.078,28.7-.05a92.973,92.973,0,0,1,13.695,2.671,106.485,106.485,0,0,1,13.114,4.434,139.742,139.742,0,0,1,13.964,6.713c.674.369,1.331-.636.653-1.005Z" transform="translate(4.093 22.295)" fill="#acacac"/>
    <path id="路径_794" data-name="路径 794" d="M261.574,475.247a89.38,89.38,0,0,1,14.363,4.411c-.029-.367-.059-.735-.088-1.1a99.9,99.9,0,0,0-17.778,10.177c-.626.449.187,1.333.809.888a98.363,98.363,0,0,1,17.522-10,.607.607,0,0,0-.089-1.1,89.124,89.124,0,0,0-14.363-4.412c-.747-.163-1.13.975-.376,1.138Z" transform="translate(4.078 21.351)" fill="#acacac"/>
    <path id="路径_795" data-name="路径 795" d="M271.474,492.422a46.566,46.566,0,0,1,17.364-10.82.608.608,0,0,0,.318-.99,37.225,37.225,0,0,0-12.4-8.933c-.706-.315-1.076.827-.376,1.138a35.815,35.815,0,0,1,11.894,8.6q.158-.5.318-.99a47.894,47.894,0,0,0-17.922,11.1c-.549.54.256,1.43.807.888Z" transform="translate(7.283 20.725)" fill="#acacac"/>
    <path id="路径_796" data-name="路径 796" d="M280.059,496.634a33.954,33.954,0,0,1,12.45-6.815c4.121-1.272,8.5-2.6,12.856-1.894.567.092.762-.634.479-1a84.6,84.6,0,0,0-9.026-9.958,26.6,26.6,0,0,0-9.843-5.876.6.6,0,0,0-.4,1.131c3.142,1.157,6.218,2.485,8.616,4.82a100.933,100.933,0,0,1,9.763,10.69q.241-.5.479-1c-4.556-.74-9.168.674-13.478,2.013a34.92,34.92,0,0,0-12.706,7.008c-.582.506.224,1.394.807.886Z" transform="translate(9.456 20.58)" fill="#acacac"/>
    <g id="组_965" data-name="组 965" transform="translate(308.243 474.101)">
      <g id="组_964" data-name="组 964">
        <g id="组_960" data-name="组 960" transform="translate(6.289)">
          <path id="路径_797" data-name="路径 797" d="M313.1,462.387a6.717,6.717,0,1,1-7.969-5.17A6.716,6.716,0,0,1,313.1,462.387Z" transform="translate(-299.811 -457.068)" fill="#acacac"/>
        </g>
        <g id="组_961" data-name="组 961" transform="translate(0 19.129)">
          <path id="路径_798" data-name="路径 798" d="M308.084,477.646a6.718,6.718,0,1,1-7.969-5.17A6.717,6.717,0,0,1,308.084,477.646Z" transform="translate(-294.794 -472.327)" fill="#acacac"/>
        </g>
        <g id="组_962" data-name="组 962" transform="translate(25.274 6.877)">
          <path id="路径_799" data-name="路径 799" d="M328.245,467.874a6.718,6.718,0,1,1-7.969-5.171A6.718,6.718,0,0,1,328.245,467.874Z" transform="translate(-314.955 -462.554)" fill="#acacac"/>
        </g>
        <g id="组_963" data-name="组 963" transform="translate(19.254 28.624)">
          <path id="路径_800" data-name="路径 800" d="M323.441,485.221a6.717,6.717,0,1,1-7.969-5.171A6.717,6.717,0,0,1,323.441,485.221Z" transform="translate(-310.153 -479.901)" fill="#acacac"/>
        </g>
      </g>
    </g>
  </g>
</svg>
