<svg xmlns="http://www.w3.org/2000/svg" width="264.462" height="81.01" viewBox="0 0 264.462 81.01">
  <g id="竹炭水logo" transform="translate(-66.14 156.402)">
    <g id="logo" transform="translate(66.14 -156.402)">
      <g id="组_854" data-name="组 854" transform="translate(174.756 33.045)">
        <path id="路径_598" data-name="路径 598" d="M291.3-105.726c-1.4-1.485-2.849-2.97-4.251-4.44,1.059-1.355,2.116-2.718,3.086-4.157.766-1.117-.9-2.363-1.666-1.248-.92,1.319-1.92,2.59-2.893,3.86-1.128-1.163-2.23-2.338-3.346-3.5-.956-.973-2.592.332-1.663,1.306,1.248,1.283,2.477,2.576,3.716,3.874-1.343,1.674-2.768,3.264-4.238,4.832-.953.973.745,2.21,1.657,1.247,1.431-1.461,2.746-2.99,4.041-4.547,1.307,1.353,2.637,2.707,3.923,4.1C290.587-103.444,292.23-104.74,291.3-105.726Z" transform="translate(-279.763 116.008)" fill="#fff"/>
      </g>
      <g id="组_857" data-name="组 857">
        <path id="路径_599" data-name="路径 599" d="M217.67-95.937l-.022.133a.29.29,0,0,0,.022-.133" transform="translate(-93.706 145.401)" fill="#fff"/>
        <path id="路径_600" data-name="路径 600" d="M190.863-100.078c-.287,1.474,1.686,1.876,2.638,2.623,2.826.926,3.694-.142,5.844-1.318,1.283-.735,2.3,1.45,3.254.095-.259-3.027,5.439-3.159,6.486-5.046,1.421,1.02.947,3.372,2.85,4.275l.258-.262c.147.238.452.38.474.606l.316-1.97c-.1-2.091,1.68-5.17-.291-7.187a5.408,5.408,0,0,0-3.707-1.057c1.331,1.52.193,2.837.1,4.644-1.284.544-3.759,1.994-5.225,1.4a40.547,40.547,0,0,0,.923-6.45c-1.07-2.032-3.354-2.2-4.9-3.622.43,2.516-.234,5.7-.088,8.124.3.117.255.414.255.675-1.225.536.523,1.877-.327,2.793-2.092.356-3.138,1.223-5.134,1.068l.879-4.844c-1.047-1.972-3.208-1.747-4.9-2.471,1.233,2.528-1.7,5.366.287,7.922" transform="translate(-88.703 148.568)" fill="#fff"/>
        <path id="路径_601" data-name="路径 601" d="M66.14-99.8s15.427-7.762,23.387-8.079c7.061-.285,8.673,1.749,8.673,1.749a25.2,25.2,0,0,1-9.145,3.634c-7.725,1.362-15.413,1-22.915,2.7" transform="translate(-66.14 147.578)" fill="#009844"/>
        <g id="组_855" data-name="组 855" transform="translate(0.491 38.691)">
          <path id="路径_602" data-name="路径 602" d="M199.3-84.7l.045.033c0-.033-.023-.046-.045-.033" transform="translate(-90.858 104.665)" fill="#fff"/>
          <path id="路径_603" data-name="路径 603" d="M176.623-80.838l.032.034c0-.034-.009-.044-.032-.034" transform="translate(-86.732 103.963)" fill="#fff"/>
          <path id="路径_604" data-name="路径 604" d="M106.046-72.773a7.328,7.328,0,0,0,.944-.2c.147-.037.27-.06.34-.086a2.466,2.466,0,0,0,.191-.461,2.473,2.473,0,0,0,.073-.393c0-.107-.073-.143-.263-.143a2.783,2.783,0,0,0-.591.143,7.533,7.533,0,0,1-.762.2v.119c.024.344.069.607.069.819m-1.185-1.52a1.762,1.762,0,0,1,.575.083,1.423,1.423,0,0,1,.353.119c.256-.047.47-.081.684-.119a6.471,6.471,0,0,0,.978-.343.781.781,0,0,1,.308-.107,3.211,3.211,0,0,1,.879.234c.214.1.311.216.311.313,0,.08-.075.154-.191.223a1.3,1.3,0,0,0-.359.416l-.305.569c.217.109.305.2.305.276s-.044.07-.088.07a3.253,3.253,0,0,0-.691.071l-.144.013c.263.142.359.25.359.344,0,.06-.063.133-.074.178-.375.452-.713.833-.949,1.178a.221.221,0,0,1,.092.013,16.73,16.73,0,0,1,1.641.4,4.935,4.935,0,0,1,1.353.618.875.875,0,0,1,.261.583.743.743,0,0,1-.136.381.425.425,0,0,1-.363.174,1.481,1.481,0,0,1-.429-.126,5.2,5.2,0,0,1-1.181-.762,10.532,10.532,0,0,0-1.466-1,6.716,6.716,0,0,1-1.018,1.166,5.078,5.078,0,0,1-.912.653.847.847,0,0,1-.3.07c-.088,0-.133-.021-.133-.07a12.8,12.8,0,0,0,1.9-2.48,4.214,4.214,0,0,0,.309-1.162c-.092,0-.169.009-.215.009s-.116-.009-.168-.009a.518.518,0,0,1-.069.187.234.234,0,0,1-.146.133c-.1,0-.183-.073-.285-.178a.81.81,0,0,1-.209-.452l-.139-.534a1.531,1.531,0,0,0-.142-.559,1.048,1.048,0,0,0-.263-.344c-.085-.024-.095-.037-.095-.047a.158.158,0,0,1,.165-.18m.81-1.924a6.562,6.562,0,0,1,.758.083c.324.094.5.179.5.23,0,.116-.187.2-.616.258-.236.034-.425.06-.592.1s-.521.095-1.141.19a4.711,4.711,0,0,1-.691.071,1.878,1.878,0,0,1-.61-.071c-.291-.085-.43-.143-.43-.226,0-.106.213-.165.667-.191a14.555,14.555,0,0,0,1.838-.357,2.576,2.576,0,0,1,.322-.083m-3.615,3.789a6.938,6.938,0,0,0,.814-.166.672.672,0,0,1,.234-.061,4.347,4.347,0,0,1,.045-.569,2.035,2.035,0,0,0,.026-.38c0-.1-.071-.119-.168-.119a1.894,1.894,0,0,0-.522.07c-.26.049-.451.1-.616.133a1.163,1.163,0,0,1,.031.238c.063.368.111.641.155.854m2.164-8.409a2.24,2.24,0,0,1,.52.155c.5.306.762.544.762.711a.375.375,0,0,1-.1.227,2.862,2.862,0,0,0-.209.33,4.152,4.152,0,0,1,.826.595,22.707,22.707,0,0,0,2.77,2.152,21.333,21.333,0,0,0,2.959,1.22c.161.049.261.11.261.156,0,.084-.1.129-.281.167a15.383,15.383,0,0,1-2.048.26,1.5,1.5,0,0,1-.735-.2,20.275,20.275,0,0,1-2.372-2.435c-.382-.44-.768-.822-1.1-1.141-.169-.143-.335-.273-.477-.38-.263.416-.591.915-1.022,1.522a7.936,7.936,0,0,1-1.842,1.912,3.165,3.165,0,0,1-1.387.724c-.092,0-.134,0-.134-.045a.2.2,0,0,1,.083-.132,9.628,9.628,0,0,0,1.8-2.093,12.073,12.073,0,0,0,1.295-2.244,3.042,3.042,0,0,0,.155-1.091c0-.24.106-.369.272-.369m-3.468,6.852a2.236,2.236,0,0,1,.6.071.557.557,0,0,1,.212.086,5.94,5.94,0,0,0,.643-.109,4.036,4.036,0,0,0,.879-.273.848.848,0,0,1,.258-.083,3.166,3.166,0,0,1,.833.214c.18.094.261.165.261.27a.336.336,0,0,1-.123.232,1.378,1.378,0,0,0-.257.447l-.215.57c.191.084.289.167.289.25a.094.094,0,0,1-.074.083,3.47,3.47,0,0,0-.645.048h-.1c.235.165.367.26.352.357,0,.06-.061.119-.084.177-.379.391-.686.711-.924,1,.261.083.523.151.757.226a2.717,2.717,0,0,1,.811.4.578.578,0,0,1,.133.357.742.742,0,0,1-.088.355.359.359,0,0,1-.317.142,1.431,1.431,0,0,1-.214-.071,2.926,2.926,0,0,1-.63-.546c-.281-.287-.524-.476-.667-.606a9.039,9.039,0,0,1-1.069,1.069,5.237,5.237,0,0,1-.978.583,1.108,1.108,0,0,1-.28.056c-.046,0-.046-.025-.046-.056a13.536,13.536,0,0,0,2.018-2.281,2.726,2.726,0,0,0,.33-1.024,1.636,1.636,0,0,1-.273.038h-.128c0,.034-.023.07-.023.107-.088.081-.119.141-.191.141-.111,0-.168-.06-.259-.166a1.069,1.069,0,0,1-.226-.464l-.133-.524a1.954,1.954,0,0,0-.165-.521.79.79,0,0,0-.345-.321c-.034-.024-.051-.043-.051-.061,0-.1.043-.176.134-.176m-5.531-1.306a2.9,2.9,0,0,1,.374.047,4.879,4.879,0,0,1,.763.12c.167.048.234.132.234.215a.431.431,0,0,1-.493.483.31.31,0,0,1-.236-.081,3.244,3.244,0,0,1-.716-.629.228.228,0,0,1-.092-.07.182.182,0,0,1,.166-.084m-.74,1.984a.091.091,0,0,0,.072.025,6.223,6.223,0,0,1,.994.319.535.535,0,0,1,.272.38,2.718,2.718,0,0,0,.349-.476,1.928,1.928,0,0,1,.093-.176c-.377-.285-.8-.606-1.285-.953a.27.27,0,0,1-.069-.164,1.1,1.1,0,0,1,.24.058c.5.236.952.452,1.326.619.119-.285.268-.57.37-.868a3.256,3.256,0,0,0,.229-1.045.822.822,0,0,0-.025-.261.128.128,0,0,1-.024-.085c-.475.073-1.047.181-1.711.334a3.341,3.341,0,0,1-.759.131v.071a4.616,4.616,0,0,0-.052.972c0,.393,0,.773-.02,1.119m-.141,2.176a5.086,5.086,0,0,0,.761-.645c.078-.083.187-.178.259-.25a.557.557,0,0,1-.259-.129,3.5,3.5,0,0,1-.646-.559c-.032.607-.082,1.126-.115,1.583m-.131.842c.969-.061,1.937-.155,2.791-.273a10.7,10.7,0,0,1-.528-1c-.021-.061-.054-.1-.054-.142s.033-.05.106-.05a.862.862,0,0,1,.317.084,1.936,1.936,0,0,1,.655.369.9.9,0,0,1,.215.628,3.736,3.736,0,0,1,.559-.037,1.914,1.914,0,0,1,.7.179c.024,0,.024.011.024.011.025-.072.044-.154.07-.247a11.38,11.38,0,0,0,.1-2.09v-.276H99.1a.529.529,0,0,1-.317-.1,4.073,4.073,0,0,1-.833-.786c-.05-.036-.083-.058-.083-.092.034-.048.034-.058.083-.058a1.4,1.4,0,0,1,.427.058,3.443,3.443,0,0,1,.788.2c0-.809-.023-1.389-.049-1.756,0-.216-.121-.31-.356-.335a3.682,3.682,0,0,0-.551-.023h-.388c.25.122.388.226.388.321a.873.873,0,0,1-.1.2,2.449,2.449,0,0,0-.246.618,10.236,10.236,0,0,1-.751,1.531c.078.048.17.083.214.107a5.037,5.037,0,0,1,.834.592c.165.144.259.274.259.38,0,.345-.094.524-.311.524a.416.416,0,0,1-.213-.07c-.079-.05-.164-.145-.3-.251a11.143,11.143,0,0,0-.833-.746,4.471,4.471,0,0,1-1.073,1.174,6.58,6.58,0,0,1-1.317.8c-.033.008-.033.023-.085.023-.023.2-.044.38-.079.536m1.981-10.062a3.232,3.232,0,0,1,.95.179c.285.095.4.2.4.322a.4.4,0,0,1-.079.261,2.344,2.344,0,0,0-.057.474l-.026.656c.849-.169,1.4-.273,1.591-.324.259-.045.406-.07.426-.07a4.9,4.9,0,0,1,.5.07c.317.119.452.216.452.287,0,.1-.135.165-.452.225-.448.044-.9.106-1.351.154a3.982,3.982,0,0,1-.677.047c-.153,0-.324,0-.512-.01l-.046,1.7a4.7,4.7,0,0,0,.558-.1,9.5,9.5,0,0,1,1.233-.275,1.515,1.515,0,0,1,.549.225c.463.2.7.392.7.582a1.223,1.223,0,0,1-.167.381,14.682,14.682,0,0,0-.114,2.542,24.834,24.834,0,0,0,.214,2.635,1.7,1.7,0,0,1-.337.963.988.988,0,0,1-.643.393c-.089,0-.184-.074-.261-.249-.2-.347-.367-.609-.5-.8-.334.014-.643.051-.946.074l-2.162.178a8.431,8.431,0,0,1-.933.061.963.963,0,0,1-.372-.049c-.146.44-.243.666-.348.666s-.225-.107-.348-.332a1.329,1.329,0,0,1-.212-.667,4.047,4.047,0,0,1,.074-.6c.095-.441.16-1.048.237-1.748.036-.547.092-1.271.092-2.148a2.161,2.161,0,0,0-.191-1.022.511.511,0,0,1-.07-.223c0-.122.092-.182.261-.182a1.926,1.926,0,0,1,.62.083.482.482,0,0,1,.129.07c.633-.07,1.317-.154,2.046-.284l-.228-3.208a1.105,1.105,0,0,0-.214-.473.44.44,0,0,1-.114-.218c0-.137.114-.235.328-.235" transform="translate(-71.558 103.962)" fill="#fff"/>
          <path id="路径_605" data-name="路径 605" d="M124.9-78.438a1.537,1.537,0,0,1,.572.166c.542.274.8.507.8.713a.267.267,0,0,1-.117.179,2.271,2.271,0,0,0-.29.4,7.032,7.032,0,0,1-.541.82h.07c.713-.047,1.447-.13,2.257-.227l-.023-1a14.536,14.536,0,0,0-.145-1.938,2.209,2.209,0,0,0-.259-.82,2.22,2.22,0,0,1-.17-.33c0-.214.17-.321.475-.321a3.688,3.688,0,0,1,1.33.308c.4.143.6.335.6.569a2.631,2.631,0,0,1-.215.429,12.538,12.538,0,0,0-.335,2.291v.643a15.591,15.591,0,0,0,1.83-.332,1.073,1.073,0,0,1,.334-.059,2.632,2.632,0,0,1,.875.187c.227.087.335.178.335.309,0,.071-.108.156-.406.2a15.989,15.989,0,0,1-2.252.337c-.29.044-.492.067-.74.09l-.024,2.237c.323-.026.643-.1.915-.145.416-.049.627-.087.639-.087a7.352,7.352,0,0,1,.918.11c.429.107.614.191.614.273,0,.131-.238.25-.725.3-.458.061-.886.1-1.231.133-.177.011-.567.034-1.13.092l-.024,2.449c.169-.013.338-.024.5-.038,1.258-.068,2.235-.176,2.915-.282.272-.036.462-.048.507-.048a5.179,5.179,0,0,1,1.023.236c.5.2.733.382.733.56,0,.119-.326.189-1.045.189h-2.3c-.855,0-1.982.035-3.4.119a30.058,30.058,0,0,0-3.155.344,2.75,2.75,0,0,1-.6.085,3.337,3.337,0,0,1-1-.227c-.479-.156-.69-.286-.69-.391s.145-.167.473-.181a23.557,23.557,0,0,0,2.808-.153c.663-.061,1.348-.107,2.092-.155l-.025-2.376h-.065c-.7.06-1.2.084-1.5.084a2.78,2.78,0,0,1-.784-.072c-.337-.083-.5-.153-.5-.224,0-.155.237-.239.713-.263.734-.047,1.419-.107,2.114-.178v-2.268a13.427,13.427,0,0,1-1.484.106,3.547,3.547,0,0,1-1.106-.131c-.023,0-.023,0-.052-.034a4.236,4.236,0,0,1-.376.509,6.157,6.157,0,0,1-1.146.976,1.557,1.557,0,0,1-.6.283H122.8c0-.011.054-.072.088-.128.272-.393.555-.843.844-1.356a7.989,7.989,0,0,0,.71-1.652,3.1,3.1,0,0,0,.214-1.068c0-.168.061-.25.238-.25m-5.3-2.4a3.4,3.4,0,0,1,1.041.355c.381.178.573.366.573.569a.714.714,0,0,1-.07.276,5.561,5.561,0,0,0-.29,1.459c-.024.238-.043.476-.043.678a.658.658,0,0,0,.21.046,9.087,9.087,0,0,1,1,.274,2.172,2.172,0,0,1,.855.463.548.548,0,0,1,.191.383.75.75,0,0,1-.146.429.436.436,0,0,1-.355.2,2.091,2.091,0,0,1-.239-.095,3.719,3.719,0,0,1-.71-.618c-.382-.392-.641-.654-.807-.809h-.024c-.124,1.248-.171,2.187-.171,2.825,0,.016-.021,1.642-.045,4.872a1.623,1.623,0,0,1-.281.855c-.149.24-.28.368-.451.368-.077,0-.24-.142-.408-.4a2.427,2.427,0,0,1-.4-1.01,1.918,1.918,0,0,1,.144-.642,9.049,9.049,0,0,0,.307-1.935,37.687,37.687,0,0,0,.284-4.882,12.115,12.115,0,0,0-.163-2.35,1.844,1.844,0,0,0-.267-.774,2.214,2.214,0,0,1-.136-.3c0-.155.136-.238.4-.238m-1.832,4.195c.044,0,.122.058.193.2a1.641,1.641,0,0,1,.258.738,3.261,3.261,0,0,1-.355,1.5,1.96,1.96,0,0,1-.527.855.731.731,0,0,1-.444.225.59.59,0,0,1-.544-.259.981.981,0,0,1-.1-.477,1.281,1.281,0,0,1,.12-.56,9.976,9.976,0,0,0,1.162-1.908c.043-.2.13-.308.235-.308" transform="translate(-75.748 103.962)" fill="#fff"/>
          <path id="路径_606" data-name="路径 606" d="M179.287-92.917c-3.4-1.221-6.418,1.865-9.359,2.174,2.422-2.776,1.919-6.8,1.518-9.905-.762-2.03-2.878-2.468-4.773-2.968,1.734,1.233,1.041,3.907.474,5.807-.123,1.507-1.238,3.207-1.859,4.8-1.135,1.57-1.826,3.362-2.875,4.953l.456.5c0,.486,1.139.9,1.259,1.663l.543-.429c.266,0,.573-.046.72.24a10.145,10.145,0,0,0,1.919-1.784A27.573,27.573,0,0,0,180.186-92.2Z" transform="translate(-84.147 108.106)" fill="#fff"/>
          <path id="路径_607" data-name="路径 607" d="M163.538-84.917l-.179-1.031c-.011-.182-.29-.429-.507-.619a1.74,1.74,0,0,1-.684-.831l-.645-.726.223-.38a19.075,19.075,0,0,0,1.23-2.148c.495-.928,1.016-1.877,1.621-2.781.218-.51.463-1.045.722-1.567a9.814,9.814,0,0,0,1.093-2.981v-.106c.6-2.01,1.1-4.206-.234-5.154l.492-1.06.339.073c1.878.488,4.011,1.044,4.842,3.24l.011.144c.349,2.673.8,6.21-.721,9.025.554-.212,1.159-.485,1.779-.771,1.905-.866,4.054-1.865,6.414-1.01l.164.086,1.508,1.222-.653.452a27.788,27.788,0,0,1-12.907,4.418,10.956,10.956,0,0,1-1.553,1.448l-.917.7-.241-.6H164.7Zm-.212-2.766a2.619,2.619,0,0,1,.305.212,5.437,5.437,0,0,1,.526.533l.141-.128.212.013a2.28,2.28,0,0,1,.72.1,8.475,8.475,0,0,0,1.44-1.38l.169-.227.263-.02A27.043,27.043,0,0,0,179-92.376l-.164-.143c-1.863-.616-3.587.168-5.421,1.024a11.988,11.988,0,0,1-3.6,1.212l-1.5.151,1-1.141c2.2-2.538,1.785-6.315,1.389-9.358a3.836,3.836,0,0,0-2.723-2.091c.551,1.594-.02,3.623-.394,4.906a10.83,10.83,0,0,1-1.193,3.337c-.236.525-.5,1.032-.711,1.545l-.062.119a25.681,25.681,0,0,0-1.583,2.708c-.3.616-.675,1.249-1.014,1.864l.281.334v.226h.025" transform="translate(-83.985 108.231)" fill="#fff"/>
          <path id="路径_608" data-name="路径 608" d="M176.433-77.367c-.663-1.747-2.275-3.646-4.084-3.848.83,1.962-.326,4.762.762,6.639.554.547,1.261,1.77,2.275,1.081,1.171-.7.98-2.449,1.047-3.872" transform="translate(-85.955 104.031)" fill="#fff"/>
          <path id="路径_609" data-name="路径 609" d="M174.59-72.833A2.683,2.683,0,0,1,172.778-74a2.418,2.418,0,0,0-.289-.319l-.088-.119a6.761,6.761,0,0,1-.573-3.824,7.084,7.084,0,0,0-.236-2.888l-.4-.939,1.018.119c2.115.252,3.846,2.353,4.564,4.229l.048.108v.118c-.022.226-.022.453-.022.679-.026,1.377-.046,2.934-1.342,3.694a1.527,1.527,0,0,1-.866.308m-1.216-2.281c.08.1.214.227.293.344.685.771.87.83,1.181.628.737-.452.737-1.591.768-2.718,0-.178,0-.369.019-.56a6.122,6.122,0,0,0-2.642-3.086,13.955,13.955,0,0,1,.051,2.291,5.87,5.87,0,0,0,.33,3.1" transform="translate(-85.744 104.189)" fill="#fff"/>
          <path id="路径_610" data-name="路径 610" d="M158.41-91.406c-2.457.463-4.4,2.187-6.733,2.884-1.023-.463-1.092,1.984-1.659.452l-.267-.011-.021.463h.259c1.092.6,2.308,1.923,3.971,1.819,2.793.213,4.177-2.758,6.28-4.125.039-.959-1.174-1.09-1.83-1.482" transform="translate(-81.839 105.885)" fill="#fff"/>
          <path id="路径_611" data-name="路径 611" d="M154.108-85.333a3.178,3.178,0,0,1-.339-.013,5.167,5.167,0,0,1-3.322-1.318c-.3-.176-.521-.354-.76-.5l-.715-.025.074-1.65,1.26.084a1.132,1.132,0,0,1,1.233-.526,18.993,18.993,0,0,0,2.689-1.246,13.954,13.954,0,0,1,3.942-1.6l.21-.034.218.107a3.473,3.473,0,0,0,.484.235c.678.262,1.676.667,1.609,1.772l-.007.317-.261.17a10.909,10.909,0,0,0-1.853,1.661c-1.19,1.211-2.518,2.565-4.463,2.565m-.339-1.21c1.688.131,2.781-1,3.949-2.174a13.483,13.483,0,0,1,1.709-1.594,2.222,2.222,0,0,0-.771-.414,2.846,2.846,0,0,1-.462-.189,13.025,13.025,0,0,0-3.4,1.438,16.365,16.365,0,0,1-3.087,1.376l-.236.07-.195-.084c0,.014-.141.228-.206.345,0,.025-.026.048-.026.071a.21.21,0,0,0,.092.061,4.115,4.115,0,0,0,2.636,1.092" transform="translate(-81.701 106.022)" fill="#fff"/>
          <path id="路径_612" data-name="路径 612" d="M154.179-76.188c-1.145-2.352-3.42-3.729-4.658-5.8l-.546.56c-.1,1.615-.876,4.19.071,5.962.948,1.389,2.22,3.172,4.155,2.958,1.6-1.036.6-2.114.978-3.682" transform="translate(-81.631 104.171)" fill="#fff"/>
          <path id="路径_613" data-name="路径 613" d="M152.715-72.052c-2.218,0-3.639-2.112-4.422-3.276-.859-1.58-.581-3.515-.353-5.049a10.721,10.721,0,0,0,.135-1.341l.056-.263,1.37-1.412.475.785A13.986,13.986,0,0,0,151.96-80.2a13.934,13.934,0,0,1,2.678,3.448l.113.224-.066.249a4.3,4.3,0,0,0-.023,1.262,2.654,2.654,0,0,1-1.236,2.851l-.146.081-.165.012c-.146.012-.263.021-.4.021m-3.279-8.858c-.029.225-.074.474-.111.737-.211,1.387-.428,2.992.176,4.108.9,1.32,1.907,2.672,3.3,2.6.524-.393.5-.7.427-1.439a7.97,7.97,0,0,1,.047-1.45,13.635,13.635,0,0,0-2.3-2.848,22.439,22.439,0,0,1-1.542-1.712" transform="translate(-81.472 104.427)" fill="#fff"/>
          <path id="路径_614" data-name="路径 614" d="M198.661-87.47l5.322-4.053c1.567-1.226,4.109-1.045,5.057-2.614-.831-1.2-2.441-.652-3.442-1.522-.568-.6-1.8.191-2.186-.758-1.96,2.851-5.677,3.264-8.81,4.17-1.059.225-2.637.44-3.48-.37l.508-.428c-.216-.354-.948,0-1.024.2a1.053,1.053,0,0,1,.5,1.176c.428,2.722,3.154,1.153,4.642,1.994-2.282,3.577-5.192,5.668-8.209,9.064-.308.7-.923,1.769-1.068,2.054-1.447,1.425-.521,3.337,1.092,4.43.262-.154.023-1.009,1.023-.654a1.27,1.27,0,0,1,.519-1.4l-.237-.234c1.783-1.429,2.592-3.283,4.4-4.744.352.656,1.065.557,1.446,1.214,1.212.334,2.4,1.414,2.993-.355-.507-1.284-.734-2.615-2.141-3.563.36-1.832,1.993-2.532,2.851-4.1.146.117.313.263.238.49" transform="translate(-88.394 106.796)" fill="#fff"/>
          <path id="路径_615" data-name="路径 615" d="M222.9-73.936c-1.165-.1-2.61-.915-3.469-.322a42.416,42.416,0,0,1-13.329-3.172l.789-1.365c.971-.191.71.892,1.446,1.212,2.484-2.388,5.8-5.881,9.161-7.638.767-1.2-1.27-1.6-1.889-2.385l-1.238-.038c-2.748-1.378-2.967,2.172-5.058,3.338-.449-.165-.167-.652-.261-.951a5.448,5.448,0,0,0-3.375-2.421A5.067,5.067,0,0,0,204.566-84c-1.486,2.16-2.884,6.461-4.153,8.532l1.256-2.094c-.377-.119-1.991,2.129-2.261,2.3-.089,1.733,1.786,2.362,2.627,3.55a55.135,55.135,0,0,1,4.314-5.262c3.756,4.251,9.074,5.284,14.7,5.583,1.021-.429,2.489-.811,2.826-1.794-.269-.4-.722-.4-.973-.749" transform="translate(-90.877 105.257)" fill="#fff"/>
          <path id="路径_616" data-name="路径 616" d="M249.515-91.882l.225,1.187c-.675-.285-.513-.688-.225-1.187m24.608,11.5c-1.045-.07-1.427-1.306-2.592-1.058-3.894-2.29-15.368-6-18.239-9.916a37.946,37.946,0,0,1,4.919-4.063c1.136-.614,2.846.429,3.841-.594a2.014,2.014,0,0,0-.758-2.112c-2.837-6.4-6.281,1.2-9.457,2.031-1.634.4-1.041,1.7-2.49,2.458.5-4.715,1.255-11.841-3.941-15.465,1.091,1.139.115,2.683-.238,3.788a113.7,113.7,0,0,0-.741,24.493c.741.9.506,2.92,2.163,2.776.977,1.284,1.781-.985,2.925-.128-.717-3.945.008-7.343.116-10.491-.4-.973-.429-1.458.4-2.017L251.6-87.94c4.046,3.3,15.363,9.075,21.219,9.2.425-.545,1.46-.794,1.306-1.652" transform="translate(-99.005 109.105)" fill="#fff"/>
          <path id="路径_617" data-name="路径 617" d="M225.577-90.461c2.52.129,4.368,1.427,6.593,2.173-1.243,3.244-5.229,5.582-4.687,9.312a12.133,12.133,0,0,0,6.623-3.635l.309.311c1.351-1.544,3.921-2.506,3.224-5.06-2.749-3.585-7.906-3.79-12.061-3.1" transform="translate(-95.639 105.77)" fill="#fff"/>
          <path id="路径_618" data-name="路径 618" d="M142.656-94.833c.047-.214.171-.44-.108-.607l-.568.286c.1-.677.847-.081,1.209-.416ZM138.4-90.439c.4-.367.473-.96,1.214-1.166-.088-.1-.168-.164-.217-.214a.478.478,0,0,1-.187-.259c-.071-.142.024-.2.357-.521.308-.133-.38.2-.357.521.046.06.091.12.187.259,1.426-.308,1.522-1.673,2.636-2.314-1.21,1.223-1.968,2.734-3.633,3.694m-.713,1.211L137-89.239c.542-.121.354-1.187.911-.439.1.237-.08.33-.223.45m9.539-6.745c-.058-.368.317-.51.63-.689.668-1.747,2-3.1,2-5.216-.289-2.076-2.21-3.573-4.112-4.773a27.6,27.6,0,0,1-2,5.213c.072.774-.785,1.545-1.379,1.972-.037,2.308-3.7,3.779-3.539,5.726a32.571,32.571,0,0,1,4.022-4.441l.182.234a21.037,21.037,0,0,1-6.479,7.163l-.4-.461c.188-.154.59-.191.59-.5-1.517-.142-1.308,2.007-2.754,1.7a2.325,2.325,0,0,0-.981,2.408c.718.477,1.146,1.3,2.142,1.4a7,7,0,0,0,7.005-2.281c-.214-.12-.377.011-.519.095-1.238-.785.687-.807.519-1.5l.226.227.6-.664c.485-.962,2.151-1.27,2.838-2.078-.306-.144-.5.156-.793.238-.539-.488.317-.727.487-1.1.259.079.565.044.667.318l.088-.569-.519.283-.4-.463c.429-1.079,2.7-1.163,2.684-2.484l-.579.465Z" transform="translate(-78.779 108.659)" fill="#fff"/>
          <path id="路径_619" data-name="路径 619" d="M122.192-88.921s-.856-9.416-3.919-13.442c-2.736-3.562-4.845-3.9-4.845-3.9a9.757,9.757,0,0,0,1.187,5.368c2.235,4.121,5.679,7.864,7.578,11.97" transform="translate(-75.229 108.587)" fill="#009844"/>
          <path id="路径_620" data-name="路径 620" d="M102.037-102.517s-6.351-1.544-15.865,8.825C76.643-83.313,66.74-65.6,66.74-65.6s16.274-14.477,26.2-22.708a28.194,28.194,0,0,0,9.1-14.206" transform="translate(-66.74 107.921)" fill="#009844"/>
        </g>
        <g id="组_856" data-name="组 856" transform="translate(27.238)">
          <path id="路径_621" data-name="路径 621" d="M119.992-155.99a4.407,4.407,0,0,0-.767,1.044c-.1.393-.743.534-.743.961a4.521,4.521,0,0,1-1.684,1.165c-.116.416-.852.524-.758.973-.169.181-.461.275-.475.534a12.141,12.141,0,0,0-1.855,2.129c-.283.141-.374.5-.559.734.253.12.11.513.465.479l2.331-.631a.9.9,0,0,1,.542.272c1.081.187,2.475-.618,3.3.427-.043.89-1.443.545-1.329,1.512-.353.46-.892.888-.946,1.459-.6.4-.6,1.065-.812,1.65.311.462-.329.9-.259,1.414a7.132,7.132,0,0,0,.879,1.081c.591-.276.64-1.176,1.113-1.652.144-.19.144-.686.618-.452.283.214.735.24.926.585a1.472,1.472,0,0,0-.167.51l.429.308c-.251.4.119.915-.207,1.378a4.109,4.109,0,0,0-.29,1.47c.187.263.615.108.943.108.158-.152.481-.071.641-.189a.651.651,0,0,0,.326.3c.214-.167.416-.583.722-.69a1.237,1.237,0,0,1,.74.51,12.457,12.457,0,0,0-1.262,3.457c-.212.605.264,1.093-.121,1.663.076.878-.305,1.77.36,2.412.573.807-.621,1.294-.765,2.066a9.1,9.1,0,0,0-.1,2.817,2.744,2.744,0,0,1-.224.64,8.175,8.175,0,0,1-.123,2.388c.05.167.1.319-.035.476a4.1,4.1,0,0,1-.1,2.349c.138.144-.123.392.1.523l-.1.631c-.263.035-.539.308-.812.129a18.543,18.543,0,0,1-.807-3.811c-.072-.025-.05-.155-.05-.263.114-.07.308-.153.362-.308-.1-.181.046-.366.178-.486.079-.251-.251-.582.173-.641.077-.584.29-1.271-.19-1.7l.147-3.348c-.131-1.116-1.426-1.369-2.232-1.937-.668-.342-1.833-.07-1.949-1.009-.334.01-.428-.273-.595-.5,0-.524.877-.014.774-.667a1.025,1.025,0,0,0,.653-.2,9.671,9.671,0,0,1,2.73.877,2.255,2.255,0,0,0,.866-.821c-.035-.215-.1-.438.11-.616-.551-.69.855-1.926-.664-1.9-.642.56-1.6.88-1.877,1.714-.119.117-.452.34-.586.471-.057.1-.211.026-.294.039l-1.1-.741a19.642,19.642,0,0,1,.889-2.79c-.094-.522.4-.9.33-1.4-.116-.342-.545-.068-.807-.117-.6.272-.248.949-.573,1.377-.023.559.049,1.186-.023,1.747-.326.119-.188.533-.54.606l-.768.047c-.552-.521-.4-1.295-.877-1.841-.06-.324.38-.573.093-.891-.023-.521-.214-1.058-.237-1.6l.124-.014c.305.406.4.832.664,1.213.144-.038.357.022.472-.18a3.531,3.531,0,0,0-.472-1.8,12.209,12.209,0,0,0-2.96-1.9c-.938-.225.488-.746-.378-1.02-.062-.12-.2-.321-.062-.475.388-.236.809.522,1.145-.025.827.3,1.551.951,2.358,1.285.369-.119.81-.133.919-.595l.274-.168a22.489,22.489,0,0,1,1.79-3.182.654.654,0,0,0-.352-.654,12.027,12.027,0,0,0-1.859.56c-.875-.49-1.753.26-2.6.366-.531-.033-1.236.8-1.555.037a4.07,4.07,0,0,1,1.091-2.008,45.277,45.277,0,0,1,3.041-4.147c.524-1.471,2.039-2.5,3.159-3.728a2.487,2.487,0,0,1,1.856-.034Z" transform="translate(-101.43 156.402)" fill="#fff"/>
          <path id="路径_622" data-name="路径 622" d="M150.093-149.912c-.388.452.311.771.357,1.187.833.594.311,1.736,1.142,2.3a2.365,2.365,0,0,1,2.046.452l.066.046c-.209.336.05.952-.594.939a9.71,9.71,0,0,0-1.33,1.5c.047.083-.112.119-.188.155a19.077,19.077,0,0,0,.188,2.826,1.405,1.405,0,0,0-.641.4c.071.26.26.57.1.782a3.494,3.494,0,0,1-1.5.725,3.038,3.038,0,0,1-1.021.7c-.263-.024-.439.191-.6.3a5.356,5.356,0,0,0-1.587.951,1.219,1.219,0,0,0-.973.452c-.052.521-.693.713-.641,1.259-.123.07-.334.226-.193.342a3.606,3.606,0,0,0,1.513-.5.615.615,0,0,0,.743.036,1.323,1.323,0,0,1,1.263-.524c.188.191.329-.047.57-.037a14.521,14.521,0,0,1,3.707.254,1.517,1.517,0,0,1,.6.746c-.083,0-.131.083-.231.167a1.384,1.384,0,0,0,.551.686c.329-.079.641.251.833.489-.147.272.353.357.079.557,0,.263.179.524-.132.69.337,1.138.943,2.541-.115,3.478.237.181-.122.394.092.584-.27.133-.566.368-.878.191-.263-.037-.238-.263-.353-.418-.359-.521-1.05-1.131-.832-1.84a5.431,5.431,0,0,0-.259-1.461,3.025,3.025,0,0,1-.8.535,9.122,9.122,0,0,1-2.366,1.627c-.263.164-.263.465-.618.465-.5.011-.589-.549-.9-.821a11.1,11.1,0,0,1,.234-4.157c.077-.216.335.011.416-.061.271.154.674.167.771.5-.187.261.195.368.195.582.058.461-.167.915,0,1.27.375-.131.615-.6,1-.808.249-.413.785-.533,1.135-.83-.243-.334.645-.811-.065-1.013-1.026.226-2.066-.034-3.187.18-.4-.191-1.041.2-1.308-.415-.19,0-.19.2-.361.259-1.275.227-2.013,2.352-3.459,1.249-.312-.3-.584-.5-.618-.893a30.123,30.123,0,0,0,2.4-3.183c.07-.142-.093-.286-.194-.319-.259.214-.572.427-.809.084-.641-.372-.259-.846-.34-1.4a6.759,6.759,0,0,1,2.624-1.342c.735-.19,1.4-.737,2.22-.416a12.34,12.34,0,0,1,2.3-.321c.046-.191.259-.452.046-.653-.486-.12-.335-.652-.807-.843-.51-.073-.974-.38-1.478-.227l-.189-.036c-.926.178-1.826,1.282-2.775.5-.12-.238.115-.322.191-.452-.1-.287-.456-.488-.311-.821,1.2-.609,2.33-1.306,3.539-1.865.513-.344.569-.843.929-1.28.011-.68-.169-1.356-.211-2.023-.238-.08-.15-.317-.263-.45-.312.213-.749.119-.975.425a13.949,13.949,0,0,0-1.547.538,4.121,4.121,0,0,0-.855.177c-.852-.023-1.877.32-2.306-.63-.046-.321.242-.57.467-.746a10.4,10.4,0,0,1,4.678-1.606,1.957,1.957,0,0,1,1.815.8" transform="translate(-107.171 155.37)" fill="#fff"/>
          <path id="路径_623" data-name="路径 623" d="M171.125-149.658a5.529,5.529,0,0,0-.2,1.174,23.43,23.43,0,0,0-1.29,3.839c-.335.723-1,1.472-.639,2.363-.076.214.1.3.211.464.881-.155,1.211-1.072,1.8-1.594,1.05-.711,1.746-2.3,3.212-1.9.114.226.587.487.236.711.088.6-.791.654-.979,1.188-.948.87-1.747,2-2.781,2.91-.373.475-1.231.915-1.02,1.58,0,.381-.305.771.074,1.07a1.513,1.513,0,0,0,.069,1.034,28.642,28.642,0,0,0,4.332,1.52c.205.19.515.368.4.653.193.13.416.058.622.073.335-.524.806.01,1.238,0,1.067.106,2.349.106,3.4.272a14.265,14.265,0,0,1,4.864.333c.209.187.459.439.448.689-.5.27-1.01-.119-1.378.285l-.142.129c-1.169-.557-2.587,0-3.753-.449a4.749,4.749,0,0,1-1.877.38,10.316,10.316,0,0,1-3.139-.38c-.474-.225-.8-.585-1.278-.821a17.154,17.154,0,0,1-2.925-.9c-.259.236-.641-.2-.83.216l-.454.389a13.594,13.594,0,0,0,.88,3.73c-.548.427-1.02-.132-1.423-.371-.9-1.912-.74-3.929-1.286-6.009-.287-.154-.571-.429-.876-.321-.64.512-1.19.987-1.795,1.41-.533.694-1.344.93-1.932,1.5-.109-.07-.19.026-.267.085a4.178,4.178,0,0,1-1.949,1.034c-.5-.144-1.04-.228-1.3-.761.228-.571.767-1.071.9-1.685a6.441,6.441,0,0,0,1.254-3.2l-.236-.226c-.875.108-1.826.761-2.614.166.024-.119-.046-.2-.164-.263-.307.059-.613.382-.906.073.077-.332-.587-.321-.261-.69.511-.212.906-.747,1.5-.8,1.523-.644,3.473-1.356,5.172-.858.416.345,1.126.191,1.316.807.143.263-.259.383-.025.609.049.413-.45.651-.322,1.069-.178.177-.128.485-.32.711.094.167.353.167.57.25a1.02,1.02,0,0,1,.806-.1c.776.046,1.191-.761,1.449-1.319l.094-2.223.36-.248c.049-.262-.191-.39-.214-.63a9.024,9.024,0,0,1,.454-2.21c-.348-.4.019-.878.045-1.293a26.374,26.374,0,0,1,1.167-3.135c-.029-.133-.14-.226-.029-.369.5-.047.784-.762,1.283-.38.168.128.4.214.45.415" transform="translate(-109.96 155.271)" fill="#fff"/>
          <path id="路径_624" data-name="路径 624" d="M146.008-124.7a4.893,4.893,0,0,1,2.4,1.945c.473.167.685-.511,1.114-.58a7.787,7.787,0,0,1,1.993-1,11.166,11.166,0,0,1,1.188,1.022c-.33.547-1.043.937-1.469,1.4-.241.275-.5.8-.941.69-.394-.143-.891.223-1.321.011-.119-.2-.35-.155-.564-.226-.245-.568-1.024-.258-1.05-.924-1.379-.524-2.567-1.737-3.917-2.291a.482.482,0,0,1-.214-.465c.214-.285.545.049.777-.167.765-.021,1.261.546,2,.583" transform="translate(-107.404 150.74)" fill="#fff"/>
          <path id="路径_625" data-name="路径 625" d="M105.351-140.356v-2.614l-5.915-.021v23.123l5.915-.021v-2.6h-3.206v-17.864Z" transform="translate(-99.436 153.962)" fill="#fff"/>
          <path id="路径_626" data-name="路径 626" d="M190.006-140.356v-2.614l5.923-.021v23.123l-5.923-.021v-2.6h3.206v-17.864Z" transform="translate(-115.915 153.962)" fill="#fff"/>
          <path id="路径_627" data-name="路径 627" d="M140.718-147.048c0,.368-.331.739-.092,1.117a25.062,25.062,0,0,0,.147,4.206,3.666,3.666,0,0,0,.574,2.256c.2.429-.3.276-.461.392-.452-.011-.714-.474-1.163-.568a1.893,1.893,0,0,0-.738-1.2c-1.1-.854-.092-2.41-.353-3.577a27.8,27.8,0,0,0,.758-3.028c.069-.261.472-.2.71-.131a1.083,1.083,0,0,1,.618.533" transform="translate(-106.536 154.808)" fill="#fff"/>
          <path id="路径_628" data-name="路径 628" d="M131.428-141.323a5.383,5.383,0,0,1,2.939-.022c.1.154.342.285.272.522-.214.262-.486.1-.7.049-.44.426-.773.973-1.462.982-.385.277-.258.74-.406,1.1-.095.345.148.627.312.9a.684.684,0,0,0,.613.1,30.618,30.618,0,0,1,2.376-2.247c.145-.331-.28-.226-.426-.368.164-.191.426-.677.83-.426a3.1,3.1,0,0,1,1.286,1.7,14.164,14.164,0,0,1-2.255,3c-.168.38-.654.43-.957.774a1.148,1.148,0,0,0-.517.119c-.356-.348-.8-.119-1.223-.047-.416-.38-.939-.475-1.2-1-.571-1.165-.829-2.687-2.261-3.28-.3-.2-.258-.569-.258-.879,1.024-.82-.263-1.793-.352-2.7,0-.261-.339-.595,0-.785.282-.05.519.226.71-.035,1.636.165,1.206,2.305,2.679,2.541" transform="translate(-104.613 154.121)" fill="#fff"/>
          <path id="路径_629" data-name="路径 629" d="M153.922-127.386c-.046-.131-.51-.284-.26-.464a.516.516,0,0,1,.26.464" transform="translate(-109.289 151.207)" fill="#fff"/>
        </g>
      </g>
    </g>
    <g id="组_858" data-name="组 858" transform="translate(267.029 -152.755)">
      <path id="路径_630" data-name="路径 630" d="M349.929-109.457a1.944,1.944,0,0,1-2.1-2.131c0-1.029.275-2.106,1.6-2.111a2.254,2.254,0,0,1,2.292,2.37c.1,1.205-.681,1.787-1.8,1.872" transform="translate(-318.28 144.985)" fill="#fff"/>
      <path id="路径_631" data-name="路径 631" d="M328.526-114.926c3,.633,5.688,1.17,8.348,1.769,3.186.713,3.917,1.533,3.818,4.793-.11,3.658-.352,7.315-.668,10.962-.23,2.6-.868,3.224-3.463,3.683-5.995,1.058-11.731-.438-17.268-2.323-2.959-1.009-4.315-4.08-4.855-7.138-2.469-13.921-3.766-27.9-1.711-42.017.594-4.1,1.711-5.452,5.793-6.031a74.286,74.286,0,0,1,13.943-.571,216.96,216.96,0,0,0,22.929-.071,44.845,44.845,0,0,1,6.317.085c7.1.605,11.131,4.387,12.181,11.42a63.1,63.1,0,0,1,.657,6.954c.308,8.531,1.022,17.054.611,25.6a23.528,23.528,0,0,1-2.066,9.358,4.51,4.51,0,0,1-3.174,2.646,21.787,21.787,0,0,1-6.229.919c-3.879-.195-7.754-.454-11.636-.514-1.8-.029-2.673-.546-2.579-2.469.376-7.765-.557-15.514-.425-23.28.042-2.725-.719-3.4-3.046-2.661-5.07,1.616-10.182,3.133-14.534,6.382-.879.654-1.993,1-2.944,2.506m17.32-12.474c1.582-.445,2.035-1.336,2.093-2.875.115-3.105.41-6.2.645-9.3.1-1.253.551-2.106,2.041-2.016,1.582.092,2.073.911,2,2.4-.092,1.992-.095,3.99-.033,5.981.026.812-.372,1.914.708,2.329.93.359,1.672-.339,2.394-.848,2.352-1.667,2.759-4.157,2.845-6.779.031-.979.317-1.822,1.464-1.823,1.223,0,1.693.778,1.783,1.941.3,3.905-2.712,8.959-6.343,10.515-.61.259-1.272.4-1.893.626-1.536.553-.812,1.85-.892,2.858a1.233,1.233,0,0,0,1.349,1.492c3.565,0,6.859-.568,9.021-3.889a13.592,13.592,0,0,0,2.565-8.1c-.054-1.216-.074-2.435-.074-3.655a1.2,1.2,0,0,1,.839-1.284,1.281,1.281,0,0,1,1.606.829,7.577,7.577,0,0,1,.6,2.561,39.809,39.809,0,0,1-.35,7.961,9.468,9.468,0,0,1-7.408,8.062,30.078,30.078,0,0,1-5.895.951c-1.564.078-2.179.556-2.138,2.132.139,5.214.206,10.426.281,15.64.015,1.023.317,1.676,1.448,1.819,3.855.491,7.7,1.108,11.6.612,2.667-.338,3.611-1.207,4.181-3.959a30.994,30.994,0,0,0,.759-8.268,131.721,131.721,0,0,1,.091-13.641,68.463,68.463,0,0,0-1.844-17.138c-.611-2.845-2.215-4.125-4.832-4.708a44.753,44.753,0,0,0-11.583-.779c-4.651.184-9.281.926-13.943.478-4.9-.473-9.741.222-14.61.476a16.252,16.252,0,0,0-4.592.7,4.334,4.334,0,0,0-2.692,5.356c.187.562.466,1.135,1.134.852,1.964-.816,2.305.291,2.452,1.86.127,1.463,1.026,2.692,1.392,4.075,1.15,4.319,7.8,7.4,12.542,6.921.7-.071,1.335-.3,1.468-1.083.2-1.1-.624-1.242-1.417-1.392a12.2,12.2,0,0,1-8.694-6.079,6.07,6.07,0,0,1-.853-3.136c-.024-1.171.29-1.914,1.519-2.151,1.29-.25,1.849.4,2.068,1.543a11.865,11.865,0,0,0,.328,1.632,6.773,6.773,0,0,0,5.169,4.666c1.354.3,2.125-.086,2.1-1.637-.025-1.775.07-3.549.1-5.321.02-1.182.475-1.947,1.771-1.86,1.231.078,1.742.793,1.656,2-.057.888-.066,1.775-.1,2.663-.157,3.86-.314,7.723-.474,11.732,2.609-.173,4.534-1.357,6.634-1.946M318.62-106.488c.035,2.2,1.4,3.811,3.554,4.809A23.787,23.787,0,0,0,334.1-99.438c1.674-.119,2.127-.789,2.077-2.215a59.32,59.32,0,0,1-.178-5.962c.108-1.7-.7-2.1-2.1-2.238-2.311-.225-4.624-.474-6.928-.8a3.6,3.6,0,0,1-3.388-2.74,4.51,4.51,0,0,1,1.332-4.553,20.8,20.8,0,0,1,3.866-2.567c1.585-.929,3.444-1.39,5.349-2.967-9.537-.2-15.532-4.067-16.766-13.681-.718,10.391,1.106,20.489,1.257,30.673" transform="translate(-311.708 151.943)" fill="#fff"/>
      <path id="路径_632" data-name="路径 632" d="M339.587-72.663c.074.869.07,1.333.1,1.655.023.389.046.78.059,1.171a2.6,2.6,0,0,1-.049.768c-.188.313-.793.21-1.108.13-.377-.1-.4-.891-.436-1.2a42.02,42.02,0,0,1-.174-5.184,13.153,13.153,0,0,1,.111-1.686c.011-.069.022-.132.033-.2.067-.346.6-.541.891-.633a5.331,5.331,0,0,1,1.63-.169,3.11,3.11,0,0,1,1.594.453,2.3,2.3,0,0,1,.982,1.625,3.61,3.61,0,0,1-.152,1.6,2.036,2.036,0,0,1-1.117,1.37,3.825,3.825,0,0,1-1.272.294c-.3.026-1.091-.016-1.091,0m-.129-3.617a.774.774,0,0,0-.052.435c0,.425.012.848.051,1.271.014.235-.028.545.166.657a1.718,1.718,0,0,0,1.29-.117.886.886,0,0,0,.347-.218.915.915,0,0,0,.175-.5,1.49,1.49,0,0,0-.592-1.456,2.017,2.017,0,0,0-1.035-.2c-.2,0-.3.043-.349.123" transform="translate(-316.486 138.492)" fill="#fff"/>
      <path id="路径_633" data-name="路径 633" d="M328.538-71.1a.562.562,0,0,1-.194-.366c-.134-.665-.189-1.12-.328-1.791-.02-.085-.046-.164-.072-.257a3.432,3.432,0,0,0-.416.057c-.616.16-1.068.048-1.687.213,0,0-.656,2.16-.789,2.675s-.589.44-1.035.323c-.657-.172-.583-.959-.459-1.4.55-1.915,1.662-5.159,2.171-6.657a.8.8,0,0,1,.432-.477,1.566,1.566,0,0,1,2.134.893,29.46,29.46,0,0,1,1.642,5.781c.083.392-.056.692-.7.948-.3.124-.539.178-.7.057m-2.309-3.667a1.3,1.3,0,0,0,.766.022c.286-.053.5-.026.477-.321a2.8,2.8,0,0,0-.663-1.422,16.018,16.018,0,0,0-.579,1.72" transform="translate(-313.849 138.66)" fill="#fff"/>
      <path id="路径_634" data-name="路径 634" d="M318.429-76.583c-.162,2.5-.162,3.635-.156,4.665.007.809-.056,1.353-.937,1.319-.425-.014-.763.063-1.02-.335a2.836,2.836,0,0,1-.2-1.6c.016-1.279.128-1.967.16-3.992,0-.058-.327-.144-.4-.15a11.8,11.8,0,0,1-1.724-.2c-.416-.032-.582-.209-.609-.623a1.282,1.282,0,0,1,.008-.269c.04-.442.117-.672.561-.7a58.124,58.124,0,0,1,6.476-.171,1.5,1.5,0,0,1,.68.133c.246.142.016,1.089-.167,1.5a.4.4,0,0,1-.326.209c-.736.092-1.188.133-2.208.2-.043,0-.084.016-.146.023" transform="translate(-312.042 138.609)" fill="#fff"/>
      <path id="路径_635" data-name="路径 635" d="M333.748-71.31c0-.134,0-.262-.013-.388A8.541,8.541,0,0,1,334-74.293c.08-.3.137-.61.616-.668.521-.069.652.262.767.55a11.27,11.27,0,0,1,.065,2.048c.011.7-.025,1.4-.046,2.1a2.933,2.933,0,0,1-.041.375.539.539,0,0,1-.5.469.663.663,0,0,1-.618-.252,2.231,2.231,0,0,1-.5-1.643" transform="translate(-315.713 137.939)" fill="#fff"/>
      <path id="路径_636" data-name="路径 636" d="M348.591-71.775c-.106-.12-.081-.56-.079-.893,0-.361.279-.339.6-.382.6-.077,1.2-.1,1.79-.149.245-.022.323-.056.362-.3.077-.416.076-.825-.371-.874s-.777-.1-1.376-.128a7.674,7.674,0,0,1-1.005-.075c-.335-.041-.261-.636-.189-.983.085-.384,1.229-.233,2.4-.3.434-.025,1.038.056,1.05-.39.018-.777.011-1.086-.7-1.2a12.619,12.619,0,0,0-3.168.061.949.949,0,0,0-.9.92,37.5,37.5,0,0,0,.034,4.654,1.776,1.776,0,0,0,.407,1.143,1.307,1.307,0,0,0,.825.211c.328.015.659.02.995.011.425-.01.857-.034,1.288-.081a1.864,1.864,0,0,0,.605-.109,1.2,1.2,0,0,0,.146-.5.405.405,0,0,0-.083-.357.26.26,0,0,0-.162-.093,12.634,12.634,0,0,0-1.574-.117,3.012,3.012,0,0,1-.9-.074" transform="translate(-318.121 138.401)" fill="#fff"/>
      <path id="路径_637" data-name="路径 637" d="M357.356-73.973v.389A7.929,7.929,0,0,1,357-70.991c-.087.3-.16.6-.663.651-.569.054-.692-.277-.807-.568a10.5,10.5,0,0,1-.007-2.048c.016-.7.075-1.4.117-2.1.012-.125.032-.25.054-.373a.563.563,0,0,1,.545-.46.739.739,0,0,1,.651.268,2.146,2.146,0,0,1,.47,1.651" transform="translate(-319.67 138.108)" fill="#fff"/>
      <path id="路径_638" data-name="路径 638" d="M364.7-71.147a.107.107,0,0,0-.015.038c2.2.016,3.029-.122,5.078-.035a1.446,1.446,0,0,1,.849.254c.147.136.011.8-.054.982-.155.449-1.158.488-1.772.533a32.816,32.816,0,0,1-3.977.037c-1.056-.011-2.421-.113-2.5-.957-.087-1.036.919-1.992,1.517-2.641,1.155-1.243,2.133-2.134,3.23-3.417a18.5,18.5,0,0,0-2.131.108,8.769,8.769,0,0,1-1.819.045,1.212,1.212,0,0,1-.712-1.783c.47-.631,1.914-.61,2.594-.651a21.058,21.058,0,0,1,3.322.057c.571.047,2,.281,1.414,1.186a36.991,36.991,0,0,1-3.4,4.4c-.56.641-1.055,1.2-1.625,1.845" transform="translate(-320.898 138.613)" fill="#fff"/>
      <path id="路径_639" data-name="路径 639" d="M380.484-74.79a3.038,3.038,0,0,1,.072-.85,3.019,3.019,0,0,1,1.325-1.848,2.79,2.79,0,0,1,3.5.254,4.1,4.1,0,0,1,.9,2.744,2.931,2.931,0,0,1-.528,1.735,2.88,2.88,0,0,1-1.777,1.05,2.991,2.991,0,0,1-2.09-.387,2.981,2.981,0,0,1-1.11-1.4,3.724,3.724,0,0,1-.3-1.3m4.212.677a1.583,1.583,0,0,0-.458-1.655,1.326,1.326,0,0,0-1.557.034,1.4,1.4,0,0,0-.42.885,1.575,1.575,0,0,0,.69,1.544,1.178,1.178,0,0,0,1.363-.114,1.409,1.409,0,0,0,.382-.694" transform="translate(-324.22 138.487)" fill="#fff"/>
      <path id="路径_640" data-name="路径 640" d="M377.348-71.725a2.424,2.424,0,0,1-1.909.65,2.764,2.764,0,0,1-2.012-1.145,3.217,3.217,0,0,1-.464-1.869,2.428,2.428,0,0,1,.625-1.69,2.631,2.631,0,0,1,3.4-.258,2.791,2.791,0,0,1,1.025,2.093,2.867,2.867,0,0,1-.664,2.219m-1.813-.9h.006a1.113,1.113,0,0,0,.839-.367,1.4,1.4,0,0,0-.162-1.914,1.146,1.146,0,0,0-1.347-.089,1.286,1.286,0,0,0-.527.929,1.4,1.4,0,0,0,.285.987,1.212,1.212,0,0,0,.9.455" transform="translate(-322.852 138.225)" fill="#fff"/>
    </g>
  </g>
</svg>
