<svg xmlns="http://www.w3.org/2000/svg" xmlns:xlink="http://www.w3.org/1999/xlink" width="2378.226" height="90" viewBox="0 0 2378.226 90">
  <defs>
    <clipPath id="clip-path">
      <rect id="Rectangle_15" data-name="Rectangle 15" width="1189.226" height="90" transform="translate(-309.76 -3.722)" fill="none"/>
    </clipPath>
    <clipPath id="clip-path-2">
      <rect id="Rectangle_16" data-name="Rectangle 16" width="1189.226" height="90" transform="translate(879.24 -3.722)" fill="none"/>
    </clipPath>
  </defs>
  <g id="header-bg" transform="translate(-253.887 1514)">
    <g id="分隔線草" transform="translate(563.647 -1510.278)">
      <g id="Group_935" data-name="Group 935">
        <g id="Group_934" data-name="Group 934" clip-path="url(#clip-path)">
          <g id="Group_933" data-name="Group 933">
            <path id="Path_767" data-name="Path 767" d="M925.617-10.067H654.681c-2.769,4.143-5.4,6.935-7.471,9.788-.857-3.674-1.835-7.026-2.717-9.788H182.957c-4.271,12.427-2.993,21.917-2.993,21.917,17.3,1.57,24.64-13.72,24.64-13.72,4.623,16.958,20.391,21.515,20.391,21.515a23.817,23.817,0,0,0,1.963-7.1c11.184-1.275,21.421-7.707,21.421-7.707-1.742,20.55,10.428,39.921,10.428,39.921,18.015-7.854,25.71-39.925,25.71-39.925a30.952,30.952,0,0,0,1.543,2.82c-5.679,8.819-11.781,22.427-12.785,41.029,0,0,34.105,4.713,44.116-26.312,0,0,.584,36.525,15.745,42.022,0,0,12.827-11,11.075-46.344a32.419,32.419,0,0,0,6.124,3.178,62.223,62.223,0,0,0-2.806,9.784C380.215,38.869,395.3,17.344,395.3,17.344,395.3,48.044,409.3,64.4,409.3,64.4c22.157-20.42,22.7-59.56,22.7-59.56a41.881,41.881,0,0,0,3.674,5.5c-1.939,13,1.354,27.938,1.354,27.938,22.355.391,41.66-16.964,41.66-16.964-5.317,28.289,2.334,46.445,2.334,46.445,28.569-1.3,36.147-49.773,36.147-49.773C522.413,49.366,549.23,47.37,549.23,47.37A79.206,79.206,0,0,0,551.949,36.9a65.438,65.438,0,0,0,25.235-20.387C579.583,44.476,591.5,57.4,591.5,57.4c10.129-8.469,14.623-23.832,16.6-34.793,6.958,7.935,16.152,14.881,28,17.445a75.7,75.7,0,0,0,2.251-10.177,27.563,27.563,0,0,0,9.994.133A68.575,68.575,0,0,0,648.2,4.344,72.34,72.34,0,0,0,663.558,7.4c-2.428,9.127-4.619,21.437-1.966,30.068A40.756,40.756,0,0,0,679.725,14.61c-.852,8.521-.461,20.061,6.163,27.011,0,0,6.62-2.393,14.208-13.976A45.278,45.278,0,0,0,713.32,33.76s1.988-17.794-2.116-30.3q.482-1.47.946-3.015S714.631,22.763,750.8,15.7a43.948,43.948,0,0,0-2.38-8.556,27.584,27.584,0,0,0,7.813-9.051c4.62,16.957,20.39,21.534,20.39,21.534a23.831,23.831,0,0,0,1.965-7.086C789.767,11.266,800,4.838,800,4.838c-1.74,20.551,10.431,39.924,10.431,39.924,18.017-7.855,25.71-39.924,25.71-39.924a31.22,31.22,0,0,0,1.543,2.821c-5.679,8.819-11.781,22.427-12.785,41.029,0,0,34.109,4.713,44.117-26.312,0,0,.583,36.525,15.743,42.022,0,0,12.828-11,11.074-46.344a32.6,32.6,0,0,0,6.127,3.178,62.2,62.2,0,0,0-2.809,9.784c25.96,6.234,40.8-6.047,45.828-11.371.754.452,1.437.823,2.016,1.113.015.416.025.838.044,1.248C929.5,26.591,924.7,39.8,924.7,39.8a32.121,32.121,0,0,0,7.935,1.755c1.427,9.989,8.622,19.134,8.622,19.134-23.008-1.555-44.691,9.317-44.691,9.317,8.792,16.095,44.691,22.967,44.691,22.967-1.134.437-2.18.9-3.161,1.381-9.871-5.075-25.1-10.525-45.926-11.421,0,0-5.279,30.468,29.452,39.408,0,0-40.885.524-47.039,14.067,0,0,12.308,11.458,51.878,9.894a27.959,27.959,0,0,0-3.558,5.472,83.656,83.656,0,0,0-10.952-2.507c-8.79,29.2,15.308,42.681,15.308,42.681-34.37,0-52.676,12.5-52.676,12.5,22.861,19.795,66.674,20.274,66.674,20.274a49,49,0,0,0-6.161,3.283c-14.548-1.731-31.277,1.208-31.277,1.208-.43,19.97,18.993,37.22,18.993,37.22-31.666-4.751-51.993,2.085-51.993,2.085,1.458,25.52,55.715,32.293,55.715,32.293C891.407,305.5,893.64,329.46,893.64,329.46a108.112,108.112,0,0,0,11.726,2.43c3.595,6.333,10.387,15.074,22.819,22.545-31.306,2.138-45.766,12.788-45.766,12.788,9.478,9.045,26.673,13.064,38.946,14.831-8.355,5.848-15.727,13.464-18.963,23.158-3.678,1.434-5.841,2.517-5.841,2.517,7.333,13.427,33.514,20.432,42,22.388-.066.49-.135.979-.18,1.476q-1.048-.219-2.14-.439c-9.888-4.791-24.513-9.656-44.078-10.5,0,0-2.957,17.1,10.154,29.432a21.243,21.243,0,0,0-2.243,1.456s1.842,4.032,9.772,9.252c-12.583,1.23-31.266,4.53-35.27,13.336,0,0,12.308,11.459,51.878,9.9A27.929,27.929,0,0,0,922.9,489.5a84.064,84.064,0,0,0-10.952-2.507c-8.79,29.2,15.308,42.679,15.308,42.679-34.37,0-52.676,12.5-52.676,12.5,22.861,19.794,66.674,20.273,66.674,20.273a49.267,49.267,0,0,0-6.161,3.285c-14.548-1.733-31.277,1.208-31.277,1.208-.43,19.97,18.993,37.218,18.993,37.218-31.666-4.749-51.993,2.086-51.993,2.086,1.458,25.52,55.715,32.29,55.715,32.29-35.122,4.693-32.889,28.651-32.889,28.651a108.324,108.324,0,0,0,11.726,2.428c3.595,6.335,10.387,15.075,22.819,22.544-31.306,2.141-45.766,12.788-45.766,12.788,9.478,9.048,26.673,13.067,38.946,14.835-8.883,6.215-16.657,14.431-19.529,25.017a103.1,103.1,0,0,0,11.394,2.01,19.734,19.734,0,0,0-.15,8.931A95.989,95.989,0,0,0,941.8,755.6a53.365,53.365,0,0,0-3.419,13.716c-10.221-2.169-24-4.125-33.656-1.756,0,0,7.549,11.684,25.586,16.2-9.54-.762-22.457-.411-30.237,5.5,0,0,2.679,5.913,15.646,12.7a40.446,40.446,0,0,0-2.58,3.4,59.148,59.148,0,0,0-13.987,1.726,62.085,62.085,0,0,0,2.809,9.778,32.7,32.7,0,0,0-6.127,3.181c1.754-35.349-11.074-46.344-11.074-46.344-15.16,5.5-15.743,42.021-15.743,42.021C859.012,784.7,824.9,789.412,824.9,789.412c1,18.6,7.106,32.208,12.785,41.029a31.269,31.269,0,0,0-1.543,2.823s-7.693-32.072-25.71-39.925c0,0-12.171,19.372-10.431,39.925,0,0-10.237-6.43-21.416-7.7a23.813,23.813,0,0,0-1.965-7.087s-15.77,4.578-20.39,21.531a27.583,27.583,0,0,0-7.813-9.047,43.959,43.959,0,0,0,2.38-8.56c-36.169-7.063-38.65,15.258-38.65,15.258-.31-1.031-.625-2.032-.946-3.013,4.1-12.509,2.116-30.3,2.116-30.3a45.3,45.3,0,0,0-13.224,6.115c-7.588-11.584-14.208-13.977-14.208-13.977-6.624,6.952-7.015,18.491-6.163,27.012a40.743,40.743,0,0,0-18.133-22.858c-2.653,8.63-.462,20.937,1.966,30.066a72.667,72.667,0,0,0-15.357,3.056,68.569,68.569,0,0,0,.151-25.66,27.5,27.5,0,0,0-9.994.134,75.741,75.741,0,0,0-2.251-10.179c-11.85,2.569-21.044,9.513-28,17.448-1.982-10.962-6.476-26.326-16.6-34.794,0,0-11.917,12.92-14.316,40.889a65.41,65.41,0,0,0-25.235-20.387,79.166,79.166,0,0,0-2.719-10.475s-26.817-2-32.068,29.381c0,0-7.578-48.472-36.147-49.773,0,0-7.651,18.156-2.334,46.448,0,0-19.3-17.354-41.66-16.968,0,0-3.293,14.945-1.354,27.941a41.762,41.762,0,0,0-3.674,5.5s-.538-39.143-22.7-59.562c0,0-13.995,16.352-13.995,47.053,0,0-15.088-21.524-47.774-13.668a62.106,62.106,0,0,0,2.806,9.778,32.519,32.519,0,0,0-6.124,3.181c1.752-35.349-11.075-46.344-11.075-46.344-15.161,5.5-15.745,42.021-15.745,42.021-10.011-31.026-44.116-26.311-44.116-26.311,1,18.6,7.108,32.208,12.785,41.029a31.021,31.021,0,0,0-1.543,2.823s-7.694-32.072-25.71-39.925c0,0-12.169,19.372-10.428,39.925,0,0-10.237-6.43-21.421-7.7a23.75,23.75,0,0,0-1.963-7.087s-15.768,4.578-20.391,21.531c0,0-7.335-15.026-24.639-13.459,0,0-1.278,9.788,2.992,22.215H644.493c.882-2.762,1.86-6.113,2.717-9.787,2.07,2.852,4.7,4.263,7.471,9.787H958.13V761.39c-4.142-2.477-7.765-4.829-10.958-6.677,4.113-.768,8.2-1.64,10.958-2.428V60.366c1.381,1.4,1.381,2.452,2.761,3.121V-10.067Z" fill="#4d4948"/>
            <path id="Path_768" data-name="Path 768" d="M174.011,15.776S171.678-.4,159.243-10.067H77.892c-2.772,4.143-5.4,6.935-7.473,9.788C69.56-3.953,68.584-7.3,67.7-10.067H-382.581V8.86c0-.473,1.381-.986,1.381-1.515V751.723c4.142.793,6.884,1.671,11.02,2.442-3.211,1.86-5.5,4.223-11.02,6.715v69.879c0-.532-1.381-1.043-1.381-1.521v19.524H67.7c.88-2.762,1.856-6.113,2.715-9.787,2.07,2.852,4.7,4.263,7.473,9.787h81.351a48.474,48.474,0,0,0,14.768-26.142c-36.173-7.063-38.649,15.148-38.649,15.148-.315-1.031-.629-2.087-.949-3.069,4.1-12.509,2.117-30.331,2.117-30.331a45.26,45.26,0,0,0-13.223,6.1c-7.591-11.583-14.207-13.984-14.207-13.984-6.627,6.952-7.018,18.484-6.164,27.008A40.755,40.755,0,0,0,84.8,800.635c-2.652,8.629-.461,20.936,1.965,30.065a72.717,72.717,0,0,0-15.354,3.055,68.633,68.633,0,0,0,.151-25.66,27.509,27.509,0,0,0-10,.134,75.478,75.478,0,0,0-2.25-10.179c-11.85,2.569-21.044,9.513-28,17.448-1.981-10.962-6.48-26.326-16.6-34.794,0,0-11.918,12.92-14.316,40.889a65.44,65.44,0,0,0-25.236-20.387,79.325,79.325,0,0,0-2.719-10.475s-26.82-2-32.068,29.381c0,0-7.582-48.472-36.147-49.773,0,0-7.65,18.156-2.332,46.448,0,0-19.309-17.354-41.662-16.968,0,0-3.292,14.945-1.354,27.941a42.063,42.063,0,0,0-3.676,5.5s-.536-39.143-22.693-59.562c0,0-13.992,16.352-13.992,47.053,0,0-15.091-21.524-47.778-13.668a62.327,62.327,0,0,0,2.807,9.778,32.6,32.6,0,0,0-6.124,3.181c1.752-35.349-11.077-46.344-11.077-46.344-15.159,5.5-15.742,42.021-15.742,42.021-10.01-31.026-44.117-26.311-44.117-26.311,1,18.6,7.107,32.208,12.785,41.029a30.783,30.783,0,0,0-1.542,2.823s-7.7-32.072-25.713-39.925c0,0-12.169,19.372-10.427,39.925,0,0-10.237-6.43-21.418-7.7a23.813,23.813,0,0,0-1.965-7.087,22.923,22.923,0,0,0-2.964,1.177,22.137,22.137,0,0,0-13.511-7.127c1.161-.283,2.289-.565,3.394-.854,14.082,3.69,34.121,1.9,34.121,1.9a37.546,37.546,0,0,0-6.885-11.881c13.041-6.823,15.735-12.772,15.735-12.772-7.826-5.952-20.819-6.3-30.414-5.536,18.143-4.543,25.737-16.3,25.737-16.3-9.715-2.384-23.577-.417-33.854,1.765a53.89,53.89,0,0,0-3.441-13.8,96.469,96.469,0,0,0,28.894.138,19.869,19.869,0,0,0-.151-8.983,103.843,103.843,0,0,0,11.462-2.023c-2.891-10.65-10.712-18.914-19.645-25.164,12.345-1.781,29.643-5.822,39.179-14.924,0,0-14.552-10.71-46.042-12.863,12.506-7.515,19.34-16.3,22.956-22.68a107.742,107.742,0,0,0,11.794-2.442s2.246-24.1-33.084-28.819c0,0,54.58-6.81,56.045-32.48,0,0-20.446-6.877-52.3-2.1,0,0,19.542-17.352,19.105-37.441,0,0-16.828-2.955-31.462-1.216a49.764,49.764,0,0,0-6.2-3.3s44.072-.482,67.068-20.394c0,0-18.415-12.574-52.984-12.574,0,0,24.239-13.561,15.393-42.935a84.805,84.805,0,0,0-11.014,2.522,27.978,27.978,0,0,0-3.578-5.5c39.8,1.571,52.183-9.956,52.183-9.956-4.028-8.858-22.821-12.176-35.478-13.414,7.977-5.252,9.828-9.306,9.828-9.306a21.033,21.033,0,0,0-2.251-1.464c13.186-12.412,10.21-29.607,10.21-29.607-19.681.847-34.392,5.74-44.338,10.561-.734.144-1.451.293-2.152.442-.047-.5-.116-.993-.179-1.485,8.535-1.968,34.87-9.016,42.247-22.522,0,0-2.175-1.089-5.875-2.531-3.256-9.752-10.67-17.412-19.074-23.295,12.345-1.779,29.643-5.821,39.177-14.922,0,0-14.55-10.709-46.04-12.863,12.506-7.515,19.34-16.306,22.955-22.678a108.922,108.922,0,0,0,11.8-2.445s2.246-24.1-33.084-28.82c0,0,54.58-6.808,56.045-32.479,0,0-20.446-6.876-52.3-2.1,0,0,19.541-17.351,19.1-37.442,0,0-16.826-2.957-31.46-1.214a49.623,49.623,0,0,0-6.2-3.3s44.072-.483,67.068-20.394c0,0-18.415-12.575-52.984-12.575,0,0,24.239-13.56,15.393-42.934a84.393,84.393,0,0,0-11.014,2.522,27.96,27.96,0,0,0-3.578-5.5c39.8,1.574,52.183-9.954,52.183-9.954-6.191-13.623-47.318-14.148-47.318-14.148,34.935-8.994,29.627-39.644,29.627-39.644-20.946.9-36.267,6.385-46.2,11.489-.987-.485-2.04-.947-3.179-1.387,0,0,36.115-6.915,44.955-23.106,0,0-21.813-10.936-44.955-9.371,0,0,7.239-9.2,8.673-19.25a32.054,32.054,0,0,0,7.98-1.765s-5.156-14.167-24.247-18.321a30.9,30.9,0,0,0,7.245-4.308A32.285,32.285,0,0,0-351.8,19.626a23.8,23.8,0,0,0,1.966-7.086c11.181-1.274,21.418-7.7,21.418-7.7-1.742,20.551,10.427,39.924,10.427,39.924,18.017-7.855,25.711-39.924,25.711-39.924a31.464,31.464,0,0,0,1.543,2.821c-5.678,8.819-11.78,22.427-12.784,41.029,0,0,34.107,4.713,44.117-26.312,0,0,.583,36.525,15.742,42.022,0,0,12.829-11,11.077-46.344a32.461,32.461,0,0,0,6.124,3.178,62.444,62.444,0,0,0-2.807,9.784c32.687,7.853,47.778-13.672,47.778-13.672,0,30.7,13.992,47.054,13.992,47.054,22.157-20.42,22.693-59.56,22.693-59.56a42.282,42.282,0,0,0,3.675,5.5c-1.937,13,1.355,27.938,1.355,27.938,22.353.391,41.662-16.964,41.662-16.964C-103.425,49.6-95.775,67.76-95.775,67.76c28.565-1.3,36.146-49.773,36.146-49.773C-54.38,49.366-27.56,47.37-27.56,47.37A79.365,79.365,0,0,0-24.841,36.9,65.475,65.475,0,0,0,.4,16.508C2.792,44.476,14.711,57.4,14.711,57.4c10.125-8.469,14.624-23.832,16.6-34.793,6.957,7.935,16.151,14.881,28,17.445a75.438,75.438,0,0,0,2.25-10.177,27.575,27.575,0,0,0,10,.133,68.638,68.638,0,0,0-.151-25.661A72.319,72.319,0,0,0,86.766,7.4C84.34,16.528,82.149,28.838,84.8,37.469A40.756,40.756,0,0,0,102.934,14.61c-.852,8.521-.461,20.061,6.166,27.011,0,0,6.616-2.393,14.206-13.976A45.242,45.242,0,0,0,136.53,33.76s1.986-17.794-2.117-30.3c.319-.98.634-1.944.949-2.975C135.362.482,137.838,22.84,174.011,15.776Z" fill="#4d4948"/>
          </g>
        </g>
      </g>
      <g id="Group_938" data-name="Group 938">
        <g id="Group_937" data-name="Group 937" clip-path="url(#clip-path-2)">
          <g id="Group_936" data-name="Group 936">
            <path id="Path_769" data-name="Path 769" d="M2114.617-10.067H1843.681c-2.769,4.143-5.4,6.935-7.471,9.788-.857-3.674-1.835-7.026-2.717-9.788H1371.957c-4.271,12.427-2.993,21.917-2.993,21.917,17.305,1.57,24.64-13.72,24.64-13.72,4.623,16.958,20.391,21.515,20.391,21.515a23.819,23.819,0,0,0,1.963-7.1c11.184-1.275,21.421-7.707,21.421-7.707-1.742,20.55,10.428,39.921,10.428,39.921,18.015-7.854,25.71-39.925,25.71-39.925a30.96,30.96,0,0,0,1.543,2.82c-5.679,8.819-11.781,22.427-12.785,41.029,0,0,34.1,4.713,44.116-26.312,0,0,.584,36.525,15.745,42.022,0,0,12.827-11,11.075-46.344a32.42,32.42,0,0,0,6.124,3.178,62.223,62.223,0,0,0-2.806,9.784c32.686,7.853,47.774-13.672,47.774-13.672,0,30.7,13.995,47.054,13.995,47.054,22.157-20.42,22.7-59.56,22.7-59.56a41.878,41.878,0,0,0,3.674,5.5c-1.939,13,1.354,27.938,1.354,27.938,22.355.391,41.66-16.964,41.66-16.964-5.317,28.289,2.334,46.445,2.334,46.445,28.569-1.3,36.147-49.773,36.147-49.773,5.251,31.379,32.068,29.383,32.068,29.383a79.206,79.206,0,0,0,2.719-10.475,65.437,65.437,0,0,0,25.235-20.387c2.4,27.968,14.316,40.889,14.316,40.889,10.129-8.469,14.623-23.832,16.6-34.793,6.958,7.935,16.152,14.881,28,17.445a75.724,75.724,0,0,0,2.251-10.177,27.563,27.563,0,0,0,9.994.133,68.576,68.576,0,0,0-.151-25.661A72.338,72.338,0,0,0,1852.558,7.4c-2.428,9.127-4.619,21.437-1.966,30.068a40.756,40.756,0,0,0,18.133-22.859c-.852,8.521-.461,20.061,6.163,27.011,0,0,6.62-2.393,14.208-13.976a45.28,45.28,0,0,0,13.224,6.115s1.988-17.794-2.116-30.3q.482-1.47.946-3.015s2.481,22.321,38.65,15.257a43.948,43.948,0,0,0-2.38-8.556,27.585,27.585,0,0,0,7.813-9.051c4.62,16.957,20.39,21.534,20.39,21.534a23.831,23.831,0,0,0,1.965-7.086c11.179-1.274,21.416-7.7,21.416-7.7-1.74,20.551,10.431,39.924,10.431,39.924,18.017-7.855,25.71-39.924,25.71-39.924a31.22,31.22,0,0,0,1.543,2.821c-5.679,8.819-11.781,22.427-12.785,41.029,0,0,34.109,4.713,44.117-26.312,0,0,.583,36.525,15.743,42.022,0,0,12.828-11,11.074-46.344a32.6,32.6,0,0,0,6.127,3.178,62.212,62.212,0,0,0-2.809,9.784c25.96,6.234,40.8-6.047,45.828-11.371.754.452,1.437.823,2.016,1.113.015.416.025.838.044,1.248C2118.5,26.591,2113.7,39.8,2113.7,39.8a32.119,32.119,0,0,0,7.935,1.755c1.427,9.989,8.622,19.134,8.622,19.134-23.008-1.555-44.691,9.317-44.691,9.317,8.792,16.095,44.691,22.967,44.691,22.967-1.134.437-2.18.9-3.161,1.381-9.871-5.075-25.1-10.525-45.926-11.421,0,0-5.279,30.468,29.452,39.408,0,0-40.885.524-47.039,14.067,0,0,12.308,11.458,51.878,9.894a27.956,27.956,0,0,0-3.558,5.472,83.655,83.655,0,0,0-10.952-2.507c-8.79,29.2,15.308,42.681,15.308,42.681-34.37,0-52.676,12.5-52.676,12.5,22.861,19.795,66.674,20.274,66.674,20.274a49.006,49.006,0,0,0-6.161,3.283c-14.548-1.731-31.277,1.208-31.277,1.208-.43,19.97,18.993,37.22,18.993,37.22-31.666-4.751-51.993,2.085-51.993,2.085,1.458,25.52,55.715,32.293,55.715,32.293-35.122,4.688-32.889,28.647-32.889,28.647a108.128,108.128,0,0,0,11.726,2.43c3.595,6.333,10.387,15.074,22.819,22.545-31.306,2.138-45.766,12.788-45.766,12.788,9.478,9.045,26.673,13.064,38.946,14.831-8.355,5.848-15.727,13.464-18.963,23.158-3.678,1.434-5.841,2.517-5.841,2.517,7.333,13.427,33.514,20.432,42,22.388-.066.49-.135.979-.18,1.476q-1.048-.219-2.14-.439c-9.888-4.791-24.513-9.656-44.078-10.5,0,0-2.957,17.1,10.154,29.432a21.245,21.245,0,0,0-2.243,1.456s1.842,4.032,9.772,9.252c-12.583,1.23-31.266,4.53-35.27,13.336,0,0,12.308,11.459,51.878,9.9a27.925,27.925,0,0,0-3.558,5.471,84.063,84.063,0,0,0-10.952-2.507c-8.79,29.2,15.308,42.679,15.308,42.679-34.37,0-52.676,12.5-52.676,12.5,22.861,19.794,66.674,20.273,66.674,20.273a49.273,49.273,0,0,0-6.161,3.285c-14.548-1.733-31.277,1.208-31.277,1.208-.43,19.97,18.993,37.218,18.993,37.218-31.666-4.749-51.993,2.086-51.993,2.086,1.458,25.52,55.715,32.29,55.715,32.29-35.122,4.693-32.889,28.651-32.889,28.651a108.34,108.34,0,0,0,11.726,2.428c3.595,6.335,10.387,15.075,22.819,22.544-31.306,2.141-45.766,12.788-45.766,12.788,9.478,9.048,26.673,13.067,38.946,14.835-8.883,6.215-16.657,14.431-19.529,25.017a103.106,103.106,0,0,0,11.394,2.01,19.734,19.734,0,0,0-.15,8.931,95.989,95.989,0,0,0,28.722-.135,53.361,53.361,0,0,0-3.419,13.716c-10.221-2.169-24-4.125-33.656-1.756,0,0,7.549,11.684,25.586,16.2-9.54-.762-22.457-.411-30.237,5.5,0,0,2.679,5.913,15.646,12.7a40.444,40.444,0,0,0-2.58,3.4,59.147,59.147,0,0,0-13.987,1.726,62.1,62.1,0,0,0,2.809,9.778,32.7,32.7,0,0,0-6.127,3.181c1.754-35.349-11.074-46.344-11.074-46.344-15.16,5.5-15.743,42.021-15.743,42.021-10.008-31.026-44.117-26.311-44.117-26.311,1,18.6,7.106,32.208,12.785,41.029a31.269,31.269,0,0,0-1.543,2.823s-7.693-32.072-25.71-39.925c0,0-12.171,19.372-10.431,39.925,0,0-10.237-6.43-21.416-7.7a23.812,23.812,0,0,0-1.965-7.087s-15.77,4.578-20.39,21.531a27.584,27.584,0,0,0-7.813-9.047,43.959,43.959,0,0,0,2.38-8.56c-36.169-7.063-38.65,15.258-38.65,15.258-.31-1.031-.625-2.032-.946-3.013,4.1-12.509,2.116-30.3,2.116-30.3a45.306,45.306,0,0,0-13.224,6.115c-7.588-11.584-14.208-13.977-14.208-13.977-6.624,6.952-7.015,18.491-6.163,27.012a40.742,40.742,0,0,0-18.133-22.858c-2.653,8.63-.462,20.937,1.966,30.066a72.665,72.665,0,0,0-15.357,3.056,68.571,68.571,0,0,0,.151-25.66,27.5,27.5,0,0,0-9.994.134,75.764,75.764,0,0,0-2.251-10.179c-11.85,2.569-21.044,9.513-28,17.448-1.982-10.962-6.476-26.326-16.6-34.794,0,0-11.917,12.92-14.316,40.889a65.409,65.409,0,0,0-25.235-20.387,79.166,79.166,0,0,0-2.719-10.475s-26.817-2-32.068,29.381c0,0-7.578-48.472-36.147-49.773,0,0-7.651,18.156-2.334,46.448,0,0-19.305-17.354-41.66-16.968,0,0-3.293,14.945-1.354,27.941a41.759,41.759,0,0,0-3.674,5.5s-.538-39.143-22.7-59.562c0,0-13.995,16.352-13.995,47.053,0,0-15.088-21.524-47.774-13.668a62.107,62.107,0,0,0,2.806,9.778,32.519,32.519,0,0,0-6.124,3.181c1.752-35.349-11.075-46.344-11.075-46.344-15.161,5.5-15.745,42.021-15.745,42.021-10.011-31.026-44.116-26.311-44.116-26.311,1,18.6,7.108,32.208,12.785,41.029a31.029,31.029,0,0,0-1.543,2.823s-7.694-32.072-25.71-39.925c0,0-12.169,19.372-10.428,39.925,0,0-10.237-6.43-21.421-7.7a23.752,23.752,0,0,0-1.963-7.087s-15.768,4.578-20.391,21.531c0,0-7.335-15.026-24.639-13.459,0,0-1.278,9.788,2.992,22.215h461.536c.882-2.762,1.86-6.113,2.717-9.787,2.07,2.852,4.7,4.263,7.471,9.787H2147.13V761.39c-4.142-2.477-7.765-4.829-10.958-6.677,4.113-.768,8.2-1.64,10.958-2.428V60.366c1.381,1.4,1.381,2.452,2.761,3.121V-10.067Z" fill="#4d4948"/>
            <path id="Path_770" data-name="Path 770" d="M1363.011,15.776S1360.678-.4,1348.243-10.067h-81.351c-2.772,4.143-5.4,6.935-7.473,9.788-.859-3.674-1.835-7.026-2.717-9.788H806.419V8.86c0-.473,1.381-.986,1.381-1.515V751.723c4.142.793,6.884,1.671,11.02,2.442-3.211,1.86-5.5,4.223-11.02,6.715v69.879c0-.532-1.381-1.043-1.381-1.521v19.524H1256.7c.88-2.762,1.856-6.113,2.715-9.787,2.07,2.852,4.7,4.263,7.473,9.787h81.351a48.474,48.474,0,0,0,14.768-26.142c-36.173-7.063-38.649,15.148-38.649,15.148-.315-1.031-.629-2.087-.949-3.069,4.1-12.509,2.117-30.331,2.117-30.331a45.259,45.259,0,0,0-13.223,6.1c-7.591-11.583-14.207-13.984-14.207-13.984-6.627,6.952-7.018,18.484-6.164,27.008a40.755,40.755,0,0,0-18.135-22.859c-2.652,8.629-.461,20.936,1.965,30.065a72.717,72.717,0,0,0-15.354,3.055,68.632,68.632,0,0,0,.151-25.66,27.509,27.509,0,0,0-10,.134,75.476,75.476,0,0,0-2.25-10.179c-11.85,2.569-21.044,9.513-28,17.448-1.981-10.962-6.48-26.326-16.6-34.794,0,0-11.918,12.92-14.316,40.889a65.44,65.44,0,0,0-25.236-20.387,79.338,79.338,0,0,0-2.719-10.475s-26.82-2-32.068,29.381c0,0-7.582-48.472-36.147-49.773,0,0-7.65,18.156-2.332,46.448,0,0-19.309-17.354-41.662-16.968,0,0-3.292,14.945-1.354,27.941a42.068,42.068,0,0,0-3.676,5.5s-.536-39.143-22.693-59.562c0,0-13.992,16.352-13.992,47.053,0,0-15.091-21.524-47.778-13.668a62.326,62.326,0,0,0,2.807,9.778,32.6,32.6,0,0,0-6.124,3.181c1.752-35.349-11.077-46.344-11.077-46.344-15.159,5.5-15.742,42.021-15.742,42.021-10.01-31.026-44.117-26.311-44.117-26.311,1,18.6,7.107,32.208,12.785,41.029a30.775,30.775,0,0,0-1.542,2.823s-7.7-32.072-25.713-39.925c0,0-12.169,19.372-10.427,39.925,0,0-10.237-6.43-21.418-7.7a23.812,23.812,0,0,0-1.965-7.087,22.921,22.921,0,0,0-2.964,1.177,22.137,22.137,0,0,0-13.511-7.127c1.161-.283,2.289-.565,3.394-.854,14.082,3.69,34.121,1.9,34.121,1.9a37.547,37.547,0,0,0-6.885-11.881c13.041-6.823,15.735-12.772,15.735-12.772-7.826-5.952-20.819-6.3-30.414-5.536,18.143-4.543,25.737-16.3,25.737-16.3-9.715-2.384-23.577-.417-33.854,1.765a53.893,53.893,0,0,0-3.441-13.8,96.469,96.469,0,0,0,28.894.138,19.869,19.869,0,0,0-.151-8.983,103.844,103.844,0,0,0,11.462-2.023c-2.891-10.65-10.712-18.914-19.645-25.164,12.345-1.781,29.643-5.822,39.179-14.924,0,0-14.552-10.71-46.042-12.863,12.506-7.515,19.34-16.3,22.956-22.68a107.742,107.742,0,0,0,11.794-2.442s2.246-24.1-33.084-28.819c0,0,54.58-6.81,56.045-32.48,0,0-20.446-6.877-52.3-2.1,0,0,19.542-17.352,19.1-37.441,0,0-16.828-2.955-31.462-1.216a49.765,49.765,0,0,0-6.2-3.3s44.072-.482,67.068-20.394c0,0-18.415-12.574-52.984-12.574,0,0,24.239-13.561,15.393-42.935a84.8,84.8,0,0,0-11.014,2.522,27.98,27.98,0,0,0-3.578-5.5c39.8,1.571,52.183-9.956,52.183-9.956-4.028-8.858-22.821-12.176-35.478-13.414,7.977-5.252,9.828-9.306,9.828-9.306a21.03,21.03,0,0,0-2.251-1.464c13.186-12.412,10.21-29.607,10.21-29.607-19.681.847-34.392,5.74-44.338,10.561-.734.144-1.451.293-2.152.442-.047-.5-.116-.993-.179-1.485,8.535-1.968,34.87-9.016,42.247-22.522,0,0-2.175-1.089-5.875-2.531-3.256-9.752-10.67-17.412-19.074-23.295,12.345-1.779,29.643-5.821,39.177-14.922,0,0-14.55-10.709-46.04-12.863,12.506-7.515,19.34-16.306,22.955-22.678a108.923,108.923,0,0,0,11.795-2.445s2.246-24.1-33.084-28.82c0,0,54.58-6.808,56.045-32.479,0,0-20.446-6.876-52.3-2.1,0,0,19.541-17.351,19.1-37.442,0,0-16.826-2.957-31.46-1.214a49.623,49.623,0,0,0-6.2-3.3s44.072-.483,67.068-20.394c0,0-18.415-12.575-52.984-12.575,0,0,24.239-13.56,15.393-42.934a84.391,84.391,0,0,0-11.014,2.522,27.962,27.962,0,0,0-3.578-5.5c39.8,1.574,52.183-9.954,52.183-9.954-6.191-13.623-47.318-14.148-47.318-14.148,34.935-8.994,29.627-39.644,29.627-39.644-20.946.9-36.267,6.385-46.2,11.489-.987-.485-2.04-.947-3.179-1.387,0,0,36.115-6.915,44.955-23.106,0,0-21.813-10.936-44.955-9.371,0,0,7.239-9.2,8.673-19.25a32.055,32.055,0,0,0,7.98-1.765s-5.156-14.167-24.247-18.321a30.9,30.9,0,0,0,7.245-4.308A32.285,32.285,0,0,0,837.2,19.626a23.8,23.8,0,0,0,1.966-7.086c11.181-1.274,21.418-7.7,21.418-7.7-1.742,20.551,10.427,39.924,10.427,39.924,18.017-7.855,25.711-39.924,25.711-39.924a31.479,31.479,0,0,0,1.543,2.821c-5.678,8.819-11.78,22.427-12.784,41.029,0,0,34.107,4.713,44.117-26.312,0,0,.583,36.525,15.742,42.022,0,0,12.829-11,11.077-46.344a32.46,32.46,0,0,0,6.124,3.178,62.443,62.443,0,0,0-2.807,9.784c32.687,7.853,47.778-13.672,47.778-13.672,0,30.7,13.992,47.054,13.992,47.054,22.157-20.42,22.693-59.56,22.693-59.56a42.285,42.285,0,0,0,3.675,5.5c-1.937,13,1.355,27.938,1.355,27.938,22.353.391,41.662-16.964,41.662-16.964-5.318,28.289,2.332,46.445,2.332,46.445,28.565-1.3,36.146-49.773,36.146-49.773,5.249,31.379,32.069,29.383,32.069,29.383a79.378,79.378,0,0,0,2.719-10.475A65.475,65.475,0,0,0,1189.4,16.508c2.4,27.968,14.316,40.889,14.316,40.889,10.125-8.469,14.624-23.832,16.6-34.793,6.957,7.935,16.151,14.881,28,17.445a75.436,75.436,0,0,0,2.25-10.177,27.575,27.575,0,0,0,10,.133,68.637,68.637,0,0,0-.151-25.661A72.32,72.32,0,0,0,1275.766,7.4c-2.426,9.127-4.617,21.437-1.966,30.068a40.756,40.756,0,0,0,18.134-22.859c-.852,8.521-.461,20.061,6.166,27.011,0,0,6.616-2.393,14.206-13.976a45.241,45.241,0,0,0,13.224,6.115s1.986-17.794-2.117-30.3c.319-.98.634-1.944.949-2.975C1324.362.482,1326.838,22.84,1363.011,15.776Z" fill="#4d4948"/>
          </g>
        </g>
      </g>
    </g>
  </g>
</svg>
