<svg xmlns="http://www.w3.org/2000/svg" width="24.97" height="38.623" viewBox="0 0 24.97 38.623">
  <g id="ic-bamboo" transform="translate(-997.104 -125.554)">
    <path id="Path_2299" data-name="Path 2299" d="M1022.024,281.577s-6.409,1.226-9.775,11.338C1012.249,292.915,1019.654,288.581,1022.024,281.577Z" transform="translate(-13.005 -133.977)" fill="#009844"/>
    <path id="Path_2300" data-name="Path 2300" d="M1007.7,274.6s-4.36-1.938-10.6,2.731C997.1,277.327,1003.359,277.813,1007.7,274.6Z" transform="translate(0 -127.641)" fill="#009844"/>
    <path id="Path_2301" data-name="Path 2301" d="M1079.046,287.209s-2.4,3.279.363,9.312C1079.409,296.521,1080.94,291.4,1079.046,287.209Z" transform="translate(-69.535 -138.814)" fill="#009844"/>
    <path id="Path_2302" data-name="Path 2302" d="M1110.374,145.011s-2.24-.144-1.662-1.879.289-14.388-.578-15.649,2.24-2.056,3.758-1.912,3.758.434,3.252,1.373-.5,13.658.073,15.321,1.012,2.6,0,2.746S1110.374,145.011,1110.374,145.011Z" transform="translate(-95.212 0)" fill="#009844"/>
    <path id="Path_2303" data-name="Path 2303" d="M1112.2,269.084s-1.138,1.03-.271,1.626,1.446,4.352,1.572,7.7c.121,3.2.217,5.854-.542,6.721s-.921,2.168,3.523,2.005,4.228-1.463,3.523-1.843-1.007-10.13-1.073-11.761-.422-2.331,0-3.089.476-1.951-1.692-1.626A36.548,36.548,0,0,1,1112.2,269.084Z" transform="translate(-98.317 -122.969)" fill="#009844"/>
  </g>
</svg>
