<svg id="ic-fb" xmlns="http://www.w3.org/2000/svg" width="45" height="45" viewBox="0 0 45 45">
  <path id="Path_567" data-name="Path 567" d="M129.17,230.446a22.5,22.5,0,1,0-26.016,22.227V236.95H97.441v-6.5h5.713v-4.957c0-5.639,3.359-8.754,8.5-8.754a34.612,34.612,0,0,1,5.037.439v5.537h-2.837c-2.795,0-3.667,1.734-3.667,3.514v4.221h6.24l-1,6.5h-5.243v15.723A22.506,22.506,0,0,0,129.17,230.446Z" transform="translate(-84.17 -207.946)" fill="#4676ed"/>
  <path id="Path_568" data-name="Path 568" d="M141.971,254.528l1-6.5h-6.24V243.8c0-1.779.872-3.514,3.667-3.514h2.837v-5.537a34.612,34.612,0,0,0-5.037-.439c-5.14,0-8.5,3.115-8.5,8.754v4.957h-5.713v6.5H129.7v15.723a22.75,22.75,0,0,0,7.031,0V254.528Z" transform="translate(-110.713 -225.524)" fill="#fff"/>
</svg>
