<svg xmlns="http://www.w3.org/2000/svg" xmlns:xlink="http://www.w3.org/1999/xlink" width="45" height="45" viewBox="0 0 45 45">
  <defs>
    <radialGradient id="radial-gradient" cx="0.069" cy="0.946" r="1.272" gradientTransform="translate(0)" gradientUnits="objectBoundingBox">
      <stop offset="0" stop-color="#fec053"/>
      <stop offset="0.327" stop-color="#f2203e"/>
      <stop offset="0.648" stop-color="#b729a8"/>
      <stop offset="1" stop-color="#5342d6"/>
    </radialGradient>
  </defs>
  <g id="ic-ig" transform="translate(907.675 -171.314)">
    <rect id="Rectangle_49" data-name="Rectangle 49" width="45" height="45" rx="22.5" transform="translate(-907.675 171.314)" fill="url(#radial-gradient)"/>
    <path id="Path_2100" data-name="Path 2100" d="M-810.552,244.236h-17.966a6.242,6.242,0,0,0-6.234,6.235v17.965a6.242,6.242,0,0,0,6.234,6.235h17.966a6.242,6.242,0,0,0,6.235-6.235V250.471A6.242,6.242,0,0,0-810.552,244.236Zm3.544,24.2a3.548,3.548,0,0,1-3.544,3.544h-17.966a3.548,3.548,0,0,1-3.544-3.544V250.471a3.548,3.548,0,0,1,3.544-3.545h17.966a3.548,3.548,0,0,1,3.544,3.545Z" transform="translate(-65.64 -65.639)" fill="#fff"/>
    <path id="Path_2101" data-name="Path 2101" d="M-754.437,316.182a8.38,8.38,0,0,0-8.371,8.371,8.38,8.38,0,0,0,8.371,8.371,8.381,8.381,0,0,0,8.371-8.371A8.381,8.381,0,0,0-754.437,316.182Zm0,13.992a5.627,5.627,0,0,1-5.621-5.621,5.627,5.627,0,0,1,5.621-5.621,5.627,5.627,0,0,1,5.621,5.621A5.627,5.627,0,0,1-754.437,330.174Z" transform="translate(-130.738 -130.739)" fill="#fff"/>
    <path id="Path_2102" data-name="Path 2102" d="M-597.975,302.972a1.1,1.1,0,0,0-1.1,1.1,1.1,1.1,0,0,0,1.1,1.1,1.1,1.1,0,0,0,1.1-1.1A1.1,1.1,0,0,0-597.975,302.972Z" transform="translate(-278.262 -118.714)" fill="#fff"/>
  </g>
</svg>
