<svg xmlns="http://www.w3.org/2000/svg" width="32.464" height="32.464" viewBox="0 0 32.464 32.464">
  <g id="ic-line" transform="translate(-0.083 0)">
    <circle id="Ellipse_6" data-name="Ellipse 6" cx="16.232" cy="16.232" r="16.232" transform="translate(0.083 0)" fill="#68b82b"/>
    <g id="Group_845" data-name="Group 845" transform="translate(5.334 6.371)">
      <g id="FULL_COLOR_ICON" data-name="FULL COLOR ICON" transform="translate(0)">
        <g id="TYPE_A" data-name="TYPE A">
          <g id="Group_844" data-name="Group 844">
            <path id="Path_571" data-name="Path 571" d="M1024.079,636.644c0-4.915-4.927-8.914-10.984-8.914s-10.984,4-10.984,8.914c0,4.406,3.908,8.1,9.186,8.794.358.077.845.236.968.542a2.26,2.26,0,0,1,.036.993s-.129.775-.157.94c-.048.278-.221,1.086.952.592a35.461,35.461,0,0,0,8.63-6.377h0a7.93,7.93,0,0,0,2.354-5.484" transform="translate(-1002.111 -627.73)" fill="#fff"/>
            <g id="Group_843" data-name="Group 843" transform="translate(3.603 6.539)">
              <path id="Path_572" data-name="Path 572" d="M1035.626,655.113h-.77a.214.214,0,0,0-.214.214v4.786a.214.214,0,0,0,.214.214h.77a.214.214,0,0,0,.214-.214v-4.786a.214.214,0,0,0-.214-.214" transform="translate(-1030.477 -655.113)" fill="#68b82b"/>
              <path id="Path_573" data-name="Path 573" d="M1047.137,655.113h-.77a.214.214,0,0,0-.214.214v2.843l-2.193-2.962-.017-.022h0l-.013-.013,0,0-.011-.01-.005,0-.011-.008-.006,0-.011-.006-.007,0-.012-.005-.007,0-.013,0-.007,0-.012,0h-.809a.214.214,0,0,0-.214.214v4.786a.214.214,0,0,0,.214.214h.771a.214.214,0,0,0,.214-.214V657.27l2.2,2.966a.206.206,0,0,0,.054.053l0,0,.013.008.006,0,.01,0,.01,0,.006,0,.015,0h0a.205.205,0,0,0,.055.007h.77a.214.214,0,0,0,.214-.214v-4.786a.214.214,0,0,0-.214-.214" transform="translate(-1036.685 -655.113)" fill="#68b82b"/>
              <path id="Path_574" data-name="Path 574" d="M1020.493,659.128H1018.4v-3.8a.214.214,0,0,0-.214-.214h-.771a.214.214,0,0,0-.214.214v4.786h0a.213.213,0,0,0,.06.148l0,0,0,0a.212.212,0,0,0,.148.06h3.078a.214.214,0,0,0,.213-.214v-.771a.214.214,0,0,0-.213-.214" transform="translate(-1017.201 -655.113)" fill="#68b82b"/>
              <path id="Path_575" data-name="Path 575" d="M1068.3,656.311a.214.214,0,0,0,.214-.214v-.77a.214.214,0,0,0-.214-.214h-3.078a.213.213,0,0,0-.149.06l0,0,0,0a.213.213,0,0,0-.059.147h0v4.785h0a.213.213,0,0,0,.06.148l0,0,0,0a.211.211,0,0,0,.148.06h3.078a.214.214,0,0,0,.214-.214v-.77a.214.214,0,0,0-.214-.214H1066.2v-.809h2.093a.213.213,0,0,0,.214-.214v-.77a.214.214,0,0,0-.214-.214H1066.2v-.809Z" transform="translate(-1053.591 -655.113)" fill="#68b82b"/>
            </g>
          </g>
        </g>
      </g>
    </g>
  </g>
</svg>
