<svg xmlns="http://www.w3.org/2000/svg" xmlns:xlink="http://www.w3.org/1999/xlink" width="45.677" height="45.678" viewBox="0 0 45.677 45.678">
  <defs>
    <radialGradient id="radial-gradient" cx="0.069" cy="0.946" r="1.272" gradientUnits="objectBoundingBox">
      <stop offset="0" stop-color="#fec053"/>
      <stop offset="0.327" stop-color="#f2203e"/>
      <stop offset="0.648" stop-color="#b729a8"/>
      <stop offset="1" stop-color="#5342d6"/>
    </radialGradient>
  </defs>
  <g id="IG" transform="translate(907.675 -171.314)">
    <rect id="矩形_49" data-name="矩形 49" width="45.678" height="45.678" rx="22.839" transform="translate(-907.675 171.314)" fill="url(#radial-gradient)"/>
    <path id="路径_2100" data-name="路径 2100" d="M-810.013,244.236h-18.366a6.38,6.38,0,0,0-6.373,6.373v18.365a6.38,6.38,0,0,0,6.373,6.373h18.366a6.381,6.381,0,0,0,6.373-6.373V250.609A6.381,6.381,0,0,0-810.013,244.236Zm3.623,24.739a3.627,3.627,0,0,1-3.623,3.623h-18.366A3.627,3.627,0,0,1-832,268.975V250.609a3.627,3.627,0,0,1,3.623-3.623h18.366a3.627,3.627,0,0,1,3.623,3.623Z" transform="translate(-65.64 -65.639)" fill="#fff"/>
    <path id="路径_2101" data-name="路径 2101" d="M-754.437,316.182a8.38,8.38,0,0,0-8.371,8.371,8.38,8.38,0,0,0,8.371,8.371,8.381,8.381,0,0,0,8.371-8.371A8.381,8.381,0,0,0-754.437,316.182Zm0,13.992a5.627,5.627,0,0,1-5.621-5.621,5.627,5.627,0,0,1,5.621-5.621,5.627,5.627,0,0,1,5.621,5.621A5.627,5.627,0,0,1-754.437,330.174Z" transform="translate(-130.399 -130.4)" fill="#fff"/>
    <path id="路径_2102" data-name="路径 2102" d="M-597.975,302.972a1.1,1.1,0,0,0-1.1,1.1,1.1,1.1,0,0,0,1.1,1.1,1.1,1.1,0,0,0,1.1-1.1A1.1,1.1,0,0,0-597.975,302.972Z" transform="translate(-277.782 -118.509)" fill="#fff"/>
  </g>
</svg>
