<svg xmlns="http://www.w3.org/2000/svg" width="552.757" height="232.495" viewBox="0 0 552.757 232.495">
  <g id="KV_title_PC" data-name="KV title PC" transform="matrix(1, -0.017, 0.017, 1, -2301.859, -564.381)">
    <g id="组_1365" data-name="组 1365" transform="translate(2289.145 611.54)">
      <g id="组_1347" data-name="组 1347" transform="translate(0 136.926)">
        <path id="路径_2107" data-name="路径 2107" d="M2192,767.871a3.682,3.682,0,0,0,3.407-3.3c.035-1.844-1.886-3.473-4.151-3.455-2.507.021-3,.993-3.216,3.487C2187.893,766.382,2189.84,767.894,2192,767.871Z" transform="translate(-2188.036 -761.117)" fill="#fff"/>
      </g>
      <g id="组_1364" data-name="组 1364" transform="translate(3.679 0)">
        <g id="组_1348" data-name="组 1348" transform="translate(35.269 64.215)">
          <path id="路径_2108" data-name="路径 2108" d="M2564.784,730.419l-62.122-.355-255.814,21.629-12.486-46,307.807-31.06,20.509,15.781Z" transform="translate(-2234.362 -674.631)" fill="#fff"/>
        </g>
        <g id="组_1349" data-name="组 1349" transform="translate(393.003 110.383)">
          <path id="路径_2109" data-name="路径 2109" d="M2660.547,740.968c.722-.95,1.167-1.542,1.836-2.42.79,1.057,1.348,1.939,2.029,2.694,2.215,2.451,5.3,2.538,8.355.294,2.316-1.7,3.046-4.364,2.016-7.333-1.59-4.566-9.357-6.411-12.084-2.6-1.424,1.983-1.993,4.711-2.8,7.164C2659.736,739.263,2660.253,740.026,2660.547,740.968Zm7.5-7.016c1.476-.054,3.2.134,3.686,1.875.555,1.955-.973,2.7-2.514,3.4-1.126-1.593-2.032-2.88-3.077-4.358C2666.8,734.532,2667.41,733.975,2668.042,733.952Z" transform="translate(-2659.869 -729.546)" fill="#fff"/>
        </g>
        <g id="组_1350" data-name="组 1350" transform="translate(367.393)">
          <path id="路径_2110" data-name="路径 2110" d="M2688.584,702.642c-1.323,0-2.911-.87-5.023-2.292h0a48.087,48.087,0,0,0-5.316-2.951c-1.575-.789-3.2-1.6-4.741-2.566-2.4-1.5-4.7-3.239-6.383-4.51-.615-.465-1.161-.877-1.615-1.206a.774.774,0,0,1-.221-.247c-3.058-5.377-1.164-8.125.508-10.549l.3-.441c1.975-2.906,4.425-5.4,8.933-3.94,5.695,1.839,5.7,1.839,8.923-3.549l.063-.105a8.668,8.668,0,0,1,6.491-4.231,9.433,9.433,0,0,1,7.863,3c2.627,2.755,1.979,5.9,1.121,8.324q-1.234,3.488-2.473,6.975-1.388,3.907-2.771,7.816l-.357,1c-.431,1.2-.877,2.443-1.209,3.682-.838,3.128-1.623,5.052-3.156,5.625A2.654,2.654,0,0,1,2688.584,702.642Zm-22.024-14.687c.432.316.938.7,1.5,1.124,1.66,1.254,3.931,2.97,6.269,4.432,1.475.921,3.07,1.721,4.612,2.494a49.045,49.045,0,0,1,5.488,3.051h0c1.816,1.222,3.625,2.306,4.545,1.96.952-.356,1.645-2.51,2.2-4.568.349-1.3.805-2.575,1.247-3.806l.355-.995q1.381-3.913,2.771-7.82,1.239-3.486,2.473-6.973c1.083-3.063.858-5.011-.778-6.725a7.866,7.866,0,0,0-6.561-2.524,7.116,7.116,0,0,0-5.325,3.481l-.064.106c-3.592,6-4.023,6.4-10.741,4.232-3.362-1.087-5.171.4-7.163,3.332l-.309.451C2665.481,681.526,2664.1,683.53,2666.56,687.955Z" transform="translate(-2663.66 -666)" fill="#fff"/>
        </g>
        <g id="组_1356" data-name="组 1356" transform="translate(0 36.642)">
          <g id="组_1351" data-name="组 1351" transform="translate(0 30.714)">
            <path id="路径_2111" data-name="路径 2111" d="M2233.987,686.268l2.61-.276a6.665,6.665,0,0,1,6.1,2.726l.013.256q-20.806,6.584-27.832,7.333l-4.037.452q8.5,4.32,8.668,7.283,5.53-.6,5.472-1.621-.038-.7-4.674-5.717l-.012-.225,2.01-.625.413-.057q4.3-.465,8.989,5.635l1.051-.092q4.077-5.924,4.053-6.371l-.933-1.227-.038-.671,2.012-.657,2.574-.272q1.174-.13,4.319,1.674l.069,1.213q.018.351-4.357,5.012l.859-.111q2.542-.272,9.182-.52l6.051-1.078a4.308,4.308,0,0,1,4.28,1.611l.045.768q-5.085,5.694-10.743,6.3l-.94-1.9a16.706,16.706,0,0,1,2.146-3.929q-2.61.277-7.752.406A49.981,49.981,0,0,0,2233.2,704l-2.251-.225a4.065,4.065,0,0,0-.431,1.4l-2.7.282-.052-.893q-11.523,2.122-15.786,2.589l-2.346-.22.108,1.914q.461,8.163-3.736,8.593l-1.717.194q-4.194.459-4.284-1.1l2.533-8.942,6.353-1.958,5.339-.59q-.026-.445-6.834-5.981,2.926-3.713,18.145-8.384l8.352-2.231-.537-.994-.02-.351Q2233.384,686.334,2233.987,686.268ZM2220.3,721.944l1.273-.136q3.085-.333,3.372.8.094,1.624-3.94,7.8l.039.671,3.369-.352-.043-.764-.858.081-.015-.256c.034-.49.254-.76.654-.8l2.2-.252a108.137,108.137,0,0,1,12.937-3.13l2.609-.277,2.911.54q.229,4.626-7.889,16.057l14.654,9.12q5.647.8,5.751,2.682l.022.382a6.852,6.852,0,0,1-3.263,1.144q-10.923-.246-14.032-3.2-.041-.733-7.411-5.434l-.539.061q-12.222,9.618-19.473,10.38l-4.606.517-.032-.574a62.131,62.131,0,0,0,19.36-14.02q-7.533-8.753-7.6-9.9l-.668.07q-8.364,8.791-10.78,9.055-.733.074-.768-.563,1.841-5.285,10.662-19.062Zm-2.793-9.79c.761-.086,1.216,1.116,1.353,3.6q-2.771,8.028-6.333,8.453l-3.5.357-2.025-.172-.041-.7,9.748-11.46Zm5.191-1,2.6-.308q1.21-.1,2.929,7.1,2.208,1.155,8.027.536l5.376-.56a4,4,0,0,1,1.085-2.333q7.227.583,7.314,2.114l.027.446c.019.34-.362.768-1.144,1.279l-14.274,1.545q-12.022,1.29-12.234-2.474a13.611,13.611,0,0,1-.644-3.451l-.072-1.307Q2221.837,711.237,2222.7,711.156Zm2.683,19.138.04.732q.862-.081,7.086,5.933,3.638-7.5,3.569-8.711l-.6.067A49.9,49.9,0,0,1,2225.38,730.294Zm3.781-22.479,3.372-.351q2.158.839,4.6,6.714l-2.405,1.063q-6.326.678-6.711-6.146C2228,708.754,2228.379,708.327,2229.161,707.815Zm16.613,1.3,1.75-.163q3.847-.409,10.876,2.263l.064,1.116a17.4,17.4,0,0,1-3.683,1.649l-2.607.275q-1.687.16-3.518-2.232-2.612-1.484-3.5-1.4l-.039-.7Q2245.17,709.18,2245.774,709.113Z" transform="translate(-2193.62 -679.576)" fill="#fff"/>
            <path id="路径_2112" data-name="路径 2112" d="M2206.809,762.744a6.381,6.381,0,0,1-6.37-6.033l-.031-.574a6.378,6.378,0,0,1,3.767-6.172,48.2,48.2,0,0,0,6.08-3.275,8.641,8.641,0,0,1-2.473.645,7.124,7.124,0,0,1-5.425-1.62,6.926,6.926,0,0,1-2.4-4.937,6.373,6.373,0,0,1,.345-2.448,58.573,58.573,0,0,1,4.3-8.88,6.382,6.382,0,0,1-5.168-5.893l-.041-.7c0-.025,0-.051,0-.077a8.533,8.533,0,0,1-4.365-1.887,7.3,7.3,0,0,1-2.595-5.207,6.407,6.407,0,0,1,.231-2.1l2.534-8.941a6.379,6.379,0,0,1,4.259-4.358l.748-.23a6.378,6.378,0,0,1,.979-6.152c2.058-2.611,6.2-5.905,21.285-10.533.074-.024.149-.044.225-.065l4.036-1.079a7,7,0,0,1,5.366-3.513l.023,0,2.611-.276a13.065,13.065,0,0,1,11.723,5.045,6.38,6.38,0,0,1,1.422,3.681l.013.255c.01.172.012.344.008.515a6.378,6.378,0,0,1,1.96,3.688l4.38-.781c.135-.023.269-.044.405-.059a10.7,10.7,0,0,1,10.139,4.178,6.371,6.371,0,0,1,1.224,3.4l.045.768a6.381,6.381,0,0,1-1.61,4.622q-1.1,1.23-2.24,2.284a6.376,6.376,0,0,1,1.374,3.6l.065,1.117a6.379,6.379,0,0,1-3.4,6.012,20.934,20.934,0,0,1-5.3,2.242,8.484,8.484,0,0,1-3.727,4.549,6.344,6.344,0,0,1-1.243.631c0,.05.007.1.01.153.186,3.745-1.43,8.23-5.291,14.442l7.978,4.965c6.278,1.185,9.582,4.012,9.828,8.414l.021.363a6.383,6.383,0,0,1-2.807,5.667,13.2,13.2,0,0,1-6.245,2.2,6.93,6.93,0,0,1-.724.025c-9.261-.209-14.9-1.739-18.288-4.962a6.369,6.369,0,0,1-.706-.794c-.34-.266-1.012-.766-2.279-1.623-7.664,5.585-14.027,8.585-19.371,9.147l-4.562.512A6.548,6.548,0,0,1,2206.809,762.744Zm-4.836-51.41Z" transform="translate(-2192.411 -678.368)" fill="#fff"/>
          </g>
          <g id="组_1352" data-name="组 1352" transform="translate(65.462 43.909)">
            <path id="路径_2113" data-name="路径 2113" d="M2296.9,702.086l3.91-.414q2.259-.223,2.985,1.3l1.117,19.77,17.966-1.913q2.463-.011,2.512.85l.02.351a23.57,23.57,0,0,1-5.868,1.451l-14.5,1.557.034.574q.244,4.3,1.7,22.168l-.244,4.173,2.8-.319q22.86-2.446,22.974-.437.067,1.146-4.1,1.607-12.958.512-16.584.907l-14.786,1.572a76.03,76.03,0,0,0-14.714,2.881l-4.212-.369-.043-.767q-.095-1.689,12.352-3.354l8.84-.916-2.822-49.842Q2296.291,702.154,2296.9,702.086Z" transform="translate(-2271.483 -695.27)" fill="#fff"/>
            <path id="路径_2114" data-name="路径 2114" d="M2280.913,763.343c-.185,0-.371-.008-.557-.024l-4.212-.369a6.379,6.379,0,0,1-5.813-6l-.043-.767c-.223-3.984,2.381-6.742,7.739-8.2a83.086,83.086,0,0,1,10.136-1.838l.19-.023,2.782-.288-2.477-43.762a6.472,6.472,0,0,1,0-.794,7.119,7.119,0,0,1,6.317-6.744l.038,0,3.91-.414c4.246-.414,7.753,1.416,9.416,4.9a6.361,6.361,0,0,1,.61,2.384l.739,13.076,11.3-1.2c.241-.024.484-.034.725-.036,8.219,0,8.794,6.176,8.833,6.882l.019.334a6.38,6.38,0,0,1-4.122,6.336,29.981,29.981,0,0,1-7.465,1.827l-8.368.9c.258,3.426.629,8.144,1.115,14.125,18.693-1.833,21.024-.77,23.331,1.19a6.746,6.746,0,0,1,2.406,4.8c.156,2.675-.906,7.329-9.771,8.306-.148.016-.3.028-.446.034-8.467.335-13.9.628-16.143.874l-14.8,1.575a69.977,69.977,0,0,0-13.449,2.615A6.389,6.389,0,0,1,2280.913,763.343Z" transform="translate(-2270.275 -694.062)" fill="#fff"/>
          </g>
          <g id="组_1353" data-name="组 1353" transform="translate(124.78 9.998)">
            <path id="路径_2115" data-name="路径 2115" d="M2355.1,666.013l.517-.077q10.115-1.045,10.319,2.555l.091,1.61q20.658-2.878,30.58-3.966l11.153-1.154q.29-3.3,1.564-3.415l.66-.134q12-1.248,12.685,10.787,2.474,20.159,2.635,23.049l-1.15.683-1.842.2q-7.467.8-12.4-3.243l-14.554,1.536.615,10.9q19.5-4.052,22.711-4.423l5.683,1.295.027.474q.124,2.181-27.379,5.924l-.849.094.644,11.42q1.225.6,27.638-2.229l-.034-.618q7.7-.861,10.085,2.663l.055,1-.427.023q-16.628,1.8-33.631,2.95-31.291,4.006-46.387,6.9l-5.681-1.247q-.164-2.892,37.887-7.613l-.2-3.411-1.067-7.974-15.734,1.7q-10.139.667-10.247-1.275l-.058-1.042,4.911-.563q6.854-.721,20.9-2.895l-.615-10.852-14.459,1.533-3.487-.279.049.853q.178,8.262-1.9,8.522-7.7.815-10.866-1.334.783-31.513.4-38.244Zm8.159,66.9q2.9.881,3.207,2.052a39.96,39.96,0,0,1-3.429,18.355l-2.459.235q-9.5.2-9.617-1.929-.163-2.89,5.993-8.327Q2360.28,733.271,2363.257,732.913Zm2.879-60.87.365,6.445,3.448-.385q6.9-.724,7.229,5.1.662-.083,2.22,4.772.17,2.984-4.748,3.5-4.294-1.994-6.9-10.307l-1.087.11-.211,8.045.308,5.4,17.293-1.835L2384,692l-1.845-20.859-14.413,1.53Zm9.022,60.291,3.07-.315q6.189-.684,6.614,6.8,1.026,6.408,1.206,9.533l-1.1.682-.571.03q-8.818.358-8.917-1.348l-.625-11.041Zm21.744-2.99q6.237-.683,6.737,8.128,1.117,8.019,1.161,8.777l-1.085.156q-9.452,1.011-9.656-2.639a43.12,43.12,0,0,1-1.054-7.688l-.037-.663Q2392.647,729.775,2396.9,729.344Zm-4.214-59.327.048.853q1.546,16.409,1.724,19.536l1.552.529,3.921-.412q3.357-.332,11.24-.493l-.124-2.18-1.117-7.97-1.086.108q.171,3.034-10.677,7.071c.025.41-.091.621-.345.637l-.754.09q1.5-1.94,4.076-14.492l-.06-1.09.425-.024q5.68-1.273,7.285-1.458l-.136-2.418Zm20.719,59.486,3.641-.349q8.88-.976,17.549,16.121l.1,1.754a4.625,4.625,0,0,1-1.669.759q-10.729,1.131-11.192-7.069Q2413.526,731.637,2413.407,729.5Z" transform="translate(-2342.041 -654.935)" fill="#fff"/>
            <path id="路径_2116" data-name="路径 2116" d="M2357.335,758.754c-5.436,0-13.55-.744-13.956-7.979-.219-3.874,1.845-7.61,6.856-12.3.323-.917.66-1.819,1.017-2.7l-5.4-1.186a6.38,6.38,0,0,1-5-5.871c-.4-6.972,7.52-8.562,14.5-9.965q2.821-.566,6.482-1.175c-3.876-.167-6.184-.934-7.9-2.456a7.156,7.156,0,0,1-2.415-4.684,13.456,13.456,0,0,1-2.764-1.435,6.377,6.377,0,0,1-2.79-5.434c.515-20.724.654-33.417.41-37.724a6.381,6.381,0,0,1,3.112-5.846l1.151-.683a6.362,6.362,0,0,1,2.319-.825l.518-.077c.094-.014.187-.026.282-.035,7.139-.739,11.421,0,14.326,2.477a8.867,8.867,0,0,1,1,1c11.253-1.545,19.857-2.646,25.624-3.276l6.988-.724a7.365,7.365,0,0,1,5.333-3.793l.489-.1c.2-.039.4-.071.6-.092,5.785-.6,10.486.6,13.97,3.562,3.437,2.926,5.365,7.3,5.731,12.988,2.218,18.091,2.574,21.949,2.648,23.276a6.371,6.371,0,0,0-.937,6.941l.027.474c.369,6.533-6.958,8.118-11.805,9.167-1.793.388-3.885.789-6.3,1.206,2.405-.237,5.192-.521,8.421-.862a6.351,6.351,0,0,1,2.624-.9c7.651-.856,13.06.969,16.078,5.425a6.376,6.376,0,0,1,1.088,3.223l.056,1a6.381,6.381,0,0,1-6.023,6.726l-.258.014q-2.3.248-4.607.484c5.264,4.738,8.7,11.511,10.254,14.582a6.361,6.361,0,0,1,.679,2.52l.1,1.754a6.377,6.377,0,0,1-2.935,5.742,10.411,10.411,0,0,1-4.259,1.707l-.175.021c-5.848.616-10.446-.463-13.674-3.207a12.871,12.871,0,0,1-4.242-7.385,86.778,86.778,0,0,1-5.813-7.024q.012.159.022.318c1.119,8.04,1.153,8.619,1.177,9.044a6.379,6.379,0,0,1-5.462,6.686l-1.086.156c-.076.011-.152.02-.228.028-5.824.624-9.783.109-12.577-1.669a6.368,6.368,0,0,1-2.416,2.7l-1.1.681a6.375,6.375,0,0,1-3.009.943l-.571.031a43.753,43.753,0,0,1-7.937-.22c-3.378-.51-5.278-1.918-6.344-3.381q-.681,2.019-1.548,4.021a6.381,6.381,0,0,1-5.249,3.813l-2.459.234c-.156.015-.312.025-.469.028C2358.858,758.738,2358.123,758.754,2357.335,758.754Zm-1.594-16.663h0Zm40.589-7.683.051.018-.531-4.845-.011,0Zm1.824-1.523Zm-39.148-41.928q-.027,1.4-.06,2.864.084-.274.192-.538Zm57.328-2.486c.251.052.517.1.8.132-.389-3.451-1.016-8.748-2.006-16.815-.018-.138-.03-.277-.038-.415-.117-2.057-.569-3.577-1.242-4.187l.111,1.97a6.367,6.367,0,0,1-1.429,4.4,6.366,6.366,0,0,1,2.514,4.236l1.117,7.969c.025.175.042.349.052.524l.125,2.18ZM2413,663.626Z" transform="translate(-2340.831 -653.726)" fill="#fff"/>
          </g>
          <g id="组_1354" data-name="组 1354" transform="translate(217.361 16.886)">
            <path id="路径_2117" data-name="路径 2117" d="M2485.107,669.9l3.434-.387c1.641-.008,2.479.288,2.512.882l.5,8.866,7.123-.757q3.081-.332,3.373.8l.04.7-2.011.658q-6.891.3-8.42.445-.072,6.081.09,8.921l.034.605,4.227-.463q-.074-1.308,1.93-1.517l1.3-.139q2.465.024,2.513.881l.123,2.2a94.321,94.321,0,0,1-.364,17.3l.635-.068,2.635.172,4.073-.39.156-4.584-.5-8.9-2.767.315q-2.133.217-2.516-.913l-.014-.287,2.04-.66,3.15-.339-.363-6.408-2.321.259-2.92-.123-.055-1.02,2.04-.661,3.149-.337-.463-8.163-5.371.592q-.7.073-.74-.6c.038-.493.257-.761.659-.805l3.528-.392a27.627,27.627,0,0,1,5.11-1.857l.859-.08q2.462-.011,2.514.883l1.479,26.147a31.666,31.666,0,0,0,.713,4.663q-.413.629-.258,3.339l3.21-.342q5.485-.277,5.558.966.044.765-2.827,1.5-31.354,1.584-41.817,2.685a40.257,40.257,0,0,0-7.335,2.113,40.166,40.166,0,0,1-6.066.214,38.244,38.244,0,0,1-5.635,1.022q-2.473-.147-2.512-.849-.057-1.531,9.011-3.005l-1.836-32.429-.614-2.908a7.148,7.148,0,0,1,2.847-1.122,6.45,6.45,0,0,1,3.511.952,40.222,40.222,0,0,0,5.176-2.34l1.719-.161q3.086-.336,3.371.769l.022.446q.094,1.626-9.793,4.426l.51,9.025,8.842-.949c.49.015.746.214.769.6l.04.732-2.9.772-6.649.7q.706,4.471.835,6.8l5.376-.56,2.027.205.059,1.053-2.012.625-5.344.558.528,9.312.578,2.3,18.984-2.034a3.114,3.114,0,0,1,1.566-2.873,135.071,135.071,0,0,0,.952-14.833l-3.722.4a5.035,5.035,0,0,1-2.883,1.634l-2.192.221a2.3,2.3,0,0,1-2.543-1.36,3.519,3.519,0,0,1,.379-1.27q-1.1-11.485-1.533-19.17l-.5-2.018Zm-3.028,47.677.444-.057q3.752-.406,3.916,2.466.344,6.091-13.922,14.031a5.335,5.335,0,0,0-.915-.332q2.99-3.177,6.915-12.354Q2478.327,717.977,2482.079,717.573Zm5.778-21.664q3.089-.337,3.375.768l.293,5.229q.362,6.379-2.086,6.645l-4.327.468c-.485.05-.74-.151-.766-.6a47.451,47.451,0,0,0,.5-7.067l-.149-2.614Q2484.552,696.255,2487.857,695.909Zm12.934,18.78,1.685-.191q5.678.288,13.838,7.694a6.489,6.489,0,0,1,1.934,3.635,5.11,5.11,0,0,1-1.856,3.976l-2.479.267a64.148,64.148,0,0,1-7.412-8.345,12.578,12.578,0,0,0-4.03-2.2q-.047-.828-2.8-3.2l-.02-.35Q2499.617,715.429,2500.791,714.689Z" transform="translate(-2452.161 -663.129)" fill="#fff"/>
            <path id="路径_2118" data-name="路径 2118" d="M2471.308,739.184a6.383,6.383,0,0,1-2.421-.477c-.095-.039-.177-.073-.249-.1a6.381,6.381,0,0,1-2.892-10.507c.552-.587,1.946-2.367,4.206-7.167-1.33.083-2.6.113-3.808.087a44.278,44.278,0,0,1-5.651.962,6.6,6.6,0,0,1-1.031.022c-7.559-.451-8.418-5.367-8.5-6.864,0-.04,0-.079-.006-.119-.187-5.09,4.031-7.256,8.7-8.443l-1.493-26.381-.513-2.435a6.38,6.38,0,0,1,2.9-6.756,13.218,13.218,0,0,1,5.486-2.025,10.9,10.9,0,0,1,4.147.4c.6-.282,1.388-.662,2.425-1.172a6.381,6.381,0,0,1,2.22-.627l.956-.089a6.382,6.382,0,0,1,4.3-4.324l1.982-.593a6.367,6.367,0,0,1,1.116-.227l3.433-.387a7.081,7.081,0,0,1,.765-.04c8.2,0,8.79,6.19,8.83,6.9l.071,1.256a7.04,7.04,0,0,1,3.824-1.649l2.6-.288a23.066,23.066,0,0,1,5.982-1.954l.163-.018.859-.08c.213-.019.427-.026.639-.028,8.206,0,8.8,6.191,8.837,6.9l1.48,26.151a16.23,16.23,0,0,0,.194,1.652c5.755.35,8.787,2.689,9.029,6.977.158,2.73-1.034,6.351-7.61,8.042a6.394,6.394,0,0,1-1.267.193l-1.841.093.215.194a6.329,6.329,0,0,1,.479.484,12.346,12.346,0,0,1,3.536,7.513,11.272,11.272,0,0,1-3.8,8.932,6.387,6.387,0,0,1-3.743,1.749l-2.478.267a6.38,6.38,0,0,1-4.8-1.469,63.652,63.652,0,0,1-7.773-8.6,5.448,5.448,0,0,0-1.434-.731,6.382,6.382,0,0,1-3.884-3.362c-.219-.222-.595-.578-1.2-1.1a6.385,6.385,0,0,1-1.719-2.36l-1.049.071c.032.249.056.5.07.757.512,9.032-9.563,15.719-17.187,19.963A6.38,6.38,0,0,1,2471.308,739.184Zm24.461-17.846h0Zm-16.892-2.474Zm16.016-.186h0Z" transform="translate(-2450.951 -661.92)" fill="#fff"/>
          </g>
          <g id="组_1355" data-name="组 1355" transform="translate(292.917)">
            <path id="路径_2119" data-name="路径 2119" d="M2583.586,649.518l.85-.1a15.152,15.152,0,0,1,8.089,6.864l.153,2.7q-12.827,16.08-18.737,16.7l.084,1.469,3.216-.324q31.373-5.056,31.288-6.573-.071-1.279,2.635-3,12.373-.6,12.54,2.333l3.71,65.582-.627,4.838-6.664.709a5.427,5.427,0,0,1-5.889-3.279q-6.92-1.272-7.142-5.2l-43.423,4.643.167,2.937-5.625.6q-2.456.282-8.657-.935-1.713-47.916-.87-67.5l7.559-.809q5.621-.6,6.008,6.22l2.364-.229a175.707,175.707,0,0,1,14.571-21.41l-.27-4.786Zm24.444,53.1-44.087,4.684q-.185,13.511.177,19.908l.224,3.933q.455,2.161,2.3,1.962l26.366-2.825a123.654,123.654,0,0,0,18.693-4.005l-1.42-25.068Zm-40.375-21.293-5.152.53,1.245,21.987,43.19-4.583,3.334,1.808-1.424-25.164Q2582.585,679.669,2567.655,681.32Z" transform="translate(-2542.028 -643.043)" fill="#fff"/>
            <path id="路径_2120" data-name="路径 2120" d="M2618.106,745.935a11.441,11.441,0,0,1-8.981-4.079,14.8,14.8,0,0,1-6.921-4.017l-33.866,3.622a6.377,6.377,0,0,1-5.028,3.493l-5.625.6c-2.331.267-5.606-.044-10.567-1.018a6.382,6.382,0,0,1-5.148-6.033c-1.141-31.975-1.433-54.855-.867-68.005a6.38,6.38,0,0,1,5.7-6.069l7.559-.809a11.558,11.558,0,0,1,7.975,1.808q3.9-6,9.143-12.888l-.136-2.419a6.379,6.379,0,0,1,4.475-6.453l4.672-1.453a6.337,6.337,0,0,1,1.185-.248l.848-.095a6.379,6.379,0,0,1,2.893.346,21.442,21.442,0,0,1,11.419,9.646,6.378,6.378,0,0,1,.857,2.851l.153,2.7a6.378,6.378,0,0,1-1.383,4.34q-1.943,2.436-3.733,4.534c5.431-1.013,8.309-1.669,9.83-2.073a14.438,14.438,0,0,1,3.978-3.552,6.387,6.387,0,0,1,3.113-.989c6.067-.3,18.691-.912,19.221,8.342l3.712,65.587a6.475,6.475,0,0,1-.043,1.181l-.628,4.838a6.379,6.379,0,0,1-5.652,5.523l-6.664.71A14.394,14.394,0,0,1,2618.106,745.935Zm.747-12.34Zm-4.352-3.569a6.38,6.38,0,0,1,4.1,3.1l1.162-.124-3.43-60.6c-.709-.046-1.621-.077-2.766-.072a6.41,6.41,0,0,1,.442,2l1.424,25.164,0,.067,0,.073,1.42,25.067A6.382,6.382,0,0,1,2614.5,730.025Zm-59.962,2.779a9.4,9.4,0,0,0,1.736.071l.477-.051a6.44,6.44,0,0,1,.377-.653c-.091-.3-.171-.609-.238-.925a6.44,6.44,0,0,1-.127-.953l-.223-3.934c-.252-4.461-.313-11.12-.186-20.358a4.938,4.938,0,0,0-.185-3.011L2554.924,681a6.4,6.4,0,0,0-.251-4.457c0-.042-.005-.083-.007-.123l-.988.106C2553.407,689.008,2553.7,707.879,2554.539,732.8Zm10.215-7.256h0Zm4.305-13.716c-.03,5.655.035,10.09.191,13.234l21.87-2.343a95.994,95.994,0,0,0,12.708-2.5l-.681-12.016Zm-1.051-25.475.522,9.219,33.7-3.576-.567-10.016C2587.849,683.93,2576.554,685.4,2568.009,686.357Zm45.684-17.633h0Zm0-.03v0Zm-29.536-12.555a6.28,6.28,0,0,1-.289.862c.172-.205.346-.413.523-.625C2584.313,656.294,2584.236,656.215,2584.156,656.138Z" transform="translate(-2540.821 -641.835)" fill="#fff"/>
          </g>
        </g>
        <g id="组_1362" data-name="组 1362" transform="translate(6.38 43.022)">
          <g id="组_1357" data-name="组 1357" transform="translate(0 30.712)">
            <path id="路径_2121" data-name="路径 2121" d="M2233.987,686.268l2.61-.276a6.665,6.665,0,0,1,6.1,2.726l.013.256q-20.806,6.584-27.832,7.333l-4.037.452q8.5,4.32,8.668,7.283,5.53-.6,5.472-1.621-.038-.7-4.674-5.717l-.012-.225,2.01-.625.413-.057q4.3-.465,8.989,5.635l1.051-.092q4.077-5.924,4.053-6.371l-.933-1.227-.038-.671,2.012-.657,2.574-.272q1.174-.13,4.319,1.674l.069,1.213q.018.351-4.357,5.012l.859-.111q2.542-.272,9.182-.52l6.051-1.078a4.308,4.308,0,0,1,4.28,1.611l.045.768q-5.085,5.694-10.743,6.3l-.94-1.9a16.706,16.706,0,0,1,2.146-3.929q-2.61.277-7.752.406A49.981,49.981,0,0,0,2233.2,704l-2.251-.225a4.065,4.065,0,0,0-.431,1.4l-2.7.282-.052-.893q-11.523,2.122-15.786,2.589l-2.346-.22.108,1.914q.461,8.163-3.736,8.593l-1.717.194q-4.194.459-4.284-1.1l2.533-8.942,6.353-1.958,5.339-.59q-.026-.445-6.834-5.981,2.926-3.713,18.145-8.384l8.352-2.231-.537-.994-.02-.351Q2233.384,686.334,2233.987,686.268ZM2220.3,721.944l1.273-.136q3.085-.333,3.372.8.094,1.624-3.94,7.8l.039.671,3.369-.352-.043-.764-.858.081-.015-.256c.034-.49.254-.76.654-.8l2.2-.252a108.137,108.137,0,0,1,12.937-3.13l2.609-.277,2.911.54q.229,4.626-7.889,16.057l14.654,9.12q5.647.8,5.751,2.682l.022.382a6.852,6.852,0,0,1-3.263,1.144q-10.923-.246-14.032-3.2-.041-.733-7.411-5.434l-.539.061q-12.222,9.618-19.473,10.38l-4.606.517-.032-.574a62.131,62.131,0,0,0,19.36-14.02q-7.533-8.753-7.6-9.9l-.668.07q-8.364,8.791-10.78,9.055-.733.074-.768-.563,1.841-5.285,10.662-19.062Zm-2.793-9.79c.761-.086,1.216,1.116,1.353,3.6q-2.771,8.028-6.333,8.453l-3.5.357-2.025-.172-.041-.7,9.748-11.46Zm5.191-1,2.6-.308q1.21-.1,2.929,7.1,2.208,1.155,8.027.536l5.376-.56a4,4,0,0,1,1.085-2.333q7.227.583,7.314,2.114l.027.446c.019.34-.362.768-1.144,1.279l-14.274,1.545q-12.022,1.29-12.234-2.474a13.611,13.611,0,0,1-.644-3.451l-.072-1.307Q2221.837,711.237,2222.7,711.156Zm2.683,19.138.04.732q.862-.081,7.086,5.933,3.638-7.5,3.569-8.711l-.6.067A49.9,49.9,0,0,1,2225.38,730.294Zm3.781-22.479,3.372-.351q2.158.839,4.6,6.714l-2.405,1.063q-6.326.678-6.711-6.146C2228,708.754,2228.379,708.327,2229.161,707.815Zm16.613,1.3,1.75-.163q3.847-.409,10.876,2.263l.064,1.116a17.4,17.4,0,0,1-3.683,1.649l-2.607.275q-1.687.16-3.518-2.232-2.612-1.484-3.5-1.4l-.039-.7Q2245.17,709.18,2245.774,709.113Z" transform="translate(-2200 -685.954)"/>
          </g>
          <g id="组_1358" data-name="组 1358" transform="translate(65.464 43.904)">
            <path id="路径_2122" data-name="路径 2122" d="M2296.9,702.086l3.91-.414q2.259-.223,2.985,1.3l1.117,19.77,17.966-1.913q2.463-.011,2.512.85l.02.351a23.57,23.57,0,0,1-5.868,1.451l-14.5,1.557.034.574q.244,4.3,1.7,22.168l-.244,4.173,2.8-.319q22.86-2.446,22.974-.437.067,1.146-4.1,1.607-12.958.512-16.584.907l-14.786,1.572a76.03,76.03,0,0,0-14.714,2.881l-4.212-.369-.043-.767q-.095-1.689,12.352-3.354l8.84-.916-2.822-49.842Q2296.291,702.154,2296.9,702.086Z" transform="translate(-2277.866 -701.644)"/>
          </g>
          <g id="组_1359" data-name="组 1359" transform="translate(124.784 9.997)">
            <path id="路径_2123" data-name="路径 2123" d="M2355.1,666.013l.517-.077q10.115-1.045,10.319,2.555l.091,1.61q20.658-2.878,30.58-3.966l11.153-1.154q.29-3.3,1.564-3.415l.66-.134q12-1.248,12.685,10.787,2.474,20.159,2.635,23.049l-1.15.683-1.842.2q-7.467.8-12.4-3.243l-14.554,1.536.615,10.9q19.5-4.052,22.711-4.423l5.683,1.295.027.474q.124,2.181-27.379,5.924l-.849.094.644,11.42q1.225.6,27.638-2.229l-.034-.618q7.7-.861,10.085,2.663l.055,1-.427.023q-16.628,1.8-33.631,2.95-31.291,4.006-46.387,6.9l-5.681-1.247q-.164-2.892,37.887-7.613l-.2-3.411-1.067-7.974-15.734,1.7q-10.139.667-10.247-1.275l-.058-1.042,4.911-.563q6.854-.721,20.9-2.895l-.615-10.852-14.459,1.533-3.487-.279.049.853q.178,8.262-1.9,8.522-7.7.815-10.866-1.334.783-31.513.4-38.244Zm8.159,66.9q2.9.881,3.207,2.052a39.96,39.96,0,0,1-3.429,18.355l-2.459.235q-9.5.2-9.617-1.929-.163-2.89,5.993-8.327Q2360.28,733.271,2363.257,732.913Zm2.879-60.87.365,6.445,3.448-.385q6.9-.724,7.229,5.1.662-.083,2.22,4.772.17,2.984-4.748,3.5-4.294-1.994-6.9-10.307l-1.087.11-.211,8.045.308,5.4,17.293-1.835L2384,692l-1.845-20.859-14.413,1.53Zm9.022,60.291,3.07-.315q6.189-.684,6.614,6.8,1.026,6.408,1.206,9.533l-1.1.682-.571.03q-8.818.358-8.917-1.348l-.625-11.041Zm21.744-2.99q6.237-.683,6.737,8.128,1.117,8.019,1.161,8.777l-1.085.156q-9.452,1.011-9.656-2.639a43.12,43.12,0,0,1-1.054-7.688l-.037-.663Q2392.647,729.775,2396.9,729.344Zm-4.214-59.327.048.853q1.546,16.409,1.724,19.536l1.552.529,3.921-.412q3.357-.332,11.24-.493l-.124-2.18-1.117-7.97-1.086.108q.171,3.034-10.677,7.071c.025.41-.091.621-.345.637l-.754.09q1.5-1.94,4.076-14.492l-.06-1.09.425-.024q5.68-1.273,7.285-1.458l-.136-2.418Zm20.719,59.486,3.641-.349q8.88-.976,17.549,16.121l.1,1.754a4.625,4.625,0,0,1-1.669.759q-10.729,1.131-11.192-7.069Q2413.526,731.637,2413.407,729.5Z" transform="translate(-2348.424 -661.314)"/>
          </g>
          <g id="组_1360" data-name="组 1360" transform="translate(217.362 16.887)">
            <path id="路径_2124" data-name="路径 2124" d="M2485.107,669.9l3.434-.387c1.641-.008,2.479.288,2.512.882l.5,8.866,7.123-.757q3.081-.332,3.373.8l.04.7-2.011.658q-6.891.3-8.42.445-.072,6.081.09,8.921l.034.605,4.227-.463q-.074-1.308,1.93-1.517l1.3-.139q2.465.024,2.513.881l.123,2.2a94.321,94.321,0,0,1-.364,17.3l.635-.068,2.635.172,4.073-.39.156-4.584-.5-8.9-2.767.315q-2.133.217-2.516-.913l-.014-.287,2.04-.66,3.15-.339-.363-6.408-2.321.259-2.92-.123-.055-1.02,2.04-.661,3.149-.337-.463-8.163-5.371.592q-.7.073-.74-.6c.038-.493.257-.761.659-.805l3.528-.392a27.627,27.627,0,0,1,5.11-1.857l.859-.08q2.462-.011,2.514.883l1.479,26.147a31.666,31.666,0,0,0,.713,4.663q-.413.629-.258,3.339l3.21-.342q5.485-.277,5.558.966.044.765-2.827,1.5-31.354,1.584-41.817,2.685a40.257,40.257,0,0,0-7.335,2.113,40.166,40.166,0,0,1-6.066.214,38.244,38.244,0,0,1-5.635,1.022q-2.473-.147-2.512-.849-.057-1.531,9.011-3.005l-1.836-32.429-.614-2.908a7.148,7.148,0,0,1,2.847-1.122,6.45,6.45,0,0,1,3.511.952,40.222,40.222,0,0,0,5.176-2.34l1.719-.161q3.086-.336,3.371.769l.022.446q.094,1.626-9.793,4.426l.51,9.025,8.842-.949c.49.015.746.214.769.6l.04.732-2.9.772-6.649.7q.706,4.471.835,6.8l5.376-.56,2.027.205.059,1.053-2.012.625-5.344.558.528,9.312.578,2.3,18.984-2.034a3.114,3.114,0,0,1,1.566-2.873,135.071,135.071,0,0,0,.952-14.833l-3.722.4a5.035,5.035,0,0,1-2.883,1.634l-2.192.221a2.3,2.3,0,0,1-2.543-1.36,3.519,3.519,0,0,1,.379-1.27q-1.1-11.485-1.533-19.17l-.5-2.018Zm-3.028,47.677.444-.057q3.752-.406,3.916,2.466.344,6.091-13.922,14.031a5.335,5.335,0,0,0-.915-.332q2.99-3.177,6.915-12.354Q2478.327,717.977,2482.079,717.573Zm5.778-21.664q3.089-.337,3.375.768l.293,5.229q.362,6.379-2.086,6.645l-4.327.468c-.485.05-.74-.151-.766-.6a47.451,47.451,0,0,0,.5-7.067l-.149-2.614Q2484.552,696.255,2487.857,695.909Zm12.934,18.78,1.685-.191q5.678.288,13.838,7.694a6.489,6.489,0,0,1,1.934,3.635,5.11,5.11,0,0,1-1.856,3.976l-2.479.267a64.148,64.148,0,0,1-7.412-8.345,12.578,12.578,0,0,0-4.03-2.2q-.047-.828-2.8-3.2l-.02-.35Q2499.617,715.429,2500.791,714.689Z" transform="translate(-2458.542 -669.509)"/>
          </g>
          <g id="组_1361" data-name="组 1361" transform="translate(292.913)">
            <path id="路径_2125" data-name="路径 2125" d="M2583.586,649.518l.85-.1a15.152,15.152,0,0,1,8.089,6.864l.153,2.7q-12.827,16.08-18.737,16.7l.084,1.469,3.216-.324q31.373-5.056,31.288-6.573-.071-1.279,2.635-3,12.373-.6,12.54,2.333l3.71,65.582-.627,4.838-6.664.709a5.427,5.427,0,0,1-5.889-3.279q-6.92-1.272-7.142-5.2l-43.423,4.643.167,2.937-5.625.6q-2.456.282-8.657-.935-1.713-47.916-.87-67.5l7.559-.809q5.621-.6,6.008,6.22l2.364-.229a175.707,175.707,0,0,1,14.571-21.41l-.27-4.786Zm24.444,53.1-44.087,4.684q-.185,13.511.177,19.908l.224,3.933q.455,2.161,2.3,1.962l26.366-2.825a123.654,123.654,0,0,0,18.693-4.005l-1.42-25.068Zm-40.375-21.293-5.152.53,1.245,21.987,43.19-4.583,3.334,1.808-1.424-25.164Q2582.585,679.669,2567.655,681.32Z" transform="translate(-2548.405 -649.423)"/>
          </g>
        </g>
        <g id="组_1363" data-name="组 1363" transform="translate(394.29 10.139)">
          <path id="路径_2126" data-name="路径 2126" d="M2701.866,696.663c1.656,3.636,2.459,3.862,5.467,1.015.792-.752,1.662-1.415,2.507-2.1q3.99-3.231,7.99-6.451c1.4-1.132,2.488-2.466,2.047-4.52a5.321,5.321,0,0,0-7.689-3.883c-4,2.082-4.059,2.141-6.886-1.161-1.776-2.079-3.641-1.672-5.732-.731-1.843.83-3.783,1.444-3.917,5.4.531,1.281,1.379,3.666,2.487,5.9C2699.259,692.378,2700.824,694.377,2701.866,696.663Z" transform="translate(-2695.654 -678.06)" fill="#e61f19"/>
        </g>
      </g>
    </g>
    <path id="路径_2127" data-name="路径 2127" d="M3029.764,747.825a4.788,4.788,0,0,0-2.7-1.027c-10.923-.364-22.08.405-32.88,1.189-10.625.769-21.212,1.676-31.757,2.651q-20.192,1.865-40.106,4.24,12.9-2.379,25.769-4.778c5.5-1.027,13.046-1.888,16.093-4.4.535-.44-1.166-1.521-2.248-1.491-37.05,1.011-72.091,6.779-107.313,11.664-10.188,1.412-20.385,2.814-30.722,3.985-.321.036.157.4.43.375,36.615-3.281,71.661-9.449,108.317-12.631,8.425-.731,16.921-1.287,25.459-1.606a93.243,93.243,0,0,1-10.808,2.215q-9.787,1.8-19.592,3.577-19.619,3.562-39.343,7c-7.556,1.323-15.154,2.6-22.755,3.87-1.368.228,1.378,2.344,3.151,2.093,40.865-5.745,82.522-10.4,124.693-13.64,9.925-.762,19.774-1.559,29.778-1.826a2.559,2.559,0,0,0,1.551.514c1.808-.184,3.7-.3,5.4-.654C3031.123,748.954,3030.03,748.025,3029.764,747.825Z" transform="translate(-263.673 76.653)" fill="#fff" stroke="#231815" stroke-width="0.49"/>
    <g id="组_1367" data-name="组 1367" transform="translate(2489.862 760.215)">
      <g id="组_1366" data-name="组 1366">
        <path id="路径_2128" data-name="路径 2128" d="M2752.281,701.868c-4.181,7.608-12.452,10.818-21.852,12.478a9.894,9.894,0,0,0-.9-2.667,45.825,45.825,0,0,0,10.776-2.8,26.054,26.054,0,0,0-2.318-2.019,33.2,33.2,0,0,1-3.287,1.592,6.867,6.867,0,0,0-1.562-2.061c5.19-1.968,8.8-4.615,10.892-7.107l3.081.454c-.545.595-1.062,1.164-1.653,1.738l4.376-.373.552-.191Zm-2.339-8.577c-3.708,5.8-10.949,9.378-18.121,11.276a8.427,8.427,0,0,0-1.09-2.411,39.3,39.3,0,0,0,7.394-2.444,23.084,23.084,0,0,0-2.179-1.961c-.747.445-1.516.868-2.332,1.273a6.7,6.7,0,0,0-1.775-1.877,26.975,26.975,0,0,0,9.021-6.088l3.056.456q-.689.7-1.451,1.412l5.158-.44.525-.163Zm-10.859,2.427c-.237.188-.5.354-.758.543a14.715,14.715,0,0,1,2.529,2.1,21.1,21.1,0,0,0,4.315-3.159Zm3.045,8.542c-.5.354-1.017.708-1.513,1.06a18.066,18.066,0,0,1,2.622,2.137,16.977,16.977,0,0,0,4.44-3.67Z" transform="translate(-2729.532 -676.272)" fill="#fff"/>
        <path id="路径_2129" data-name="路径 2129" d="M2780.59,698.564s-.1.772-.16,1.11c-.883,6.133-1.446,8.615-2.215,9.515a2.777,2.777,0,0,1-1.781,1.082,15.85,15.85,0,0,1-2.721.3,7.047,7.047,0,0,0-.119-1.468l-.464.04-3.691.315c-2.517.214-3.12-.546-2.879-2.952l.186-1.851c-.293.264-.562.524-.852.764a11.9,11.9,0,0,0-.632-1.185l-.119,1.178-4.107.35-.193,1.923-2.591.221,1.634-16.288,6.7-.571-1.126,11.235a22.814,22.814,0,0,0,3.4-3.89l-1.3.111.865-8.614,11.685-1-.865,8.614-7.285.621c-.26.428-.517.807-.8,1.237ZM2763.864,694l-1.662.142-.886,8.83,1.663-.142Zm12.226,13.65c.44-.514.877-2.222,1.5-6.448l-8.312.709c-.222.281-.442.539-.686.8l.734-.062-.3,3.008a7.768,7.768,0,0,0,3.256-3.951l2.064.2c-.164.419-.376.843-.588,1.266a22.779,22.779,0,0,1,2.374,1.945l-1.558,1.515a19.981,19.981,0,0,0-1.95-1.813,9.148,9.148,0,0,1-2.528,2.243,5.411,5.411,0,0,0-1.082-1.292l-.058.577c-.067.675.03.9.666.851l3.691-.315a11,11,0,0,0,2.021-.339c-.018.431-.026.98-.024,1.458A1.125,1.125,0,0,0,2776.09,707.653Zm-5.806-11.455,6.5-.555.125-1.25-6.5.554Zm.323-3.223,6.5-.554.124-1.228-6.5.554Z" transform="translate(-2733.424 -675.979)" fill="#fff"/>
        <path id="路径_2130" data-name="路径 2130" d="M2796.052,692.8c-1.727,6.587-4.855,11.672-8.531,14.49a7.678,7.678,0,0,0-2.125-2.014,19.978,19.978,0,0,0,6.931-9.892l-5.11.436.291-2.887,6.16-.525.547-.143Zm12.19-1.445c-1.988,1.934-4.314,4.112-6.187,5.631a13.107,13.107,0,0,0,6.793,5.718,16.923,16.923,0,0,0-2.442,2.856,14.671,14.671,0,0,1-7.111-7.645l-.692,6.9c-.166,1.659-.568,2.528-1.6,3.141a11.088,11.088,0,0,1-4.465,1.025,10.574,10.574,0,0,0-.755-3.109c1.34-.066,2.635-.176,3.1-.216.416-.036.577-.192.617-.6l1.885-18.789,3.1-.264-.589,5.87a22.329,22.329,0,0,0,1.033,2.988,50.527,50.527,0,0,0,4.8-5.131Z" transform="translate(-2737.103 -675.588)" fill="#fff"/>
        <path id="路径_2131" data-name="路径 2131" d="M2829.1,698.8c-.187.66-.424,1.324-.653,1.916a12.242,12.242,0,0,1,2.1,1.562l-1.628,1.975a9.822,9.822,0,0,0-1.5-1.28,14.424,14.424,0,0,1-2.255,3.151,10.336,10.336,0,0,0-1.723-1.427,3.8,3.8,0,0,0,.3-.312l-7.407.631-.152,1.517-1.981.168,1.625-16.191,3.4-.29.6-5.942,2.493-.213-.208,2.068,3.838-.327-.221,2.213-3.838.327-.167,1.661,3.544-.3-1.467,14.627a14.319,14.319,0,0,0,2.926-5.734Zm-7.141,3.543.155-1.54-.719.634a12.726,12.726,0,0,0-1.631-2.58,32.178,32.178,0,0,1-2.4,2.948,7.645,7.645,0,0,0-.645-.589l-.158,1.588Zm-5.157-1.993a26.025,26.025,0,0,0,2.417-3.068,18.7,18.7,0,0,0-1.907-2.007l-.138,1.371.315-.242a8.533,8.533,0,0,1,1.2,1.566l-1.028.828a5.185,5.185,0,0,0-.6-1.023Zm.782-7.794-.2,2,.623-.648a16.61,16.61,0,0,1,2.1,1.968c.559-.979,1.1-1.978,1.532-2.945l1.24.2.1-1.034Zm2.007,7.294a9.383,9.383,0,0,1,1.054,1.819l-1.07.759a8.465,8.465,0,0,0-1.02-1.917Zm.214-4.787a8.951,8.951,0,0,0-.988-1.754l1.088-.688a6.766,6.766,0,0,1,1.049,1.627Zm2.358,3.543a7.979,7.979,0,0,0-1.117-1.67l.855-.788a7.552,7.552,0,0,1,.612.664l.323-3.224a37.182,37.182,0,0,1-2.244,4.009,12.8,12.8,0,0,1,1.636,2.053l.12-1.2Zm5.85-8.775c-.524.379-1.043.733-1.585,1.065a10.676,10.676,0,0,0-1.629-1.649,22.419,22.419,0,0,0,6.834-6.283l2.527.667c-.2.279-.369.531-.591.813a15.244,15.244,0,0,0,4.907,2.778,11.958,11.958,0,0,0-1.339,2.713,18.044,18.044,0,0,1-1.905-1.052l-.15,1.491-7.187.612Zm-2.3,2.6,5.255-.448-.586,5.846-5.255.449Zm1.477,3.882,1.394-.118.227-2.261-1.394.118Zm7.155-8.028a25.058,25.058,0,0,1-2.376-1.919,27.849,27.849,0,0,1-2.488,2.334Zm.872,9.921a19.853,19.853,0,0,1-.991,2.875,21.164,21.164,0,0,1,2.571,1.9l-1.953,2.075a11.807,11.807,0,0,0-1.826-1.609,12.512,12.512,0,0,1-1.6,2.14,13.045,13.045,0,0,0-1.922-1.388,13.478,13.478,0,0,0,3.193-6.211Zm-3.465-6.288,5.4-.461-.586,5.846-5.4.46Zm1.477,3.881,1.515-.13.226-2.261-1.515.13Z" transform="translate(-2741.006 -675.175)" fill="#fff"/>
        <path id="路径_2132" data-name="路径 2132" d="M2864.888,699.314l-.272,2.719-15.205,1.3.272-2.718,6.527-.557.482-4.812-4.717.4.268-2.67,4.718-.4.4-3.945-2.688.229a20.037,20.037,0,0,1-1.7,3.437,20.519,20.519,0,0,0-2.461-1.079c.288-.453.579-.931.874-1.458l-1.456.745a14.233,14.233,0,0,0-.653-2.688l-1.648,16.431-2.909.248,1.725-17.2a33.745,33.745,0,0,1-1.739,6.47l-2.074-.586a31.927,31.927,0,0,0,1.825-6.358l2.024.114.492-4.908,2.909-.248-.455,4.547,1.475-.7a22.33,22.33,0,0,1,1.041,2.916,32.844,32.844,0,0,0,1.885-5.98l2.8.143c-.284,1.145-.593,2.293-.946,3.4l1.955-.167.473-4.716,2.909-.248-.473,4.716,4.987-.425-.271,2.695-4.987.425-.4,3.946,4.473-.381-.268,2.669-4.473.381-.482,4.812Z" transform="translate(-2744.859 -674.905)" fill="#fff"/>
        <path id="路径_2133" data-name="路径 2133" d="M2894.482,685.446l-3.177.271-1.156,11.523c-.157,1.564-.532,2.4-1.58,2.949a12.067,12.067,0,0,1-4.478.906,10.53,10.53,0,0,0-.627-2.927c1.263-.036,2.68-.157,3.1-.193.419-.061.575-.168.611-.529l1.151-11.475-2.713.232a25.713,25.713,0,0,1-2.7,4.213,14.818,14.818,0,0,0-2.3-1.522,20.2,20.2,0,0,0,1.77-2.415l-2.958.252-1.5,14.939-2.933.251,1.5-14.939-.244.021a28.633,28.633,0,0,1-2.71,4.309,16.348,16.348,0,0,0-2.489-1.529,29.824,29.824,0,0,0,5.191-10.2l3,.341a43.033,43.033,0,0,1-1.58,4.142l5.55-.473-.172,1.708a35.013,35.013,0,0,0,2.714-6.529l2.852.329c-.479,1.4-.986,2.828-1.581,4.166l7.749-.66Z" transform="translate(-2748.71 -674.607)" fill="#fff"/>
        <path id="路径_2134" data-name="路径 2134" d="M2904.352,688.621c-.319,3.176-1.3,7.91-4.066,11.057a8.252,8.252,0,0,0-2.105-1.73c2.412-2.782,3-6.481,3.263-9.1l.4-3.994,20.217-1.723-.261,2.6-17.308,1.476ZM2921,681.883l-19.092,1.628.546-5.437,2.957-.251-.294,2.934,5.084-.433.372-3.7,3.008-.257-.372,3.7,4.938-.421.294-2.935,3.105-.265Zm-6.428,5.128c-.126.775-.252,1.548-.422,2.279.167,2.681,1.069,5.274,7.283,5.913a11.845,11.845,0,0,0-1.926,2.765c-4.086-.582-6.085-2.152-7.086-4.022-1.444,2.316-3.9,4.075-8.376,5.46a6.244,6.244,0,0,0-1.342-2.319c7.281-2.028,8.093-4.816,8.885-9.821Zm-7.26,6.654a41.691,41.691,0,0,0-2.137-3.825l2.154-1.425c.733,1.155,1.766,2.689,2.252,3.649Zm8.388-1.719a34.3,34.3,0,0,0,2.307-4.155l2.524.691c-.878,1.507-1.834,3.066-2.569,4.107Z" transform="translate(-2752.388 -674.28)" fill="#fff"/>
        <path id="路径_2135" data-name="路径 2135" d="M2937.438,680.748c-1.726,6.587-4.855,11.672-8.531,14.49a7.668,7.668,0,0,0-2.124-2.013,19.982,19.982,0,0,0,6.93-9.892l-5.109.435.29-2.887,6.16-.526.547-.142Zm12.191-1.445c-1.988,1.935-4.315,4.113-6.187,5.632a13.107,13.107,0,0,0,6.793,5.718,16.966,16.966,0,0,0-2.443,2.856,14.671,14.671,0,0,1-7.11-7.646l-.692,6.905c-.167,1.659-.569,2.528-1.6,3.141a11.094,11.094,0,0,1-4.466,1.024,10.6,10.6,0,0,0-.754-3.108c1.339-.066,2.634-.176,3.1-.216.416-.035.577-.193.618-.6l1.885-18.789,3.1-.265-.589,5.87a22.287,22.287,0,0,0,1.033,2.988,50.6,50.6,0,0,0,4.8-5.132Z" transform="translate(-2756.264 -673.954)" fill="#fff"/>
        <path id="路径_2136" data-name="路径 2136" d="M2787.905,736.973a38.7,38.7,0,0,1-2.219,6.414c.464.2.983.585,1.788,1.017,1.591.818,3.921.787,6.805.541a95.364,95.364,0,0,0,10.061-1.477,11.7,11.7,0,0,0-1.088,2.882c-2.014.268-6.456.813-9.341,1.06-3.251.277-5.33.215-7.064-.615-.966-.513-1.793-1.206-2.306-1.162-.464.039-1.408,1.718-2.083,3.135l-1.549-2.445a14.057,14.057,0,0,1,2.263-2.267,28.04,28.04,0,0,0,1.706-4.678l-2.469.211c.634-1.486,1.4-3.53,2.075-5.472l-1.955.167.244-2.43,5.036-.43c-.584,1.72-1.316,3.69-2,5.419l.636-.055.4-.105Zm-2.767-5.989c-.158-1.084-.522-2.771-.759-4.038l2.393-.895c.285,1.263.656,2.878.87,3.885Zm6.656,9.021a7.8,7.8,0,0,1-3.084,3.936,4.369,4.369,0,0,0-1.248-1.562c1.744-1.2,2.377-2.922,2.728-4.979l-2.1.179.193-1.925,3.251-.277a5.206,5.206,0,0,0-.432-.775l.966-.44-3.081.263.706-7.025,2.664-.227c.182-.611.365-1.224.465-1.732l2.909-.009c-.244.5-.514,1.022-.808,1.523l2.47-.21-.577,5.75a26.831,26.831,0,0,0,2.767-7.535l2.384.155c-.251,1.047-.545,2.05-.889,3.056l4.253-.362-.24,2.406-.783.067a32.378,32.378,0,0,1-2.252,6.752c.831,1.623,1.591,3.226,2.071,4.475l-2.16,1.233c-.321-.9-.789-2.031-1.348-3.224a16.7,16.7,0,0,1-4.4,4.478,7.8,7.8,0,0,0-1.057-1.293,2.437,2.437,0,0,1-1.3.66,11.993,11.993,0,0,1-1.911.21,4.511,4.511,0,0,0-.305-1.786,8.065,8.065,0,0,0,1.166-.029.692.692,0,0,0,.532-.236,4.281,4.281,0,0,0,.484-1.687Zm-.361-7.506,3.056-.261.1-.961-3.055.26Zm.261-2.6,3.055-.26.1-.963-3.055.26Zm.843,7.3c-.053.29-.1.557-.158.848l4.034-.344s-.051.5-.1.772a28.719,28.719,0,0,1-.607,3.153,14.485,14.485,0,0,0,3.784-4.378c-.469-.89-.939-1.757-1.414-2.575-.142.2-.256.38-.372.557-.087-.088-.222-.2-.38-.324l-.19,1.9Zm1.143-3.175a8.005,8.005,0,0,1,.591,1.119l3.031-.258a16.172,16.172,0,0,0-1.427-1l.03-.049Zm6.521-3.394a23.118,23.118,0,0,1-1.578,3.165l1.251-.633c.266.478.536.932.825,1.432a26.786,26.786,0,0,0,1.188-4.109Z" transform="translate(-2736.495 -680.866)" fill="#fff"/>
        <path id="路径_2137" data-name="路径 2137" d="M2819.246,724.21a45.285,45.285,0,0,1-2.816,5.129l-1.66,16.552-2.788.238,1.233-12.293c-.609.767-1.237,1.465-1.833,2.088a14.644,14.644,0,0,0-1.266-2.85,32.373,32.373,0,0,0,6.453-9.47Zm3.558,9.953a30.1,30.1,0,0,1-4.131,8.318,14.141,14.141,0,0,0-2.339-1.327,21.2,21.2,0,0,0,3.692-7.326Zm4.492-4.677L2826.06,741.8a3.116,3.116,0,0,1-1.39,2.743,8.67,8.67,0,0,1-3.651.884,8.266,8.266,0,0,0-.713-2.8c1.024-.065,2.05-.152,2.394-.182.317-.027.448-.132.48-.445l1.23-12.27-2.836.242a26.167,26.167,0,0,1-2.667,3.875,15.618,15.618,0,0,0-2.159-1.676,26.438,26.438,0,0,0,5.025-9.014l2.772.383c-.441,1.255-.95,2.467-1.509,3.683l8.41-.718.474-.137,2.015.212c-.489,1.972-1.129,4.245-1.611,5.67l-2.427-.2c.2-.756.445-1.78.673-2.848Zm3.119,3.218a25.222,25.222,0,0,1,1.878,7.614l-2.881,1.176a26.151,26.151,0,0,0-1.675-7.7Z" transform="translate(-2740.453 -680.622)" fill="#fff"/>
        <path id="路径_2138" data-name="路径 2138" d="M2861.563,730.352l-.311,3.1-22.441,1.914.312-3.1Z" transform="translate(-2744.342 -681.597)" fill="#fff"/>
        <path id="路径_2139" data-name="路径 2139" d="M2873.733,737.04a15.376,15.376,0,0,0,4.836.112c1.855-.135,8.333-.687,10.546-1a11.855,11.855,0,0,0-1.385,2.933l-9.436.8c-4.523.386-7.371.032-9.032-2.5a19.782,19.782,0,0,1-1.549,4.328,20.516,20.516,0,0,0-2.321-1.018c1.442-2.532,2.088-6.572,2.55-10.689l2.645-.035c-.131,1.062-.286,2.123-.434,3.114a6.125,6.125,0,0,0,1.088,2.435l.727-7.242-4.743.4.251-2.5,4.131-.353.225-2.238-3.448.295.249-2.477,3.447-.295.234-2.335,2.739-.233-.234,2.335,3.251-.277-.248,2.477-3.25.277-.225,2.238,3.837-.327-.251,2.5-3.3.282-.26,2.6,3.1-.265-.248,2.478-3.1.265Zm8-1.255c-2.738.233-3.536-.509-3.23-3.565l1.324-13.207,9.437-.8-.917,9.142-6.625.565-.407,4.066c-.112,1.107.016,1.287,1.042,1.2l3.154-.269c.929-.08,1.156-.648,1.558-3.211a6.807,6.807,0,0,0,2.432.89c-.661,3.443-1.56,4.665-4,4.873Zm.656-14.51-.418,4.161,3.838-.328.418-4.162Z" transform="translate(-2747.944 -679.951)" fill="#fff"/>
        <path id="路径_2140" data-name="路径 2140" d="M2915.483,724.793a22.524,22.524,0,0,1-6.563,8.169,28.64,28.64,0,0,0,8.213,1.231,16.033,16.033,0,0,0-2.115,2.971,24.542,24.542,0,0,1-9.317-2.067,39.13,39.13,0,0,1-10.33,3.909,7.891,7.891,0,0,0-1.29-2.609,39.848,39.848,0,0,0,9.018-2.916,14.12,14.12,0,0,1-4.019-5.119l1.366-.569-3.2.272.282-2.815,7.676-.654.28-2.791-8.874.756.284-2.839,8.874-.756.316-3.151,3.032-.258-.316,3.151,8.923-.761-.285,2.838-8.923.761-.279,2.791,4.816-.411.523-.139Zm-13.326,2.854a10.133,10.133,0,0,0,4.025,4.092,17.123,17.123,0,0,0,4.9-4.853Z" transform="translate(-2751.832 -679.592)" fill="#fff"/>
        <path id="路径_2141" data-name="路径 2141" d="M2931.234,726.312c-.755.278-1.51.557-2.288.815l-.574,5.725c-.133,1.323-.422,2.04-1.224,2.537a6.675,6.675,0,0,1-3.4.839,8.134,8.134,0,0,0-.494-2.559c.9-.052,1.733-.123,2.029-.173.293-.025.4-.129.432-.443l.5-4.931-2.666.966-.361-2.689c.927-.293,2.053-.652,3.306-1.069l.42-4.186-2.835.241.265-2.644,2.835-.242.454-4.524,2.664-.227-.454,4.524,2-.171-.265,2.645-2,.17-.353,3.514,1.909-.665Zm12.209-1.877,2.69-.229-.26,2.6-2.689.229-.5,4.956c-.143,1.419-.481,2.14-1.479,2.654a11.175,11.175,0,0,1-3.979.769,10.438,10.438,0,0,0-.563-2.6c1.093-.023,2.366-.155,2.76-.212.343-.029.472-.112.506-.448l.49-4.885-8.995.768.26-2.6,9-.768.164-1.634,2.763-.236Zm3.756-9.406-.26,2.6-5.989.511-.191,1.9,4.914-.419-.261,2.6-12.516,1.067.261-2.6,4.84-.412.19-1.9-6.111.521.26-2.6,6.112-.521.265-2.647,2.762-.235-.265,2.647ZM2935.026,727.9a30.242,30.242,0,0,1,2.335,3.785l-2.585,1.6a29.806,29.806,0,0,0-2.145-3.993Z" transform="translate(-2755.776 -679.231)" fill="#fff"/>
        <path id="路径_2142" data-name="路径 2142" d="M2974.573,715.406s-.119.94-.153,1.278c-1.2,9.809-1.767,13.269-2.658,14.417a3.352,3.352,0,0,1-2.1,1.373,19.832,19.832,0,0,1-3.041.354,5.372,5.372,0,0,0-.563-2.6c1.066.006,2.019-.075,2.508-.117a1.038,1.038,0,0,0,.872-.48c.576-.671,1.119-3.674,2.037-11.361l-2.176.185c-.979,6.62-2.571,11.621-7.023,15.172a6.562,6.562,0,0,0-1.609-1.841c-3.484.654-6.988,1.287-9.6,1.749l-.126-2.376c1.355-.21,3.078-.477,4.974-.782l.143-1.419-4.3.367.2-2.045,4.3-.367.087-.866-4.2.359.749-7.458,4.2-.359.1-.963-4.816.411.207-2.068,4.815-.411.09-.891c-1.454.244-2.879.437-4.228.6a6.866,6.866,0,0,0-.406-1.993,75.488,75.488,0,0,0,10.686-2.152l1.132,2c-1.349.4-2.911.75-4.543,1.08l-.113,1.131,4.669-.4-.132,1.323,2.322-.2c.181-1.566.347-3.225.526-5.006l2.786-.237c-.177,1.757-.366,3.417-.551,5.008Zm-18.049,8.862.112-1.107-1.907.163-.11,1.107Zm-1.624-2.653,1.906-.163.108-1.081-1.906.162Zm3.646,8.348c1.431-.242,2.885-.485,4.315-.725,2.143-2.759,3.071-6.2,3.677-10.547l-2.249.191.188-1.876-4.67.4-.1.963,4.352-.372-.749,7.458-4.352.371-.087.866,4.547-.388-.2,2.044-4.547.388Zm.706-7.026-.112,1.107,1.956-.167.111-1.107Zm2.126-1.875.109-1.082-1.957.167-.108,1.081Z" transform="translate(-2759.537 -678.95)" fill="#fff"/>
        <path id="路径_2143" data-name="路径 2143" d="M2989.472,721.754c-.9.315-1.789.678-2.719,1.018l-.859,8.565-2.665.227.78-7.771c-1.358.5-2.619.986-3.773,1.37l-.436-2.658c1.249-.369,2.778-.88,4.487-1.48l.461-4.595-1.637.14a25.47,25.47,0,0,1-1.213,3.156,16.494,16.494,0,0,0-1.92-1.148,33.3,33.3,0,0,0,2.17-7.866l2.379.2c-.194.971-.411,1.919-.654,2.893l1.148-.1.464-4.619,2.664-.226-.463,4.618,2.029-.173-.272,2.719-2.029.174-.389,3.874,2.312-.819Zm14.094-10.528s-.12.964-.178,1.3c-1.542,10.77-2.375,14.727-3.424,16.011a3.415,3.415,0,0,1-2.033,1.413,14.692,14.692,0,0,1-2.77.307,6.937,6.937,0,0,0-.527-2.721,20.43,20.43,0,0,0,2.166-.091,1.257,1.257,0,0,0,.951-.533c.688-.822,1.456-4.131,2.714-12.8l-.122.011c-1.806,6.164-4.951,12.634-9.208,16.168a8.3,8.3,0,0,0-2.2-1.457c4.188-3.1,7.181-8.769,8.968-14.5l-1.149.1c-1.469,4.013-3.955,8.493-6.655,11.014a7.861,7.861,0,0,0-2.063-1.424c2.608-2.082,4.872-5.8,6.3-9.384l-1.247.106a22.792,22.792,0,0,1-2.95,4.519,12.615,12.615,0,0,0-2.039-1.424,24.411,24.411,0,0,0,4.919-9.412l2.593.256c-.356,1.128-.782,2.237-1.231,3.325Z" transform="translate(-2763.449 -678.626)" fill="#fff"/>
        <path id="路径_2144" data-name="路径 2144" d="M3017.561,707.278a45.015,45.015,0,0,1-2.919,5.186l-1.656,16.5-2.762.236,1.24-12.366c-.632.745-1.285,1.445-1.907,2.095a15.168,15.168,0,0,0-1.27-2.8,32.61,32.61,0,0,0,6.672-9.488Zm2.811,14.261a39.291,39.291,0,0,1-4.328,6.189,11.887,11.887,0,0,0-2.095-1.348,27.932,27.932,0,0,0,3.886-5.387Zm4.088-1.85-.847,8.443-2.933.251.847-8.443-6.38.544.26-2.6,6.38-.544.213-2.117-4.791.409.83-8.277,12.834-1.094-.83,8.276-5.11.436-.212,2.116,6.332-.539-.26,2.6Zm-4.235-6.819,7.163-.611.323-3.223-7.163.611Zm7.146,7.287a21.531,21.531,0,0,1,3.083,4.769l-2.435,1.568a24.769,24.769,0,0,0-2.918-4.976Z" transform="translate(-2767.31 -678.333)" fill="#fff"/>
        <path id="路径_2145" data-name="路径 2145" d="M3059.584,707.242l-5.084.433a22.553,22.553,0,0,1,3.927,3.362l-2.362,1.56,1.027-.087-.98,9.768c-.155,1.54-.633,2.2-1.842,2.661a23.74,23.74,0,0,1-5.335.765,7.81,7.81,0,0,0-.441-2.371c1.334-.019,3.339-.19,3.757-.249.491-.067.65-.2.689-.583l.173-1.732c-3.67,1.075-7.36,2.1-10.254,2.924l-.6-2.453c2.056-.437,5.13-1.13,8.357-1.881a34.368,34.368,0,0,0-7.481-1.294l1.027-1.782a32.68,32.68,0,0,1,8.138,1.262l-.915,1.629,1.935-.451.36-3.584-10.927.931-.149,1.491c-.283,2.815-1.116,6.774-3.591,9.466a8.059,8.059,0,0,0-2.227-1.481c2.227-2.384,2.734-5.5,2.963-7.789l.381-3.8,15.425-1.315a13.25,13.25,0,0,0-1.069-1.174c-11.976,1.475-13.421,1.622-14.508,2.073-.091-.541-.4-1.827-.617-2.548a7.345,7.345,0,0,0,2.319-1.367c.285-.191.684-.534,1.187-.958l-4.938.421.252-2.5,7.676-.655a30.629,30.629,0,0,0,2.312-2.51l2.847.856q-.611.66-1.3,1.325l10.121-.863Zm-7.282,2.289c-.475-.341-.925-.684-1.355-.982l1.035-.66-5.207.443c-.9.769-1.771,1.463-2.636,2.109Z" transform="translate(-2771.171 -677.947)" fill="#fff"/>
      </g>
    </g>
    <g id="组_2122" data-name="组 2122" transform="translate(2437.516 489.844) rotate(2)">
      <g id="组_2121" data-name="组 2121" transform="translate(258.633 201.379)">
        <g id="组_2091" data-name="组 2091" transform="translate(56.899)">
          <g id="路径_2380" data-name="路径 2380" transform="translate(-309.05 -201.379)" fill="#1a1311">
            <path d="M 332.0624084472656 219.9228057861328 C 329.6905212402344 219.9229583740234 326.8333129882812 219.3545684814453 323.5701293945312 218.2334289550781 C 321.4766540527344 217.5141448974609 319.9185485839844 216.8038635253906 319.4902648925781 216.6030883789062 L 313.7966918945312 216.8593292236328 L 313.5951538085938 216.8683929443359 L 313.4437866210938 216.7350769042969 C 313.3705749511719 216.6706085205078 311.6348266601562 215.1307983398438 310.2444458007812 212.9169616699219 C 308.350341796875 209.9011383056641 308.0418090820312 207.0984497070312 309.3521423339844 204.8118743896484 C 310.2001037597656 203.3321380615234 312.3982238769531 202.4244079589844 314.0929260253906 201.9234771728516 C 316.3722229003906 201.2497253417969 319.1986083984375 200.8786773681641 322.0513916015625 200.8786773681641 C 326.5030517578125 200.8786773681641 330.6206359863281 201.7575225830078 333.6455993652344 203.3533325195312 C 335.4114990234375 204.2848968505859 336.8087768554688 205.4549865722656 337.7986450195312 206.8310699462891 C 338.895751953125 208.3562622070312 339.4916687011719 210.1343078613281 339.5697937011719 212.1158447265625 C 339.6697387695312 214.6558990478516 339.0777893066406 216.6122131347656 337.8104553222656 217.9304809570312 C 336.5396728515625 219.2523193359375 334.6057434082031 219.9226226806641 332.0624084472656 219.9228057861328 Z" stroke="none"/>
            <path d="M 332.0623779296875 219.4228057861328 C 335.9996032714844 219.4225311279297 339.2918395996094 217.7698974609375 339.0701904296875 212.1355438232422 C 338.5330200195312 198.5124816894531 312.7551574707031 199.8791809082031 309.7859497070312 205.0604705810547 C 306.8200073242188 210.2361755371094 313.7742004394531 216.3598327636719 313.7742004394531 216.3598327636719 L 319.592041015625 216.0980072021484 C 319.592041015625 216.0980072021484 326.4767456054688 219.4231872558594 332.0623779296875 219.4228057861328 M 332.0624389648438 220.4228057861328 C 326.8319091796875 220.4231567382812 320.6748657226562 217.7034912109375 319.3898620605469 217.1081237792969 L 313.4161376953125 217.3769683837891 L 313.1133422851562 217.1103363037109 C 313.0379028320312 217.0439147949219 311.24951171875 215.4574279785156 309.8210144042969 213.1828918457031 C 307.822509765625 210.0008087158203 307.5103759765625 207.0201873779297 308.9183044433594 204.5632781982422 C 309.8487243652344 202.939697265625 312.1687622070312 201.9708557128906 313.951171875 201.4439849853516 C 316.2752380371094 200.7570037841797 319.1519470214844 200.3786773681641 322.0513916015625 200.3786773681641 C 326.5828857421875 200.3786773681641 330.7833251953125 201.2780303955078 333.87890625 202.9110870361328 C 337.7728271484375 204.9653167724609 339.9134826660156 208.1414489746094 340.0694274902344 212.0961456298828 C 340.1748962402344 214.7773895263672 339.5361328125 216.8569030761719 338.1708984375 218.2770080566406 C 336.80224609375 219.7006683349609 334.7470397949219 220.4226226806641 332.0624389648438 220.4228057861328 Z" stroke="none" fill="#fff"/>
          </g>
        </g>
        <g id="组_2092" data-name="组 2092" transform="translate(15.556 37.913)">
          <path id="路径_2381" data-name="路径 2381" d="M288.055,240.328s-5.592-7.389-10.978-4.81-8.641,28.188,4.906,29.727,5.384-19.135,5.384-19.135Z" transform="translate(-272.417 -234.972)" fill="#8e8e8f" stroke="#fff" stroke-width="1.948"/>
        </g>
        <g id="组_2093" data-name="组 2093" transform="translate(15.556 37.913)">
          <path id="路径_2382" data-name="路径 2382" d="M288.055,240.328s-5.592-7.389-10.978-4.81-8.641,28.188,4.906,29.727,5.384-19.135,5.384-19.135Z" transform="translate(-272.417 -234.972)" fill="#1a1311"/>
        </g>
        <g id="组_2094" data-name="组 2094" transform="translate(26.216 11.881)">
          <path id="路径_2383" data-name="路径 2383" d="M287.31,280.215c-3.5-9.877-10.065-34.75,5.136-51.3,20.995-22.848,42.429-16.96,56.243-8.513,13.269,8.112,26.461,14.129,21.631,50.869" transform="translate(-281.735 -211.778)" fill="#fff"/>
          <path id="路径_2384" data-name="路径 2384" d="M287.553,281.46a1.12,1.12,0,0,1-1.173-.742c-3.585-10.109-10.233-35.451,5.369-52.433,9.619-10.471,20.248-15.973,31.6-16.359,8.519-.288,17.284,2.287,26.05,7.643.621.381,1.244.758,1.862,1.131a79.02,79.02,0,0,1,9.182,6.154,30.249,30.249,0,0,1,7.55,8.856,37.259,37.259,0,0,1,4.193,14.088,89.973,89.973,0,0,1-.63,21.748,1.121,1.121,0,0,1-2.222-.292c2.066-15.721,1.017-26.672-3.3-34.454-3.793-6.846-9.69-10.407-15.931-14.181-.623-.374-1.246-.753-1.875-1.135-13.782-8.427-34.484-13.826-54.83,8.318-14.774,16.084-8.351,40.443-4.9,50.169a1.122,1.122,0,0,1-.685,1.429A1.139,1.139,0,0,1,287.553,281.46Z" transform="translate(-281.862 -211.906)" fill="#070203"/>
        </g>
        <g id="组_2096" data-name="组 2096" transform="translate(64.066 26.537)">
          <g id="组_2095" data-name="组 2095">
            <path id="路径_2385" data-name="路径 2385" d="M319.979,237.81a16.427,16.427,0,0,1,10.058,4.822c2.981,3.145,11.491,1.027,11.676-3.132s-4.8-12.535-10.075-13.835c-5.331-1.315-9.5-1.372-14.481,3.234C312.543,233.163,318.282,237.423,319.979,237.81Z" transform="translate(-315.4 -224.893)" fill="#1a1311"/>
          </g>
        </g>
        <g id="组_2098" data-name="组 2098" transform="translate(40.674 46.823)">
          <g id="组_2097" data-name="组 2097">
            <path id="路径_2386" data-name="路径 2386" d="M308.387,248.108a16.409,16.409,0,0,0,3.555,10.571c2.756,3.342-.392,11.53-4.538,11.207s-11.854-6.3-12.5-11.692c-.654-5.454-.2-9.6,4.979-13.977C304.685,240.161,308.207,246.377,308.387,248.108Z" transform="translate(-294.673 -242.867)" fill="#1a1311"/>
          </g>
        </g>
        <g id="组_2100" data-name="组 2100" transform="translate(69.042 32.073)">
          <g id="组_2099" data-name="组 2099">
            <path id="路径_2387" data-name="路径 2387" d="M325.516,230.9a3.263,3.263,0,1,1-4.6-.282A3.261,3.261,0,0,1,325.516,230.9Z" transform="translate(-319.809 -229.798)" fill="#070304"/>
          </g>
        </g>
        <g id="组_2102" data-name="组 2102" transform="translate(70.666 32.242)">
          <g id="组_2101" data-name="组 2101">
            <path id="路径_2388" data-name="路径 2388" d="M323.668,230.414a1.385,1.385,0,1,1-1.951-.118A1.383,1.383,0,0,1,323.668,230.414Z" transform="translate(-321.248 -229.947)" fill="#fff"/>
          </g>
        </g>
        <g id="组_2104" data-name="组 2104" transform="translate(46.589 51.928)">
          <g id="组_2103" data-name="组 2103">
            <path id="路径_2389" data-name="路径 2389" d="M305.619,248.489a3.262,3.262,0,1,1-4.6-.279A3.266,3.266,0,0,1,305.619,248.489Z" transform="translate(-299.914 -247.391)" fill="#070304"/>
          </g>
        </g>
        <g id="组_2106" data-name="组 2106" transform="translate(48.101 51.987)">
          <g id="组_2105" data-name="组 2105">
            <path id="路径_2390" data-name="路径 2390" d="M303.872,247.949a1.5,1.5,0,1,1-2.11-.128A1.5,1.5,0,0,1,303.872,247.949Z" transform="translate(-301.254 -247.443)" fill="#fff"/>
          </g>
        </g>
        <g id="组_2107" data-name="组 2107" transform="translate(94.516 29.268)">
          <path id="路径_2391" data-name="路径 2391" d="M351.178,270.44c1.387-1.955-1.768-12.558-2.845-14.641s-10.078-17.878-.8-20.164c0,0,2.239-6.686,10.11-5.44,0,0,4.262-4.012,9.948-.328,0,0,10.806-5.481,12.724,17.254,0,0,3,16.721,5.12,19.926" transform="translate(-342.253 -227.184)" fill="#1a1311"/>
          <path id="路径_2392" data-name="路径 2392" d="M385.682,268.3a1.13,1.13,0,0,1-1.059-.5c-2.189-3.3-4.98-18.616-5.292-20.351-.006-.034-.012-.072-.015-.106-.922-10.927-3.886-14.784-6.207-16.1a5.51,5.51,0,0,0-4.887-.238,1.113,1.113,0,0,1-1.117-.061c-4.842-3.136-8.418.069-8.566.207a1.121,1.121,0,0,1-.947.289,7.787,7.787,0,0,0-7.04,1.943,8.065,8.065,0,0,0-1.824,2.74,1.114,1.114,0,0,1-.8.736,3.861,3.861,0,0,0-2.837,2.179c-.9,2.021-.922,6.423,4.126,15.906.1.2.185.352.244.464a44.951,44.951,0,0,1,2.44,7.627,33.721,33.721,0,0,1,.818,4.612c.156,1.742,0,2.877-.5,3.574a1.127,1.127,0,0,1-1.842-1.3c.211-.352.336-2.147-.7-6.457a42.2,42.2,0,0,0-2.23-7.02c-.054-.107-.133-.255-.23-.44a56.35,56.35,0,0,1-3.493-7.729c-1.525-4.374-1.761-7.789-.7-10.159a5.938,5.938,0,0,1,3.8-3.291,10.44,10.44,0,0,1,2.146-3.052,9.85,9.85,0,0,1,8.467-2.634,9.347,9.347,0,0,1,2.84-1.439,9.227,9.227,0,0,1,7.545,1.037,7.745,7.745,0,0,1,6.351.516c4.084,2.276,6.571,8.279,7.386,17.846.831,4.628,3.313,16.993,4.941,19.454a1.128,1.128,0,0,1-.315,1.564A1.157,1.157,0,0,1,385.682,268.3Z" transform="translate(-342.381 -227.312)" fill="#070203"/>
        </g>
        <g id="组_2108" data-name="组 2108" transform="translate(101.144 42.343)">
          <path id="路径_2393" data-name="路径 2393" d="M351.682,240.371a1.765,1.765,0,1,1-2.3-1.4A1.913,1.913,0,0,1,351.682,240.371Z" transform="translate(-348.254 -238.898)" fill="#fff"/>
        </g>
        <g id="组_2109" data-name="组 2109" transform="translate(104.423 38.009)">
          <path id="路径_2394" data-name="路径 2394" d="M354.586,236.531a1.765,1.765,0,1,1-2.3-1.4A1.915,1.915,0,0,1,354.586,236.531Z" transform="translate(-351.16 -235.058)" fill="#fff"/>
        </g>
        <g id="组_2110" data-name="组 2110" transform="translate(109.265 35.204)">
          <path id="路径_2395" data-name="路径 2395" d="M358.88,234.045a1.766,1.766,0,1,1-2.306-1.395A1.916,1.916,0,0,1,358.88,234.045Z" transform="translate(-355.45 -232.572)" fill="#fff"/>
        </g>
        <g id="组_2111" data-name="组 2111" transform="translate(115.722 34.876)">
          <path id="路径_2396" data-name="路径 2396" d="M364.6,233.751a1.766,1.766,0,1,1-2.307-1.393A1.915,1.915,0,0,1,364.6,233.751Z" transform="translate(-361.172 -232.281)" fill="#fff"/>
        </g>
        <g id="组_2112" data-name="组 2112" transform="translate(120.806 37.238)">
          <path id="路径_2397" data-name="路径 2397" d="M369.1,235.846a1.766,1.766,0,1,1-2.3-1.395A1.915,1.915,0,0,1,369.1,235.846Z" transform="translate(-365.676 -234.374)" fill="#fff"/>
        </g>
        <g id="组_2113" data-name="组 2113" transform="translate(103.458 55.19)">
          <path id="路径_2398" data-name="路径 2398" d="M351.411,255.127a2.7,2.7,0,1,0-.489-4.036A2.883,2.883,0,0,0,351.411,255.127Z" transform="translate(-350.304 -250.281)" fill="#fff"/>
        </g>
        <g id="组_2114" data-name="组 2114" transform="translate(107.377 43.407)">
          <path id="路径_2399" data-name="路径 2399" d="M370.392,243.676c.546,2-1.978,4.838-3.977,4.789-2.289-.056-2.373-1.86-4.791-.421-1.363.811-1.59,2.406-3.451,2.554-1.613.129-3.862-.678-4.326-2.386-.545-2,2.116-6.805,6.682-8.058S369.842,241.677,370.392,243.676Z" transform="translate(-353.777 -239.84)" fill="#fff"/>
        </g>
        <g id="组_2115" data-name="组 2115" transform="translate(113.946 57.84)">
          <path id="路径_2400" data-name="路径 2400" d="M368.969,255.815a4.572,4.572,0,0,1-5.368,4.508,4.792,4.792,0,0,1-3.68-2.626c-1.2-2.547,1.149-4.116,3.467-4.752C367.285,251.875,368.962,253.7,368.969,255.815Z" transform="translate(-359.598 -252.629)" fill="#fff"/>
        </g>
        <g id="组_2116" data-name="组 2116" transform="translate(61.314 47.171)">
          <path id="路径_2401" data-name="路径 2401" d="M327.08,243.931c1.684,1.861.595,6.739-3.138,10.111s-8.692,3.966-10.376,2.106.32-4.95,3.883-8.5C321.329,243.778,325.4,242.069,327.08,243.931Z" transform="translate(-312.962 -243.176)" fill="#1a1311"/>
        </g>
        <g id="组_2117" data-name="组 2117" transform="translate(62.029 50.781)">
          <path id="路径_2402" data-name="路径 2402" d="M313.6,266.181a8.43,8.43,0,0,0,1.094.481,9.728,9.728,0,0,0,1.125.331,7.718,7.718,0,0,0,1.132.166,5.863,5.863,0,0,0,1.111-.023,5.554,5.554,0,0,0,2.039-.625,6.085,6.085,0,0,0,.886-.579,7.98,7.98,0,0,0,.793-.718,9.209,9.209,0,0,0,.705-.828c.222-.29.431-.6.63-.907s.383-.637.558-.968c.091-.164.175-.332.261-.5s.162-.344.241-.512c.157-.348.31-.693.453-1.048s.281-.71.407-1.074c.067-.178.128-.361.191-.545s.123-.363.183-.546c.12-.368.228-.741.343-1.111a1.145,1.145,0,0,1,.868-.788h0l.266-.051.278-.06c.185-.037.37-.082.556-.126.371-.082.743-.178,1.115-.273.741-.187,1.475-.411,2.2-.642q.545-.171,1.081-.368c.358-.131.712-.262,1.064-.4s.693-.3,1.034-.454.676-.325,1-.5.643-.367.951-.569a9.349,9.349,0,0,0,.879-.648,6.849,6.849,0,0,0,.771-.739,5.1,5.1,0,0,0,.616-.858,4.028,4.028,0,0,0,.4-.978,4.118,4.118,0,0,0,.131-1.077,5.968,5.968,0,0,0-.135-1.13,9.493,9.493,0,0,0-.346-1.131,6.323,6.323,0,0,1,.661,1.012,5.333,5.333,0,0,1,.438,1.166,4.459,4.459,0,0,1,.117,1.282,4.788,4.788,0,0,1-.256,1.294,5.941,5.941,0,0,1-.577,1.184,7.7,7.7,0,0,1-.793,1.032,9.224,9.224,0,0,1-.924.885,11.936,11.936,0,0,1-1,.769c-.346.236-.7.457-1.055.668s-.725.4-1.1.586-.739.362-1.117.523-.755.314-1.138.46-.765.281-1.153.406-.774.249-1.162.363-.785.218-1.181.316c-.2.048-.4.095-.6.14l-.3.065-.315.064.873-.787c-.122.39-.24.789-.373,1.178-.063.2-.132.391-.2.587s-.139.387-.218.582c-.149.387-.311.769-.481,1.152s-.348.758-.546,1.133c-.1.182-.192.371-.3.552s-.208.368-.32.55c-.217.366-.463.714-.716,1.06a11.969,11.969,0,0,1-.822,1,9.83,9.83,0,0,1-.946.906,7.948,7.948,0,0,1-1.079.774,6.868,6.868,0,0,1-1.207.581,6.666,6.666,0,0,1-1.3.331,6.54,6.54,0,0,1-1.318.045,6.725,6.725,0,0,1-1.276-.216,7.154,7.154,0,0,1-1.187-.44,7.647,7.647,0,0,1-1.073-.618A6.188,6.188,0,0,1,313.6,266.181Z" transform="translate(-313.595 -246.374)" fill="#1a1311"/>
        </g>
        <g id="组_2118" data-name="组 2118" transform="translate(69.591 54.612)">
          <path id="路径_2403" data-name="路径 2403" d="M325.45,257.836a1.116,1.116,0,0,1-.965-.383c-.131-.152-3.21-3.718-4.119-6.174a1.122,1.122,0,0,1,2.1-.776,25.037,25.037,0,0,0,3.709,5.484,1.124,1.124,0,0,1-.729,1.85Z" transform="translate(-320.296 -249.769)" fill="#1a1311"/>
        </g>
        <g id="组_2120" data-name="组 2120" transform="translate(0 66.29)">
          <g id="组_2119" data-name="组 2119">
            <path id="路径_2404" data-name="路径 2404" d="M412.652,262.354l-152.78,16.177a1.121,1.121,0,0,1-.236-2.23l152.781-16.178a1.122,1.122,0,0,1,.235,2.231Z" transform="translate(-258.633 -260.117)" fill="#070203"/>
          </g>
        </g>
      </g>
      <path id="路径_2405" data-name="路径 2405" d="M314.018,251.543s-2.68,3.3,2.816,4.19C316.834,255.733,313.125,255.046,314.018,251.543Z" transform="translate(7.037 6.45)" fill="#fff"/>
      <path id="路径_2406" data-name="路径 2406" d="M323.469,263.539s9.807.229,10.349-8.932l-8.161,2.337Z" transform="translate(8.336 6.844)" fill="#1a1311"/>
    </g>
  </g>
</svg>
