<svg xmlns="http://www.w3.org/2000/svg" width="551.615" height="221.641" viewBox="0 0 551.615 221.641">
  <g id="抽iphone文字" transform="translate(-495.729 -410.997)">
    <g id="组_2083" data-name="组 2083" transform="translate(495.729 439.498)">
      <g id="组_2077" data-name="组 2077" transform="translate(0 85.995)">
        <ellipse id="椭圆_375" data-name="椭圆 375" cx="34.216" cy="34.216" rx="34.216" ry="34.216" transform="translate(0 38.713)" fill="#fff"/>
        <g id="组_2075" data-name="组 2075" transform="translate(73.021 0)">
          <g id="组_2074" data-name="组 2074" transform="translate(0)">
            <g id="组_2063" data-name="组 2063" transform="translate(0 35.521)">
              <path id="路径_2349" data-name="路径 2349" d="M7.01,57.9a1.865,1.865,0,0,1-1.857-1.686L1.426,17.674A1.87,1.87,0,0,1,3.1,15.636l9.994-.965c.059,0,.12-.009.178-.009a1.871,1.871,0,0,1,1.859,1.687l3.725,38.544a1.868,1.868,0,0,1-1.678,2.038L7.19,57.9A1.664,1.664,0,0,1,7.01,57.9ZM2.776,14.133A1.867,1.867,0,0,1,.92,12.446L.009,3.011A1.868,1.868,0,0,1,1.687.973L11.68.007C11.742,0,11.8,0,11.862,0a1.867,1.867,0,0,1,1.856,1.686l.911,9.436a1.868,1.868,0,0,1-1.678,2.037l-9.994.966C2.9,14.129,2.837,14.133,2.776,14.133Z" transform="translate(1.866 1.868)" fill="#e61f19"/>
              <path id="路径_2350" data-name="路径 2350" d="M13.727,3.734l.911,9.435-9.994.966L3.733,4.7l9.994-.965M15.143,18.4l3.726,38.543-9.993.967L5.151,19.362l9.992-.967M13.73,0c-.119,0-.241.006-.363.017L3.374.983A3.734,3.734,0,0,0,.017,5.058L.93,14.494A3.72,3.72,0,0,0,2.256,17a3.734,3.734,0,0,0-.821,2.717L5.161,58.265a3.735,3.735,0,0,0,3.715,3.373c.119,0,.239-.006.359-.017l9.993-.966a3.734,3.734,0,0,0,3.357-4.075L18.859,18.037a3.726,3.726,0,0,0-1.328-2.511,3.733,3.733,0,0,0,.822-2.718l-.911-9.435A3.735,3.735,0,0,0,13.73,0Z" transform="translate(0 0)" fill="#fff"/>
            </g>
            <g id="组_2064" data-name="组 2064" transform="translate(20.301 32.292)">
              <path id="路径_2351" data-name="路径 2351" d="M7.009,59.17a1.867,1.867,0,0,1-1.857-1.686L.009,4.277A1.868,1.868,0,0,1,1.687,2.24L18.576.607C22.739.2,26.036,0,28.381,0a20.178,20.178,0,0,1,3.282.209,15.646,15.646,0,0,1,9.067,5.063,18.737,18.737,0,0,1,4.508,11.153,19.614,19.614,0,0,1-1.077,9.29,16.412,16.412,0,0,1-4.427,6.38,17.076,17.076,0,0,1-5.854,3.414,61.256,61.256,0,0,1-11.245,1.9l-5,.483L19.4,56.107a1.868,1.868,0,0,1-1.679,2.037L7.19,59.163Q7.1,59.17,7.009,59.17ZM16.4,25.141l3.9-.377c5.1-.494,6.932-1.115,7.569-1.441a5.1,5.1,0,0,0,2.242-2.156,5.408,5.408,0,0,0,.576-3.186,5.147,5.147,0,0,0-1.548-3.443,5.416,5.416,0,0,0-3.347-1.461c-.276-.025-.607-.036-1-.036-1.378,0-3.487.137-6.267.407l-3.226.311Z" transform="translate(1.867 1.866)" fill="#e61f19"/>
              <path id="路径_2352" data-name="路径 2352" d="M30.248,3.733a18.7,18.7,0,0,1,2.965.181A13.763,13.763,0,0,1,41.221,8.4a16.848,16.848,0,0,1,4.024,10.071A17.7,17.7,0,0,1,44.3,26.88a14.52,14.52,0,0,1-3.919,5.67A15.16,15.16,0,0,1,35.167,35.6,59.294,59.294,0,0,1,24.322,37.42l-6.861.665L19.4,58.152,8.876,59.17,3.733,5.964,20.623,4.331q6.183-.6,9.625-.6M16.588,29.044l5.761-.555q6.221-.6,8.241-1.64a6.954,6.954,0,0,0,3.033-2.933,7.288,7.288,0,0,0,.791-4.25,6.984,6.984,0,0,0-2.136-4.628,7.279,7.279,0,0,0-4.456-1.955q-.469-.043-1.16-.042-2.147,0-6.45.416l-5.083.49,1.459,15.1M30.248,0c-2.439,0-5.705.2-9.986.616L3.374,2.248A3.735,3.735,0,0,0,.017,6.323L5.161,59.529A3.732,3.732,0,0,0,8.876,62.9c.12,0,.24,0,.36-.016l10.527-1.019a3.732,3.732,0,0,0,3.356-4.075L21.536,41.44l3.145-.3A62.124,62.124,0,0,0,36.25,39.174l.075-.024a18.96,18.96,0,0,0,6.5-3.78,18.263,18.263,0,0,0,4.932-7.092,21.434,21.434,0,0,0,1.2-10.166A20.543,20.543,0,0,0,43.973,5.88,17.459,17.459,0,0,0,33.831.234,21.871,21.871,0,0,0,30.248,0ZM19.2,17.3l1.368-.132c2.724-.264,4.771-.4,6.092-.4.431,0,.685.015.823.027a3.588,3.588,0,0,1,2.253.969,3.237,3.237,0,0,1,.962,2.253,3.614,3.614,0,0,1-.362,2.123,3.234,3.234,0,0,1-1.454,1.384c-.228.117-1.648.735-6.894,1.243l-2.044.2L19.2,17.3Z" transform="translate(0 0)" fill="#fff"/>
            </g>
            <g id="组_2065" data-name="组 2065" transform="translate(68.767 28.871)">
              <path id="路径_2353" data-name="路径 2353" d="M7.012,57.9a1.864,1.864,0,0,1-1.858-1.686L.009,3.012A1.869,1.869,0,0,1,1.687.974L11.676.008C11.738,0,11.8,0,11.858,0a1.867,1.867,0,0,1,1.856,1.687l1.47,15.206a15.741,15.741,0,0,1,9.383-4.212c.616-.06,1.23-.091,1.826-.091a15.683,15.683,0,0,1,5.334.9,12.124,12.124,0,0,1,5.3,3.487,14.169,14.169,0,0,1,2.709,4.957,42.52,42.52,0,0,1,1.334,7.988l2.187,22.611a1.868,1.868,0,0,1-1.679,2.038l-9.992.965c-.061.005-.122.009-.182.009a1.867,1.867,0,0,1-1.856-1.687L27.575,33.5c-.5-5.185-.97-6.648-1.149-7.036a3.153,3.153,0,0,0-1.447-1.539A4.156,4.156,0,0,0,23,24.487c-.216,0-.438.011-.668.032A6.332,6.332,0,0,0,18.975,25.8a5.3,5.3,0,0,0-1.838,2.989,21.193,21.193,0,0,0-.146,6.791l1.866,19.31a1.868,1.868,0,0,1-1.679,2.037L7.191,57.9C7.13,57.9,7.07,57.9,7.012,57.9Z" transform="translate(1.866 1.866)" fill="#e61f19"/>
              <path id="路径_2354" data-name="路径 2354" d="M13.721,3.733,15.612,23.3q4.278-6.241,11-6.89.84-.082,1.647-.082a13.761,13.761,0,0,1,4.7.79,10.248,10.248,0,0,1,4.5,2.936,12.244,12.244,0,0,1,2.352,4.309,41.19,41.19,0,0,1,1.26,7.612L43.26,54.581l-9.994.966L31.3,35.185q-.583-6.056-1.311-7.636a5.029,5.029,0,0,0-2.263-2.4,5.952,5.952,0,0,0-2.856-.657c-.273,0-.554.014-.845.041A8.235,8.235,0,0,0,19.7,26.193a7.14,7.14,0,0,0-2.5,4A22.73,22.73,0,0,0,17,37.63l1.866,19.309-9.989.967L3.732,4.7l9.989-.966m0-3.733c-.121,0-.241.006-.364.017L3.372.983A3.732,3.732,0,0,0,.018,5.058L5.161,58.264a3.734,3.734,0,0,0,3.715,3.374c.12,0,.239-.006.36-.017l9.989-.967a3.731,3.731,0,0,0,3.355-4.073L20.713,37.27a18.831,18.831,0,0,1,.095-6.143,3.375,3.375,0,0,1,1.181-1.987,4.52,4.52,0,0,1,2.4-.9c.164-.015.325-.024.483-.024a2.35,2.35,0,0,1,1.095.215,1.306,1.306,0,0,1,.63.668c.046.112.492,1.29.99,6.44l1.968,20.363a3.733,3.733,0,0,0,3.711,3.373c.12,0,.242-.006.363-.018l9.993-.965a3.735,3.735,0,0,0,3.357-4.075L44.789,31.61a44.036,44.036,0,0,0-1.41-8.362,16.051,16.051,0,0,0-3.067-5.609,13.968,13.968,0,0,0-6.091-4.04,17.555,17.555,0,0,0-5.964-1.009c-.655,0-1.331.034-2.008.1a17.552,17.552,0,0,0-7.667,2.549L17.436,3.373A3.732,3.732,0,0,0,13.726,0Z" transform="translate(0 0)" fill="#fff"/>
            </g>
            <g id="组_2066" data-name="组 2066" transform="translate(114.103 37.549)">
              <path id="路径_2355" data-name="路径 2355" d="M21.364,44.23a23.682,23.682,0,0,1-8.695-1.671,18.208,18.208,0,0,1-8.721-7.033A25.88,25.88,0,0,1,.1,23.637,23.222,23.222,0,0,1,1.733,12.695a19.017,19.017,0,0,1,6.92-8.772A22.35,22.35,0,0,1,19.336.123C20.182.042,21.025,0,21.84,0A20.184,20.184,0,0,1,35.323,4.885a21.844,21.844,0,0,1,7.511,15.061,22.083,22.083,0,0,1-4.522,16.376,20.459,20.459,0,0,1-14.646,7.8C22.9,44.193,22.123,44.23,21.364,44.23Zm-.085-32.116q-.365,0-.742.037a6.584,6.584,0,0,0-4.946,2.913c-1.3,1.814-1.8,4.427-1.475,7.77s1.311,5.814,2.939,7.348a6.569,6.569,0,0,0,4.67,1.948c.244,0,.492-.012.74-.036a6.528,6.528,0,0,0,4.924-2.907c1.3-1.818,1.785-4.457,1.456-7.85-.318-3.3-1.3-5.746-2.915-7.277A6.513,6.513,0,0,0,21.278,12.115Z" transform="translate(1.866 1.866)" fill="#e61f19"/>
              <path id="路径_2356" data-name="路径 2356" d="M23.706,3.733A18.292,18.292,0,0,1,35.978,8.171a19.945,19.945,0,0,1,6.864,13.821A20.176,20.176,0,0,1,38.713,37.03a18.57,18.57,0,0,1-13.363,7.1q-1.066.1-2.12.1a21.755,21.755,0,0,1-8.013-1.543A16.313,16.313,0,0,1,7.37,36.362,23.935,23.935,0,0,1,3.829,25.325a21.238,21.238,0,0,1,1.5-10.071,17.088,17.088,0,0,1,6.247-7.928,20.41,20.41,0,0,1,9.8-3.479q1.187-.114,2.325-.114m-.118,32.132q.453,0,.92-.045a8.369,8.369,0,0,0,6.265-3.684q2.357-3.3,1.793-9.109-.547-5.659-3.49-8.453a8.373,8.373,0,0,0-5.935-2.459c-.3,0-.609.015-.92.045a8.43,8.43,0,0,0-6.285,3.687q-2.372,3.3-1.815,9.035t3.515,8.526a8.425,8.425,0,0,0,5.952,2.457M23.706,0c-.875,0-1.778.045-2.685.132A24.2,24.2,0,0,0,9.459,4.253a20.855,20.855,0,0,0-7.593,9.617A25.052,25.052,0,0,0,.114,25.685,27.693,27.693,0,0,0,4.256,38.42a20.056,20.056,0,0,0,9.6,7.745,25.541,25.541,0,0,0,9.373,1.8c.82,0,1.654-.041,2.479-.121a22.268,22.268,0,0,0,15.933-8.5,23.891,23.891,0,0,0,4.915-17.713A23.648,23.648,0,0,0,38.4,5.334,22,22,0,0,0,23.706,0Zm-.118,32.132A4.723,4.723,0,0,1,20.2,30.694c-1.291-1.217-2.085-3.292-2.363-6.171s.1-5.066,1.131-6.5a4.7,4.7,0,0,1,3.612-2.149c.191-.017.38-.027.562-.027a4.68,4.68,0,0,1,3.366,1.433c1.281,1.215,2.069,3.267,2.342,6.1.284,2.933-.092,5.147-1.116,6.583A4.648,4.648,0,0,1,24.151,32.1c-.191.019-.38.027-.562.027Z" transform="translate(0 0)" fill="#fff"/>
            </g>
            <g id="组_2067" data-name="组 2067" transform="translate(159.109 32.845)">
              <path id="路径_2357" data-name="路径 2357" d="M5.592,45.332a1.866,1.866,0,0,1-1.855-1.686L.008,5.1A1.864,1.864,0,0,1,1.688,3.065l9.28-.9a1.7,1.7,0,0,1,.179-.009,1.868,1.868,0,0,1,1.859,1.687l.1,1.021A16.28,16.28,0,0,1,23.328.088C23.933.031,24.539,0,25.129,0a16.26,16.26,0,0,1,5.127.809A12.032,12.032,0,0,1,35.5,4.034a13.282,13.282,0,0,1,2.756,4.752A34.035,34.035,0,0,1,39.554,16l2.317,23.953a1.867,1.867,0,0,1-1.678,2.038l-9.989.968c-.062,0-.121.009-.18.009a1.866,1.866,0,0,1-1.857-1.687l-1.9-19.672c-.5-5.152-1-6.854-1.257-7.411a3.826,3.826,0,0,0-1.585-1.808,3.785,3.785,0,0,0-1.923-.476,5.305,5.305,0,0,0-.538.028,6.08,6.08,0,0,0-3.487,1.466,5.469,5.469,0,0,0-1.844,3.1c-.214.993-.366,3.251.126,8.352l1.69,17.458a1.865,1.865,0,0,1-1.677,2.038l-9.994.966A1.744,1.744,0,0,1,5.592,45.332Z" transform="translate(1.867 1.866)" fill="#e61f19"/>
              <path id="路径_2358" data-name="路径 2358" d="M27,3.733a14.359,14.359,0,0,1,4.541.713,10.176,10.176,0,0,1,4.443,2.705,11.406,11.406,0,0,1,2.37,4.092,32.464,32.464,0,0,1,1.213,6.8L41.879,42l-9.989.968L29.987,23.3q-.6-6.239-1.423-8.013a5.52,5.52,0,0,0-5.2-3.367c-.234,0-.474.012-.719.036a7.964,7.964,0,0,0-4.519,1.9,7.329,7.329,0,0,0-2.454,4.122q-.532,2.462.091,8.927l1.689,17.459-9.992.966L3.732,6.788l9.282-.9.545,5.663q4.311-7.01,11.815-7.74Q26.2,3.733,27,3.733M27,0h0c-.649,0-1.317.034-1.982.1a18.172,18.172,0,0,0-9.139,3.4,3.838,3.838,0,0,0-.488-.483,3.73,3.73,0,0,0-2.373-.852c-.12,0-.239.006-.359.018l-9.281.9A3.73,3.73,0,0,0,.017,7.148L3.745,45.691a3.732,3.732,0,0,0,3.71,3.373,3.586,3.586,0,0,0,.364-.018l9.992-.965a3.733,3.733,0,0,0,3.356-4.075L19.478,26.548c-.511-5.31-.28-7.212-.158-7.783a3.633,3.633,0,0,1,1.234-2.074A4.22,4.22,0,0,1,23,15.668c.126-.012.246-.019.363-.019a1.907,1.907,0,0,1,1,.232,1.934,1.934,0,0,1,.812.964c.059.128.571,1.373,1.1,6.81l1.9,19.675A3.734,3.734,0,0,0,31.89,46.7c.119,0,.241-.006.36-.017l9.99-.968a3.732,3.732,0,0,0,3.354-4.075L43.278,17.688a35.618,35.618,0,0,0-1.389-7.628,15.14,15.14,0,0,0-3.146-5.416A13.878,13.878,0,0,0,32.716.9,18.145,18.145,0,0,0,27,0Z" transform="translate(0 0)" fill="#fff"/>
            </g>
            <g id="组_2068" data-name="组 2068" transform="translate(202.478 29.216)">
              <path id="路径_2359" data-name="路径 2359" d="M19.687,44.162c-5.867,0-10.593-1.992-14.046-5.921C2.559,34.68.722,29.982.169,24.267-.492,17.431.792,11.787,3.985,7.49A17.945,17.945,0,0,1,17.186.118C18,.04,18.81,0,19.587,0a18.007,18.007,0,0,1,12.92,5.028c3.935,3.785,6.26,9.89,6.907,18.149a1.867,1.867,0,0,1-1.682,2l-23,2.222a7.558,7.558,0,0,0,2.141,3.779,5.606,5.606,0,0,0,3.9,1.532q.331,0,.679-.034a4.207,4.207,0,0,0,2.682-1.156,6.421,6.421,0,0,0,1.492-3.45,1.865,1.865,0,0,1,1.834-1.535c.046,0,.092,0,.138,0l10.119.742a1.867,1.867,0,0,1,1.679,2.3,18.645,18.645,0,0,1-5.835,10.077,19.51,19.51,0,0,1-11.12,4.368C21.5,44.116,20.572,44.162,19.687,44.162Zm-.219-32.614c-.184,0-.373.01-.56.028a5.089,5.089,0,0,0-3.836,2.19,6.669,6.669,0,0,0-1.178,3.67L24.824,16.38A6.855,6.855,0,0,0,22.9,12.922,4.987,4.987,0,0,0,19.467,11.549Z" transform="translate(1.867 1.866)" fill="#e61f19"/>
              <path id="路径_2360" data-name="路径 2360" d="M21.454,3.733A16.12,16.12,0,0,1,33.08,8.24q5.42,5.211,6.34,16.949L14.388,27.608a10.493,10.493,0,0,0,3.1,6.829,7.461,7.461,0,0,0,5.146,2.008c.282,0,.566-.014.856-.041a6.044,6.044,0,0,0,3.821-1.693,8.1,8.1,0,0,0,2.012-4.441l10.119.741a16.732,16.732,0,0,1-5.239,9.1,17.612,17.612,0,0,1-10.08,3.926q-1.327.129-2.574.128-8,0-12.643-5.287-4.24-4.9-5.017-12.922-.928-9.585,3.456-15.484A16.087,16.087,0,0,1,19.233,3.842c.757-.073,1.5-.109,2.221-.109M13.963,21.351,28.9,19.909Q28.362,15.493,26,13.394a6.828,6.828,0,0,0-4.671-1.845c-.243,0-.489.012-.739.036a6.922,6.922,0,0,0-5.171,2.958,9.576,9.576,0,0,0-1.46,6.808M21.454,0c-.837,0-1.706.042-2.58.127A19.744,19.744,0,0,0,4.354,8.243C.876,12.924-.529,19,.178,26.313c.591,6.108,2.579,11.156,5.909,15.005,3.843,4.371,9.04,6.577,15.466,6.577.947,0,1.934-.048,2.934-.146a21.318,21.318,0,0,0,12.157-4.813,20.471,20.471,0,0,0,6.433-11.056,3.73,3.73,0,0,0-1.308-3.79A3.724,3.724,0,0,0,43.141,24.9c-.683-8.728-3.2-15.238-7.473-19.349A19.813,19.813,0,0,0,21.454,0ZM18.162,17.2a3.916,3.916,0,0,1,.291-.473,3.194,3.194,0,0,1,2.5-1.422c.126-.012.253-.019.378-.019a3.107,3.107,0,0,1,2.184.9,3.478,3.478,0,0,1,.426.459l-5.783.559ZM19.31,30.883l6.2-.6a3.78,3.78,0,0,1-.817,1.774,2.329,2.329,0,0,1-1.557.631c-.167.016-.332.025-.5.025a3.723,3.723,0,0,1-2.648-1.049,4.305,4.305,0,0,1-.678-.781Z" transform="translate(0 0)" fill="#fff"/>
            </g>
            <g id="组_2069" data-name="组 2069" transform="translate(259.121 9.12)">
              <path id="路径_2361" data-name="路径 2361" d="M18.64,58.125a1.866,1.866,0,0,1-1.858-1.686l-3.33-34.423A36.92,36.92,0,0,1,3.525,28.5,1.867,1.867,0,0,1,.9,26.981L.009,17.727a1.867,1.867,0,0,1,1.1-1.884,27.287,27.287,0,0,0,7.486-5.416,17.112,17.112,0,0,0,4.952-8.22A1.867,1.867,0,0,1,15.175.794L23.284.009C23.344,0,23.4,0,23.465,0a1.87,1.87,0,0,1,1.857,1.687L30.49,55.111a1.868,1.868,0,0,1-1.679,2.038l-9.992.967A1.711,1.711,0,0,1,18.64,58.125Z" transform="translate(1.866 1.865)" fill="#e61f19"/>
              <path id="路径_2362" data-name="路径 2362" d="M25.331,3.733,30.5,57.157l-9.992.967L16.788,19.691a34.435,34.435,0,0,1-12.16,8.976l-.9-9.253a28.946,28.946,0,0,0,8.022-5.778,18.87,18.87,0,0,0,5.468-9.119l8.109-.784m0-3.733a3.513,3.513,0,0,0-.361.018L16.862.8A3.735,3.735,0,0,0,13.6,3.627,15.079,15.079,0,0,1,9.16,10.952,25.5,25.5,0,0,1,2.212,16,3.734,3.734,0,0,0,.017,19.773l.9,9.252a3.731,3.731,0,0,0,5.242,3.047,39.423,39.423,0,0,0,7.645-4.5l2.991,30.911a3.731,3.731,0,0,0,3.715,3.373,3.468,3.468,0,0,0,.359-.017l9.993-.967A3.733,3.733,0,0,0,34.214,56.8L29.046,3.373A3.731,3.731,0,0,0,25.331,0Z" transform="translate(0 0)" fill="#fff"/>
            </g>
            <g id="组_2070" data-name="组 2070" transform="translate(297.387 5.985)">
              <path id="路径_2363" data-name="路径 2363" d="M20.015,58.238A18.179,18.179,0,0,1,1.751,43.281a1.866,1.866,0,0,1,1.419-2.2l9.556-2.133a1.864,1.864,0,0,1,1.406.246,1.873,1.873,0,0,1,.822,1.172,7.715,7.715,0,0,0,2.4,4.479,4.877,4.877,0,0,0,3.173,1.146c.188,0,.38-.01.573-.029a4.894,4.894,0,0,0,3.647-2.139,7.592,7.592,0,0,0,1.143-5.387,6.965,6.965,0,0,0-2.017-4.7,4.6,4.6,0,0,0-3.211-1.323c-.169,0-.338.008-.514.025A15.561,15.561,0,0,0,16.14,33.52a1.866,1.866,0,0,1-2.548-1.8l.3-8.413a1.866,1.866,0,0,1,1.73-1.8c2.212-.159,3.817-.765,4.774-1.8a4.66,4.66,0,0,0,1.156-3.822A4.054,4.054,0,0,0,20.233,13a3.508,3.508,0,0,0-2.367-.8c-.183,0-.373.008-.567.027A4.176,4.176,0,0,0,14.361,13.8,6.916,6.916,0,0,0,13.1,18.156a1.867,1.867,0,0,1-1.866,1.838c-.047,0-.093,0-.141-.006L1.726,19.28A1.868,1.868,0,0,1,.009,17.233,23.291,23.291,0,0,1,2.375,8.54,15.083,15.083,0,0,1,8.025,2.766,19.875,19.875,0,0,1,16.414.108C17.16.036,17.9,0,18.611,0A16.775,16.775,0,0,1,30.1,4.217a14.593,14.593,0,0,1,5.138,9.721A13.348,13.348,0,0,1,31,25.115a13.735,13.735,0,0,1,4.9,3.314,14.88,14.88,0,0,1,3.988,9.094A18.075,18.075,0,0,1,35.6,51.32a19.042,19.042,0,0,1-13.252,6.8C21.557,58.2,20.773,58.238,20.015,58.238Z" transform="translate(1.866 1.866)" fill="#e61f19"/>
              <path id="路径_2364" data-name="路径 2364" d="M20.479,3.733A14.894,14.894,0,0,1,30.73,7.479a12.728,12.728,0,0,1,4.519,8.505q.673,7-6.424,11.9a12.132,12.132,0,0,1,7.59,3.7,12.994,12.994,0,0,1,3.48,7.982,16.211,16.211,0,0,1-3.859,12.422,17.164,17.164,0,0,1-12,6.144q-1.1.1-2.154.105A16.318,16.318,0,0,1,5.443,44.766L15,42.633a9.47,9.47,0,0,0,3.047,5.528,6.732,6.732,0,0,0,4.347,1.56c.246,0,.5-.012.752-.037a6.723,6.723,0,0,0,4.977-2.9,9.438,9.438,0,0,0,1.491-6.663A8.809,8.809,0,0,0,27,34.22a6.442,6.442,0,0,0-4.469-1.81c-.228,0-.458.011-.692.033a17.277,17.277,0,0,0-4.511,1.207l.3-8.415q4.06-.291,6.01-2.4a6.491,6.491,0,0,0,1.644-5.269A5.879,5.879,0,0,0,23.3,13.439a5.341,5.341,0,0,0-3.567-1.233c-.242,0-.491.013-.745.036a6.012,6.012,0,0,0-4.2,2.235A8.666,8.666,0,0,0,13.1,19.993l-9.362-.708a21.366,21.366,0,0,1,2.151-7.991,13.19,13.19,0,0,1,4.967-5.061,17.947,17.947,0,0,1,7.608-2.4q1.033-.1,2.02-.1m0-3.733c-.774,0-1.574.039-2.378.117A21.7,21.7,0,0,0,8.93,3.032,16.929,16.929,0,0,0,2.6,9.523a24.778,24.778,0,0,0-2.58,9.389,3.735,3.735,0,0,0,3.432,4.1l9.363.706c.095.007.188.011.281.011a3.706,3.706,0,0,0,1.21-.2,3.74,3.74,0,0,0-.411,1.579l-.3,8.415a3.734,3.734,0,0,0,5.095,3.608,13.449,13.449,0,0,1,3.508-.967,3.285,3.285,0,0,1,.331-.016,2.7,2.7,0,0,1,1.947.83,5.227,5.227,0,0,1,1.424,3.51,5.845,5.845,0,0,1-.8,4.107,3.009,3.009,0,0,1-2.318,1.38c-.132.012-.264.02-.392.02a2.993,2.993,0,0,1-2-.728,5.961,5.961,0,0,1-1.752-3.435,3.733,3.733,0,0,0-4.458-2.836L4.631,41.122a3.731,3.731,0,0,0-2.84,4.408,20.045,20.045,0,0,0,20.09,16.44c.818,0,1.664-.041,2.512-.123A20.849,20.849,0,0,0,38.9,54.383,19.885,19.885,0,0,0,43.61,39.207a16.7,16.7,0,0,0-4.494-10.2,15.86,15.86,0,0,0-3.258-2.62,14.984,14.984,0,0,0,3.106-10.76A16.4,16.4,0,0,0,33.2,4.682,18.576,18.576,0,0,0,20.479,0ZM16.413,21.7a3.75,3.75,0,0,0,.415-1.655,5.475,5.475,0,0,1,.843-3.2,2.3,2.3,0,0,1,1.679-.891c.126-.012.256-.019.382-.019a1.62,1.62,0,0,1,1.16.353c.157.132.558.468.671,1.637a2.746,2.746,0,0,1-.671,2.378,5.643,5.643,0,0,1-3.538,1.206,3.733,3.733,0,0,0-.942.192Z" transform="translate(0 0)" fill="#fff"/>
            </g>
            <g id="组_2071" data-name="组 2071" transform="translate(354.24 0)">
              <path id="路径_2365" data-name="路径 2365" d="M7.01,59.169a1.863,1.863,0,0,1-1.857-1.686L.009,4.275A1.866,1.866,0,0,1,1.686,2.238L18.572.606C22.734.2,26.032,0,28.378,0a20.052,20.052,0,0,1,3.284.209,15.634,15.634,0,0,1,9.065,5.064,18.709,18.709,0,0,1,4.507,11.149,19.643,19.643,0,0,1-1.074,9.291A16.428,16.428,0,0,1,39.731,32.1a17.107,17.107,0,0,1-5.856,3.413,60.38,60.38,0,0,1-11.24,1.9l-5.006.481L19.39,56.105a1.866,1.866,0,0,1-1.677,2.037L7.189,59.161C7.129,59.166,7.07,59.169,7.01,59.169ZM16.4,25.139l3.9-.377c5.107-.494,6.933-1.115,7.567-1.441a5.1,5.1,0,0,0,2.248-2.157,5.4,5.4,0,0,0,.575-3.185,5.14,5.14,0,0,0-1.551-3.442,5.41,5.41,0,0,0-3.346-1.462c-.271-.024-.6-.035-.992-.035-1.37,0-3.481.137-6.277.405l-3.228.311Z" transform="translate(1.866 1.866)" fill="#e61f19"/>
              <path id="路径_2366" data-name="路径 2366" d="M30.245,3.733a18.758,18.758,0,0,1,2.968.182A13.747,13.747,0,0,1,41.218,8.4q3.411,3.718,4.024,10.068a17.709,17.709,0,0,1-.945,8.408,14.544,14.544,0,0,1-3.919,5.673A15.2,15.2,0,0,1,35.164,35.6a59.5,59.5,0,0,1-10.842,1.82l-6.863.661L19.4,58.151,8.876,59.169,3.733,5.962,20.618,4.33q6.183-.6,9.627-.6m-13.66,25.31,5.76-.556q6.222-.6,8.24-1.639a6.955,6.955,0,0,0,3.037-2.931,7.293,7.293,0,0,0,.79-4.253,6.988,6.988,0,0,0-2.136-4.627,7.285,7.285,0,0,0-4.455-1.955c-.311-.029-.7-.042-1.156-.042q-2.146,0-6.454.414l-5.087.49,1.461,15.1M30.245,0h0c-2.439,0-5.7.2-9.986.614L3.372,2.247A3.73,3.73,0,0,0,.018,6.322L5.161,59.528A3.732,3.732,0,0,0,8.876,62.9a3.535,3.535,0,0,0,.36-.017l10.522-1.018a3.733,3.733,0,0,0,3.355-4.075L21.533,41.439l3.148-.3a62.226,62.226,0,0,0,11.57-1.965l.07-.022a18.956,18.956,0,0,0,6.5-3.776,18.3,18.3,0,0,0,4.937-7.1,21.472,21.472,0,0,0,1.2-10.166A20.541,20.541,0,0,0,43.97,5.878,17.465,17.465,0,0,0,33.83.234,21.891,21.891,0,0,0,30.245,0ZM19.2,17.3l1.37-.133c2.735-.264,4.785-.4,6.1-.4.429,0,.681.015.818.027a3.577,3.577,0,0,1,2.249.968,3.246,3.246,0,0,1,.965,2.254,3.619,3.619,0,0,1-.361,2.124,3.233,3.233,0,0,1-1.451,1.379c-.238.122-1.653.739-6.9,1.247l-2.045.2L19.2,17.3Z" transform="translate(0 0)" fill="#fff"/>
            </g>
            <g id="组_2072" data-name="组 2072" transform="translate(403.729 9.585)">
              <path id="路径_2367" data-name="路径 2367" d="M5.594,44.936a1.87,1.87,0,0,1-1.857-1.687L.009,4.706A1.868,1.868,0,0,1,1.687,2.668l9.279-.9c.06,0,.12-.009.179-.009A1.871,1.871,0,0,1,13,3.407a9.179,9.179,0,0,1,1.3-1.289A9.68,9.68,0,0,1,19.487.066C19.931.022,20.377,0,20.823,0a14.687,14.687,0,0,1,6.42,1.532,1.863,1.863,0,0,1,1,2.12l-2.233,9.194a1.865,1.865,0,0,1-2.69,1.207A7.518,7.518,0,0,0,19.9,13.026c-.13,0-.257,0-.383.017a3.682,3.682,0,0,0-2.316,1,6.325,6.325,0,0,0-1.346,3.465c-.225,1.331-.334,4.584.431,12.508l1.151,11.907a1.867,1.867,0,0,1-1.678,2.037l-9.99.967C5.714,44.932,5.654,44.936,5.594,44.936Z" transform="translate(1.866 1.866)" fill="#e61f19"/>
              <path id="路径_2368" data-name="路径 2368" d="M22.69,3.733A12.774,12.774,0,0,1,28.3,5.079l-2.233,9.192a9.271,9.271,0,0,0-4.292-1.247c-.191,0-.379.01-.562.027a5.525,5.525,0,0,0-3.443,1.523,8.146,8.146,0,0,0-1.88,4.488q-.538,3.166.412,13l1.151,11.907-9.99.966L3.732,6.392l9.28-.9.529,5.481a16.583,16.583,0,0,1,3.79-5.536,7.825,7.825,0,0,1,4.2-1.65c.387-.039.773-.057,1.159-.057M22.69,0c-.506,0-1.017.025-1.52.075a11.521,11.521,0,0,0-6.038,2.347,3.737,3.737,0,0,0-2.118-.66c-.119,0-.24.006-.359.017l-9.28.9A3.735,3.735,0,0,0,.017,6.751L3.745,45.294A3.732,3.732,0,0,0,7.46,48.668a3.505,3.505,0,0,0,.359-.017l9.989-.966a3.733,3.733,0,0,0,3.356-4.075L20.014,31.7c-.785-8.128-.618-11.019-.449-12.018a5.039,5.039,0,0,1,.823-2.454,1.8,1.8,0,0,1,1.182-.466c.065-.006.134-.01.2-.01a5.637,5.637,0,0,1,2.541.81,3.732,3.732,0,0,0,5.377-2.415L31.925,5.96a3.734,3.734,0,0,0-2-4.243A16.539,16.539,0,0,0,22.69,0Z" transform="translate(0 0)" fill="#fff"/>
            </g>
            <g id="组_2073" data-name="组 2073" transform="translate(431.897 6.816)">
              <path id="路径_2369" data-name="路径 2369" d="M21.357,44.232a23.661,23.661,0,0,1-8.69-1.672,18.2,18.2,0,0,1-8.718-7.034A25.876,25.876,0,0,1,.1,23.64,23.265,23.265,0,0,1,1.73,12.7,19.006,19.006,0,0,1,8.656,3.924a22.334,22.334,0,0,1,10.68-3.8C20.182.041,21.023,0,21.837,0A20.192,20.192,0,0,1,35.325,4.887a21.841,21.841,0,0,1,7.508,15.06,22.089,22.089,0,0,1-4.52,16.376,20.472,20.472,0,0,1-14.648,7.8C22.9,44.194,22.12,44.232,21.357,44.232Zm-.08-32.117c-.244,0-.49.012-.741.036a6.588,6.588,0,0,0-4.945,2.914c-1.306,1.816-1.8,4.431-1.478,7.772s1.31,5.814,2.936,7.346a6.571,6.571,0,0,0,4.67,1.948c.244,0,.493-.011.745-.036a6.535,6.535,0,0,0,4.924-2.906c1.295-1.818,1.784-4.458,1.456-7.85-.319-3.3-1.3-5.743-2.917-7.275A6.512,6.512,0,0,0,21.278,12.115Z" transform="translate(1.866 1.866)" fill="#e61f19"/>
              <path id="路径_2370" data-name="路径 2370" d="M23.7,3.733A18.287,18.287,0,0,1,35.98,8.173a19.953,19.953,0,0,1,6.862,13.821,20.2,20.2,0,0,1-4.126,15.039,18.588,18.588,0,0,1-13.363,7.1q-1.069.1-2.128.1a21.693,21.693,0,0,1-8.007-1.543,16.286,16.286,0,0,1-7.845-6.325A23.924,23.924,0,0,1,3.83,25.327a21.3,21.3,0,0,1,1.5-10.072,17.1,17.1,0,0,1,6.252-7.928,20.4,20.4,0,0,1,9.8-3.48q1.184-.114,2.321-.114m-.118,32.132q.456,0,.926-.045a8.381,8.381,0,0,0,6.265-3.683q2.356-3.305,1.792-9.11-.547-5.658-3.493-8.45a8.362,8.362,0,0,0-5.933-2.461c-.3,0-.609.015-.921.045a8.431,8.431,0,0,0-6.283,3.685q-2.372,3.3-1.817,9.038t3.514,8.524a8.419,8.419,0,0,0,5.949,2.457M23.7,0h0c-.874,0-1.775.045-2.679.132A24.188,24.188,0,0,0,9.461,4.255a20.845,20.845,0,0,0-7.6,9.614A25.1,25.1,0,0,0,.114,25.687,27.7,27.7,0,0,0,4.258,38.42a20.037,20.037,0,0,0,9.6,7.745,25.511,25.511,0,0,0,9.366,1.8c.822,0,1.66-.041,2.49-.121a22.271,22.271,0,0,0,15.927-8.494,23.889,23.889,0,0,0,4.915-17.714,23.644,23.644,0,0,0-8.15-16.3A22.008,22.008,0,0,0,23.7,0Zm-.119,32.132A4.721,4.721,0,0,1,20.2,30.694c-1.288-1.215-2.082-3.29-2.361-6.169s.1-5.066,1.133-6.5a4.716,4.716,0,0,1,3.615-2.148c.189-.019.377-.027.558-.027A4.67,4.67,0,0,1,26.5,17.28c1.287,1.219,2.076,3.271,2.349,6.106.284,2.931-.092,5.147-1.118,6.588A4.658,4.658,0,0,1,24.154,32.1c-.195.019-.386.027-.568.027Z" transform="translate(0 0)" fill="#fff"/>
            </g>
          </g>
        </g>
        <g id="组_2076" data-name="组 2076" transform="translate(12.822 52.154)">
          <g id="路径_2371" data-name="路径 2371" transform="translate(0 0)" fill="#e61f19" stroke-linecap="round" stroke-linejoin="round">
            <path d="M 4.121884346008301 44.69982528686523 L 3.84360408782959 43.36765289306641 C 3.608294010162354 42.24114227294922 2.772454023361206 40.49105453491211 2.095434188842773 39.34171295166016 L 0.8482341170310974 37.22441482543945 L 3.301484107971191 37.08289337158203 C 4.496039867401123 37.01398086547852 5.721039295196533 36.89679718017578 6.5068359375 36.81551361083984 L 5.789015769958496 30.2660961151123 C 5.683123588562012 30.30506324768066 5.57781457901001 30.34377098083496 5.473033905029297 30.38228416442871 C 4.675623893737793 30.67539405822754 3.922434091567993 30.95224380493164 3.196734189987183 31.23810386657715 L 1.791744112968445 31.79153442382812 L 1.247714161872864 30.38288497924805 L -0.571125864982605 25.67339324951172 L -1.143425941467285 24.1915340423584 L 0.3687741160392761 23.70505332946777 C 1.756986379623413 23.25846290588379 3.376315116882324 22.69255638122559 4.900835514068604 22.14898490905762 L 4.345890045166016 17.09014701843262 L 0.6860741376876831 17.49161338806152 L -0.8050558567047119 17.65518379211426 L -0.9685459136962891 16.16403388977051 L -1.491055846214294 11.39844417572021 L -1.654585838317871 9.907004356384277 L -0.1630958914756775 9.743854522705078 L 3.497426509857178 9.343452453613281 L 2.781284093856812 2.805694103240967 L 2.617924213409424 1.314344167709351 L 4.109303951263428 1.151254177093506 L 9.045783996582031 0.6114141941070557 L 10.53659439086914 0.448384165763855 L 10.69992446899414 1.939164161682129 L 11.41605949401855 8.475838661193848 L 14.04620456695557 8.187563896179199 L 15.5372142791748 8.024144172668457 L 15.69723892211914 9.483621597290039 L 22.97458457946777 8.685717582702637 L 22.09841346740723 0.68951416015625 L 21.93501472473145 -0.801805853843689 L 23.42635345458984 -0.9649658203125 L 28.23519325256348 -1.491095781326294 L 29.72605323791504 -1.654215812683105 L 29.88941383361816 -0.1633758246898651 L 30.76556777954102 7.832584381103516 L 39.01680374145508 6.928384304046631 L 40.50785446166992 6.764984130859375 L 40.67127227783203 8.256033897399902 L 43.97888565063477 38.4343147277832 L 44.14231491088867 39.92539596557617 L 42.6512336730957 40.08880233764648 L 37.58562469482422 40.64397430419922 L 36.09476470947266 40.80736541748047 L 35.93115234375 39.31653594970703 L 35.78862762451172 38.01776885986328 L 24.9056339263916 39.21024322509766 L 25.08060455322266 40.80988311767578 L 25.2436637878418 42.30066299438477 L 23.75291442871094 42.46405410766602 L 18.85931396484375 43.00040435791016 L 17.36817359924316 43.16383361816406 L 17.20481491088867 41.67268371582031 L 15.53355121612549 26.41697692871094 L 13.4720287322998 27.24035263061523 L 14.4996337890625 36.62420272827148 C 14.74873924255371 38.88861083984375 14.67861652374268 41.18460464477539 12.50528812408447 42.64341354370117 C 10.94230461120605 43.77251052856445 8.824573516845703 44.18620300292969 5.47477388381958 44.55206298828125 L 4.121884346008301 44.69982528686523 Z M 23.64010810852051 27.66165924072266 L 24.04263496398926 31.33356475830078 L 25.43909072875977 31.18087196350098 L 25.03684043884277 27.50887489318848 L 23.64010810852051 27.66165924072266 Z M 32.82786178588867 26.65476036071777 L 33.23010635375977 30.32667541503906 L 34.92606353759766 30.14082145690918 L 34.52354049682617 26.46896362304688 L 32.82786178588867 26.65476036071777 Z M 22.4361629486084 16.67223930358887 L 22.79096031188965 19.91507148742676 L 24.18902778625488 19.76183319091797 L 23.83345985412598 16.51899528503418 L 22.4361629486084 16.67223930358887 Z M 12.26452445983887 16.22255325317383 L 12.60084819793701 19.28903007507324 L 14.66706657409668 18.50749015808105 L 14.39129161834717 15.99014759063721 L 12.26452445983887 16.22255325317383 Z M 31.62294769287109 15.66595649719238 L 31.97851181030273 18.90857315063477 L 33.67544555664062 18.72269439697266 L 33.31962585449219 15.48004341125488 L 31.62294769287109 15.66595649719238 Z" stroke="none"/>
            <path d="M 5.311913967132568 43.06093597412109 C 8.273504257202148 42.73747253417969 10.32018375396729 42.38273239135742 11.64791393280029 41.41223526000977 C 12.9841136932373 40.52762603759766 13.27778434753418 39.23492431640625 13.00854396820068 36.78749465942383 L 11.85682392120361 26.27025413513184 L 16.3520450592041 24.474853515625 L 15.19982433319092 19.90969467163086 L 11.32084369659424 21.37690353393555 L 10.60986423492432 14.89444446563721 L 14.73215389251709 14.44397449493408 L 14.20963382720947 9.678634643554688 L 10.08834457397461 10.13034439086914 L 9.208844184875488 2.102524280548096 L 4.272364139556885 2.642364263534546 L 5.151864051818848 10.67143440246582 L 4.113769591640448e-06 11.23496437072754 L 0.5225141048431396 16.00055503845215 L 5.673384189605713 15.43552398681641 L 6.520974159240723 23.16208457946777 C 4.429913997650146 23.91357421875 2.464004039764404 24.60672378540039 0.8281441330909729 25.13298416137695 L 2.646984100341797 29.84247398376465 C 4.021574020385742 29.3010139465332 5.486413955688477 28.79346466064453 7.0699143409729 28.1850643157959 L 8.072073936462402 37.32883453369141 C 8.137884140014648 37.92975234985352 7.947423934936523 38.16857528686523 7.346134185791016 38.23451232910156 C 6.787724018096924 38.29534530639648 5.071094036102295 38.48330307006836 3.387874126434326 38.58040237426758 C 4.133264064788818 39.8458137512207 5.03719425201416 41.74579238891602 5.311913967132568 43.06093597412109 M 18.69589424133301 41.50933456420898 L 23.5894947052002 40.97298431396484 L 23.2514533996582 37.88251495361328 L 37.11607360839844 36.36333465576172 L 37.42220306396484 39.15290451049805 L 42.48781585693359 38.59773254394531 L 39.18020248413086 8.419454574584961 L 29.43787384033203 9.487053871154785 L 28.39833450317383 4.172363333054818e-06 L 23.5894947052002 0.526134192943573 L 24.6290340423584 10.01330375671387 L 15.35687446594238 11.0299243927002 L 18.69589424133301 41.50933456420898 M 26.36460494995117 25.85468482971191 L 27.09354400634766 32.50890350341797 L 22.71497344970703 32.98767471313477 L 21.98554420471191 26.33369445800781 L 26.36460494995117 25.85468482971191 M 35.85116577148438 24.81451416015625 L 36.58059310913086 31.46848487854004 L 31.90237426757812 31.98115348815918 L 31.1734447479248 25.32705497741699 L 35.85116577148438 24.81451416015625 M 25.16102409362793 14.86440372467041 L 25.84358406066895 21.08946418762207 L 21.46303367614746 21.56960487365723 L 20.78196334838867 15.34466457366943 L 25.16102409362793 14.86440372467041 M 34.6470832824707 13.82560443878174 L 35.33014297485352 20.0504150390625 L 30.65093421936035 20.56296348571777 L 29.96837425231934 14.3382740020752 L 34.6470832824707 13.82560443878174 M 5.309196472167969 46.06113433837891 C 3.905449390411377 46.06113433837891 2.668381214141846 45.07740020751953 2.375304222106934 43.67436599731445 C 2.208844184875488 42.87748336791992 1.532894134521484 41.34214401245117 0.8029941320419312 40.10303497314453 C 0.2722841203212738 39.20208358764648 0.2489741146564484 38.08980560302734 0.7414740920066833 37.16741561889648 C 1.233964085578918 36.24501419067383 2.171194076538086 35.64560317993164 3.215104103088379 35.58538436889648 C 3.768610715866089 35.55345153808594 4.330204010009766 35.51075744628906 4.849963188171387 35.46618270874023 L 4.507384300231934 32.34046173095703 C 4.249099254608154 32.43816375732422 3.995614051818848 32.53559494018555 3.746474027633667 32.63373565673828 C 3.002954721450806 32.92660903930664 2.173314332962036 32.91073608398438 1.441544055938721 32.58963394165039 C 0.7097641229629517 32.26853561401367 0.1363441199064255 31.66875457763672 -0.1515558809041977 30.92329406738281 L -1.970395922660828 26.21380424499512 C -2.26779580116272 25.44375419616699 -2.234755992889404 24.58518409729004 -1.879045844078064 23.84027481079102 C -1.523345828056335 23.0953540802002 -0.8764159083366394 22.5299243927002 -0.09059588611125946 22.27712440490723 C 0.945792555809021 21.9437198638916 2.11657452583313 21.54155540466309 3.280274629592896 21.13193321228027 L 3.018405914306641 18.74476051330566 L 0.8496441245079041 18.98266410827637 C 0.05870390310883522 19.06942939758301 -0.7342959642410278 18.83842468261719 -1.354905843734741 18.34048461914062 C -1.975515842437744 17.84254455566406 -2.372895956039429 17.11845397949219 -2.45961594581604 16.32752418518066 L -2.982125997543335 11.56193447113037 C -3.068856000900269 10.77089405059814 -2.837745904922485 9.977794647216797 -2.339635848999023 9.357184410095215 C -1.841535925865173 8.736564636230469 -1.117265939712524 8.33928394317627 -0.3262058794498444 8.252754211425781 L 1.842990040779114 8.01547908782959 L 1.290204167366028 2.969024181365967 C 1.203554153442383 2.178014278411865 1.434724092483521 1.384984135627747 1.932844161987305 0.7644341588020325 C 2.430954217910767 0.1438841670751572 3.155214071273804 -0.2533558309078217 3.946234226226807 -0.339855819940567 L 8.88271427154541 -0.8796958327293396 C 10.52950859069824 -1.05978524684906 12.01058387756348 0.1290437281131744 12.19100379943848 1.775814175605774 L 12.74377346038818 6.821334362030029 L 13.88278388977051 6.696494102478027 C 14.97343063354492 6.576955795288086 15.99163627624512 7.05799674987793 16.6074047088623 7.874833583831787 L 21.32014274597168 7.358118534088135 L 20.60734367370605 0.8528941869735718 C 20.52067375183105 0.06189417093992233 20.75180435180664 -0.7311258316040039 21.24989318847656 -1.351695775985718 C 21.74797439575195 -1.972265839576721 22.47220420837402 -2.369525909423828 23.26321411132812 -2.456065893173218 L 28.07205390930176 -2.982195854187012 C 29.7188835144043 -3.162372589111328 31.20003509521484 -1.973567843437195 31.38048362731934 -0.3267658352851868 L 32.09325408935547 6.178107261657715 L 38.85341262817383 5.437304019927979 C 40.50038909912109 5.256828308105469 41.98183059692383 6.445634365081787 42.16234588623047 8.092604637145996 L 45.46995544433594 38.2708854675293 C 45.55664443969727 39.06180572509766 45.32558441162109 39.85476303100586 44.82761383056641 40.47531509399414 C 44.32965469360352 41.09587478637695 43.60556411743164 41.49319458007812 42.81464385986328 41.57987594604492 L 37.7490348815918 42.13504409790039 C 36.16676330566406 42.30845642089844 34.73716354370117 41.21795272827148 34.46725845336914 39.67152404785156 L 26.55980110168457 40.5379638671875 L 26.57170486450195 40.64678573608398 C 26.75183486938477 42.29356384277344 25.56308364868164 43.77464294433594 23.91634368896484 43.95512390136719 L 19.02274322509766 44.49147415161133 C 18.2318172454834 44.57815551757812 17.43882369995117 44.34709548950195 16.8182544708252 43.84909439086914 C 16.19769477844238 43.35110473632812 15.80038452148438 42.62697601318359 15.7137336730957 41.83603286743164 L 15.62948799133301 41.0670166015625 C 15.18739986419678 42.21216201782227 14.42692089080811 43.15449523925781 13.36228466033936 43.87470626831055 C 11.34690952301025 45.31917572021484 8.670234680175781 45.71198654174805 5.63763427734375 46.04320526123047 C 5.527453899383545 46.05523681640625 5.417745113372803 46.06113433837891 5.309196472167969 46.06113433837891 Z" stroke="none" fill="#fff"/>
          </g>
        </g>
      </g>
      <g id="组_2082" data-name="组 2082" transform="translate(9.503 0)">
        <g id="组_2079" data-name="组 2079" transform="translate(0 9.321)">
          <g id="组_2078" data-name="组 2078" transform="translate(0 0)">
            <path id="路径_2372" data-name="路径 2372" d="M51.459,15.71,1.545,20.618,0,4.907,49.917,0ZM41.01,47.311c6.614,1.589,13.772,3.508,18.2,4.986l-7.4,4.76a130.169,130.169,0,0,0-18.731-5.771L37.4,47.665l-16.978,1.67,5.559,1.885C20.814,55.307,12.766,59.3,6.294,61.786A50.216,50.216,0,0,0,.356,56.679,75.83,75.83,0,0,0,17.506,49.62l-9.627.948L5.138,22.7l43.138-4.241,2.739,27.873ZM15,9.126l-7.473.737.43,4.37,7.472-.735ZM13.449,29.809l27.683-2.721-.307-3.1L13.143,26.706Zm.746,7.6L41.878,34.69l-.312-3.169L13.884,34.242Zm.754,7.662,27.683-2.722-.317-3.232L14.631,41.841ZM28.931,7.756l-7.662.755.43,4.368,7.661-.753ZM43.124,6.364l-7.918.778.428,4.37,7.918-.778Z" transform="translate(0 38.879)" fill="#fff"/>
            <path id="路径_2373" data-name="路径 2373" d="M59.5,17.286l-8.235.81,2.982,30.343c.405,4.117-.147,6.344-2.622,7.809-2.413,1.512-6.325,2.027-11.33,2.518a32.374,32.374,0,0,0-3.185-7.682c3.312-.138,6.986-.5,8.063-.6,1.073-.165,1.427-.455,1.334-1.407L43.541,18.855l-7.032.692A53.791,53.791,0,0,1,31.6,30.711a49.807,49.807,0,0,0-6.849-3.929,41.369,41.369,0,0,0,3.4-6.413l-7.665.754L24.35,60.462l-7.6.746L12.882,21.87l-.632.062A60.086,60.086,0,0,1,7.36,33.352,54.752,54.752,0,0,0,0,29.4C4.349,22.9,7.23,12.513,8.349,2.424l8.075.8a98.085,98.085,0,0,1-2,10.942l14.381-1.414.441,4.5A78.725,78.725,0,0,0,32.991,0l7.687.78c-.532,3.7-1.122,7.466-1.988,11L58.771,9.81Z" transform="translate(60.03 32.019)" fill="#fff"/>
            <path id="路径_2374" data-name="路径 2374" d="M11.383,32.544c.824,8.365.706,20.847-4.931,29.2A28.671,28.671,0,0,0,0,57.26c4.9-7.383,4.519-17.135,3.841-24.039L2.808,22.706l52.385-5.15.673,6.841L11.017,28.806Zm40.355-18.23L2.266,19.176.859,4.862,8.525,4.11l.757,7.724L22.458,10.54,21.5.785,29.292.02l.959,9.753,12.8-1.259L42.286.789,50.331,0ZM37.479,27.995c.073,2.041.146,4.077.078,6.006C39.4,41.044,43.141,47.841,59.85,49.334a24.491,24.491,0,0,0-3.628,7.326C45.148,55.253,39.055,51.186,35.439,46.3c-2.594,6.139-8.145,10.84-19.22,14.62a21.191,21.191,0,0,0-4.755-6.057C29.595,49.3,30.28,41.94,29.751,28.753ZM21.822,45.719c-1.659-2.588-5.083-6.856-7.632-9.995l4.933-3.81c2.537,3.012,6.062,7.009,7.846,9.523Zm21.215-4.773a73.679,73.679,0,0,0,3.906-11l7.015,1.741c-1.526,3.985-3.232,8.117-4.622,10.877Z" transform="translate(126.333 25.783)" fill="#fff"/>
            <path id="路径_2375" data-name="路径 2375" d="M22.453,18.005c-1.105,17.374-6.689,30.849-14.9,38.373A26.577,26.577,0,0,0,.895,51.146c6.8-5.655,11.393-14.875,13.092-26.228L.748,26.218,0,18.615l15.963-1.569,1.368-.392Zm31.379-4.168c-4.227,5.147-9.222,10.942-13.366,15a44.943,44.943,0,0,0,20.9,14.831,34.309,34.309,0,0,0-4.947,7.586C47.024,47.38,39.547,40.31,33.68,31.357l1.787,18.181c.43,4.37-.176,6.67-2.572,8.314-2.339,1.569-6.1,2.324-11.237,2.831a32.989,32.989,0,0,0-3.612-8.156c3.5-.212,6.852-.541,8.057-.659,1.077-.106,1.418-.526,1.314-1.6L22.551.791,30.6,0l1.519,15.457a72.828,72.828,0,0,0,4.287,7.83A101.794,101.794,0,0,0,46.386,9.643Z" transform="translate(188.34 19.578)" fill="#fff"/>
            <path id="路径_2376" data-name="路径 2376" d="M21.341,1.607a90.045,90.045,0,0,1-5,13.541L20.611,58.6l-7.474.734L9.949,26.9a64.363,64.363,0,0,1-4.79,6.55A55.327,55.327,0,0,0,0,25.9C5.834,19.5,11.012,9.721,13.636,0ZM45.26,30.853l1.55,15.77,14.947-1.468.71,7.223L25.222,56.039l-.711-7.224,14.633-1.438-1.55-15.769-16.34,1.606-.717-7.287,16.341-1.606L35.521,10.512,22.6,11.784l-.7-7.093L56.425,1.3l.7,7.093L43.186,9.758l1.359,13.808L60.887,21.96l.716,7.286Z" transform="translate(249.709 15.597)" fill="#fff"/>
            <path id="路径_2377" data-name="路径 2377" d="M19.117,3.891a107.735,107.735,0,0,1-4.88,14.1L18.471,61.07l-7.158.7L8.18,29.91c-1.113,1.707-2.22,3.417-3.353,4.935A51.559,51.559,0,0,0,0,27.387C5.015,21.138,9.517,11.614,11.735,2.316ZM60.981,35.465,44.765,37.058l2.091,21.285-7.6.748L37.161,37.807l-17.1,1.681-.722-7.35L36.44,30.456,35.37,19.562l-7.729.76a44.96,44.96,0,0,1-3.123,8.555,48.565,48.565,0,0,0-6.881-2.964c2.935-5.28,4.742-13.583,5.44-21.453l7.433.8c-.263,2.522-.661,4.992-1.121,7.464l5.258-.518L33.52.748,41.123,0,42.25,11.463l13.234-1.3.724,7.35-13.237,1.3,1.07,10.9,16.215-1.593Z" transform="translate(385.444 0)" fill="#fff"/>
          </g>
        </g>
        <g id="组_2081" data-name="组 2081" transform="translate(324.633 0)">
          <g id="组_2080" data-name="组 2080" transform="translate(0)">
            <path id="路径_2378" data-name="路径 2378" d="M51.115,60.463l.158,13.5L0,78.971a37.712,37.712,0,0,1,4.827-15q4.086-7.256,16.237-19.789,9.781-10.125,11.984-13.6A17.172,17.172,0,0,0,35.963,21.4q-.056-4.867-2.716-7.22t-7.3-1.9A10.691,10.691,0,0,0,18.7,15.73q-2.677,3-3.019,9.4L1.091,25.11Q2.25,12.981,9.061,7.086T26.177.187Q37.473-.918,44,4.5a18.115,18.115,0,0,1,6.63,14.422,27.323,27.323,0,0,1-1.735,9.93,44.219,44.219,0,0,1-5.743,10.271,105.606,105.606,0,0,1-9.463,10.606q-6.851,6.991-8.674,9.237A28.52,28.52,0,0,0,22.068,63.3Z" fill="#fff"/>
          </g>
        </g>
      </g>
    </g>
    <path id="路径_2379" data-name="路径 2379" d="M17.745,27.888H.5V24.467l8.138-8.674a20.077,20.077,0,0,0,2.48-3.2,5.136,5.136,0,0,0,.8-2.592,3.843,3.843,0,0,0-.847-2.635,3.056,3.056,0,0,0-2.419-.959,3.3,3.3,0,0,0-2.67,1.166,4.62,4.62,0,0,0-.976,3.067H0a8.248,8.248,0,0,1,1.1-4.2A7.733,7.733,0,0,1,4.2,3.465a9.427,9.427,0,0,1,4.544-1.08,8.926,8.926,0,0,1,6.039,1.866,6.6,6.6,0,0,1,2.151,5.27,8.459,8.459,0,0,1-.968,3.8,21.125,21.125,0,0,1-3.318,4.51l-5.719,6.03H17.745Zm19.992-10.4q0,5.218-2.16,7.983a7.539,7.539,0,0,1-6.324,2.765,7.592,7.592,0,0,1-6.289-2.713q-2.177-2.713-2.229-7.775V13.115q0-5.27,2.186-8a7.6,7.6,0,0,1,6.3-2.73,7.6,7.6,0,0,1,6.289,2.7q2.177,2.7,2.229,7.767ZM32.743,12.4a9.213,9.213,0,0,0-.855-4.558,2.89,2.89,0,0,0-2.67-1.427,2.839,2.839,0,0,0-2.6,1.358,8.621,8.621,0,0,0-.89,4.246v6.123a9.671,9.671,0,0,0,.838,4.575,2.852,2.852,0,0,0,2.687,1.5A2.8,2.8,0,0,0,31.9,22.773a9.439,9.439,0,0,0,.847-4.393ZM58.351,27.888H41.106V24.467l8.138-8.674a20.077,20.077,0,0,0,2.48-3.2,5.136,5.136,0,0,0,.8-2.592,3.843,3.843,0,0,0-.847-2.635,3.056,3.056,0,0,0-2.419-.959,3.3,3.3,0,0,0-2.67,1.166,4.62,4.62,0,0,0-.976,3.067H40.605a8.248,8.248,0,0,1,1.1-4.2,7.733,7.733,0,0,1,3.1-2.981,9.427,9.427,0,0,1,4.544-1.08,8.926,8.926,0,0,1,6.039,1.866,6.6,6.6,0,0,1,2.151,5.27,8.459,8.459,0,0,1-.968,3.8,21.125,21.125,0,0,1-3.318,4.51l-5.719,6.03H58.351Zm20.3,0H61.409V24.467l8.138-8.674a20.078,20.078,0,0,0,2.48-3.2A5.136,5.136,0,0,0,72.83,10a3.843,3.843,0,0,0-.847-2.635,3.056,3.056,0,0,0-2.419-.959,3.3,3.3,0,0,0-2.67,1.166,4.62,4.62,0,0,0-.976,3.067H60.908a8.248,8.248,0,0,1,1.1-4.2,7.733,7.733,0,0,1,3.1-2.981,9.427,9.427,0,0,1,4.544-1.08A8.926,8.926,0,0,1,75.69,4.251a6.6,6.6,0,0,1,2.151,5.27,8.459,8.459,0,0,1-.968,3.8,21.126,21.126,0,0,1-3.318,4.51l-5.719,6.03H78.653Zm4.838,2.16H79.776L89.038,2.731h3.715Zm28.372-12.562q0,5.218-2.16,7.983a8.631,8.631,0,0,1-12.614.052q-2.177-2.713-2.229-7.775V13.115q0-5.27,2.186-8a8.648,8.648,0,0,1,12.588-.026q2.177,2.7,2.229,7.767ZM106.869,12.4a9.212,9.212,0,0,0-.855-4.558,2.89,2.89,0,0,0-2.67-1.427,2.839,2.839,0,0,0-2.6,1.358,8.622,8.622,0,0,0-.89,4.246v6.123a9.671,9.671,0,0,0,.838,4.575,2.852,2.852,0,0,0,2.687,1.5,2.8,2.8,0,0,0,2.644-1.435,9.439,9.439,0,0,0,.847-4.393ZM131.63,9.417a5.852,5.852,0,0,1-.916,3.248,6.591,6.591,0,0,1-2.523,2.264,7.3,7.3,0,0,1,2.9,2.428,6.227,6.227,0,0,1,1.071,3.637,6.594,6.594,0,0,1-2.281,5.3,10.877,10.877,0,0,1-12.423-.009,6.578,6.578,0,0,1-2.3-5.287,6.267,6.267,0,0,1,1.071-3.646,7.164,7.164,0,0,1,2.886-2.419,6.524,6.524,0,0,1-2.514-2.264,5.893,5.893,0,0,1-.907-3.248,6.521,6.521,0,0,1,2.143-5.123,9.857,9.857,0,0,1,11.637-.017A6.5,6.5,0,0,1,131.63,9.417Zm-4.475,11.214A3.623,3.623,0,0,0,126.2,18a3.8,3.8,0,0,0-5.1-.009,3.616,3.616,0,0,0-.95,2.635,3.614,3.614,0,0,0,.933,2.592,3.9,3.9,0,0,0,5.14.035A3.607,3.607,0,0,0,127.155,20.631Zm-.518-10.972a3.456,3.456,0,0,0-.778-2.359,3.163,3.163,0,0,0-4.372-.026,3.436,3.436,0,0,0-.778,2.384,3.611,3.611,0,0,0,.778,2.419,3.077,3.077,0,0,0,4.38,0A3.637,3.637,0,0,0,126.636,9.659Zm10.678,20.389H133.6l9.261-27.318h3.715Zm28.372-12.562q0,5.218-2.16,7.983a8.631,8.631,0,0,1-12.614.052q-2.177-2.713-2.229-7.775V13.115q0-5.27,2.186-8a8.648,8.648,0,0,1,12.588-.026q2.177,2.7,2.229,7.767ZM160.693,12.4a9.213,9.213,0,0,0-.855-4.558,2.89,2.89,0,0,0-2.67-1.427,2.839,2.839,0,0,0-2.6,1.358,8.622,8.622,0,0,0-.89,4.246v6.123a9.67,9.67,0,0,0,.838,4.575,2.852,2.852,0,0,0,2.687,1.5,2.8,2.8,0,0,0,2.644-1.435,9.439,9.439,0,0,0,.847-4.393Zm20.493,15.493h-4.994V8.64l-5.961,1.849V6.428L180.65,2.7h.536Zm18.091-8.76h-9.728V15.1h9.728Zm15.931,8.76h-4.994V8.64l-5.961,1.849V6.428L214.672,2.7h.536Zm25.106-10.4q0,5.218-2.16,7.983a8.631,8.631,0,0,1-12.614.052q-2.177-2.713-2.229-7.775V13.115q0-5.27,2.186-8a8.648,8.648,0,0,1,12.588-.026q2.177,2.7,2.229,7.767ZM235.32,12.4a9.213,9.213,0,0,0-.855-4.558,2.89,2.89,0,0,0-2.67-1.427,2.839,2.839,0,0,0-2.6,1.358,8.621,8.621,0,0,0-.89,4.246v6.123a9.671,9.671,0,0,0,.838,4.575,2.852,2.852,0,0,0,2.687,1.5,2.8,2.8,0,0,0,2.644-1.435,9.439,9.439,0,0,0,.847-4.393Zm10.143,17.653h-3.715l9.261-27.318h3.715ZM261.981,13.1h2.661a3.749,3.749,0,0,0,2.816-.95,3.482,3.482,0,0,0,.916-2.523,3.079,3.079,0,0,0-.907-2.367,3.516,3.516,0,0,0-2.5-.847,3.685,3.685,0,0,0-2.4.786,2.514,2.514,0,0,0-.968,2.048h-4.994a6.141,6.141,0,0,1,1.063-3.534,7.081,7.081,0,0,1,2.972-2.445,9.919,9.919,0,0,1,4.207-.881A9.407,9.407,0,0,1,271.1,4.294a6.514,6.514,0,0,1,2.264,5.261,5.294,5.294,0,0,1-1.054,3.179,6.848,6.848,0,0,1-2.765,2.229,6.251,6.251,0,0,1,3.171,2.281,6.187,6.187,0,0,1,1.045,3.594,6.622,6.622,0,0,1-2.445,5.374,9.83,9.83,0,0,1-6.471,2.022,9.321,9.321,0,0,1-6.16-1.987,6.489,6.489,0,0,1-2.393-5.253h4.994a2.893,2.893,0,0,0,1.063,2.315,4.433,4.433,0,0,0,5.408-.043,3.251,3.251,0,0,0,1.011-2.5q0-3.767-4.147-3.767h-2.644Zm27.352,14.791H284.34V8.64l-5.961,1.849V6.428L288.8,2.7h.536Zm26.411-2.708H326.71q.661,0,.561.628l-.5,2.675a.682.682,0,0,1-.76.628h-28.14q-.661,0-.561-.628l.5-2.675a.682.682,0,0,1,.76-.628h2.84V7.345q0-.661.628-.561l2.873.5a.682.682,0,0,1,.628.76V25.18h6.011V.574q0-.661.628-.561l2.94.5a.682.682,0,0,1,.628.76v8.951h9.182q.661,0,.561.628l-.5,2.708a.682.682,0,0,1-.76.628h-8.488Z" transform="translate(503.972 439.521) rotate(-5)" fill="#fff"/>
  </g>
</svg>
