<svg xmlns="http://www.w3.org/2000/svg" xmlns:xlink="http://www.w3.org/1999/xlink" width="2215.997" height="393.551" viewBox="0 0 2215.997 393.551">
  <defs>
    <clipPath id="clip-path">
      <rect id="Rectangle_16" data-name="Rectangle 16" width="1189.23" height="126.207" transform="translate(879.24 -3.722)" fill="none"/>
    </clipPath>
  </defs>
  <g id="main-grass" transform="translate(156.003 -677.656)">
    <g id="Group_2051" data-name="Group 2051" transform="translate(-1926.513 -263.189)">
      <g id="圖層_1" data-name="圖層 1">
        <g id="Group_2048" data-name="Group 2048" opacity="0.5">
          <path id="Path_2339" data-name="Path 2339" d="M2035.29,1098.95c.245-.384.491-.773.749-1.15.427-.627.855-1.239,1.287-1.853.67-.916,1.334-1.807,2-2.7l.933-1.254a48.2,48.2,0,0,1,3.15-3.89c1.139-1.243,2.266-2.5,3.4-3.756l1.144-1.3c.694-.778,1.386-1.557,2.088-2.326l.53-.577c.916-1,1.829-2,2.759-2.984l.27-.281c.18-.185.352-.363.511-.543l.266-.294.77.736-.7-.821c.148-.164.3-.325.429-.5l.838.643-.743-.759c.34-.442.646-.828.931-1.245a11.42,11.42,0,0,0,1.3-2.54,13.053,13.053,0,0,0,.774-3.347,8.573,8.573,0,0,0-.019-1.339l-.014-.185c-.029-.463-.08-.941-.148-1.417a7.471,7.471,0,0,0-.746-2.293,6.711,6.711,0,0,0-.736-1.041,6.148,6.148,0,0,0-.979-.964,5.205,5.205,0,0,0-1.512-.726c-.349-.123-.684-.238-1.022-.324a9.476,9.476,0,0,0-2.061-.315h-.142a17.95,17.95,0,0,0-1.981.145,11.479,11.479,0,0,0-1.962.44c-.631.2-1.308.448-2.129.763a23.263,23.263,0,0,0-2.2.995,12.419,12.419,0,0,0-1.712,1.134c-.788.587-1.5,1.2-2.027,1.669-.209.18-.4.36-.589.538l-.278.26c-.143.132-.3.268-.451.4-.117.1-.239.216-.36.327-.594.56-1.195,1.113-1.8,1.665-.537.494-1.053,1.047-1.577,1.622-.6.648-1.184,1.306-1.765,1.98-.3.348-.587.709-.873,1.078l-.076.1c-.138.18-.29.375-.443.566-.326.411-.658.822-.989,1.235l-.322.4c-.61.748-1.21,1.492-1.8,2.249-.52.669-1.035,1.352-1.547,2.035l-.069.086c-.32.43-.637.878-.949,1.329l-.2.281q-.176.255-.358.5l-1.515,2.054c-.688.92-1.345,1.8-1.985,2.693-.916,1.3-1.889,2.685-2.792,4.1-.485.765-.964,1.53-1.428,2.314-.349.595-.7,1.243-1.077,1.981-.813,1.6-1.429,2.915-1.938,4.143a1.064,1.064,0,0,1-.147.262h-1.5a1.271,1.271,0,0,1-.2-1.094l.141-.524c.092-.369.188-.754.289-1.132a41.747,41.747,0,0,1,1.379-4.081l.293-.771c.595-1.616,1.193-3.234,1.809-4.835.809-2.128,1.635-4.251,2.461-6.37.641-1.53,1.3-3.03,1.949-4.483l.161-.358c.713-1.6,1.4-3.211,2.092-4.825l.562-1.3c.142-.324.283-.649.419-.974l.455-1.086c.161-.381.322-.769.488-1.151.772-1.779,1.486-3.326,2.178-4.728.786-1.6,1.586-3.192,2.387-4.785.762-1.519,1.524-3.039,2.279-4.573.7-1.425,1.416-2.912,2.173-4.544.406-.855.805-1.706,1.226-2.545q.433-.858.876-1.7l.206-.4c1.89-3.63,3.441-6.51,4.883-9.069.471-.832.944-1.65,1.433-2.465l.734-1.216c.178-.3.354-.587.53-.886.845-1.415,1.734-2.815,2.595-4.171l.151-.235c.639-1,1.3-1.982,1.96-2.959l1.155-1.725c.7-1.048,1.4-2.1,2.109-3.148,1.441-2.134,2.961-4.3,4.307-6.211l1.064-1.523c.918-1.271,1.887-2.627,2.855-4.039l.193-.273c.783-1.135,1.668-2.427,2.492-3.709q.753-1.158,1.473-2.329c.392-.622.753-1.3,1.107-1.958l.125-.238c.656-1.227,1.315-2.593,2.075-4.3l.22-.49c.265-.591.533-1.188.778-1.79.354-.874.7-1.754,1.031-2.645.248-.679.455-1.429.638-2.087l.1-.35c.16-.579.294-1.216.42-1.836l.118-.571c.023-.113.043-.239.058-.364l.076-.464c.028-.176.056-.337.076-.5l.045-.4c.037-.274.067-.532.083-.784l.013-.3c.017-.319.034-.614.032-.914,0-.464-.008-.929-.022-1.392a15.671,15.671,0,0,0-.4-3.516,9.957,9.957,0,0,0-.482-1.279,5.9,5.9,0,0,0-.423-.776l-.131-.216a13.741,13.741,0,0,0-1.687-2.274,8.5,8.5,0,0,0-2.028-1.616,12.268,12.268,0,0,0-2.8-1.172,11.2,11.2,0,0,0-2.546-.387l-.356-.008c-.189-.007-.361-.017-.535-.017l-.327.012a18.054,18.054,0,0,0-2.234.2l-.343.056c-.248.034-.477.067-.7.119l-.4.088c-.285.057-.491.1-.692.16l-1.157.358c-.216.069-.427.147-.635.227l-.426-1.048.317,1.09-.363.136c-.243.094-.478.2-.712.3l-.351.157c-.277.121-.551.253-.821.383l-.429.206a17.458,17.458,0,0,0-1.786.991c-1.2.748-2.445,1.6-4.037,2.777a22.371,22.371,0,0,0-1.778,1.426l-.972.878c-.226.207-.44.425-.652.635l-.305.306c-1.025,1-2.055,2.129-2.882,3.035l-.5.547c-.66.717-1.327,1.423-2,2.131l-1.256,1.337c-2.227,2.381-4.445,4.861-6.78,7.571-.959,1.124-1.873,2.329-2.879,3.676q-.81,1.089-1.616,2.186c-.516.711-1.016,1.436-1.519,2.163l-.21.3c-1.734,2.513-3.693,5.353-5.494,8.206l-.272.427c-.31.489-.617.977-.908,1.474-.407.7-.785,1.383-1.221,2.2-.458.851-.91,1.7-1.351,2.563-.3.572-.582,1.157-.861,1.74l-.229.471q-2,4.135-3.961,8.29l-.519,1.092c-1.524,3.209-2.855,6.56-4.065,9.7-.188.484-.36.979-.53,1.473l-.279.8c-.258.723-.49,1.452-.717,2.18l-.045.136c-.51,1.614-1.049,3.326-1.525,5.015q-1.09,3.846-2.212,7.678l-.828,2.84c-.308,1.073-.656,2.152-.994,3.2l-.482,1.533q-.774,2.474-1.509,4.967-1.547,5.253-3.071,10.509c-.163.572-.327,1.138-.5,1.7l-.047.169c-.285.973-.568,1.948-.841,2.93-.258.906-.505,1.822-.742,2.74l-.086.32c-.159.612-.323,1.224-.46,1.843-.372,1.633-.771,3.4-1.085,5.139-.178.949-.335,1.884-.483,2.836-.129.815-.24,1.635-.353,2.46l-.038.3c-.073.537-.136,1.073-.2,1.6a1.029,1.029,0,0,1-1.031.993,1.075,1.075,0,0,1-.956-1.086l-.012-.253c-.059-.444-.126-.887-.193-1.329-.086-.564-.169-1.13-.239-1.693-.134-1.057-.252-2.134-.347-3.191l-.082-.96c-.114-1.324-.225-2.619-.288-3.9q-.142-2.647-.261-5.3l-.051-1.089c-.027-.573-.05-1.1-.08-1.618l-.036-.612c-.039-.632-.077-1.239-.1-1.843-.08-2.031-.115-3.829-.1-5.493v-.3c.006-.8.014-1.6.037-2.408.019-.7.05-1.394.08-2.1l.031-.625c.025-.6.057-1.2.089-1.8l.043-.845c.051-.979.1-1.887.132-2.8.078-2.184.136-4.372.193-6.562l.023-.883q.039-1.612.086-3.228l.19-6.667q.209-7.287.392-14.581c.041-1.616.077-3.24.089-4.857l.007-1.525c.006-1.365.013-2.731.043-4.094.083-3.915.214-7.4.4-10.668.059-1.079.125-2.159.193-3.234l.141-2.251q.144-2.493.274-5c.034-.713.076-1.427.118-2.142l.025-.459c.059-1.037.121-2.071.174-3.106.077-1.4.167-2.794.26-4.194l.235-3.444c.064-.912.129-1.827.18-2.741.1-1.736.14-3.509.181-5.223l.016-.583c.073-3.3.148-6.7,0-10.014-.053-1.2-.15-2.486-.294-3.926a38.992,38.992,0,0,0-.572-4.043c-1.155-5.567-3.7-12.2-9.276-12.2-3.782,0-8.376,3.066-12.939,8.626-.3.374-.593.74-.876,1.126-.34.471-.679.937-1.009,1.423s-.574.849-.814,1.26l-.1.178c-.248.425-.455.782-.642,1.155l-.143.283c-.188.369-.363.719-.521,1.089l-.2.483c-.144.335-.32.737-.456,1.133l-.072.208c-4.437,12.877-7.5,35.509-7.8,49.089-.032,1.108-.125,4.45-.112,7.757.006,2.637.071,5.353.19,8.09.05,1.218.132,2.457.21,3.513.043.593.09,1.18.134,1.771.061.775.119,1.509.169,2.236l.129,1.989c.129,1.987.257,3.976.416,5.965q.129,1.732.252,3.463.158,2.3.341,4.594l.254,3.308c.086,1.1.184,2.209.282,3.315a1.314,1.314,0,0,1,.052.285c.079,1.224.192,2.543.351,4.153.088.941.206,1.877.323,2.808l.124,1.019c.276,2.253.631,4.594.945,6.66l.155,1.006c.437,2.9.771,5.374,1.054,7.779q.289,2.433.614,4.856l.388,2.968c.212,1.626.375,3.227.552,5l.031.3c.088.859.174,1.712.27,2.561.1.885.2,1.761.315,2.639l.061.5a1.187,1.187,0,0,1-.585,1.2h-.807a1.073,1.073,0,0,1-.514-.591l-1.347-3.519c-.423-1.088-.863-2.174-1.3-3.255l-2.18-5.378c-.266-.66-.532-1.317-.806-1.972-.935-2.245-1.948-4.63-3.04-6.923-.634-1.338-1.152-2.386-1.686-3.4q-.882-1.679-1.788-3.345c-.581-1.067-1.17-2.119-1.763-3.171l-.259-.464c-.643-1.148-1.243-2.217-1.833-3.286-.574-1.048-1.2-2.136-1.92-3.333-.618-1.033-1.3-2.072-1.951-3.037-1.365-2.047-2.851-4.2-4.419-6.394-1.27-1.79-2.689-3.7-4.458-6.038-.869-1.143-1.55-2-2.211-2.8s-1.385-1.612-2.35-2.665c-1.458-1.6-3.192-3.474-5.034-5.288q-.594-.589-1.211-1.179v-2.964q1.3,1.2,2.513,2.408c1.875,1.853,3.635,3.75,5.11,5.366.987,1.077,1.733,1.922,2.415,2.739s1.383,1.708,2.273,2.878c1.783,2.347,3.215,4.284,4.5,6.088,1.581,2.218,3.079,4.389,4.456,6.45.663.995,1.371,2.062,2.012,3.135.734,1.22,1.377,2.339,1.962,3.412s1.186,2.122,1.786,3.2l.3.532c.6,1.065,1.193,2.125,1.778,3.2q.912,1.678,1.8,3.374c.548,1.046,1.079,2.121,1.727,3.488,1.114,2.339,2.142,4.763,3.085,7.029.279.66.547,1.329.821,2l2.1,5.187c-.118-1.156-.24-2.248-.38-3.347l-.384-2.913c-.218-1.683-.431-3.309-.624-4.94-.279-2.379-.614-4.825-1.044-7.7l-.15-.983c-.321-2.1-.678-4.464-.959-6.751l-.124-1.018c-.119-.956-.24-1.922-.331-2.884-.142-1.467-.249-2.7-.33-3.84a1.211,1.211,0,0,1-.04-.22c-.111-1.241-.22-2.49-.321-3.735l-.249-3.3c-.127-1.536-.237-3.083-.346-4.622q-.123-1.719-.251-3.445c-.16-1.994-.288-3.991-.417-6l-.128-1.985c-.049-.717-.106-1.438-.164-2.167-.05-.635-.1-1.23-.137-1.828-.079-1.071-.165-2.335-.217-3.588-.12-2.764-.185-5.523-.191-8.189-.012-3.349.08-6.723.113-7.83.3-13.77,3.418-36.756,7.935-49.875l.073-.2c.156-.463.357-.922.517-1.3l.2-.474c.173-.415.373-.817.588-1.237l.141-.285c.206-.406.432-.8.7-1.255l.111-.2c.262-.457.539-.87.878-1.369.366-.541.719-1.031,1.076-1.519.309-.424.626-.822.957-1.224,5.007-6.116,9.987-9.348,14.389-9.348,3.8,0,8.825,2.421,11.219,13.959a40.748,40.748,0,0,1,.612,4.313c.149,1.482.25,2.815.307,4.068.15,3.4.072,6.844,0,10.17l-.017.6c-.04,1.748-.083,3.542-.186,5.321-.049.927-.113,1.847-.176,2.771l-.237,3.446c-.092,1.383-.183,2.763-.258,4.152q-.081,1.56-.172,3.117l-.029.463c-.04.708-.082,1.417-.117,2.127q-.13,2.51-.275,5.022l-.138,2.222c-.068,1.1-.135,2.173-.193,3.249-.183,3.234-.312,6.692-.394,10.576-.03,1.35-.038,2.7-.041,4.053l-.008,1.528c-.012,1.637-.048,3.272-.09,4.907-.115,4.862-.255,9.729-.393,14.589l-.191,6.67c-.032,1.077-.058,2.148-.085,3.219l-.024.885c-.057,2.2-.115,4.393-.193,6.589-.034.925-.082,1.849-.128,2.767l-.051.918c-.027.6-.06,1.192-.087,1.783l-.028.623c-.031.689-.06,1.371-.077,2.058-.027.79-.032,1.572-.036,2.356v.3c-.017,1.62.013,3.372.1,5.361.025.583.058,1.176.1,1.792l.036.616c.032.531.056,1.067.079,1.6l.053,1.14q.121,2.644.259,5.286c.064,1.242.172,2.511.277,3.737l.007.086c.323-1.776.739-3.614,1.076-5.1.165-.727.332-1.372.5-2.014l.084-.32c.241-.927.49-1.855.751-2.778.278-.993.562-1.972.852-2.959l.539-1.855c1.01-3.513,2.045-7.017,3.078-10.524.493-1.679,1-3.345,1.517-5.011l.491-1.549c.33-1.023.667-2.083.971-3.131l.8-2.748.026-.092c.742-2.549,1.485-5.1,2.207-7.661.486-1.723,1.033-3.46,1.551-5.089l.042-.138c.232-.748.476-1.507.738-2.249l.278-.8c.182-.52.364-1.041.562-1.551,1.226-3.185,2.576-6.589,4.137-9.869l.517-1.092c1.317-2.773,2.636-5.548,3.97-8.3l.223-.464c.293-.61.585-1.219.9-1.813.448-.865.9-1.731,1.367-2.59s.84-1.559,1.261-2.278c.3-.522.629-1.034.954-1.547l.268-.422c1.828-2.9,3.8-5.755,5.542-8.278l.214-.309c.515-.744,1.024-1.486,1.557-2.213q.812-1.113,1.63-2.209c1.03-1.377,1.965-2.616,2.97-3.789,2.356-2.736,4.594-5.234,6.843-7.642l1.262-1.34c.661-.7,1.321-1.4,1.974-2.11l.479-.526c.863-.945,1.915-2.1,2.97-3.129l.278-.279c.256-.258.5-.5.746-.721l.978-.883a23.339,23.339,0,0,1,1.935-1.559c1.636-1.2,2.919-2.083,4.161-2.857a17.84,17.84,0,0,1,1.972-1.1l.43-.21c.29-.136.583-.276.874-.4l.336-.153c.262-.115.534-.237.813-.342l.362-.136.111-.042a7.606,7.606,0,0,1,.738-.264l1.165-.358c.254-.078.516-.139.78-.193l.431-.092c.273-.063.555-.1.837-.145l.318-.052a21.65,21.65,0,0,1,2.386-.22l.109-.005h.094l.26-.006c.2,0,.4.008.6.019h.336a13.8,13.8,0,0,1,2.953.448,14.291,14.291,0,0,1,3.227,1.348,10.4,10.4,0,0,1,2.517,2.01,16.216,16.216,0,0,1,1.967,2.643l.121.2a8.807,8.807,0,0,1,.574,1.065,12.712,12.712,0,0,1,.589,1.585,17.67,17.67,0,0,1,.491,4.127c.02.488.023.978.027,1.469,0,.356-.015.71-.034,1.077l-.017.3c-.018.325-.058.647-.095.962l-.043.377c-.022.207-.059.425-.1.631l-.069.423c-.022.158-.047.336-.081.5l-.1.5c-.151.742-.291,1.427-.482,2.1l-.1.344c-.2.7-.415,1.5-.7,2.272-.343.918-.7,1.823-1.064,2.722-.256.631-.532,1.25-.809,1.868l-.218.488c-.785,1.761-1.469,3.176-2.151,4.452l-.125.239c-.371.7-.752,1.409-1.181,2.1-.494.792-.989,1.576-1.494,2.358-.84,1.312-1.742,2.618-2.535,3.772l-.191.273c-.974,1.423-1.958,2.8-2.872,4.062l-1.059,1.515c-1.338,1.9-2.852,4.054-4.283,6.175q-1.055,1.569-2.1,3.139l-1.155,1.724c-.653.972-1.305,1.938-1.931,2.919l-.127.195c-.874,1.377-1.754,2.763-2.578,4.146-.18.3-.358.6-.541.9l-.735,1.212c-.474.794-.937,1.6-1.4,2.414-1.428,2.53-2.969,5.393-4.845,8.994l-.207.4c-.289.559-.574,1.113-.857,1.672-.411.822-.806,1.658-1.2,2.492-.766,1.644-1.484,3.144-2.194,4.584-.756,1.539-1.523,3.069-2.289,4.592q-1.2,2.38-2.38,4.767c-.675,1.368-1.37,2.883-2.127,4.625-.163.373-.319.746-.476,1.122l-.454,1.079c-.143.337-.288.673-.433,1.012l-.559,1.283c-.694,1.622-1.386,3.244-2.106,4.863l-.158.35c-.637,1.439-1.3,2.919-1.917,4.4-.769,1.981-1.551,3.989-2.318,6,.561-.826,1.127-1.627,1.673-2.4.651-.914,1.319-1.8,1.988-2.7l1.519-2.058c.124-.169.236-.327.347-.488l.2-.273c.324-.469.655-.934.994-1.389l.07-.09c.52-.688,1.041-1.379,1.568-2.059.6-.769,1.213-1.526,1.823-2.284l.267-.327.055-.073c.326-.4.653-.812.976-1.222.15-.185.3-.369.436-.556l.082-.1c.3-.386.612-.782.936-1.155.6-.69,1.2-1.363,1.805-2.029.56-.608,1.109-1.195,1.706-1.746s1.19-1.1,1.79-1.658c.136-.128.27-.247.4-.365s.273-.239.4-.358l.277-.258c.207-.195.421-.394.641-.585.55-.49,1.3-1.136,2.151-1.769a13.821,13.821,0,0,1,1.988-1.307,25.16,25.16,0,0,1,2.365-1.069c.856-.329,1.563-.583,2.232-.8a13.223,13.223,0,0,1,2.288-.511,19.324,19.324,0,0,1,2.193-.16h.153a10.976,10.976,0,0,1,2.467.369c.39.1.779.229,1.18.367a6.973,6.973,0,0,1,2.062,1.031,8.165,8.165,0,0,1,1.307,1.283,8.451,8.451,0,0,1,1,1.444,10,10,0,0,1,1,3.075c.08.553.137,1.1.174,1.637l.009.176a10.8,10.8,0,0,1,.015,1.771,15.657,15.657,0,0,1-.931,4.016,13.83,13.83,0,0,1-1.576,3.047c-.3.436-.627.855-1,1.333,0,.008-.1.128-.106.136-.161.206-.338.4-.513.6,0,0-.08.088-.082.094l-.256.281c-.17.2-.368.4-.564.6l-.262.277c-.922.964-1.827,1.956-2.731,2.945l-.53.578c-.7.763-1.379,1.533-2.066,2.308l-1.149,1.293q-1.7,1.911-3.416,3.785a47.037,47.037,0,0,0-3.006,3.715l-.914,1.226c-.677.917-1.339,1.811-1.993,2.7-.356.509-.719,1.025-1.079,1.549Zm-115.259-7.9.445.541c.432.518.862,1.017,1.3,1.515l.158.183c.267.308.532.616.792.924.917,1.082,1.843,2.153,2.765,3.226l2.655,3.079c.627.735,1.251,1.467,1.859,2.224.243.3.479.614.715.928.165.224.287.388.408.545.336.442.671.882,1,1.327,1.308,1.744,2.709,3.573,4.544,5.927.988,1.27,1.971,2.6,2.9,3.876h-2.6c-.586-.793-1.182-1.581-1.778-2.348-1.845-2.366-3.255-4.2-4.573-5.967-.325-.438-.658-.872-.988-1.3-.133-.174-.261-.346-.389-.524-.251-.333-.471-.63-.7-.909-.6-.742-1.209-1.453-1.822-2.168l-2.642-3.076c-.935-1.08-1.864-2.157-2.785-3.245-.255-.3-.516-.6-.777-.909l-.154-.179-.325-.373v-3.3Z" fill="#fff"/>
          <g id="Group_2047" data-name="Group 2047">
            <path id="Path_2340" data-name="Path 2340" d="M2046,1080.87q-.447-1.623-.876-3.251a1.292,1.292,0,0,1,.085-.9,1.026,1.026,0,0,1,.623-.547.931.931,0,0,0,.281-.135c.029-.023.058-.043.082-.066a1.021,1.021,0,0,1,.215-.154l.308-.169c.122-.065.236-.136.346-.2a8.492,8.492,0,0,0,1.2-.915,23.313,23.313,0,0,0,2.4-2.429,14.591,14.591,0,0,0,.92-1.226c2.084-3.085,2.383-6.019,1.775-7.442a1.211,1.211,0,0,0-1.15-.868c-.564,0-2.132.363-4.473,3.745-.614.893-1.192,1.88-1.752,2.83l-.219.377c-.221.379-.445.757-.662,1.142a.954.954,0,0,1-.993.514,1.061,1.061,0,0,1-.811-.837c-.207-.905-.415-1.815-.62-2.724-.194-.87-.394-1.738-.594-2.607a1.244,1.244,0,0,1,.363-1.21.739.739,0,0,0,.1-.1,1.206,1.206,0,0,1,.164-.171,3.541,3.541,0,0,0,.625-.746c.358-.51.687-1.078.991-1.621a19.761,19.761,0,0,0,1.308-2.9,29.133,29.133,0,0,0,1.058-3.394c.13-.526.236-1.062.336-1.593.245-1.289.215-2.986-.688-3.542a1.588,1.588,0,0,0-1.838.275,7.38,7.38,0,0,0-.646.662,2.823,2.823,0,0,0-.2.279c-.084.13-.166.262-.239.394l-.15.243a26.387,26.387,0,0,0-1.4,2.569c-.205.43-.392.868-.572,1.313a1,1,0,0,1-.953.662,1.019,1.019,0,0,1-.9-.761q-.444-1.428-.921-2.846-.408-1.188-.832-2.362a1.25,1.25,0,0,1,.319-1.35,3.043,3.043,0,0,0,.578-.633,8.674,8.674,0,0,0,.732-1.394c.48-1.161.882-2.36,1.313-3.7l.092-.285a17.277,17.277,0,0,0,.888-3.5,6.265,6.265,0,0,0-.019-1.924,1.592,1.592,0,0,0-.935-1.247c-.4-.107-.775.042-1.282.507a.843.843,0,0,1-.187.13,1.206,1.206,0,0,0-.323.264,4.085,4.085,0,0,0-.306.39c-.079.111-.158.232-.239.352-.192.3-.375.6-.553.9a19.166,19.166,0,0,0-.9,1.849l-.078.174c-.172.39-.333.788-.488,1.188a1.013,1.013,0,0,1-.905.677h-.005a1,1,0,0,1-.908-.662c-.427-1.052-.917-2.272-1.362-3.488q-.725-2-1.417-4a1.3,1.3,0,0,1,.047-.966,1.011,1.011,0,0,1,.675-.579l.09-.025a1.7,1.7,0,0,0,.57-.361.7.7,0,0,1,.146-.11,1.523,1.523,0,0,0,.4-.359,7.166,7.166,0,0,0,.391-.606l.148-.247c.258-.423.49-.864.721-1.306l.05-.094q.819-1.56,1.6-3.15a18.151,18.151,0,0,0,1.381-4.012,12.077,12.077,0,0,0,.23-1.979,3.343,3.343,0,0,0-.306-1.611,1.42,1.42,0,0,0-.85-.79,1.576,1.576,0,0,0-.7,0,2.1,2.1,0,0,0-.6.346,7.931,7.931,0,0,0-1.136,1.414c-.334.512-.644,1.069-.935,1.6-.629,1.132-1.1,2.069-1.486,2.952-.4.922-.761,1.85-1.06,2.638a1,1,0,0,1-.915.688h-.012a1.007,1.007,0,0,1-.913-.717c-.339-.954-.653-1.78-.965-2.526a1.158,1.158,0,0,0-.145-.238,1.247,1.247,0,0,1-.242-.979.892.892,0,0,0-.01-.334c-.179-.777-.28-1.559-.38-2.312q-.054-.423-.113-.842a14.558,14.558,0,0,0-.939-3.278c-1.8-4.483-3.69-6.076-4.76-6.076a1.045,1.045,0,0,0-.937.671c-.6,1.129-.709,3.73.943,7.342a26.8,26.8,0,0,0,1.85,3.307,19.616,19.616,0,0,0,1.709,2.383,9.527,9.527,0,0,0,.7.681l.1.088a1.113,1.113,0,0,1,.321.537c.023.069.046.146.075.23.082.239.17.493.25.744l.683,2.132a1.271,1.271,0,0,1-.233,1.2.9.9,0,0,1-1.052.264c-.185-.08-.379-.151-.572-.224s-.373-.145-.554-.219l-.5-.209a13.342,13.342,0,0,0-1.82-.673,4.209,4.209,0,0,0-2.2-.163,2.8,2.8,0,0,0-1.245.79,3.881,3.881,0,0,0-.346.446,1.349,1.349,0,0,0-.162.3l-.11.625a2.526,2.526,0,0,0,.1.679c.12.249.239.48.367.7a5.376,5.376,0,0,0,.6.672,6.626,6.626,0,0,0,1.448,1.015,22.859,22.859,0,0,0,2.36,1.146,29.316,29.316,0,0,0,4.486,1.32,6.4,6.4,0,0,1,1.022.336.821.821,0,0,0,.3.059,1.04,1.04,0,0,1,.953.721c.184.528.369,1.052.558,1.578.5,1.383,1.064,2.773,1.607,4.121.218.538.436,1.079.651,1.618a1.274,1.274,0,0,1-.2,1.28.91.91,0,0,1-1.111.247,15.576,15.576,0,0,0-1.486-.664,7.035,7.035,0,0,0-2.513-.492c-2.407,0-4.03,1.435-4.032,2.777-.007,1.637,2.531,3.424,8.119,3.475h.467a17.319,17.319,0,0,1,2.18.109.741.741,0,0,1,.174.042,3.634,3.634,0,0,1,.5.211.4.4,0,0,0,.1.034,1.055,1.055,0,0,1,.736.708l.1.283c.509,1.514,1.028,3.119,1.636,5.054a1.266,1.266,0,0,1-.281,1.247.9.9,0,0,1-1.115.157q-.36-.207-.718-.4l-.187-.1a9.908,9.908,0,0,0-1.054-.531,15.817,15.817,0,0,0-3.2-.9,8.689,8.689,0,0,0-1.287-.129c-.106,0-.213-.007-.319-.007a1.937,1.937,0,0,0-1.41.382,3.294,3.294,0,0,0-.316.391,1.122,1.122,0,0,0-.159.355,2,2,0,0,0,.09,1.3,3.631,3.631,0,0,0,1.129,1.277,7.53,7.53,0,0,0,1.385.788l.12.057a31.722,31.722,0,0,0,2.974,1.207l.694.258c.677.251,1.382.513,2.067.714.574.162,1.159.306,1.743.438l.172.036a4.987,4.987,0,0,0,.759.14,1.037,1.037,0,0,1,.9.847q.248,1.073.486,2.15l.143.617q.222,1.005.456,2.016a1.251,1.251,0,0,1-.333,1.18.906.906,0,0,1-1.077.138,14.747,14.747,0,0,0-2.472-1.169,18.991,18.991,0,0,0-3.141-.807c-.554-.092-1.015-.147-1.451-.182a3.625,3.625,0,0,0-1.8.272,1.372,1.372,0,0,0-.49.48.845.845,0,0,0-.061.1,1.8,1.8,0,0,0-.176.4c-.02.119-.046.262-.07.408.005.162.015.323.026.485a2.357,2.357,0,0,0,.316.672,2.95,2.95,0,0,0,.342.436,7.272,7.272,0,0,0,1.5,1.226,12.268,12.268,0,0,0,2.867,1.31c.392.122.8.227,1.2.332l.188.052c1.017.262,2.04.465,3.274.69.3.056.6.1.908.146l.4.059c.177.033.336.067.494.1a.421.421,0,0,0,.107.01,1.555,1.555,0,0,1,.305.008,1.152,1.152,0,0,1,.911.81c.118.439.238.873.358,1.305l.642,2.281h-2.1l-.446-1.575c-.051-.2-.106-.4-.16-.593-.143-.027-.271-.056-.4-.079l-.365-.055c-.323-.046-.647-.1-.966-.157-1.268-.231-2.331-.442-3.4-.721l-.193-.052c-.423-.111-.85-.222-1.27-.354a14.215,14.215,0,0,1-3.3-1.5,9.422,9.422,0,0,1-1.909-1.562,5.155,5.155,0,0,1-.583-.75,4.287,4.287,0,0,1-.7-1.828c-.02-.232-.031-.482-.039-.735a1.256,1.256,0,0,1,.019-.294l.1-.555a4.043,4.043,0,0,1,.413-1.076c.044-.092.109-.2.178-.312a3.446,3.446,0,0,1,1.38-1.249,5.5,5.5,0,0,1,2.639-.415c.485.036,1,.1,1.6.2a21.356,21.356,0,0,1,3.439.887c.278.1.562.207.849.331l-.078-.356q-.156-.693-.316-1.39c-.1-.025-.2-.046-.294-.069l-.163-.034c-.618-.14-1.237-.289-1.853-.467-.752-.22-1.482-.493-2.188-.755l-.685-.253a33.79,33.79,0,0,1-3.146-1.277l-.114-.057a9.168,9.168,0,0,1-1.743-1.01,5.547,5.547,0,0,1-1.793-2.158,4.546,4.546,0,0,1-.242-2.834,3.428,3.428,0,0,1,.507-1.2,5.133,5.133,0,0,1,.559-.7,3.639,3.639,0,0,1,2.764-.992c.133,0,.261.005.387.011a10.421,10.421,0,0,1,1.548.157,18.316,18.316,0,0,1,3.525.989c-.251-.775-.492-1.505-.728-2.213-.048-.021-.1-.038-.141-.059a17.115,17.115,0,0,0-1.867-.079h-.474c-7.461-.071-10.109-3.03-10.1-5.776.01-2.834,2.658-5.057,6.03-5.057a8.467,8.467,0,0,1,2.492.387c-.438-1.092-.88-2.207-1.285-3.332-.117-.321-.233-.65-.348-.975a2.979,2.979,0,0,1-.314-.107,4.622,4.622,0,0,0-.741-.245,31.309,31.309,0,0,1-4.749-1.408,24.364,24.364,0,0,1-2.552-1.235,8.586,8.586,0,0,1-1.871-1.331,7.337,7.337,0,0,1-.875-.991.723.723,0,0,1-.055-.082,8.538,8.538,0,0,1-.5-.951,4.615,4.615,0,0,1-.339-1.987,1.221,1.221,0,0,1,.018-.156l.13-.721a3.256,3.256,0,0,1,.516-1.2,5.806,5.806,0,0,1,.569-.734,4.718,4.718,0,0,1,2.094-1.341,5.97,5.97,0,0,1,3.171.142,12.864,12.864,0,0,1,1.684.6c-.059-.182-.124-.366-.183-.545l-.005-.012a9.764,9.764,0,0,1-.727-.728,21.09,21.09,0,0,1-1.916-2.659,29.258,29.258,0,0,1-2.005-3.59c-1.731-3.78-2.062-7.368-.887-9.6a3.019,3.019,0,0,1,2.648-1.773c2.289,0,4.686,2.7,6.572,7.409a16.884,16.884,0,0,1,1.094,3.854c.042.292.082.587.12.877.1.729.186,1.417.338,2.073a3.706,3.706,0,0,1,.087.785,2.782,2.782,0,0,1,.174.355c.038.09.078.184.118.276.052-.129.107-.257.165-.387.415-.954.92-1.962,1.587-3.157.308-.561.644-1.161,1.021-1.739a10.079,10.079,0,0,1,1.465-1.8,3.788,3.788,0,0,1,1.192-.734,3.136,3.136,0,0,1,1.652-.119,3.334,3.334,0,0,1,2.276,1.857,5.827,5.827,0,0,1,.6,2.959,14.694,14.694,0,0,1-.289,2.4,20.429,20.429,0,0,1-1.576,4.565q-.79,1.621-1.628,3.215l-.049.092c-.255.484-.512.973-.794,1.438l-.138.224a8.473,8.473,0,0,1-.549.843,3.605,3.605,0,0,1-.874.807c-.109.092-.216.176-.321.254q.51,1.47,1.042,2.928c.151.41.3.813.455,1.217a14.792,14.792,0,0,1,.689-1.343c.193-.338.4-.671.613-1,.089-.136.179-.266.269-.4a6.623,6.623,0,0,1,.44-.562,4.971,4.971,0,0,1,3.685-1.536,3.707,3.707,0,0,1,2.418,2.949,8.689,8.689,0,0,1,.058,2.72,19.391,19.391,0,0,1-1,4.037l-.091.273c-.451,1.391-.866,2.642-1.384,3.889a11.251,11.251,0,0,1-.932,1.778,4.29,4.29,0,0,1-.377.495c.2.549.383,1.1.57,1.647.058.163.111.327.165.494.377-.739.732-1.364,1.09-1.936l.134-.22c.092-.151.185-.3.281-.451a5.082,5.082,0,0,1,.348-.48,8.089,8.089,0,0,1,.765-.794l.066-.065a3.419,3.419,0,0,1,4.055-.522c1.877,1.159,2.1,3.88,1.691,6.041-.107.572-.224,1.148-.361,1.72a31.694,31.694,0,0,1-1.15,3.693,22.231,22.231,0,0,1-1.467,3.238c-.332.589-.7,1.214-1.1,1.8a7.268,7.268,0,0,1-.725.909q.221.963.44,1.937c.017.077.036.159.056.245.474-.807.965-1.622,1.505-2.4,2.637-3.816,4.739-4.615,6.035-4.615a3.2,3.2,0,0,1,2.945,2.147c1.1,2.573.316,6.438-1.992,9.855a15.5,15.5,0,0,1-1.071,1.418,25.639,25.639,0,0,1-2.613,2.654,10.649,10.649,0,0,1-1.42,1.081c-.2.118-.332.2-.472.279l-.236.128c-.019.019-.042.034-.064.052q.32,1.192.645,2.377c.05-.077.1-.155.148-.232a10.783,10.783,0,0,1,3.008-3.167l.088-.059a7.041,7.041,0,0,1,1.7-.889,4.39,4.39,0,0,1,1.069-.2l.136-.008a3.06,3.06,0,0,1,1.35.381l.134.063a3.607,3.607,0,0,1,1.374,1.448,5.924,5.924,0,0,1,.364.858,6.074,6.074,0,0,1,.142,2.4h-2.033v-.013a3.647,3.647,0,0,0,.011-1.628,4.817,4.817,0,0,0-.212-.476,2.087,2.087,0,0,0-.422-.484l-.12-.055a1.561,1.561,0,0,0-.588-.2,2.794,2.794,0,0,0-.683.127,5.276,5.276,0,0,0-1.234.669l-.087.055a8.106,8.106,0,0,0-2.02,2.01Zm-8.548,0h.005a4.59,4.59,0,0,1,1.069-.114l.209.008a5.293,5.293,0,0,1,.933.11Zm48.9,0c1.138-1.22,1.535-2.272,1.367-2.9-.14-.543-.795-.878-1.71-.878a7.247,7.247,0,0,0-3.922,1.5c-.314.218-.617.453-.914.7a.9.9,0,0,1-1.14.017,1.2,1.2,0,0,1-.436-.842,1.354,1.354,0,0,1,.025-.449l.1-.425c.009-.026.015-.051.023-.078l.088-.392.1.021a.607.607,0,0,1,.067-.084l-.144-.04a1.033,1.033,0,0,1,.024-.106l.159-.669c0-.006.024-.09.024-.094l.151-.627c0-.006.025-.1.027-.107a.294.294,0,0,0,.01-.038c.431-1.746.923-3.485,1.4-5.174l.5-1.772a.992.992,0,0,1,1.1-.781,6.762,6.762,0,0,0,1.136.079l.837-.01c1.036-.015,2.076-.046,3.11-.08a24.8,24.8,0,0,0,3.7-.419,8.355,8.355,0,0,0,1.625-.505,7.8,7.8,0,0,0,1.835-1.012,5.167,5.167,0,0,0,.615-.579l.157-.233c.025-.037.05-.073.077-.106a1.254,1.254,0,0,0,.275-.562.886.886,0,0,1,.035-.13,2.288,2.288,0,0,0-.169-1.748,2.909,2.909,0,0,0-1.96-1.155,13.428,13.428,0,0,0-1.476-.268,17.307,17.307,0,0,0-3.32-.187,11.678,11.678,0,0,0-1.347.174l-.229.038a15.866,15.866,0,0,0-1.607.319,7.008,7.008,0,0,0-.711.243.91.91,0,0,1-1.031-.281,1.275,1.275,0,0,1-.233-1.184c.924-3.023,2.019-6.175,3.337-9.631a.991.991,0,0,1,1.079-.673c.135.027.273.057.409.086.338.077.672.157,1,.237.607.146,1.212.291,1.825.4a15.475,15.475,0,0,0,2.755.214h.477c4.92-.091,7.193-2.52,7.181-4.134-.011-1.586-2.229-3.3-6.991-3.081a21.891,21.891,0,0,0-3.3.353.951.951,0,0,1-.968-.437,1.274,1.274,0,0,1-.1-1.186l2.191-5.284c.577-1.394,1.205-2.837,1.922-4.4a.954.954,0,0,1,1.178-.564,9.913,9.913,0,0,0,1.466.369c1.153.21,2.348.352,3.466.476.334.037.671.083,1.011.123.674.086,1.312.168,1.954.2a13.151,13.151,0,0,0,2.294-.045,10.354,10.354,0,0,0,1.859-.442,5.846,5.846,0,0,0,2.044-1.282,2.728,2.728,0,0,0,.8-1.279,2.262,2.262,0,0,0-.123-1.641,3.363,3.363,0,0,0-1.636-1.272,9.849,9.849,0,0,0-3.045-.906,19.3,19.3,0,0,0-6.455.245.952.952,0,0,1-1-.477,1.3,1.3,0,0,1-.03-1.248c.424-.8.856-1.6,1.287-2.393.881-1.629,1.778-3.354,2.661-5.125.251-.5.506-.983.76-1.471a.94.94,0,0,1,1.2-.48,2.076,2.076,0,0,0,.279.092c.151.04.291.065.428.09l.5.1c.386.075.772.155,1.157.258.833.224,1.826.476,2.858.651a20.983,20.983,0,0,0,3.449.3c5.693,0,8.392-2.708,8.422-4.538.027-1.663-2.1-3.542-6.833-3.748l-.283-.013c-.621-.024-1.245-.054-1.866-.054a11.464,11.464,0,0,0-2.668.266c-.186.044-.371.093-.551.143a.934.934,0,0,1-1.059-.459,1.277,1.277,0,0,1,0-1.3c.511-.853,1.009-1.712,1.508-2.573l.657-1.145c.236-.417.476-.834.716-1.245.179-.3.351-.606.521-.916l.313-.574c.1-.166.178-.323.255-.484a1.506,1.506,0,0,1,.132-.317,9.4,9.4,0,0,0,.49-.918,1.057,1.057,0,0,1,.489-.524c.155-.077.31-.165.463-.245.344-.193.681-.4,1.017-.627q1.106-.753,2.2-1.544a14.4,14.4,0,0,0,2.132-1.872,7.24,7.24,0,0,0,1.235-1.922,8.16,8.16,0,0,0,.689-2.236c.057-.39.107-.79.129-1.182a6.885,6.885,0,0,0-.12-1.52,4.28,4.28,0,0,0-.4-1.138,2.162,2.162,0,0,0-1-.953,1.85,1.85,0,0,0-.653-.2,3.966,3.966,0,0,0-.877-.033,4.142,4.142,0,0,0-.852.2,8.883,8.883,0,0,0-1.335.591c-.064.034-.133.071-.2.113a6.573,6.573,0,0,0-1.994,2.113,16.2,16.2,0,0,0-1.368,2.609,35.855,35.855,0,0,0-1.342,3.9l-.1.32a14.888,14.888,0,0,0-.437,1.658l-.111.644c-.082.474-.165.945-.265,1.412a.9.9,0,0,0-.008.294,1.29,1.29,0,0,1-.149.828l-.211.375c-.118.212-.231.421-.35.616-.288.476-.573.958-.854,1.44l-.628,1.058c-.845,1.413-1.718,2.872-2.62,4.285a.938.938,0,0,1-1.137.417,1.135,1.135,0,0,1-.676-1.109v-.136a24.362,24.362,0,0,0-.16-3.469,16.507,16.507,0,0,0-.836-3.681c-.411-1.136-.921-2.387-1.765-2.789a1.329,1.329,0,0,0-1.171-.007,1.474,1.474,0,0,0-.187.095,1.563,1.563,0,0,0-.423.394,2.93,2.93,0,0,0-.344.6l-.066.134a4.452,4.452,0,0,0-.19.652l-.025.1c-.063.264-.109.518-.146.784a11.862,11.862,0,0,0-.019,2.475,21.032,21.032,0,0,0,.627,3.289c.142.578.343,1.159.517,1.657.206.589.468,1.163.744,1.771.185.409.371.816.541,1.233.133.327.258.649.383.972.1.265.206.531.315.795a1.386,1.386,0,0,1,.06.207,1.416,1.416,0,0,0,.219.545,1.281,1.281,0,0,1,.085,1.325q-.792,1.5-1.559,3.026c-.719,1.419-1.484,2.823-2.222,4.178-.366.67-.729,1.339-1.091,2.014l-.107.2a.955.955,0,0,1-.992.534,1.056,1.056,0,0,1-.821-.834c-.061-.256-.123-.516-.2-.77-.3-1.1-.616-2.2-.927-3.3l-.1-.341c-.134-.472-.283-.945-.436-1.411a8.442,8.442,0,0,0-.47-1.083l-.117-.241a2.89,2.89,0,0,0-1.131-1.1,2.185,2.185,0,0,0-1.053-.2,3.167,3.167,0,0,0-.354.013,1.2,1.2,0,0,0-.549.182,1.653,1.653,0,0,0-.475.442,3.486,3.486,0,0,0-.531,1.719,15.069,15.069,0,0,0,.587,4.676,18.97,18.97,0,0,0,1.322,3.439,21.665,21.665,0,0,0,1.561,2.782c.269.4.556.779.843,1.155l.139.184a1.281,1.281,0,0,1,.125,1.285c-1.475,3.194-2.852,6.529-4.183,9.752l-.7,1.7a.926.926,0,0,1-.935.65,1.016,1.016,0,0,1-.9-.723c-.061-.178-.122-.357-.189-.533l-.268-.75c-.212-.593-.413-1.155-.644-1.7-.257-.6-.511-1.184-.8-1.716-.1-.183-.2-.344-.3-.508a3.291,3.291,0,0,0-1.111-1.1,1.536,1.536,0,0,0-1.508.071,1.333,1.333,0,0,0-.259.2,3.46,3.46,0,0,0-.746,1.13,4.721,4.721,0,0,0-.208,1.861,9.739,9.739,0,0,0,.243,1.625,12.887,12.887,0,0,0,.455,1.677,11.812,11.812,0,0,0,.965,2.02,18.1,18.1,0,0,0,1.528,2.188l.123.159a13.656,13.656,0,0,1,1.251,1.761,1.433,1.433,0,0,1,.18,1.253l-.043.109c-.826,2.17-1.635,4.467-2.471,7.007q-.4,1.211-.775,2.429a1.024,1.024,0,0,1-.925.763,1,1,0,0,1-.945-.727c-.081-.237-.166-.469-.258-.706a11.785,11.785,0,0,0-1.625-2.968,7.436,7.436,0,0,0-1.549-1.62,2.713,2.713,0,0,0-1.441-.615c-.242,0-.443.08-.618.487-.7,1.568-.076,5.506,1.8,8.425.376.594.771,1.166,1.166,1.742l1.205,1.778a8.413,8.413,0,0,0,.541.7,1.27,1.27,0,0,1,.224,1.134l-.174.622-.855,3.06c-.524,1.851-1,3.662-1.4,5.385a1.858,1.858,0,0,0-.053.224c-.094.41-.17.744-.244,1.087a1.053,1.053,0,0,1-.85.852.97.97,0,0,1-1-.6c-.219-.478-.449-.949-.682-1.419-2.012-4.074-3.986-5.527-5.164-5.527a1.2,1.2,0,0,0-1.147.86c-.5,1.234-.171,3.619,1.694,6.157a28.934,28.934,0,0,0,2.3,2.832l.2.21h-2.835c-.38-.472-.776-.988-1.2-1.57-2.589-3.534-2.717-6.758-1.97-8.593a3.2,3.2,0,0,1,2.955-2.183c2.106,0,4.405,2.065,6.4,5.712.325-1.321.7-2.718,1.1-4.137.285-1.009.57-2.025.853-3.037-.094-.118-.183-.244-.268-.371l-1.2-1.763c-.405-.595-.815-1.189-1.207-1.8-2.2-3.435-3.085-8.289-1.966-10.815.847-1.923,2.71-2.316,4.883-.79a9.37,9.37,0,0,1,2,2.054,12.941,12.941,0,0,1,1.187,1.855c.778-2.364,1.537-4.523,2.309-6.575-.25-.385-.546-.758-.853-1.144l-.129-.161a20.774,20.774,0,0,1-1.712-2.459,14.278,14.278,0,0,1-1.156-2.435,15,15,0,0,1-.537-1.983,11.449,11.449,0,0,1-.3-2.111,6.88,6.88,0,0,1,.42-2.963,5.823,5.823,0,0,1,1.209-1.807,3.4,3.4,0,0,1,.646-.505,3.333,3.333,0,0,1,3.424-.042,5.462,5.462,0,0,1,1.758,1.771c.126.2.248.409.365.624.336.617.615,1.258.9,1.916.107.25.2.5.3.748,1.163-2.815,2.362-5.7,3.643-8.515-.208-.281-.412-.56-.608-.851a24.433,24.433,0,0,1-1.733-3.083,21.278,21.278,0,0,1-1.486-3.9,17.413,17.413,0,0,1-.658-5.5,5.832,5.832,0,0,1,.98-2.994,3.762,3.762,0,0,1,1.086-1.007,3.017,3.017,0,0,1,1.381-.446c.145-.008.295-.011.451-.011a3.827,3.827,0,0,1,1.957.451,4.957,4.957,0,0,1,1.969,2.027l.113.226a10.238,10.238,0,0,1,.6,1.411c.162.5.315.991.46,1.492l.1.346c.164.585.331,1.165.5,1.752.015-.033.031-.059.046-.094.733-1.339,1.488-2.727,2.188-4.11q.625-1.239,1.268-2.469a4.245,4.245,0,0,1-.2-.617c-.1-.245-.191-.492-.288-.737-.119-.312-.238-.617-.364-.927-.159-.385-.332-.767-.5-1.148-.285-.629-.582-1.279-.826-1.972-.193-.552-.413-1.2-.586-1.887a22.666,22.666,0,0,1-.691-3.706,14.09,14.09,0,0,1,.034-3.043,10.461,10.461,0,0,1,.195-1.041l.023-.093a5.7,5.7,0,0,1,.379-1.174l.06-.125a5.124,5.124,0,0,1,.628-1.044,3.65,3.65,0,0,1,.948-.851,4.228,4.228,0,0,1,.385-.2,3.113,3.113,0,0,1,2.671.025c1.679.8,2.435,2.9,2.842,4.026a19.316,19.316,0,0,1,.972,4.247c.019.182.042.362.058.538.307-.505.608-1.01.908-1.509l.618-1.046c.288-.492.576-.983.871-1.469.1-.17.2-.35.3-.534l.039-.07a3.45,3.45,0,0,1,.074-.741c.092-.434.168-.876.247-1.312l.117-.665a16.233,16.233,0,0,1,.505-1.951l.095-.315a39.023,39.023,0,0,1,1.44-4.166,19.429,19.429,0,0,1,1.569-2.979,8.8,8.8,0,0,1,2.646-2.743c.1-.061.2-.12.312-.176a10.532,10.532,0,0,1,1.609-.7,5.5,5.5,0,0,1,1.235-.283,5.3,5.3,0,0,1,1.27.037,3.543,3.543,0,0,1,1.191.355,4.27,4.27,0,0,1,1.98,1.965,6.611,6.611,0,0,1,.62,1.835,9.85,9.85,0,0,1,.149,2.068c-.031.514-.1,1.023-.152,1.407a10.645,10.645,0,0,1-.891,2.934,9.713,9.713,0,0,1-1.643,2.528,16.2,16.2,0,0,1-2.434,2.141c-.743.537-1.494,1.067-2.25,1.575-.414.283-.8.517-1.167.721-.07.04-.14.075-.211.113-.118.234-.243.457-.365.668-.01.025-.017.051-.026.078l-.035.084c-.119.251-.24.492-.377.727l-.3.555c-.18.325-.36.652-.552.973-.234.4-.467.809-.7,1.215l-.668,1.158-.239.417a28.727,28.727,0,0,1,3.292,0l.283.012c6.527.286,8.795,3.453,8.752,6.081-.056,3.372-3.652,6.784-10.418,6.784a22.715,22.715,0,0,1-3.737-.327c-1.1-.188-2.155-.455-3.035-.691-.342-.091-.687-.164-1.032-.231l-.486-.1c-.086-.017-.17-.034-.253-.049-.122.235-.241.466-.362.707-.891,1.783-1.8,3.531-2.694,5.185-.058.109-.114.218-.178.323a21.723,21.723,0,0,1,4.906.067,11.675,11.675,0,0,1,3.594,1.073,5.178,5.178,0,0,1,2.579,2.211,4.859,4.859,0,0,1,.293,3.553,5.12,5.12,0,0,1-1.438,2.328,7.71,7.71,0,0,1-2.721,1.684,11.622,11.622,0,0,1-2.188.522,14.874,14.874,0,0,1-2.617.058c-.709-.031-1.414-.124-2.1-.212-.325-.041-.649-.083-.978-.117-1.151-.128-2.381-.277-3.587-.5-.285-.056-.6-.115-.927-.2-.553,1.233-1.055,2.39-1.523,3.521l-1.41,3.4c.582-.054,1.156-.088,1.7-.115,6.7-.307,9.052,2.752,9.071,5.349.025,3.118-3.111,6.329-9.145,6.446h-.51a17.1,17.1,0,0,1-3.059-.24c-.646-.115-1.287-.27-1.93-.421-.19-.048-.381-.094-.571-.138-.88,2.337-1.653,4.535-2.339,6.652.267-.052.531-.1.789-.136l.221-.039a14.387,14.387,0,0,1,1.543-.195,18.821,18.821,0,0,1,3.643.2,15.214,15.214,0,0,1,1.668.3,4.665,4.665,0,0,1,3.263,2.234,4.863,4.863,0,0,1,.332,3.651,3.681,3.681,0,0,1-.719,1.49l-.174.26a.866.866,0,0,1-.1.136,7.461,7.461,0,0,1-.933.878,9.753,9.753,0,0,1-2.286,1.271,10.265,10.265,0,0,1-1.975.61,26.877,26.877,0,0,1-3.951.448q-1.57.051-3.146.076h-.289c-.356.006-.7.017-1.149-.005l-.253.9c-.461,1.637-.936,3.328-1.356,5.009a7.974,7.974,0,0,1,3.813-1.113,3.493,3.493,0,0,1,3.624,2.5,4.691,4.691,0,0,1-.654,3.557Z" fill="#fff"/>
          </g>
        </g>
      </g>
      <g id="圖層_1-2" data-name="圖層 1" transform="translate(1274)">
        <g id="Group_2048-2" data-name="Group 2048" opacity="0.5">
          <path id="Path_2339-2" data-name="Path 2339" d="M2035.29,1098.95c.245-.384.491-.773.749-1.15.427-.627.855-1.239,1.287-1.853.67-.916,1.334-1.807,2-2.7l.933-1.254a48.2,48.2,0,0,1,3.15-3.89c1.139-1.243,2.266-2.5,3.4-3.756l1.144-1.3c.694-.778,1.386-1.557,2.088-2.326l.53-.577c.916-1,1.829-2,2.759-2.984l.27-.281c.18-.185.352-.363.511-.543l.266-.294.77.736-.7-.821c.148-.164.3-.325.429-.5l.838.643-.743-.759c.34-.442.646-.828.931-1.245a11.42,11.42,0,0,0,1.3-2.54,13.053,13.053,0,0,0,.774-3.347,8.573,8.573,0,0,0-.019-1.339l-.014-.185c-.029-.463-.08-.941-.148-1.417a7.471,7.471,0,0,0-.746-2.293,6.711,6.711,0,0,0-.736-1.041,6.148,6.148,0,0,0-.979-.964,5.205,5.205,0,0,0-1.512-.726c-.349-.123-.684-.238-1.022-.324a9.476,9.476,0,0,0-2.061-.315h-.142a17.95,17.95,0,0,0-1.981.145,11.479,11.479,0,0,0-1.962.44c-.631.2-1.308.448-2.129.763a23.263,23.263,0,0,0-2.2.995,12.419,12.419,0,0,0-1.712,1.134c-.788.587-1.5,1.2-2.027,1.669-.209.18-.4.36-.589.538l-.278.26c-.143.132-.3.268-.451.4-.117.1-.239.216-.36.327-.594.56-1.195,1.113-1.8,1.665-.537.494-1.053,1.047-1.577,1.622-.6.648-1.184,1.306-1.765,1.98-.3.348-.587.709-.873,1.078l-.076.1c-.138.18-.29.375-.443.566-.326.411-.658.822-.989,1.235l-.322.4c-.61.748-1.21,1.492-1.8,2.249-.52.669-1.035,1.352-1.547,2.035l-.069.086c-.32.43-.637.878-.949,1.329l-.2.281q-.176.255-.358.5l-1.515,2.054c-.688.92-1.345,1.8-1.985,2.693-.916,1.3-1.889,2.685-2.792,4.1-.485.765-.964,1.53-1.428,2.314-.349.595-.7,1.243-1.077,1.981-.813,1.6-1.429,2.915-1.938,4.143a1.064,1.064,0,0,1-.147.262h-1.5a1.271,1.271,0,0,1-.2-1.094l.141-.524c.092-.369.188-.754.289-1.132a41.747,41.747,0,0,1,1.379-4.081l.293-.771c.595-1.616,1.193-3.234,1.809-4.835.809-2.128,1.635-4.251,2.461-6.37.641-1.53,1.3-3.03,1.949-4.483l.161-.358c.713-1.6,1.4-3.211,2.092-4.825l.562-1.3c.142-.324.283-.649.419-.974l.455-1.086c.161-.381.322-.769.488-1.151.772-1.779,1.486-3.326,2.178-4.728.786-1.6,1.586-3.192,2.387-4.785.762-1.519,1.524-3.039,2.279-4.573.7-1.425,1.416-2.912,2.173-4.544.406-.855.805-1.706,1.226-2.545q.433-.858.876-1.7l.206-.4c1.89-3.63,3.441-6.51,4.883-9.069.471-.832.944-1.65,1.433-2.465l.734-1.216c.178-.3.354-.587.53-.886.845-1.415,1.734-2.815,2.595-4.171l.151-.235c.639-1,1.3-1.982,1.96-2.959l1.155-1.725c.7-1.048,1.4-2.1,2.109-3.148,1.441-2.134,2.961-4.3,4.307-6.211l1.064-1.523c.918-1.271,1.887-2.627,2.855-4.039l.193-.273c.783-1.135,1.668-2.427,2.492-3.709q.753-1.158,1.473-2.329c.392-.622.753-1.3,1.107-1.958l.125-.238c.656-1.227,1.315-2.593,2.075-4.3l.22-.49c.265-.591.533-1.188.778-1.79.354-.874.7-1.754,1.031-2.645.248-.679.455-1.429.638-2.087l.1-.35c.16-.579.294-1.216.42-1.836l.118-.571c.023-.113.043-.239.058-.364l.076-.464c.028-.176.056-.337.076-.5l.045-.4c.037-.274.067-.532.083-.784l.013-.3c.017-.319.034-.614.032-.914,0-.464-.008-.929-.022-1.392a15.671,15.671,0,0,0-.4-3.516,9.957,9.957,0,0,0-.482-1.279,5.9,5.9,0,0,0-.423-.776l-.131-.216a13.741,13.741,0,0,0-1.687-2.274,8.5,8.5,0,0,0-2.028-1.616,12.268,12.268,0,0,0-2.8-1.172,11.2,11.2,0,0,0-2.546-.387l-.356-.008c-.189-.007-.361-.017-.535-.017l-.327.012a18.054,18.054,0,0,0-2.234.2l-.343.056c-.248.034-.477.067-.7.119l-.4.088c-.285.057-.491.1-.692.16l-1.157.358c-.216.069-.427.147-.635.227l-.426-1.048.317,1.09-.363.136c-.243.094-.478.2-.712.3l-.351.157c-.277.121-.551.253-.821.383l-.429.206a17.458,17.458,0,0,0-1.786.991c-1.2.748-2.445,1.6-4.037,2.777a22.371,22.371,0,0,0-1.778,1.426l-.972.878c-.226.207-.44.425-.652.635l-.305.306c-1.025,1-2.055,2.129-2.882,3.035l-.5.547c-.66.717-1.327,1.423-2,2.131l-1.256,1.337c-2.227,2.381-4.445,4.861-6.78,7.571-.959,1.124-1.873,2.329-2.879,3.676q-.81,1.089-1.616,2.186c-.516.711-1.016,1.436-1.519,2.163l-.21.3c-1.734,2.513-3.693,5.353-5.494,8.206l-.272.427c-.31.489-.617.977-.908,1.474-.407.7-.785,1.383-1.221,2.2-.458.851-.91,1.7-1.351,2.563-.3.572-.582,1.157-.861,1.74l-.229.471q-2,4.135-3.961,8.29l-.519,1.092c-1.524,3.209-2.855,6.56-4.065,9.7-.188.484-.36.979-.53,1.473l-.279.8c-.258.723-.49,1.452-.717,2.18l-.045.136c-.51,1.614-1.049,3.326-1.525,5.015q-1.09,3.846-2.212,7.678l-.828,2.84c-.308,1.073-.656,2.152-.994,3.2l-.482,1.533q-.774,2.474-1.509,4.967-1.547,5.253-3.071,10.509c-.163.572-.327,1.138-.5,1.7l-.047.169c-.285.973-.568,1.948-.841,2.93-.258.906-.505,1.822-.742,2.74l-.086.32c-.159.612-.323,1.224-.46,1.843-.372,1.633-.771,3.4-1.085,5.139-.178.949-.335,1.884-.483,2.836-.129.815-.24,1.635-.353,2.46l-.038.3c-.073.537-.136,1.073-.2,1.6a1.029,1.029,0,0,1-1.031.993,1.075,1.075,0,0,1-.956-1.086l-.012-.253c-.059-.444-.126-.887-.193-1.329-.086-.564-.169-1.13-.239-1.693-.134-1.057-.252-2.134-.347-3.191l-.082-.96c-.114-1.324-.225-2.619-.288-3.9q-.142-2.647-.261-5.3l-.051-1.089c-.027-.573-.05-1.1-.08-1.618l-.036-.612c-.039-.632-.077-1.239-.1-1.843-.08-2.031-.115-3.829-.1-5.493v-.3c.006-.8.014-1.6.037-2.408.019-.7.05-1.394.08-2.1l.031-.625c.025-.6.057-1.2.089-1.8l.043-.845c.051-.979.1-1.887.132-2.8.078-2.184.136-4.372.193-6.562l.023-.883q.039-1.612.086-3.228l.19-6.667q.209-7.287.392-14.581c.041-1.616.077-3.24.089-4.857l.007-1.525c.006-1.365.013-2.731.043-4.094.083-3.915.214-7.4.4-10.668.059-1.079.125-2.159.193-3.234l.141-2.251q.144-2.493.274-5c.034-.713.076-1.427.118-2.142l.025-.459c.059-1.037.121-2.071.174-3.106.077-1.4.167-2.794.26-4.194l.235-3.444c.064-.912.129-1.827.18-2.741.1-1.736.14-3.509.181-5.223l.016-.583c.073-3.3.148-6.7,0-10.014-.053-1.2-.15-2.486-.294-3.926a38.992,38.992,0,0,0-.572-4.043c-1.155-5.567-3.7-12.2-9.276-12.2-3.782,0-8.376,3.066-12.939,8.626-.3.374-.593.74-.876,1.126-.34.471-.679.937-1.009,1.423s-.574.849-.814,1.26l-.1.178c-.248.425-.455.782-.642,1.155l-.143.283c-.188.369-.363.719-.521,1.089l-.2.483c-.144.335-.32.737-.456,1.133l-.072.208c-4.437,12.877-7.5,35.509-7.8,49.089-.032,1.108-.125,4.45-.112,7.757.006,2.637.071,5.353.19,8.09.05,1.218.132,2.457.21,3.513.043.593.09,1.18.134,1.771.061.775.119,1.509.169,2.236l.129,1.989c.129,1.987.257,3.976.416,5.965q.129,1.732.252,3.463.158,2.3.341,4.594l.254,3.308c.086,1.1.184,2.209.282,3.315a1.314,1.314,0,0,1,.052.285c.079,1.224.192,2.543.351,4.153.088.941.206,1.877.323,2.808l.124,1.019c.276,2.253.631,4.594.945,6.66l.155,1.006c.437,2.9.771,5.374,1.054,7.779q.289,2.433.614,4.856l.388,2.968c.212,1.626.375,3.227.552,5l.031.3c.088.859.174,1.712.27,2.561.1.885.2,1.761.315,2.639l.061.5a1.187,1.187,0,0,1-.585,1.2h-.807a1.073,1.073,0,0,1-.514-.591l-1.347-3.519c-.423-1.088-.863-2.174-1.3-3.255l-2.18-5.378c-.266-.66-.532-1.317-.806-1.972-.935-2.245-1.948-4.63-3.04-6.923-.634-1.338-1.152-2.386-1.686-3.4q-.882-1.679-1.788-3.345c-.581-1.067-1.17-2.119-1.763-3.171l-.259-.464c-.643-1.148-1.243-2.217-1.833-3.286-.574-1.048-1.2-2.136-1.92-3.333-.618-1.033-1.3-2.072-1.951-3.037-1.365-2.047-2.851-4.2-4.419-6.394-1.27-1.79-2.689-3.7-4.458-6.038-.869-1.143-1.55-2-2.211-2.8s-1.385-1.612-2.35-2.665c-1.458-1.6-3.192-3.474-5.034-5.288q-.594-.589-1.211-1.179v-2.964q1.3,1.2,2.513,2.408c1.875,1.853,3.635,3.75,5.11,5.366.987,1.077,1.733,1.922,2.415,2.739s1.383,1.708,2.273,2.878c1.783,2.347,3.215,4.284,4.5,6.088,1.581,2.218,3.079,4.389,4.456,6.45.663.995,1.371,2.062,2.012,3.135.734,1.22,1.377,2.339,1.962,3.412s1.186,2.122,1.786,3.2l.3.532c.6,1.065,1.193,2.125,1.778,3.2q.912,1.678,1.8,3.374c.548,1.046,1.079,2.121,1.727,3.488,1.114,2.339,2.142,4.763,3.085,7.029.279.66.547,1.329.821,2l2.1,5.187c-.118-1.156-.24-2.248-.38-3.347l-.384-2.913c-.218-1.683-.431-3.309-.624-4.94-.279-2.379-.614-4.825-1.044-7.7l-.15-.983c-.321-2.1-.678-4.464-.959-6.751l-.124-1.018c-.119-.956-.24-1.922-.331-2.884-.142-1.467-.249-2.7-.33-3.84a1.211,1.211,0,0,1-.04-.22c-.111-1.241-.22-2.49-.321-3.735l-.249-3.3c-.127-1.536-.237-3.083-.346-4.622q-.123-1.719-.251-3.445c-.16-1.994-.288-3.991-.417-6l-.128-1.985c-.049-.717-.106-1.438-.164-2.167-.05-.635-.1-1.23-.137-1.828-.079-1.071-.165-2.335-.217-3.588-.12-2.764-.185-5.523-.191-8.189-.012-3.349.08-6.723.113-7.83.3-13.77,3.418-36.756,7.935-49.875l.073-.2c.156-.463.357-.922.517-1.3l.2-.474c.173-.415.373-.817.588-1.237l.141-.285c.206-.406.432-.8.7-1.255l.111-.2c.262-.457.539-.87.878-1.369.366-.541.719-1.031,1.076-1.519.309-.424.626-.822.957-1.224,5.007-6.116,9.987-9.348,14.389-9.348,3.8,0,8.825,2.421,11.219,13.959a40.748,40.748,0,0,1,.612,4.313c.149,1.482.25,2.815.307,4.068.15,3.4.072,6.844,0,10.17l-.017.6c-.04,1.748-.083,3.542-.186,5.321-.049.927-.113,1.847-.176,2.771l-.237,3.446c-.092,1.383-.183,2.763-.258,4.152q-.081,1.56-.172,3.117l-.029.463c-.04.708-.082,1.417-.117,2.127q-.13,2.51-.275,5.022l-.138,2.222c-.068,1.1-.135,2.173-.193,3.249-.183,3.234-.312,6.692-.394,10.576-.03,1.35-.038,2.7-.041,4.053l-.008,1.528c-.012,1.637-.048,3.272-.09,4.907-.115,4.862-.255,9.729-.393,14.589l-.191,6.67c-.032,1.077-.058,2.148-.085,3.219l-.024.885c-.057,2.2-.115,4.393-.193,6.589-.034.925-.082,1.849-.128,2.767l-.051.918c-.027.6-.06,1.192-.087,1.783l-.028.623c-.031.689-.06,1.371-.077,2.058-.027.79-.032,1.572-.036,2.356v.3c-.017,1.62.013,3.372.1,5.361.025.583.058,1.176.1,1.792l.036.616c.032.531.056,1.067.079,1.6l.053,1.14q.121,2.644.259,5.286c.064,1.242.172,2.511.277,3.737l.007.086c.323-1.776.739-3.614,1.076-5.1.165-.727.332-1.372.5-2.014l.084-.32c.241-.927.49-1.855.751-2.778.278-.993.562-1.972.852-2.959l.539-1.855c1.01-3.513,2.045-7.017,3.078-10.524.493-1.679,1-3.345,1.517-5.011l.491-1.549c.33-1.023.667-2.083.971-3.131l.8-2.748.026-.092c.742-2.549,1.485-5.1,2.207-7.661.486-1.723,1.033-3.46,1.551-5.089l.042-.138c.232-.748.476-1.507.738-2.249l.278-.8c.182-.52.364-1.041.562-1.551,1.226-3.185,2.576-6.589,4.137-9.869l.517-1.092c1.317-2.773,2.636-5.548,3.97-8.3l.223-.464c.293-.61.585-1.219.9-1.813.448-.865.9-1.731,1.367-2.59s.84-1.559,1.261-2.278c.3-.522.629-1.034.954-1.547l.268-.422c1.828-2.9,3.8-5.755,5.542-8.278l.214-.309c.515-.744,1.024-1.486,1.557-2.213q.812-1.113,1.63-2.209c1.03-1.377,1.965-2.616,2.97-3.789,2.356-2.736,4.594-5.234,6.843-7.642l1.262-1.34c.661-.7,1.321-1.4,1.974-2.11l.479-.526c.863-.945,1.915-2.1,2.97-3.129l.278-.279c.256-.258.5-.5.746-.721l.978-.883a23.339,23.339,0,0,1,1.935-1.559c1.636-1.2,2.919-2.083,4.161-2.857a17.84,17.84,0,0,1,1.972-1.1l.43-.21c.29-.136.583-.276.874-.4l.336-.153c.262-.115.534-.237.813-.342l.362-.136.111-.042a7.606,7.606,0,0,1,.738-.264l1.165-.358c.254-.078.516-.139.78-.193l.431-.092c.273-.063.555-.1.837-.145l.318-.052a21.65,21.65,0,0,1,2.386-.22l.109-.005h.094l.26-.006c.2,0,.4.008.6.019h.336a13.8,13.8,0,0,1,2.953.448,14.291,14.291,0,0,1,3.227,1.348,10.4,10.4,0,0,1,2.517,2.01,16.216,16.216,0,0,1,1.967,2.643l.121.2a8.807,8.807,0,0,1,.574,1.065,12.712,12.712,0,0,1,.589,1.585,17.67,17.67,0,0,1,.491,4.127c.02.488.023.978.027,1.469,0,.356-.015.71-.034,1.077l-.017.3c-.018.325-.058.647-.095.962l-.043.377c-.022.207-.059.425-.1.631l-.069.423c-.022.158-.047.336-.081.5l-.1.5c-.151.742-.291,1.427-.482,2.1l-.1.344c-.2.7-.415,1.5-.7,2.272-.343.918-.7,1.823-1.064,2.722-.256.631-.532,1.25-.809,1.868l-.218.488c-.785,1.761-1.469,3.176-2.151,4.452l-.125.239c-.371.7-.752,1.409-1.181,2.1-.494.792-.989,1.576-1.494,2.358-.84,1.312-1.742,2.618-2.535,3.772l-.191.273c-.974,1.423-1.958,2.8-2.872,4.062l-1.059,1.515c-1.338,1.9-2.852,4.054-4.283,6.175q-1.055,1.569-2.1,3.139l-1.155,1.724c-.653.972-1.305,1.938-1.931,2.919l-.127.195c-.874,1.377-1.754,2.763-2.578,4.146-.18.3-.358.6-.541.9l-.735,1.212c-.474.794-.937,1.6-1.4,2.414-1.428,2.53-2.969,5.393-4.845,8.994l-.207.4c-.289.559-.574,1.113-.857,1.672-.411.822-.806,1.658-1.2,2.492-.766,1.644-1.484,3.144-2.194,4.584-.756,1.539-1.523,3.069-2.289,4.592q-1.2,2.38-2.38,4.767c-.675,1.368-1.37,2.883-2.127,4.625-.163.373-.319.746-.476,1.122l-.454,1.079c-.143.337-.288.673-.433,1.012l-.559,1.283c-.694,1.622-1.386,3.244-2.106,4.863l-.158.35c-.637,1.439-1.3,2.919-1.917,4.4-.769,1.981-1.551,3.989-2.318,6,.561-.826,1.127-1.627,1.673-2.4.651-.914,1.319-1.8,1.988-2.7l1.519-2.058c.124-.169.236-.327.347-.488l.2-.273c.324-.469.655-.934.994-1.389l.07-.09c.52-.688,1.041-1.379,1.568-2.059.6-.769,1.213-1.526,1.823-2.284l.267-.327.055-.073c.326-.4.653-.812.976-1.222.15-.185.3-.369.436-.556l.082-.1c.3-.386.612-.782.936-1.155.6-.69,1.2-1.363,1.805-2.029.56-.608,1.109-1.195,1.706-1.746s1.19-1.1,1.79-1.658c.136-.128.27-.247.4-.365s.273-.239.4-.358l.277-.258c.207-.195.421-.394.641-.585.55-.49,1.3-1.136,2.151-1.769a13.821,13.821,0,0,1,1.988-1.307,25.16,25.16,0,0,1,2.365-1.069c.856-.329,1.563-.583,2.232-.8a13.223,13.223,0,0,1,2.288-.511,19.324,19.324,0,0,1,2.193-.16h.153a10.976,10.976,0,0,1,2.467.369c.39.1.779.229,1.18.367a6.973,6.973,0,0,1,2.062,1.031,8.165,8.165,0,0,1,1.307,1.283,8.451,8.451,0,0,1,1,1.444,10,10,0,0,1,1,3.075c.08.553.137,1.1.174,1.637l.009.176a10.8,10.8,0,0,1,.015,1.771,15.657,15.657,0,0,1-.931,4.016,13.83,13.83,0,0,1-1.576,3.047c-.3.436-.627.855-1,1.333,0,.008-.1.128-.106.136-.161.206-.338.4-.513.6,0,0-.08.088-.082.094l-.256.281c-.17.2-.368.4-.564.6l-.262.277c-.922.964-1.827,1.956-2.731,2.945l-.53.578c-.7.763-1.379,1.533-2.066,2.308l-1.149,1.293q-1.7,1.911-3.416,3.785a47.037,47.037,0,0,0-3.006,3.715l-.914,1.226c-.677.917-1.339,1.811-1.993,2.7-.356.509-.719,1.025-1.079,1.549Zm-115.259-7.9.445.541c.432.518.862,1.017,1.3,1.515l.158.183c.267.308.532.616.792.924.917,1.082,1.843,2.153,2.765,3.226l2.655,3.079c.627.735,1.251,1.467,1.859,2.224.243.3.479.614.715.928.165.224.287.388.408.545.336.442.671.882,1,1.327,1.308,1.744,2.709,3.573,4.544,5.927.988,1.27,1.971,2.6,2.9,3.876h-2.6c-.586-.793-1.182-1.581-1.778-2.348-1.845-2.366-3.255-4.2-4.573-5.967-.325-.438-.658-.872-.988-1.3-.133-.174-.261-.346-.389-.524-.251-.333-.471-.63-.7-.909-.6-.742-1.209-1.453-1.822-2.168l-2.642-3.076c-.935-1.08-1.864-2.157-2.785-3.245-.255-.3-.516-.6-.777-.909l-.154-.179-.325-.373v-3.3Z" fill="#fff"/>
          <g id="Group_2047-2" data-name="Group 2047">
            <path id="Path_2340-2" data-name="Path 2340" d="M2046,1080.87q-.447-1.623-.876-3.251a1.292,1.292,0,0,1,.085-.9,1.026,1.026,0,0,1,.623-.547.931.931,0,0,0,.281-.135c.029-.023.058-.043.082-.066a1.021,1.021,0,0,1,.215-.154l.308-.169c.122-.065.236-.136.346-.2a8.492,8.492,0,0,0,1.2-.915,23.313,23.313,0,0,0,2.4-2.429,14.591,14.591,0,0,0,.92-1.226c2.084-3.085,2.383-6.019,1.775-7.442a1.211,1.211,0,0,0-1.15-.868c-.564,0-2.132.363-4.473,3.745-.614.893-1.192,1.88-1.752,2.83l-.219.377c-.221.379-.445.757-.662,1.142a.954.954,0,0,1-.993.514,1.061,1.061,0,0,1-.811-.837c-.207-.905-.415-1.815-.62-2.724-.194-.87-.394-1.738-.594-2.607a1.244,1.244,0,0,1,.363-1.21.739.739,0,0,0,.1-.1,1.206,1.206,0,0,1,.164-.171,3.541,3.541,0,0,0,.625-.746c.358-.51.687-1.078.991-1.621a19.761,19.761,0,0,0,1.308-2.9,29.133,29.133,0,0,0,1.058-3.394c.13-.526.236-1.062.336-1.593.245-1.289.215-2.986-.688-3.542a1.588,1.588,0,0,0-1.838.275,7.38,7.38,0,0,0-.646.662,2.823,2.823,0,0,0-.2.279c-.084.13-.166.262-.239.394l-.15.243a26.387,26.387,0,0,0-1.4,2.569c-.205.43-.392.868-.572,1.313a1,1,0,0,1-.953.662,1.019,1.019,0,0,1-.9-.761q-.444-1.428-.921-2.846-.408-1.188-.832-2.362a1.25,1.25,0,0,1,.319-1.35,3.043,3.043,0,0,0,.578-.633,8.674,8.674,0,0,0,.732-1.394c.48-1.161.882-2.36,1.313-3.7l.092-.285a17.277,17.277,0,0,0,.888-3.5,6.265,6.265,0,0,0-.019-1.924,1.592,1.592,0,0,0-.935-1.247c-.4-.107-.775.042-1.282.507a.843.843,0,0,1-.187.13,1.206,1.206,0,0,0-.323.264,4.085,4.085,0,0,0-.306.39c-.079.111-.158.232-.239.352-.192.3-.375.6-.553.9a19.166,19.166,0,0,0-.9,1.849l-.078.174c-.172.39-.333.788-.488,1.188a1.013,1.013,0,0,1-.905.677h-.005a1,1,0,0,1-.908-.662c-.427-1.052-.917-2.272-1.362-3.488q-.725-2-1.417-4a1.3,1.3,0,0,1,.047-.966,1.011,1.011,0,0,1,.675-.579l.09-.025a1.7,1.7,0,0,0,.57-.361.7.7,0,0,1,.146-.11,1.523,1.523,0,0,0,.4-.359,7.166,7.166,0,0,0,.391-.606l.148-.247c.258-.423.49-.864.721-1.306l.05-.094q.819-1.56,1.6-3.15a18.151,18.151,0,0,0,1.381-4.012,12.077,12.077,0,0,0,.23-1.979,3.343,3.343,0,0,0-.306-1.611,1.42,1.42,0,0,0-.85-.79,1.576,1.576,0,0,0-.7,0,2.1,2.1,0,0,0-.6.346,7.931,7.931,0,0,0-1.136,1.414c-.334.512-.644,1.069-.935,1.6-.629,1.132-1.1,2.069-1.486,2.952-.4.922-.761,1.85-1.06,2.638a1,1,0,0,1-.915.688h-.012a1.007,1.007,0,0,1-.913-.717c-.339-.954-.653-1.78-.965-2.526a1.158,1.158,0,0,0-.145-.238,1.247,1.247,0,0,1-.242-.979.892.892,0,0,0-.01-.334c-.179-.777-.28-1.559-.38-2.312q-.054-.423-.113-.842a14.558,14.558,0,0,0-.939-3.278c-1.8-4.483-3.69-6.076-4.76-6.076a1.045,1.045,0,0,0-.937.671c-.6,1.129-.709,3.73.943,7.342a26.8,26.8,0,0,0,1.85,3.307,19.616,19.616,0,0,0,1.709,2.383,9.527,9.527,0,0,0,.7.681l.1.088a1.113,1.113,0,0,1,.321.537c.023.069.046.146.075.23.082.239.17.493.25.744l.683,2.132a1.271,1.271,0,0,1-.233,1.2.9.9,0,0,1-1.052.264c-.185-.08-.379-.151-.572-.224s-.373-.145-.554-.219l-.5-.209a13.342,13.342,0,0,0-1.82-.673,4.209,4.209,0,0,0-2.2-.163,2.8,2.8,0,0,0-1.245.79,3.881,3.881,0,0,0-.346.446,1.349,1.349,0,0,0-.162.3l-.11.625a2.526,2.526,0,0,0,.1.679c.12.249.239.48.367.7a5.376,5.376,0,0,0,.6.672,6.626,6.626,0,0,0,1.448,1.015,22.859,22.859,0,0,0,2.36,1.146,29.316,29.316,0,0,0,4.486,1.32,6.4,6.4,0,0,1,1.022.336.821.821,0,0,0,.3.059,1.04,1.04,0,0,1,.953.721c.184.528.369,1.052.558,1.578.5,1.383,1.064,2.773,1.607,4.121.218.538.436,1.079.651,1.618a1.274,1.274,0,0,1-.2,1.28.91.91,0,0,1-1.111.247,15.576,15.576,0,0,0-1.486-.664,7.035,7.035,0,0,0-2.513-.492c-2.407,0-4.03,1.435-4.032,2.777-.007,1.637,2.531,3.424,8.119,3.475h.467a17.319,17.319,0,0,1,2.18.109.741.741,0,0,1,.174.042,3.634,3.634,0,0,1,.5.211.4.4,0,0,0,.1.034,1.055,1.055,0,0,1,.736.708l.1.283c.509,1.514,1.028,3.119,1.636,5.054a1.266,1.266,0,0,1-.281,1.247.9.9,0,0,1-1.115.157q-.36-.207-.718-.4l-.187-.1a9.908,9.908,0,0,0-1.054-.531,15.817,15.817,0,0,0-3.2-.9,8.689,8.689,0,0,0-1.287-.129c-.106,0-.213-.007-.319-.007a1.937,1.937,0,0,0-1.41.382,3.294,3.294,0,0,0-.316.391,1.122,1.122,0,0,0-.159.355,2,2,0,0,0,.09,1.3,3.631,3.631,0,0,0,1.129,1.277,7.53,7.53,0,0,0,1.385.788l.12.057a31.722,31.722,0,0,0,2.974,1.207l.694.258c.677.251,1.382.513,2.067.714.574.162,1.159.306,1.743.438l.172.036a4.987,4.987,0,0,0,.759.14,1.037,1.037,0,0,1,.9.847q.248,1.073.486,2.15l.143.617q.222,1.005.456,2.016a1.251,1.251,0,0,1-.333,1.18.906.906,0,0,1-1.077.138,14.747,14.747,0,0,0-2.472-1.169,18.991,18.991,0,0,0-3.141-.807c-.554-.092-1.015-.147-1.451-.182a3.625,3.625,0,0,0-1.8.272,1.372,1.372,0,0,0-.49.48.845.845,0,0,0-.061.1,1.8,1.8,0,0,0-.176.4c-.02.119-.046.262-.07.408.005.162.015.323.026.485a2.357,2.357,0,0,0,.316.672,2.95,2.95,0,0,0,.342.436,7.272,7.272,0,0,0,1.5,1.226,12.268,12.268,0,0,0,2.867,1.31c.392.122.8.227,1.2.332l.188.052c1.017.262,2.04.465,3.274.69.3.056.6.1.908.146l.4.059c.177.033.336.067.494.1a.421.421,0,0,0,.107.01,1.555,1.555,0,0,1,.305.008,1.152,1.152,0,0,1,.911.81c.118.439.238.873.358,1.305l.642,2.281h-2.1l-.446-1.575c-.051-.2-.106-.4-.16-.593-.143-.027-.271-.056-.4-.079l-.365-.055c-.323-.046-.647-.1-.966-.157-1.268-.231-2.331-.442-3.4-.721l-.193-.052c-.423-.111-.85-.222-1.27-.354a14.215,14.215,0,0,1-3.3-1.5,9.422,9.422,0,0,1-1.909-1.562,5.155,5.155,0,0,1-.583-.75,4.287,4.287,0,0,1-.7-1.828c-.02-.232-.031-.482-.039-.735a1.256,1.256,0,0,1,.019-.294l.1-.555a4.043,4.043,0,0,1,.413-1.076c.044-.092.109-.2.178-.312a3.446,3.446,0,0,1,1.38-1.249,5.5,5.5,0,0,1,2.639-.415c.485.036,1,.1,1.6.2a21.356,21.356,0,0,1,3.439.887c.278.1.562.207.849.331l-.078-.356q-.156-.693-.316-1.39c-.1-.025-.2-.046-.294-.069l-.163-.034c-.618-.14-1.237-.289-1.853-.467-.752-.22-1.482-.493-2.188-.755l-.685-.253a33.79,33.79,0,0,1-3.146-1.277l-.114-.057a9.168,9.168,0,0,1-1.743-1.01,5.547,5.547,0,0,1-1.793-2.158,4.546,4.546,0,0,1-.242-2.834,3.428,3.428,0,0,1,.507-1.2,5.133,5.133,0,0,1,.559-.7,3.639,3.639,0,0,1,2.764-.992c.133,0,.261.005.387.011a10.421,10.421,0,0,1,1.548.157,18.316,18.316,0,0,1,3.525.989c-.251-.775-.492-1.505-.728-2.213-.048-.021-.1-.038-.141-.059a17.115,17.115,0,0,0-1.867-.079h-.474c-7.461-.071-10.109-3.03-10.1-5.776.01-2.834,2.658-5.057,6.03-5.057a8.467,8.467,0,0,1,2.492.387c-.438-1.092-.88-2.207-1.285-3.332-.117-.321-.233-.65-.348-.975a2.979,2.979,0,0,1-.314-.107,4.622,4.622,0,0,0-.741-.245,31.309,31.309,0,0,1-4.749-1.408,24.364,24.364,0,0,1-2.552-1.235,8.586,8.586,0,0,1-1.871-1.331,7.337,7.337,0,0,1-.875-.991.723.723,0,0,1-.055-.082,8.538,8.538,0,0,1-.5-.951,4.615,4.615,0,0,1-.339-1.987,1.221,1.221,0,0,1,.018-.156l.13-.721a3.256,3.256,0,0,1,.516-1.2,5.806,5.806,0,0,1,.569-.734,4.718,4.718,0,0,1,2.094-1.341,5.97,5.97,0,0,1,3.171.142,12.864,12.864,0,0,1,1.684.6c-.059-.182-.124-.366-.183-.545l-.005-.012a9.764,9.764,0,0,1-.727-.728,21.09,21.09,0,0,1-1.916-2.659,29.258,29.258,0,0,1-2.005-3.59c-1.731-3.78-2.062-7.368-.887-9.6a3.019,3.019,0,0,1,2.648-1.773c2.289,0,4.686,2.7,6.572,7.409a16.884,16.884,0,0,1,1.094,3.854c.042.292.082.587.12.877.1.729.186,1.417.338,2.073a3.706,3.706,0,0,1,.087.785,2.782,2.782,0,0,1,.174.355c.038.09.078.184.118.276.052-.129.107-.257.165-.387.415-.954.92-1.962,1.587-3.157.308-.561.644-1.161,1.021-1.739a10.079,10.079,0,0,1,1.465-1.8,3.788,3.788,0,0,1,1.192-.734,3.136,3.136,0,0,1,1.652-.119,3.334,3.334,0,0,1,2.276,1.857,5.827,5.827,0,0,1,.6,2.959,14.694,14.694,0,0,1-.289,2.4,20.429,20.429,0,0,1-1.576,4.565q-.79,1.621-1.628,3.215l-.049.092c-.255.484-.512.973-.794,1.438l-.138.224a8.473,8.473,0,0,1-.549.843,3.605,3.605,0,0,1-.874.807c-.109.092-.216.176-.321.254q.51,1.47,1.042,2.928c.151.41.3.813.455,1.217a14.792,14.792,0,0,1,.689-1.343c.193-.338.4-.671.613-1,.089-.136.179-.266.269-.4a6.623,6.623,0,0,1,.44-.562,4.971,4.971,0,0,1,3.685-1.536,3.707,3.707,0,0,1,2.418,2.949,8.689,8.689,0,0,1,.058,2.72,19.391,19.391,0,0,1-1,4.037l-.091.273c-.451,1.391-.866,2.642-1.384,3.889a11.251,11.251,0,0,1-.932,1.778,4.29,4.29,0,0,1-.377.495c.2.549.383,1.1.57,1.647.058.163.111.327.165.494.377-.739.732-1.364,1.09-1.936l.134-.22c.092-.151.185-.3.281-.451a5.082,5.082,0,0,1,.348-.48,8.089,8.089,0,0,1,.765-.794l.066-.065a3.419,3.419,0,0,1,4.055-.522c1.877,1.159,2.1,3.88,1.691,6.041-.107.572-.224,1.148-.361,1.72a31.694,31.694,0,0,1-1.15,3.693,22.231,22.231,0,0,1-1.467,3.238c-.332.589-.7,1.214-1.1,1.8a7.268,7.268,0,0,1-.725.909q.221.963.44,1.937c.017.077.036.159.056.245.474-.807.965-1.622,1.505-2.4,2.637-3.816,4.739-4.615,6.035-4.615a3.2,3.2,0,0,1,2.945,2.147c1.1,2.573.316,6.438-1.992,9.855a15.5,15.5,0,0,1-1.071,1.418,25.639,25.639,0,0,1-2.613,2.654,10.649,10.649,0,0,1-1.42,1.081c-.2.118-.332.2-.472.279l-.236.128c-.019.019-.042.034-.064.052q.32,1.192.645,2.377c.05-.077.1-.155.148-.232a10.783,10.783,0,0,1,3.008-3.167l.088-.059a7.041,7.041,0,0,1,1.7-.889,4.39,4.39,0,0,1,1.069-.2l.136-.008a3.06,3.06,0,0,1,1.35.381l.134.063a3.607,3.607,0,0,1,1.374,1.448,5.924,5.924,0,0,1,.364.858,6.074,6.074,0,0,1,.142,2.4h-2.033v-.013a3.647,3.647,0,0,0,.011-1.628,4.817,4.817,0,0,0-.212-.476,2.087,2.087,0,0,0-.422-.484l-.12-.055a1.561,1.561,0,0,0-.588-.2,2.794,2.794,0,0,0-.683.127,5.276,5.276,0,0,0-1.234.669l-.087.055a8.106,8.106,0,0,0-2.02,2.01Zm-8.548,0h.005a4.59,4.59,0,0,1,1.069-.114l.209.008a5.293,5.293,0,0,1,.933.11Zm48.9,0c1.138-1.22,1.535-2.272,1.367-2.9-.14-.543-.795-.878-1.71-.878a7.247,7.247,0,0,0-3.922,1.5c-.314.218-.617.453-.914.7a.9.9,0,0,1-1.14.017,1.2,1.2,0,0,1-.436-.842,1.354,1.354,0,0,1,.025-.449l.1-.425c.009-.026.015-.051.023-.078l.088-.392.1.021a.607.607,0,0,1,.067-.084l-.144-.04a1.033,1.033,0,0,1,.024-.106l.159-.669c0-.006.024-.09.024-.094l.151-.627c0-.006.025-.1.027-.107a.294.294,0,0,0,.01-.038c.431-1.746.923-3.485,1.4-5.174l.5-1.772a.992.992,0,0,1,1.1-.781,6.762,6.762,0,0,0,1.136.079l.837-.01c1.036-.015,2.076-.046,3.11-.08a24.8,24.8,0,0,0,3.7-.419,8.355,8.355,0,0,0,1.625-.505,7.8,7.8,0,0,0,1.835-1.012,5.167,5.167,0,0,0,.615-.579l.157-.233c.025-.037.05-.073.077-.106a1.254,1.254,0,0,0,.275-.562.886.886,0,0,1,.035-.13,2.288,2.288,0,0,0-.169-1.748,2.909,2.909,0,0,0-1.96-1.155,13.428,13.428,0,0,0-1.476-.268,17.307,17.307,0,0,0-3.32-.187,11.678,11.678,0,0,0-1.347.174l-.229.038a15.866,15.866,0,0,0-1.607.319,7.008,7.008,0,0,0-.711.243.91.91,0,0,1-1.031-.281,1.275,1.275,0,0,1-.233-1.184c.924-3.023,2.019-6.175,3.337-9.631a.991.991,0,0,1,1.079-.673c.135.027.273.057.409.086.338.077.672.157,1,.237.607.146,1.212.291,1.825.4a15.475,15.475,0,0,0,2.755.214h.477c4.92-.091,7.193-2.52,7.181-4.134-.011-1.586-2.229-3.3-6.991-3.081a21.891,21.891,0,0,0-3.3.353.951.951,0,0,1-.968-.437,1.274,1.274,0,0,1-.1-1.186l2.191-5.284c.577-1.394,1.205-2.837,1.922-4.4a.954.954,0,0,1,1.178-.564,9.913,9.913,0,0,0,1.466.369c1.153.21,2.348.352,3.466.476.334.037.671.083,1.011.123.674.086,1.312.168,1.954.2a13.151,13.151,0,0,0,2.294-.045,10.354,10.354,0,0,0,1.859-.442,5.846,5.846,0,0,0,2.044-1.282,2.728,2.728,0,0,0,.8-1.279,2.262,2.262,0,0,0-.123-1.641,3.363,3.363,0,0,0-1.636-1.272,9.849,9.849,0,0,0-3.045-.906,19.3,19.3,0,0,0-6.455.245.952.952,0,0,1-1-.477,1.3,1.3,0,0,1-.03-1.248c.424-.8.856-1.6,1.287-2.393.881-1.629,1.778-3.354,2.661-5.125.251-.5.506-.983.76-1.471a.94.94,0,0,1,1.2-.48,2.076,2.076,0,0,0,.279.092c.151.04.291.065.428.09l.5.1c.386.075.772.155,1.157.258.833.224,1.826.476,2.858.651a20.983,20.983,0,0,0,3.449.3c5.693,0,8.392-2.708,8.422-4.538.027-1.663-2.1-3.542-6.833-3.748l-.283-.013c-.621-.024-1.245-.054-1.866-.054a11.464,11.464,0,0,0-2.668.266c-.186.044-.371.093-.551.143a.934.934,0,0,1-1.059-.459,1.277,1.277,0,0,1,0-1.3c.511-.853,1.009-1.712,1.508-2.573l.657-1.145c.236-.417.476-.834.716-1.245.179-.3.351-.606.521-.916l.313-.574c.1-.166.178-.323.255-.484a1.506,1.506,0,0,1,.132-.317,9.4,9.4,0,0,0,.49-.918,1.057,1.057,0,0,1,.489-.524c.155-.077.31-.165.463-.245.344-.193.681-.4,1.017-.627q1.106-.753,2.2-1.544a14.4,14.4,0,0,0,2.132-1.872,7.24,7.24,0,0,0,1.235-1.922,8.16,8.16,0,0,0,.689-2.236c.057-.39.107-.79.129-1.182a6.885,6.885,0,0,0-.12-1.52,4.28,4.28,0,0,0-.4-1.138,2.162,2.162,0,0,0-1-.953,1.85,1.85,0,0,0-.653-.2,3.966,3.966,0,0,0-.877-.033,4.142,4.142,0,0,0-.852.2,8.883,8.883,0,0,0-1.335.591c-.064.034-.133.071-.2.113a6.573,6.573,0,0,0-1.994,2.113,16.2,16.2,0,0,0-1.368,2.609,35.855,35.855,0,0,0-1.342,3.9l-.1.32a14.888,14.888,0,0,0-.437,1.658l-.111.644c-.082.474-.165.945-.265,1.412a.9.9,0,0,0-.008.294,1.29,1.29,0,0,1-.149.828l-.211.375c-.118.212-.231.421-.35.616-.288.476-.573.958-.854,1.44l-.628,1.058c-.845,1.413-1.718,2.872-2.62,4.285a.938.938,0,0,1-1.137.417,1.135,1.135,0,0,1-.676-1.109v-.136a24.362,24.362,0,0,0-.16-3.469,16.507,16.507,0,0,0-.836-3.681c-.411-1.136-.921-2.387-1.765-2.789a1.329,1.329,0,0,0-1.171-.007,1.474,1.474,0,0,0-.187.095,1.563,1.563,0,0,0-.423.394,2.93,2.93,0,0,0-.344.6l-.066.134a4.452,4.452,0,0,0-.19.652l-.025.1c-.063.264-.109.518-.146.784a11.862,11.862,0,0,0-.019,2.475,21.032,21.032,0,0,0,.627,3.289c.142.578.343,1.159.517,1.657.206.589.468,1.163.744,1.771.185.409.371.816.541,1.233.133.327.258.649.383.972.1.265.206.531.315.795a1.386,1.386,0,0,1,.06.207,1.416,1.416,0,0,0,.219.545,1.281,1.281,0,0,1,.085,1.325q-.792,1.5-1.559,3.026c-.719,1.419-1.484,2.823-2.222,4.178-.366.67-.729,1.339-1.091,2.014l-.107.2a.955.955,0,0,1-.992.534,1.056,1.056,0,0,1-.821-.834c-.061-.256-.123-.516-.2-.77-.3-1.1-.616-2.2-.927-3.3l-.1-.341c-.134-.472-.283-.945-.436-1.411a8.442,8.442,0,0,0-.47-1.083l-.117-.241a2.89,2.89,0,0,0-1.131-1.1,2.185,2.185,0,0,0-1.053-.2,3.167,3.167,0,0,0-.354.013,1.2,1.2,0,0,0-.549.182,1.653,1.653,0,0,0-.475.442,3.486,3.486,0,0,0-.531,1.719,15.069,15.069,0,0,0,.587,4.676,18.97,18.97,0,0,0,1.322,3.439,21.665,21.665,0,0,0,1.561,2.782c.269.4.556.779.843,1.155l.139.184a1.281,1.281,0,0,1,.125,1.285c-1.475,3.194-2.852,6.529-4.183,9.752l-.7,1.7a.926.926,0,0,1-.935.65,1.016,1.016,0,0,1-.9-.723c-.061-.178-.122-.357-.189-.533l-.268-.75c-.212-.593-.413-1.155-.644-1.7-.257-.6-.511-1.184-.8-1.716-.1-.183-.2-.344-.3-.508a3.291,3.291,0,0,0-1.111-1.1,1.536,1.536,0,0,0-1.508.071,1.333,1.333,0,0,0-.259.2,3.46,3.46,0,0,0-.746,1.13,4.721,4.721,0,0,0-.208,1.861,9.739,9.739,0,0,0,.243,1.625,12.887,12.887,0,0,0,.455,1.677,11.812,11.812,0,0,0,.965,2.02,18.1,18.1,0,0,0,1.528,2.188l.123.159a13.656,13.656,0,0,1,1.251,1.761,1.433,1.433,0,0,1,.18,1.253l-.043.109c-.826,2.17-1.635,4.467-2.471,7.007q-.4,1.211-.775,2.429a1.024,1.024,0,0,1-.925.763,1,1,0,0,1-.945-.727c-.081-.237-.166-.469-.258-.706a11.785,11.785,0,0,0-1.625-2.968,7.436,7.436,0,0,0-1.549-1.62,2.713,2.713,0,0,0-1.441-.615c-.242,0-.443.08-.618.487-.7,1.568-.076,5.506,1.8,8.425.376.594.771,1.166,1.166,1.742l1.205,1.778a8.413,8.413,0,0,0,.541.7,1.27,1.27,0,0,1,.224,1.134l-.174.622-.855,3.06c-.524,1.851-1,3.662-1.4,5.385a1.858,1.858,0,0,0-.053.224c-.094.41-.17.744-.244,1.087a1.053,1.053,0,0,1-.85.852.97.97,0,0,1-1-.6c-.219-.478-.449-.949-.682-1.419-2.012-4.074-3.986-5.527-5.164-5.527a1.2,1.2,0,0,0-1.147.86c-.5,1.234-.171,3.619,1.694,6.157a28.934,28.934,0,0,0,2.3,2.832l.2.21h-2.835c-.38-.472-.776-.988-1.2-1.57-2.589-3.534-2.717-6.758-1.97-8.593a3.2,3.2,0,0,1,2.955-2.183c2.106,0,4.405,2.065,6.4,5.712.325-1.321.7-2.718,1.1-4.137.285-1.009.57-2.025.853-3.037-.094-.118-.183-.244-.268-.371l-1.2-1.763c-.405-.595-.815-1.189-1.207-1.8-2.2-3.435-3.085-8.289-1.966-10.815.847-1.923,2.71-2.316,4.883-.79a9.37,9.37,0,0,1,2,2.054,12.941,12.941,0,0,1,1.187,1.855c.778-2.364,1.537-4.523,2.309-6.575-.25-.385-.546-.758-.853-1.144l-.129-.161a20.774,20.774,0,0,1-1.712-2.459,14.278,14.278,0,0,1-1.156-2.435,15,15,0,0,1-.537-1.983,11.449,11.449,0,0,1-.3-2.111,6.88,6.88,0,0,1,.42-2.963,5.823,5.823,0,0,1,1.209-1.807,3.4,3.4,0,0,1,.646-.505,3.333,3.333,0,0,1,3.424-.042,5.462,5.462,0,0,1,1.758,1.771c.126.2.248.409.365.624.336.617.615,1.258.9,1.916.107.25.2.5.3.748,1.163-2.815,2.362-5.7,3.643-8.515-.208-.281-.412-.56-.608-.851a24.433,24.433,0,0,1-1.733-3.083,21.278,21.278,0,0,1-1.486-3.9,17.413,17.413,0,0,1-.658-5.5,5.832,5.832,0,0,1,.98-2.994,3.762,3.762,0,0,1,1.086-1.007,3.017,3.017,0,0,1,1.381-.446c.145-.008.295-.011.451-.011a3.827,3.827,0,0,1,1.957.451,4.957,4.957,0,0,1,1.969,2.027l.113.226a10.238,10.238,0,0,1,.6,1.411c.162.5.315.991.46,1.492l.1.346c.164.585.331,1.165.5,1.752.015-.033.031-.059.046-.094.733-1.339,1.488-2.727,2.188-4.11q.625-1.239,1.268-2.469a4.245,4.245,0,0,1-.2-.617c-.1-.245-.191-.492-.288-.737-.119-.312-.238-.617-.364-.927-.159-.385-.332-.767-.5-1.148-.285-.629-.582-1.279-.826-1.972-.193-.552-.413-1.2-.586-1.887a22.666,22.666,0,0,1-.691-3.706,14.09,14.09,0,0,1,.034-3.043,10.461,10.461,0,0,1,.195-1.041l.023-.093a5.7,5.7,0,0,1,.379-1.174l.06-.125a5.124,5.124,0,0,1,.628-1.044,3.65,3.65,0,0,1,.948-.851,4.228,4.228,0,0,1,.385-.2,3.113,3.113,0,0,1,2.671.025c1.679.8,2.435,2.9,2.842,4.026a19.316,19.316,0,0,1,.972,4.247c.019.182.042.362.058.538.307-.505.608-1.01.908-1.509l.618-1.046c.288-.492.576-.983.871-1.469.1-.17.2-.35.3-.534l.039-.07a3.45,3.45,0,0,1,.074-.741c.092-.434.168-.876.247-1.312l.117-.665a16.233,16.233,0,0,1,.505-1.951l.095-.315a39.023,39.023,0,0,1,1.44-4.166,19.429,19.429,0,0,1,1.569-2.979,8.8,8.8,0,0,1,2.646-2.743c.1-.061.2-.12.312-.176a10.532,10.532,0,0,1,1.609-.7,5.5,5.5,0,0,1,1.235-.283,5.3,5.3,0,0,1,1.27.037,3.543,3.543,0,0,1,1.191.355,4.27,4.27,0,0,1,1.98,1.965,6.611,6.611,0,0,1,.62,1.835,9.85,9.85,0,0,1,.149,2.068c-.031.514-.1,1.023-.152,1.407a10.645,10.645,0,0,1-.891,2.934,9.713,9.713,0,0,1-1.643,2.528,16.2,16.2,0,0,1-2.434,2.141c-.743.537-1.494,1.067-2.25,1.575-.414.283-.8.517-1.167.721-.07.04-.14.075-.211.113-.118.234-.243.457-.365.668-.01.025-.017.051-.026.078l-.035.084c-.119.251-.24.492-.377.727l-.3.555c-.18.325-.36.652-.552.973-.234.4-.467.809-.7,1.215l-.668,1.158-.239.417a28.727,28.727,0,0,1,3.292,0l.283.012c6.527.286,8.795,3.453,8.752,6.081-.056,3.372-3.652,6.784-10.418,6.784a22.715,22.715,0,0,1-3.737-.327c-1.1-.188-2.155-.455-3.035-.691-.342-.091-.687-.164-1.032-.231l-.486-.1c-.086-.017-.17-.034-.253-.049-.122.235-.241.466-.362.707-.891,1.783-1.8,3.531-2.694,5.185-.058.109-.114.218-.178.323a21.723,21.723,0,0,1,4.906.067,11.675,11.675,0,0,1,3.594,1.073,5.178,5.178,0,0,1,2.579,2.211,4.859,4.859,0,0,1,.293,3.553,5.12,5.12,0,0,1-1.438,2.328,7.71,7.71,0,0,1-2.721,1.684,11.622,11.622,0,0,1-2.188.522,14.874,14.874,0,0,1-2.617.058c-.709-.031-1.414-.124-2.1-.212-.325-.041-.649-.083-.978-.117-1.151-.128-2.381-.277-3.587-.5-.285-.056-.6-.115-.927-.2-.553,1.233-1.055,2.39-1.523,3.521l-1.41,3.4c.582-.054,1.156-.088,1.7-.115,6.7-.307,9.052,2.752,9.071,5.349.025,3.118-3.111,6.329-9.145,6.446h-.51a17.1,17.1,0,0,1-3.059-.24c-.646-.115-1.287-.27-1.93-.421-.19-.048-.381-.094-.571-.138-.88,2.337-1.653,4.535-2.339,6.652.267-.052.531-.1.789-.136l.221-.039a14.387,14.387,0,0,1,1.543-.195,18.821,18.821,0,0,1,3.643.2,15.214,15.214,0,0,1,1.668.3,4.665,4.665,0,0,1,3.263,2.234,4.863,4.863,0,0,1,.332,3.651,3.681,3.681,0,0,1-.719,1.49l-.174.26a.866.866,0,0,1-.1.136,7.461,7.461,0,0,1-.933.878,9.753,9.753,0,0,1-2.286,1.271,10.265,10.265,0,0,1-1.975.61,26.877,26.877,0,0,1-3.951.448q-1.57.051-3.146.076h-.289c-.356.006-.7.017-1.149-.005l-.253.9c-.461,1.637-.936,3.328-1.356,5.009a7.974,7.974,0,0,1,3.813-1.113,3.493,3.493,0,0,1,3.624,2.5,4.691,4.691,0,0,1-.654,3.557Z" fill="#fff"/>
          </g>
        </g>
      </g>
      <path id="Path_2407" data-name="Path 2407" d="M3998.01,844.508h-2215V721.153a43.117,43.117,0,0,1,4.406-.231,37.238,37.238,0,0,1,23.091,7.811,34.969,34.969,0,0,1,7.535,7.81,109.6,109.6,0,0,1,1.731-21.129,91.255,91.255,0,0,1,4.2-15.373,56.78,56.78,0,0,1,6.232-12.568,61.931,61.931,0,0,1,12,18.482,107.959,107.959,0,0,1,6.427,20.211,135.794,135.794,0,0,1,3.059,22.959,45.039,45.039,0,0,1,3.284-5.758,91.561,91.561,0,0,1-.29-19.589c.464-5.625,1.156-9.438,1.162-9.472.366-.012.739-.018,1.108-.018a41.6,41.6,0,0,1,14.216,2.684,62.282,62.282,0,0,1,11.836,5.907,70.4,70.4,0,0,1,11.1,8.592,126.433,126.433,0,0,1-1.965-19.93,109.754,109.754,0,0,1,.77-15.231,68.169,68.169,0,0,1,2.722-13.151c5.951.234,11.423,3.079,16.265,8.454,3.873,4.3,7.352,10.22,10.341,17.595a122.206,122.206,0,0,1,5.449,17.4c1.032,4.378,1.532,7.522,1.586,7.866v.01c3.951-29.434,24.214-30.925,28.236-30.925.333,0,.554.011.637.015h.019a92.3,92.3,0,0,1,2.621,10.859,57.325,57.325,0,0,1,11.176,7.381,65.978,65.978,0,0,1,12.123,13.524,114.359,114.359,0,0,1,2.731-18.944,87.221,87.221,0,0,1,4.225-13.3,48.114,48.114,0,0,1,5.586-10.422c4.193,3.893,7.752,9.607,10.58,16.984a100.941,100.941,0,0,1,5.027,19c7.344-9.786,15.869-16,25.336-18.457l.006.013a90.438,90.438,0,0,1,2.181,10.544,26.3,26.3,0,0,1,5.458-.593,17.066,17.066,0,0,1,3.667.338,72.889,72.889,0,0,1,1.2,13.9,92.454,92.454,0,0,1-1.01,12.779,59.524,59.524,0,0,1,13.979-3.353c-2.28-9.246-4.509-22.171-2.184-31.23a32.927,32.927,0,0,1,6.617,5.518,42.732,42.732,0,0,1,5.567,7.313,44.8,44.8,0,0,1,4.668,10.721c-.886-8.806-.688-20.838,5.275-28.146a16.162,16.162,0,0,1,3.92,2.7,47.369,47.369,0,0,1,9.232,11.669,39.371,39.371,0,0,1,12-6.5.05.05,0,0,1,0,.012v.014c.085.818.514,5.184.57,10.852.057,5.707-.264,13.924-2.117,20.665.3.988.6,2.058.86,3l.035.128.01.033v-.006a19.626,19.626,0,0,1,3.523-8.75,19.355,19.355,0,0,1,7.1-6.02,28.866,28.866,0,0,1,13.054-2.736,56.223,56.223,0,0,1,11.414,1.3v.012a49.272,49.272,0,0,1-1.257,6.369,47.724,47.724,0,0,1-5.436,13.027l7.173-.088a31.76,31.76,0,0,1,6.085-1.167,47.614,47.614,0,0,1-4.923-10.971,41.1,41.1,0,0,1-1.256-5.089,27.151,27.151,0,0,1,7.493-1.114,21.482,21.482,0,0,1,7.59,1.35,21.185,21.185,0,0,1,5.358,2.97,19.252,19.252,0,0,1,4.225,4.32,61.8,61.8,0,0,1,.975-11.907,51.508,51.508,0,0,1,2.366-8.663,32.66,32.66,0,0,1,3.511-7.085,34.913,34.913,0,0,1,6.762,10.416,60.776,60.776,0,0,1,3.621,11.389,78.371,78.371,0,0,1,1.725,12.94,24.842,24.842,0,0,1,1.835-3.212,60.6,60.6,0,0,1,.51-16.321c.206-.007.408-.01.622-.01a23.521,23.521,0,0,1,8.009,1.505,35.082,35.082,0,0,1,6.668,3.312,39.7,39.7,0,0,1,6.25,4.814,67.343,67.343,0,0,1-.673-19.818,39.5,39.5,0,0,1,1.532-7.415c3.4.131,6.529,1.779,9.29,4.9a24.6,24.6,0,0,1,13.421,4.065,117.6,117.6,0,0,1-1.683-16.753,46.349,46.349,0,0,1,16.139,12.7,22.424,22.424,0,0,1,6.5-4.807,36.574,36.574,0,0,1,4.817,14.126,27.954,27.954,0,0,1,2.593-1.526,41.6,41.6,0,0,1,6.113-6.831,31.518,31.518,0,0,1,5.415-3.889,19.143,19.143,0,0,1,5.345-2.152,76.7,76.7,0,0,1,.035,13.037,60.559,60.559,0,0,1-1.545,9.475,56.039,56.039,0,0,1,7.844,4.2c.141.015.288.034.446.057a65.426,65.426,0,0,1,.674-15.429,87.774,87.774,0,0,1,3.182-13.224,83.408,83.408,0,0,1,5.167-12.714c3.775,1.815,7.384,5.111,10.728,9.8a72.238,72.238,0,0,1,7.47,13.792,117.154,117.154,0,0,1,5.788,17.619c.429-1.043.893-2.035,1.375-2.95A86.93,86.93,0,0,1,2312.82,720a103.527,103.527,0,0,1-4.55-25.086h.01a32.761,32.761,0,0,1,4.911-.322,39.023,39.023,0,0,1,18.588,4.519c8.228,4.508,13.982,12.13,17.1,22.654v-.023a136.546,136.546,0,0,1,1.754-19.7,63.46,63.46,0,0,1,4.11-14.8c2.147-4.853,4.829-7.994,7.97-9.337.125.123,3.068,3.1,5.783,10.238a72.855,72.855,0,0,1,3.736,14.794,127.665,127.665,0,0,1,1.193,23.019l.006-.007a29.732,29.732,0,0,1,5.539-3.371,72.806,72.806,0,0,1-2.688-10.136,47.884,47.884,0,0,1,13.167-1.954,37.231,37.231,0,0,1,23.091,7.811,34.415,34.415,0,0,1,7.535,7.812,109.526,109.526,0,0,1,1.732-21.131,91.278,91.278,0,0,1,4.2-15.372,57.928,57.928,0,0,1,6.232-12.57,61.93,61.93,0,0,1,12,18.484,107.861,107.861,0,0,1,6.427,20.211,135.336,135.336,0,0,1,3.059,22.962,44.724,44.724,0,0,1,3.286-5.762,91.593,91.593,0,0,1-.29-19.587c.453-5.5,1.156-9.441,1.162-9.473.377-.012.75-.018,1.11-.018a41.568,41.568,0,0,1,14.215,2.685,62.177,62.177,0,0,1,11.835,5.906,70.391,70.391,0,0,1,11.095,8.591,126.678,126.678,0,0,1-1.965-19.931,110.1,110.1,0,0,1,.77-15.231,68.667,68.667,0,0,1,2.721-13.151c5.954.235,11.426,3.08,16.266,8.454,3.874,4.3,7.353,10.222,10.341,17.6a122.356,122.356,0,0,1,5.449,17.4c1.055,4.474,1.535,7.537,1.586,7.872,3.95-29.428,24.213-30.919,28.235-30.919.4,0,.632.014.657.016A91.493,91.493,0,0,1,2562.82,704a57.393,57.393,0,0,1,11.18,7.38,65.988,65.988,0,0,1,12.127,13.522,114.345,114.345,0,0,1,2.728-18.942,87.068,87.068,0,0,1,4.224-13.3,47.09,47.09,0,0,1,5.585-10.422c9.281,8.619,13.611,24.324,15.609,35.982,7.347-9.787,15.872-16,25.337-18.455v.011a90.218,90.218,0,0,1,2.179,10.542,26.2,26.2,0,0,1,5.452-.592,16.942,16.942,0,0,1,3.67.34,72.812,72.812,0,0,1,1.207,13.9,92.373,92.373,0,0,1-1.009,12.776,58.661,58.661,0,0,1,13.978-3.351c-2.281-9.241-4.51-22.162-2.186-31.231h.01a33.567,33.567,0,0,1,6.608,5.515,42.63,42.63,0,0,1,5.565,7.314,44.784,44.784,0,0,1,4.669,10.722c-.887-8.807-.691-20.84,5.276-28.148a16.165,16.165,0,0,1,3.919,2.7,47.419,47.419,0,0,1,9.23,11.669,39.324,39.324,0,0,1,12-6.492v.019c.085.812.512,5.149.569,10.858s-.263,13.918-2.117,20.666c.261.865.521,1.787.772,2.679l.018.064.021.074.1.345v-.007a19.566,19.566,0,0,1,3.521-8.749,19.348,19.348,0,0,1,7.1-6.021,28.872,28.872,0,0,1,13.054-2.736,56.213,56.213,0,0,1,11.415,1.3v.008a49.006,49.006,0,0,1-1.258,6.374,47.71,47.71,0,0,1-5.438,13.026l7.175-.088a31.271,31.271,0,0,1,6.089-1.167,47.544,47.544,0,0,1-4.926-10.969,41.477,41.477,0,0,1-1.257-5.086v-.007a27.253,27.253,0,0,1,7.494-1.113,21.5,21.5,0,0,1,7.591,1.351,21.163,21.163,0,0,1,5.358,2.969,19.409,19.409,0,0,1,4.226,4.32,61.822,61.822,0,0,1,.975-11.907,51.521,51.521,0,0,1,2.365-8.662,32.385,32.385,0,0,1,3.51-7.084,34.932,34.932,0,0,1,6.763,10.415,60.856,60.856,0,0,1,3.621,11.389,77.69,77.69,0,0,1,1.726,12.94,24.143,24.143,0,0,1,1.836-3.209c-1.043-7.473.493-16.239.509-16.324.213-.007.42-.01.619-.01a23.527,23.527,0,0,1,8.01,1.506,35.062,35.062,0,0,1,6.669,3.313,41.121,41.121,0,0,1,6.252,4.816,67.293,67.293,0,0,1-.673-19.819,38.509,38.509,0,0,1,1.532-7.418c3.407.135,6.531,1.784,9.288,4.9a24.631,24.631,0,0,1,13.422,4.063,116.644,116.644,0,0,1-1.683-16.753,46.371,46.371,0,0,1,16.139,12.7,21.893,21.893,0,0,1,6.5-4.807,36.311,36.311,0,0,1,4.331,11.179,29.481,29.481,0,0,1,.662,5.1,46.445,46.445,0,0,1,6.757-8.834,33.62,33.62,0,0,1,6.218-5,19.754,19.754,0,0,1,6.321-2.722,77.143,77.143,0,0,1,.039,12.973,61.054,61.054,0,0,1-1.529,9.452,35.983,35.983,0,0,1-2.728,7.74,11.366,11.366,0,0,1,8.638-3.575,22.5,22.5,0,0,1,8.772,2.037,22.162,22.162,0,0,1,2.534-.149,19.607,19.607,0,0,1,9.043,2.175,23.264,23.264,0,0,1,6.263,4.787,27.387,27.387,0,0,1,4.822,6.962,33.978,33.978,0,0,1,4.553-10.991,31.34,31.34,0,0,1,6.116-6.945,27.489,27.489,0,0,1,7.668-4.678,27.509,27.509,0,0,1,1.88,7.345,43.8,43.8,0,0,1,13.665,4.328,51.262,51.262,0,0,1,5.989,3.431,65.212,65.212,0,0,1,.625-15.506,87.416,87.416,0,0,1,3.182-13.307,83.921,83.921,0,0,1,5.2-12.807c3.775,1.815,7.384,5.111,10.729,9.8a72.119,72.119,0,0,1,7.47,13.795,115.748,115.748,0,0,1,5.788,17.62c.41-1.005.86-1.971,1.373-2.951a86.955,86.955,0,0,1-7.654-17.42,103.5,103.5,0,0,1-4.549-25.084h.008a33.057,33.057,0,0,1,4.914-.323,39.019,39.019,0,0,1,18.588,4.519c8.225,4.506,13.978,12.126,17.1,22.649a.143.143,0,0,1,0-.029,137.892,137.892,0,0,1,1.755-19.69,63.382,63.382,0,0,1,4.108-14.8c2.147-4.853,4.829-7.994,7.969-9.337.123.118,3.019,2.967,5.783,10.237a72.734,72.734,0,0,1,3.736,14.794,127.62,127.62,0,0,1,1.192,23.019v0l.006-.005a29.5,29.5,0,0,1,5.539-3.364,72.807,72.807,0,0,1-2.689-10.139,47.852,47.852,0,0,1,13.167-1.954,37.86,37.86,0,0,1,13.534,2.441,37.474,37.474,0,0,1,9.555,5.37,35.05,35.05,0,0,1,7.536,7.811,109.6,109.6,0,0,1,1.731-21.131,91.342,91.342,0,0,1,4.2-15.373,57.854,57.854,0,0,1,6.232-12.568,61.924,61.924,0,0,1,12,18.482,107.84,107.84,0,0,1,6.426,20.211,137.311,137.311,0,0,1,3.059,22.961,45.371,45.371,0,0,1,3.282-5.761,91.591,91.591,0,0,1-.289-19.587c.456-5.529,1.156-9.44,1.162-9.473.354-.011.726-.017,1.108-.017a41.614,41.614,0,0,1,14.216,2.684,62.221,62.221,0,0,1,11.835,5.906,70.888,70.888,0,0,1,11.1,8.59,126.787,126.787,0,0,1-1.966-19.928,109.717,109.717,0,0,1,.77-15.231,70.361,70.361,0,0,1,2.722-13.151c5.954.236,11.426,3.08,16.266,8.454,3.874,4.3,7.353,10.221,10.341,17.595a122.464,122.464,0,0,1,5.449,17.4c1.113,4.725,1.583,7.844,1.587,7.875,3.951-29.434,24.213-30.925,28.234-30.925.329,0,.552.01.656.016a92.347,92.347,0,0,1,2.622,10.859,57.531,57.531,0,0,1,11.176,7.381,66.024,66.024,0,0,1,12.124,13.524,114.48,114.48,0,0,1,2.731-18.942,86.9,86.9,0,0,1,4.227-13.3,49.224,49.224,0,0,1,5.583-10.423c9.277,8.618,13.608,24.325,15.608,35.984,7.341-9.786,15.866-16,25.336-18.456l.006.014a92.017,92.017,0,0,1,2.178,10.541,26.335,26.335,0,0,1,5.461-.591,16.774,16.774,0,0,1,3.664.337,72.811,72.811,0,0,1,1.2,13.9,92.571,92.571,0,0,1-1.011,12.779,59.447,59.447,0,0,1,13.979-3.354c-2.28-9.242-4.51-22.164-2.185-31.229h.008a33.3,33.3,0,0,1,6.609,5.515,42.636,42.636,0,0,1,5.567,7.314,44.746,44.746,0,0,1,4.669,10.72c-.887-8.806-.69-20.838,5.274-28.147a16.281,16.281,0,0,1,3.921,2.7,47.438,47.438,0,0,1,9.231,11.669,39.388,39.388,0,0,1,12-6.494.121.121,0,0,1,0,.023v.01c.085.82.513,5.2.569,10.845.056,5.712-.266,13.933-2.118,20.664.282.936.562,1.931.823,2.871l.083.291v-.007a19.681,19.681,0,0,1,3.522-8.749,19.35,19.35,0,0,1,7.1-6.019,28.86,28.86,0,0,1,13.054-2.736,56.282,56.282,0,0,1,11.414,1.294v.008a49.329,49.329,0,0,1-1.257,6.373,47.75,47.75,0,0,1-5.437,13.027l7.173-.087a30.666,30.666,0,0,1,6.089-1.168,47.513,47.513,0,0,1-4.926-10.971,41.193,41.193,0,0,1-1.258-5.089,27.155,27.155,0,0,1,7.5-1.115,21.475,21.475,0,0,1,7.589,1.349,21.12,21.12,0,0,1,5.358,2.97,19.411,19.411,0,0,1,4.226,4.32,61.792,61.792,0,0,1,.974-11.908,51.426,51.426,0,0,1,2.367-8.662,32.9,32.9,0,0,1,3.506-7.079v-.005a34.9,34.9,0,0,1,6.762,10.416,60.819,60.819,0,0,1,3.622,11.389,76.781,76.781,0,0,1,1.726,12.933v.008a25.16,25.16,0,0,1,1.834-3.213c-1.028-7.37.446-15.958.509-16.32.172-.008.364-.012.623-.012a23.531,23.531,0,0,1,8.009,1.5,35.1,35.1,0,0,1,6.668,3.313,40.021,40.021,0,0,1,6.254,4.817,67.246,67.246,0,0,1-.677-19.822,39.24,39.24,0,0,1,1.531-7.415c3.406.133,6.531,1.781,9.29,4.9a24.6,24.6,0,0,1,13.422,4.065,116.229,116.229,0,0,1-1.683-16.756,46.382,46.382,0,0,1,16.138,12.7,21.829,21.829,0,0,1,6.491-4.8,36.5,36.5,0,0,1,4.824,14.121,28.438,28.438,0,0,1,2.593-1.524,41.629,41.629,0,0,1,6.113-6.832,31.454,31.454,0,0,1,5.415-3.889,18.873,18.873,0,0,1,5.347-2.152,76.966,76.966,0,0,1,.034,13.038,60.524,60.524,0,0,1-1.545,9.477,55.094,55.094,0,0,1,7.844,4.2c.145.015.3.034.448.056a65.465,65.465,0,0,1,.673-15.429,87.732,87.732,0,0,1,3.182-13.223,85.032,85.032,0,0,1,5.167-12.714c3.774,1.816,7.383,5.112,10.727,9.8a72.154,72.154,0,0,1,7.471,13.792,116.965,116.965,0,0,1,5.79,17.62c.424-1.036.887-2.029,1.372-2.952A86.93,86.93,0,0,1,3585.82,707a103.493,103.493,0,0,1-4.549-25.085h.009a33.88,33.88,0,0,1,4.912-.322,39.02,39.02,0,0,1,18.588,4.52c8.227,4.508,13.981,12.129,17.1,22.653v-.028a137.272,137.272,0,0,1,1.755-19.694,63.482,63.482,0,0,1,4.108-14.8c2.147-4.852,4.828-7.994,7.968-9.336.03.027,2.988,2.884,5.785,10.237a72.822,72.822,0,0,1,3.737,14.794,127.621,127.621,0,0,1,1.194,23.021l.007-.008a29.3,29.3,0,0,1,5.54-3.372,73.713,73.713,0,0,1-2.691-10.135,47.845,47.845,0,0,1,13.168-1.955,37.222,37.222,0,0,1,23.089,7.811,34.288,34.288,0,0,1,7.536,7.811,109.411,109.411,0,0,1,1.732-21.131,91.243,91.243,0,0,1,4.2-15.373,57.386,57.386,0,0,1,6.233-12.569,61.931,61.931,0,0,1,12,18.483,107.865,107.865,0,0,1,6.424,20.212,136.08,136.08,0,0,1,3.06,22.963,44.412,44.412,0,0,1,3.287-5.763,91.746,91.746,0,0,1-.292-19.588c.449-5.463,1.155-9.434,1.162-9.474.364-.011.736-.017,1.108-.017a41.61,41.61,0,0,1,14.216,2.685,62.166,62.166,0,0,1,11.835,5.906,70.074,70.074,0,0,1,11.1,8.592,126.706,126.706,0,0,1-1.965-19.931,109.667,109.667,0,0,1,.77-15.23,68.735,68.735,0,0,1,2.722-13.15c5.951.234,11.424,3.077,16.266,8.452,3.872,4.3,7.351,10.218,10.342,17.595a122.356,122.356,0,0,1,5.449,17.4c1.046,4.433,1.535,7.529,1.587,7.867v.009c3.948-29.431,24.211-30.922,28.233-30.922.387,0,.614.014.655.016A91.183,91.183,0,0,1,3835.82,691a57.454,57.454,0,0,1,11.18,7.38,65.866,65.866,0,0,1,12.123,13.523,114.566,114.566,0,0,1,2.729-18.943,87.221,87.221,0,0,1,4.225-13.3,48.6,48.6,0,0,1,5.585-10.422c4.191,3.894,7.75,9.608,10.58,16.984a100.962,100.962,0,0,1,5.028,19c7.348-9.787,15.873-16,25.337-18.457l.006.015a91.206,91.206,0,0,1,2.178,10.541,26.242,26.242,0,0,1,5.456-.592,17.025,17.025,0,0,1,3.666.339,72.813,72.813,0,0,1,1.208,13.9,92.413,92.413,0,0,1-1.01,12.776,58.723,58.723,0,0,1,13.978-3.35c-2.28-9.244-4.509-22.168-2.184-31.23h.006a32.947,32.947,0,0,1,6.61,5.515,42.619,42.619,0,0,1,5.566,7.314,44.789,44.789,0,0,1,4.667,10.723c-.885-8.808-.686-20.842,5.279-28.148h0a16.134,16.134,0,0,1,3.914,2.7,47.451,47.451,0,0,1,9.23,11.668,39.347,39.347,0,0,1,12-6.492v.025c.085.818.513,5.184.57,10.852.057,5.706-.264,13.923-2.117,20.665.271.9.542,1.86.781,2.711l.127.451v-.01a19.376,19.376,0,0,1,2.349-6.905,19.178,19.178,0,0,1,4.644-5.523,21.816,21.816,0,0,1,8.475-4.127V844.507h0ZM2048.24,752.481c-.055.285-.112.549-.175.839l-.012.059,0,.023c-.091.413-.194.881-.29,1.475l2.172-.026a15.571,15.571,0,0,0-.952-1.354v-.006l-.01-.014C2048.72,753.167,2048.48,752.846,2048.24,752.481Zm602.035-10.437h0c-.059.316-.122.606-.182.876l-.006.027v.006l-.008.036-.006.029c-.092.423-.187.861-.281,1.422l2.174-.027a15.933,15.933,0,0,0-.978-1.389l-.013-.017c-.245-.317-.475-.617-.695-.963Zm670.967-2.564c-.061.312-.123.6-.175.832l-.012.059v.039c-.1.435-.193.885-.287,1.467l2.172-.027a16.111,16.111,0,0,0-.957-1.359l-.006-.008c-.225-.294-.481-.626-.725-1Zm602.034-10.435c-.054.277-.11.536-.16.765v.02l-.027.123v.006c-.091.413-.194.88-.3,1.482l2.176-.028a16.328,16.328,0,0,0-.968-1.374l-.007-.011-.014-.018-.011-.014C3923.726,729.684,3923.5,729.388,3923.276,729.045Z" transform="translate(-12 368)" fill="#595757" stroke="rgba(0,0,0,0)" stroke-width="1"/>
    </g>
    <g id="分隔線草" transform="translate(-8.813 948.722)">
      <path id="Path_2408" data-name="Path 2408" d="M401.015-708.24h0a59.857,59.857,0,0,1-3.16-12.613,92.927,92.927,0,0,1-1.052-14.64,107.349,107.349,0,0,1,1.879-19.192l-.011.012a78.118,78.118,0,0,1-12.182,8.473,71.621,71.621,0,0,1-13.031,5.834,50.649,50.649,0,0,1-15.689,2.652c-.251,0-.5,0-.747-.006v-.015c-.141-.659-.871-4.2-1.4-9.081a77.4,77.4,0,0,1,.05-18.842,42.214,42.214,0,0,1-3.674-5.5v.017a115.864,115.864,0,0,1-3.04,22.106,94.7,94.7,0,0,1-6.763,19.516A59.2,59.2,0,0,1,329.3-711.6h0a54.041,54.041,0,0,1-6.993-12.011,79.823,79.823,0,0,1-4.811-14.736,92.966,92.966,0,0,1-2.187-20.3v.008a35.773,35.773,0,0,1-8.281,7.69,42.855,42.855,0,0,1-10.568,5.292,46.784,46.784,0,0,1-15.042,2.406,59.625,59.625,0,0,1-13.881-1.724v-.011a63.875,63.875,0,0,1,2.805-9.773,32.307,32.307,0,0,1-6.124-3.178,107.95,107.95,0,0,1-.992,22.153,63.018,63.018,0,0,1-3.889,14.274c-2.949,7.076-6.162,9.889-6.194,9.917-3.458-1.254-6.438-4.243-8.856-8.885a55.576,55.576,0,0,1-4.7-14.187,115.321,115.321,0,0,1-2.187-18.95c-3.333,10.329-9.681,17.8-18.866,22.207a47.922,47.922,0,0,1-20.432,4.361,39.329,39.329,0,0,1-4.818-.256,88.6,88.6,0,0,1,4.639-24.183,78.488,78.488,0,0,1,8.146-16.846,31.154,31.154,0,0,1-1.543-2.82v.019a103.44,103.44,0,0,1-6.1,17,66.986,66.986,0,0,1-7.993,13.356c-3.6,4.547-7.508,7.76-11.617,9.552l-.005-.007a77.451,77.451,0,0,1-5.862-12.248,75.822,75.822,0,0,1-3.666-12.76,55.08,55.08,0,0,1-.894-14.907l-.018.013a60.011,60.011,0,0,1-6.5,3.362,52.68,52.68,0,0,1-14.9,4.331,23.868,23.868,0,0,1-1.964,7.1H145a31.028,31.028,0,0,1-8.456-4.4,31.86,31.86,0,0,1-6.792-6.6A30.706,30.706,0,0,1,124.6-777.87v.01a27.5,27.5,0,0,1-5.258,6.907,25.273,25.273,0,0,1-6.895,4.755,23.715,23.715,0,0,1-10.021,2.162c-.807,0-1.636-.038-2.464-.113a49.374,49.374,0,0,1,1.2-15.572H566.351c.31,1.169.6,2.327.858,3.443.813-1.121,1.716-2.235,2.67-3.415l.023-.028H799.466v64.45a30.655,30.655,0,0,1-5.854-10.581,75.5,75.5,0,0,1-3.121-12.674,116.075,116.075,0,0,1-1.47-15.1c-3.332,10.329-9.679,17.8-18.864,22.207a47.928,47.928,0,0,1-20.434,4.361,39.092,39.092,0,0,1-4.819-.256,88.6,88.6,0,0,1,4.639-24.183,78.493,78.493,0,0,1,8.146-16.846,31.366,31.366,0,0,1-1.543-2.821v.018a103.268,103.268,0,0,1-6.1,17,66.983,66.983,0,0,1-7.993,13.356c-3.6,4.546-7.508,7.76-11.618,9.552v-.006a77.291,77.291,0,0,1-5.864-12.25,75.848,75.848,0,0,1-3.667-12.761,55.083,55.083,0,0,1-.9-14.908.137.137,0,0,1-.019.013,60.1,60.1,0,0,1-6.5,3.36,52.694,52.694,0,0,1-14.9,4.328,23.933,23.933,0,0,1-1.966,7.087h0a31.032,31.032,0,0,1-8.457-4.408,31.91,31.91,0,0,1-6.792-6.607,30.731,30.731,0,0,1-5.135-10.518v.008a27.851,27.851,0,0,1-7.811,9.044,44.666,44.666,0,0,1,2.38,8.555,68.617,68.617,0,0,1-13.018,1.382,34.631,34.631,0,0,1-14.039-2.6,20.731,20.731,0,0,1-7.7-5.72,17.726,17.726,0,0,1-3.9-8.32c-.312,1.036-.631,2.051-.946,3.015,2.12,6.462,2.582,14.357,2.6,19.842a102.424,102.424,0,0,1-.481,10.461,45.462,45.462,0,0,1-13.224-6.115,47.015,47.015,0,0,1-9.949,11.332,17.488,17.488,0,0,1-4.258,2.644c-6.631-6.958-7.012-18.53-6.163-27.012a40.448,40.448,0,0,1-4.966,10.368,41.908,41.908,0,0,1-6,7.1,35.161,35.161,0,0,1-7.171,5.388c-2.673-8.7-.406-21.151,1.966-30.068A71.879,71.879,0,0,1,568.2-771.66a78.45,78.45,0,0,1,1.281,12.277A61.818,61.818,0,0,1,568.348-746a21.845,21.845,0,0,1-4.336.372,32.857,32.857,0,0,1-5.658-.5A77.444,77.444,0,0,1,556.1-735.95c-10.405-2.251-19.826-8.121-28-17.445-2.032,11.238-6.564,26.4-16.605,34.792h0a45.437,45.437,0,0,1-6.254-9.953,76.9,76.9,0,0,1-4.809-12.745,97.747,97.747,0,0,1-3.249-18.188,66.856,66.856,0,0,1-13.093,13.154,63.882,63.882,0,0,1-12.142,7.232,79.694,79.694,0,0,1-2.719,10.475h-.014c-.258.016-.593.024-.942.024a31.823,31.823,0,0,1-15.618-4.265,29,29,0,0,1-9.346-8.8,40.852,40.852,0,0,1-6.148-16.336.341.341,0,0,1-.005.037c-.13.779-.63,3.627-1.626,7.554a107.178,107.178,0,0,1-5.73,16.8c-3.173,7.13-6.9,12.866-11.086,17.048C413.487-711.338,407.532-708.537,401.015-708.24Zm-576.79,0h0a59.854,59.854,0,0,1-3.16-12.613,92.942,92.942,0,0,1-1.051-14.64,107.351,107.351,0,0,1,1.879-19.192l-.011.012A78.144,78.144,0,0,1-190.3-746.2a71.641,71.641,0,0,1-13.032,5.834,50.648,50.648,0,0,1-15.689,2.652c-.251,0-.5,0-.747-.006v-.017c-.141-.661-.872-4.206-1.4-9.078a77.415,77.415,0,0,1,.049-18.842c-.538-.68-1.064-1.392-1.563-2.116V-779.72H-10.441c.307,1.156.6,2.314.86,3.443.81-1.117,1.711-2.231,2.666-3.409v-.006l.022-.028h92.4a45.765,45.765,0,0,1,6.874,13.162,40.739,40.739,0,0,1,1.625,6.335,68.558,68.558,0,0,1-13,1.38,34.61,34.61,0,0,1-14.048-2.6,20.744,20.744,0,0,1-7.7-5.732,17.671,17.671,0,0,1-3.9-8.337c-.291.953-.589,1.868-.877,2.753v.013l-.068.209c2.12,6.462,2.582,14.357,2.6,19.842a102.384,102.384,0,0,1-.48,10.461,45.419,45.419,0,0,1-13.224-6.115,47.048,47.048,0,0,1-9.95,11.332,17.825,17.825,0,0,1-4.257,2.644c-6.633-6.958-7.014-18.529-6.166-27.012a40.441,40.441,0,0,1-4.966,10.368,41.913,41.913,0,0,1-6,7.1,35.564,35.564,0,0,1-7.17,5.391c-2.67-8.7-.4-21.151,1.966-30.068a71.8,71.8,0,0,1-15.354-3.056,78.738,78.738,0,0,1,1.28,12.277,61.8,61.8,0,0,1-1.129,13.384,21.856,21.856,0,0,1-4.337.372,32.855,32.855,0,0,1-5.659-.5,76.9,76.9,0,0,1-2.25,10.177c-10.405-2.251-19.826-8.121-28-17.445-2.032,11.23-6.564,26.39-16.606,34.79a45.87,45.87,0,0,1-6.259-9.956A76.886,76.886,0,0,1-76.357-741.3,97.711,97.711,0,0,1-79.6-759.492a66.892,66.892,0,0,1-13.1,13.154,63.906,63.906,0,0,1-12.14,7.232,79.811,79.811,0,0,1-2.719,10.475h-.013c-.258.016-.593.024-.942.024a31.825,31.825,0,0,1-15.619-4.265,28.991,28.991,0,0,1-9.346-8.8,40.847,40.847,0,0,1-6.147-16.336.333.333,0,0,1,0,.037c-.13.779-.631,3.627-1.626,7.554a107.184,107.184,0,0,1-5.731,16.8c-3.173,7.13-6.9,12.866-11.086,17.048-5.226,5.231-11.185,8.032-17.7,8.329Z" transform="translate(80 776)" fill="#595757" stroke="rgba(0,0,0,0)" stroke-width="1"/>
      <g id="Group_938" data-name="Group 938">
        <g id="Group_937" data-name="Group 937" clip-path="url(#clip-path)">
          <g id="Group_936" data-name="Group 936">
            <path id="Path_769" data-name="Path 769" d="M2114.62-10.067H1843.68c-2.769,4.143-5.4,6.935-7.471,9.788-.857-3.674-1.835-7.026-2.717-9.788H1371.96c-4.271,12.427-2.993,21.917-2.993,21.917,17.305,1.57,24.64-13.72,24.64-13.72C1398.23,15.088,1414,19.645,1414,19.645a23.82,23.82,0,0,0,1.963-7.1c11.184-1.275,21.421-7.707,21.421-7.707-1.742,20.55,10.428,39.921,10.428,39.921,18.015-7.854,25.71-39.925,25.71-39.925a30.962,30.962,0,0,0,1.543,2.82c-5.679,8.819-11.781,22.427-12.785,41.029,0,0,34.1,4.713,44.116-26.312,0,0,.584,36.525,15.745,42.022,0,0,12.827-11,11.075-46.344a32.425,32.425,0,0,0,6.124,3.178,62.232,62.232,0,0,0-2.806,9.784c32.686,7.853,47.774-13.672,47.774-13.672,0,30.7,13.995,47.054,13.995,47.054,22.157-20.42,22.7-59.56,22.7-59.56a41.86,41.86,0,0,0,3.674,5.5c-1.939,13,1.354,27.938,1.354,27.938,22.355.391,41.66-16.964,41.66-16.964-5.317,28.289,2.334,46.445,2.334,46.445,28.569-1.3,36.147-49.773,36.147-49.773,5.251,31.379,32.068,29.383,32.068,29.383a79.221,79.221,0,0,0,2.719-10.475A65.437,65.437,0,0,0,1766.192,16.5c2.4,27.968,14.316,40.889,14.316,40.889,10.129-8.469,14.623-23.832,16.6-34.793,6.958,7.935,16.152,14.881,28,17.445a75.719,75.719,0,0,0,2.251-10.177,27.563,27.563,0,0,0,9.994.133,68.575,68.575,0,0,0-.151-25.661A72.34,72.34,0,0,0,1852.56,7.4c-2.428,9.127-4.619,21.437-1.966,30.068a40.756,40.756,0,0,0,18.133-22.859c-.852,8.521-.461,20.061,6.163,27.011,0,0,6.62-2.393,14.208-13.976a45.284,45.284,0,0,0,13.224,6.115s1.988-17.794-2.116-30.3q.482-1.47.946-3.015s2.481,22.321,38.65,15.257a43.96,43.96,0,0,0-2.38-8.556,27.587,27.587,0,0,0,7.813-9.051c4.62,16.957,20.39,21.534,20.39,21.534a23.833,23.833,0,0,0,1.965-7.086c11.179-1.274,21.416-7.7,21.416-7.7-1.74,20.551,10.431,39.924,10.431,39.924,18.017-7.855,25.71-39.924,25.71-39.924a31.157,31.157,0,0,0,1.543,2.821c-5.679,8.819-11.781,22.427-12.785,41.029,0,0,34.109,4.713,44.117-26.312,0,0,.583,36.525,15.743,42.022,0,0,12.828-11,11.074-46.344a32.606,32.606,0,0,0,6.127,3.178,62.223,62.223,0,0,0-2.809,9.784c25.96,6.234,40.8-6.047,45.828-11.371.754.452,1.437.823,2.016,1.113.015.416.025.838.044,1.248C2118.5,26.591,2113.7,39.8,2113.7,39.8a32.114,32.114,0,0,0,7.935,1.755c1.427,9.989,8.622,19.134,8.622,19.134-23.008-1.555-44.691,9.317-44.691,9.317,8.792,16.1,44.691,22.967,44.691,22.967-1.134.437-2.18.9-3.161,1.381-9.871-5.075-25.1-10.525-45.926-11.421,0,0-5.279,30.468,29.452,39.408,0,0-40.885.524-47.039,14.067,0,0,12.308,11.458,51.878,9.894a27.949,27.949,0,0,0-3.558,5.472,83.66,83.66,0,0,0-10.952-2.507c-8.79,29.2,15.308,42.681,15.308,42.681-34.37,0-52.676,12.5-52.676,12.5,22.861,19.795,66.674,20.274,66.674,20.274a49.034,49.034,0,0,0-6.161,3.283c-14.548-1.731-31.277,1.208-31.277,1.208-.43,19.97,18.993,37.22,18.993,37.22-31.666-4.751-51.993,2.085-51.993,2.085,1.458,25.52,55.715,32.293,55.715,32.293-35.122,4.688-32.889,28.647-32.889,28.647a108.123,108.123,0,0,0,11.726,2.43c3.595,6.333,10.387,15.074,22.819,22.545-31.306,2.138-45.766,12.788-45.766,12.788,9.478,9.045,26.673,13.064,38.946,14.831-8.355,5.848-15.727,13.464-18.963,23.158-3.678,1.434-5.841,2.517-5.841,2.517,7.333,13.427,33.514,20.432,42,22.388-.066.49-.135.979-.18,1.476q-1.048-.219-2.14-.439c-9.888-4.791-24.513-9.656-44.078-10.5,0,0-2.957,17.1,10.154,29.432a21.255,21.255,0,0,0-2.243,1.456s1.842,4.032,9.772,9.252c-12.583,1.23-31.266,4.53-35.27,13.336,0,0,12.308,11.459,51.878,9.9a27.921,27.921,0,0,0-3.558,5.471,84.071,84.071,0,0,0-10.952-2.507c-8.79,29.2,15.308,42.679,15.308,42.679-34.37,0-52.676,12.5-52.676,12.5,22.861,19.794,66.674,20.273,66.674,20.273a49.262,49.262,0,0,0-6.161,3.285c-14.548-1.733-31.277,1.208-31.277,1.208-.43,19.97,18.993,37.218,18.993,37.218-31.666-4.749-51.993,2.086-51.993,2.086,1.458,25.52,55.715,32.29,55.715,32.29-35.122,4.693-32.889,28.651-32.889,28.651a108.347,108.347,0,0,0,11.726,2.428c3.595,6.335,10.387,15.075,22.819,22.544-31.306,2.141-45.766,12.788-45.766,12.788,9.478,9.048,26.673,13.067,38.946,14.835-8.883,6.215-16.657,14.431-19.529,25.017a103.121,103.121,0,0,0,11.394,2.01,19.734,19.734,0,0,0-.15,8.931,95.99,95.99,0,0,0,28.722-.135,53.358,53.358,0,0,0-3.419,13.716c-10.221-2.169-24-4.125-33.656-1.756,0,0,7.549,11.684,25.586,16.2-9.54-.762-22.457-.411-30.237,5.5,0,0,2.679,5.913,15.646,12.7a40.447,40.447,0,0,0-2.58,3.4,59.144,59.144,0,0,0-13.987,1.726,62.069,62.069,0,0,0,2.809,9.778,32.7,32.7,0,0,0-6.127,3.181c1.754-35.349-11.074-46.344-11.074-46.344-15.16,5.5-15.743,42.021-15.743,42.021-10.008-31.026-44.117-26.311-44.117-26.311,1,18.6,7.106,32.208,12.785,41.029a31.248,31.248,0,0,0-1.543,2.823s-7.693-32.072-25.71-39.925c0,0-12.171,19.372-10.431,39.925,0,0-10.237-6.43-21.416-7.7a23.808,23.808,0,0,0-1.965-7.087s-15.77,4.578-20.39,21.531a27.583,27.583,0,0,0-7.813-9.047,43.962,43.962,0,0,0,2.38-8.56c-36.169-7.063-38.65,15.258-38.65,15.258-.31-1.031-.625-2.032-.946-3.013,4.1-12.509,2.116-30.3,2.116-30.3a45.307,45.307,0,0,0-13.224,6.115c-7.588-11.584-14.208-13.977-14.208-13.977-6.624,6.952-7.015,18.491-6.163,27.012a40.741,40.741,0,0,0-18.133-22.858c-2.653,8.63-.462,20.937,1.966,30.066a72.666,72.666,0,0,0-15.357,3.056,68.573,68.573,0,0,0,.151-25.66,27.5,27.5,0,0,0-9.994.134,75.805,75.805,0,0,0-2.251-10.179c-11.85,2.569-21.044,9.513-28,17.448-1.982-10.962-6.476-26.326-16.6-34.794,0,0-11.917,12.92-14.316,40.889a65.409,65.409,0,0,0-25.235-20.387,79.164,79.164,0,0,0-2.719-10.475s-26.817-2-32.068,29.381c0,0-7.578-48.472-36.147-49.773,0,0-7.651,18.156-2.334,46.448,0,0-19.305-17.354-41.66-16.968,0,0-3.293,14.945-1.354,27.941a41.758,41.758,0,0,0-3.674,5.5s-.538-39.143-22.7-59.562c0,0-13.995,16.352-13.995,47.053,0,0-15.088-21.524-47.774-13.668a62.116,62.116,0,0,0,2.806,9.778,32.514,32.514,0,0,0-6.124,3.181c1.752-35.349-11.075-46.344-11.075-46.344-15.161,5.5-15.745,42.021-15.745,42.021-10.011-31.026-44.116-26.311-44.116-26.311,1,18.6,7.108,32.208,12.785,41.029a31.017,31.017,0,0,0-1.543,2.823s-7.694-32.072-25.71-39.925c0,0-12.169,19.372-10.428,39.925,0,0-10.237-6.43-21.421-7.7a23.752,23.752,0,0,0-1.963-7.087s-15.768,4.578-20.391,21.531c0,0-7.335-15.026-24.639-13.459,0,0-1.278,9.788,2.992,22.215H1833.5c.882-2.762,1.86-6.113,2.717-9.787,2.07,2.852,4.7,4.263,7.471,9.787H2147.13V761.39c-4.142-2.477-7.765-4.829-10.958-6.677,4.113-.768,8.2-1.64,10.958-2.428V60.366c1.381,1.4,1.381,2.452,2.761,3.121V-10.067Z" fill="#595757"/>
            <path id="Path_770" data-name="Path 770" d="M1363.01,15.776S1360.68-.4,1348.24-10.067h-81.351c-2.772,4.143-5.4,6.935-7.473,9.788-.859-3.674-1.835-7.026-2.717-9.788H806.419V8.86c0-.473,1.381-.986,1.381-1.515V751.723c4.142.793,6.884,1.671,11.02,2.442-3.211,1.86-5.5,4.223-11.02,6.715v69.879c0-.532-1.381-1.043-1.381-1.521v19.524H1256.7c.88-2.762,1.856-6.113,2.715-9.787,2.07,2.852,4.7,4.263,7.473,9.787h81.351a48.474,48.474,0,0,0,14.768-26.142c-36.173-7.063-38.649,15.148-38.649,15.148-.315-1.031-.629-2.087-.949-3.069,4.1-12.509,2.117-30.331,2.117-30.331a45.263,45.263,0,0,0-13.223,6.1c-7.591-11.583-14.207-13.984-14.207-13.984-6.627,6.952-7.018,18.484-6.164,27.008a40.755,40.755,0,0,0-18.135-22.859c-2.652,8.629-.461,20.936,1.965,30.065a72.721,72.721,0,0,0-15.354,3.055,68.633,68.633,0,0,0,.151-25.66,27.507,27.507,0,0,0-10,.134,75.469,75.469,0,0,0-2.25-10.179c-11.85,2.569-21.044,9.513-28,17.448-1.981-10.962-6.48-26.326-16.6-34.794,0,0-11.918,12.92-14.316,40.889a65.44,65.44,0,0,0-25.236-20.387,79.3,79.3,0,0,0-2.719-10.475s-26.82-2-32.068,29.381c0,0-7.582-48.472-36.147-49.773,0,0-7.65,18.156-2.332,46.448,0,0-19.309-17.354-41.662-16.968,0,0-3.292,14.945-1.354,27.941a42.073,42.073,0,0,0-3.676,5.5s-.536-39.143-22.693-59.562c0,0-13.992,16.352-13.992,47.053,0,0-15.091-21.524-47.778-13.668a62.322,62.322,0,0,0,2.807,9.778,32.6,32.6,0,0,0-6.124,3.181c1.752-35.349-11.077-46.344-11.077-46.344-15.159,5.5-15.742,42.021-15.742,42.021-10.01-31.026-44.117-26.311-44.117-26.311,1,18.6,7.107,32.208,12.785,41.029a30.759,30.759,0,0,0-1.542,2.823s-7.7-32.072-25.713-39.925c0,0-12.169,19.372-10.427,39.925,0,0-10.237-6.43-21.418-7.7a23.812,23.812,0,0,0-1.965-7.087,22.918,22.918,0,0,0-2.964,1.177,22.137,22.137,0,0,0-13.511-7.127c1.161-.283,2.289-.565,3.394-.854,14.082,3.69,34.121,1.9,34.121,1.9a37.547,37.547,0,0,0-6.885-11.881c13.041-6.823,15.735-12.772,15.735-12.772-7.826-5.952-20.819-6.3-30.414-5.536,18.143-4.543,25.737-16.3,25.737-16.3-9.715-2.384-23.577-.417-33.854,1.765a53.893,53.893,0,0,0-3.441-13.8,96.469,96.469,0,0,0,28.894.138,19.869,19.869,0,0,0-.151-8.983,103.85,103.85,0,0,0,11.462-2.023c-2.891-10.65-10.712-18.914-19.645-25.164,12.345-1.781,29.643-5.822,39.179-14.924,0,0-14.552-10.71-46.042-12.863,12.506-7.515,19.34-16.3,22.956-22.68a107.74,107.74,0,0,0,11.794-2.442s2.246-24.1-33.084-28.819c0,0,54.58-6.81,56.045-32.48,0,0-20.446-6.877-52.3-2.1,0,0,19.542-17.352,19.1-37.441,0,0-16.828-2.955-31.462-1.216a49.774,49.774,0,0,0-6.2-3.3s44.072-.482,67.068-20.394c0,0-18.415-12.574-52.984-12.574,0,0,24.239-13.561,15.393-42.935a84.8,84.8,0,0,0-11.014,2.522,27.985,27.985,0,0,0-3.578-5.5c39.8,1.571,52.183-9.956,52.183-9.956-4.028-8.858-22.821-12.176-35.478-13.414,7.977-5.252,9.828-9.306,9.828-9.306a21.029,21.029,0,0,0-2.251-1.464c13.186-12.412,10.21-29.607,10.21-29.607-19.681.847-34.392,5.74-44.338,10.561-.734.144-1.451.293-2.152.442-.047-.5-.116-.993-.179-1.485,8.535-1.968,34.87-9.016,42.247-22.522,0,0-2.175-1.089-5.875-2.531-3.256-9.752-10.67-17.412-19.074-23.3,12.345-1.779,29.643-5.821,39.177-14.922,0,0-14.55-10.709-46.04-12.863,12.506-7.515,19.34-16.306,22.955-22.678a108.918,108.918,0,0,0,11.795-2.445s2.246-24.1-33.084-28.82c0,0,54.58-6.808,56.045-32.479,0,0-20.446-6.876-52.3-2.1,0,0,19.541-17.351,19.1-37.442,0,0-16.826-2.957-31.46-1.214a49.629,49.629,0,0,0-6.2-3.3s44.072-.483,67.068-20.394c0,0-18.415-12.575-52.984-12.575,0,0,24.239-13.56,15.393-42.934a84.388,84.388,0,0,0-11.014,2.522,27.961,27.961,0,0,0-3.578-5.5c39.8,1.574,52.183-9.954,52.183-9.954-6.191-13.623-47.318-14.148-47.318-14.148,34.935-8.994,29.627-39.644,29.627-39.644-20.946.9-36.267,6.385-46.2,11.489-.987-.485-2.04-.947-3.179-1.387,0,0,36.115-6.915,44.955-23.106,0,0-21.813-10.936-44.955-9.371,0,0,7.239-9.2,8.673-19.25a32.055,32.055,0,0,0,7.98-1.765s-5.156-14.167-24.247-18.321a30.9,30.9,0,0,0,7.245-4.308A32.285,32.285,0,0,0,837.2,19.626a23.8,23.8,0,0,0,1.966-7.086c11.181-1.274,21.418-7.7,21.418-7.7-1.742,20.551,10.427,39.924,10.427,39.924C889.028,36.909,896.722,4.84,896.722,4.84a31.474,31.474,0,0,0,1.543,2.821c-5.678,8.819-11.78,22.427-12.784,41.029,0,0,34.107,4.713,44.117-26.312,0,0,.583,36.525,15.742,42.022,0,0,12.829-11,11.077-46.344a32.464,32.464,0,0,0,6.124,3.178,62.44,62.44,0,0,0-2.807,9.784c32.687,7.853,47.778-13.672,47.778-13.672,0,30.7,13.992,47.054,13.992,47.054C1043.661,43.98,1044.2,4.84,1044.2,4.84a42.273,42.273,0,0,0,3.675,5.5c-1.937,13,1.355,27.938,1.355,27.938,22.353.391,41.662-16.964,41.662-16.964-5.318,28.289,2.332,46.445,2.332,46.445,28.565-1.3,36.146-49.773,36.146-49.773,5.249,31.379,32.069,29.383,32.069,29.383a79.383,79.383,0,0,0,2.719-10.475A65.475,65.475,0,0,0,1189.4,16.508c2.4,27.968,14.316,40.889,14.316,40.889,10.125-8.469,14.624-23.832,16.6-34.793,6.957,7.935,16.151,14.881,28,17.445a75.442,75.442,0,0,0,2.25-10.177,27.575,27.575,0,0,0,10,.133,68.639,68.639,0,0,0-.151-25.661A72.324,72.324,0,0,0,1275.77,7.4c-2.426,9.127-4.617,21.437-1.966,30.068a40.757,40.757,0,0,0,18.134-22.859c-.852,8.521-.461,20.061,6.166,27.011,0,0,6.616-2.393,14.206-13.976a45.24,45.24,0,0,0,13.224,6.115s1.986-17.794-2.117-30.3c.319-.98.634-1.944.949-2.975C1324.36.482,1326.84,22.84,1363.01,15.776Z" fill="#595757"/>
          </g>
        </g>
      </g>
    </g>
  </g>
</svg>
