<svg xmlns="http://www.w3.org/2000/svg" width="68.123" height="50.632" viewBox="0 0 68.123 50.632">
  <g id="味丹logo" transform="translate(-89.344 94.005)">
    <path id="路径_1" data-name="路径 1" d="M156.462-68.684c0,13.424-14.8,24.306-33.048,24.306S90.363-55.26,90.363-68.684s14.795-24.3,33.051-24.3S156.462-82.105,156.462-68.684Z" transform="translate(-0.007 -0.006)" fill="#fff" stroke="#fff" stroke-width="2.024"/>
    <g id="组_1" data-name="组 1" transform="translate(90.195 -93.147)">
      <path id="路径_2" data-name="路径 2" d="M90.2-68.646c0,13.509,14.92,24.5,33.249,24.5S156.7-55.138,156.7-68.646s-14.919-24.5-33.257-24.5S90.2-82.156,90.2-68.646Zm.389,0c0-13.3,14.739-24.113,32.86-24.113S156.31-81.942,156.31-68.646s-14.739,24.113-32.867,24.113S90.584-55.349,90.584-68.646Z" transform="translate(-90.195 93.147)" fill="#e32921"/>
      <path id="路径_3" data-name="路径 3" d="M123.52-91.681c17.349,0,31.41,10.34,31.41,23.092S140.869-45.5,123.52-45.5s-31.4-10.336-31.4-23.091S106.178-91.681,123.52-91.681Z" transform="translate(-90.271 93.089)" fill="#e62310"/>
      <path id="路径_4" data-name="路径 4" d="M92.053-68.591c0,12.768,14.114,23.154,31.464,23.154s31.478-10.386,31.478-23.154-14.119-23.155-31.478-23.155S92.053-81.361,92.053-68.591Zm.13,0c0-12.7,14.056-23.028,31.335-23.028s31.348,10.329,31.348,23.028-14.06,23.024-31.348,23.024S92.183-55.893,92.183-68.591Z" transform="translate(-90.268 93.092)" fill="#e32921"/>
    </g>
    <g id="组_13" data-name="组 13" transform="translate(93.466 -90.176)">
      <g id="组_7" data-name="组 7">
        <path id="路径_5" data-name="路径 5" d="M123.966-88.942l.621-1.112.624,1.112-.624,1.113Z" transform="translate(-94.8 90.054)" fill="#fff"/>
        <path id="路径_6" data-name="路径 6" d="M94.72-67.755,93.6-68.377,94.72-69l1.117.621Z" transform="translate(-93.601 89.223)" fill="#fff"/>
        <g id="组_2" data-name="组 2" transform="translate(0.175)">
          <path id="路径_7" data-name="路径 7" d="M122.5-88.942l.623-1.112.619,1.112-.619,1.113Z" transform="translate(-94.917 90.054)" fill="#fff"/>
          <path id="路径_8" data-name="路径 8" d="M121.016-88.858l.588-1.133.66,1.089-.579,1.133Z" transform="translate(-94.858 90.052)" fill="#fff"/>
          <path id="路径_9" data-name="路径 9" d="M119.621-88.661l.551-1.155.7,1.064-.544,1.157Z" transform="translate(-94.803 90.045)" fill="#fff"/>
          <path id="路径_10" data-name="路径 10" d="M118.188-88.465l.5-1.173.733,1.044-.5,1.168Z" transform="translate(-94.747 90.038)" fill="#fff"/>
          <path id="路径_11" data-name="路径 11" d="M116.694-88.2l.483-1.181.757,1.032-.488,1.183Z" transform="translate(-94.688 90.028)" fill="#fff"/>
          <path id="路径_12" data-name="路径 12" d="M115.195-87.886l.466-1.189.765,1.015-.456,1.194Z" transform="translate(-94.628 90.015)" fill="#fff"/>
          <path id="路径_13" data-name="路径 13" d="M113.79-87.531l.438-1.2.792,1-.438,1.195Z" transform="translate(-94.573 90.002)" fill="#fff"/>
          <path id="路径_14" data-name="路径 14" d="M112.427-87.086,112.8-88.3l.841.959-.378,1.22Z" transform="translate(-94.519 89.985)" fill="#fff"/>
          <path id="路径_15" data-name="路径 15" d="M111.011-86.6l.313-1.235.889.912-.314,1.237Z" transform="translate(-94.463 89.967)" fill="#fff"/>
          <path id="路径_16" data-name="路径 16" d="M109.65-86.078l.318-1.233.892.915-.319,1.234Z" transform="translate(-94.409 89.946)" fill="#fff"/>
          <path id="路径_17" data-name="路径 17" d="M108.323-85.519l.251-1.249.932.868-.246,1.249Z" transform="translate(-94.357 89.924)" fill="#fff"/>
          <path id="路径_18" data-name="路径 18" d="M107.027-84.824l.182-1.26.989.819-.186,1.26Z" transform="translate(-94.306 89.897)" fill="#fff"/>
          <path id="路径_19" data-name="路径 19" d="M105.744-84.085l.12-1.271,1.018.768-.115,1.267Z" transform="translate(-94.255 89.869)" fill="#fff"/>
          <path id="路径_20" data-name="路径 20" d="M104.476-83.3l.052-1.27,1.063.709-.046,1.274Z" transform="translate(-94.205 89.837)" fill="#fff"/>
          <path id="路径_21" data-name="路径 21" d="M103.259-82.495l-.021-1.274,1.1.655.02,1.274Z" transform="translate(-94.156 89.806)" fill="#fff"/>
          <path id="路径_22" data-name="路径 22" d="M102.069-81.6l-.087-1.264,1.133.59L103.2-81Z" transform="translate(-94.106 89.77)" fill="#fff"/>
          <path id="路径_23" data-name="路径 23" d="M100.913-80.589l-.154-1.264,1.159.534.158,1.265Z" transform="translate(-94.058 89.73)" fill="#fff"/>
          <path id="路径_24" data-name="路径 24" d="M99.839-79.543,99.62-80.8l1.188.476.221,1.254Z" transform="translate(-94.013 89.689)" fill="#fff"/>
          <path id="路径_25" data-name="路径 25" d="M98.871-78.464l-.283-1.241,1.2.412.284,1.243Z" transform="translate(-93.972 89.645)" fill="#fff"/>
          <path id="路径_26" data-name="路径 26" d="M97.975-77.322l-.35-1.226,1.23.347.348,1.228Z" transform="translate(-93.934 89.6)" fill="#fff"/>
          <path id="路径_27" data-name="路径 27" d="M96.458-74.888l-.406-1.2,1.241.285.417,1.2Z" transform="translate(-93.872 89.503)" fill="#fff"/>
          <path id="路径_28" data-name="路径 28" d="M95.9-73.528l-.539-1.152,1.274.149.534,1.159Z" transform="translate(-93.845 89.447)" fill="#fff"/>
          <path id="路径_29" data-name="路径 29" d="M95.326-72.146l-.655-1.094,1.277.017.662,1.095Z" transform="translate(-93.818 89.39)" fill="#fff"/>
          <path id="路径_30" data-name="路径 30" d="M94.894-70.685l-.766-1.02,1.277-.11.763,1.01Z" transform="translate(-93.796 89.334)" fill="#fff"/>
          <path id="路径_31" data-name="路径 31" d="M94.751-69.169l-.968-.838,1.227-.373.965.835Z" transform="translate(-93.783 89.277)" fill="#fff"/>
          <path id="路径_32" data-name="路径 32" d="M97.154-76.129l-.389-1.208,1.239.3.393,1.211Z" transform="translate(-93.9 89.552)" fill="#fff"/>
        </g>
        <g id="组_3" data-name="组 3" transform="translate(30.552)">
          <path id="路径_33" data-name="路径 33" d="M126.657-88.942l-.626-1.112-.622,1.112.622,1.113Z" transform="translate(-125.409 90.054)" fill="#fff"/>
          <path id="路径_34" data-name="路径 34" d="M128.136-88.858l-.582-1.133-.66,1.089.581,1.133Z" transform="translate(-125.468 90.052)" fill="#fff"/>
          <path id="路径_35" data-name="路径 35" d="M129.53-88.661l-.539-1.155-.7,1.064.548,1.157Z" transform="translate(-125.523 90.045)" fill="#fff"/>
          <path id="路径_36" data-name="路径 36" d="M130.968-88.465l-.495-1.173-.739,1.044.508,1.168Z" transform="translate(-125.58 90.038)" fill="#fff"/>
          <path id="路径_37" data-name="路径 37" d="M132.464-88.2l-.484-1.181-.757,1.032.486,1.183Z" transform="translate(-125.639 90.028)" fill="#fff"/>
          <path id="路径_38" data-name="路径 38" d="M133.967-87.886l-.464-1.189-.778,1.015.467,1.194Z" transform="translate(-125.698 90.015)" fill="#fff"/>
          <path id="路径_39" data-name="路径 39" d="M135.373-87.531l-.438-1.2-.793,1,.439,1.195Z" transform="translate(-125.754 90.002)" fill="#fff"/>
          <path id="路径_40" data-name="路径 40" d="M136.738-87.086l-.376-1.218-.841.959.378,1.22Z" transform="translate(-125.809 89.985)" fill="#fff"/>
          <path id="路径_41" data-name="路径 41" d="M138.162-86.6l-.316-1.235-.893.912.308,1.237Z" transform="translate(-125.865 89.967)" fill="#fff"/>
          <path id="路径_42" data-name="路径 42" d="M139.516-86.078l-.318-1.233-.888.915.309,1.234Z" transform="translate(-125.919 89.946)" fill="#fff"/>
          <path id="路径_43" data-name="路径 43" d="M140.842-85.519l-.249-1.249-.937.868.249,1.249Z" transform="translate(-125.972 89.924)" fill="#fff"/>
          <path id="路径_44" data-name="路径 44" d="M142.139-84.824l-.182-1.26-.989.819.185,1.26Z" transform="translate(-126.024 89.897)" fill="#fff"/>
          <path id="路径_45" data-name="路径 45" d="M143.425-84.085l-.117-1.271-1.02.768.111,1.267Z" transform="translate(-126.076 89.869)" fill="#fff"/>
          <path id="路径_46" data-name="路径 46" d="M144.693-83.3l-.049-1.27-1.064.709.049,1.274Z" transform="translate(-126.127 89.837)" fill="#fff"/>
          <path id="路径_47" data-name="路径 47" d="M145.916-82.495l.019-1.274-1.1.655-.021,1.274Z" transform="translate(-126.176 89.806)" fill="#fff"/>
          <path id="路径_48" data-name="路径 48" d="M147.1-81.6l.08-1.264-1.129.59L145.961-81Z" transform="translate(-126.221 89.77)" fill="#fff"/>
          <path id="路径_49" data-name="路径 49" d="M148.249-80.589l.154-1.264-1.157.534-.16,1.265Z" transform="translate(-126.265 89.73)" fill="#fff"/>
          <path id="路径_50" data-name="路径 50" d="M149.324-79.543l.213-1.257-1.184.476-.226,1.254Z" transform="translate(-126.307 89.689)" fill="#fff"/>
          <path id="路径_51" data-name="路径 51" d="M150.291-78.464l.285-1.241-1.211.412-.288,1.243Z" transform="translate(-126.344 89.645)" fill="#fff"/>
          <path id="路径_52" data-name="路径 52" d="M151.179-77.322l.351-1.226-1.23.347-.353,1.228Z" transform="translate(-126.378 89.6)" fill="#fff"/>
          <path id="路径_53" data-name="路径 53" d="M152.69-74.888l.414-1.2-1.242.285-.42,1.2Z" transform="translate(-126.438 89.503)" fill="#fff"/>
          <path id="路径_54" data-name="路径 54" d="M153.243-73.528l.54-1.152-1.273.149-.54,1.159Z" transform="translate(-126.458 89.447)" fill="#fff"/>
          <path id="路径_55" data-name="路径 55" d="M153.816-72.146l.648-1.094-1.271.017-.657,1.095Z" transform="translate(-126.481 89.39)" fill="#fff"/>
          <path id="路径_56" data-name="路径 56" d="M154.241-70.685l.768-1.02-1.28-.11-.764,1.01Z" transform="translate(-126.498 89.334)" fill="#fff"/>
          <path id="路径_57" data-name="路径 57" d="M154.38-69.169l.961-.838-1.223-.373-.964.835Z" transform="translate(-126.505 89.277)" fill="#fff"/>
          <path id="路径_58" data-name="路径 58" d="M152-76.129l.395-1.208-1.247.3-.392,1.211Z" transform="translate(-126.41 89.552)" fill="#fff"/>
        </g>
        <path id="路径_59" data-name="路径 59" d="M154.587-67.755l-1.115-.623L154.587-69l1.116.621Z" transform="translate(-95.965 89.223)" fill="#fff"/>
        <g id="组_6" data-name="组 6" transform="translate(0.312 23.126)">
          <path id="路径_60" data-name="路径 60" d="M125.327-46.244l-.626,1.111-.627-1.111.627-1.11Z" transform="translate(-95.116 65.241)" fill="#fff"/>
          <g id="组_4" data-name="组 4" transform="translate(30.375)">
            <path id="路径_61" data-name="路径 61" d="M126.8-46.244l-.627,1.111-.621-1.111.621-1.11Z" transform="translate(-125.549 65.241)" fill="#fff"/>
            <path id="路径_62" data-name="路径 62" d="M128.271-46.33l-.583,1.133-.661-1.092.577-1.13Z" transform="translate(-125.607 65.244)" fill="#fff"/>
            <path id="路径_63" data-name="路径 63" d="M129.67-46.519l-.547,1.155-.7-1.076.544-1.151Z" transform="translate(-125.663 65.251)" fill="#fff"/>
            <path id="路径_64" data-name="路径 64" d="M131.113-46.722l-.506,1.171L129.87-46.6l.5-1.171Z" transform="translate(-125.72 65.258)" fill="#fff"/>
            <path id="路径_65" data-name="路径 65" d="M132.6-46.984,132.12-45.8l-.757-1.03.482-1.18Z" transform="translate(-125.779 65.267)" fill="#fff"/>
            <path id="路径_66" data-name="路径 66" d="M134.1-47.3l-.46,1.184-.775-1.015.464-1.192Z" transform="translate(-125.838 65.279)" fill="#fff"/>
            <path id="路径_67" data-name="路径 67" d="M135.508-47.655l-.442,1.192-.791-1,.446-1.2Z" transform="translate(-125.894 65.293)" fill="#fff"/>
            <path id="路径_68" data-name="路径 68" d="M136.874-48.1l-.379,1.212-.84-.958.381-1.21Z" transform="translate(-125.948 65.308)" fill="#fff"/>
            <path id="路径_69" data-name="路径 69" d="M138.292-48.58l-.314,1.237-.894-.916.314-1.234Z" transform="translate(-126.005 65.326)" fill="#fff"/>
            <path id="路径_70" data-name="路径 70" d="M139.651-49.105l-.318,1.23-.891-.912.316-1.233Z" transform="translate(-126.058 65.347)" fill="#fff"/>
            <path id="路径_71" data-name="路径 71" d="M140.977-49.668l-.247,1.252-.934-.864.242-1.253Z" transform="translate(-126.112 65.367)" fill="#fff"/>
            <path id="路径_72" data-name="路径 72" d="M142.276-50.362l-.185,1.264-.978-.816.176-1.264Z" transform="translate(-126.164 65.392)" fill="#fff"/>
            <path id="路径_73" data-name="路径 73" d="M143.559-51.093l-.114,1.263-1.023-.761.114-1.262Z" transform="translate(-126.215 65.419)" fill="#fff"/>
            <path id="路径_74" data-name="路径 74" d="M144.828-51.88l-.046,1.272-1.07-.71.051-1.274Z" transform="translate(-126.266 65.448)" fill="#fff"/>
            <path id="路径_75" data-name="路径 75" d="M146.055-52.685l.01,1.278-1.1-.655-.016-1.271Z" transform="translate(-126.315 65.477)" fill="#fff"/>
            <path id="路径_76" data-name="路径 76" d="M147.235-53.576l.082,1.275-1.13-.595-.082-1.271Z" transform="translate(-126.361 65.51)" fill="#fff"/>
            <path id="路径_77" data-name="路径 77" d="M148.389-54.575l.148,1.257-1.156-.534-.158-1.264Z" transform="translate(-126.405 65.548)" fill="#fff"/>
            <path id="路径_78" data-name="路径 78" d="M149.456-55.621l.217,1.254-1.184-.471-.22-1.257Z" transform="translate(-126.446 65.586)" fill="#fff"/>
            <path id="路径_79" data-name="路径 79" d="M150.429-56.7l.282,1.242-1.209-.412-.286-1.239Z" transform="translate(-126.484 65.627)" fill="#fff"/>
            <path id="路径_80" data-name="路径 80" d="M151.315-57.836l.355,1.225-1.233-.35-.35-1.224Z" transform="translate(-126.518 65.669)" fill="#fff"/>
            <path id="路径_81" data-name="路径 81" d="M152.824-60.267l.416,1.2-1.246-.285-.413-1.2Z" transform="translate(-126.577 65.763)" fill="#fff"/>
            <path id="路径_82" data-name="路径 82" d="M153.376-61.626l.54,1.159-1.271-.154-.537-1.156Z" transform="translate(-126.598 65.811)" fill="#fff"/>
            <path id="路径_83" data-name="路径 83" d="M153.948-62.994l.661,1.095-1.278-.02-.664-1.094Z" transform="translate(-126.62 65.86)" fill="#fff"/>
            <path id="路径_84" data-name="路径 84" d="M154.378-64.464l.766,1.022-1.274.12-.765-1.022Z" transform="translate(-126.637 65.917)" fill="#fff"/>
            <path id="路径_85" data-name="路径 85" d="M154.516-65.977l.968.842-1.23.372-.96-.837Z" transform="translate(-126.645 65.977)" fill="#fff"/>
            <path id="路径_86" data-name="路径 86" d="M152.137-59.033l.39,1.215-1.243-.307-.393-1.209Z" transform="translate(-126.55 65.714)" fill="#fff"/>
          </g>
          <g id="组_5" data-name="组 5">
            <path id="路径_87" data-name="路径 87" d="M122.633-46.244l.627,1.111.622-1.111-.622-1.11Z" transform="translate(-95.059 65.241)" fill="#fff"/>
            <path id="路径_88" data-name="路径 88" d="M121.156-46.33l.585,1.133.665-1.092-.582-1.13Z" transform="translate(-95.001 65.244)" fill="#fff"/>
            <path id="路径_89" data-name="路径 89" d="M119.757-46.519l.547,1.155.7-1.076-.541-1.151Z" transform="translate(-94.945 65.251)" fill="#fff"/>
            <path id="路径_90" data-name="路径 90" d="M118.321-46.722l.5,1.171.733-1.045-.5-1.171Z" transform="translate(-94.889 65.258)" fill="#fff"/>
            <path id="路径_91" data-name="路径 91" d="M116.828-46.984l.488,1.182.752-1.03-.482-1.18Z" transform="translate(-94.83 65.267)" fill="#fff"/>
            <path id="路径_92" data-name="路径 92" d="M115.329-47.3l.463,1.184.771-1.015-.459-1.192Z" transform="translate(-94.771 65.279)" fill="#fff"/>
            <path id="路径_93" data-name="路径 93" d="M113.922-47.655l.443,1.192.793-1-.445-1.2Z" transform="translate(-94.715 65.293)" fill="#fff"/>
            <path id="路径_94" data-name="路径 94" d="M112.558-48.1l.378,1.212.837-.958-.376-1.21Z" transform="translate(-94.661 65.308)" fill="#fff"/>
            <path id="路径_95" data-name="路径 95" d="M111.142-48.58l.32,1.237.889-.916-.313-1.234Z" transform="translate(-94.605 65.326)" fill="#fff"/>
            <path id="路径_96" data-name="路径 96" d="M109.791-49.105l.31,1.23.894-.912-.316-1.233Z" transform="translate(-94.552 65.347)" fill="#fff"/>
            <path id="路径_97" data-name="路径 97" d="M108.462-49.668l.248,1.252.934-.864-.245-1.253Z" transform="translate(-94.499 65.367)" fill="#fff"/>
            <path id="路径_98" data-name="路径 98" d="M107.169-50.362l.179,1.264.986-.816-.185-1.264Z" transform="translate(-94.448 65.392)" fill="#fff"/>
            <path id="路径_99" data-name="路径 99" d="M105.882-51.093l.111,1.263,1.023-.761-.11-1.262Z" transform="translate(-94.397 65.419)" fill="#fff"/>
            <path id="路径_100" data-name="路径 100" d="M104.613-51.88l.053,1.272,1.058-.71-.044-1.274Z" transform="translate(-94.347 65.448)" fill="#fff"/>
            <path id="路径_101" data-name="路径 101" d="M103.394-52.685l-.018,1.278,1.094-.655.025-1.271Z" transform="translate(-94.298 65.477)" fill="#fff"/>
            <path id="路径_102" data-name="路径 102" d="M102.207-53.576,102.12-52.3l1.135-.595.087-1.271Z" transform="translate(-94.249 65.51)" fill="#fff"/>
            <path id="路径_103" data-name="路径 103" d="M101.053-54.575l-.154,1.257,1.159-.534.154-1.264Z" transform="translate(-94.201 65.548)" fill="#fff"/>
            <path id="路径_104" data-name="路径 104" d="M99.977-55.621l-.218,1.254,1.187-.471.219-1.257Z" transform="translate(-94.156 65.586)" fill="#fff"/>
            <path id="路径_105" data-name="路径 105" d="M99-56.7l-.278,1.242,1.208-.412.288-1.239Z" transform="translate(-94.115 65.627)" fill="#fff"/>
            <path id="路径_106" data-name="路径 106" d="M98.107-57.836l-.345,1.225,1.233-.35.345-1.224Z" transform="translate(-94.077 65.669)" fill="#fff"/>
            <path id="路径_107" data-name="路径 107" d="M96.6-60.267l-.41,1.2,1.244-.285.414-1.2Z" transform="translate(-94.015 65.763)" fill="#fff"/>
            <path id="路径_108" data-name="路径 108" d="M96.043-61.626,95.5-60.468l1.273-.154.538-1.156Z" transform="translate(-93.987 65.811)" fill="#fff"/>
            <path id="路径_109" data-name="路径 109" d="M95.461-62.994,94.8-61.9l1.285-.02.651-1.094Z" transform="translate(-93.96 65.86)" fill="#fff"/>
            <path id="路径_110" data-name="路径 110" d="M95.029-64.464l-.764,1.022,1.273.12.768-1.022Z" transform="translate(-93.939 65.917)" fill="#fff"/>
            <path id="路径_111" data-name="路径 111" d="M94.886-65.977l-.961.842,1.22.372.96-.837Z" transform="translate(-93.925 65.977)" fill="#fff"/>
            <path id="路径_112" data-name="路径 112" d="M97.291-59.033l-.39,1.215,1.243-.307.392-1.209Z" transform="translate(-94.043 65.714)" fill="#fff"/>
          </g>
        </g>
        <path id="路径_113" data-name="路径 113" d="M94.675-67.549l-1.065.7,1.159.54,1.068-.7Z" transform="translate(-93.601 89.165)" fill="#fff"/>
        <path id="路径_114" data-name="路径 114" d="M154.686-67.47l1.057.72-1.167.52-1.063-.716Z" transform="translate(-95.967 89.162)" fill="#fff"/>
      </g>
      <g id="组_11" data-name="组 11" transform="translate(5.967 12.632)">
        <g id="组_10" data-name="组 10">
          <path id="路径_115" data-name="路径 115" d="M108.51-75.043h4.735V-76.9H116.4v1.846h5.8v2.565h-5.8v2.581h6.522v2.562h-5.9L117-67.372a21.913,21.913,0,0,0,1.916,2.781,30.012,30.012,0,0,0,3.378,3.36c1.146.924,1.746,1.388,1.746,1.388l-2.914,1.406s-1.954-1.763-2.275-2.143-1.471-1.645-1.714-1.958-.742-.94-.742-.94V-57.6H113.21v-5.932a33.516,33.516,0,0,1-2.872,3.332c-1.208,1.114-2.318,2-2.318,2l-2.3-2.021a7.939,7.939,0,0,0,2.259-1.767,24.173,24.173,0,0,0,2.932-3.02c.908-1.109,1.731-2.343,1.731-2.343h-4.779v-2.539h5.36V-72.5H108.5Z" transform="translate(-100.047 76.903)" fill="#fff" fill-rule="evenodd"/>
          <g id="组_8" data-name="组 8" transform="translate(0 2.192)">
            <path id="路径_116" data-name="路径 116" d="M99.825-74.223s-.061-.4.437-.4h6.573s.5,0,.5.318v12.871a.454.454,0,0,1-.444.388h-6.657s-.425-.139-.425-.388S99.825-74.223,99.825-74.223Z" transform="translate(-99.813 74.621)" fill="#fff" fill-rule="evenodd"/>
          </g>
          <g id="组_9" data-name="组 9" transform="translate(2.933 4.509)">
            <path id="路径_117" data-name="路径 117" d="M102.879-72.107s-.012-.1.148-.1h1.379s.123-.016.123.1v8.688s0,.154-.117.154h-1.44s-.106-.069-.106-.154S102.879-72.107,102.879-72.107Z" transform="translate(-102.867 72.209)" fill="#e32921" fill-rule="evenodd"/>
          </g>
        </g>
      </g>
      <g id="组_12" data-name="组 12" transform="translate(29.538 12.497)">
        <path id="路径_118" data-name="路径 118" d="M140.023-60.669v3.041a22.393,22.393,0,0,0,3.019.189,3.8,3.8,0,0,0,2.548-1.111,3.822,3.822,0,0,0,.7-2.764v-3.612h2.657v-2.663h-2.691v-8.928a.444.444,0,0,0-.5-.5H127.749a.452.452,0,0,0-.454.459v8.967h-2.922v2.663h2.922s-.036,3.839-.036,4.941l0,2.527,3.246.16v-7.628H143.1v3.481a1.3,1.3,0,0,1-.615.943,2.05,2.05,0,0,1-1.443.051C140.564-60.575,140.023-60.669,140.023-60.669Z" transform="translate(-124.354 77.042)" fill="#fff" fill-rule="evenodd"/>
        <path id="路径_119" data-name="路径 119" d="M127.748-77.043a.481.481,0,0,0-.479.484v8.967l-2.9-.021-.019,2.685,2.941.024c-.018,0-.06,4.917-.06,4.917l.007,2.527c.022.02,3.268.186,3.268.186l.024-5.41v-2.245L143.1-64.9l-.016,3.457a1.284,1.284,0,0,1-.608.919,2.009,2.009,0,0,1-1.427.051L140-60.7l0,3.073c.023.024,3.042.214,3.042.214a3.86,3.86,0,0,0,2.565-1.122,3.845,3.845,0,0,0,.708-2.779v-3.612l2.637.024.023-2.687-2.714-.021.025-8.907-.111-.37-.411-.154Zm-.429.484a.425.425,0,0,1,.429-.435h18.012l.377.136.1.337v8.929l2.713.024-.02,2.639-2.637-.022-.024,3.635a3.825,3.825,0,0,1-.7,2.752,3.811,3.811,0,0,1-2.531,1.1l-3.008-.187s.016-2.934.016-2.994c.054.015.989.211.989.211a2.07,2.07,0,0,0,1.459-.049,1.319,1.319,0,0,0,.627-.961v-3.484l-12.612-.022-.023,2.267V-57.3c0-.024-3.217-.183-3.217-.183s.012-1.122.012-1.863v-.642l.037-4.941-2.947-.022.023-2.641,2.9.024Zm18.964.039Z" transform="translate(-124.353 77.043)" fill="#fff" fill-rule="evenodd"/>
        <path id="路径_120" data-name="路径 120" d="M130.759-67.487v-6.575s.018-.337.441-.337h11.711s.437.062.437.442v6.47Z" transform="translate(-124.606 76.939)" fill="#e32921" fill-rule="evenodd"/>
        <path id="路径_121" data-name="路径 121" d="M130.736-74.063v6.6h12.611l.026-6.494c0-.4-.456-.465-.456-.465H131.2A.408.408,0,0,0,130.736-74.063Zm.042,0c0-.012.024-.315.421-.315H142.91c.012,0,.421.061.421.42v6.47l-12.553-.021Z" transform="translate(-124.605 76.94)" fill="#e32921" fill-rule="evenodd"/>
        <path id="路径_122" data-name="路径 122" d="M134.351-73.164l3.012-.866s.864,2.124,1.079,2.839c0,0,.451,1.39.6,1.869.113.411.221.785.221.785l-2.955.715s-.318-1.143-.93-2.8S134.351-73.164,134.351-73.164Z" transform="translate(-124.748 76.924)" fill="#fff" fill-rule="evenodd"/>
        <path id="路径_123" data-name="路径 123" d="M134.346-73.185l-.023.009,1.02,2.566.937,2.8c.027.014,2.979-.7,2.979-.7.018-.024-.2-.811-.2-.811l-.6-1.87-1.079-2.838C137.354-74.053,134.346-73.185,134.346-73.185ZM137.367-74h0c0,.057,1.049,2.82,1.049,2.82l.6,1.867.212.782c0-.02-2.93.69-2.933.69h0c0-.066-.909-2.784-.909-2.784s-.98-2.441-1-2.519C134.431-73.162,137.367-74,137.367-74Z" transform="translate(-124.747 76.924)" fill="#fff" fill-rule="evenodd"/>
      </g>
    </g>
  </g>
</svg>
