<svg xmlns="http://www.w3.org/2000/svg" width="268.205" height="55.075" viewBox="0 0 268.205 55.075">
  <g id="注意事項" transform="translate(-792.995 -3219.534)">
    <g id="组_2127" data-name="组 2127" transform="matrix(0.996, 0.087, -0.087, 0.996, 556.402, 3004.983)">
      <g id="组_2121" data-name="组 2121" transform="translate(258.633 201.379)">
        <g id="组_2091" data-name="组 2091" transform="translate(27.29)">
          <g id="路径_2380" data-name="路径 2380" transform="translate(-309.05 -201.379)" fill="#1a1311">
            <path d="M 319.5008239746094 210.0732879638672 C 317.1298828125 210.0734405517578 314.3440856933594 208.8491363525391 313.7365417480469 208.5683898925781 L 311.2178344726562 208.6817474365234 L 311.0162963867188 208.6908264160156 L 310.8648986816406 208.5575103759766 C 310.7234497070312 208.4329376220703 307.4180297851562 205.4760131835938 308.9502563476562 202.8021545410156 C 309.3803405761719 202.0516204833984 310.4451599121094 201.6060180664062 311.2626953125 201.3643646240234 C 312.322265625 201.0511627197266 313.6333312988281 200.8786773681641 314.9543762207031 200.8786773681641 C 317.0196533203125 200.8786773681641 318.9348449707031 201.2890014648438 320.34716796875 202.0340576171875 C 322.130859375 202.9750366210938 323.1114501953125 204.4308624267578 323.1829528808594 206.244140625 C 323.2313842773438 207.4747619628906 322.9369812011719 208.4304656982422 322.3080139160156 209.0847320556641 C 321.6774597167969 209.7406158447266 320.7329711914062 210.0732116699219 319.5008239746094 210.0732879638672 Z" stroke="none"/>
            <path d="M 319.5007934570312 209.5732879638672 C 321.2888793945312 209.5731811523438 322.7840270996094 208.8226470947266 322.683349609375 206.2638397216797 C 322.4394226074219 200.0770263671875 310.7325439453125 200.6976776123047 309.3840637207031 203.0507507324219 C 308.0371398925781 205.4012298583984 311.1953430175781 208.1822662353516 311.1953430175781 208.1822662353516 L 313.8374633789062 208.0633544921875 C 313.8374633789062 208.0633544921875 316.9641418457031 209.5734558105469 319.5007934570312 209.5732879638672 M 319.5008544921875 210.5732879638672 C 317.1565856933594 210.5734405517578 314.4490661621094 209.4384002685547 313.6388854980469 209.0733032226562 L 310.8372497558594 209.1993865966797 L 310.5344848632812 208.9327545166016 C 310.3804931640625 208.7971801757812 306.7835998535156 205.5775146484375 308.5164184570312 202.5535583496094 C 309.4363708496094 200.9482574462891 312.5594787597656 200.3786773681641 314.9543762207031 200.3786773681641 C 317.0994873046875 200.3786773681641 319.0975341796875 200.8095092773438 320.5804748535156 201.5918273925781 C 322.5309448242188 202.6207885742188 323.6036376953125 204.2227172851562 323.6825866699219 206.2244415283203 C 323.7365417480469 207.5962524414062 323.3953552246094 208.6751556396484 322.66845703125 209.4312591552734 C 321.9400024414062 210.18896484375 320.874267578125 210.5731964111328 319.5008544921875 210.5732879638672 Z" stroke="none" fill="#fff"/>
          </g>
        </g>
        <g id="组_2092" data-name="组 2092" transform="translate(7.065 18.432)">
          <path id="路径_2381" data-name="路径 2381" d="M279.519,237.4s-2.54-3.356-4.985-2.184-3.924,12.8,2.228,13.5,2.445-8.69,2.445-8.69Z" transform="translate(-272.417 -234.972)" fill="#8e8e8f" stroke="#fff" stroke-width="1.948"/>
        </g>
        <g id="组_2093" data-name="组 2093" transform="translate(7.065 18.432)">
          <path id="路径_2382" data-name="路径 2382" d="M279.519,237.4s-2.54-3.356-4.985-2.184-3.924,12.8,2.228,13.5,2.445-8.69,2.445-8.69Z" transform="translate(-272.417 -234.972)" fill="#1a1311"/>
        </g>
        <g id="组_2094" data-name="组 2094" transform="translate(13.205 5.396)">
          <path id="路径_2383" data-name="路径 2383" d="M284.878,245.212c-1.59-4.741-4.571-16.68,2.333-24.624,9.535-10.967,19.269-8.141,25.542-4.086,6.026,3.894,12.017,6.782,9.824,24.417" transform="translate(-282.346 -212.392)" fill="#fff"/>
          <path id="路径_2384" data-name="路径 2384" d="M284.447,245.234a.508.508,0,0,1-.533-.355c-1.628-4.844-4.647-16.987,2.438-25.124,4.368-5.017,9.2-7.654,14.352-7.839a20.467,20.467,0,0,1,11.83,3.662c.282.183.565.363.846.542a35.818,35.818,0,0,1,4.17,2.949,14.322,14.322,0,0,1,3.429,4.243,18.582,18.582,0,0,1,1.9,6.751,45.468,45.468,0,0,1-.286,10.421.515.515,0,0,1-.571.462.53.53,0,0,1-.438-.6c.938-7.533.462-12.78-1.5-16.509-1.723-3.28-4.4-4.987-7.235-6.795-.283-.179-.566-.361-.851-.544-6.259-4.038-15.661-6.625-24.9,3.986-6.71,7.707-3.793,19.379-2.227,24.039a.546.546,0,0,1-.311.685A.5.5,0,0,1,284.447,245.234Z" transform="translate(-281.862 -211.906)" fill="#070203"/>
        </g>
        <g id="组_2096" data-name="组 2096" transform="translate(30.681 12.757)">
          <g id="组_2095" data-name="组 2095">
            <path id="路径_2385" data-name="路径 2385" d="M317.479,230.759a7.46,7.46,0,0,1,4.568,2.19c1.354,1.428,5.219.466,5.3-1.422s-2.182-5.693-4.575-6.283c-2.421-.6-4.313-.623-6.576,1.469C314.1,228.649,316.709,230.583,317.479,230.759Z" transform="translate(-315.4 -224.893)" fill="#1a1311"/>
          </g>
        </g>
        <g id="组_2098" data-name="组 2098" transform="translate(19.42 23.005)">
          <g id="组_2097" data-name="组 2097">
            <path id="路径_2386" data-name="路径 2386" d="M300.9,245.247a7.452,7.452,0,0,0,1.615,4.8c1.252,1.518-.178,5.236-2.061,5.089s-5.383-2.863-5.676-5.31c-.3-2.477-.091-4.358,2.261-6.348C299.22,241.638,300.82,244.461,300.9,245.247Z" transform="translate(-294.673 -242.867)" fill="#1a1311"/>
          </g>
        </g>
        <g id="组_2100" data-name="组 2100" transform="translate(32.836 15.28)">
          <g id="组_2099" data-name="组 2099">
            <path id="路径_2387" data-name="路径 2387" d="M322.4,230.3a1.482,1.482,0,1,1-2.091-.128A1.481,1.481,0,0,1,322.4,230.3Z" transform="translate(-319.809 -229.798)" fill="#070304"/>
          </g>
        </g>
        <g id="组_2102" data-name="组 2102" transform="translate(33.571 15.327)">
          <g id="组_2101" data-name="组 2101">
            <path id="路径_2388" data-name="路径 2388" d="M322.347,230.159a.629.629,0,1,1-.886-.054A.628.628,0,0,1,322.347,230.159Z" transform="translate(-321.248 -229.947)" fill="#fff"/>
          </g>
        </g>
        <g id="组_2104" data-name="组 2104" transform="translate(22.157 24.739)">
          <g id="组_2103" data-name="组 2103">
            <path id="路径_2389" data-name="路径 2389" d="M302.505,247.89a1.482,1.482,0,1,1-2.091-.127A1.483,1.483,0,0,1,302.505,247.89Z" transform="translate(-299.914 -247.391)" fill="#070304"/>
          </g>
        </g>
        <g id="组_2106" data-name="组 2106" transform="translate(22.853 24.717)">
          <g id="组_2105" data-name="组 2105">
            <path id="路径_2390" data-name="路径 2390" d="M302.443,247.672a.68.68,0,1,1-.958-.058A.68.68,0,0,1,302.443,247.672Z" transform="translate(-301.254 -247.443)" fill="#fff"/>
          </g>
        </g>
        <g id="组_2107" data-name="组 2107" transform="translate(46.109 15.032)">
          <path id="路径_2391" data-name="路径 2391" d="M346.92,247.443c.63-.888-.8-5.7-1.292-6.649s-4.577-8.119-.364-9.157a3.984,3.984,0,0,1,4.591-2.47,3.65,3.65,0,0,1,4.518-.149s4.908-2.489,5.778,7.836c0,0,1.362,7.594,2.325,9.049" transform="translate(-342.867 -227.799)" fill="#1a1311"/>
          <path id="路径_2392" data-name="路径 2392" d="M362.046,245.924a.513.513,0,0,1-.481-.226c-.994-1.5-2.262-8.454-2.4-9.242,0-.015-.006-.033-.007-.048-.419-4.962-1.765-6.714-2.819-7.312a2.5,2.5,0,0,0-2.219-.108.505.505,0,0,1-.507-.028,3.135,3.135,0,0,0-3.89.094.509.509,0,0,1-.43.131,3.536,3.536,0,0,0-3.2.883,3.663,3.663,0,0,0-.828,1.244.506.506,0,0,1-.363.334,1.753,1.753,0,0,0-1.289.99c-.411.918-.419,2.917,1.874,7.224l.111.211a20.417,20.417,0,0,1,1.108,3.464,15.316,15.316,0,0,1,.372,2.095,2.475,2.475,0,0,1-.226,1.623.512.512,0,0,1-.836-.59c.1-.16.153-.975-.316-2.932a19.17,19.17,0,0,0-1.013-3.188c-.025-.049-.06-.116-.1-.2a25.585,25.585,0,0,1-1.586-3.51c-.692-1.987-.8-3.538-.319-4.614a2.7,2.7,0,0,1,1.724-1.495,4.741,4.741,0,0,1,.975-1.386,4.473,4.473,0,0,1,3.845-1.2,4.244,4.244,0,0,1,1.29-.654,4.19,4.19,0,0,1,3.426.471,3.517,3.517,0,0,1,2.884.234c1.855,1.034,2.984,3.76,3.354,8.1.377,2.1,1.5,7.717,2.244,8.835a.512.512,0,0,1-.143.71A.525.525,0,0,1,362.046,245.924Z" transform="translate(-342.381 -227.312)" fill="#070203"/>
        </g>
        <g id="组_2108" data-name="组 2108" transform="translate(48.061 20.144)">
          <path id="路径_2393" data-name="路径 2393" d="M349.81,239.567a.8.8,0,1,1-1.046-.634A.869.869,0,0,1,349.81,239.567Z" transform="translate(-348.254 -238.898)" fill="#fff"/>
        </g>
        <g id="组_2109" data-name="组 2109" transform="translate(49.619 18.082)">
          <path id="路径_2394" data-name="路径 2394" d="M352.716,235.727a.8.8,0,1,1-1.046-.634A.87.87,0,0,1,352.716,235.727Z" transform="translate(-351.16 -235.058)" fill="#fff"/>
        </g>
        <g id="组_2110" data-name="组 2110" transform="translate(51.92 16.747)">
          <path id="路径_2395" data-name="路径 2395" d="M357.008,233.241a.8.8,0,1,1-1.047-.633A.87.87,0,0,1,357.008,233.241Z" transform="translate(-355.45 -232.572)" fill="#fff"/>
        </g>
        <g id="组_2111" data-name="组 2111" transform="translate(54.988 16.591)">
          <path id="路径_2396" data-name="路径 2396" d="M362.729,232.949a.8.8,0,1,1-1.048-.632A.87.87,0,0,1,362.729,232.949Z" transform="translate(-361.172 -232.281)" fill="#fff"/>
        </g>
        <g id="组_2112" data-name="组 2112" transform="translate(57.404 17.715)">
          <path id="路径_2397" data-name="路径 2397" d="M367.233,235.042a.8.8,0,1,1-1.047-.634A.87.87,0,0,1,367.233,235.042Z" transform="translate(-365.676 -234.374)" fill="#fff"/>
        </g>
        <g id="组_2113" data-name="组 2113" transform="translate(49.193 26.28)">
          <path id="路径_2398" data-name="路径 2398" d="M350.807,252.482a1.227,1.227,0,1,0-.222-1.833A1.309,1.309,0,0,0,350.807,252.482Z" transform="translate(-350.304 -250.281)" fill="#fff"/>
        </g>
        <g id="组_2114" data-name="组 2114" transform="translate(51.237 20.735)">
          <path id="路径_2399" data-name="路径 2399" d="M361.322,241.582a2.073,2.073,0,0,1-1.806,2.175c-1.039-.026-1.078-.845-2.176-.191-.619.368-.722,1.093-1.567,1.16a1.892,1.892,0,0,1-1.965-1.083c-.248-.908.961-3.091,3.035-3.66S361.073,240.674,361.322,241.582Z" transform="translate(-353.777 -239.84)" fill="#fff"/>
        </g>
        <g id="组_2115" data-name="组 2115" transform="translate(54.24 27.576)">
          <path id="路径_2400" data-name="路径 2400" d="M363.854,254.076a2.076,2.076,0,0,1-2.438,2.047,2.176,2.176,0,0,1-1.671-1.193c-.543-1.157.522-1.869,1.575-2.158C363.089,252.287,363.85,253.117,363.854,254.076Z" transform="translate(-359.598 -252.629)" fill="#fff"/>
        </g>
        <g id="组_2116" data-name="组 2116" transform="translate(29.239 22.584)">
          <path id="路径_2401" data-name="路径 2401" d="M319.373,243.519c.765.845.27,3.06-1.425,4.592s-3.948,1.8-4.712.956.146-2.248,1.764-3.86C316.762,243.449,318.609,242.673,319.373,243.519Z" transform="translate(-312.962 -243.176)" fill="#1a1311"/>
        </g>
        <g id="组_2117" data-name="组 2117" transform="translate(29.703 24.802)">
          <path id="路径_2402" data-name="路径 2402" d="M313.6,255.369a3.82,3.82,0,0,0,.5.218,4.411,4.411,0,0,0,.511.15,3.5,3.5,0,0,0,.514.075,2.669,2.669,0,0,0,.5-.01,2.522,2.522,0,0,0,.926-.284,2.758,2.758,0,0,0,.4-.263,3.625,3.625,0,0,0,.36-.326,4.192,4.192,0,0,0,.32-.376c.1-.132.2-.271.286-.412s.174-.289.253-.44c.042-.074.079-.151.118-.228s.074-.156.11-.233c.071-.158.141-.315.206-.476s.128-.322.185-.488c.03-.081.058-.164.087-.248s.056-.165.083-.248c.054-.167.1-.337.156-.5a.52.52,0,0,1,.394-.358h0l.121-.023.126-.027c.084-.017.168-.037.253-.057.169-.037.337-.081.506-.124.337-.085.67-.187,1-.292q.248-.078.491-.167c.162-.059.323-.119.483-.183s.315-.135.47-.206.307-.148.456-.228.292-.167.432-.258a4.252,4.252,0,0,0,.4-.294,3.107,3.107,0,0,0,.35-.336,2.317,2.317,0,0,0,.28-.389,1.834,1.834,0,0,0,.18-.444,1.871,1.871,0,0,0,.059-.489,2.713,2.713,0,0,0-.061-.513,4.313,4.313,0,0,0-.157-.514,2.871,2.871,0,0,1,.3.46,2.42,2.42,0,0,1,.2.529,2.025,2.025,0,0,1,.053.582,2.175,2.175,0,0,1-.116.588,2.7,2.7,0,0,1-.262.538,3.5,3.5,0,0,1-.36.468,4.188,4.188,0,0,1-.42.4,5.425,5.425,0,0,1-.456.349c-.157.107-.317.208-.479.3s-.329.181-.5.266-.336.164-.507.237-.343.142-.517.209-.347.128-.524.185-.352.113-.528.165-.357.1-.536.144l-.272.064-.137.03-.143.029.4-.357c-.055.177-.109.358-.169.535-.029.089-.06.177-.092.267s-.063.176-.1.264c-.068.176-.141.349-.218.523s-.158.344-.248.515c-.045.083-.087.169-.137.251s-.094.167-.146.25c-.1.166-.21.324-.325.481a5.441,5.441,0,0,1-.373.455,4.468,4.468,0,0,1-.43.412,3.607,3.607,0,0,1-.49.352,3.12,3.12,0,0,1-.548.264,3.025,3.025,0,0,1-.589.15,2.966,2.966,0,0,1-.6.021,3.053,3.053,0,0,1-.58-.1,3.25,3.25,0,0,1-.539-.2,3.475,3.475,0,0,1-.487-.281A2.815,2.815,0,0,1,313.6,255.369Z" transform="translate(-313.595 -246.374)" fill="#1a1311"/>
        </g>
        <g id="组_2118" data-name="组 2118" transform="translate(33.093 26.042)">
          <path id="路径_2403" data-name="路径 2403" d="M322.637,253.432a.507.507,0,0,1-.438-.174,12.528,12.528,0,0,1-1.871-2.8.509.509,0,0,1,.956-.353,11.371,11.371,0,0,0,1.684,2.49.51.51,0,0,1-.331.84Z" transform="translate(-320.296 -249.769)" fill="#1a1311"/>
        </g>
        <g id="组_2120" data-name="组 2120" transform="translate(0 31.846)">
          <g id="组_2119" data-name="组 2119">
            <path id="路径_2404" data-name="路径 2404" d="M331.745,261.133l-72.523,7.347a.526.526,0,0,1-.585-.452.515.515,0,0,1,.473-.561l72.524-7.347a.528.528,0,0,1,.585.453A.515.515,0,0,1,331.745,261.133Z" transform="translate(-258.633 -260.117)" fill="#070203"/>
          </g>
        </g>
      </g>
      <path id="路径_2405" data-name="路径 2405" d="M313.662,251.543s-1.217,1.5,1.279,1.9A1.533,1.533,0,0,1,313.662,251.543Z" transform="translate(-25.382 -23.229)" fill="#fff"/>
      <path id="路径_2406" data-name="路径 2406" d="M323.469,258.663s4.454.1,4.7-4.056l-3.706,1.062Z" transform="translate(-29.994 -24.567)" fill="#1a1311"/>
    </g>
    <g id="组_1331" data-name="组 1331" transform="translate(795.416 1797.717)">
      <rect id="矩形_47" data-name="矩形 47" width="181.259" height="35.281" rx="17.641" transform="translate(76.588 1431.19)" fill="#fff"/>
      <g id="组_1330" data-name="组 1330" transform="translate(67.584 1425.817)">
        <g id="路径_2095" data-name="路径 2095" transform="translate(-67.584 -1426.691)" stroke-linecap="round" stroke-linejoin="round">
          <path d="M 73.2718505859375 1473.974609375 C 72.75669097900391 1473.974609375 71.98773193359375 1473.807739257812 71.25002288818359 1473.012939453125 L 71.24442291259766 1473.0068359375 L 71.23886871337891 1473.000732421875 L 68.13243865966797 1469.598022460938 C 67.06952667236328 1468.448486328125 66.96405029296875 1466.928833007812 67.85800933837891 1465.629272460938 L 67.86524963378906 1465.618774414062 L 67.87261962890625 1465.608276367188 C 70.50331878662109 1461.886962890625 73.04566192626953 1457.632690429688 75.42903900146484 1452.9638671875 L 75.43350982666016 1452.955078125 L 75.43807983398438 1452.9462890625 C 76.20169830322266 1451.486083984375 77.28362274169922 1451.26806640625 77.86057281494141 1451.26806640625 C 78.30866241455078 1451.26806640625 79.17046356201172 1451.40576171875 79.90782928466797 1452.32763671875 L 79.92870330810547 1452.353759765625 L 79.94868469238281 1452.380493164062 L 82.54961395263672 1455.86474609375 C 83.41139984130859 1456.964965820312 83.52199554443359 1458.362426757812 82.85160064697266 1459.705200195312 L 82.84998321533203 1459.708374023438 L 82.84835815429688 1459.711547851562 C 80.62858581542969 1464.117797851562 78.16036224365234 1468.451538085938 75.51195526123047 1472.592895507812 C 74.78041076660156 1473.838500976562 73.70497894287109 1473.974609375 73.2718505859375 1473.974609375 Z M 111.0400085449219 1473.25732421875 L 82.00070190429688 1473.25732421875 C 80.82270812988281 1473.25732421875 80.13645172119141 1472.743530273438 79.7681884765625 1472.3125 C 79.403564453125 1471.885620117188 79.00650024414062 1471.13916015625 79.18553924560547 1470.006469726562 L 79.19187927246094 1469.96630859375 L 79.19985961914062 1469.926391601562 L 79.93430328369141 1466.254638671875 C 80.20308685302734 1464.686767578125 81.41617584228516 1463.676513671875 83.03754425048828 1463.676513671875 L 92.44624328613281 1463.676513671875 L 92.44624328613281 1457.6015625 L 85.45785522460938 1457.6015625 C 84.27967834472656 1457.6015625 83.59352874755859 1457.088012695312 83.22537994384766 1456.6572265625 C 82.86085510253906 1456.230712890625 82.46384429931641 1455.484497070312 82.642578125 1454.351440429688 L 82.64896392822266 1454.310913085938 L 82.65700531005859 1454.270874023438 L 83.39141845703125 1450.59912109375 C 83.66020965576172 1449.031127929688 84.87331390380859 1448.020874023438 86.49468231201172 1448.020874023438 L 92.44624328613281 1448.020874023438 L 92.44624328613281 1443.328857421875 L 83.48207855224609 1443.328857421875 C 82.30458068847656 1443.328857421875 81.61855316162109 1442.815673828125 81.25038909912109 1442.385131835938 C 80.88581085205078 1441.958740234375 80.48859405517578 1441.212768554688 80.66663360595703 1440.079833984375 L 80.67310333251953 1440.038696289062 L 80.68128204345703 1439.997802734375 L 81.41609954833984 1436.326904296875 C 81.43202972412109 1436.233764648438 81.45127105712891 1436.142700195312 81.47374725341797 1436.053588867188 L 80.43824005126953 1437.125244140625 C 79.62957763671875 1437.9873046875 78.77919769287109 1438.169067382812 78.20660400390625 1438.169067382812 C 77.63259887695312 1438.169067382812 77.06446075439453 1437.9853515625 76.5635986328125 1437.6376953125 L 76.46208953857422 1437.567260742188 L 76.37003326416016 1437.48486328125 C 75.91014099121094 1437.0732421875 74.48397827148438 1436.058349609375 70.09951782226562 1433.885498046875 L 70.05181884765625 1433.861938476562 L 70.00543975830078 1433.835693359375 C 68.95473480224609 1433.243408203125 68.38349151611328 1432.467163085938 68.30757904052734 1431.528564453125 C 68.26838684082031 1431.0439453125 68.34689331054688 1430.120849609375 69.29820251464844 1429.333740234375 L 72.18372344970703 1426.790161132812 L 72.21958923339844 1426.758544921875 L 72.25691986083984 1426.728759765625 C 72.87931823730469 1426.230834960938 73.62618255615234 1425.967651367188 74.416748046875 1425.967651367188 C 74.97210693359375 1425.967651367188 75.54588317871094 1426.09765625 76.12281036376953 1426.353881835938 C 78.79820251464844 1427.454223632812 81.03106689453125 1428.669311523438 82.76134490966797 1429.96630859375 C 83.709716796875 1430.608764648438 83.99269104003906 1431.397094726562 84.06168365478516 1431.951049804688 C 84.11204528808594 1432.35546875 84.09661102294922 1433.105712890625 83.52419281005859 1433.88671875 C 83.83284759521484 1433.795654296875 84.16646575927734 1433.747802734375 84.51936340332031 1433.747802734375 L 92.51185607910156 1433.747802734375 L 90.75179290771484 1429.91552734375 L 90.74694061279297 1429.905029296875 L 90.74221038818359 1429.894409179688 C 90.21909332275391 1428.719482421875 90.52432250976562 1427.838012695312 90.75283050537109 1427.417236328125 C 90.98014068603516 1426.99853515625 91.54833984375 1426.266479492188 92.79974365234375 1426.068359375 L 96.79624176025391 1425.427124023438 C 96.99214935302734 1425.39599609375 97.18450164794922 1425.380615234375 97.37149047851562 1425.380615234375 C 98.62375640869141 1425.380615234375 99.68155670166016 1426.05517578125 100.2764053344727 1427.232177734375 L 102.1963806152344 1430.923583984375 L 102.2039947509766 1430.938110351562 L 102.2113494873047 1430.952880859375 C 102.7067184448242 1431.94482421875 102.8736038208008 1432.8818359375 102.7106552124023 1433.747802734375 L 110.7930450439453 1433.747802734375 C 111.9711990356445 1433.747802734375 112.6575317382812 1434.262084960938 113.0258178710938 1434.693481445312 C 113.390495300293 1435.12060546875 113.7874298095703 1435.867553710938 113.6075439453125 1437.000366210938 L 113.6012878417969 1437.039794921875 L 113.5934829711914 1437.078857421875 L 112.859504699707 1440.75 C 112.5909729003906 1442.318359375 111.3776931762695 1443.328857421875 109.7557601928711 1443.328857421875 L 102.5697784423828 1443.328857421875 L 102.5697784423828 1448.020874023438 L 109.0148544311523 1448.020874023438 C 110.1928939819336 1448.020874023438 110.879150390625 1448.53466796875 111.2474212646484 1448.965698242188 C 111.6119918823242 1449.392456054688 112.0090103149414 1450.138793945312 111.8300247192383 1451.271240234375 L 111.8236923217773 1451.311279296875 L 111.8157501220703 1451.35107421875 L 111.0816116333008 1455.0234375 C 110.8123779296875 1456.59130859375 109.5991134643555 1457.6015625 107.9780197143555 1457.6015625 L 102.5697784423828 1457.6015625 L 102.5697784423828 1463.676513671875 L 112.0768432617188 1463.676513671875 C 113.2548751831055 1463.676513671875 113.9411392211914 1464.190307617188 114.3094100952148 1464.621459960938 C 114.6740036010742 1465.048217773438 115.0710220336914 1465.794555664062 114.8920135498047 1466.926879882812 L 114.8856811523438 1466.966918945312 L 114.8777389526367 1467.006713867188 L 114.1435852050781 1470.67919921875 C 113.8741073608398 1472.2470703125 112.6608047485352 1473.25732421875 111.0400085449219 1473.25732421875 Z M 75.47193145751953 1451.750366210938 C 74.907470703125 1451.750366210938 74.36392211914062 1451.584838867188 73.85639953613281 1451.258422851562 L 73.73614501953125 1451.18115234375 L 73.62811279296875 1451.08740234375 C 73.14913940429688 1450.672241210938 71.70281982421875 1449.663452148438 67.39775085449219 1447.572998046875 L 67.37138366699219 1447.560180664062 L 67.34539031982422 1447.546630859375 C 66.03835296630859 1446.864013671875 65.67481994628906 1445.958251953125 65.60001373291016 1445.318725585938 C 65.54281616210938 1444.829833984375 65.59051513671875 1443.888061523438 66.54314422607422 1443.047973632812 L 69.34315490722656 1440.493041992188 L 69.36275482177734 1440.475219726562 L 69.3828125 1440.457763671875 C 70.01403045654297 1439.911865234375 70.78395843505859 1439.623291015625 71.60938262939453 1439.623291015625 C 72.18514251708984 1439.623291015625 72.78121185302734 1439.765014648438 73.38185882568359 1440.044921875 C 76.16879272460938 1441.217163085938 78.30484008789062 1442.338989257812 79.90896606445312 1443.473022460938 C 80.84677886962891 1444.08349609375 81.13165283203125 1444.859985351562 81.20438385009766 1445.408935546875 C 81.27820587158203 1445.966064453125 81.20162200927734 1446.806640625 80.42330932617188 1447.657470703125 L 77.76932525634766 1450.655151367188 L 77.75370025634766 1450.672729492188 L 77.73766326904297 1450.690063476562 C 76.92414093017578 1451.56640625 76.0565185546875 1451.750366210938 75.47193145751953 1451.750366210938 Z" stroke="none"/>
          <path d="M 97.37148284912109 1427.380615234375 C 97.28871917724609 1427.380615234375 97.20256042480469 1427.3876953125 97.11308288574219 1427.40185546875 L 93.11260986328125 1428.043701171875 C 92.48680114746094 1428.142822265625 92.3055419921875 1428.488525390625 92.56927490234375 1429.080810546875 L 95.63126373291016 1435.747802734375 L 84.51936340332031 1435.747802734375 C 83.8604736328125 1435.747802734375 83.48207855224609 1436.061767578125 83.38374328613281 1436.686767578125 L 82.64237976074219 1440.390380859375 C 82.54404449462891 1441.01611328125 82.82320404052734 1441.328857421875 83.48207855224609 1441.328857421875 L 94.44624328613281 1441.328857421875 L 94.44624328613281 1450.020874023438 L 86.49468231201172 1450.020874023438 C 85.83580017089844 1450.020874023438 85.45785522460938 1450.333984375 85.35905456542969 1450.958984375 L 84.61814880371094 1454.6630859375 C 84.51936340332031 1455.289306640625 84.79895782470703 1455.6015625 85.45785522460938 1455.6015625 L 94.44624328613281 1455.6015625 L 94.44624328613281 1465.676513671875 L 83.03752899169922 1465.676513671875 C 82.37865447998047 1465.676513671875 82.00070190429688 1465.98974609375 81.90190887451172 1466.614624023438 L 81.1610107421875 1470.318725585938 C 81.06221771240234 1470.943725585938 81.34181976318359 1471.25732421875 82.00070190429688 1471.25732421875 L 111.0400085449219 1471.25732421875 C 111.6984481811523 1471.25732421875 112.0768280029297 1470.943725585938 112.1760711669922 1470.318725585938 L 112.9165420532227 1466.614624023438 C 113.0153198242188 1465.98974609375 112.7352828979492 1465.676513671875 112.0768280029297 1465.676513671875 L 100.5697784423828 1465.676513671875 L 100.5697784423828 1455.6015625 L 107.9780197143555 1455.6015625 C 108.6360092163086 1455.6015625 109.0148391723633 1455.289306640625 109.1140823364258 1454.6630859375 L 109.8545532226562 1450.958984375 C 109.9533386230469 1450.333984375 109.6732788085938 1450.020874023438 109.0148391723633 1450.020874023438 L 100.5697784423828 1450.020874023438 L 100.5697784423828 1441.328857421875 L 109.7557601928711 1441.328857421875 C 110.4141998291016 1441.328857421875 110.7930450439453 1441.01611328125 110.8918228149414 1440.390380859375 L 111.6322937011719 1436.686767578125 C 111.7315292358398 1436.061767578125 111.4514694213867 1435.747802734375 110.7930450439453 1435.747802734375 L 96.71793365478516 1435.747802734375 L 99.18719482421875 1434.809692382812 C 100.7342834472656 1434.283569335938 101.145751953125 1433.295654296875 100.4220504760742 1431.846435546875 L 98.49567413330078 1428.142822265625 C 98.24174499511719 1427.634643554688 97.86675262451172 1427.380493164062 97.37148284912109 1427.380615234375 M 74.41675567626953 1427.967651367188 C 74.07889556884766 1427.967651367188 73.77537536621094 1428.0751953125 73.50624084472656 1428.29052734375 L 70.59243774414062 1430.859008789062 C 70.09848785400391 1431.254150390625 70.22946929931641 1431.666137695312 70.98759460449219 1432.093505859375 C 74.510009765625 1433.839111328125 76.74861145019531 1435.1396484375 77.70386505126953 1435.99462890625 C 78.13165283203125 1436.291381835938 78.55986785888672 1436.20947265625 78.98809814453125 1435.747802734375 L 81.80313110351562 1432.834350585938 C 82.23046875 1432.37353515625 82.16521453857422 1431.962524414062 81.60554504394531 1431.599609375 C 79.99187469482422 1430.3818359375 77.90142822265625 1429.245849609375 75.33338928222656 1428.191772460938 C 75.00395202636719 1428.04248046875 74.69841766357422 1427.967651367188 74.41675567626953 1427.967651367188 M 71.609375 1441.623291015625 C 71.26471710205078 1441.623291015625 70.95875549316406 1441.739013671875 70.69122314453125 1441.970458984375 L 67.87619781494141 1444.5390625 C 67.38226318359375 1444.96728515625 67.51367950439453 1445.378173828125 68.27135467529297 1445.77392578125 C 71.72805786132812 1447.452392578125 73.95079040527344 1448.72021484375 74.938232421875 1449.576293945312 C 75.39910888671875 1449.872924804688 75.84364318847656 1449.790649414062 76.27187347412109 1449.329345703125 L 78.93871307373047 1446.317138671875 C 79.36605834960938 1445.8564453125 79.31665802001953 1445.461181640625 78.79053497314453 1445.131713867188 C 77.30870819091797 1444.078125 75.23458862304688 1442.991943359375 72.56776428222656 1441.872192382812 C 72.22046661376953 1441.706176757812 71.90106201171875 1441.623291015625 71.609375 1441.623291015625 M 77.86057281494141 1453.26806640625 C 77.63812255859375 1453.26806640625 77.42128753662109 1453.469848632812 77.21036529541016 1453.873168945312 C 74.77329254150391 1458.647216796875 72.20523834228516 1462.944091796875 69.50576782226562 1466.762817382812 C 69.14324951171875 1467.289794921875 69.17633056640625 1467.783813476562 69.60455322265625 1468.244140625 L 72.7159423828125 1471.65234375 C 73.14330291748047 1472.11279296875 73.50624847412109 1472.079711914062 73.8026123046875 1471.553588867188 C 76.43637084960938 1467.43798828125 78.85623931884766 1463.190551757812 81.06221771240234 1458.811767578125 C 81.39078521728516 1458.153686523438 81.35858154296875 1457.576904296875 80.96342468261719 1457.083251953125 L 78.34597778320312 1453.576904296875 C 78.18130493164062 1453.370971679688 78.01951599121094 1453.26806640625 77.86057281494141 1453.26806640625 M 97.37139892578125 1423.380615234375 C 97.3714599609375 1423.380615234375 97.3714599609375 1423.380615234375 97.37148284912109 1423.380615234375 C 99.37208557128906 1423.380493164062 101.1200408935547 1424.477661132812 102.0553131103516 1426.318115234375 L 103.9707183837891 1430.000610351562 C 103.9808578491211 1430.020141601562 103.9908447265625 1430.039672851562 104.0006637573242 1430.059326171875 C 104.2984924316406 1430.65576171875 104.4952087402344 1431.219970703125 104.6150131225586 1431.747802734375 L 110.7930450439453 1431.747802734375 C 112.8357391357422 1431.747802734375 114.0217437744141 1432.779663085938 114.5468826293945 1433.394775390625 C 115.4485244750977 1434.450927734375 115.8164138793945 1435.8427734375 115.5828018188477 1437.314086914062 C 115.574462890625 1437.366577148438 115.5650787353516 1437.418823242188 115.5546646118164 1437.470947265625 L 114.8256912231445 1441.117065429688 C 114.380729675293 1443.640869140625 112.3558959960938 1445.328857421875 109.7557601928711 1445.328857421875 L 104.5697784423828 1445.328857421875 L 104.5697784423828 1446.020874023438 L 109.0148391723633 1446.020874023438 C 111.0570602416992 1446.020874023438 112.2429122924805 1447.052001953125 112.7680206298828 1447.666625976562 C 113.6695098876953 1448.721801757812 114.0379638671875 1450.11279296875 113.8055038452148 1451.58349609375 C 113.7970581054688 1451.636840820312 113.7875442504883 1451.690063476562 113.7769393920898 1451.743041992188 L 113.0478134155273 1455.390502929688 C 112.6022262573242 1457.913940429688 110.5772399902344 1459.6015625 107.9780197143555 1459.6015625 L 104.5697784423828 1459.6015625 L 104.5697784423828 1461.676513671875 L 112.0768280029297 1461.676513671875 C 114.1190338134766 1461.676513671875 115.3049011230469 1462.707641601562 115.8300094604492 1463.322265625 C 116.7315063476562 1464.37744140625 117.0999603271484 1465.7685546875 116.8674774169922 1467.239135742188 C 116.8590393066406 1467.292602539062 116.8495330810547 1467.345703125 116.8389282226562 1467.398681640625 L 116.1097106933594 1471.046508789062 C 115.6636352539062 1473.569580078125 113.6385879516602 1475.25732421875 111.0400085449219 1475.25732421875 L 82.00070190429688 1475.25732421875 C 79.95854187011719 1475.25732421875 78.77268981933594 1474.226196289062 78.24758148193359 1473.611572265625 C 78.04393005371094 1473.373168945312 77.867431640625 1473.11767578125 77.71896362304688 1472.847900390625 C 77.55116271972656 1473.1142578125 77.38257598876953 1473.3798828125 77.21329498291016 1473.644775390625 C 76.33647918701172 1475.106689453125 74.87335968017578 1475.974609375 73.2718505859375 1475.974609375 C 72.5242919921875 1475.974609375 71.07713317871094 1475.7666015625 69.78413391113281 1474.373413085938 C 69.77666473388672 1474.365356445312 69.76921081542969 1474.357299804688 69.76181030273438 1474.349243164062 L 66.66007232666016 1470.951538085938 C 65.82649993896484 1470.04833984375 65.34511566162109 1468.957397460938 65.26750946044922 1467.794921875 C 65.19074249267578 1466.644775390625 65.51673126220703 1465.50390625 66.21025085449219 1464.495727539062 C 66.21990203857422 1464.481689453125 66.22964477539062 1464.4677734375 66.23947143554688 1464.453857421875 C 68.61238861083984 1461.097045898438 70.91465759277344 1457.292114257812 73.09217071533203 1453.129516601562 C 72.98471832275391 1453.070678710938 72.87876892089844 1453.007568359375 72.77460479736328 1452.940673828125 C 72.61444854736328 1452.837646484375 72.46185302734375 1452.723266601562 72.3179931640625 1452.5986328125 C 72.06388092041016 1452.378295898438 70.89508819580078 1451.494506835938 66.52416229248047 1449.372192382812 C 66.48899841308594 1449.355102539062 66.4541015625 1449.337524414062 66.41944885253906 1449.319458007812 C 64.22771453857422 1448.174560546875 63.720703125 1446.467041015625 63.61354827880859 1445.551147460938 C 63.43979644775391 1444.065795898438 64.01959991455078 1442.615112304688 65.20568084716797 1441.560913085938 L 67.99507141113281 1439.015625 C 68.02122497558594 1438.991821289062 68.04769134521484 1438.96826171875 68.07447052001953 1438.945068359375 C 69.07427215576172 1438.080322265625 70.296630859375 1437.623291015625 71.60938262939453 1437.623291015625 C 72.21905517578125 1437.623291015625 72.83378601074219 1437.723876953125 73.44548797607422 1437.923095703125 C 72.56513977050781 1437.406372070312 71.22738647460938 1436.676635742188 69.21144866943359 1435.677490234375 C 69.14786529541016 1435.64599609375 69.08512878417969 1435.61279296875 69.02330780029297 1435.578002929688 C 66.84014129638672 1434.347290039062 66.38880920410156 1432.613647460938 66.31409454345703 1431.689819335938 C 66.19516754150391 1430.219360351562 66.80669403076172 1428.814575195312 67.99520111083984 1427.816284179688 L 70.86121368408203 1425.289916992188 C 70.90903472900391 1425.247680664062 70.95783996582031 1425.206787109375 71.00762176513672 1425.166870117188 C 71.98838806152344 1424.38232421875 73.16725158691406 1423.967651367188 74.416748046875 1423.967651367188 C 75.24459838867188 1423.967651367188 76.08209228515625 1424.151489257812 76.90737915039062 1424.514038085938 C 79.71035766601562 1425.668701171875 82.07061767578125 1426.955200195312 83.92549133300781 1428.339599609375 C 85.54119110107422 1429.454223632812 85.94840240478516 1430.917358398438 86.04634857177734 1431.703857421875 C 86.04817199707031 1431.718505859375 86.04993438720703 1431.733154296875 86.05161285400391 1431.747802734375 L 89.3924560546875 1431.747802734375 L 88.93431091308594 1430.750244140625 C 88.92784118652344 1430.736206054688 88.92144775390625 1430.722045898438 88.91515350341797 1430.707885742188 C 88.04295349121094 1428.749145507812 88.59091186523438 1427.20751953125 88.99517059326172 1426.462890625 C 89.39773559570312 1425.721435546875 90.38547515869141 1424.4287109375 92.47894287109375 1424.09423828125 L 96.47940826416016 1423.452392578125 C 96.48180389404297 1423.452026367188 96.48419189453125 1423.45166015625 96.48657989501953 1423.451171875 C 96.78221130371094 1423.404296875 97.07988739013672 1423.380615234375 97.37139892578125 1423.380615234375 L 97.37139892578125 1423.380615234375 Z M 90.44624328613281 1445.328857421875 L 83.48207855224609 1445.328857421875 C 83.38851928710938 1445.328857421875 83.29670715332031 1445.32666015625 83.20672607421875 1445.322509765625 C 83.25337219238281 1445.835205078125 83.230224609375 1446.57470703125 82.91707611083984 1447.388916015625 C 83.82991027832031 1446.52294921875 85.07672882080078 1446.020874023438 86.49468231201172 1446.020874023438 L 90.44624328613281 1446.020874023438 L 90.44624328613281 1445.328857421875 Z M 81.42533874511719 1450.2314453125 C 81.48694610595703 1449.882446289062 81.57878875732422 1449.54931640625 81.69816589355469 1449.234619140625 L 80.73423767089844 1450.323364257812 C 80.92469024658203 1450.482177734375 81.11330413818359 1450.664306640625 81.29705810546875 1450.872802734375 L 81.42533874511719 1450.2314453125 Z M 90.44624328613281 1459.6015625 L 85.45785522460938 1459.6015625 C 85.31538391113281 1459.6015625 85.17696380615234 1459.596557617188 85.04277038574219 1459.587036132812 C 84.94108581542969 1459.92724609375 84.80726623535156 1460.265502929688 84.64096832275391 1460.598510742188 C 84.63882446289062 1460.602783203125 84.63667297363281 1460.607177734375 84.63449859619141 1460.611450195312 C 84.45539093017578 1460.966918945312 84.27471160888672 1461.322021484375 84.09243774414062 1461.676513671875 L 90.44624328613281 1461.676513671875 L 90.44624328613281 1459.6015625 Z" stroke="none" fill="#fff"/>
        </g>
        <g id="路径_2096" data-name="路径 2096" transform="translate(-131.271 -1426.092)" stroke-linecap="round" stroke-linejoin="round">
          <path d="M 208.2113952636719 1473.546875 L 200.2598266601562 1473.546875 C 196.6423950195312 1473.546875 194.2801361083984 1472.996704101562 192.8256683349609 1471.815551757812 C 191.9989013671875 1471.1435546875 191.385498046875 1470.213134765625 191.0017395019531 1469.049560546875 C 190.8419799804688 1468.565185546875 190.7215728759766 1468.044311523438 190.6394805908203 1467.4794921875 C 189.6580963134766 1469.099609375 188.5486755371094 1470.465209960938 187.3235321044922 1471.558715820312 C 186.5493316650391 1472.343627929688 185.7359771728516 1472.511474609375 185.1823577880859 1472.511474609375 C 184.6900634765625 1472.511474609375 183.94580078125 1472.375122070312 183.1958465576172 1471.72509765625 L 180.5770568847656 1469.452514648438 C 179.7208709716797 1468.710205078125 179.5286102294922 1467.891967773438 179.5182189941406 1467.33642578125 C 179.5077209472656 1466.775634765625 179.6733856201172 1465.940673828125 180.5221405029297 1465.147338867188 L 180.5885772705078 1465.085205078125 L 180.6603698730469 1465.029418945312 C 181.8675994873047 1464.090942382812 183.0431976318359 1462.325561523438 184.1544799804688 1459.782348632812 L 184.1749420166016 1459.735595703125 L 184.1977691650391 1459.68994140625 C 184.6765899658203 1458.730834960938 185.3286590576172 1458.299072265625 185.8740997314453 1458.10888671875 C 185.5060882568359 1457.449584960938 185.3203430175781 1456.657958984375 185.3203430175781 1455.743408203125 L 185.3203430175781 1445.42138671875 C 185.3203430175781 1444.605224609375 185.4682922363281 1443.886962890625 185.7616882324219 1443.273193359375 L 182.7275848388672 1443.273193359375 C 181.5255584716797 1443.273193359375 180.8401947021484 1442.739379882812 180.4769287109375 1442.291625976562 C 180.1816711425781 1441.927612304688 179.7245330810547 1441.135864257812 179.9802398681641 1439.92236328125 L 179.9861450195312 1439.894409179688 L 179.9928436279297 1439.866577148438 L 180.6293029785156 1437.223266601562 C 180.9389495849609 1435.810180664062 181.9746246337891 1434.889892578125 183.3804168701172 1434.748657226562 C 183.1779632568359 1434.602294921875 183.0193023681641 1434.44189453125 182.8971405029297 1434.291259765625 C 182.6018981933594 1433.927368164062 182.1447906494141 1433.135620117188 182.4005432128906 1431.921875 L 182.4064178466797 1431.89404296875 L 182.4130706787109 1431.866333007812 L 183.0491943359375 1429.222412109375 C 183.3869018554688 1427.683349609375 184.5853881835938 1426.728881835938 186.1847229003906 1426.728881835938 L 197.5607604980469 1426.728881835938 C 197.6118621826172 1426.135498046875 197.8470458984375 1425.708740234375 198.0282897949219 1425.461303710938 C 198.3145294189453 1425.070678710938 198.9865875244141 1424.417114257812 200.2813873291016 1424.407836914062 L 204.4102783203125 1424.3095703125 L 204.43408203125 1424.308959960938 L 204.4578857421875 1424.308959960938 C 205.9246520996094 1424.308959960938 207.0982055664062 1425.093017578125 207.6791381835938 1426.460571289062 L 207.7954559326172 1426.728881835938 L 220.8540649414062 1426.728881835938 C 222.0551147460938 1426.728881835938 222.7402801513672 1427.262451171875 223.1035614013672 1427.710083007812 C 223.3988647460938 1428.073852539062 223.856201171875 1428.865478515625 223.6011505126953 1430.078735351562 L 223.5951995849609 1430.10693359375 L 223.5884399414062 1430.135131835938 L 222.9521179199219 1432.77978515625 C 222.7652740478516 1433.628051757812 222.3172302246094 1434.298706054688 221.6849517822266 1434.729736328125 L 223.4715270996094 1434.729736328125 C 224.6723327636719 1434.729736328125 225.3574676513672 1435.262939453125 225.7207794189453 1435.710327148438 C 226.0160827636719 1436.073974609375 226.4735412597656 1436.865112304688 226.2192687988281 1438.078125 L 226.2131958007812 1438.107177734375 L 226.2062377929688 1438.135986328125 L 225.5695953369141 1440.780151367188 C 225.2312622070312 1442.318969726562 224.0328216552734 1443.273193359375 222.4342346191406 1443.273193359375 L 220.6843719482422 1443.273193359375 C 220.9777679443359 1443.886962890625 221.1257171630859 1444.605224609375 221.1257171630859 1445.42138671875 L 221.1257171630859 1455.743408203125 C 221.1257171630859 1456.849487304688 220.8539581298828 1457.77587890625 220.3168029785156 1458.505737304688 C 220.8981475830078 1458.705932617188 221.5310821533203 1459.095947265625 222.1199493408203 1459.816284179688 C 224.0791015625 1461.926391601562 225.5471038818359 1464.136352539062 226.484375 1466.38671875 C 226.8206787109375 1467.110595703125 226.8383941650391 1467.876342773438 226.5324554443359 1468.551879882812 C 226.2977142333984 1469.070190429688 225.7700500488281 1469.753051757812 224.5890960693359 1470.069091796875 L 221.0436248779297 1471.053955078125 L 221.0302886962891 1471.057739257812 L 221.0169067382812 1471.061157226562 C 220.6952667236328 1471.145751953125 220.3787231445312 1471.188598632812 220.0760498046875 1471.188598632812 C 218.9067687988281 1471.188598632812 217.9106140136719 1470.549194335938 217.4113311767578 1469.47802734375 L 217.3575286865234 1469.362670898438 L 217.3188018798828 1469.241333007812 C 217.1957550048828 1468.855834960938 216.9602813720703 1468.317993164062 216.5216979980469 1467.584228515625 C 216.4300231933594 1468.995849609375 215.7555999755859 1470.32177734375 214.5136260986328 1471.530151367188 C 213.1849975585938 1472.88720703125 211.1230163574219 1473.546875 208.2113952636719 1473.546875 Z M 200.235107421875 1464.84423828125 C 200.4057922363281 1464.850952148438 200.6098480224609 1464.855224609375 200.8525543212891 1464.855224609375 L 202.3952484130859 1464.855224609375 C 201.8123016357422 1464.316772460938 201.1980590820312 1463.92822265625 200.5637969970703 1463.697631835938 L 200.4503631591797 1463.656372070312 L 200.3427124023438 1463.601806640625 C 200.3064880371094 1463.583374023438 200.2706451416016 1463.56494140625 200.235107421875 1463.546508789062 L 200.235107421875 1464.84423828125 Z M 211.9505462646484 1461.74267578125 L 212.8395538330078 1462.339965820312 C 212.6354827880859 1461.742065429688 212.6406555175781 1461.166137695312 212.8564453125 1460.617919921875 C 212.9058685302734 1460.492431640625 212.9923248291016 1460.31005859375 213.1334991455078 1460.113891601562 L 210.4319915771484 1460.113891601562 C 210.7073211669922 1460.551635742188 210.7861328125 1460.976684570312 210.8007049560547 1461.273193359375 C 211.1949157714844 1461.333251953125 211.5802917480469 1461.490356445312 211.9505462646484 1461.74267578125 Z" stroke="none"/>
          <path d="M 208.2113952636719 1471.546875 C 210.54833984375 1471.546875 212.1783447265625 1471.0693359375 213.1005249023438 1470.114501953125 C 214.0548858642578 1469.1923828125 214.5325012207031 1468.237915039062 214.5325012207031 1467.25 C 214.697021484375 1466.460205078125 214.5157470703125 1465.884643554688 213.9891662597656 1465.521728515625 L 210.8283996582031 1463.398193359375 C 210.3013916015625 1463.03662109375 209.9891204833984 1463.316772460938 209.8899078369141 1464.237915039062 C 209.8568420410156 1465.060791015625 209.7090911865234 1465.702880859375 209.44580078125 1466.163818359375 C 209.1820678710938 1466.625122070312 208.5893402099609 1466.855224609375 207.6676177978516 1466.855224609375 L 200.8525543212891 1466.855224609375 C 199.7328186035156 1466.855224609375 199.0082092285156 1466.773681640625 198.6796569824219 1466.6083984375 C 198.38330078125 1466.44384765625 198.235107421875 1466.048706054688 198.235107421875 1465.4228515625 L 198.235107421875 1462.3115234375 C 198.235107421875 1461.653564453125 197.9215393066406 1461.274291992188 197.296630859375 1461.175903320312 L 193.4443359375 1460.43505859375 C 192.8183441162109 1460.336059570312 192.5062866210938 1460.6162109375 192.5062866210938 1461.274291992188 L 192.5062866210938 1465.472778320312 C 192.5062866210938 1467.81005859375 193.0324096679688 1469.40625 194.0864562988281 1470.263061523438 C 195.1400451660156 1471.11865234375 197.1978454589844 1471.546875 200.2598266601562 1471.546875 L 208.2113952636719 1471.546875 M 185.182373046875 1470.511474609375 C 185.4387664794922 1470.511474609375 185.6905364990234 1470.379150390625 185.937744140625 1470.114501953125 C 187.6171569824219 1468.633056640625 189.0491333007812 1466.57568359375 190.2345886230469 1463.941528320312 C 190.5962219238281 1463.25048828125 190.530517578125 1462.706665039062 190.0370178222656 1462.3115234375 L 187.2220001220703 1460.18798828125 C 186.72802734375 1459.792846679688 186.315673828125 1459.92529296875 185.9871520996094 1460.583251953125 C 184.7355346679688 1463.447509765625 183.3697052001953 1465.456420898438 181.8878784179688 1466.6083984375 C 181.3943786621094 1467.069702148438 181.3943786621094 1467.51416015625 181.8878784179688 1467.942016601562 L 184.5057678222656 1470.213745117188 C 184.7348022460938 1470.412231445312 184.9603118896484 1470.511474609375 185.182373046875 1470.511474609375 M 220.0760498046875 1469.188720703125 C 220.207763671875 1469.188720703125 220.3518981933594 1469.168090820312 220.5083160400391 1469.126953125 L 224.0642395019531 1468.13916015625 C 224.6891632080078 1467.974243164062 224.8867492675781 1467.662353515625 224.6569671630859 1467.201171875 C 223.8005065917969 1465.12646484375 222.4505615234375 1463.101806640625 220.6071014404297 1461.12646484375 C 220.1131439208984 1460.501098632812 219.5531158447266 1460.237060546875 218.9277038574219 1460.336181640625 L 215.1746520996094 1461.0771484375 C 214.548828125 1461.175903320312 214.5325012207031 1461.604125976562 215.125244140625 1462.361328125 C 217.3638610839844 1464.99560546875 218.7301330566406 1467.0859375 219.2240600585938 1468.633056640625 C 219.3967437744141 1469.003540039062 219.6807556152344 1469.188720703125 220.0760498046875 1469.188720703125 M 204.9389343261719 1464.163940429688 C 205.1776275634766 1464.163940429688 205.4287872314453 1464.073364257812 205.6922912597656 1463.89208984375 L 208.4085388183594 1461.916381835938 C 208.9351043701172 1461.5546875 208.9351043701172 1461.208984375 208.4085388183594 1460.879516601562 L 204.0133361816406 1458.113891601562 L 216.7547912597656 1458.113891601562 C 218.3354187011719 1458.113891601562 219.1257171630859 1457.323608398438 219.1257171630859 1455.743408203125 L 219.1257171630859 1445.42138671875 C 219.1257171630859 1443.84130859375 218.3354187011719 1443.050903320312 216.7547912597656 1443.050903320312 L 189.6912536621094 1443.050903320312 C 188.1106567382812 1443.050903320312 187.3203430175781 1443.84130859375 187.3203430175781 1445.42138671875 L 187.3203430175781 1455.743408203125 C 187.3203430175781 1457.323608398438 188.1106567382812 1458.113891601562 189.6912536621094 1458.113891601562 L 199.8646850585938 1458.113891601562 C 198.5142822265625 1459.43115234375 198.9755859375 1460.666015625 201.2472686767578 1461.817993164062 C 202.3339385986328 1462.213134765625 203.338134765625 1462.904296875 204.2603149414062 1463.89208984375 C 204.4739837646484 1464.073364257812 204.7002258300781 1464.163940429688 204.9389343261719 1464.163940429688 M 192.8515930175781 1452.286376953125 L 213.298095703125 1452.286376953125 L 213.298095703125 1453.1259765625 C 213.298095703125 1453.982421875 212.8694305419922 1454.41015625 212.0138549804688 1454.41015625 L 194.1358489990234 1454.41015625 C 193.2793884277344 1454.41015625 192.8515930175781 1453.982421875 192.8515930175781 1453.1259765625 L 192.8515930175781 1452.286376953125 M 194.1358489990234 1446.70556640625 L 212.0138549804688 1446.70556640625 C 212.8694305419922 1446.70556640625 213.298095703125 1447.133911132812 213.298095703125 1447.989501953125 L 213.298095703125 1448.8291015625 L 192.8515930175781 1448.8291015625 L 192.8515930175781 1447.989501953125 C 192.8515930175781 1447.133911132812 193.2793884277344 1446.70556640625 194.1358489990234 1446.70556640625 M 222.4342346191406 1441.273193359375 C 223.0926818847656 1441.273193359375 223.4878234863281 1440.96044921875 223.6196899414062 1440.334716796875 L 224.2618103027344 1437.667846679688 C 224.3927917480469 1437.04296875 224.1299591064453 1436.729736328125 223.4715270996094 1436.729736328125 L 214.0879516601562 1436.729736328125 C 215.14111328125 1434.885864257812 214.697021484375 1433.799682617188 212.7547607421875 1433.4697265625 L 211.7174987792969 1433.272705078125 L 219.8167877197266 1433.272705078125 C 220.4752349853516 1433.272705078125 220.8699340820312 1432.9599609375 221.0022583007812 1432.334228515625 L 221.6439208984375 1429.667236328125 C 221.7753601074219 1429.0419921875 221.5120849609375 1428.728881835938 220.8540649414062 1428.728881835938 L 206.4826049804688 1428.728881835938 L 205.8404846191406 1427.24755859375 C 205.5767517089844 1426.62255859375 205.1158752441406 1426.308959960938 204.4578857421875 1426.308959960938 L 200.3092346191406 1426.40771484375 C 199.6503295898438 1426.40771484375 199.4201354980469 1426.720947265625 199.6177062988281 1427.345825195312 L 200.1610412597656 1428.728881835938 L 186.1847229003906 1428.728881835938 C 185.5258483886719 1428.728881835938 185.1306915283203 1429.0419921875 184.999267578125 1429.667236328125 L 184.3575744628906 1432.334228515625 C 184.2257232666016 1432.9599609375 184.4885559082031 1433.272705078125 185.1474609375 1433.272705078125 L 194.7779846191406 1433.272705078125 L 193.5431213378906 1433.519653320312 C 191.8967895507812 1433.8486328125 191.4028625488281 1434.91943359375 192.0617370605469 1436.729736328125 L 183.7648620605469 1436.729736328125 C 183.1055297851562 1436.729736328125 182.7103881835938 1437.04296875 182.5794067382812 1437.667846679688 L 181.9372711181641 1440.334716796875 C 181.805419921875 1440.96044921875 182.0686950683594 1441.273193359375 182.7275848388672 1441.273193359375 L 222.4342346191406 1441.273193359375 M 196.6051025390625 1433.272705078125 L 209.44580078125 1433.272705078125 L 208.0627746582031 1436.729736328125 L 197.9881439208984 1436.729736328125 L 196.6051025390625 1433.272705078125 M 208.2113952636719 1475.546875 L 200.2598266601562 1475.546875 C 196.1581268310547 1475.546875 193.3952484130859 1474.854614257812 191.5648651123047 1473.3681640625 C 190.9708709716797 1472.88525390625 190.4626770019531 1472.31640625 190.0408477783203 1471.663208007812 C 189.6091461181641 1472.14599609375 189.1609191894531 1472.596435546875 188.697265625 1473.01318359375 C 187.7171325683594 1473.981201171875 186.4774627685547 1474.511474609375 185.1823577880859 1474.511474609375 C 184.3497009277344 1474.511474609375 183.1019134521484 1474.290283203125 181.8859710693359 1473.236450195312 L 179.2662506103516 1470.963134765625 C 178.1651611328125 1470.008422851562 177.5439910888672 1468.7333984375 177.5185699462891 1467.373779296875 C 177.4929962158203 1466.006958007812 178.0746612548828 1464.697387695312 179.1563873291016 1463.686279296875 C 179.2449188232422 1463.603515625 179.3371734619141 1463.524780273438 179.4328460693359 1463.450439453125 C 179.9623565673828 1463.038818359375 181.0418090820312 1461.910766601562 182.3218231201172 1458.981567382812 C 182.3490905761719 1458.919189453125 182.3779449462891 1458.857421875 182.4083709716797 1458.796508789062 C 182.6968231201172 1458.21875 183.0549163818359 1457.718383789062 183.4752655029297 1457.305053710938 C 183.3773651123047 1456.83544921875 183.3203430175781 1456.316040039062 183.3203430175781 1455.743408203125 L 183.3203430175781 1445.42138671875 C 183.3203430175781 1445.37158203125 183.3207702636719 1445.322143554688 183.3216247558594 1445.273193359375 L 182.7275848388672 1445.273193359375 C 180.6331024169922 1445.273193359375 179.4453277587891 1444.194580078125 178.9237365722656 1443.551635742188 C 178.404296875 1442.911254882812 177.5965576171875 1441.534790039062 178.0232238769531 1439.510009765625 C 178.0310821533203 1439.47265625 178.0394897460938 1439.435424804688 178.0484161376953 1439.398315429688 L 178.6805572509766 1436.77294921875 C 178.9473419189453 1435.577514648438 179.5675811767578 1434.564453125 180.4779663085938 1433.838745117188 C 180.309326171875 1433.198608398438 180.2517700195312 1432.419555664062 180.4435272216797 1431.509521484375 C 180.4513397216797 1431.472412109375 180.4596862792969 1431.435424804688 180.4685516357422 1431.398559570312 L 181.1005706787109 1428.771728515625 C 181.3689575195312 1427.570556640625 181.9939575195312 1426.553833007812 182.9112091064453 1425.827514648438 C 183.8190155029297 1425.108764648438 184.9509735107422 1424.728881835938 186.1847229003906 1424.728881835938 L 196.1258544921875 1424.728881835938 C 196.2237854003906 1424.554565429688 196.3233337402344 1424.404418945312 196.4149169921875 1424.279418945312 C 196.9223327636719 1423.586791992188 198.0921630859375 1422.42919921875 200.2490997314453 1422.407958984375 L 204.3627014160156 1422.31005859375 C 204.3944091796875 1422.309326171875 204.4261474609375 1422.308959960938 204.4578857421875 1422.308959960938 C 205.5852966308594 1422.308959960938 206.6526794433594 1422.629150390625 207.5446014404297 1423.234985351562 C 208.1205902099609 1423.626342773438 208.6165313720703 1424.133178710938 209.0106964111328 1424.728881835938 L 220.8540649414062 1424.728881835938 C 222.9472503662109 1424.728881835938 224.1348419189453 1425.807006835938 224.6564483642578 1426.44970703125 C 225.1759490966797 1427.089721679688 225.9839172363281 1428.4658203125 225.5583648681641 1430.490112304688 C 225.5504302978516 1430.52783203125 225.5419616699219 1430.5654296875 225.5329437255859 1430.602905273438 L 224.9718170166016 1432.935180664062 C 226.1561737060547 1433.279296875 226.8923645019531 1433.98046875 227.2732849121094 1434.449462890625 C 227.7927856445312 1435.089233398438 228.6009674072266 1436.464477539062 228.1767272949219 1438.488403320312 C 228.1686248779297 1438.527099609375 228.1599273681641 1438.565795898438 228.1506805419922 1438.604248046875 L 227.5182952880859 1441.230590820312 C 227.2495727539062 1442.431884765625 226.6243743896484 1443.44873046875 225.7071380615234 1444.174926757812 C 224.9714813232422 1444.757202148438 224.0885314941406 1445.117065429688 223.1236267089844 1445.232543945312 C 223.1250152587891 1445.294921875 223.1257171630859 1445.357788085938 223.1257171630859 1445.42138671875 L 223.1257171630859 1455.743408203125 C 223.1257171630859 1456.492553710938 223.028076171875 1457.150634765625 222.8690338134766 1457.7255859375 C 223.1355285644531 1457.956420898438 223.3882751464844 1458.21435546875 223.6248474121094 1458.497924804688 C 225.7171478271484 1460.759765625 227.2954406738281 1463.143920898438 228.3179321289062 1465.587280273438 C 228.8758087158203 1466.820922851562 228.8910980224609 1468.191772460938 228.3543090820312 1469.376953125 C 228.0166015625 1470.122680664062 227.1476135253906 1471.451049804688 225.1163024902344 1471.998413085938 L 221.5789337158203 1472.981079101562 C 221.5611877441406 1472.985961914062 221.5433959960938 1472.99072265625 221.5255889892578 1472.995483398438 C 221.0380249023438 1473.123657226562 220.5503387451172 1473.188598632812 220.0760498046875 1473.188598632812 C 219.1042785644531 1473.188598632812 218.172607421875 1472.916137695312 217.3817596435547 1472.400390625 C 217.1810760498047 1472.26953125 216.9906616210938 1472.123657226562 216.8116912841797 1471.964111328125 C 216.5541839599609 1472.291137695312 216.2600708007812 1472.619873046875 215.9249420166016 1472.947387695312 C 214.9847869873047 1473.900512695312 213.7693634033203 1474.600219726562 212.3111114501953 1475.027465820312 C 211.1179809570312 1475.376953125 209.7769470214844 1475.546875 208.2113952636719 1475.546875 Z" stroke="none" fill="#fff"/>
        </g>
        <g id="路径_2097" data-name="路径 2097" transform="translate(-192.542 -1425.817)" stroke-linecap="round" stroke-linejoin="round">
          <path d="M 307.2466430664062 1473.917114257812 C 307.0486145019531 1473.917114257812 306.8467102050781 1473.916137695312 306.6408081054688 1473.914306640625 C 306.5856018066406 1473.915771484375 306.5306701660156 1473.91650390625 306.4769592285156 1473.91650390625 C 303.8020629882812 1473.91650390625 303.1453552246094 1472.13037109375 302.9968872070312 1471.491943359375 L 302.3125305175781 1468.80224609375 L 302.3024597167969 1468.762573242188 L 302.2940063476562 1468.722534179688 C 302.0971069335938 1467.790649414062 302.2962036132812 1467.112915039062 302.56591796875 1466.654418945312 L 296.496826171875 1466.654418945312 C 295.2947692871094 1466.654418945312 294.6094360351562 1466.12060546875 294.2461853027344 1465.6728515625 C 293.950927734375 1465.308959960938 293.4937744140625 1464.517211914062 293.7494201660156 1463.3037109375 L 293.7611694335938 1463.247924804688 L 293.7760620117188 1463.192993164062 L 294.4057312011719 1460.86865234375 C 294.4699096679688 1460.587158203125 294.5631408691406 1460.325439453125 294.6824951171875 1460.0859375 L 291.9530029296875 1460.0859375 C 290.7510986328125 1460.0859375 290.0658569335938 1459.552124023438 289.70263671875 1459.104370117188 C 289.4073791503906 1458.740478515625 288.9503173828125 1457.94873046875 289.2061767578125 1456.734985351562 L 289.2129211425781 1456.702880859375 L 289.2207641601562 1456.6708984375 L 289.856201171875 1454.080810546875 C 290.1947937011719 1452.544189453125 291.3922119140625 1451.591552734375 292.9902648925781 1451.591552734375 L 294.1995239257812 1451.591552734375 C 294.0856018066406 1451.179809570312 294.0498352050781 1450.654907226562 294.2171325683594 1450.020263671875 L 294.7596435546875 1447.94873046875 C 294.9862365722656 1447.087890625 295.4822387695312 1446.414672851562 296.1585083007812 1445.9970703125 C 295.4817199707031 1445.232055664062 295.138916015625 1444.216186523438 295.138916015625 1442.973510742188 L 295.138916015625 1437.936279296875 C 295.138916015625 1437.007690429688 295.3303527832031 1436.205810546875 295.7095336914062 1435.54052734375 L 293.0890502929688 1435.54052734375 C 291.8864135742188 1435.54052734375 291.2010192871094 1435.006469726562 290.8378295898438 1434.558471679688 C 290.5426635742188 1434.1943359375 290.0858459472656 1433.40234375 290.3424682617188 1432.188720703125 L 290.3465270996094 1432.169555664062 L 290.3509521484375 1432.150512695312 L 290.9887390136719 1429.401489257812 C 291.3237915039062 1427.85693359375 292.52392578125 1426.8984375 294.1263427734375 1426.8984375 L 308.5225219726562 1426.8984375 L 308.5225219726562 1426.67578125 C 308.5225219726562 1424.99267578125 309.63671875 1423.817016601562 311.2320861816406 1423.817016601562 C 311.4069213867188 1423.817016601562 311.5889587402344 1423.831787109375 311.7731018066406 1423.860961914062 L 311.7949829101562 1423.864379882812 L 311.8167419433594 1423.868286132812 L 315.8982543945312 1424.606079101562 C 317.2021179199219 1424.8212890625 318.1243591308594 1425.687133789062 318.4071350097656 1426.8984375 L 334.3763427734375 1426.8984375 C 335.5773010253906 1426.8984375 336.2624816894531 1427.432006835938 336.6257934570312 1427.879760742188 C 336.9211120605469 1428.24365234375 337.3784790039062 1429.03515625 337.1234130859375 1430.248413085938 L 337.119140625 1430.268798828125 L 337.1144409179688 1430.288940429688 L 336.4765930175781 1433.037963867188 C 336.1413269042969 1434.582275390625 334.941162109375 1435.54052734375 333.3390502929688 1435.54052734375 L 331.9534301757812 1435.54052734375 C 332.3326110839844 1436.205810546875 332.5240478515625 1437.007690429688 332.5240478515625 1437.936279296875 L 332.5240478515625 1442.973510742188 C 332.5240478515625 1444.272827148438 332.1493530273438 1445.324096679688 331.409912109375 1446.099975585938 C 331.6936950683594 1446.26416015625 331.9523620605469 1446.462768554688 332.1851501464844 1446.695434570312 C 332.9672241210938 1447.477416992188 333.3637390136719 1448.551513671875 333.3637390136719 1449.887817382812 L 333.3637390136719 1451.591552734375 L 335.5123901367188 1451.591552734375 C 336.71337890625 1451.591552734375 337.3985595703125 1452.125244140625 337.7618713378906 1452.572875976562 C 338.0572204589844 1452.936767578125 338.5145874023438 1453.728393554688 338.2594299316406 1454.941650390625 L 338.2525939941406 1454.974243164062 L 338.2446594238281 1455.006591796875 L 337.6089477539062 1457.598022460938 C 337.26904296875 1459.133666992188 336.0716247558594 1460.0859375 334.47509765625 1460.0859375 L 333.3637390136719 1460.0859375 L 333.3637390136719 1465.691284179688 C 333.3637390136719 1467.374633789062 332.2494506835938 1468.55029296875 330.6539916992188 1468.55029296875 C 330.4791870117188 1468.55029296875 330.2971801757812 1468.535522460938 330.113037109375 1468.506469726562 L 330.0912170410156 1468.503051757812 L 330.0694580078125 1468.499145507812 L 325.9884033203125 1467.761352539062 C 325.1660461425781 1467.625610351562 324.4954833984375 1467.231079101562 324.0413818359375 1466.654418945312 L 318.4918212890625 1466.654418945312 C 318.4476013183594 1468.216796875 318.177001953125 1469.426635742188 317.6683959960938 1470.340942382812 C 317.0768127441406 1471.484130859375 315.9421691894531 1472.402954101562 314.2944641113281 1473.07275390625 C 312.9044799804688 1473.648803710938 310.6642761230469 1473.917114257812 307.2466430664062 1473.917114257812 Z" stroke="none"/>
          <path d="M 307.2466430664062 1471.917114257812 C 310.3271789550781 1471.917114257812 312.4234008789062 1471.685668945312 313.5351257324219 1471.222534179688 C 314.7527770996094 1470.728515625 315.5430908203125 1470.119140625 315.9055786132812 1469.395385742188 C 316.3007507324219 1468.703857421875 316.4983215332031 1467.633544921875 316.4983215332031 1466.185180664062 L 316.4983215332031 1464.654418945312 L 325.387939453125 1464.654418945312 C 325.387939453125 1465.313354492188 325.7006225585938 1465.691284179688 326.326416015625 1465.7900390625 L 330.4252319335938 1466.531005859375 C 331.0501708984375 1466.629760742188 331.3637084960938 1466.35009765625 331.3637390136719 1465.691284179688 L 331.3637390136719 1458.0859375 L 334.47509765625 1458.0859375 C 335.1331176757812 1458.0859375 335.5282592773438 1457.773193359375 335.66015625 1457.1474609375 L 336.30224609375 1454.530029296875 C 336.4336853027344 1453.905029296875 336.17041015625 1453.591552734375 335.5123901367188 1453.591552734375 L 331.3637390136719 1453.591552734375 L 331.3637390136719 1449.887817382812 C 331.3637390136719 1448.30712890625 330.5734252929688 1447.517333984375 328.9932556152344 1447.517333984375 L 316.4983215332031 1447.517333984375 L 316.4983215332031 1445.343994140625 L 328.153564453125 1445.343994140625 C 329.7341918945312 1445.343994140625 330.5240478515625 1444.55419921875 330.5240478515625 1442.973510742188 L 330.5240478515625 1437.936279296875 C 330.5240478515625 1436.35595703125 329.7341918945312 1435.565673828125 328.153564453125 1435.565673828125 L 316.4983215332031 1435.565673828125 L 316.4983215332031 1433.54052734375 L 333.3390502929688 1433.54052734375 C 333.9974975585938 1433.54052734375 334.3926391601562 1433.228271484375 334.5245056152344 1432.6025390625 L 335.1661987304688 1429.8369140625 C 335.297607421875 1429.2119140625 335.0343322753906 1428.8984375 334.3763427734375 1428.8984375 L 316.4983215332031 1428.8984375 L 316.4983215332031 1427.712890625 C 316.4983215332031 1427.054931640625 316.1847534179688 1426.67578125 315.5602722167969 1426.577392578125 L 311.4609985351562 1425.83642578125 C 310.8350830078125 1425.737182617188 310.5224914550781 1426.017822265625 310.5225219726562 1426.67578125 L 310.5225219726562 1428.8984375 L 294.1263427734375 1428.8984375 C 293.4674682617188 1428.8984375 293.0722961425781 1429.2119140625 292.9408569335938 1429.8369140625 L 292.2991943359375 1432.6025390625 C 292.1668701171875 1433.228271484375 292.43017578125 1433.54052734375 293.0890502929688 1433.54052734375 L 310.5225219726562 1433.54052734375 L 310.5225219726562 1435.565673828125 L 299.5093994140625 1435.565673828125 C 297.9287719726562 1435.565673828125 297.138916015625 1436.35595703125 297.138916015625 1437.936279296875 L 297.138916015625 1442.973510742188 C 297.138916015625 1444.55419921875 297.9287719726562 1445.343994140625 299.5093994140625 1445.343994140625 L 310.5225219726562 1445.343994140625 L 310.5225219726562 1447.517333984375 L 297.9287719726562 1447.517333984375 C 297.2698974609375 1447.517333984375 296.85888671875 1447.83056640625 296.6943969726562 1448.455444335938 L 296.1510620117188 1450.530029296875 C 295.9861145019531 1451.15576171875 296.232666015625 1451.468017578125 296.8919677734375 1451.468017578125 L 310.5225219726562 1451.468017578125 L 310.5225219726562 1453.591552734375 L 292.9902648925781 1453.591552734375 C 292.3313903808594 1453.591552734375 291.9362487792969 1453.905029296875 291.8052673339844 1454.530029296875 L 291.1631469726562 1457.1474609375 C 291.03125 1457.773193359375 291.2941284179688 1458.0859375 291.9530029296875 1458.0859375 L 310.5225219726562 1458.0859375 L 310.5225219726562 1460.406982421875 L 297.5340881347656 1460.406982421875 C 296.874755859375 1460.406982421875 296.4796142578125 1460.720092773438 296.3486328125 1461.345458984375 L 295.7064819335938 1463.715942382812 C 295.5746459960938 1464.341796875 295.8379211425781 1464.654418945312 296.496826171875 1464.654418945312 L 310.5225219726562 1464.654418945312 L 310.5225219726562 1466.185180664062 C 310.5225219726562 1466.613891601562 310.4237365722656 1466.926147460938 310.2261352539062 1467.123779296875 C 310.0612182617188 1467.28857421875 309.74853515625 1467.387451171875 309.2881164550781 1467.420043945312 L 304.94189453125 1467.420043945312 C 304.3488464355469 1467.387939453125 304.1184997558594 1467.682861328125 304.2507934570312 1468.30908203125 L 304.94189453125 1471.025390625 C 305.0728759765625 1471.64990234375 305.6329956054688 1471.946411132812 306.620849609375 1471.9140625 C 306.8338012695312 1471.916137695312 307.0423583984375 1471.917114257812 307.2466430664062 1471.917114257812 M 316.4983215332031 1458.0859375 L 325.387939453125 1458.0859375 L 325.387939453125 1460.406982421875 L 316.4983215332031 1460.406982421875 L 316.4983215332031 1458.0859375 M 316.4983215332031 1451.468017578125 L 324.1535034179688 1451.468017578125 C 324.9760131835938 1451.468017578125 325.387939453125 1451.896240234375 325.387939453125 1452.752197265625 L 325.387939453125 1453.591552734375 L 316.4983215332031 1453.591552734375 L 316.4983215332031 1451.468017578125 M 316.4983215332031 1439.269409179688 L 323.2150268554688 1439.269409179688 C 324.0706176757812 1439.269409179688 324.4988403320312 1439.63232421875 324.4988403320312 1440.356201171875 C 324.4988403320312 1441.212524414062 324.0706176757812 1441.639892578125 323.2150268554688 1441.639892578125 L 316.4983215332031 1441.639892578125 L 316.4983215332031 1439.269409179688 M 304.05322265625 1439.269409179688 L 310.5225219726562 1439.269409179688 L 310.5225219726562 1441.639892578125 L 304.05322265625 1441.639892578125 C 303.1963195800781 1441.639892578125 302.7689819335938 1441.2783203125 302.7689819335938 1440.5537109375 C 302.7689819335938 1439.697631835938 303.1963195800781 1439.269409179688 304.05322265625 1439.269409179688 M 307.2466430664062 1475.917114257812 C 307.05322265625 1475.917114257812 306.8562622070312 1475.916259765625 306.6555480957031 1475.91455078125 C 306.5954284667969 1475.915893554688 306.53564453125 1475.91650390625 306.4769287109375 1475.91650390625 C 305.3153686523438 1475.91650390625 304.2837829589844 1475.659545898438 303.410888671875 1475.15283203125 C 302.2022705078125 1474.451049804688 301.3678283691406 1473.3193359375 301.051513671875 1471.957153320312 L 300.3742980957031 1469.29541015625 C 300.36083984375 1469.242553710938 300.3484802246094 1469.189453125 300.3372192382812 1469.135986328125 C 300.3023681640625 1468.97119140625 300.2755737304688 1468.810546875 300.2560424804688 1468.654418945312 L 296.496826171875 1468.654418945312 C 294.4023742675781 1468.654418945312 293.214599609375 1467.575927734375 292.6930236816406 1466.932983398438 C 292.173583984375 1466.292724609375 291.3658447265625 1464.916259765625 291.7923889160156 1462.891357421875 C 291.8080444335938 1462.817138671875 291.8258056640625 1462.743286132812 291.8456420898438 1462.670043945312 L 292.0038757324219 1462.0859375 L 291.9530029296875 1462.0859375 C 289.8586120605469 1462.0859375 288.6709289550781 1461.00732421875 288.1494140625 1460.364379882812 C 287.6299743652344 1459.723999023438 286.8222961425781 1458.347412109375 287.2491760253906 1456.322387695312 C 287.2581787109375 1456.279541015625 287.2679138183594 1456.236938476562 287.2783508300781 1456.194458007812 L 287.9088745117188 1453.624267578125 C 288.1781311035156 1452.42822265625 288.8016357421875 1451.41552734375 289.7157592773438 1450.691162109375 C 290.4390869140625 1450.1181640625 291.3047790527344 1449.76025390625 292.2509460449219 1449.638427734375 C 292.2608947753906 1449.597045898438 292.2713623046875 1449.555419921875 292.2823791503906 1449.513549804688 L 292.8248901367188 1447.442016601562 C 292.8253173828125 1447.4404296875 292.8257446289062 1447.438842773438 292.826171875 1447.437133789062 C 292.9991760253906 1446.780029296875 293.2768859863281 1446.187133789062 293.6404724121094 1445.6728515625 C 293.3423767089844 1444.947021484375 293.138916015625 1444.055419921875 293.138916015625 1442.973510742188 L 293.138916015625 1437.936279296875 C 293.138916015625 1437.801391601562 293.1420593261719 1437.669555664062 293.148193359375 1437.54052734375 L 293.0890502929688 1437.54052734375 C 290.9935302734375 1437.54052734375 289.8057250976562 1436.461181640625 289.2841796875 1435.81787109375 C 288.7648315429688 1435.17724609375 287.9574890136719 1433.800048828125 288.3857421875 1431.775024414062 C 288.3911437988281 1431.749389648438 288.3967895507812 1431.723999023438 288.4026794433594 1431.698486328125 L 289.0376892089844 1428.961547851562 C 289.3035278320312 1427.751953125 289.93017578125 1426.72802734375 290.852294921875 1425.997680664062 C 291.76025390625 1425.278564453125 292.8923950195312 1424.8984375 294.1263427734375 1424.8984375 L 306.8178405761719 1424.8984375 C 307.0354919433594 1424.286010742188 307.3403625488281 1423.817993164062 307.6159973144531 1423.484375 C 308.4912719726562 1422.4248046875 309.8092956542969 1421.817016601562 311.2320861816406 1421.817016601562 C 311.5110473632812 1421.817016601562 311.7980651855469 1421.840087890625 312.0851440429688 1421.885375976562 C 312.1143188476562 1421.890014648438 312.1434326171875 1421.894897460938 312.1725158691406 1421.900268554688 L 316.2395629882812 1422.635375976562 C 317.5002136230469 1422.8466796875 318.5737609863281 1423.45166015625 319.346923828125 1424.387329101562 C 319.4675903320312 1424.533325195312 319.5936279296875 1424.70361328125 319.7161560058594 1424.8984375 L 334.3763427734375 1424.8984375 C 336.4694519042969 1424.8984375 337.6570739746094 1425.976684570312 338.1786804199219 1426.619384765625 C 339.0757446289062 1427.724609375 339.3960571289062 1429.15966796875 339.0806274414062 1430.659912109375 C 339.0749206542969 1430.68701171875 339.0689392089844 1430.713989257812 339.0626831054688 1430.740966796875 L 338.4276123046875 1433.478149414062 C 338.1613159179688 1434.688842773438 337.5338745117188 1435.713256835938 336.6107482910156 1436.443359375 C 335.9991455078125 1436.927124023438 335.2858276367188 1437.257202148438 334.5082092285156 1437.421020507812 C 334.5186157226562 1437.587768554688 334.5240478515625 1437.759521484375 334.5240478515625 1437.936279296875 L 334.5240478515625 1442.973510742188 C 334.5240478515625 1444.082275390625 334.3102722167969 1444.991455078125 333.9999694824219 1445.726928710938 C 334.6559753417969 1446.539184570312 335.2950439453125 1447.78564453125 335.3585815429688 1449.591552734375 L 335.5123901367188 1449.591552734375 C 337.6055603027344 1449.591552734375 338.7931823730469 1450.669799804688 339.3148193359375 1451.3125 C 340.2118835449219 1452.417846679688 340.5321350097656 1453.852905273438 340.2166137695312 1455.353271484375 C 340.2074890136719 1455.396606445312 340.1976318359375 1455.43994140625 340.1870727539062 1455.483032226562 L 339.5561828613281 1458.054809570312 C 339.2861022949219 1459.250854492188 338.662109375 1460.263549804688 337.7480163574219 1460.9873046875 C 337.0632629394531 1461.529541015625 336.2510070800781 1461.87890625 335.3637390136719 1462.017822265625 L 335.3637390136719 1465.691284179688 C 335.3637390136719 1467.235961914062 334.7683410644531 1468.280395507812 334.2688598632812 1468.884521484375 C 333.3935546875 1469.943115234375 332.0759887695312 1470.55029296875 330.6540222167969 1470.55029296875 C 330.3748779296875 1470.55029296875 330.0877990722656 1470.52734375 329.8007202148438 1470.48193359375 C 329.7716674804688 1470.477294921875 329.7426452636719 1470.472412109375 329.7136840820312 1470.467163085938 L 325.6465148925781 1469.73193359375 C 324.7060852050781 1469.574096679688 323.8799743652344 1469.197875976562 323.2118835449219 1468.654418945312 L 320.3077697753906 1468.654418945312 C 320.1351013183594 1469.663818359375 319.8441772460938 1470.535278320312 319.4313049316406 1471.285888671875 C 318.6131896972656 1472.849975585938 317.1412658691406 1474.073120117188 315.053955078125 1474.922973632812 C 313.3909606933594 1475.610473632812 310.9812927246094 1475.917114257812 307.2466430664062 1475.917114257812 Z" stroke="none" fill="#fff"/>
        </g>
        <g id="路径_2098" data-name="路径 2098" transform="translate(-255.199 -1428.157)" stroke-linecap="round" stroke-linejoin="round">
          <path d="M 420.5483093261719 1475.887084960938 C 419.4658203125 1475.887084960938 418.5037231445312 1475.316650390625 417.9019165039062 1474.320068359375 L 416.2398986816406 1471.7294921875 L 416.2188415527344 1471.69677734375 L 416.1990661621094 1471.6630859375 C 415.5599670410156 1470.575927734375 415.74951171875 1469.67236328125 415.9193725585938 1469.23046875 C 416.1273193359375 1468.689453125 416.6166076660156 1467.968383789062 417.7664489746094 1467.60595703125 L 417.787353515625 1467.599365234375 L 417.8083801269531 1467.59326171875 C 418.1897888183594 1467.482177734375 419.2320861816406 1467.100463867188 421.9291687011719 1465.792846679688 C 422.1110534667969 1465.701904296875 422.2851867675781 1465.613891601562 422.4523010253906 1465.528564453125 C 422.3431396484375 1465.44140625 422.23876953125 1465.348022460938 422.1390686035156 1465.248291015625 C 421.3570251464844 1464.46630859375 420.9605102539062 1463.392211914062 420.9605102539062 1462.055908203125 L 420.9605102539062 1461.50341796875 L 420.9446105957031 1461.509399414062 C 417.698974609375 1462.72265625 412.7731323242188 1464.519897460938 406.3039245605469 1466.851318359375 L 406.2940979003906 1466.854858398438 L 406.2842712402344 1466.858276367188 C 405.8424072265625 1467.012329101562 405.4336242675781 1467.087158203125 405.0345458984375 1467.087158203125 C 403.6985168457031 1467.087280273438 402.64892578125 1466.226684570312 402.3466491699219 1464.8896484375 L 401.3179016113281 1460.873168945312 L 401.3072814941406 1460.831787109375 L 401.2984619140625 1460.789794921875 C 400.9483032226562 1459.130249023438 401.8096618652344 1457.720458984375 403.4441528320312 1457.268920898438 L 406.8858642578125 1456.226196289062 L 406.8858642578125 1440.745361328125 L 404.3914184570312 1440.745361328125 C 403.2131042480469 1440.745361328125 402.5269165039062 1440.231811523438 402.1587829589844 1439.800903320312 C 401.7942810058594 1439.374389648438 401.3973693847656 1438.628173828125 401.5762329101562 1437.495361328125 L 401.5838317871094 1437.447265625 L 401.5938110351562 1437.3994140625 L 402.3266906738281 1433.882080078125 C 402.5986938476562 1432.319213867188 403.8101196289062 1431.31298828125 405.4282836914062 1431.31298828125 L 419.3062133789062 1431.31298828125 C 419.4262084960938 1431.31298828125 419.5411071777344 1431.318359375 419.6510620117188 1431.328369140625 L 419.8180847167969 1430.531860351562 C 420.1449279785156 1428.97265625 421.3490600585938 1428.00390625 422.9605102539062 1428.00390625 L 447.9010009765625 1428.00390625 C 449.1015319824219 1428.00390625 449.7866821289062 1428.537231445312 450.1500549316406 1428.984619140625 C 450.4454345703125 1429.348388671875 450.9030151367188 1430.1396484375 450.6487426757812 1431.352661132812 L 450.0066223144531 1434.414794921875 C 449.69384765625 1435.894287109375 448.5953979492188 1436.840698242188 447.1112365722656 1436.93505859375 C 447.3936767578125 1437.098876953125 447.6512451171875 1437.296875 447.8830871582031 1437.52880859375 C 448.6648864746094 1438.310668945312 449.061279296875 1439.384643554688 449.061279296875 1440.720703125 L 449.061279296875 1462.055908203125 C 449.061279296875 1463.39208984375 448.6649169921875 1464.466186523438 447.8831787109375 1465.248046875 C 447.5289916992188 1465.602294921875 447.1148681640625 1465.87744140625 446.6436157226562 1466.072509765625 C 448.1492004394531 1466.9921875 449.4134216308594 1467.884033203125 450.4650573730469 1468.766357421875 C 451.1306457519531 1469.31787109375 451.4664916992188 1470.087768554688 451.3867797851562 1470.881225585938 C 451.326904296875 1471.477416992188 451.0133056640625 1472.314819335938 449.8656311035156 1472.937744140625 L 446.3409423828125 1474.994506835938 L 446.30419921875 1475.015991210938 L 446.2665710449219 1475.035766601562 C 445.7118225097656 1475.32861328125 445.1487731933594 1475.477172851562 444.5931396484375 1475.477172851562 C 443.8709106445312 1475.477172851562 443.1889038085938 1475.227172851562 442.620849609375 1474.754150390625 L 442.5727233886719 1474.714111328125 L 442.5272216796875 1474.671142578125 C 441.794189453125 1473.978759765625 440.0309143066406 1472.642944335938 435.7934875488281 1470.210815429688 L 435.7522888183594 1470.187133789062 L 435.7122497558594 1470.161499023438 C 435.307861328125 1469.903198242188 434.99365234375 1469.647216796875 434.7515869140625 1469.379272460938 C 434.113525390625 1468.672607421875 434.0352783203125 1467.959716796875 434.0820007324219 1467.486206054688 C 434.1048278808594 1467.254760742188 434.1864013671875 1466.841186523438 434.4684143066406 1466.4267578125 L 433.0606994628906 1466.4267578125 C 433.677734375 1467.148193359375 433.7721252441406 1467.86767578125 433.7314453125 1468.370361328125 C 433.6955261230469 1468.814086914062 433.4973449707031 1469.63818359375 432.5897216796875 1470.300659179688 C 432.0526428222656 1470.756591796875 430.9711303710938 1471.496948242188 427.81103515625 1473.07763671875 C 425.394775390625 1474.302490234375 423.3020935058594 1475.190063476562 421.590576171875 1475.716064453125 C 421.2414245605469 1475.82958984375 420.8909301757812 1475.887084960938 420.5483093261719 1475.887084960938 Z M 416.8118286132812 1440.745361328125 L 416.8118286132812 1453.124755859375 L 419.3269958496094 1452.302612304688 L 419.3361206054688 1452.299560546875 L 419.3453063964844 1452.296752929688 C 419.6841735839844 1452.189575195312 420.015869140625 1452.13525390625 420.3312377929688 1452.13525390625 C 420.5477905273438 1452.13525390625 420.7587280273438 1452.160766601562 420.9605102539062 1452.210205078125 L 420.9605102539062 1440.720703125 C 420.9605102539062 1439.384521484375 421.3570556640625 1438.310546875 422.1391296386719 1437.528564453125 C 422.3672790527344 1437.300415039062 422.620361328125 1437.105102539062 422.8974914550781 1436.94287109375 L 421.9236755371094 1436.94287109375 C 421.822265625 1436.94287109375 421.7245788574219 1436.939086914062 421.6304016113281 1436.931884765625 L 421.3710327148438 1438.176635742188 C 421.0992126464844 1439.7392578125 419.8875732421875 1440.745361328125 418.2689819335938 1440.745361328125 L 416.8118286132812 1440.745361328125 Z" stroke="none"/>
          <path d="M 420.5483093261719 1473.887084960938 C 420.6849975585938 1473.887084960938 420.8306884765625 1473.861328125 420.9851989746094 1473.809814453125 C 422.5979919433594 1473.31591796875 424.5733032226562 1472.476806640625 426.9115905761719 1471.291259765625 C 429.2820739746094 1470.105712890625 430.763916015625 1469.250244140625 431.356201171875 1468.72314453125 C 431.8501281738281 1468.394165039062 431.866455078125 1468.015380859375 431.406005859375 1467.587158203125 L 428.640380859375 1465.06884765625 C 428.1785888671875 1464.640991210938 427.7177734375 1464.608032226562 427.2573547363281 1464.9697265625 C 426.467041015625 1465.62890625 424.9856567382812 1466.5009765625 422.8127746582031 1467.587158203125 C 420.6394348144531 1468.64111328125 419.1580505371094 1469.283203125 418.3677368164062 1469.513427734375 C 417.741943359375 1469.710693359375 417.59375 1470.089111328125 417.9232177734375 1470.649536132812 L 419.6026000976562 1473.26708984375 C 419.845458984375 1473.680297851562 420.1610107421875 1473.887084960938 420.5483093261719 1473.887084960938 M 444.5931396484375 1473.477172851562 C 444.8211059570312 1473.477172851562 445.0676574707031 1473.407104492188 445.3329467773438 1473.26708984375 L 448.888427734375 1471.1923828125 C 449.4480895996094 1470.896484375 449.546875 1470.599731445312 449.1852416992188 1470.303344726562 C 447.5384521484375 1468.920654296875 445.234130859375 1467.456176757812 442.2709350585938 1465.908203125 C 441.5133361816406 1465.480834960938 440.8385925292969 1465.382080078125 440.2457885742188 1465.61181640625 L 436.4433288574219 1467.340087890625 C 435.8505859375 1467.5712890625 435.9656982421875 1467.950073242188 436.7890930175781 1468.476196289062 C 440.3450317382812 1470.517211914062 442.7154846191406 1472.097900390625 443.9005126953125 1473.217163085938 C 444.108642578125 1473.390502929688 444.3393859863281 1473.477172851562 444.5931396484375 1473.477172851562 M 405.0343933105469 1465.087158203125 C 405.2039794921875 1465.087158203125 405.4011840820312 1465.048095703125 405.6258544921875 1464.9697265625 C 412.1119079589844 1462.63232421875 416.9847106933594 1460.8544921875 420.2442932128906 1459.635986328125 C 420.7382202148438 1459.4384765625 420.9851989746094 1459.010986328125 420.9851989746094 1458.352172851562 L 420.8864135742188 1454.89453125 C 420.8864135742188 1454.236572265625 420.5733642578125 1454.005981445312 419.9483642578125 1454.20361328125 L 414.8118286132812 1455.882568359375 L 414.8118286132812 1438.745361328125 L 418.2689819335938 1438.745361328125 C 418.9273986816406 1438.745361328125 419.3062133789062 1438.43310546875 419.405029296875 1437.807373046875 L 420.1459350585938 1434.25146484375 C 420.2442932128906 1433.62646484375 419.9642333984375 1433.31298828125 419.3062133789062 1433.31298828125 L 405.4282836914062 1433.31298828125 C 404.7693786621094 1433.31298828125 404.3914184570312 1433.62646484375 404.2926635742188 1434.25146484375 L 403.5517578125 1437.807373046875 C 403.4529418945312 1438.43310546875 403.7325439453125 1438.745361328125 404.3914184570312 1438.745361328125 L 408.8858642578125 1438.745361328125 L 408.8858642578125 1457.710083007812 L 403.9962768554688 1459.19140625 C 403.3704833984375 1459.35693359375 403.1235046386719 1459.751953125 403.25537109375 1460.376953125 L 404.2926635742188 1464.4267578125 C 404.3847961425781 1464.866943359375 404.6320190429688 1465.087280273438 405.0343933105469 1465.087158203125 M 444.6907958984375 1464.4267578125 C 446.2714233398438 1464.4267578125 447.061279296875 1463.636474609375 447.061279296875 1462.055908203125 L 447.061279296875 1440.720703125 C 447.061279296875 1439.140502929688 446.2714233398438 1438.350219726562 444.6907958984375 1438.350219726562 L 436.7396850585938 1438.350219726562 L 437.97412109375 1434.94287109375 L 446.8637084960938 1434.94287109375 C 447.5221557617188 1434.94287109375 447.9168701171875 1434.630249023438 448.0491943359375 1434.00439453125 L 448.6912841796875 1430.9423828125 C 448.822265625 1430.317504882812 448.5589904785156 1430.00390625 447.9010009765625 1430.00390625 L 422.9605102539062 1430.00390625 C 422.3016357421875 1430.00390625 421.906494140625 1430.317504882812 421.7755126953125 1430.9423828125 L 421.1333618164062 1434.00439453125 C 421.0015258789062 1434.630249023438 421.2643432617188 1434.94287109375 421.9236755371094 1434.94287109375 L 431.356201171875 1434.94287109375 L 430.7145080566406 1438.350219726562 L 425.3314208984375 1438.350219726562 C 423.7508239746094 1438.350219726562 422.9605102539062 1439.140502929688 422.9605102539062 1440.720703125 L 422.9605102539062 1462.055908203125 C 422.9605102539062 1463.636474609375 423.7508239746094 1464.4267578125 425.3314208984375 1464.4267578125 L 444.6907958984375 1464.4267578125 M 428.3934326171875 1456.96923828125 L 441.3324584960938 1456.96923828125 L 441.3324584960938 1458.84619140625 C 441.3324584960938 1459.7021484375 440.9042358398438 1460.1298828125 440.0486450195312 1460.1298828125 L 429.6772155761719 1460.1298828125 C 428.8207702636719 1460.1298828125 428.3934326171875 1459.7021484375 428.3934326171875 1458.84619140625 L 428.3934326171875 1456.96923828125 M 428.3934326171875 1449.759033203125 L 441.3324584960938 1449.759033203125 L 441.3324584960938 1452.919311523438 L 428.3934326171875 1452.919311523438 L 428.3934326171875 1449.759033203125 M 429.6772155761719 1442.696533203125 L 440.0486450195312 1442.696533203125 C 440.9042358398438 1442.696533203125 441.3324584960938 1443.124755859375 441.3324584960938 1443.980224609375 L 441.3324584960938 1445.807861328125 L 428.3934326171875 1445.807861328125 L 428.3934326171875 1443.980224609375 C 428.3934326171875 1443.124755859375 428.8207702636719 1442.696533203125 429.6772155761719 1442.696533203125 M 420.5483093261719 1477.887084960938 C 418.7557373046875 1477.887084960938 417.1780090332031 1476.974365234375 416.2048034667969 1475.378540039062 L 414.5565490722656 1472.8095703125 C 414.5285034179688 1472.765747070312 414.5012817382812 1472.721557617188 414.4749450683594 1472.6767578125 C 413.4106750488281 1470.866333007812 413.7534790039062 1469.290893554688 414.0525207519531 1468.512817382812 C 414.3519897460938 1467.733764648438 415.154541015625 1466.332275390625 417.1651306152344 1465.698486328125 C 417.1929931640625 1465.689697265625 417.2209777832031 1465.681274414062 417.2490234375 1465.673095703125 C 417.4046630859375 1465.627685546875 417.9582824707031 1465.44189453125 419.4599914550781 1464.75 C 419.3961486816406 1464.59423828125 419.3367309570312 1464.430908203125 419.2826843261719 1464.259521484375 C 416.1706237792969 1465.407958984375 412.0485534667969 1466.906982421875 406.9819641113281 1468.732788085938 C 406.9689331054688 1468.737548828125 406.9558410644531 1468.7421875 406.9427490234375 1468.746704101562 C 406.2948913574219 1468.97265625 405.6530151367188 1469.087158203125 405.0347900390625 1469.087158203125 L 405.0347900390625 1469.087158203125 C 405.03466796875 1469.087158203125 405.03466796875 1469.087158203125 405.0346374511719 1469.087158203125 C 402.7685852050781 1469.08740234375 400.921142578125 1467.595092773438 400.4028015136719 1465.36083984375 L 399.3804626464844 1461.369506835938 C 399.3663024902344 1461.314208984375 399.3533325195312 1461.258544921875 399.341552734375 1461.202758789062 C 399.0630493164062 1459.8828125 399.279052734375 1458.56494140625 399.9497375488281 1457.491821289062 C 400.40869140625 1456.757568359375 401.2888793945312 1455.796142578125 402.8865356445312 1455.348022460938 L 404.8858642578125 1454.742309570312 L 404.8858642578125 1442.745361328125 L 404.3914184570312 1442.745361328125 C 402.3489990234375 1442.745361328125 401.1632995605469 1441.714599609375 400.6382751464844 1441.100219726562 C 399.7369384765625 1440.045288085938 399.3684387207031 1438.654296875 399.6007080078125 1437.183471679688 C 399.6108703613281 1437.119140625 399.6225891113281 1437.05517578125 399.6358642578125 1436.991455078125 L 400.3624877929688 1433.504150390625 C 400.8149108886719 1430.991821289062 402.8356628417969 1429.31298828125 405.4282836914062 1429.31298828125 L 418.09326171875 1429.31298828125 C 418.4210815429688 1428.430786132812 418.9624938964844 1427.676879882812 419.6858520507812 1427.103759765625 C 420.5938720703125 1426.384155273438 421.7262573242188 1426.00390625 422.9605102539062 1426.00390625 L 447.9010009765625 1426.00390625 C 449.9933471679688 1426.00390625 451.180908203125 1427.08154296875 451.7025756835938 1427.723876953125 C 452.5997009277344 1428.828491210938 452.9206237792969 1430.262939453125 452.606201171875 1431.762939453125 L 451.9640502929688 1434.825317382812 C 451.9635925292969 1434.827514648438 451.963134765625 1434.82958984375 451.9626770019531 1434.831787109375 C 451.7261352539062 1435.95068359375 451.1830749511719 1436.9130859375 450.3847045898438 1437.634521484375 C 450.7752990722656 1438.422973632812 451.061279296875 1439.438354492188 451.061279296875 1440.720703125 L 451.061279296875 1462.055908203125 C 451.061279296875 1463.768432617188 450.5514831542969 1465.00439453125 449.9634399414062 1465.8603515625 C 450.60986328125 1466.319091796875 451.2022399902344 1466.774536132812 451.7444152832031 1467.229125976562 C 452.9293518066406 1468.212280273438 453.5240783691406 1469.614501953125 453.3767700195312 1471.0810546875 C 453.2884521484375 1471.96044921875 452.8411254882812 1473.585327148438 450.8489379882812 1474.679565429688 L 447.3489379882812 1476.721923828125 C 447.2999267578125 1476.75048828125 447.2503662109375 1476.778076171875 447.2001953125 1476.804565429688 C 446.3546752929688 1477.250854492188 445.4775390625 1477.477172851562 444.5931396484375 1477.477172851562 C 443.3975524902344 1477.477172851562 442.2730407714844 1477.067016601562 441.3411865234375 1476.291259765625 C 441.2770690917969 1476.23779296875 441.214599609375 1476.182495117188 441.1539306640625 1476.125122070312 C 440.6181335449219 1475.619140625 439.0799255371094 1474.403198242188 434.7978820800781 1471.9453125 C 434.742919921875 1471.913818359375 434.6887512207031 1471.880981445312 434.6353759765625 1471.846923828125 C 434.4858703613281 1471.751342773438 434.3442993164062 1471.654907226562 434.2100830078125 1471.55712890625 C 434.0897827148438 1471.666381835938 433.9628601074219 1471.771118164062 433.8296508789062 1471.871215820312 C 433.1583557128906 1472.430297851562 431.9354553222656 1473.250610351562 428.7112731933594 1474.863525390625 C 426.166259765625 1476.153442382812 424.033447265625 1477.056518554688 422.1921997070312 1477.62353515625 C 421.6484680175781 1477.798461914062 421.095703125 1477.887084960938 420.5483093261719 1477.887084960938 Z M 418.8118286132812 1442.720336914062 L 418.8118286132812 1450.368286132812 C 418.8614196777344 1450.353271484375 418.9109497070312 1450.338989257812 418.9605102539062 1450.325439453125 L 418.9605102539062 1442.704467773438 C 418.9112854003906 1442.710327148438 418.861572265625 1442.715698242188 418.8118286132812 1442.720336914062 Z" stroke="none" fill="#fff"/>
        </g>
      </g>
    </g>
  </g>
</svg>
